<svg width="127" height="98" viewBox="0 0 127 98" fill="none" xmlns="http://www.w3.org/2000/svg">
<path d="M44.9771 15.5737V7.94336H52.3888V0.501953H30.1537V7.94336H37.5654V15.5737C16.8203 17.4622 0.506836 35.0008 0.506836 56.3125C0.506836 78.8799 18.7939 97.2402 41.2713 97.2402C63.7486 97.2402 82.0357 78.8799 82.0357 56.3125C82.0357 35.0008 65.7222 17.4612 44.9771 15.5737ZM67.2123 60.0332H37.5654V30.2676H44.9771V52.5918H67.2123V60.0332Z" fill="black"/>
<path d="M126.694 60.0332H96.8004V52.5918H126.694V60.0332Z" fill="black"/>
<path d="M119.283 82.3574H89.1417V74.916H119.283V82.3574Z" fill="black"/>
<path d="M119.283 37.709H89.1417V30.2676H119.283V37.709Z" fill="black"/>
</svg>
