<?xml version="1.0" encoding="utf-8"?>
<!-- Generator: Adobe Illustrator 22.1.0, SVG Export Plug-In . SVG Version: 6.00 Build 0)  -->
<svg version="1.1" id="Layer_1" xmlns="http://www.w3.org/2000/svg" xmlns:xlink="http://www.w3.org/1999/xlink" x="0px" y="0px"
	 viewBox="0 0 26 27" style="enable-background:new 0 0 26 27;" xml:space="preserve">
<style type="text/css">
	.st0{fill:#D04F45;}
</style>
<path id="XMLID_17_" class="st0" d="M8.6,19.7c0.8,2.7,2.1,4.7,3.6,5.2v-5.8C10.9,19.3,9.7,19.4,8.6,19.7z M13.9,14.1v3.4
	c1.4,0.1,2.7,0.3,4,0.6c0.3-1.3,0.4-2.6,0.5-4H13.9z M13.9,1.5v5.8c1.2-0.1,2.4-0.2,3.6-0.5C16.6,4.1,15.3,2.1,13.9,1.5z M17.9,8.4
	c-1.3,0.3-2.6,0.5-4,0.6v3.4h4.5C18.3,11,18.1,9.6,17.9,8.4z M8.6,6.7c1.2,0.3,2.4,0.5,3.6,0.5V1.5C10.7,2.1,9.4,4.1,8.6,6.7z
	 M7.6,14.1c0.1,1.4,0.2,2.7,0.5,4c1.3-0.3,2.6-0.5,4-0.6v-3.4H7.6L7.6,14.1z M8.1,8.4c-0.3,1.3-0.4,2.6-0.5,4h4.5V9
	C10.8,8.9,9.4,8.7,8.1,8.4z M13.9,19.2V25c1.5-0.6,2.8-2.6,3.6-5.2C16.3,19.4,15.1,19.3,13.9,19.2z M20.1,14.1
	c-0.1,1.6-0.2,3.1-0.6,4.5c1.5,0.5,2.9,1.2,4.2,2c1.3-1.9,2.1-4.1,2.3-6.5H20.1L20.1,14.1z M6.9,20.2c-1.3,0.4-2.5,1-3.6,1.7
	c1.9,2.1,4.4,3.6,7.3,4.1C9.1,25,7.8,22.9,6.9,20.2z M19.1,20.2c-0.8,2.7-2.1,4.8-3.7,5.8c2.9-0.5,5.4-2,7.3-4.1
	C21.6,21.2,20.3,20.7,19.1,20.2z M23.7,5.9c-1.3,0.8-2.7,1.5-4.2,2c0.3,1.4,0.5,2.9,0.6,4.5H26C25.8,10,25,7.7,23.7,5.9z M2.3,5.9
	C1,7.7,0.2,10,0,12.4h5.9C6,10.8,6.2,9.3,6.5,7.9C5,7.4,3.6,6.7,2.3,5.9z M5.9,14.1H0c0.2,2.4,1,4.6,2.3,6.5c1.3-0.8,2.7-1.5,4.2-2
	C6.2,17.2,6,15.7,5.9,14.1z M3.3,4.5c1.1,0.7,2.3,1.3,3.6,1.7c0.8-2.7,2.1-4.8,3.7-5.8C7.8,1,5.2,2.4,3.3,4.5z M15.4,0.4
	c1.6,1.1,2.9,3.2,3.7,5.8c1.3-0.4,2.5-1,3.6-1.7C20.8,2.4,18.2,1,15.4,0.4z"/>
</svg>
