<svg width="26" height="26" viewBox="0 0 26 26" fill="none" xmlns="http://www.w3.org/2000/svg">
<path d="M0.709576 11.0292C0.250246 9.78849 -0.0823729 8.52137 0.0179406 7.17506C0.0812966 6.34615 0.392797 5.63868 0.999958 5.05791C1.65992 4.43491 2.28292 3.78024 2.93231 3.14668C3.77706 2.31249 4.83827 2.31777 5.68302 3.14668C6.20571 3.6588 6.72311 4.18149 7.24052 4.70418C7.74209 5.20574 8.24893 5.70731 8.7505 6.21416C9.63221 7.10642 9.63749 8.14651 8.75578 9.0335C8.12222 9.66706 7.49394 10.3059 6.84982 10.9289C6.68087 11.0926 6.66504 11.2298 6.75479 11.4357C7.17716 12.4494 7.7896 13.3523 8.47596 14.197C9.85923 15.8971 11.422 17.407 13.2857 18.5738C13.687 18.822 14.1252 19.0068 14.5423 19.2338C14.7588 19.35 14.9013 19.313 15.0755 19.1335C15.7038 18.4841 16.3479 17.8452 16.9921 17.2064C17.8368 16.3722 18.8927 16.3669 19.7375 17.2064C20.7723 18.2307 21.8018 19.2602 22.8261 20.295C23.6867 21.1609 23.6814 22.2221 22.8155 23.0932C22.2295 23.6846 21.6118 24.2442 21.0627 24.8619C20.2602 25.7595 19.2465 26.0551 18.0955 25.9918C16.4166 25.902 14.8696 25.3424 13.3755 24.6191C10.0599 23.0088 7.22996 20.7755 4.85939 17.9561C3.10654 15.8654 1.65992 13.5951 0.709576 11.0292ZM25.9992 12.9193C25.9992 5.79707 20.2021 0 13.0798 0V2.46032C18.8452 2.46032 23.5388 7.15394 23.5388 12.9193H25.9992ZM18.9244 12.9193H21.3847C21.3847 8.34186 17.6573 4.61442 13.0798 4.61442V7.07474C14.6426 7.07474 16.1104 7.6819 17.2138 8.78535C18.3173 9.8888 18.9244 11.3565 18.9244 12.9193Z" fill="#D04F45"/>
</svg>
