<svg width="21" height="29" viewBox="0 0 21 29" fill="none" xmlns="http://www.w3.org/2000/svg">
<path d="M10.2946 0C4.61812 0 0 4.61812 0 10.2945C0 17.3391 9.21265 27.681 9.60488 28.1178C9.9733 28.5282 10.6165 28.5275 10.9843 28.1178C11.3765 27.681 20.5892 17.3391 20.5892 10.2945C20.5891 4.61812 15.971 0 10.2946 0ZM10.2946 15.474C7.43862 15.474 5.11518 13.1505 5.11518 10.2945C5.11518 7.43856 7.43867 5.11512 10.2946 5.11512C13.1505 5.11512 15.4739 7.43862 15.4739 10.2946C15.4739 13.1506 13.1505 15.474 10.2946 15.474Z" fill="#D04F45"/>
</svg>
