<svg width="26" height="27" viewBox="0 0 26 27" fill="none" xmlns="http://www.w3.org/2000/svg">
<path d="M22.2924 3.33839C19.913 1.14535 16.9535 0.0488281 13.4191 0.0488281C9.70367 0.0488281 6.53654 1.29439 3.92299 3.79084C1.30944 6.28728 0 9.39054 0 13.1059C0 16.667 1.24556 19.7276 3.73136 22.2933C6.22781 24.8589 9.58125 26.1418 13.8023 26.1418C16.3467 26.1418 18.8431 25.6201 21.2917 24.5715C22.0901 24.2308 22.4787 23.3153 22.154 22.5115C21.8186 21.6812 20.8711 21.2979 20.0461 21.6492C17.9169 22.5648 15.8303 23.0225 13.797 23.0225C10.5607 23.0225 8.05357 22.0378 6.27572 20.063C4.50319 18.0935 3.61426 15.778 3.61426 13.1219C3.61426 10.2369 4.56706 7.83093 6.46734 5.89871C8.3623 3.97182 10.6991 3.00305 13.467 3.00305C16.0167 3.00305 18.1724 3.79616 19.929 5.38239C21.6856 6.96862 22.5638 8.96471 22.5638 11.3707C22.5638 13.0154 22.1593 14.3888 21.3555 15.48C20.5518 16.5765 19.7161 17.1194 18.8484 17.1194C18.38 17.1194 18.1458 16.8692 18.1458 16.3636C18.1458 15.9537 18.1778 15.4746 18.2363 14.921L19.2264 6.8249H15.8197L15.6015 7.61801C14.7338 6.91006 13.781 6.55343 12.7484 6.55343C11.1089 6.55343 9.70367 7.20815 8.53796 8.51226C7.36691 9.81637 6.78672 11.4984 6.78672 13.5531C6.78672 15.5598 7.30304 17.1833 8.34101 18.4129C9.37898 19.6478 10.6245 20.2599 12.083 20.2599C13.3871 20.2599 14.4996 19.7117 15.4258 18.6205C16.1231 19.6691 17.1504 20.1907 18.5078 20.1907C20.5039 20.1907 22.2285 19.3231 23.6816 17.5825C25.1348 15.8472 25.864 13.75 25.864 11.2961C25.864 8.18756 24.677 5.53143 22.2924 3.33839ZM14.4464 15.5864C13.8449 16.3955 13.1263 16.8054 12.2906 16.8054C11.7211 16.8054 11.2633 16.5073 10.9173 15.9111C10.566 15.3149 10.3903 14.5751 10.3903 13.6861C10.3903 12.5896 10.6352 11.706 11.1249 11.0353C11.6146 10.3646 12.2214 10.024 12.9453 10.024C13.5734 10.024 14.1323 10.2741 14.622 10.7798C15.1118 11.2855 15.3566 11.9562 15.3566 12.7972C15.3513 13.8458 15.0479 14.772 14.4464 15.5864Z" fill="#D04F45"/>
</svg>
