<svg width="101" height="63" viewBox="0 0 101 63" fill="none" xmlns="http://www.w3.org/2000/svg">
<path d="M22.836 57.4273C35.046 57.4273 43.758 48.5833 43.758 33.2713C43.758 17.9593 35.046 9.11528 22.836 9.11528C10.626 9.11528 1.914 17.9593 1.914 33.2713C1.914 48.5833 10.626 57.4273 22.836 57.4273ZM22.836 44.9533C19.8 44.9533 17.556 42.1813 17.556 33.2713C17.556 24.3613 19.8 21.5893 22.836 21.5893C25.872 21.5893 28.116 24.3613 28.116 33.2713C28.116 42.1813 25.872 44.9533 22.836 44.9533ZM72.9047 28.4533L81.4847 19.7413V10.1713H47.0327V21.9193H63.5327L56.7347 28.8493V38.4193H62.8727C66.8327 38.4193 68.3507 39.6073 68.3507 41.5873C68.3507 43.9633 65.8427 45.1513 62.3447 45.1513C58.4507 45.1513 53.8967 44.0953 49.9367 41.7853L44.6567 53.2693C49.6067 56.0413 56.5367 57.4273 62.8727 57.4273C77.6567 57.4273 83.9927 49.5073 83.9927 41.5873C83.9927 35.1853 80.1647 30.2353 72.9047 28.4533Z" fill="#D25046"/>
<path d="M70.4957 8.43707C70.598 8.22987 70.6485 8.00097 70.643 7.76996C70.6224 7.53551 70.6915 7.30199 70.8361 7.11635C70.9808 6.93071 71.1904 6.80672 71.4228 6.7693C71.5491 6.74272 71.6735 6.70799 71.7954 6.66533C72.0748 6.56145 72.3824 6.56145 72.6618 6.66533C72.7337 6.67902 72.798 6.71899 72.842 6.77745C72.8861 6.83591 72.9068 6.90867 72.9001 6.98156C72.9001 7.2588 72.9001 7.53171 72.9001 7.80894C72.9083 7.88823 72.8908 7.96803 72.8503 8.03665C72.8097 8.10526 72.7482 8.15907 72.6748 8.19016C72.4849 8.29341 72.3012 8.40767 72.1246 8.53237C71.9253 8.66233 71.9383 8.86593 71.9253 9.07386C71.9123 9.28179 72.1246 9.25579 72.1896 9.37276C72.3612 9.38276 72.5334 9.36818 72.7008 9.32944C73.0329 9.22686 73.3808 9.18576 73.7276 9.20815C73.8092 9.20088 73.8913 9.21365 73.9668 9.24537C74.0423 9.27707 74.1089 9.32676 74.1608 9.39008C74.2129 9.46023 74.2758 9.52164 74.3471 9.57202C74.4517 9.63813 74.535 9.73289 74.5873 9.84502C74.6395 9.95715 74.6584 10.0819 74.6417 10.2045C74.6341 10.4198 74.6619 10.6349 74.724 10.8413C74.7416 10.9226 74.7762 10.9993 74.8255 11.0663C74.8748 11.1333 74.9377 11.1891 75.0102 11.23C75.0826 11.2709 75.1629 11.2961 75.2458 11.3037C75.3286 11.3114 75.4122 11.3014 75.4909 11.2744C75.6421 11.2208 75.8072 11.2213 75.9581 11.2758C76.109 11.3303 76.2363 11.4355 76.3184 11.5733C76.366 11.6427 76.4397 11.699 76.4873 11.7726C76.7412 12.1762 77.1246 12.4817 77.5747 12.639C77.7654 12.6736 77.9603 12.691 78.1466 12.7386C78.3329 12.7863 78.5192 12.8513 78.7055 12.9119C78.9849 12.7712 79.2258 12.5646 79.4073 12.3098C79.406 12.2357 79.4296 12.1634 79.4744 12.1045C79.5192 12.0455 79.5826 12.0034 79.6543 11.9849C80.0645 11.812 80.5165 11.7638 80.954 11.8463C81.08 11.899 81.2203 11.9067 81.3513 11.8681C81.4824 11.8294 81.596 11.7467 81.6732 11.634C81.7338 11.5777 81.7901 11.517 81.8465 11.4607C81.8465 11.3221 81.8161 11.1835 81.8075 11.0275C81.7988 10.8716 81.6992 10.8629 81.5995 10.8846C81.4784 10.915 81.3597 10.9541 81.2443 11.0015C80.9725 11.0608 80.691 11.0592 80.4199 10.9971C80.1488 10.9349 79.8948 10.8137 79.6759 10.642L79.416 10.4601C79.3059 10.4054 79.2015 10.3401 79.1041 10.2651C79.0724 10.2311 79.0483 10.1907 79.0334 10.1466C79.0184 10.1026 79.013 10.0558 79.0174 10.0095C79.0399 9.96882 79.0716 9.93391 79.11 9.90759C79.1483 9.88127 79.1923 9.86426 79.2384 9.85793C79.6716 9.81894 80.0615 9.80161 80.4688 9.77562C80.6117 9.58935 80.733 9.38142 80.9973 9.34243C81.2214 9.09071 81.3714 8.78183 81.4306 8.45007C81.4481 8.34406 81.5 8.24676 81.5783 8.17317C81.6566 8.09958 81.7569 8.05379 81.8638 8.04287L81.9504 7.95623L82.0414 7.86959C82.0634 7.79346 82.0954 7.72062 82.1367 7.653C82.297 7.42774 82.3014 7.43208 82.1367 7.17649C81.9331 6.99889 81.9331 6.99889 82.1367 6.74331L82.2277 6.48339C82.0717 6.00256 81.9201 5.52171 81.7555 5.00622C81.9245 5.13304 82.0865 5.26897 82.2407 5.41342C82.3086 5.50136 82.3654 5.5974 82.4097 5.69933C82.557 5.82062 82.4703 5.98956 82.492 6.13251C82.5136 6.27546 82.492 6.30578 82.492 6.39242C82.492 6.47906 82.492 6.50505 82.5266 6.50938C82.5801 6.52943 82.6382 6.53397 82.6941 6.52248C82.7501 6.51098 82.8017 6.48392 82.8429 6.44441C83.0249 6.24514 83.2285 6.05453 83.4321 5.84661C83.718 5.81628 83.6401 6.13251 83.77 6.22781C83.715 6.37717 83.6483 6.522 83.5707 6.661C83.4754 6.81262 83.3671 7.02055 83.2242 7.05953C83.0812 7.09852 82.9815 7.30212 82.8169 7.36276C82.8169 7.36276 82.8169 7.4624 82.8169 7.51871C82.8169 7.57503 82.9729 7.666 82.9772 7.7483C82.9953 7.83745 83.0316 7.92192 83.0838 7.99644C83.1359 8.07097 83.2029 8.13396 83.2805 8.18149L83.4754 8.32444C83.4449 8.43021 83.393 8.52859 83.323 8.61353C83.2529 8.69846 83.1662 8.76814 83.0682 8.81828L82.7129 9.3381H82.6263C82.6372 9.21753 82.6741 9.10077 82.7346 8.99588C82.6741 9.10077 82.6372 9.21753 82.6263 9.3381H82.7129C82.6967 9.40852 82.6765 9.47794 82.6523 9.54603C82.5432 9.73206 82.4821 9.94232 82.4745 10.1578C82.467 10.3734 82.5132 10.5874 82.609 10.7806C82.609 10.7806 82.609 10.8413 82.609 10.8673C82.6481 11.2527 82.7074 11.6359 82.7866 12.0152C82.8565 12.2499 82.8473 12.501 82.7606 12.73C82.611 13.0749 82.5471 13.4509 82.5743 13.8259C82.5808 13.869 82.5808 13.9128 82.5743 13.9559C82.5702 13.9999 82.5564 14.0424 82.5341 14.0806C82.5118 14.1187 82.4815 14.1515 82.4451 14.1767C82.4088 14.2018 82.3674 14.2188 82.3239 14.2263C82.2804 14.2338 82.2357 14.2317 82.193 14.2201C81.9557 14.1555 81.7039 14.1676 81.4739 14.2548C81.3531 14.4766 81.1692 14.6576 80.9453 14.7746C80.7664 14.9338 80.5752 15.0787 80.3735 15.2078C80.2878 15.2752 80.1877 15.322 80.081 15.3445C79.9743 15.3671 79.8639 15.3647 79.7583 15.3378C79.5633 15.2554 79.4073 15.1082 79.1604 15.1515C79.0564 15.1515 78.9308 15.0518 78.8138 14.9912L78.5799 14.8526L78.1943 15.3551C78.1048 15.4482 78.0435 15.5647 78.0174 15.6912C77.9913 15.8177 78.0016 15.9489 78.047 16.0698C78.2118 16.4398 78.2258 16.8594 78.086 17.2394C78.0253 17.3941 78.0132 17.5635 78.0511 17.7252C78.089 17.8869 78.1752 18.0332 78.2982 18.1448C78.3286 18.2011 78.3546 18.2618 78.3849 18.3181C78.4989 18.3724 78.6089 18.4346 78.7142 18.5044C78.8321 18.5814 78.9386 18.6748 79.0304 18.7816C79.1301 18.9072 79.0737 19.0328 78.9178 19.1151L78.6405 19.2581C78.7315 19.453 78.8095 19.6306 78.8918 19.8039L78.9784 19.8949V19.9815C79.0088 20.0378 79.0348 20.0942 79.0651 20.1548C79.0954 20.2154 79.1214 20.2154 79.1517 20.2414L79.2384 20.3324L79.325 20.419L79.4117 20.5057C79.4377 20.5663 79.468 20.6226 79.494 20.6833C79.5709 20.7267 79.635 20.7896 79.6799 20.8656C79.7248 20.9417 79.7488 21.0282 79.7496 21.1165C79.7496 21.2551 79.7496 21.398 79.7496 21.5497C79.7496 21.58 79.7496 21.6146 79.7496 21.645C79.7496 21.6146 79.7496 21.58 79.7496 21.5497C79.8114 21.5631 79.8698 21.5892 79.9211 21.6263C79.9724 21.6634 80.0154 21.7106 80.0475 21.7651C80.0797 21.8196 80.1002 21.8802 80.1078 21.943C80.1155 22.0058 80.11 22.0695 80.0919 22.1301C80.0897 22.1705 80.0897 22.211 80.0919 22.2514L80.3475 22.4334C80.4742 22.4203 80.602 22.4203 80.7287 22.4334C80.9272 22.4843 81.1358 22.4793 81.3316 22.4189C81.5274 22.3585 81.7026 22.2451 81.8378 22.0911C81.8728 21.9534 81.9426 21.8269 82.0404 21.7238C82.1383 21.6206 82.2609 21.5443 82.3967 21.502C82.6732 21.4437 82.9546 21.4118 83.2372 21.4067L83.3801 21.2897C83.3801 21.3287 83.3801 21.3677 83.4104 21.4067H83.6704C83.7007 21.0732 83.9173 21.4067 84.004 21.3244C84.0079 21.2942 84.0079 21.2636 84.004 21.2334C83.9469 20.9908 83.9207 20.7419 83.926 20.4927C83.9256 20.3612 83.9569 20.2315 84.0172 20.1146C84.0775 19.9977 84.1651 19.8971 84.2726 19.8212C84.4069 19.7389 84.5239 19.6306 84.6495 19.5353L84.8098 19.6956H84.8488C84.8557 19.7152 84.8557 19.7366 84.8488 19.7563C84.6495 19.7563 84.8055 19.9859 84.6625 20.0378C84.5975 20.0638 84.5629 20.1548 84.5109 20.2198L85.1521 20.7179L84.7188 21.554C84.5747 21.5404 84.4297 21.5404 84.2856 21.554C84.2423 21.554 84.2119 21.6536 84.1729 21.7056H84.2596L84.6062 21.7922L84.8705 21.7099H84.9571C85.0186 21.6539 85.0915 21.6118 85.1707 21.5864C85.2499 21.561 85.3337 21.5529 85.4163 21.5627C85.7629 21.6969 86.1008 21.8486 86.4691 21.9958L86.82 21.7966C86.9023 22.0608 86.9717 22.2904 87.0453 22.52C87.0453 22.546 87.08 22.5763 87.0756 22.6023C87.0633 22.7013 87.0401 22.7987 87.0063 22.8925C86.963 23.0008 86.8763 23.0268 86.7594 22.9748C86.6309 22.909 86.5263 22.8044 86.4604 22.6759C86.3305 22.494 86.2092 22.4897 86.0272 22.637C85.9535 22.7019 85.8799 22.7756 85.8106 22.8449C85.7182 23.0407 85.5796 23.2112 85.4068 23.3418C85.234 23.4723 85.0321 23.5589 84.8185 23.5943C84.7185 23.5373 84.6217 23.4751 84.5282 23.408C84.095 23.0918 84.095 23.0918 83.7137 23.434C83.6661 23.6939 83.4581 23.8152 83.2805 23.9539C83.2195 24.036 83.1777 24.1308 83.1582 24.2313C83.1387 24.3318 83.142 24.4353 83.1678 24.5343C82.9638 24.6567 82.7526 24.7666 82.5353 24.8635C82.3144 24.9502 82.1021 24.7336 81.8595 24.8246C81.8595 24.8246 81.7598 24.7509 81.7468 24.7033C81.6992 24.53 81.6732 24.3524 81.6212 24.1055L80.98 23.7026C80.8673 23.7676 80.7764 23.8152 80.6941 23.8672C80.6066 23.9322 80.5029 23.9718 80.3944 23.9817C80.2858 23.9916 80.1767 23.9715 80.0789 23.9235C79.9295 23.8767 79.7755 23.8462 79.6196 23.8326C79.3077 24.1271 79.247 24.5863 78.9221 24.8592L79.1691 25.1321C79.4853 25.2058 79.5416 25.4657 79.6023 25.7083C79.7457 25.6831 79.8928 25.6887 80.034 25.7245C80.1751 25.7604 80.3071 25.8257 80.4211 25.9162C80.8067 26.0418 80.8543 26.3927 80.8803 26.7089C80.9063 27.0252 80.6551 27.1421 80.4471 27.2937C80.1063 27.0464 79.8128 26.7397 79.5806 26.3884C79.5806 26.3884 79.5806 26.358 79.5806 26.345L79.4073 26.1674C79.2424 26.0765 79.0509 26.0459 78.8658 26.0808C78.6795 26.0808 78.5019 25.8945 78.3112 26.0418L78.4455 26.6829V26.7826L78.6535 27.1421C78.6702 27.1654 78.6819 27.1918 78.688 27.2198C78.694 27.2478 78.6941 27.2767 78.6884 27.3048C78.6827 27.3329 78.6713 27.3594 78.6549 27.3829C78.6384 27.4063 78.6173 27.4261 78.5929 27.441L78.3979 27.571C78.4412 27.8525 78.4802 28.1038 78.5149 28.3507C78.6656 28.7843 78.6747 29.2545 78.5409 29.6936C78.5127 29.8628 78.5127 30.0355 78.5409 30.2048C78.6107 30.4922 78.5926 30.7941 78.4889 31.0711C78.4256 31.1765 78.3966 31.299 78.4059 31.4216C78.4152 31.5442 78.4624 31.6609 78.5409 31.7556C78.5885 31.8249 78.6102 31.9115 78.6535 31.9852C78.7431 32.2022 78.8935 32.3888 79.0867 32.5223C79.1403 32.5404 79.1864 32.5757 79.2177 32.6227C79.2491 32.6697 79.264 32.7258 79.26 32.7822L79.3424 32.8732C79.3888 32.9077 79.4278 32.9512 79.4572 33.001C79.4865 33.0508 79.5056 33.1061 79.5133 33.1634C79.521 33.2207 79.5171 33.279 79.5019 33.3348C79.4866 33.3906 79.4604 33.4428 79.4247 33.4883C79.3424 33.6183 79.1691 33.7699 79.1907 33.8695C79.2124 33.9692 79.416 34.0948 79.5416 34.2031C79.5416 34.4023 79.3943 34.4587 79.2427 34.515C79.0044 34.6103 78.7661 34.7056 78.5235 34.7879C78.381 34.8233 78.2363 34.8494 78.0903 34.8659C77.9209 34.9312 77.7397 34.9603 77.5584 34.9514C77.3771 34.9424 77.1996 34.8956 77.0375 34.8139C76.9753 34.776 76.9013 34.7621 76.8296 34.7749C76.7502 34.7989 76.6814 34.8494 76.6346 34.9178C76.5826 35.0001 76.6346 35.0824 76.7256 35.1258C76.8161 35.1544 76.8977 35.2057 76.9629 35.2746C77.0281 35.3436 77.0747 35.428 77.0982 35.52C77.1661 35.7547 77.1925 35.9995 77.1762 36.2434C77.1583 36.3225 77.1631 36.4051 77.1899 36.4817C77.2167 36.5583 77.2645 36.6258 77.3278 36.6766C77.3772 36.7291 77.4221 36.7856 77.4621 36.8455C77.6158 36.9504 77.7749 37.0473 77.9387 37.1358C78.2929 37.3012 78.5987 37.5547 78.8268 37.8722C78.7531 38.0368 78.6665 38.2144 78.5972 38.3963C78.5304 38.5218 78.4948 38.6614 78.4932 38.8035C78.5146 38.9331 78.4893 39.066 78.4219 39.1786C78.3544 39.2912 78.2492 39.3763 78.125 39.4187C78.0166 39.4887 77.9003 39.5454 77.7784 39.5876C77.5834 39.6266 77.4924 39.7739 77.3841 39.8995C77.2152 40.0988 77.2152 40.1377 77.3841 40.3327C77.5348 40.468 77.6368 40.6491 77.6744 40.8482C77.7025 40.8656 77.7261 40.8896 77.7431 40.918C77.7601 40.9464 77.7701 40.9785 77.7723 41.0115C77.7744 41.0446 77.7686 41.0777 77.7553 41.108C77.7421 41.1384 77.7217 41.1651 77.6961 41.1861C77.5906 41.2797 77.4557 41.3333 77.3148 41.3377C77.1724 41.3272 77.0371 41.271 76.9292 41.1774C76.7064 40.9948 76.4437 40.8672 76.1624 40.8049C75.9934 40.7615 75.7508 40.7572 75.6902 40.5493C75.5859 40.3007 75.4393 40.0721 75.2569 39.8735C75.1831 39.8072 75.0968 39.7562 75.0031 39.7234C74.9094 39.6907 74.8101 39.6769 74.711 39.6829C74.3393 39.6641 73.9741 39.7863 73.6886 40.0251C73.5455 40.0748 73.4111 40.1464 73.29 40.2374C73.1731 40.3587 73.0994 40.5233 72.9391 40.5883C72.7745 40.4973 72.8698 40.389 72.8871 40.2807C72.8979 40.1654 72.8979 40.0494 72.8871 39.9341C72.8871 39.8172 72.8871 39.7002 72.8871 39.5833V39.4966L72.8048 39.4057C72.6878 39.319 72.5709 39.2324 72.4582 39.1414H72.2286C71.6394 39.1934 71.4401 38.8035 71.3275 38.3877C71.2495 38.0801 71.1888 37.7682 71.1412 37.4563C71.1022 37.2267 71.0935 36.9971 71.0719 36.7675C71.065 36.7025 71.0745 36.6367 71.0995 36.5762C71.1245 36.5157 71.1641 36.4624 71.2148 36.421C71.3795 36.278 71.5354 36.1264 71.7087 35.9878C72.0293 35.7452 72.051 35.5546 71.7694 35.2384C71.7033 35.1803 71.6424 35.1165 71.5874 35.0478C71.5311 34.9568 71.4444 34.8442 71.4531 34.7489C71.4603 34.6909 71.4557 34.6321 71.4396 34.576C71.4235 34.5199 71.3962 34.4676 71.3594 34.4223C71.3226 34.377 71.277 34.3395 71.2253 34.3123C71.1737 34.2851 71.1171 34.2685 71.0589 34.2637C70.9837 34.2427 70.9141 34.2054 70.855 34.1545C70.7958 34.1036 70.7486 34.0403 70.7166 33.9692C70.6213 33.8262 70.565 33.6616 70.4783 33.51C70.3701 33.3203 70.3162 33.1045 70.3224 32.8862C70.3221 32.6129 70.296 32.3402 70.2444 32.0718C70.1383 31.6056 70.1383 31.1215 70.2444 30.6553C70.2876 30.4715 70.2876 30.2802 70.2444 30.0965C70.1966 29.9457 70.1966 29.7837 70.2444 29.6329C70.3354 29.4077 70.409 29.1738 70.4827 28.9398C70.5391 28.6872 70.6114 28.4383 70.6993 28.1948C70.8899 27.7616 71.1325 27.3284 71.3361 26.9255C71.3015 26.5573 71.2668 26.1891 71.2235 25.7819C71.1169 25.8204 71.014 25.8682 70.9159 25.9249C70.6603 26.1328 70.4003 26.358 70.1621 26.566C70.1192 26.6221 70.0584 26.6618 69.9897 26.6783C69.9211 26.6949 69.8489 26.6873 69.7851 26.6569C69.7298 26.2505 69.8122 25.8372 70.0191 25.483C70.24 25.0845 70.6993 25.0498 71.0459 24.9112L71.2365 23.7849L70.6646 22.9705C70.5513 22.8212 70.4918 22.6381 70.4957 22.4507C70.5174 22.2216 70.5174 21.991 70.4957 21.7619C70.4458 21.5073 70.4458 21.2455 70.4957 20.9908C70.6099 20.6915 70.6456 20.3679 70.5996 20.0508C70.5117 19.7687 70.5117 19.4666 70.5996 19.1845C70.7331 18.7982 70.7526 18.3816 70.656 17.9845C70.6334 17.8294 70.6452 17.6711 70.6906 17.521C70.7217 17.3742 70.7623 17.2295 70.8119 17.0878C70.8601 16.8141 70.8111 16.5321 70.6733 16.2908C70.4626 16.0098 70.3611 15.6619 70.3873 15.3118C70.4097 15.111 70.392 14.9078 70.3354 14.714C70.2249 14.4148 70.2249 14.0861 70.3354 13.7869C70.3822 13.6451 70.4198 13.5004 70.448 13.3538C70.4674 13.258 70.4674 13.1593 70.448 13.0635C70.3706 12.7218 70.4182 12.3637 70.5823 12.0542C70.6355 11.9604 70.6634 11.8544 70.6634 11.7466C70.6634 11.6388 70.6355 11.5329 70.5823 11.4391C70.4055 11.0296 70.363 10.5746 70.461 10.1395C70.5263 9.85247 70.5129 9.55312 70.422 9.27312C70.377 9.13604 70.3604 8.99125 70.373 8.84754C70.3857 8.70383 70.4274 8.56419 70.4957 8.43707ZM74.5854 26.3494C74.5854 26.4014 74.6547 26.449 74.6851 26.4837C74.8497 26.4837 75.0013 26.3191 74.9927 26.1934C74.9831 26.1627 74.9656 26.1349 74.9421 26.1129C74.9185 26.0909 74.8897 26.0753 74.8583 26.0678C74.8198 26.0578 74.7792 26.0581 74.7408 26.0689C74.7024 26.0796 74.6675 26.1004 74.6398 26.129C74.612 26.1576 74.5923 26.1931 74.5828 26.2319C74.5732 26.2706 74.5742 26.3111 74.5854 26.3494ZM76.8599 24.1575C76.8332 24.1265 76.8043 24.0975 76.7733 24.0708C76.8043 24.0975 76.8332 24.1265 76.8599 24.1575ZM72.7658 18.2574C72.889 18.2397 73.0143 18.2691 73.1167 18.3397C73.0143 18.2691 72.889 18.2397 72.7658 18.2574C72.5913 18.2441 72.4173 18.2899 72.2719 18.3874C72.4194 18.2959 72.5932 18.2563 72.7658 18.2748V18.2574ZM77.7047 25.8036C77.7047 25.6303 77.7047 25.4613 77.7047 25.2924C77.7047 25.4613 77.7047 25.6303 77.7047 25.8036C77.7047 25.9508 77.6354 26.0548 77.4794 26.0505C77.6354 26.0505 77.709 25.9509 77.7177 25.7992C77.8977 25.5917 77.9935 25.3244 77.9863 25.0498C77.9925 25.1906 77.9707 25.3311 77.9224 25.4634C77.8741 25.5958 77.8001 25.7172 77.7047 25.8209V25.8036ZM75.1573 38.2577C75.0273 38.2014 74.8973 38.1451 74.7717 38.0801C74.8973 38.1451 75.0273 38.2014 75.1573 38.2577L75.2439 38.3443L75.1573 38.2577ZM74.2605 12.652C74.2605 12.704 74.2042 12.7473 74.1782 12.7949C74.1863 12.8762 74.1744 12.9582 74.1434 13.0337C74.1124 13.1092 74.0634 13.176 74.0005 13.2281C74.0005 13.3927 74.0655 13.501 74.2735 13.4404C74.8757 13.2671 75.0793 13.2065 75.0533 12.4224C75.0533 12.3661 75.0533 12.3098 75.0273 12.2318C74.9407 12.2318 74.8583 12.1928 74.7804 12.1885C74.3255 12.1755 74.3298 12.1798 74.2605 12.652ZM85.4986 23.1005L85.373 23.1265L85.4986 23.1005ZM85.0654 23.3907H84.9484H85.0654Z" fill="#D04F45"/>
<path d="M98.4481 46.237C98.631 45.9223 98.7295 45.5656 98.7341 45.2017C98.7341 45.1757 98.7817 45.1367 98.8077 45.1064C98.8077 44.9807 98.8077 44.8508 98.9767 44.8421C99.1673 44.6515 99.3622 44.4609 99.5485 44.2617C99.7348 44.0624 99.9038 43.8285 100.081 43.6379C100.259 43.4473 100.58 43.4516 100.844 43.4949C100.965 43.4949 101.035 43.6898 100.983 43.8155C100.946 43.8938 100.893 43.9633 100.827 44.0191C100.571 44.253 100.307 44.4739 100.051 44.7078C99.9598 44.7752 99.8922 44.8698 99.8579 44.9779C99.8237 45.0861 99.8246 45.2023 99.8605 45.31C99.9128 45.4854 99.9334 45.6688 99.9211 45.8515C99.8563 46.1721 99.6858 46.4616 99.4367 46.6737C99.1877 46.8858 98.8746 47.0081 98.5478 47.0211C98.4824 47.0247 98.4173 47.0094 98.3603 46.9772C98.3033 46.9449 98.2568 46.897 98.2262 46.839C98.1957 46.7811 98.1824 46.7156 98.1879 46.6504C98.1934 46.5851 98.2176 46.5228 98.2575 46.4709C98.3138 46.3873 98.3776 46.309 98.4481 46.237Z" fill="#D04F45"/>
<path d="M75.6295 1.35446C75.8617 1.62167 75.9921 1.96223 75.9978 2.31614C75.9749 2.45609 75.8988 2.58179 75.7855 2.66702C75.6772 2.75366 75.5775 2.63237 75.4866 2.56306C75.3688 2.45525 75.2302 2.37269 75.0793 2.32047C74.7216 2.20706 74.3932 2.01627 74.1175 1.76166C73.8706 1.59272 73.8532 1.47575 73.9356 1.16818C73.9519 1.06765 73.9997 0.974889 74.0721 0.903264C74.1445 0.83164 74.2378 0.784854 74.3385 0.769651C74.4207 0.749694 74.5017 0.725108 74.5811 0.696009L75.4476 0.371117C75.4793 0.38999 75.5061 0.416106 75.5258 0.447323C75.5455 0.478539 75.5575 0.513973 75.5609 0.550729C75.5643 0.587485 75.5589 0.624516 75.5452 0.658802C75.5316 0.693087 75.51 0.723648 75.4822 0.74799C75.4132 0.830186 75.3669 0.929013 75.3479 1.03464C75.3289 1.14027 75.3379 1.24903 75.3739 1.35012C75.4692 1.35012 75.5949 1.31547 75.6295 1.35446Z" fill="#D04F45"/>
<path d="M71.9037 2.90525C71.9635 2.79253 72.041 2.69015 72.1333 2.60202C72.2048 2.52119 72.2526 2.42229 72.2717 2.31611C72.2908 2.20993 72.2804 2.10055 72.2416 1.99989L72.1896 1.79629C72.1458 1.69368 72.1096 1.58798 72.0813 1.48006C72.0666 1.44025 72.0611 1.39762 72.0652 1.35539C72.0693 1.31315 72.0829 1.27239 72.105 1.23614C72.1271 1.1999 72.1571 1.16911 72.1927 1.14609C72.2284 1.12307 72.2688 1.1084 72.3109 1.10319C72.4044 1.08509 72.5012 1.09568 72.5886 1.13356C72.6759 1.17144 72.7498 1.23484 72.8005 1.31545C72.8694 1.40934 72.9647 1.48051 73.0743 1.51987C73.1839 1.55923 73.3028 1.56498 73.4157 1.53638C73.4962 1.52632 73.5777 1.52632 73.6583 1.53638L73.1211 2.24248C73.2477 2.42055 73.3929 2.58463 73.5543 2.73197C73.8056 2.91824 74.1002 3.04387 74.3688 3.21281C74.4358 3.24797 74.4937 3.29804 74.5383 3.35916C74.5828 3.42027 74.6128 3.4908 74.6257 3.5653C74.6387 3.6398 74.6344 3.71629 74.6131 3.78887C74.5919 3.86144 74.5542 3.92816 74.5031 3.98389C74.3804 4.14455 74.215 4.26752 74.0258 4.33875C73.8366 4.40998 73.6312 4.42661 73.433 4.38675C73.3155 4.35741 73.202 4.31376 73.0951 4.2568C72.8185 4.09707 72.499 4.02742 72.1809 4.05753C72.0336 4.05753 71.8907 4.05753 71.7477 4.05753L71.4661 4.15716C70.9722 4.30878 70.7426 4.21781 70.448 3.72398L70.7946 3.42508C70.9702 3.25452 71.204 3.15697 71.4488 3.15217C71.6437 3.1565 71.7954 3.12185 71.9037 2.90525Z" fill="#D04F45"/>
<path d="M65.7907 24.4173C65.7984 24.288 65.7882 24.1583 65.7604 24.0318C65.7188 23.8904 65.7188 23.74 65.7604 23.5986C65.7646 23.5474 65.7827 23.4983 65.8127 23.4566C65.8428 23.415 65.8837 23.3823 65.931 23.3622C65.9783 23.3422 66.0302 23.3354 66.0811 23.3427C66.132 23.35 66.1799 23.3711 66.2196 23.4037C66.2977 23.4675 66.3612 23.5472 66.4059 23.6376C66.4932 23.8492 66.6447 24.028 66.8392 24.1488C66.8889 24.1733 66.9317 24.2099 66.9635 24.2554C66.9953 24.3008 67.0151 24.3535 67.0211 24.4087C66.8953 24.6018 66.7796 24.8013 66.6745 25.0065C66.6034 25.1792 66.4837 25.3276 66.3299 25.4337C66.1761 25.5398 65.9948 25.5991 65.8081 25.6043C65.6781 25.6043 65.5481 25.6043 65.4181 25.6043C65.3662 25.6303 65.3185 25.6779 65.2665 25.6779C64.9502 25.6779 64.6296 25.6779 64.3091 25.6779C63.9885 25.6779 63.8368 25.509 63.8758 25.3574C63.9148 25.2057 64.2137 25.1104 64.4044 25.1884C64.6537 25.2686 64.9219 25.2686 65.1712 25.1884C65.2285 25.1494 65.2894 25.116 65.3532 25.0888C65.4963 25.0509 65.6203 24.9613 65.7011 24.8372C65.782 24.7132 65.8139 24.5636 65.7907 24.4173Z" fill="#D04F45"/>
<path d="M67.463 3.86696C67.3484 4.00754 67.2046 4.12144 67.0414 4.20074C66.8783 4.28005 66.6999 4.32284 66.5185 4.32614C66.1251 4.31847 65.7455 4.17974 65.4398 3.93194C65.3287 3.84943 65.2488 3.73163 65.2134 3.59784C65.178 3.46405 65.1891 3.3222 65.2448 3.19552C65.3423 2.94827 65.5113 2.73564 65.7301 2.58472C65.8595 2.50849 65.9958 2.44468 66.1373 2.39412C66.3366 2.48942 66.5315 2.58472 66.7265 2.67136C67.0335 2.85411 67.2874 3.11395 67.463 3.42511C67.5178 3.48565 67.5481 3.56438 67.5481 3.64603C67.5481 3.72768 67.5178 3.80643 67.463 3.86696Z" fill="#D04F45"/>
<path d="M77.5574 3.4597C77.7468 3.38155 77.955 3.36082 78.156 3.4001C78.3571 3.43938 78.5421 3.53694 78.6882 3.68063C78.8225 3.81058 78.8355 3.97086 78.6882 4.07483C78.55 4.15893 78.4051 4.23138 78.2549 4.29142C78.1756 4.38215 78.0777 4.45467 77.9678 4.50401C77.8578 4.55336 77.7385 4.57837 77.6181 4.57733C77.4144 4.60765 77.1848 4.57733 77.1198 4.87189C77.0808 5.00618 76.9119 5.10149 76.8122 5.21845C76.7765 5.26578 76.7261 5.29995 76.6689 5.31562C76.6117 5.33129 76.5509 5.32759 76.496 5.30508C76.3789 5.25145 76.2659 5.18919 76.1581 5.11881C76.301 4.71162 76.2274 4.25244 76.5913 3.9752C76.4873 3.84524 76.301 3.77593 76.3573 3.57666C76.759 3.67624 77.1826 3.63495 77.5574 3.4597Z" fill="#D04F45"/>
<path d="M90.3422 38.5869C90.442 38.3737 90.5549 38.1668 90.6802 37.9675C90.8058 37.7682 90.8708 37.7639 91.0657 37.8722C91.2607 37.9805 91.5856 38.1667 91.8716 38.3053C91.7848 38.4721 91.6802 38.629 91.5596 38.7732C91.468 38.8835 91.3535 38.9728 91.2242 39.0348C91.0948 39.0969 90.9536 39.1303 90.8101 39.1327C90.7396 39.141 90.6681 39.1318 90.602 39.1059C90.5358 39.08 90.4771 39.0383 90.4308 38.9844C90.3846 38.9305 90.3524 38.866 90.3369 38.7967C90.3215 38.7274 90.3233 38.6554 90.3422 38.5869Z" fill="#D04F45"/>
<path d="M83.6531 33.8912C83.8345 33.8921 84.0131 33.9366 84.1737 34.021C84.3343 34.1055 84.4723 34.2273 84.5759 34.3763C84.6132 34.4255 84.6367 34.4837 84.644 34.5449C84.6513 34.6062 84.6421 34.6683 84.6173 34.7248C84.5926 34.7813 84.5533 34.8302 84.5033 34.8664C84.4534 34.9026 84.3947 34.9249 84.3333 34.9308C84.2346 34.9502 84.133 34.9502 84.0343 34.9308C83.7181 34.8485 83.3975 34.7575 83.0855 34.6579C82.9556 34.6189 82.8473 34.5453 82.8343 34.4196C82.9657 34.3281 83.0876 34.2236 83.1982 34.1077C83.252 34.0388 83.3211 33.9833 83.4001 33.9458C83.479 33.9082 83.5656 33.8895 83.6531 33.8912Z" fill="#D04F45"/>
<path d="M98.4134 15.8143C98.5512 15.8069 98.6882 15.8394 98.808 15.9077C98.9278 15.9761 99.0255 16.0775 99.0893 16.1998C99.1976 16.3514 99.3102 16.503 99.4055 16.6633C99.4293 16.7204 99.4707 16.7685 99.5237 16.8004C99.5767 16.8324 99.6385 16.8466 99.7001 16.8409C99.7691 16.8427 99.8367 16.861 99.8971 16.8942C99.9576 16.9274 100.009 16.9746 100.048 17.0318C100.086 17.089 100.111 17.1546 100.119 17.2231C100.127 17.2916 100.119 17.3611 100.094 17.4257C100.062 17.5603 100.003 17.6868 99.919 17.7971C99.8355 17.9075 99.73 17.9993 99.6092 18.0668C99.4798 17.9965 99.3566 17.9154 99.2409 17.8242C98.981 17.5817 98.7297 17.3261 98.4741 17.0792L98.4134 17.0142C98.4111 17.0013 98.4111 16.9881 98.4134 16.9752C98.3224 16.7023 98.2228 16.4294 98.1535 16.1521C98.0798 15.9529 98.1881 15.8359 98.4134 15.8143Z" fill="#D04F45"/>
<path d="M84.4285 18.6863C84.3446 18.7718 84.2549 18.8514 84.1599 18.9245C84.0738 18.8224 84.0141 18.7006 83.9861 18.5699C83.9582 18.4392 83.9628 18.3036 83.9996 18.1751C83.9996 18.0495 84.056 17.9239 84.0646 17.7939C84.1027 17.5324 84.214 17.287 84.3858 17.0862C84.5575 16.8853 84.7826 16.7372 85.0351 16.659C85.1035 16.6379 85.1764 16.6363 85.2456 16.6543C85.3148 16.6723 85.3777 16.7093 85.4272 16.761C85.4766 16.8127 85.5107 16.8771 85.5256 16.9471C85.5406 17.017 85.5357 17.0898 85.5116 17.1571C85.4294 17.369 85.3187 17.5687 85.1824 17.7506C84.9441 18.0712 84.6842 18.3787 84.4285 18.6863Z" fill="#D04F45"/>
<path d="M88.2584 17.1311C88.2982 17.0553 88.3634 16.9959 88.4427 16.9634C88.5219 16.9309 88.6101 16.9274 88.6916 16.9535C88.7764 16.9716 88.8531 17.0162 88.9108 17.0808C88.9685 17.1455 89.004 17.2268 89.0122 17.3131C89.0397 17.456 89.0556 17.6008 89.0599 17.7463C89.0488 17.8443 89.0577 17.9436 89.086 18.0381C89.1143 18.1327 89.1614 18.2205 89.2245 18.2964L89.3805 18.539C89.3198 18.6473 89.2722 18.7339 89.2115 18.8509L89.0555 18.7989C88.8216 18.7079 88.6613 18.578 88.7263 18.2834C88.7263 18.2184 88.6656 18.1361 88.6613 18.0582C88.6396 17.6856 88.2584 17.5123 88.2584 17.1311Z" fill="#D04F45"/>
<path d="M90.3509 16.8756C90.4272 16.8412 90.4998 16.7991 90.5675 16.75C90.6826 16.7213 90.8041 16.7333 90.9114 16.7838C91.0188 16.8343 91.1054 16.9203 91.1567 17.0272C91.1605 17.0666 91.1514 17.1061 91.1307 17.1398C91.0987 17.2183 91.0595 17.2937 91.0137 17.3651C90.9383 17.4811 90.839 17.5798 90.7225 17.6545C90.606 17.7292 90.4749 17.7782 90.3379 17.7983C90.2475 17.7928 90.1626 17.7529 90.1006 17.6869C90.0386 17.6209 90.0041 17.5336 90.0043 17.4431C90.0216 17.2091 90.0606 16.9666 90.3509 16.8756Z" fill="#D04F45"/>
<path d="M89.1768 14.2202C89.2653 14.3143 89.3437 14.4173 89.4108 14.5277C89.5884 14.766 89.5884 14.805 89.4108 15.0606C89.3631 15.1299 89.3068 15.1905 89.2548 15.2555C88.9683 15.1795 88.7153 15.0103 88.5356 14.7747C88.3883 14.5797 88.4446 14.3631 88.6483 14.1639C88.8519 13.9646 88.9819 14.0686 89.1768 14.2202Z" fill="#D04F45"/>
<path d="M87.9118 26.0851C87.8316 26.1686 87.7262 26.2232 87.6117 26.2404C87.4973 26.2576 87.3804 26.2365 87.2793 26.1804C87.1406 26.1154 86.9717 26.1198 86.846 26.0678C86.4734 25.9335 86.2265 25.8988 86.4431 25.3314V25.2924C86.5471 25.1321 86.6554 24.9718 86.8763 24.9501C87.0973 24.9285 87.1926 24.9501 87.3486 24.9155C87.4337 24.8874 87.5263 24.8934 87.6071 24.9322C87.6879 24.971 87.7505 25.0395 87.7818 25.1234C87.8165 25.2167 87.8753 25.299 87.9521 25.3622C88.029 25.4253 88.1212 25.467 88.2194 25.483C88.4365 25.4766 88.6525 25.4505 88.8649 25.405C88.9472 25.6996 89.4151 25.6736 89.4714 26.1284L89.3025 26.2887C89.2202 26.2281 89.1682 26.2064 89.1552 26.1761C89.0961 26.0635 89.0048 25.9711 88.8928 25.9109C88.7809 25.8507 88.6535 25.8254 88.527 25.8382C88.2584 25.7992 88.1024 25.9681 87.9118 26.0851ZM86.9587 25.1191L86.82 25.1581L86.9803 25.1234C86.8374 25.262 86.6987 25.379 86.5471 25.5263L87.015 25.1321C87.1285 25.0789 87.2543 25.058 87.3789 25.0714C87.2372 25.0451 87.0909 25.0617 86.9587 25.1191Z" fill="#D04F45"/>
<path d="M82.0154 17.4863C81.8975 17.4049 81.8067 17.2899 81.755 17.1563C81.7032 17.0226 81.6928 16.8765 81.7252 16.7369C81.7252 16.5506 81.7252 16.425 81.7252 16.3037C81.7252 16.1824 81.7598 16.0655 81.8941 16.0351C82.0284 16.0048 82.1281 16.1131 82.1801 16.2387C82.2077 16.3197 82.2309 16.4021 82.2494 16.4857C82.2654 16.6358 82.3064 16.7822 82.3707 16.9188C82.4081 16.9841 82.4303 17.0569 82.4355 17.132C82.4408 17.207 82.429 17.2822 82.401 17.352C82.3577 17.5903 82.193 17.6206 82.0154 17.4863Z" fill="#D04F45"/>
<path d="M68.4464 26.0678C68.2688 26.1674 68.1432 26.1761 68.0132 26.0678C67.8461 25.9054 67.7379 25.692 67.7056 25.4613C67.696 25.4063 67.702 25.3497 67.7229 25.298C67.7438 25.2462 67.7787 25.2013 67.8238 25.1684C67.8689 25.1355 67.9223 25.1158 67.978 25.1117C68.0337 25.1076 68.0894 25.1192 68.1388 25.1451C68.3728 25.2794 68.5721 25.4483 68.7887 25.5783C68.7818 25.6833 68.7463 25.7845 68.686 25.8708C68.6256 25.9571 68.5428 26.0252 68.4464 26.0678Z" fill="#D04F45"/>
<path d="M90.2772 43.9585C90.2772 43.7592 90.2772 43.6336 90.4505 43.5946C90.5293 43.5685 90.6144 43.5685 90.6932 43.5946C90.7487 43.6309 90.7877 43.6877 90.8015 43.7527C90.8153 43.8176 90.8028 43.8854 90.7668 43.9411C90.7237 44.0252 90.7092 44.1211 90.7256 44.2142C90.742 44.3072 90.7885 44.3924 90.8578 44.4566C90.9586 44.5868 91.0362 44.7333 91.0874 44.8898C91.1155 44.9682 91.1155 45.054 91.0874 45.1324C91.0706 45.2129 91.0313 45.2869 90.974 45.3458C90.9167 45.4047 90.8438 45.4461 90.7639 45.4652C90.6839 45.4843 90.6002 45.4802 90.5225 45.4535C90.4447 45.4268 90.3762 45.3785 90.3249 45.3143C90.1906 45.2017 90.0606 45.0544 90.1429 44.8812C90.2359 44.7486 90.2965 44.596 90.3199 44.4358C90.3432 44.2755 90.3286 44.1121 90.2772 43.9585Z" fill="#D04F45"/>
<path d="M85.5506 31.1707C85.6936 31.1707 85.7716 31.2747 85.7976 31.422C85.7976 31.4566 85.8452 31.4913 85.8669 31.526C86.0749 31.8205 86.0749 31.9591 85.8669 32.2061C85.7864 32.2879 85.6994 32.3632 85.607 32.4313C85.5602 32.5825 85.4714 32.7174 85.351 32.8201C85.2306 32.9229 85.0835 32.9893 84.9268 33.0118C84.8653 33.0286 84.8003 33.0274 84.7395 33.0085C84.6787 32.9895 84.6246 32.9535 84.5835 32.9047C84.5425 32.856 84.5163 32.7965 84.5081 32.7333C84.4998 32.6702 84.5098 32.6059 84.5369 32.5483C84.6409 32.284 84.7795 32.0328 84.9095 31.7772C84.9829 31.6372 85.0639 31.5013 85.1521 31.37C85.1985 31.3081 85.2587 31.2579 85.3278 31.2233C85.397 31.1887 85.4733 31.1707 85.5506 31.1707Z" fill="#D04F45"/>
<path d="M64.7076 29.204C64.8159 29.204 64.9459 29.4293 64.9459 29.5852C64.9377 29.6674 64.9095 29.7462 64.8636 29.8148C64.7683 29.9578 64.6426 30.0834 64.556 30.248C64.52 30.3101 64.467 30.3605 64.4033 30.3935C64.3397 30.4265 64.2679 30.4407 64.1964 30.4343C64.0939 30.2729 64.0477 30.0821 64.0649 29.8917C64.0822 29.7013 64.1619 29.522 64.2917 29.3816C64.3398 29.3187 64.4034 29.2692 64.4763 29.2381C64.5492 29.207 64.6289 29.1952 64.7076 29.204Z" fill="#D04F45"/>
<path d="M87.3269 14.1119C87.4578 14.2232 87.5795 14.3449 87.6908 14.4758C87.7565 14.5441 87.8033 14.6283 87.8269 14.7202C87.8504 14.812 87.8498 14.9084 87.8251 14.9999C87.7298 15.3118 87.6128 15.6194 87.4829 15.9876C87.0931 15.6686 86.8253 15.2249 86.7247 14.7313C86.7005 14.6246 86.7068 14.5132 86.7428 14.4098C86.7788 14.3064 86.843 14.2152 86.9283 14.1465C86.977 14.0898 87.046 14.0544 87.1205 14.0479C87.1951 14.0414 87.2691 14.0644 87.3269 14.1119Z" fill="#D04F45"/>
<path d="M87.4742 18.6039C87.1406 18.8248 86.7507 18.8942 86.4951 19.1844C86.4951 19.2061 86.4431 19.2104 86.4171 19.2234C86.2742 19.297 86.2048 19.2234 86.1485 19.0978C86.0922 18.9721 85.9622 18.9548 86.0705 18.8119C86.1102 18.7372 86.1379 18.6568 86.1528 18.5736C86.1528 18.4783 86.2005 18.4047 86.3088 18.4047C86.4892 18.3856 86.6639 18.331 86.8231 18.244C86.9822 18.157 87.1225 18.0393 87.2359 17.8978C87.3226 18.1491 87.3919 18.37 87.4742 18.6039Z" fill="#D04F45"/>
<path d="M82.1367 36.8411C82.1367 36.8931 82.1021 36.9754 82.0717 36.9841C82.038 36.9906 82.0033 36.9901 81.9698 36.9826C81.9362 36.9752 81.9046 36.9609 81.8768 36.9407C81.8138 36.8709 81.7665 36.7883 81.7381 36.6987C81.7097 36.609 81.7009 36.5143 81.7122 36.4209C81.7122 36.1653 81.7122 35.9054 81.7122 35.6498C81.7122 35.4809 81.7122 35.312 81.7122 35.091C82.1454 35.2816 82.206 35.3553 82.1107 35.6932C82.1107 35.7365 82.0761 35.7711 82.0674 35.8145C81.9938 36.1047 81.8768 36.3949 82.0934 36.6808C82.1247 36.7282 82.1399 36.7844 82.1367 36.8411Z" fill="#D04F45"/>
<path d="M77.1675 9.83186C77.1949 9.80832 77.2281 9.79249 77.2636 9.786C77.2992 9.77952 77.3358 9.78261 77.3698 9.79495C77.4037 9.8073 77.4338 9.82846 77.4569 9.85626C77.4799 9.88406 77.4952 9.91751 77.5011 9.95315C77.5241 10.0642 77.5104 10.1797 77.4621 10.2824C77.3467 10.4497 77.1909 10.5851 77.0091 10.676C76.8273 10.7669 76.6254 10.8103 76.4223 10.8022C76.5483 10.4009 76.8123 10.0571 77.1675 9.83186Z" fill="#D04F45"/>
<path d="M81.7598 6.85596C81.8178 6.90917 81.8728 6.96557 81.9244 7.0249C81.7901 7.0249 81.7122 7.0249 81.6385 7.05523C81.5649 7.08555 81.4392 7.08988 81.3309 7.11154L81.4392 7.27182H81.2443C81.1764 7.29802 81.107 7.31973 81.0363 7.3368C81.0011 7.34401 80.9646 7.34157 80.9307 7.32974C80.8968 7.31792 80.8667 7.29715 80.8436 7.26963C80.8205 7.24212 80.8053 7.20887 80.7996 7.17342C80.7938 7.13796 80.7978 7.10161 80.811 7.06822C80.8831 6.94735 80.9673 6.83414 81.0623 6.73034C81.1749 6.57439 81.4219 6.55273 81.4652 6.31881C81.4652 6.28415 81.6255 6.2365 81.6818 6.25816C81.7382 6.27982 81.7598 6.40978 81.6818 6.47909C81.5519 6.64803 81.6168 6.752 81.7598 6.85596Z" fill="#D04F45"/>
<path d="M67.6536 24.3133C67.6315 24.3124 67.61 24.3053 67.5915 24.293C67.5731 24.2807 67.5584 24.2636 67.549 24.2435C67.5396 24.2234 67.5359 24.2011 67.5383 24.179C67.5407 24.157 67.5491 24.136 67.5626 24.1184C67.7533 23.8463 67.9892 23.6089 68.2601 23.4166C68.4551 23.2997 68.5894 23.4166 68.5851 23.6332C68.5693 23.7394 68.5325 23.8413 68.477 23.9331C68.4214 24.0249 68.3482 24.1047 68.2615 24.168C68.1749 24.2313 68.0765 24.2767 67.9722 24.3017C67.8678 24.3266 67.7595 24.3306 67.6536 24.3133Z" fill="#D04F45"/>
<path d="M82.0674 26.306C82.1627 26.2844 82.2624 26.2757 82.453 26.2454C82.5136 26.3147 82.5786 26.41 82.6566 26.4923C82.7019 26.5287 82.7334 26.5794 82.746 26.6361C82.7586 26.6928 82.7515 26.7521 82.7259 26.8042C82.6552 26.9734 82.5666 27.1346 82.4617 27.285C82.4304 27.325 82.3915 27.3584 82.3472 27.3831C82.3029 27.4079 82.2541 27.4236 82.2036 27.4292C82.1532 27.4349 82.1021 27.4304 82.0534 27.416C82.0048 27.4017 81.9594 27.3778 81.9201 27.3457C81.826 27.2875 81.7506 27.2035 81.703 27.1036C81.6553 27.0037 81.6375 26.8923 81.6515 26.7825C81.6688 26.672 81.7171 26.5686 81.7907 26.4843C81.8643 26.4 81.9602 26.3382 82.0674 26.306Z" fill="#D04F45"/>
<path d="M81.6861 30.1268C81.6285 29.9638 81.5808 29.7974 81.5432 29.6286C81.4856 29.4566 81.4834 29.2708 81.5371 29.0975C81.5907 28.9242 81.6974 28.7721 81.8421 28.6626C81.8829 28.633 81.9296 28.6125 81.9789 28.6024C82.0283 28.5922 82.0793 28.5927 82.1285 28.6038C82.1776 28.6148 82.2239 28.6362 82.2642 28.6665C82.3044 28.6968 82.3378 28.7354 82.362 28.7796C82.4703 28.9788 82.5613 29.2128 82.6523 29.399C82.7261 29.5866 82.7398 29.7925 82.6913 29.9882C82.6035 30.2603 82.4669 30.5142 82.2883 30.7376C82.2125 30.8718 82.1612 31.0185 82.1367 31.1708C82.1609 31.3207 82.2062 31.4666 82.271 31.604C82.2753 31.6616 82.2753 31.7196 82.271 31.7772C82.3923 32.1454 82.505 32.5136 82.6393 32.8775C82.6978 33.0235 82.6978 33.1864 82.6393 33.3324C82.5959 33.4537 82.5483 33.575 82.5006 33.6963C82.4976 33.7842 82.4638 33.8683 82.4053 33.9339C82.3467 33.9996 82.267 34.0427 82.18 34.0558C82.1205 34.0674 82.0654 34.0955 82.021 34.1369C81.9766 34.1782 81.9446 34.2312 81.9288 34.2897C81.8378 34.489 81.6428 34.528 81.5215 34.3547C81.4002 34.1814 81.3526 34.0255 81.4045 33.9215C81.5388 33.6616 81.4045 33.4103 81.4609 33.1591C81.2832 32.9382 81.4089 32.6826 81.3829 32.4487C81.3555 32.2544 81.3724 32.0564 81.4324 31.8696C81.4925 31.6828 81.594 31.512 81.7295 31.37C81.8105 31.2871 81.8621 31.1799 81.8762 31.0648C81.8902 30.9498 81.8661 30.8332 81.8075 30.7332C81.7441 30.5364 81.7034 30.3329 81.6861 30.1268Z" fill="#D04F45"/>
<path d="M90.9531 41.5413C90.7885 41.6669 90.6672 41.6452 90.5675 41.4633C90.5264 41.3869 90.4958 41.3053 90.4766 41.2207C90.4419 41.0647 90.4202 40.9088 90.3899 40.7572C90.3229 40.7268 90.2689 40.6734 90.2379 40.6066C90.2069 40.5398 90.2009 40.4641 90.2209 40.3933C90.224 40.2954 90.2556 40.2006 90.3119 40.1204C90.3741 40.0588 90.4547 40.0191 90.5415 40.0074C90.6283 39.9957 90.7165 40.0125 90.7928 40.0554C90.8632 40.0729 90.9241 40.117 90.9629 40.1783C91.0016 40.2396 91.0152 40.3136 91.0008 40.3846C90.9811 40.4844 90.9951 40.5879 91.0406 40.6788C91.0861 40.7697 91.1604 40.843 91.2521 40.8871C91.2714 40.9084 91.2862 40.9335 91.2954 40.9608C91.2495 41.1871 91.129 41.3916 90.9531 41.5413Z" fill="#D04F45"/>
<path d="M90.4982 31.1664C90.5659 31.1421 90.6355 31.1233 90.7062 31.1101C90.8838 31.1101 91.0874 31.2574 91.0787 31.396C91.0653 31.518 91.0101 31.6317 90.9224 31.7177C90.8348 31.8038 90.7201 31.8569 90.5978 31.8682C90.3899 31.8898 90.2166 31.6776 90.1646 31.4956C90.1126 31.3137 90.2859 31.2184 90.4982 31.1664Z" fill="#D04F45"/>
<path d="M58.7506 30.8675C58.7506 31.0147 58.6293 31.0407 58.5513 31.1144C58.3997 31.253 58.2134 31.3743 58.2697 31.6212C58.1355 31.6485 57.9965 31.6409 57.8661 31.5992C57.7356 31.5575 57.6181 31.483 57.5246 31.383C57.1953 31.2183 57.1563 30.8978 57.0913 30.5902C57.0892 30.5599 57.0892 30.5295 57.0913 30.4992C56.9996 30.121 56.8234 29.7685 56.5758 29.4683C56.4559 29.305 56.3514 29.131 56.2638 28.9484C56.0905 28.6539 56.1209 28.5499 56.4198 28.2987C56.6104 28.0127 56.853 28.1384 57.1043 28.1904C57.1043 28.3116 57.1043 28.4113 57.1043 28.5109C57.1043 28.8965 57.1043 28.8965 57.4466 29.0957H57.6199L57.7975 29.0134C57.8538 28.9224 57.9145 28.9224 57.9708 29.0134L58.0574 29.1001L58.1397 29.191C58.1701 29.2517 58.2004 29.308 58.2264 29.3686C58.2285 29.3946 58.2285 29.4207 58.2264 29.4466C58.438 29.709 58.6103 30.0009 58.7376 30.313C58.8546 30.3866 58.8286 30.4949 58.8026 30.6032C58.7766 30.7115 58.7723 30.7895 58.7506 30.8675Z" fill="#D04F45"/>
<path d="M83.6964 38.7732L83.7831 38.8642L83.8697 38.9508L84.3029 39.1501C83.9044 39.3147 83.8697 39.3104 83.6098 39.1241C83.449 39.0678 83.2926 38.9998 83.1419 38.9205C83.0781 38.8743 83.0253 38.8147 82.9871 38.7459C82.949 38.677 82.9264 38.6007 82.9211 38.5222C82.9157 38.4436 82.9276 38.3649 82.9561 38.2915C82.9845 38.2181 83.0287 38.1519 83.0855 38.0974C83.1939 38.418 83.4928 38.5696 83.6964 38.7732Z" fill="#D04F45"/>
<path d="M79.9749 37.1791C80.0292 37.1545 80.0908 37.1516 80.1471 37.1709C80.2035 37.1903 80.2503 37.2303 80.2782 37.283C80.328 37.3424 80.3595 37.4149 80.3687 37.4919C80.3779 37.5688 80.3645 37.6468 80.3301 37.7162C80.2305 37.9025 80.1265 38.0281 79.8969 37.9588C79.8383 37.8755 79.7993 37.78 79.7828 37.6795C79.7663 37.579 79.7727 37.476 79.8016 37.3783C79.8158 37.3353 79.8385 37.2955 79.8682 37.2613C79.898 37.2271 79.9342 37.1991 79.9749 37.1791Z" fill="#D04F45"/>
<path d="M61.3977 25.9161C61.3207 25.9102 61.246 25.8871 61.179 25.8487C61.1121 25.8102 61.0545 25.7574 61.0105 25.6939C60.9665 25.6304 60.9372 25.5579 60.9248 25.4817C60.9123 25.4055 60.917 25.3275 60.9385 25.2533C60.9495 25.2268 60.9669 25.2034 60.989 25.185C61.0111 25.1667 61.0374 25.154 61.0655 25.148C61.0936 25.1421 61.1228 25.143 61.1505 25.1508C61.1781 25.1586 61.2035 25.173 61.2244 25.1927C61.3358 25.3038 61.4359 25.4257 61.5233 25.5566C61.5446 25.5904 61.5587 25.6282 61.5646 25.6678C61.5706 25.7073 61.5683 25.7476 61.558 25.7862C61.5233 25.8555 61.428 25.8901 61.3977 25.9161Z" fill="#D04F45"/>
<path d="M86.2222 37.9068C86.2565 37.8801 86.2979 37.8641 86.3413 37.8608C86.3847 37.8575 86.428 37.8672 86.466 37.8884C86.5039 37.9097 86.5347 37.9417 86.5545 37.9804C86.5744 38.0191 86.5823 38.0628 86.5774 38.106C86.5741 38.2318 86.5566 38.3567 86.5254 38.4786C86.5209 38.504 86.5104 38.528 86.4949 38.5487C86.4793 38.5693 86.4591 38.586 86.4359 38.5974C86.4127 38.6088 86.3872 38.6146 86.3613 38.6142C86.3355 38.6139 86.3101 38.6075 86.2871 38.5955C86.2189 38.5762 86.1494 38.5618 86.0792 38.5522C86.0792 38.4396 86.0532 38.3443 86.0359 38.2447C85.9796 38.0757 86.0922 37.9847 86.2222 37.9068Z" fill="#D04F45"/>
<path d="M80.1222 40.7138C80.2005 40.7538 80.2649 40.8166 80.3067 40.894C80.3485 40.9714 80.3657 41.0596 80.3561 41.147C80.3345 41.3073 80.2175 41.3506 80.0789 41.3723L79.9272 41.4026C79.8776 41.3169 79.8459 41.2221 79.834 41.1238C79.822 41.0255 79.8302 40.9259 79.8579 40.8308C79.8604 40.8013 79.8707 40.7731 79.8878 40.749C79.905 40.7249 79.9283 40.7059 79.9553 40.6939C79.9824 40.682 80.0121 40.6775 80.0415 40.681C80.0709 40.6845 80.0987 40.6959 80.1222 40.7138Z" fill="#D04F45"/>
<path d="M84.6322 26.0072C84.7058 25.9639 84.8488 25.9292 84.9008 25.9682C84.9868 26.044 85.06 26.1332 85.1174 26.2325C85.1174 26.501 84.9874 26.6137 84.8098 26.553C84.7419 26.527 84.6778 26.4921 84.6192 26.4491C84.5841 26.4233 84.5559 26.3894 84.5368 26.3504C84.5177 26.3113 84.5085 26.2682 84.5097 26.2247C84.511 26.1813 84.5228 26.1388 84.5441 26.1009C84.5655 26.063 84.5957 26.0308 84.6322 26.0072Z" fill="#D04F45"/>
<path d="M99.4402 48.9964C99.4512 49.0754 99.4512 49.1556 99.4402 49.2346C99.4362 49.2879 99.4189 49.3393 99.3897 49.384C99.3605 49.4287 99.3205 49.4653 99.2734 49.4904C99.2262 49.5155 99.1735 49.5283 99.1201 49.5275C99.0667 49.5267 99.0143 49.5124 98.968 49.4859C98.925 49.471 98.887 49.4443 98.8584 49.4089C98.8299 49.3735 98.8119 49.3307 98.8064 49.2855C98.801 49.2404 98.8084 49.1946 98.8278 49.1534C98.8472 49.1122 98.8777 49.0773 98.916 49.0527C98.9878 48.9922 99.0761 48.9546 99.1695 48.9446C99.2629 48.9345 99.3571 48.9526 99.4402 48.9964Z" fill="#D04F45"/>
<path d="M55.7136 16.9578C55.653 16.6199 55.7136 16.4596 55.9433 16.3253C55.9625 16.3082 55.9856 16.2959 56.0106 16.2896C56.0356 16.2833 56.0618 16.2831 56.0869 16.2891C56.1119 16.295 56.1352 16.3069 56.1547 16.3238C56.1742 16.3407 56.1894 16.362 56.1989 16.386C56.2232 16.4289 56.2359 16.4774 56.2359 16.5267C56.2359 16.5761 56.2232 16.6246 56.1989 16.6675C56.1079 16.9101 55.9043 16.9101 55.7136 16.9578Z" fill="#D04F45"/>
<path d="M84.8878 35.6889C84.8505 35.5342 84.8631 35.3717 84.9238 35.2247C84.9845 35.0776 85.0902 34.9535 85.2257 34.8702C85.2941 34.9167 85.3411 34.9885 85.3566 35.0697C85.372 35.151 85.3545 35.235 85.308 35.3034C85.1954 35.481 85.1997 35.7366 84.8878 35.6889Z" fill="#D04F45"/>
<path d="M84.9571 36.369C84.8976 36.3158 84.854 36.2471 84.8311 36.1707C84.8082 36.0943 84.8068 36.013 84.8271 35.9358C84.8271 35.8708 85.0048 35.8275 85.1044 35.7842C85.1044 35.7842 85.1564 35.7842 85.2257 35.7842C85.2414 35.96 85.2414 36.1369 85.2257 36.3127C85.1954 36.434 85.0698 36.4513 84.9571 36.369Z" fill="#D04F45"/>
<path d="M84.8531 29.4812C85.0004 29.5376 85.0091 29.6718 85.0004 29.8105C85.0016 29.832 84.9984 29.8536 84.9908 29.8738C84.9832 29.8941 84.9715 29.9125 84.9565 29.928C84.9414 29.9435 84.9233 29.9556 84.9032 29.9637C84.8832 29.9718 84.8617 29.9757 84.8401 29.9751C84.7824 29.9845 84.7232 29.9719 84.6743 29.9398C84.6254 29.9077 84.5903 29.8585 84.5759 29.8018C84.5759 29.7195 84.5412 29.6372 84.5282 29.5722C84.5607 29.5187 84.6124 29.4795 84.6727 29.4626C84.733 29.4457 84.7975 29.4524 84.8531 29.4812Z" fill="#D04F45"/>
<path d="M88.501 39.1847C88.5064 39.1338 88.5308 39.0868 88.5694 39.0531C88.6079 39.0194 88.6577 39.0014 88.7089 39.0028C88.8259 39.0028 88.9212 39.1111 88.9126 39.2844C88.8649 39.3147 88.7912 39.3927 88.7133 39.4013C88.6566 39.4002 88.6026 39.3769 88.5629 39.3364C88.5232 39.2959 88.501 39.2414 88.501 39.1847Z" fill="#D04F45"/>
<path d="M65.6607 13.2237C65.5394 13.2237 65.4441 13.1024 65.4658 12.9508C65.4658 12.8988 65.5308 12.8512 65.6001 12.7472C65.6846 12.8493 65.7586 12.9596 65.821 13.0764C65.821 13.0764 65.7301 13.2107 65.6607 13.2237Z" fill="#D04F45"/>
<path d="M99.059 51.6648C99.1283 51.6648 99.1889 51.7428 99.2972 51.8164C99.1846 51.8771 99.1153 51.9377 99.0416 51.9421C98.968 51.9464 98.9377 51.8424 98.9377 51.7861C98.9377 51.7298 99.0243 51.6562 99.059 51.6648Z" fill="#D04F45"/>
<path d="M84.2553 25.6173L84.082 25.4397C83.8134 25.4397 83.7874 25.1711 83.6747 25.0065C83.6487 24.9718 83.7007 24.8332 83.7571 24.7942C83.7805 24.7726 83.8083 24.7562 83.8387 24.7463C83.869 24.7364 83.9011 24.7332 83.9328 24.7369C83.9645 24.7406 83.9951 24.7511 84.0223 24.7678C84.0495 24.7844 84.0729 24.8067 84.0906 24.8332C84.1296 24.8332 84.2033 24.8332 84.2076 24.7942C84.2509 24.5257 84.4546 24.4434 84.6668 24.361C84.6941 24.3714 84.7202 24.3845 84.7448 24.4C84.8488 24.4823 84.9008 24.6989 85.1001 24.5387C85.1351 24.5552 85.164 24.5825 85.1824 24.6166C85.1882 24.636 85.1888 24.6566 85.1843 24.6764C85.1797 24.6961 85.1701 24.7143 85.1564 24.7293C84.9485 24.8722 84.7232 25.0108 84.5282 25.1624C84.8185 25.3834 84.8185 25.4657 84.5282 25.639C84.4286 25.7343 84.3593 25.7343 84.2553 25.6173Z" fill="#D04F45"/>
<path d="M84.7492 47.3244C84.798 46.9322 84.8125 46.5365 84.7925 46.1418C84.7757 45.9874 84.7957 45.8312 84.8506 45.6859C84.9056 45.5407 84.994 45.4104 85.1087 45.3057C85.23 45.1584 85.3254 45.1671 85.451 45.3057C85.4811 45.363 85.503 45.4243 85.516 45.4877L85.646 45.3187C85.7805 45.145 85.844 44.9267 85.8236 44.7079C85.6414 44.6674 85.4784 44.5659 85.3618 44.4201C85.2452 44.2744 85.1819 44.0932 85.1824 43.9065C85.2115 43.757 85.2787 43.6175 85.3773 43.5015C85.4759 43.3854 85.6028 43.2967 85.7456 43.2437L86.2048 43.1095C86.3641 43.0584 86.5348 43.0546 86.6963 43.0984C86.8577 43.1422 87.003 43.2318 87.1146 43.3564C87.3341 43.5772 87.5169 43.8317 87.6562 44.1101C87.7811 44.2847 87.8844 44.4738 87.9638 44.6733C88.0369 45.0567 88.2103 45.4139 88.4663 45.7086C88.5653 45.8256 88.6147 45.9765 88.6042 46.1294C88.5937 46.2822 88.524 46.425 88.41 46.5273C88.2854 46.7033 88.1698 46.8855 88.0634 47.0731C88.0374 47.2464 87.9464 47.437 87.9984 47.58C88.0422 47.7399 88.0536 47.9069 88.032 48.0713C88.0104 48.2356 87.9563 48.3941 87.8728 48.5373C87.8423 48.6236 87.8177 48.7119 87.7991 48.8015C87.9132 48.8908 88.0333 48.9718 88.1587 49.0441C88.2395 49.0763 88.3122 49.126 88.3715 49.1896C88.4308 49.2531 88.4754 49.3291 88.5019 49.4119C88.5284 49.4947 88.5362 49.5824 88.5248 49.6686C88.5134 49.7548 88.4831 49.8374 88.436 49.9105C88.3032 50.0979 88.2184 50.3151 88.1891 50.543C88.1915 50.6098 88.1681 50.675 88.1237 50.725C88.0794 50.775 88.0174 50.806 87.9508 50.8115C87.6607 50.8466 87.38 50.9362 87.1233 51.0758C87.1623 51.1711 87.2403 51.262 87.2273 51.3444C87.2075 51.5982 87.1506 51.8478 87.0583 52.0851C86.95 52.2974 86.9067 52.3147 86.6251 52.1977C86.4258 52.306 86.3565 52.1501 86.2785 52.0201C86.0861 51.9333 85.9321 51.7793 85.8452 51.5869C85.8106 51.5306 85.7716 51.418 85.7413 51.418C85.516 51.418 85.425 51.2361 85.282 51.1321C84.8098 50.7855 84.8488 50.3913 85.386 50.0838C85.4802 50.2025 85.5575 50.3337 85.6156 50.4736C85.6207 50.5147 85.6372 50.5536 85.6632 50.5857C85.6892 50.6179 85.7238 50.6421 85.7629 50.6556C85.8615 50.6726 85.9628 50.6603 86.0545 50.6202C86.1461 50.5802 86.224 50.5142 86.2785 50.4303C86.3923 50.1868 86.4198 49.9118 86.3565 49.6506C86.3446 49.5347 86.3039 49.4237 86.238 49.3276C86.1722 49.2315 86.0833 49.1534 85.9795 49.1004C85.9059 49.0701 85.8582 48.9835 85.7976 48.9185L85.4207 48.5156H85.334C85.2084 48.5156 85.0784 48.5156 85.0741 48.3424H84.9874L84.9008 48.2514L84.8141 48.1648L84.7318 48.0781V47.9005C84.6668 47.8745 84.6668 47.8442 84.7318 47.8139V47.7272C84.6625 47.6969 84.6625 47.6709 84.7318 47.6406V47.5756C84.6322 47.502 84.6365 47.411 84.7492 47.3244ZM87.0886 44.4134C87.2403 44.3007 87.2316 44.4827 87.3096 44.4913C87.3399 44.4523 87.3789 44.4134 87.3962 44.422C87.4136 44.4307 87.3312 44.461 87.2966 44.4827C87.2619 44.5043 87.2403 44.3007 87.0886 44.4134ZM86.1702 44.7252C86.1551 44.8025 86.1551 44.8819 86.1702 44.9592C86.1551 44.8819 86.1551 44.8025 86.1702 44.7252ZM87.7688 49.9538C87.7298 50.0101 87.6692 50.0794 87.6388 50.0664C87.6735 50.0664 87.7342 50.0015 87.7861 49.9625C87.8381 49.9235 87.9118 50.0751 87.9421 49.9322C87.9118 50.0751 87.8381 49.9538 87.7775 49.9322L87.7688 49.9538ZM85.7673 46.0551C85.6806 46.1678 85.7413 46.2804 85.8799 46.2977C86.1268 46.3237 86.2135 46.2501 86.3131 45.9165C86.1936 45.9034 86.0731 45.9034 85.9536 45.9165C85.8802 45.9408 85.8154 45.986 85.7673 46.0465V46.0551Z" fill="#D04F45"/>
<path d="M58.1657 31.7728C58.1657 31.7728 58.1657 31.7988 58.1657 31.8032C58.1657 31.8075 58.1397 31.8032 58.1267 31.8032L58.1527 31.7598L58.1657 31.7728Z" fill="#D04F45"/>
<path d="M91.9019 15.0865L91.9409 15.0476C91.9423 15.0576 91.9423 15.0678 91.9409 15.0779L91.9019 15.0865Z" fill="#D04F45"/>
<path d="M92.4174 14.6533L92.3784 14.6923C92.377 14.6822 92.377 14.672 92.3784 14.6619L92.4174 14.6533Z" fill="#D04F45"/>
<path d="M85.6026 45.2927L85.6373 45.3273C85.6373 45.3273 85.6373 45.3273 85.6113 45.3273C85.5853 45.3273 85.6026 45.3014 85.6026 45.2927Z" fill="#D04F45"/>
<path d="M76.3184 3.53767L76.3574 3.57666H76.327C76.327 3.57666 76.3227 3.54634 76.3184 3.53767Z" fill="#D04F45"/>
<path d="M81.2443 40.3196C81.27 40.1752 81.3432 40.0435 81.4523 39.9454C81.5614 39.8473 81.7001 39.7884 81.8465 39.7781C82.0024 39.7512 82.1627 39.7798 82.2997 39.859C82.4367 39.9382 82.5415 40.0628 82.596 40.2113C82.6797 40.3797 82.7241 40.5648 82.7259 40.7528C82.7259 41.095 82.7259 41.4416 82.7519 41.7838C82.7779 42.126 82.7823 42.5029 82.7823 42.8581C82.7846 42.9736 82.7513 43.087 82.687 43.183C82.5584 43.3902 82.4993 43.633 82.518 43.8761C82.6176 43.9454 82.6003 44.0494 82.583 44.149C82.5489 44.2914 82.5258 44.4362 82.5137 44.5822C82.5137 45.0414 82.5137 45.5005 82.5137 45.9641C82.5137 46.3149 82.479 46.3453 82.0804 46.4796C81.8465 46.1633 81.8335 46.1633 81.8941 45.8211C81.9455 45.617 81.9403 45.4027 81.8793 45.2013C81.8182 44.9998 81.7036 44.8188 81.5475 44.6775C81.4694 44.6112 81.4073 44.528 81.366 44.4342C81.3247 44.3404 81.3053 44.2384 81.3093 44.136C81.2096 44.0667 81.2226 43.9627 81.2443 43.8631C81.2682 43.713 81.3336 43.5727 81.4331 43.4578C81.5327 43.343 81.6623 43.2583 81.8075 43.2133C81.8638 42.7801 81.8898 42.3469 81.9721 41.9441C82.0033 41.8052 81.9905 41.6601 81.9353 41.5289C81.8802 41.3977 81.7855 41.2869 81.6645 41.212C81.5735 41.1427 81.4566 41.108 81.3613 41.043C81.032 40.8135 81.0147 40.6575 81.2659 40.298L81.2443 40.3196Z" fill="#D04F45"/>
</svg>
