<svg width="113" height="80" viewBox="0 0 113 80" fill="none" xmlns="http://www.w3.org/2000/svg">
<path d="M22.836 49.4271C35.046 49.4271 43.758 40.5831 43.758 25.2711C43.758 9.95909 35.046 1.11509 22.836 1.11509C10.626 1.11509 1.914 9.95909 1.914 25.2711C1.914 40.5831 10.626 49.4271 22.836 49.4271ZM22.836 36.9531C19.8 36.9531 17.556 34.1811 17.556 25.2711C17.556 16.3611 19.8 13.5891 22.836 13.5891C25.872 13.5891 28.116 16.3611 28.116 25.2711C28.116 34.1811 25.872 36.9531 22.836 36.9531ZM66.4873 18.4731H64.1113L64.4413 13.9191H82.3273V2.17109H51.6373L49.3273 30.2211H62.7253C68.3353 30.2211 69.7213 31.5411 69.7213 33.5211C69.7213 35.8971 67.1473 37.1511 63.6493 37.1511C59.7553 37.1511 55.2673 36.0951 51.3073 33.7851L46.0273 45.2691C50.9773 48.0411 57.9073 49.4271 64.2433 49.4271C79.0273 49.4271 85.3633 41.4411 85.3633 33.1911C85.3633 25.0071 80.1493 18.4731 66.4873 18.4731Z" fill="#D25046"/>
<path d="M83.285 19.5189C83.4705 19.3951 83.6232 19.2282 83.73 19.0325C83.826 18.8266 83.9964 18.6648 84.2069 18.5794C84.4173 18.4941 84.6523 18.4916 84.8646 18.5725C84.983 18.6112 85.1037 18.6422 85.2261 18.6654C85.5098 18.7134 85.7668 18.8618 85.9503 19.0834C86.0038 19.1296 86.0382 19.194 86.0468 19.2641C86.0554 19.3342 86.0376 19.405 85.9968 19.4627C85.8631 19.6944 85.7314 19.9225 85.5976 20.1542C85.5662 20.2244 85.5131 20.2826 85.4461 20.3204C85.3791 20.3582 85.3017 20.3735 85.2254 20.3641C85.0169 20.3587 84.8082 20.3656 84.6004 20.3846C84.3712 20.397 84.2838 20.5735 84.1726 20.741C84.0614 20.9085 84.2514 20.9892 84.2493 21.1183C84.3878 21.2095 84.5388 21.2803 84.6974 21.3288C85.0244 21.4032 85.335 21.5368 85.614 21.7228C85.6857 21.7561 85.7482 21.8064 85.796 21.8693C85.8438 21.9323 85.8755 22.0059 85.8883 22.0839C85.898 22.1677 85.9209 22.2493 85.9562 22.3259C86.0117 22.4316 86.0356 22.551 86.0252 22.6699C86.0147 22.7888 85.9703 22.9022 85.8973 22.9966C85.787 23.1729 85.7064 23.3661 85.6588 23.5685C85.6342 23.6449 85.6261 23.7257 85.635 23.8055C85.6439 23.8853 85.6696 23.9623 85.7104 24.0314C85.7512 24.1006 85.8061 24.1603 85.8717 24.2067C85.9372 24.2531 86.0119 24.2851 86.0907 24.3005C86.2429 24.3287 86.3807 24.4087 86.4805 24.5271C86.5803 24.6455 86.636 24.7948 86.638 24.9496C86.6444 25.0305 86.6788 25.1131 86.6831 25.1977C86.7005 25.6575 86.8735 26.0977 87.1738 26.4464C87.3164 26.5674 87.471 26.6759 87.6037 26.8056C87.7364 26.9353 87.8607 27.0795 87.9872 27.2201C88.2886 27.2374 88.5896 27.1809 88.8642 27.0555C88.8988 26.993 88.9535 26.9439 89.0194 26.9163C89.0852 26.8886 89.1585 26.884 89.2274 26.9032C89.6536 26.9566 90.0547 27.1344 90.3805 27.4144C90.4603 27.5193 90.5739 27.5935 90.7021 27.6244C90.8302 27.6553 90.9651 27.641 91.084 27.5841C91.1618 27.5663 91.2382 27.5427 91.3124 27.5229C91.3793 27.407 91.4208 27.2765 91.4888 27.142C91.5568 27.0075 91.4777 26.9522 91.384 26.9222C91.2682 26.8892 91.1501 26.8646 91.0307 26.8485C90.775 26.7669 90.5405 26.6298 90.3439 26.447C90.1473 26.2643 89.9935 26.0404 89.8935 25.7913L89.764 25.5138C89.6984 25.415 89.6426 25.31 89.5974 25.2004C89.5873 25.1567 89.5867 25.1113 89.5954 25.0672C89.6042 25.0232 89.6222 24.9816 89.6483 24.945C89.6867 24.9218 89.73 24.9079 89.7748 24.9044C89.8196 24.9009 89.8645 24.908 89.9061 24.9249C90.287 25.1014 90.6212 25.275 90.9741 25.4498C91.1835 25.3631 91.3852 25.2479 91.6248 25.3428C91.9336 25.2406 92.208 25.0548 92.4175 24.806C92.4833 24.7259 92.5736 24.6696 92.6745 24.6459C92.7755 24.6222 92.8814 24.6323 92.976 24.6748L93.0903 24.6442L93.2081 24.6157C93.2632 24.5627 93.3251 24.5172 93.3923 24.4806C93.6349 24.3697 93.6365 24.3754 93.6222 24.0824C93.5377 23.8357 93.5377 23.8357 93.8312 23.7204L94.0327 23.5471C94.1343 23.07 94.2396 22.5949 94.3508 22.0847C94.4308 22.2722 94.5006 22.464 94.5598 22.6591C94.5741 22.7654 94.5752 22.873 94.5631 22.9796C94.6276 23.152 94.4737 23.2514 94.4228 23.3813C94.372 23.5113 94.3392 23.5261 94.2974 23.5985C94.2556 23.671 94.2431 23.6927 94.2699 23.713C94.305 23.7556 94.3513 23.7874 94.4036 23.8048C94.4559 23.8222 94.5121 23.8244 94.5656 23.8113C94.8138 23.7326 95.076 23.6715 95.3465 23.596C95.6001 23.7086 95.3823 23.9353 95.445 24.0777C95.3269 24.1759 95.2013 24.2648 95.0694 24.3435C94.9166 24.4243 94.7257 24.5458 94.5874 24.5094C94.4491 24.473 94.2676 24.595 94.1008 24.5663C94.1008 24.5663 94.0527 24.6496 94.0255 24.6966C93.9983 24.7437 94.0848 24.895 94.0487 24.9658C94.0208 25.0491 94.0104 25.1372 94.018 25.2246C94.0257 25.3121 94.0512 25.3971 94.0931 25.4742L94.1871 25.6877C94.1105 25.7614 94.0197 25.8186 93.9202 25.8558C93.8207 25.893 93.7146 25.9094 93.6085 25.904L93.0607 26.167L92.9883 26.1252C93.0556 26.0297 93.1428 25.9499 93.244 25.8914C93.1428 25.9499 93.0556 26.0297 92.9883 26.1252L93.0607 26.167C93.0132 26.218 92.9628 26.2663 92.9097 26.3115C92.7288 26.4143 92.5763 26.5606 92.466 26.737C92.3556 26.9135 92.291 27.1147 92.2778 27.3224C92.2778 27.3224 92.2485 27.3731 92.236 27.3948C92.0827 27.7358 91.9474 28.0847 91.8306 28.4399C91.7757 28.6697 91.6469 28.8752 91.4639 29.0247C91.1725 29.2408 90.9376 29.5242 90.7794 29.8507C90.7641 29.8899 90.743 29.9265 90.7167 29.9594C90.692 29.9941 90.6601 30.0231 90.623 30.0442C90.586 30.0653 90.5447 30.078 90.5023 30.0815C90.4598 30.0851 90.417 30.0792 90.377 30.0645C90.337 30.0498 90.3007 30.0265 90.2706 29.9962C90.1034 29.8277 89.8872 29.7163 89.6528 29.6782C89.4449 29.8053 89.2038 29.8678 88.9603 29.8576C88.7339 29.9043 88.5042 29.9331 88.2733 29.9437C88.1692 29.9587 88.063 29.9495 87.963 29.9168C87.8629 29.8842 87.7717 29.829 87.6965 29.7555C87.5733 29.5926 87.514 29.3943 87.2867 29.3113C87.1998 29.2611 87.1429 29.1172 87.0744 29.0101L86.9457 28.7814L86.381 29.0153C86.2613 29.0499 86.1538 29.1177 86.071 29.2109C85.9882 29.304 85.9335 29.4186 85.913 29.5416C85.8723 29.9302 85.6815 30.2877 85.3813 30.5379C85.256 30.6378 85.1641 30.7736 85.1177 30.927C85.0714 31.0804 85.0728 31.2443 85.1218 31.3969C85.12 31.4586 85.1125 31.5219 85.1107 31.5836C85.1797 31.684 85.2416 31.7891 85.296 31.8981C85.3573 32.0194 85.4013 32.1488 85.4265 32.2824C85.4492 32.4355 85.3415 32.5133 85.1714 32.5068L84.8707 32.4925C84.8527 32.6993 84.8322 32.8854 84.8173 33.0699L84.8459 33.1878L84.8041 33.2602C84.8022 33.3219 84.7968 33.3815 84.7929 33.4468C84.7889 33.5121 84.8107 33.5246 84.8235 33.561L84.852 33.6788L84.8826 33.7931L84.9132 33.9073C84.9057 33.9705 84.9039 34.0322 84.8963 34.0954C84.9397 34.1688 84.9629 34.2523 84.9637 34.3375C84.9645 34.4227 84.9429 34.5066 84.9009 34.5808C84.834 34.6966 84.7651 34.8161 84.6919 34.9428C84.6773 34.9682 84.6605 34.9971 84.6459 35.0225C84.6605 34.9971 84.6773 34.9682 84.6919 34.9428C84.7371 34.9839 84.7733 35.0339 84.7982 35.0896C84.8232 35.1453 84.8364 35.2056 84.8369 35.2667C84.8375 35.3277 84.8254 35.3882 84.8015 35.4444C84.7776 35.5006 84.7423 35.5512 84.6979 35.5931C84.6765 35.6258 84.657 35.6596 84.6393 35.6945L84.7652 35.9698C84.8774 36.0201 84.9841 36.0817 85.0838 36.1538C85.225 36.2921 85.4019 36.3886 85.5946 36.4326C85.7874 36.4766 85.9886 36.4663 86.1758 36.4029C86.2716 36.3047 86.3909 36.2327 86.5225 36.1937C86.654 36.1547 86.7933 36.1501 86.9272 36.1802C87.1864 36.2649 87.437 36.374 87.6756 36.5061L87.8515 36.4774C87.8327 36.51 87.8139 36.5425 87.8204 36.5898L88.0376 36.7152C88.2239 36.4511 88.244 36.8343 88.3562 36.8074C88.374 36.784 88.3887 36.7585 88.4 36.7313C88.4694 36.501 88.5676 36.2804 88.6923 36.0746C88.7554 35.9645 88.8441 35.8712 88.9509 35.8027C89.0578 35.7341 89.1795 35.6923 89.3059 35.6807C89.4579 35.6767 89.6079 35.6427 89.7589 35.6236L89.8155 35.8349L89.8481 35.8538C89.8444 35.8735 89.8341 35.8914 89.8188 35.9044C89.6523 35.8083 89.6719 36.0754 89.5273 36.0499C89.4604 36.0402 89.3876 36.0995 89.3128 36.1288L89.6083 36.8545L88.8428 37.3442C88.7289 37.2633 88.6077 37.1933 88.4807 37.1351C88.4445 37.1142 88.3711 37.1829 88.3134 37.2075L88.3858 37.2493L88.6337 37.4889L88.8943 37.5477L88.9667 37.5895C89.0451 37.5723 89.1263 37.5723 89.2048 37.5893C89.2833 37.6062 89.3572 37.6399 89.4216 37.688C89.6464 37.9674 89.8557 38.2572 90.0924 38.558L90.4818 38.5608C90.4231 38.8213 90.3702 39.0466 90.321 39.2741C90.3085 39.2958 90.3228 39.3378 90.3066 39.3575C90.2486 39.4343 90.1822 39.5044 90.1087 39.5666C90.0202 39.6362 89.9353 39.6161 89.8626 39.5162C89.7869 39.3992 89.75 39.2613 89.757 39.1222C89.7361 38.9074 89.6368 38.8453 89.4137 38.8806C89.3208 38.8993 89.2237 38.9253 89.1323 38.9498C88.9606 39.0689 88.7626 39.1445 88.5552 39.1702C88.3478 39.196 88.1372 39.171 87.9416 39.0974C87.8856 39.0016 87.8346 38.9028 87.7889 38.8017C87.5794 38.3284 87.5794 38.3284 87.0956 38.4304C86.9304 38.6246 86.6981 38.6257 86.4827 38.6558C86.3921 38.6951 86.3115 38.7541 86.2467 38.8287C86.1819 38.9032 86.1347 38.9914 86.1085 39.0866C85.879 39.0903 85.6494 39.0803 85.421 39.0565C85.1946 39.0223 85.1217 38.7389 84.875 38.6978C84.875 38.6978 84.8273 38.5882 84.8394 38.5421C84.8832 38.3743 84.9471 38.2133 85.0228 37.9819L84.6814 37.3358C84.5559 37.3358 84.4568 37.3317 84.363 37.3354C84.2585 37.3475 84.1527 37.3305 84.0573 37.2865C83.9618 37.2424 83.8803 37.1729 83.8216 37.0856C83.7194 36.9744 83.6055 36.8747 83.4817 36.788C83.0789 36.8837 82.8067 37.2382 82.4034 37.3095L82.4781 37.6567C82.7069 37.8709 82.6286 38.1152 82.5622 38.3473C82.6942 38.3955 82.8145 38.4711 82.9151 38.5691C83.0158 38.6672 83.0945 38.7854 83.1462 38.9161C83.4078 39.2072 83.2783 39.5234 83.1475 39.8002C83.0166 40.0771 82.7502 40.0536 82.5032 40.0799C82.3378 39.7088 82.2404 39.3108 82.2159 38.9052C82.2159 38.9052 82.2306 38.8799 82.2368 38.869L82.1777 38.6369C82.0837 38.4813 81.9385 38.3633 81.7669 38.3032C81.6112 38.2133 81.5527 37.972 81.3223 38.0031L81.1252 38.6037L81.0771 38.6869L81.0774 39.0878C81.0802 39.1153 81.0772 39.143 81.0687 39.1693C81.0602 39.1956 81.0464 39.2199 81.0281 39.2406C81.0098 39.2613 80.9874 39.278 80.9624 39.2897C80.9373 39.3013 80.9101 39.3077 80.8825 39.3083L80.6569 39.3229C80.5572 39.5791 80.4686 39.8079 80.3784 40.031C80.2952 40.466 80.0759 40.8634 79.7521 41.1658C79.647 41.2937 79.5637 41.438 79.5055 41.593C79.4251 41.8669 79.2644 42.1105 79.044 42.292C78.9402 42.3495 78.8569 42.4379 78.8055 42.5448C78.7541 42.6518 78.7373 42.7721 78.7572 42.8891C78.7636 42.97 78.7399 43.0528 78.7406 43.1353C78.7107 43.3599 78.7464 43.5885 78.8435 43.7933C78.8795 43.8342 78.901 43.8859 78.9045 43.9404C78.908 43.9948 78.8934 44.0489 78.8629 44.0941L78.8878 44.2098C78.9099 44.2611 78.9216 44.3162 78.9221 44.3721C78.9226 44.4279 78.9119 44.4832 78.8906 44.5349C78.8694 44.5865 78.838 44.6333 78.7983 44.6726C78.7587 44.7119 78.7116 44.7429 78.6598 44.7636C78.5283 44.8325 78.3103 44.8756 78.2803 44.9694C78.2503 45.0631 78.3599 45.2663 78.4126 45.4174C78.3165 45.584 78.1662 45.56 78.0123 45.5339C77.7672 45.4985 77.5221 45.4632 77.2796 45.4149C77.1434 45.3758 77.0098 45.3277 76.8799 45.2711C76.7068 45.2439 76.5413 45.1808 76.3941 45.0859C76.2469 44.9909 76.1212 44.8661 76.0251 44.7196C75.9914 44.6579 75.9363 44.6106 75.8702 44.5867C75.7922 44.5685 75.7104 44.5775 75.6383 44.6121C75.5551 44.6558 75.5588 44.7497 75.614 44.8298C75.6757 44.8974 75.7193 44.9796 75.7405 45.0687C75.7617 45.1578 75.7598 45.2508 75.7351 45.339C75.6787 45.568 75.5826 45.7853 75.4512 45.9812C75.3981 46.0388 75.3623 46.1101 75.3477 46.187C75.3332 46.264 75.3405 46.3435 75.369 46.4164C75.3849 46.4841 75.3952 46.553 75.3997 46.6224C75.4775 46.7843 75.5637 46.942 75.6579 47.0949C75.8741 47.4041 76.0074 47.7636 76.0448 48.1389C75.9039 48.241 75.7457 48.3476 75.6 48.4662C75.4837 48.5388 75.3865 48.6383 75.3166 48.7563C75.272 48.8749 75.1868 48.9738 75.076 49.0354C74.9653 49.097 74.8364 49.1173 74.7121 49.0927C74.5878 49.099 74.4631 49.0903 74.3409 49.0667C74.1592 49.0052 74.012 49.0844 73.8609 49.1371C73.6236 49.2221 73.6047 49.2547 73.6519 49.4992C73.7126 49.685 73.7104 49.8856 73.6458 50.07C73.6608 50.0982 73.669 50.1296 73.6695 50.1616C73.67 50.1935 73.6629 50.2251 73.6487 50.2538C73.6345 50.2824 73.6137 50.3073 73.588 50.3263C73.5623 50.3452 73.5324 50.3578 73.5008 50.3629C73.3676 50.3902 73.2289 50.37 73.109 50.3056C72.9951 50.2281 72.9092 50.1159 72.8641 49.9856C72.766 49.7255 72.608 49.4921 72.403 49.3043C72.2827 49.1865 72.082 49.0659 72.1317 48.8628C72.1644 48.6047 72.1523 48.3429 72.0957 48.089C72.066 47.9979 72.0185 47.9137 71.956 47.8411C71.8934 47.7686 71.8171 47.7091 71.7314 47.6663C71.4298 47.4712 71.0657 47.3972 70.7118 47.459C70.5683 47.4315 70.4214 47.4264 70.2763 47.4441C70.12 47.489 69.979 47.591 69.8137 47.568C69.72 47.4125 69.8519 47.368 69.9187 47.2859C69.9833 47.1947 70.0393 47.0978 70.0859 46.9962C70.1423 46.8985 70.1987 46.8007 70.2552 46.703L70.297 46.6306L70.2721 46.5148C70.2161 46.386 70.1602 46.2571 70.1099 46.1268L69.918 46.016C69.4005 45.7751 69.4221 45.3531 69.5286 44.9512C69.6118 44.6565 69.7116 44.3666 69.8223 44.083C69.9005 43.8723 70.004 43.6762 70.0967 43.4739C70.1224 43.4162 70.1621 43.3658 70.2122 43.3273C70.2622 43.2888 70.3211 43.2633 70.3834 43.2532C70.59 43.2132 70.7935 43.1617 71.0052 43.1295C71.3902 43.0815 71.5003 42.9326 71.4175 42.5325C71.3903 42.452 71.3702 42.3693 71.3574 42.2854C71.3542 42.1822 71.3361 42.0462 71.3894 41.9708C71.4234 41.9258 71.4479 41.8745 71.4615 41.8198C71.4752 41.7651 71.4776 41.7082 71.4687 41.6526C71.4598 41.5969 71.4397 41.5437 71.4097 41.496C71.3797 41.4483 71.3403 41.4072 71.294 41.3751C71.2413 41.3212 71.2012 41.2565 71.1763 41.1854C71.1514 41.1143 71.1425 41.0386 71.1501 40.9637C71.1394 40.7983 71.1718 40.6335 71.1725 40.465C71.1736 40.2543 71.2327 40.0479 71.3431 39.8684C71.4748 39.6399 71.5846 39.3994 71.6709 39.1502C71.8072 38.7094 72.0408 38.3048 72.3544 37.9663C72.4792 37.8336 72.5715 37.6737 72.6241 37.4993C72.6569 37.3502 72.735 37.2149 72.8477 37.1119C73.0324 36.9676 73.2069 36.8076 73.3813 36.6477C73.5503 36.4637 73.7309 36.2906 73.9218 36.1295C74.2902 35.8594 74.7019 35.6145 75.0665 35.376C75.2152 35.0516 75.3639 34.7271 75.5242 34.3659C75.4166 34.3466 75.3075 34.3369 75.1981 34.337C74.8842 34.3874 74.5582 34.4502 74.2588 34.509C74.1959 34.5353 74.1259 34.539 74.0606 34.5198C73.9952 34.5005 73.9385 34.4593 73.8999 34.4032C74.0498 34.0368 74.318 33.7312 74.6618 33.535C75.0388 33.3085 75.4393 33.5011 75.7959 33.5525L76.4986 32.7032L76.4136 31.7466C76.391 31.5672 76.4296 31.3854 76.5233 31.2307C76.6519 31.0497 76.7632 30.857 76.8556 30.6551C76.9368 30.4182 77.0631 30.1994 77.2276 30.0106C77.4675 29.8155 77.6536 29.5624 77.7681 29.2752C77.8307 28.997 77.9765 28.7445 78.1862 28.5511C78.4841 28.2927 78.7014 27.954 78.8122 27.5755C78.8682 27.4349 78.9545 27.3084 79.0648 27.2048C79.1617 27.0971 79.2654 26.9957 79.3752 26.9013C79.5476 26.6958 79.6426 26.4365 79.644 26.1683C79.6035 25.8318 79.6864 25.4921 79.8774 25.2121C79.9929 25.0551 80.0762 24.8768 80.1224 24.6874C80.1744 24.3842 80.333 24.1094 80.5697 23.9127C80.6773 23.8168 80.7785 23.714 80.8728 23.605C80.9352 23.5343 80.9829 23.4518 81.0129 23.3624C81.113 23.0395 81.3256 22.7632 81.6121 22.5837C81.7018 22.531 81.7763 22.4559 81.8283 22.3658C81.8803 22.2757 81.9081 22.1737 81.9089 22.0696C81.9588 21.6421 82.1428 21.2414 82.4346 20.925C82.6277 20.7166 82.7609 20.46 82.8201 20.1821C82.8486 20.0459 82.9046 19.9168 82.9845 19.8028C83.0644 19.6888 83.1667 19.5922 83.285 19.5189ZM78.06 36.4623C78.035 36.5058 78.0699 36.5791 78.0785 36.6227C78.2161 36.7021 78.4223 36.6377 78.4756 36.5285C78.4825 36.4982 78.4813 36.4666 78.4722 36.4368C78.4632 36.407 78.4466 36.3801 78.424 36.3587C78.3966 36.3317 78.3625 36.3124 78.3253 36.3029C78.288 36.2933 78.2488 36.2939 78.2118 36.3044C78.1748 36.3149 78.1412 36.3351 78.1146 36.3629C78.0879 36.3906 78.0691 36.4249 78.06 36.4623ZM81.0186 35.7279C81.0112 35.6892 81.001 35.651 80.988 35.6137C81.001 35.651 81.0112 35.6892 81.0186 35.7279ZM80.4438 28.8216C80.5553 28.8662 80.6459 28.9512 80.6974 29.0597C80.6459 28.9512 80.5553 28.8662 80.4438 28.8216C80.3044 28.7262 80.1369 28.6805 79.9684 28.6919C80.1358 28.6866 80.3001 28.7374 80.4355 28.8361L80.4438 28.8216ZM80.9303 37.5113C81.0139 37.3665 81.0955 37.2253 81.177 37.0841C81.0955 37.2253 81.0139 37.3665 80.9303 37.5113C80.8593 37.6344 80.7512 37.6878 80.6229 37.6089C80.7533 37.6842 80.8629 37.6365 80.9433 37.5139C81.1938 37.4273 81.4029 37.2502 81.5294 37.0172C81.4666 37.1378 81.3806 37.2448 81.2764 37.3321C81.1722 37.4193 81.0517 37.4852 80.922 37.5258L80.9303 37.5113ZM72.792 46.6905C72.7106 46.5808 72.6291 46.471 72.5555 46.3561C72.6291 46.471 72.7106 46.5808 72.792 46.6905L72.8227 46.8048L72.792 46.6905ZM84.3977 24.8581C84.3726 24.9015 84.3046 24.9106 84.2599 24.9379C84.2275 25.0097 84.178 25.0724 84.1157 25.1206C84.0533 25.1688 83.9801 25.2009 83.9025 25.2142C83.823 25.3517 83.8251 25.4736 84.0281 25.5233C84.615 25.669 84.8145 25.7166 85.1711 25.0488C85.1982 25.0017 85.2254 24.9546 85.2413 24.8769C85.1689 24.8351 85.1189 24.7628 85.0558 24.7216C84.6819 24.4912 84.6835 24.4969 84.3977 24.8581ZM88.7483 39.0129L88.6308 38.974L88.7483 39.0129ZM88.2462 39.0464L88.1484 38.99L88.2462 39.0464Z" fill="#D25046"/>
<path d="M88.4066 64.5973C88.7112 64.4225 88.9656 64.172 89.1451 63.87C89.1576 63.8483 89.2163 63.8387 89.2526 63.8259C89.3132 63.7209 89.3759 63.6123 89.5213 63.6866C89.7726 63.6193 90.0275 63.5541 90.2793 63.4774C90.5312 63.4008 90.7853 63.2868 91.0257 63.2132C91.2661 63.1396 91.5319 63.298 91.7319 63.4617C91.8333 63.5202 91.7972 63.7166 91.6931 63.7965C91.6247 63.8443 91.5467 63.8766 91.4645 63.8914C91.138 63.9635 90.8106 64.0207 90.4841 64.0928C90.3752 64.1051 90.2731 64.1515 90.1923 64.2253C90.1115 64.2992 90.0561 64.3968 90.0342 64.5041C89.9933 64.6759 89.922 64.8391 89.8236 64.9859C89.6148 65.2226 89.3325 65.3822 89.022 65.4393C88.7116 65.4964 88.3909 65.4476 88.1115 65.3007C88.0551 65.2721 88.0081 65.228 87.976 65.1736C87.944 65.1191 87.9282 65.0566 87.9306 64.9934C87.933 64.9303 87.9535 64.8691 87.9896 64.8173C88.0257 64.7654 88.076 64.725 88.1344 64.7008C88.2218 64.6582 88.3129 64.6235 88.4066 64.5973Z" fill="#D25046"/>
<path d="M90.9929 16.0771C91.058 16.4124 91.0026 16.7599 90.8366 17.0585C90.7499 17.1644 90.6257 17.2327 90.4899 17.2493C90.3576 17.2694 90.3328 17.12 90.2902 17.0181C90.2438 16.8712 90.1678 16.7354 90.0669 16.6189C89.8227 16.3515 89.6403 16.0336 89.5328 15.6878C89.4079 15.4275 89.4498 15.3214 89.667 15.104C89.7292 15.0279 89.8139 14.9734 89.9089 14.9485C90.004 14.9236 90.1046 14.9295 90.1961 14.9654C90.2744 14.9883 90.3539 15.0069 90.4344 15.0209L91.3153 15.1674C91.3327 15.1985 91.3425 15.2333 91.3439 15.2689C91.3453 15.3045 91.3382 15.3399 91.3233 15.3722C91.3084 15.4046 91.2861 15.433 91.2581 15.455C91.2301 15.4771 91.1973 15.4922 91.1624 15.4991C91.065 15.5345 90.9787 15.5948 90.9118 15.6739C90.845 15.753 90.8 15.8482 90.7813 15.9501C90.861 15.9961 90.9827 16.0278 90.9929 16.0771Z" fill="#D25046"/>
<path d="M87.1303 15.5754C87.2346 15.51 87.3488 15.4618 87.4685 15.4327C87.5672 15.3996 87.6549 15.3401 87.7221 15.2606C87.7893 15.1811 87.8334 15.0846 87.8495 14.9818L87.9043 14.7865C87.9172 14.6796 87.938 14.5738 87.9664 14.47C87.9733 14.4296 87.9893 14.3913 88.0131 14.358C88.0369 14.3247 88.068 14.2972 88.1039 14.2776C88.1398 14.2579 88.1798 14.2467 88.2207 14.2446C88.2616 14.2426 88.3024 14.2498 88.3401 14.2658C88.427 14.2958 88.5028 14.3513 88.5575 14.4251C88.6122 14.499 88.6434 14.5876 88.6469 14.6794C88.6591 14.7911 88.7045 14.8966 88.7771 14.9824C88.8497 15.0682 88.9463 15.1303 89.0544 15.1609C89.1266 15.1914 89.1947 15.2307 89.2572 15.278L88.4675 15.6089C88.4874 15.8188 88.5296 16.026 88.5934 16.227C88.7135 16.5039 88.8991 16.7511 89.0421 17.0218C89.0811 17.0835 89.1054 17.1534 89.1131 17.2259C89.1208 17.2985 89.1118 17.3719 89.0867 17.4404C89.0616 17.5089 89.0211 17.5708 88.9683 17.6212C88.9155 17.6716 88.8519 17.7092 88.7822 17.7311C88.6022 17.8061 88.4046 17.8291 88.2121 17.7973C88.0196 17.7656 87.8399 17.6804 87.6935 17.5514C87.6095 17.4702 87.5357 17.379 87.4738 17.2798C87.3197 17.0128 87.0863 16.8004 86.806 16.6721C86.6829 16.6011 86.5634 16.5321 86.4439 16.4631L86.1605 16.4105C85.6746 16.2989 85.5266 16.1121 85.5186 15.5572L85.9525 15.4746C86.1816 15.4168 86.4241 15.4481 86.6309 15.5622C86.7918 15.6599 86.9352 15.7041 87.1303 15.5754Z" fill="#D25046"/>
<path d="M71.6423 30.6041C71.7111 30.4998 71.7652 30.3864 71.803 30.2673C71.8364 30.129 71.909 30.0033 72.012 29.9053C72.0402 29.8645 72.079 29.8322 72.1243 29.8118C72.1695 29.7915 72.2194 29.784 72.2687 29.79C72.3179 29.7961 72.3645 29.8155 72.4035 29.8461C72.4425 29.8768 72.4724 29.9175 72.4899 29.9639C72.5244 30.0549 72.539 30.1522 72.5327 30.2493C72.5035 30.4682 72.5439 30.6908 72.6481 30.8856C72.6779 30.93 72.696 30.9813 72.7006 31.0346C72.7053 31.088 72.6964 31.1416 72.6748 31.1906C72.4765 31.2913 72.2835 31.4022 72.0967 31.5229C71.9539 31.633 71.7822 31.6993 71.6025 31.7137C71.4227 31.7282 71.2427 31.6902 71.0841 31.6045C70.9755 31.5417 70.8668 31.479 70.7582 31.4163C70.7022 31.413 70.6394 31.4298 70.596 31.4047C70.3316 31.2521 70.0637 31.0974 69.7958 30.9427C69.5278 30.788 69.4826 30.5737 69.5884 30.4658C69.6941 30.3579 69.9899 30.4225 70.1116 30.5796C70.2813 30.7669 70.5054 30.8963 70.7525 30.9496C70.8192 30.9446 70.8862 30.9461 70.9526 30.9541C71.0905 30.9916 71.2374 30.9765 71.3648 30.9118C71.4922 30.8472 71.5911 30.7375 71.6423 30.6041Z" fill="#D25046"/>
<path d="M82.9552 14.2362C82.7916 14.2984 82.6164 14.3242 82.4418 14.3117C82.2672 14.2993 82.0975 14.249 81.9443 14.1642C81.6192 13.968 81.3689 13.6689 81.233 13.3143C81.1799 13.1917 81.17 13.0547 81.205 12.9258C81.2399 12.7969 81.3176 12.6837 81.4254 12.6048C81.6262 12.4452 81.8699 12.349 82.1256 12.3284C82.2706 12.3272 82.4153 12.3396 82.5579 12.3656C82.6785 12.5414 82.7954 12.7151 82.9166 12.8816C83.085 13.1825 83.1718 13.5222 83.1684 13.8669C83.185 13.944 83.1724 14.0244 83.133 14.0926C83.0936 14.1609 83.0302 14.2121 82.9552 14.2362Z" fill="#D25046"/>
<path d="M91.5886 18.7665C91.7846 18.7926 91.9686 18.8757 92.1177 19.0056C92.2667 19.1354 92.3743 19.3062 92.427 19.4968C92.4766 19.6702 92.4101 19.8104 92.2368 19.8262C92.0808 19.8299 91.9247 19.8205 91.7702 19.7982C91.6602 19.8358 91.5434 19.8491 91.4277 19.8373C91.312 19.8255 91.2002 19.7888 91.1 19.7298C90.9152 19.6569 90.738 19.5208 90.5415 19.7356C90.4441 19.829 90.2569 19.8272 90.1172 19.8768C90.0645 19.8991 90.0059 19.9034 89.9505 19.8889C89.8951 19.8743 89.8461 19.8419 89.8111 19.7966C89.7391 19.6953 89.6748 19.5888 89.6186 19.4779C89.9345 19.2066 90.0946 18.7873 90.5325 18.7312C90.5083 18.5724 90.386 18.4246 90.5292 18.2852C90.8168 18.5622 91.1908 18.7321 91.5886 18.7665Z" fill="#D25046"/>
<path d="M85.3233 54.2926C85.5096 54.1626 85.7037 54.0441 85.9046 53.938C86.1058 53.8321 86.1622 53.8598 86.2729 54.0444C86.3835 54.2289 86.5652 54.5414 86.7373 54.7952C86.5843 54.8927 86.4212 54.9734 86.2509 55.0357C86.121 55.0837 85.9823 55.1031 85.8443 55.0925C85.7062 55.082 85.5721 55.0417 85.451 54.9745C85.3881 54.9474 85.3328 54.9052 85.29 54.8517C85.2472 54.7981 85.2182 54.7349 85.2056 54.6676C85.193 54.6002 85.1971 54.5308 85.2176 54.4654C85.2382 54.4 85.2745 54.3407 85.3233 54.2926Z" fill="#D25046"/>
<path d="M81.9994 47.1406C82.1506 47.229 82.2784 47.3524 82.3719 47.5004C82.4653 47.6485 82.5218 47.8169 82.5365 47.9914C82.544 48.0504 82.5356 48.1104 82.5121 48.1651C82.4886 48.2199 82.451 48.2673 82.4031 48.3026C82.3551 48.3379 82.2986 48.3598 82.2394 48.366C82.1802 48.3721 82.1204 48.3624 82.0662 48.3377C81.9744 48.3063 81.8895 48.2573 81.8164 48.1935C81.5918 47.9721 81.3677 47.7414 81.1551 47.5076C81.0653 47.4123 81.0103 47.2985 81.0601 47.1872C81.2141 47.1741 81.3664 47.1456 81.5147 47.1022C81.5929 47.0705 81.6775 47.0575 81.7616 47.0642C81.8457 47.0709 81.9271 47.097 81.9994 47.1406Z" fill="#D25046"/>
<path d="M103.057 39.1552C103.176 39.2156 103.274 39.3088 103.342 39.4237C103.409 39.5387 103.441 39.6705 103.436 39.8035C103.453 39.9825 103.474 40.1636 103.476 40.3435C103.469 40.4027 103.48 40.4629 103.509 40.5151C103.538 40.5674 103.583 40.6091 103.637 40.6341C103.694 40.6689 103.741 40.7168 103.776 40.7737C103.81 40.8307 103.831 40.895 103.835 40.9614C103.84 41.0278 103.829 41.0944 103.802 41.1556C103.776 41.2167 103.736 41.2707 103.684 41.3131C103.592 41.4101 103.481 41.4869 103.358 41.5389C103.235 41.5908 103.103 41.6166 102.969 41.6148C102.895 41.4936 102.831 41.3663 102.779 41.2343C102.678 40.9062 102.592 40.5713 102.497 40.2416L102.478 40.1581C102.482 40.1461 102.489 40.1351 102.497 40.1255C102.552 39.8535 102.601 39.5773 102.677 39.3122C102.711 39.1101 102.858 39.0646 103.057 39.1552Z" fill="#D25046"/>
<path d="M89.9839 34.8076C89.8725 34.8386 89.7591 34.8618 89.6445 34.8771C89.6218 34.7501 89.6307 34.6195 89.6704 34.4968C89.71 34.3741 89.7793 34.263 89.8721 34.1734C89.9327 34.0685 90.0404 33.9906 90.1104 33.8862C90.2684 33.686 90.4798 33.5347 90.7203 33.4497C90.9607 33.3647 91.2203 33.3495 91.469 33.4059C91.5363 33.4213 91.598 33.4552 91.6472 33.5036C91.6964 33.5521 91.7311 33.6133 91.7475 33.6804C91.7639 33.7474 91.7613 33.8177 91.74 33.8834C91.7187 33.9491 91.6796 34.0075 91.627 34.0522C91.456 34.1897 91.2671 34.3031 91.0654 34.3893C90.7116 34.5423 90.346 34.6739 89.9839 34.8076Z" fill="#D25046"/>
<path d="M93.9347 35.3558C94.0045 35.3116 94.0877 35.2935 94.1696 35.3046C94.2515 35.3156 94.3269 35.3553 94.3825 35.4164C94.4446 35.4724 94.4872 35.5467 94.5042 35.6286C94.5212 35.7104 94.5116 35.7956 94.4769 35.8716C94.4309 36.0043 94.3743 36.133 94.3077 36.2566C94.2512 36.3333 94.2107 36.4205 94.1887 36.5132C94.1667 36.6058 94.1637 36.702 94.1799 36.7959L94.1932 37.0738C94.0902 37.1351 94.0086 37.1845 93.9014 37.253L93.7962 37.1343C93.6446 36.9454 93.5733 36.7594 93.7697 36.5446C93.8011 36.4903 93.7901 36.3922 93.8241 36.325C93.9858 36.0032 93.7508 35.6744 93.9347 35.3558Z" fill="#D25046"/>
<path d="M95.8066 36.152C95.8869 36.1601 95.9679 36.1599 96.0482 36.1515C96.1583 36.1831 96.254 36.2517 96.3193 36.3457C96.3847 36.4397 96.4156 36.5534 96.4069 36.6675C96.3911 36.7022 96.3644 36.7309 96.3308 36.7491C96.2662 36.7992 96.1971 36.8434 96.1244 36.8809C96.0053 36.9415 95.8748 36.976 95.7413 36.9822C95.6079 36.9884 95.4747 36.9661 95.3505 36.9168C95.2776 36.8686 95.2259 36.7943 95.2059 36.7092C95.186 36.6241 95.1993 36.5346 95.2431 36.459C95.3705 36.2719 95.5201 36.0879 95.8066 36.152Z" fill="#D25046"/>
<path d="M96.1066 33.366C96.1352 33.4874 96.151 33.6114 96.1537 33.736C96.1872 34.0208 96.1684 34.0534 95.8966 34.1813C95.8234 34.2162 95.747 34.2397 95.6722 34.2689C95.4695 34.0672 95.3396 33.8037 95.3032 33.5201C95.2742 33.2861 95.4257 33.1322 95.6921 33.0639C95.9584 32.9957 96.0168 33.1453 96.1066 33.366Z" fill="#D25046"/>
<path d="M89.3243 42.6717C89.2171 42.7027 89.1026 42.6975 88.9986 42.6567C88.8947 42.6159 88.8072 42.5418 88.7497 42.4461C88.6652 42.3249 88.5219 42.247 88.442 42.1429C88.1954 41.8509 88.0057 41.7028 88.4606 41.3331L88.4794 41.3005C88.6436 41.2167 88.8115 41.135 89.0066 41.2235C89.2017 41.312 89.2709 41.3761 89.418 41.4224C89.5026 41.44 89.5772 41.4897 89.626 41.5611C89.6748 41.6325 89.6941 41.72 89.6797 41.8052C89.6637 41.8999 89.6731 41.9971 89.7069 42.0869C89.7406 42.1768 89.7976 42.2561 89.8719 42.3168C90.0564 42.4163 90.2496 42.4987 90.4491 42.5632C90.3757 42.8491 90.7793 43.0531 90.6069 43.4604L90.3884 43.5128C90.3488 43.4224 90.3158 43.3792 90.3196 43.3476C90.3246 43.2251 90.2928 43.1038 90.2283 42.9995C90.1638 42.8951 90.0695 42.8125 89.9576 42.7621C89.7519 42.5999 89.5401 42.6659 89.3243 42.6717ZM88.9939 41.4044L88.8592 41.3701L89.0099 41.4185C88.8235 41.4654 88.6512 41.4962 88.4534 41.5461L89.0347 41.4425C89.1552 41.4528 89.2705 41.496 89.3681 41.5674C89.2624 41.477 89.1321 41.4203 88.9939 41.4044Z" fill="#D25046"/>
<path d="M88.5459 32.6402C88.4866 32.5152 88.4663 32.3754 88.4875 32.2387C88.5087 32.102 88.5705 31.9749 88.6649 31.8738C88.7548 31.7182 88.8154 31.6132 88.874 31.5118C88.9325 31.4104 89.0179 31.3294 89.1448 31.3689C89.2716 31.4083 89.3027 31.5469 89.2855 31.677C89.2695 31.758 89.2491 31.8381 89.2243 31.9168C89.1652 32.05 89.1288 32.1922 89.1166 32.3374C89.1164 32.4099 89.0998 32.4815 89.068 32.5468C89.0362 32.612 88.99 32.6692 88.933 32.714C88.7818 32.8922 88.6296 32.8381 88.5459 32.6402Z" fill="#D25046"/>
<path d="M73.0653 33.2648C72.8688 33.2624 72.7596 33.209 72.7033 33.0558C72.642 32.8395 72.6545 32.6089 72.7388 32.4005C72.7573 32.3499 72.7896 32.3055 72.832 32.2723C72.8745 32.2391 72.9254 32.2185 72.9789 32.2128C73.0325 32.207 73.0866 32.2164 73.1351 32.2398C73.1837 32.2632 73.2247 32.2998 73.2535 32.3453C73.3842 32.5704 73.4692 32.8077 73.5876 33.0209C73.5311 33.1054 73.4526 33.1728 73.3605 33.2158C73.2685 33.2588 73.1664 33.2758 73.0653 33.2648Z" fill="#D25046"/>
<path d="M82.6775 58.7505C82.7737 58.584 82.8343 58.479 82.9979 58.53C83.0763 58.5462 83.1475 58.5873 83.2007 58.6471C83.2296 58.7043 83.2347 58.7705 83.2149 58.8315C83.1951 58.8924 83.152 58.943 83.095 58.9723C83.0184 59.0217 82.96 59.0949 82.9289 59.1806C82.8977 59.2663 82.8954 59.3598 82.9223 59.447C82.9437 59.6044 82.9379 59.7643 82.9052 59.9198C82.8909 59.9989 82.8495 60.0706 82.7882 60.1225C82.7353 60.1817 82.6667 60.2245 82.5904 60.2461C82.5141 60.2678 82.4332 60.2672 82.3572 60.2446C82.2812 60.2219 82.2131 60.1782 82.1611 60.1183C82.109 60.0585 82.075 59.9851 82.0631 59.9067C82.0052 59.7477 81.9677 59.5619 82.1201 59.4568C82.2618 59.3909 82.386 59.2927 82.4828 59.17C82.5796 59.0473 82.6463 58.9036 82.6775 58.7505Z" fill="#D25046"/>
<path d="M84.8972 45.7826C85.0167 45.8516 85.0317 45.9761 84.9823 46.1117C84.9656 46.1407 84.9887 46.1926 84.9901 46.232C85.0218 46.5786 84.9549 46.6944 84.662 46.8004C84.5551 46.83 84.4462 46.851 84.336 46.8633C84.2239 46.9671 84.0847 47.0369 83.9345 47.0647C83.7843 47.0925 83.6293 47.077 83.4875 47.0202C83.428 47.0046 83.3742 46.9723 83.3326 46.927C83.2909 46.8818 83.263 46.8257 83.2523 46.7651C83.2415 46.7046 83.2483 46.6422 83.2719 46.5854C83.2955 46.5287 83.3348 46.4798 83.3853 46.4447C83.5997 46.274 83.8368 46.1309 84.0687 45.98C84.1976 45.8985 84.3309 45.8239 84.4679 45.7568C84.5366 45.7275 84.6111 45.7146 84.6856 45.719C84.7601 45.7235 84.8326 45.7453 84.8972 45.7826Z" fill="#D25046"/>
<path d="M68.4267 34.082C68.5172 34.1343 68.5171 34.3852 68.4419 34.5156C68.3954 34.5803 68.3337 34.6325 68.2623 34.6677C68.1137 34.7412 67.948 34.7856 67.7962 34.8813C67.7362 34.9158 67.6676 34.9325 67.5984 34.9293C67.5292 34.9262 67.4624 34.9033 67.4058 34.8635C67.398 34.6792 67.4514 34.4975 67.5577 34.3467C67.664 34.1958 67.8172 34.0844 67.9934 34.0298C68.064 34.0003 68.141 33.9897 68.2169 33.9989C68.2928 34.008 68.3651 34.0367 68.4267 34.082Z" fill="#D25046"/>
<path d="M94.613 32.3829C94.6686 32.5391 94.7116 32.6995 94.7415 32.8626C94.7634 32.9514 94.7619 33.0444 94.7373 33.1325C94.7126 33.2206 94.6656 33.3009 94.6009 33.3655C94.3707 33.5801 94.1245 33.7807 93.8383 34.0258C93.6664 33.5711 93.6567 33.071 93.8108 32.61C93.8421 32.5091 93.9011 32.419 93.981 32.35C94.061 32.281 94.1587 32.2358 94.2631 32.2195C94.3312 32.1956 94.406 32.1993 94.4714 32.2299C94.5368 32.2604 94.5876 32.3153 94.613 32.3829Z" fill="#D25046"/>
<path d="M92.5687 36.2083C92.1833 36.232 91.824 36.1017 91.4703 36.221C91.4599 36.2391 91.4143 36.2176 91.3863 36.2159C91.2313 36.2085 91.2089 36.1135 91.2225 35.9813C91.236 35.8492 91.1358 35.772 91.2952 35.7048C91.3644 35.6615 91.4264 35.6077 91.479 35.5454C91.525 35.4657 91.6003 35.4272 91.6909 35.4794C91.8508 35.5505 92.0232 35.5892 92.1982 35.5933C92.3732 35.5974 92.5472 35.5667 92.7103 35.5032C92.6614 35.755 92.6128 35.9731 92.5687 36.2083Z" fill="#D25046"/>
<path d="M79.3082 48.8744C79.2831 48.9178 79.2145 48.9699 79.1849 48.9625C79.1536 48.9516 79.1249 48.9345 79.1004 48.9121C79.076 48.8897 79.0564 48.8625 79.0429 48.8322C79.024 48.7434 79.0243 48.6516 79.0438 48.563C79.0634 48.4744 79.1017 48.3909 79.1561 48.3183C79.2795 48.1047 79.4049 47.8875 79.5282 47.6739C79.6097 47.5327 79.6912 47.3915 79.7978 47.2069C80.0679 47.5752 80.0831 47.666 79.8404 47.9024C79.8195 47.9386 79.7738 47.9509 79.7457 47.9829C79.5441 48.1899 79.3063 48.3761 79.3494 48.7195C79.3526 48.7742 79.3382 48.8285 79.3082 48.8744Z" fill="#D25046"/>
<path d="M88.1875 23.9038C88.2218 23.8974 88.2571 23.9002 88.29 23.9119C88.3228 23.9236 88.3519 23.9439 88.3744 23.9706C88.3968 23.9973 88.4117 24.0295 88.4176 24.0639C88.4234 24.0982 88.4201 24.1335 88.4078 24.1662C88.3734 24.2701 88.3062 24.36 88.2163 24.4225C88.0392 24.5067 87.8436 24.5447 87.6478 24.5329C87.452 24.5212 87.2624 24.46 87.0965 24.3552C87.3954 24.0806 87.7819 23.9207 88.1875 23.9038Z" fill="#D25046"/>
<path d="M93.4612 23.6327C93.484 23.7052 93.5027 23.7788 93.5173 23.8533C93.405 23.7885 93.3398 23.7509 93.2637 23.7407C93.1875 23.7305 93.0804 23.6735 92.9794 23.6394L92.9926 23.8256L92.8297 23.7315C92.7603 23.7207 92.6918 23.7053 92.6245 23.6855C92.5916 23.6745 92.5623 23.6549 92.5397 23.6286C92.517 23.6024 92.5019 23.5705 92.4959 23.5364C92.4899 23.5022 92.4932 23.4671 92.5055 23.4347C92.5178 23.4023 92.5387 23.3738 92.5658 23.3523C92.6844 23.2861 92.8094 23.2321 92.9389 23.1912C93.1082 23.1152 93.3251 23.2162 93.4742 23.0416C93.4909 23.0127 93.6478 23.0502 93.6845 23.0955C93.7211 23.1408 93.6765 23.2598 93.5779 23.2801C93.3877 23.3586 93.3919 23.4768 93.4612 23.6327Z" fill="#D25046"/>
<path d="M73.2495 31.4162C73.2314 31.4047 73.2169 31.3884 73.2074 31.3693C73.1979 31.3501 73.1939 31.3286 73.1958 31.3073C73.1976 31.286 73.2053 31.2656 73.2179 31.2483C73.2306 31.2311 73.2477 31.2176 73.2675 31.2094C73.5581 31.0739 73.8698 30.9894 74.189 30.9594C74.4084 30.9558 74.4642 31.1183 74.3561 31.2972C74.2917 31.3783 74.2118 31.4457 74.1211 31.4957C74.0304 31.5456 73.9306 31.577 73.8277 31.5881C73.7247 31.5991 73.6206 31.5896 73.5213 31.5601C73.4221 31.5306 73.3297 31.4817 73.2495 31.4162Z" fill="#D25046"/>
<path d="M84.3341 40.0363C84.4242 40.0642 84.5117 40.105 84.6856 40.1717C84.7028 40.2589 84.7112 40.3699 84.7366 40.4763C84.7569 40.5285 84.7588 40.5861 84.742 40.6396C84.7251 40.693 84.6906 40.7392 84.6441 40.7704C84.5033 40.8777 84.3515 40.9697 84.1912 41.0447C84.1458 41.0631 84.0972 41.0722 84.0482 41.0715C83.9992 41.0708 83.9509 41.0603 83.906 41.0407C83.8611 41.0211 83.8206 40.9927 83.7868 40.9572C83.7531 40.9218 83.7267 40.8799 83.7093 40.8341C83.6587 40.7401 83.6363 40.6335 83.6447 40.527C83.653 40.4206 83.6919 40.3188 83.7566 40.2339C83.8244 40.1498 83.9146 40.0867 84.0168 40.0517C84.119 40.0168 84.229 40.0114 84.3341 40.0363Z" fill="#D25046"/>
<path d="M82.1718 43.0455C82.2024 42.8814 82.2427 42.7193 82.2927 42.5601C82.3276 42.3886 82.4155 42.2323 82.5439 42.1133C82.6724 41.9943 82.8349 41.9187 83.0087 41.897C83.0571 41.892 83.1059 41.8974 83.1521 41.9127C83.1983 41.9281 83.2406 41.953 83.2764 41.986C83.3121 42.019 83.3405 42.0592 83.3595 42.104C83.3785 42.1487 83.3878 42.197 83.3867 42.2456C83.3811 42.4644 83.3443 42.7038 83.3304 42.9034C83.3017 43.0958 83.2137 43.2745 83.0787 43.4146C82.874 43.5997 82.6374 43.746 82.3804 43.8465C82.2522 43.9221 82.1386 44.0199 82.0447 44.1354C81.9926 44.2724 81.96 44.4161 81.9479 44.5622C81.9237 44.6125 81.8957 44.6609 81.8643 44.707C81.788 45.0733 81.7045 45.4353 81.6411 45.8043C81.6197 45.9545 81.541 46.0907 81.4217 46.1844C81.3269 46.2649 81.2286 46.3432 81.1302 46.4216C81.0852 46.4936 81.0165 46.5476 80.9359 46.5742C80.8552 46.6008 80.7678 46.5984 80.6888 46.5674C80.6334 46.5484 80.5738 46.5453 80.5168 46.5584C80.4597 46.5715 80.4074 46.6004 80.3659 46.6416C80.1937 46.7643 80.012 46.7028 79.9942 46.4995C79.9765 46.2961 80.0119 46.1428 80.1055 46.081C80.3431 45.9286 80.3521 45.6538 80.5204 45.471C80.4786 45.2006 80.7069 45.0477 80.798 44.8396C80.8689 44.664 80.9786 44.5067 81.1189 44.3796C81.2592 44.2524 81.4265 44.1587 81.6082 44.1054C81.7159 44.0752 81.8107 44.0105 81.878 43.9211C81.9453 43.8317 81.9814 43.7227 81.9806 43.6108C82.0226 43.4157 82.0868 43.226 82.1718 43.0455Z" fill="#D25046"/>
<path d="M84.4086 57.0565C84.2103 57.082 84.1194 57.0054 84.1239 56.8053C84.1264 56.7216 84.1402 56.6386 84.1649 56.5586C84.2112 56.4116 84.2684 56.2708 84.3162 56.1294C84.2748 56.0717 84.2555 56.001 84.2618 55.9302C84.2681 55.8595 84.2996 55.7933 84.3505 55.7438C84.4004 55.6635 84.4726 55.5995 84.5583 55.5596C84.64 55.5381 84.7265 55.5439 84.8046 55.576C84.8828 55.608 84.9484 55.6647 84.9915 55.7374C85.0419 55.786 85.0716 55.8521 85.0744 55.9221C85.0771 55.9921 85.0528 56.0604 85.0065 56.1128C84.9419 56.1867 84.9037 56.2799 84.8978 56.3779C84.8919 56.4758 84.9187 56.573 84.974 56.654C84.9799 56.6812 84.9802 56.7093 84.9747 56.7365C84.8271 56.9035 84.6278 57.0162 84.4086 57.0565Z" fill="#D25046"/>
<path d="M89.0348 48.1664C89.1031 48.1788 89.1703 48.1966 89.2358 48.2197C89.3842 48.3054 89.4833 48.5268 89.4092 48.6384C89.3391 48.7339 89.2381 48.8023 89.1233 48.8319C89.0086 48.8615 88.8871 48.8506 88.7795 48.801C88.5952 48.7188 88.5528 48.4577 88.5971 48.2806C88.6415 48.1035 88.8323 48.1074 89.0348 48.1664Z" fill="#D25046"/>
<path d="M62.6457 32.5978C62.5746 32.7209 62.4607 32.6841 62.36 32.708C62.1664 32.7507 61.9521 32.7622 61.8801 32.9957C61.7547 32.9537 61.6423 32.8803 61.5534 32.7825C61.4645 32.6847 61.4021 32.5658 61.3723 32.4371C61.1765 32.1406 61.2986 31.8539 61.3927 31.5655C61.4055 31.5391 61.4202 31.5137 61.4366 31.4895C61.5425 31.1291 61.5653 30.7495 61.5032 30.3791C61.4818 30.1848 61.4784 29.989 61.4933 29.7941C61.4906 29.4643 61.5661 29.3921 61.9372 29.3263C62.2345 29.1794 62.3766 29.4014 62.5615 29.5661C62.503 29.6675 62.4549 29.7507 62.4069 29.834C62.2208 30.1562 62.2208 30.1562 62.4107 30.4879L62.5555 30.5715L62.7437 30.5884C62.8347 30.5396 62.8854 30.5688 62.8885 30.6721L62.9191 30.7863L62.944 30.902C62.9401 30.9673 62.9383 31.029 62.9308 31.0923C62.92 31.115 62.9075 31.1368 62.8931 31.1574C62.9434 31.4788 62.9465 31.8059 62.9023 32.1282C62.9646 32.2461 62.8906 32.3241 62.8166 32.4021C62.7426 32.48 62.7014 32.5431 62.6457 32.5978Z" fill="#D25046"/>
<path d="M79.6798 51.2417L79.7083 51.3595L79.7389 51.4737L80.0049 51.8493C79.5923 51.7946 79.5654 51.7742 79.4381 51.4931C79.3309 51.3685 79.233 51.2362 79.1453 51.0972C79.1143 51.0279 79.0989 50.9526 79.1002 50.8766C79.1015 50.8007 79.1195 50.726 79.1529 50.6577C79.1863 50.5895 79.2343 50.5295 79.2935 50.4819C79.3526 50.4343 79.4216 50.4002 79.4953 50.3822C79.4312 50.7023 79.6079 50.9733 79.6798 51.2417Z" fill="#D25046"/>
<path d="M77.3387 48.1136C77.3959 48.1193 77.4488 48.1466 77.4866 48.1899C77.5244 48.2333 77.5442 48.2894 77.542 48.3468C77.5551 48.4205 77.5463 48.4963 77.5169 48.565C77.4875 48.6338 77.4387 48.6925 77.3765 48.7339C77.2033 48.8415 77.0558 48.8963 76.8973 48.7276C76.8885 48.6297 76.902 48.5311 76.9367 48.4391C76.9714 48.3471 77.0265 48.2642 77.0978 48.1965C77.1304 48.1674 77.1686 48.1451 77.2099 48.1309C77.2513 48.1166 77.2951 48.1108 77.3387 48.1136Z" fill="#D25046"/>
<path d="M67.2474 29.7371C67.186 29.695 67.1346 29.6397 67.0972 29.5752C67.0598 29.5108 67.0372 29.4388 67.0311 29.3646C67.0249 29.2903 67.0354 29.2156 67.0618 29.1459C67.0881 29.0762 67.1297 29.0133 67.1834 28.9616C67.2055 28.9448 67.2313 28.9336 67.2586 28.9289C67.286 28.9243 67.314 28.9263 67.3404 28.9349C67.3668 28.9435 67.3907 28.9584 67.4101 28.9782C67.4295 28.9981 67.4437 29.0223 67.4517 29.0489C67.4911 29.1955 67.516 29.3457 67.5259 29.4973C67.5274 29.5358 67.5208 29.5742 67.5068 29.6101C67.4927 29.646 67.4714 29.6786 67.4441 29.7059C67.3817 29.7471 67.2853 29.73 67.2474 29.7371Z" fill="#D25046"/>
<path d="M82.2084 51.7363C82.2499 51.7305 82.2923 51.7371 82.3301 51.7553C82.3679 51.7735 82.3996 51.8025 82.421 51.8386C82.4424 51.8747 82.4527 51.9163 82.4506 51.9582C82.4485 52.0001 82.4341 52.0405 82.4091 52.0742C82.3457 52.1777 82.2708 52.2737 82.1859 52.3605C82.1698 52.3796 82.1495 52.3946 82.1265 52.4043C82.1036 52.4141 82.0787 52.4183 82.0538 52.4166C82.0289 52.4149 82.0047 52.4074 81.9833 52.3947C81.9619 52.3819 81.9437 52.3643 81.9303 52.3433C81.8826 52.2942 81.8316 52.2486 81.7774 52.2067C81.8318 52.1126 81.8561 52.0204 81.8896 51.9288C81.9241 51.7604 82.0621 51.7387 82.2084 51.7363Z" fill="#D25046"/>
<path d="M75.756 51.1389C75.8022 51.2101 75.8257 51.2937 75.8233 51.3785C75.8209 51.4633 75.7927 51.5454 75.7425 51.6139C75.6471 51.7374 75.5284 51.7171 75.4021 51.6683L75.2607 51.6205C75.2606 51.525 75.2799 51.4304 75.3173 51.3425C75.3548 51.2546 75.4097 51.1752 75.4787 51.1092C75.495 51.0857 75.5172 51.0671 75.5432 51.0553C75.5691 51.0434 75.5978 51.0387 75.6262 51.0418C75.6546 51.0448 75.6816 51.0555 75.7044 51.0726C75.7273 51.0897 75.7451 51.1126 75.756 51.1389Z" fill="#D25046"/>
<path d="M86.6215 41.024C86.7039 41.0234 86.8401 41.0634 86.8647 41.1211C86.9001 41.2259 86.9182 41.3358 86.9183 41.4464C86.7887 41.6709 86.6257 41.7023 86.5065 41.5659C86.4623 41.5114 86.4256 41.4513 86.3974 41.387C86.3805 41.3486 86.3732 41.3067 86.3762 41.2648C86.3791 41.223 86.3921 41.1824 86.4142 41.1467C86.4362 41.111 86.4666 41.0812 86.5027 41.0598C86.5388 41.0385 86.5795 41.0262 86.6215 41.024Z" fill="#D25046"/>
<path d="M87.9042 67.3822C87.8752 67.4536 87.8365 67.5206 87.7892 67.5813C87.7602 67.6239 87.7209 67.6585 87.675 67.6818C87.629 67.7051 87.5779 67.7164 87.5264 67.7146C87.4749 67.7128 87.4246 67.698 87.3804 67.6716C87.3361 67.6452 87.2993 67.608 87.2733 67.5635C87.2446 67.5303 87.2257 67.4897 87.219 67.4463C87.2122 67.4029 87.2177 67.3585 87.235 67.3181C87.2523 67.2777 87.2806 67.243 87.3166 67.218C87.3527 67.1929 87.395 67.1785 87.4389 67.1763C87.5281 67.1605 87.6201 67.1716 87.7029 67.2083C87.7858 67.245 87.8559 67.3055 87.9042 67.3822Z" fill="#D25046"/>
<path d="M66.8197 19.5076C66.932 19.196 67.06 19.0913 67.3167 19.0898C67.3411 19.0848 67.3663 19.0857 67.3903 19.0925C67.4142 19.0993 67.4361 19.1118 67.4542 19.1288C67.4723 19.1459 67.486 19.1671 67.4942 19.1906C67.5024 19.2141 67.5047 19.2392 67.5011 19.2639C67.5007 19.3115 67.488 19.3582 67.4641 19.3994C67.4403 19.4406 67.4063 19.475 67.3652 19.4992C67.1721 19.658 67.002 19.5598 66.8197 19.5076Z" fill="#D25046"/>
<path d="M82.1631 49.2389C82.2066 49.0916 82.2955 48.9619 82.4172 48.8683C82.5389 48.7746 82.6871 48.7219 82.8406 48.7177C82.8752 48.7895 82.8799 48.8722 82.8536 48.9476C82.8274 49.0229 82.7722 49.0847 82.7004 49.1194C82.5205 49.2135 82.4008 49.4292 82.1631 49.2389Z" fill="#D25046"/>
<path d="M81.8929 49.8407C81.8689 49.7675 81.8656 49.6891 81.8833 49.6141C81.901 49.5392 81.9391 49.4706 81.9933 49.4159C82.0247 49.3616 82.194 49.4111 82.2982 49.423C82.2982 49.423 82.3417 49.4481 82.3996 49.4815C82.3278 49.636 82.2425 49.7838 82.1446 49.9232C82.0607 50.0099 81.9474 49.9638 81.8929 49.8407Z" fill="#D25046"/>
<path d="M85.1298 44.0341C85.2257 44.1522 85.1681 44.2686 85.094 44.3803C85.0846 44.3989 85.0715 44.4154 85.0554 44.4286C85.0393 44.4419 85.0206 44.4516 85.0006 44.4573C84.9805 44.463 84.9595 44.4644 84.9388 44.4615C84.9182 44.4586 84.8984 44.4515 84.8806 44.4405C84.8278 44.4205 84.7845 44.3814 84.7591 44.331C84.7337 44.2806 84.7281 44.2225 84.7434 44.1682C84.7831 44.0994 84.7938 44.0139 84.8143 43.9533C84.8673 43.9243 84.9294 43.9164 84.988 43.9314C85.0466 43.9464 85.0972 43.9831 85.1298 44.0341Z" fill="#D25046"/>
<path d="M83.496 53.9039C83.5251 53.864 83.5682 53.8365 83.6166 53.8269C83.6651 53.8173 83.7154 53.8263 83.7575 53.8522C83.8553 53.9086 83.8827 54.0451 83.7919 54.1857C83.7374 54.1881 83.6382 54.2177 83.5689 54.1873C83.522 54.159 83.4882 54.1135 83.4745 54.0605C83.4609 54.0075 83.4686 53.9513 83.496 53.9039Z" fill="#D25046"/>
<path d="M76.9346 21.1864C76.8333 21.1279 76.8121 20.9805 76.9034 20.8643C76.9285 20.8208 77.0058 20.8123 77.1139 20.7589C77.1352 20.885 77.1439 21.0129 77.1397 21.1407C77.1397 21.1407 76.9988 21.209 76.9346 21.1864Z" fill="#D25046"/>
<path d="M86.2984 69.4284C86.3563 69.4619 86.3694 69.5563 86.4244 69.6701C86.301 69.6664 86.2138 69.6837 86.1502 69.6517C86.0865 69.6198 86.1113 69.5183 86.1385 69.4712C86.1657 69.4242 86.2736 69.4044 86.2984 69.4284Z" fill="#D25046"/>
<path d="M86.4942 40.5164L86.4351 40.2844C86.2106 40.1548 86.3185 39.9177 86.3037 39.7258C86.2987 39.6843 86.4091 39.5936 86.475 39.5881C86.505 39.5813 86.5361 39.5811 86.5663 39.5875C86.5964 39.5938 86.6248 39.6067 86.6495 39.625C86.6742 39.6434 86.6947 39.667 86.7094 39.694C86.7242 39.721 86.7329 39.751 86.7349 39.7817C86.7675 39.8005 86.8291 39.836 86.8515 39.8056C87.0173 39.602 87.2272 39.6315 87.4443 39.6651C87.4621 39.6869 87.4776 39.7104 87.4907 39.7353C87.5379 39.8543 87.4768 40.0604 87.7207 40.0226C87.742 40.0533 87.7529 40.0901 87.7519 40.1275C87.7474 40.1465 87.738 40.164 87.7246 40.1783C87.7113 40.1926 87.6945 40.2032 87.6758 40.2091C87.433 40.2282 87.1779 40.2353 86.9418 40.268C87.0778 40.5927 87.0381 40.6615 86.7119 40.6662C86.5826 40.6978 86.5247 40.6643 86.4942 40.5164Z" fill="#D25046"/>
<path d="M76.4332 58.8961C76.6632 58.5919 76.8663 58.2682 77.04 57.9287C77.1005 57.7915 77.1925 57.6706 77.3085 57.5757C77.4245 57.4808 77.5613 57.4147 77.7077 57.3825C77.8802 57.318 77.9556 57.3712 77.9937 57.5477C77.9913 57.6101 77.98 57.6718 77.9603 57.7311L78.1504 57.6526C78.3466 57.5723 78.5051 57.4205 78.5936 57.2278C78.4608 57.1061 78.3736 56.9426 78.3465 56.7645C78.3194 56.5865 78.3539 56.4045 78.4444 56.2487C78.5409 56.1378 78.6643 56.0536 78.8027 56.0042C78.9412 55.9548 79.09 55.9418 79.2349 55.9666L79.6835 56.0759C79.8412 56.1101 79.9857 56.1892 80.0995 56.3038C80.2133 56.4183 80.2915 56.5633 80.3247 56.7213C80.4015 57.0117 80.4315 57.3126 80.4136 57.6125C80.4337 57.8187 80.4288 58.0266 80.3989 58.2316C80.275 58.5873 80.2476 58.9695 80.3194 59.3393C80.3456 59.4848 80.3141 59.6348 80.2316 59.7575C80.149 59.8802 80.0219 59.9658 79.8773 59.9964C79.6882 60.0834 79.5036 60.1798 79.3242 60.2853C79.2189 60.4176 79.0509 60.533 79.0254 60.6775C78.9848 60.8323 78.9137 60.9774 78.8164 61.1043C78.719 61.2313 78.5973 61.3376 78.4584 61.417C78.3913 61.4744 78.3282 61.5363 78.2694 61.6023C78.3216 61.7319 78.3829 61.8576 78.4529 61.9785C78.5049 62.0444 78.5416 62.121 78.5605 62.2027C78.5794 62.2845 78.58 62.3694 78.5622 62.4514C78.5444 62.5335 78.5086 62.6105 78.4575 62.6771C78.4064 62.7436 78.3412 62.798 78.2666 62.8364C78.0651 62.9289 77.8894 63.0695 77.755 63.2458C77.7248 63.3028 77.6738 63.346 77.6126 63.3664C77.5514 63.3868 77.4846 63.3828 77.4263 63.3553C77.167 63.2446 76.889 63.1841 76.6072 63.1769C76.5938 63.2753 76.6151 63.389 76.5645 63.4515C76.4255 63.6541 76.2575 63.8352 76.0659 63.989C75.8729 64.1142 75.8284 64.1077 75.6495 63.8741C75.4307 63.8685 75.448 63.7047 75.4455 63.5584C75.3266 63.3931 75.2722 63.19 75.2924 62.9874C75.2907 62.9236 75.3124 62.8106 75.2871 62.796C75.0988 62.6873 75.1105 62.4914 75.0412 62.3355C74.8138 61.818 75.0366 61.5074 75.6339 61.5095C75.6554 61.6542 75.6566 61.8011 75.6377 61.9462C75.6221 61.9829 75.6172 62.0233 75.6234 62.0628C75.6296 62.1022 75.6468 62.1391 75.673 62.1693C75.7472 62.231 75.8379 62.2697 75.9338 62.2804C76.0297 62.2912 76.1266 62.2736 76.2126 62.2298C76.4253 62.0812 76.5809 61.8647 76.654 61.6158C76.7 61.5132 76.7196 61.4007 76.7109 61.2886C76.7022 61.1766 76.6656 61.0684 76.6045 60.9741C76.5575 60.9132 76.5595 60.8178 76.5402 60.7343L76.4196 60.2157L76.3471 60.1739C76.2421 60.1133 76.1335 60.0506 76.2135 59.9037L76.1411 59.8618L76.1126 59.744L76.082 59.6298L76.055 59.5177L76.1407 59.3692C76.0989 59.3162 76.1135 59.2908 76.1825 59.2968L76.2243 59.2244C76.181 59.1656 76.1935 59.1439 76.2661 59.152L76.2974 59.0977C76.2497 58.9881 76.2972 58.9142 76.4332 58.8961ZM79.793 57.5921C79.974 57.5711 79.879 57.719 79.94 57.7639C79.9841 57.7459 80.0355 57.7321 80.0459 57.7477C80.0562 57.7633 79.9727 57.749 79.9333 57.7503C79.8939 57.7517 79.974 57.5711 79.793 57.5921ZM78.8749 57.4096C78.825 57.4668 78.7867 57.5332 78.762 57.6051C78.7867 57.5332 78.825 57.4668 78.8749 57.4096ZM77.6881 62.5507C77.6283 62.5789 77.5442 62.6076 77.5251 62.5821C77.5541 62.5988 77.6361 62.5738 77.6984 62.5663C77.7606 62.5588 77.749 62.721 77.8433 62.6162C77.749 62.721 77.746 62.5841 77.7057 62.5367L77.6881 62.5507ZM77.8965 58.3266C77.7697 58.3789 77.766 58.5023 77.8735 58.5837C78.0674 58.7246 78.1753 58.7048 78.4196 58.4741C78.326 58.4055 78.2252 58.3474 78.119 58.3006C78.046 58.2856 77.9701 58.2921 77.9006 58.3194L77.8965 58.3266Z" fill="#D25046"/>
<path d="M61.7198 33.0723C61.7198 33.0723 61.7073 33.094 61.7052 33.0976C61.7031 33.1013 61.6835 33.0851 61.6726 33.0788L61.7152 33.0552L61.7198 33.0723Z" fill="#D25046"/>
<path d="M97.9668 35.4052L98.0168 35.3918C98.0132 35.4006 98.0085 35.4089 98.0026 35.4165L97.9668 35.4052Z" fill="#D25046"/>
<path d="M98.6049 35.2921L98.5548 35.3055C98.5584 35.2966 98.5632 35.2883 98.569 35.2808L98.6049 35.2921Z" fill="#D25046"/>
<path d="M78.1264 57.6109L78.1383 57.6554C78.1383 57.6554 78.1383 57.6554 78.1171 57.6431C78.096 57.6309 78.1223 57.6179 78.1264 57.6109Z" fill="#D25046"/>
<path d="M90.5146 18.2347L90.5281 18.2848L90.5034 18.2705C90.5034 18.2705 90.5141 18.2438 90.5146 18.2347Z" fill="#D25046"/>
<path d="M76.8844 51.3508C76.9756 51.2425 77.1003 51.1678 77.2388 51.1384C77.3773 51.1091 77.5217 51.1268 77.6489 51.1888C77.7922 51.2416 77.9124 51.3429 77.9887 51.4751C78.065 51.6073 78.0924 51.7621 78.0663 51.9125C78.055 52.0936 78.0029 52.2698 77.9137 52.4278C77.7485 52.7138 77.5813 53.0034 77.4379 53.302C77.2945 53.6005 77.1163 53.9176 76.9449 54.2144C76.8911 54.3121 76.8086 54.3908 76.7085 54.44C76.5011 54.5511 76.3345 54.7255 76.2328 54.9377C76.2827 55.0437 76.218 55.1222 76.1555 55.1971C76.0583 55.2997 75.969 55.4096 75.8885 55.5257C75.667 55.9095 75.4454 56.2932 75.2217 56.6806C75.0524 56.9738 75.0088 56.9825 74.6109 56.9024C74.568 56.5252 74.5571 56.5189 74.773 56.2622C74.9144 56.1164 75.0134 55.9348 75.0596 55.737C75.1058 55.5392 75.0973 55.3326 75.0351 55.1392C75.0017 55.0461 74.99 54.9466 75.0008 54.8483C75.0115 54.7499 75.0445 54.6554 75.0972 54.5717C75.0474 54.4657 75.1084 54.3851 75.1746 54.3122C75.267 54.1984 75.3894 54.1126 75.528 54.0647C75.6666 54.0167 75.8158 54.0085 75.9588 54.041C76.2149 53.7061 76.4457 53.3566 76.7088 53.0596C76.8019 52.9586 76.8612 52.8312 76.8785 52.6949C76.8957 52.5586 76.87 52.4204 76.805 52.2994C76.7624 52.1976 76.6814 52.1121 76.6331 52.0119C76.4687 51.6611 76.5295 51.5224 76.9129 51.3432L76.8844 51.3508Z" fill="#D25046"/>
</svg>
