<svg width="105" height="81" viewBox="0 0 105 81" fill="none" xmlns="http://www.w3.org/2000/svg">
<path d="M22.836 65.4273C35.046 65.4273 43.758 56.5833 43.758 41.2713C43.758 25.9593 35.046 17.1153 22.836 17.1153C10.626 17.1153 1.914 25.9593 1.914 41.2713C1.914 56.5833 10.626 65.4273 22.836 65.4273ZM22.836 52.9533C19.8 52.9533 17.556 50.1813 17.556 41.2713C17.556 32.3613 19.8 29.5893 22.836 29.5893C25.872 29.5893 28.116 32.3613 28.116 41.2713C28.116 50.1813 25.872 52.9533 22.836 52.9533ZM68.3507 52.2933L74.9507 46.2873C81.6827 40.2153 82.8707 36.1233 82.8707 31.5693C82.8707 22.7913 75.1487 17.1153 64.1927 17.1153C54.2267 17.1153 47.5607 21.4713 44.1947 27.8073L55.9427 33.6813C57.3287 30.9093 59.9687 29.3913 62.7407 29.3913C65.7107 29.3913 67.2287 30.7773 67.2287 33.0213C67.2287 34.6053 66.7667 36.3873 63.5987 39.3573L46.9007 54.8013V64.3713H83.9267V52.2933H68.3507Z" fill="#D25046"/>
<path d="M78.0083 13.0244C78.0963 12.8461 78.1398 12.6491 78.135 12.4504C78.1174 12.2487 78.1768 12.0477 78.3012 11.888C78.4257 11.7283 78.606 11.6216 78.806 11.5894C78.9147 11.5665 79.0217 11.5367 79.1266 11.5C79.367 11.4106 79.6316 11.4106 79.8721 11.5C79.9339 11.5117 79.9892 11.5461 80.0271 11.5964C80.065 11.6467 80.0828 11.7093 80.0771 11.772C80.0771 12.0106 80.0771 12.2454 80.0771 12.4839C80.0841 12.5521 80.0691 12.6208 80.0342 12.6798C79.9993 12.7389 79.9464 12.7852 79.8832 12.8119C79.7198 12.9007 79.5618 12.9991 79.4098 13.1063C79.2384 13.2182 79.2496 13.3933 79.2384 13.5722C79.2272 13.7511 79.4098 13.7288 79.4658 13.8294C79.6134 13.838 79.7615 13.8255 79.9056 13.7921C80.1913 13.7039 80.4907 13.6685 80.789 13.6878C80.8592 13.6815 80.9299 13.6925 80.9948 13.7198C81.0598 13.7471 81.1171 13.7898 81.1618 13.8443C81.2066 13.9047 81.2607 13.9575 81.3221 14.0009C81.412 14.0577 81.4837 14.1393 81.5287 14.2357C81.5736 14.3322 81.5899 14.4396 81.5755 14.545C81.569 14.7303 81.5929 14.9154 81.6464 15.0929C81.6615 15.1629 81.6912 15.2289 81.7336 15.2865C81.7761 15.3442 81.8302 15.3922 81.8926 15.4274C81.9549 15.4626 82.024 15.4842 82.0953 15.4908C82.1665 15.4974 82.2384 15.4888 82.3061 15.4656C82.4362 15.4195 82.5783 15.4199 82.7082 15.4668C82.838 15.5137 82.9475 15.6042 83.0181 15.7228C83.0591 15.7824 83.1225 15.8309 83.1635 15.8942C83.3819 16.2415 83.7118 16.5043 84.0991 16.6397C84.2631 16.6695 84.4308 16.6844 84.5911 16.7254C84.7514 16.7664 84.9117 16.8223 85.072 16.8745C85.3124 16.7535 85.5197 16.5756 85.6758 16.3564C85.6747 16.2927 85.695 16.2305 85.7335 16.1797C85.7721 16.129 85.8266 16.0928 85.8883 16.0769C86.2413 15.9281 86.6302 15.8867 87.0066 15.9576C87.115 16.003 87.2357 16.0096 87.3485 15.9764C87.4612 15.9431 87.559 15.872 87.6254 15.775C87.6775 15.7265 87.726 15.6743 87.7745 15.6259C87.7745 15.5066 87.7484 15.3873 87.7409 15.2532C87.7335 15.119 87.6477 15.1115 87.562 15.1302C87.4578 15.1563 87.3557 15.19 87.2563 15.2308C87.0225 15.2818 86.7803 15.2805 86.5471 15.227C86.3138 15.1735 86.0952 15.0692 85.907 14.9215L85.6833 14.7649C85.5886 14.7179 85.4987 14.6617 85.4149 14.5972C85.3877 14.5679 85.3669 14.5331 85.3541 14.4952C85.3412 14.4573 85.3366 14.4171 85.3404 14.3773C85.3597 14.3423 85.387 14.3122 85.42 14.2896C85.453 14.2669 85.4908 14.2523 85.5305 14.2468C85.9032 14.2133 86.2387 14.1984 86.5891 14.176C86.7121 14.0158 86.8165 13.8369 87.0439 13.8033C87.2367 13.5867 87.3657 13.321 87.4166 13.0355C87.4317 12.9443 87.4763 12.8606 87.5437 12.7973C87.6111 12.734 87.6974 12.6946 87.7894 12.6852L87.8639 12.6106L87.9422 12.5361C87.9611 12.4706 87.9887 12.4079 88.0242 12.3497C88.1621 12.1559 88.1659 12.1597 88.0242 11.9398C87.849 11.7869 87.849 11.7869 88.0242 11.567L88.1025 11.3434C87.9683 10.9297 87.8378 10.516 87.6962 10.0725C87.8416 10.1816 87.981 10.2985 88.1137 10.4228C88.1721 10.4985 88.2209 10.5811 88.259 10.6688C88.3858 10.7732 88.3112 10.9185 88.3299 11.0415C88.3485 11.1645 88.3299 11.1906 88.3299 11.2651C88.3299 11.3397 88.3299 11.3621 88.3597 11.3658C88.4057 11.383 88.4557 11.3869 88.5038 11.377C88.5519 11.3672 88.5963 11.3439 88.6318 11.3099C88.7883 11.1384 88.9635 10.9744 89.1387 10.7955C89.3848 10.7694 89.3177 11.0415 89.4295 11.1235C89.3821 11.252 89.3248 11.3766 89.258 11.4962C89.176 11.6267 89.0828 11.8056 88.9598 11.8391C88.8368 11.8727 88.7511 12.0478 88.6094 12.1C88.6094 12.1 88.6094 12.1857 88.6094 12.2342C88.6094 12.2827 88.7436 12.3609 88.7473 12.4317C88.7629 12.5084 88.7941 12.5811 88.839 12.6452C88.8839 12.7094 88.9415 12.7636 89.0083 12.8044L89.176 12.9274C89.1497 13.0184 89.1051 13.1031 89.0448 13.1762C88.9846 13.2493 88.91 13.3092 88.8256 13.3523L88.52 13.7996H88.4454C88.4548 13.6959 88.4866 13.5954 88.5386 13.5051C88.4866 13.5954 88.4548 13.6959 88.4454 13.7996H88.52C88.506 13.8602 88.4886 13.9199 88.4678 13.9785C88.3739 14.1386 88.3213 14.3195 88.3148 14.5049C88.3083 14.6903 88.3481 14.8745 88.4305 15.0407C88.4305 15.0407 88.4305 15.0929 88.4305 15.1153C88.4642 15.4469 88.5152 15.7766 88.5833 16.103C88.6435 16.3049 88.6356 16.5209 88.561 16.7179C88.4323 17.0147 88.3773 17.3382 88.4007 17.6609C88.4063 17.6979 88.4063 17.7356 88.4007 17.7727C88.3971 17.8106 88.3853 17.8472 88.3661 17.88C88.3469 17.9128 88.3208 17.941 88.2896 17.9627C88.2583 17.9843 88.2227 17.9989 88.1852 18.0053C88.1478 18.0118 88.1094 18.01 88.0727 18.0001C87.8684 17.9444 87.6518 17.9549 87.4539 18.0299C87.35 18.2208 87.1917 18.3764 86.9991 18.4771C86.8452 18.6141 86.6807 18.7388 86.5071 18.8498C86.4334 18.9078 86.3473 18.9481 86.2555 18.9675C86.1637 18.9869 86.0687 18.9849 85.9778 18.9617C85.81 18.8908 85.6758 18.7641 85.4634 18.8014C85.3739 18.8014 85.2658 18.7157 85.1652 18.6635L84.9639 18.5442L84.6321 18.9766C84.5551 19.0567 84.5024 19.1569 84.48 19.2658C84.4575 19.3746 84.4664 19.4875 84.5054 19.5915C84.6472 19.9098 84.6592 20.2709 84.5389 20.5979C84.4868 20.7309 84.4763 20.8767 84.5089 21.0158C84.5416 21.1549 84.6157 21.2808 84.7216 21.3768C84.7477 21.4253 84.7701 21.4775 84.7961 21.5259C84.8942 21.5726 84.9889 21.6262 85.0794 21.6862C85.1809 21.7525 85.2725 21.8328 85.3516 21.9247C85.4373 22.0328 85.3888 22.1409 85.2546 22.2117L85.0161 22.3347C85.0944 22.5024 85.1614 22.6552 85.2323 22.8043L85.3068 22.8826V22.9571C85.3329 23.0056 85.3553 23.054 85.3814 23.1062C85.4075 23.1584 85.4298 23.1584 85.4559 23.1808L85.5305 23.259L85.605 23.3336L85.6796 23.4081C85.7019 23.4603 85.728 23.5087 85.7504 23.5609C85.8166 23.5983 85.8717 23.6524 85.9104 23.7178C85.949 23.7832 85.9696 23.8577 85.9703 23.9336C85.9703 24.0529 85.9703 24.1759 85.9703 24.3064C85.9703 24.3324 85.9703 24.3623 85.9703 24.3883C85.9703 24.3623 85.9703 24.3324 85.9703 24.3064C86.0235 24.3179 86.0738 24.3404 86.1179 24.3723C86.162 24.4042 86.199 24.4449 86.2267 24.4917C86.2543 24.5386 86.272 24.5907 86.2785 24.6448C86.2851 24.6988 86.2804 24.7536 86.2648 24.8058C86.2629 24.8405 86.2629 24.8754 86.2648 24.9101L86.4847 25.0667C86.5938 25.0555 86.7037 25.0555 86.8128 25.0667C86.9835 25.1105 87.163 25.1062 87.3315 25.0542C87.4999 25.0023 87.6507 24.9047 87.767 24.7722C87.7971 24.6537 87.8572 24.5449 87.9414 24.4561C88.0255 24.3674 88.1311 24.3017 88.2479 24.2654C88.4858 24.2152 88.7279 24.1877 88.971 24.1834L89.094 24.0827C89.094 24.1163 89.094 24.1498 89.1201 24.1834H89.3438C89.3698 23.8964 89.5562 24.1834 89.6308 24.1125C89.6341 24.0866 89.6341 24.0603 89.6308 24.0343C89.5817 23.8255 89.5591 23.6114 89.5637 23.3969C89.5633 23.2838 89.5902 23.1722 89.6421 23.0716C89.694 22.9711 89.7694 22.8845 89.8619 22.8192C89.9774 22.7484 90.0781 22.6552 90.1862 22.5732L90.3241 22.7111H90.3576C90.3636 22.728 90.3636 22.7464 90.3576 22.7633C90.1862 22.7633 90.3204 22.9609 90.1974 23.0056C90.1414 23.0279 90.1116 23.1062 90.0669 23.1621L90.6186 23.5907L90.2458 24.3101C90.1218 24.2984 89.997 24.2984 89.8731 24.3101C89.8358 24.3101 89.8097 24.3958 89.7761 24.4405H89.8507L90.1489 24.5151L90.3763 24.4443H90.4508C90.5038 24.3961 90.5664 24.3598 90.6346 24.3379C90.7028 24.3161 90.7749 24.3091 90.846 24.3175C91.1442 24.4331 91.4349 24.5635 91.7517 24.6902L92.0537 24.5188C92.1245 24.7462 92.1841 24.9437 92.2475 25.1412C92.2475 25.1636 92.2773 25.1897 92.2736 25.212C92.263 25.2972 92.243 25.381 92.214 25.4618C92.1767 25.5549 92.1021 25.5773 92.0015 25.5326C91.8909 25.4759 91.8009 25.386 91.7443 25.2754C91.6325 25.1189 91.5281 25.1151 91.3715 25.2419C91.3082 25.2978 91.2448 25.3611 91.1852 25.4208C91.1057 25.5893 90.9864 25.736 90.8378 25.8483C90.6891 25.9606 90.5154 26.0351 90.3316 26.0656C90.2456 26.0165 90.1622 25.963 90.0818 25.9053C89.7091 25.6332 89.7091 25.6332 89.381 25.9276C89.34 26.1513 89.1611 26.2556 89.0083 26.3749C88.9558 26.4456 88.9199 26.5272 88.9031 26.6136C88.8863 26.7 88.8891 26.7891 88.9114 26.8743C88.7358 26.9796 88.5541 27.0742 88.3671 27.1576C88.177 27.2321 87.9944 27.0458 87.7856 27.1241C87.7856 27.1241 87.6999 27.0607 87.6887 27.0197C87.6477 26.8706 87.6254 26.7178 87.5806 26.5054L87.0289 26.1587C86.932 26.2146 86.8538 26.2556 86.7829 26.3004C86.7077 26.3562 86.6184 26.3903 86.5251 26.3989C86.4317 26.4074 86.3378 26.3901 86.2536 26.3488C86.1251 26.3085 85.9926 26.2823 85.8585 26.2705C85.5901 26.524 85.5379 26.9191 85.2584 27.1539L85.4708 27.3887C85.7429 27.452 85.7914 27.6757 85.8436 27.8844C85.967 27.8628 86.0936 27.8675 86.215 27.8984C86.3364 27.9292 86.45 27.9854 86.5481 28.0633C86.8798 28.1714 86.9208 28.4733 86.9432 28.7454C86.9656 29.0174 86.7494 29.1181 86.5705 29.2485C86.2772 29.0357 86.0247 28.7718 85.825 28.4695C85.825 28.4695 85.825 28.4435 85.825 28.4323L85.6758 28.2795C85.5339 28.2012 85.3692 28.1749 85.2099 28.2049C85.0496 28.2049 84.8968 28.0447 84.7328 28.1714L84.8483 28.723V28.8087L85.0273 29.1181C85.0416 29.1381 85.0517 29.1608 85.0569 29.1849C85.0621 29.209 85.0622 29.2339 85.0573 29.258C85.0524 29.2822 85.0426 29.3051 85.0284 29.3252C85.0143 29.3454 84.9961 29.3624 84.9751 29.3752L84.8073 29.4871C84.8446 29.7293 84.8782 29.9455 84.908 30.1579C85.0377 30.531 85.0455 30.9356 84.9303 31.3133C84.9061 31.4589 84.9061 31.6075 84.9303 31.7531C84.9904 32.0005 84.9748 32.2602 84.8856 32.4986C84.8311 32.5893 84.8062 32.6946 84.8142 32.8001C84.8222 32.9056 84.8628 33.006 84.9303 33.0875C84.9713 33.1471 84.99 33.2216 85.0273 33.285C85.1043 33.4718 85.2338 33.6323 85.4 33.7472C85.4461 33.7627 85.4857 33.7931 85.5127 33.8335C85.5397 33.874 85.5525 33.9223 85.5491 33.9708L85.6199 34.049C85.6599 34.0787 85.6935 34.1161 85.7187 34.159C85.744 34.2019 85.7604 34.2494 85.767 34.2987C85.7736 34.3481 85.7703 34.3982 85.7572 34.4462C85.7441 34.4942 85.7215 34.5392 85.6908 34.5783C85.6199 34.6901 85.4708 34.8206 85.4895 34.9063C85.5081 34.992 85.6833 35.1001 85.7914 35.1933C85.7914 35.3647 85.6647 35.4132 85.5342 35.4616C85.3292 35.5436 85.1242 35.6256 84.9154 35.6964C84.7928 35.727 84.6683 35.7494 84.5427 35.7635C84.3969 35.8197 84.241 35.8448 84.085 35.8371C83.929 35.8294 83.7764 35.7891 83.6369 35.7188C83.5833 35.6862 83.5197 35.6743 83.458 35.6853C83.3897 35.7059 83.3305 35.7493 83.2902 35.8083C83.2455 35.8791 83.2902 35.9499 83.3685 35.9872C83.4463 36.0118 83.5166 36.0559 83.5727 36.1152C83.6288 36.1746 83.6688 36.2472 83.6891 36.3263C83.7475 36.5283 83.7702 36.739 83.7562 36.9488C83.7408 37.0169 83.7449 37.0879 83.768 37.1538C83.791 37.2197 83.8322 37.2778 83.8866 37.3215C83.9291 37.3666 83.9678 37.4152 84.0022 37.4668C84.1344 37.5571 84.2713 37.6404 84.4122 37.7165C84.717 37.8588 84.9801 38.077 85.1764 38.3501C85.113 38.4918 85.0384 38.6446 84.9788 38.8011C84.9214 38.9091 84.8907 39.0292 84.8893 39.1515C84.9077 39.2629 84.886 39.3773 84.828 39.4742C84.7699 39.5711 84.6794 39.6443 84.5725 39.6807C84.4793 39.741 84.3792 39.7898 84.2743 39.8261C84.1066 39.8596 84.0283 39.9864 83.9351 40.0944C83.7897 40.2659 83.7897 40.2994 83.9351 40.4672C84.0648 40.5836 84.1525 40.7394 84.1848 40.9107C84.209 40.9257 84.2293 40.9463 84.244 40.9708C84.2586 40.9952 84.2672 41.0228 84.269 41.0512C84.2709 41.0797 84.2659 41.1081 84.2545 41.1343C84.243 41.1604 84.2256 41.1834 84.2035 41.2014C84.1128 41.2819 83.9967 41.3281 83.8754 41.3318C83.7529 41.3228 83.6365 41.2744 83.5437 41.1939C83.352 41.0368 83.1259 40.927 82.8839 40.8734C82.7385 40.8361 82.5298 40.8324 82.4776 40.6535C82.3879 40.4396 82.2617 40.2429 82.1049 40.0721C82.0413 40.015 81.9671 39.9711 81.8865 39.943C81.8059 39.9148 81.7204 39.903 81.6352 39.9081C81.3153 39.8919 81.0012 39.9971 80.7555 40.2025C80.6324 40.2453 80.5167 40.3069 80.4126 40.3852C80.3119 40.4895 80.2485 40.6311 80.1106 40.6871C79.969 40.6088 80.051 40.5156 80.0659 40.4224C80.0752 40.3233 80.0752 40.2234 80.0659 40.1243C80.0659 40.0236 80.0659 39.923 80.0659 39.8224V39.7478L79.9951 39.6696C79.8944 39.595 79.7938 39.5205 79.6969 39.4422H79.4993C78.9924 39.4869 78.8209 39.1515 78.724 38.7937C78.6569 38.5291 78.6047 38.2607 78.5637 37.9923C78.5301 37.7948 78.5227 37.5973 78.5041 37.3997C78.4982 37.3437 78.5064 37.2871 78.5278 37.2351C78.5493 37.183 78.5834 37.1371 78.6271 37.1016C78.7687 36.9786 78.9029 36.8481 79.052 36.7289C79.3278 36.5201 79.3465 36.3561 79.1042 36.0841C79.0473 36.0341 78.9949 35.9792 78.9476 35.9201C78.8992 35.8418 78.8246 35.7449 78.8321 35.6629C78.8383 35.613 78.8343 35.5624 78.8205 35.5142C78.8066 35.4659 78.7832 35.4209 78.7515 35.3819C78.7198 35.3429 78.6805 35.3107 78.6361 35.2873C78.5917 35.2638 78.5429 35.2496 78.4929 35.2455C78.4282 35.2273 78.3683 35.1953 78.3175 35.1515C78.2666 35.1077 78.2259 35.0532 78.1984 34.992C78.1164 34.869 78.0679 34.7274 77.9934 34.5969C77.9003 34.4337 77.8539 34.248 77.8592 34.0602C77.859 33.8251 77.8365 33.5905 77.7921 33.3595C77.7008 32.9584 77.7008 32.5419 77.7921 32.1408C77.8292 31.9827 77.8292 31.8181 77.7921 31.66C77.7509 31.5302 77.7509 31.3909 77.7921 31.2612C77.8704 31.0674 77.9337 30.8661 77.9971 30.6648C78.0456 30.4474 78.1079 30.2333 78.1835 30.0238C78.3475 29.651 78.5562 29.2783 78.7314 28.9317C78.7016 28.6149 78.6718 28.2981 78.6345 27.9478C78.5428 27.9808 78.4543 28.022 78.3699 28.0707C78.1499 28.2496 77.9263 28.4435 77.7213 28.6224C77.6844 28.6706 77.6321 28.7048 77.573 28.719C77.514 28.7333 77.4518 28.7268 77.397 28.7006C77.3494 28.3509 77.4202 27.9953 77.5983 27.6906C77.7884 27.3477 78.1835 27.3179 78.4817 27.1986L78.6457 26.2295L78.1537 25.5288C78.0562 25.4004 78.005 25.2428 78.0083 25.0816C78.027 24.8845 78.027 24.6861 78.0083 24.489C77.9654 24.2699 77.9654 24.0446 78.0083 23.8256C78.1065 23.568 78.1373 23.2896 78.0977 23.0168C78.0221 22.7741 78.0221 22.5141 78.0977 22.2713C78.2126 21.939 78.2294 21.5806 78.1462 21.2389C78.1268 21.1054 78.137 20.9693 78.176 20.8401C78.2028 20.7138 78.2377 20.5893 78.2804 20.4674C78.3219 20.2319 78.2797 19.9893 78.1611 19.7816C77.9799 19.5399 77.8925 19.2406 77.9151 18.9393C77.9343 18.7666 77.9191 18.5918 77.8704 18.425C77.7754 18.1676 77.7754 17.8847 77.8704 17.6273C77.9107 17.5053 77.943 17.3808 77.9673 17.2546C77.984 17.1722 77.984 17.0873 77.9673 17.0049C77.9007 16.7109 77.9417 16.4028 78.0828 16.1365C78.1286 16.0558 78.1526 15.9646 78.1526 15.8719C78.1526 15.7791 78.1286 15.6879 78.0828 15.6072C77.9307 15.2549 77.8942 14.8635 77.9785 14.4891C78.0347 14.2422 78.0231 13.9846 77.9449 13.7437C77.9062 13.6257 77.8919 13.5012 77.9028 13.3775C77.9137 13.2539 77.9496 13.1337 78.0083 13.0244ZM81.5271 28.436C81.5271 28.4807 81.5867 28.5217 81.6128 28.5515C81.7545 28.5515 81.8849 28.4099 81.8775 28.3018C81.8692 28.2754 81.8542 28.2515 81.834 28.2325C81.8137 28.2136 81.7889 28.2002 81.7619 28.1937C81.7287 28.1851 81.6938 28.1854 81.6608 28.1947C81.6277 28.2039 81.5977 28.2218 81.5739 28.2464C81.55 28.271 81.5331 28.3016 81.5248 28.3349C81.5166 28.3682 81.5174 28.4031 81.5271 28.436ZM83.4841 26.5501C83.4611 26.5234 83.4362 26.4985 83.4095 26.4755C83.4362 26.4985 83.4611 26.5234 83.4841 26.5501ZM79.9615 21.4737C80.0675 21.4585 80.1753 21.4838 80.2635 21.5446C80.1753 21.4838 80.0675 21.4585 79.9615 21.4737C79.8113 21.4623 79.6617 21.5016 79.5366 21.5856C79.6635 21.5069 79.813 21.4728 79.9615 21.4886V21.4737ZM84.2109 27.9664C84.2109 27.8173 84.2109 27.6719 84.2109 27.5266C84.2109 27.6719 84.2109 27.8173 84.2109 27.9664C84.2109 28.0931 84.1513 28.1826 84.0171 28.1788C84.1513 28.1788 84.2147 28.0931 84.2221 27.9627C84.3769 27.7841 84.4594 27.5541 84.4532 27.3179C84.4585 27.439 84.4398 27.5599 84.3982 27.6737C84.3567 27.7876 84.293 27.8921 84.2109 27.9813V27.9664ZM82.0191 38.6819C81.9073 38.6334 81.7955 38.585 81.6874 38.5291C81.7955 38.585 81.9073 38.6334 82.0191 38.6819L82.0937 38.7564L82.0191 38.6819ZM81.2475 16.6508C81.2475 16.6956 81.1991 16.7328 81.1767 16.7738C81.1837 16.8437 81.1735 16.9143 81.1468 16.9793C81.1202 17.0443 81.0779 17.1017 81.0239 17.1465C81.0239 17.2882 81.0798 17.3814 81.2587 17.3292C81.7768 17.1801 81.952 17.1279 81.9297 16.4533C81.9297 16.4049 81.9297 16.3564 81.9073 16.2893C81.8327 16.2893 81.7619 16.2558 81.6948 16.252C81.3034 16.2409 81.3072 16.2446 81.2475 16.6508ZM90.9168 25.6407L90.8087 25.663L90.9168 25.6407ZM90.544 25.8904H90.4434H90.544Z" fill="#D25046"/>
<path d="M102.058 45.5472C102.216 45.2764 102.301 44.9695 102.304 44.6564C102.304 44.634 102.345 44.6005 102.368 44.5744C102.368 44.4663 102.368 44.3545 102.513 44.347C102.677 44.183 102.845 44.0191 103.005 43.8476C103.166 43.6762 103.311 43.4749 103.464 43.3109C103.617 43.1469 103.892 43.1506 104.12 43.1879C104.224 43.1879 104.284 43.3556 104.239 43.4637C104.208 43.5311 104.162 43.5909 104.105 43.6389C103.885 43.8402 103.658 44.0302 103.438 44.2315C103.359 44.2895 103.301 44.3708 103.271 44.4639C103.242 44.557 103.243 44.657 103.274 44.7496C103.319 44.9005 103.336 45.0583 103.326 45.2155C103.27 45.4913 103.123 45.7405 102.909 45.9229C102.695 46.1054 102.425 46.2107 102.144 46.2218C102.088 46.2249 102.032 46.2118 101.983 46.184C101.934 46.1563 101.894 46.115 101.868 46.0652C101.841 46.0153 101.83 45.959 101.835 45.9029C101.839 45.8467 101.86 45.7931 101.894 45.7484C101.943 45.6765 101.998 45.6092 102.058 45.5472Z" fill="#D25046"/>
<path d="M82.4254 6.93051C82.6252 7.16041 82.7374 7.45343 82.7423 7.75793C82.7226 7.87834 82.6571 7.9865 82.5596 8.05983C82.4664 8.13437 82.3807 8.03001 82.3024 7.97038C82.2011 7.87762 82.0818 7.80659 81.952 7.76166C81.6442 7.66408 81.3617 7.49993 81.1245 7.28086C80.912 7.1355 80.8971 7.03486 80.968 6.77024C80.982 6.68374 81.0231 6.60393 81.0854 6.5423C81.1477 6.48068 81.228 6.44042 81.3146 6.42734C81.3853 6.41017 81.455 6.38902 81.5234 6.36398L82.2689 6.08445C82.2962 6.10068 82.3192 6.12315 82.3362 6.15001C82.3531 6.17687 82.3635 6.20736 82.3664 6.23898C82.3693 6.27061 82.3647 6.30247 82.3529 6.33197C82.3411 6.36147 82.3226 6.38776 82.2987 6.4087C82.2393 6.47943 82.1995 6.56446 82.1831 6.65534C82.1668 6.74622 82.1745 6.8398 82.2055 6.92678C82.2875 6.92678 82.3956 6.89696 82.4254 6.93051Z" fill="#D25046"/>
<path d="M79.2197 8.26478C79.2712 8.1678 79.3379 8.07971 79.4173 8.00388C79.4788 7.93434 79.52 7.84925 79.5364 7.75789C79.5529 7.66653 79.5439 7.57242 79.5105 7.48581L79.4658 7.31064C79.4281 7.22236 79.3969 7.13141 79.3726 7.03856C79.3599 7.0043 79.3552 6.96763 79.3587 6.93129C79.3623 6.89494 79.374 6.85987 79.393 6.82869C79.412 6.79751 79.4378 6.77102 79.4685 6.75121C79.4991 6.7314 79.5339 6.71879 79.5701 6.7143C79.6506 6.69873 79.7338 6.70783 79.809 6.74043C79.8842 6.77302 79.9477 6.82757 79.9913 6.89693C80.0506 6.97771 80.1327 7.03895 80.227 7.07281C80.3213 7.10668 80.4235 7.11162 80.5207 7.08701C80.59 7.07836 80.6601 7.07836 80.7294 7.08701L80.2672 7.69454C80.3761 7.84775 80.5011 7.98893 80.6399 8.1157C80.8561 8.27596 81.1096 8.38405 81.3407 8.52941C81.3983 8.55966 81.4482 8.60274 81.4866 8.65532C81.5249 8.7079 81.5506 8.76858 81.5618 8.83268C81.573 8.89679 81.5692 8.9626 81.551 9.02504C81.5327 9.08748 81.5003 9.14489 81.4563 9.19283C81.3507 9.33107 81.2084 9.43687 81.0456 9.49815C80.8828 9.55944 80.7061 9.57375 80.5356 9.53946C80.4344 9.51421 80.3368 9.47666 80.2448 9.42764C80.0068 9.29021 79.7319 9.23029 79.4583 9.25619C79.3316 9.25619 79.2086 9.25619 79.0855 9.25619L78.8433 9.34192C78.4183 9.47237 78.2208 9.3941 77.9673 8.96921L78.2655 8.71204C78.4166 8.56529 78.6178 8.48136 78.8283 8.47723C78.9961 8.48095 79.1266 8.45114 79.2197 8.26478Z" fill="#D25046"/>
<path d="M73.9602 26.7737C73.9668 26.6624 73.958 26.5508 73.9341 26.442C73.8983 26.3203 73.8983 26.1909 73.9341 26.0693C73.9377 26.0252 73.9533 25.9829 73.9791 25.9471C74.005 25.9112 74.0402 25.8832 74.0809 25.8659C74.1216 25.8486 74.1663 25.8428 74.2101 25.8491C74.2538 25.8554 74.295 25.8735 74.3292 25.9015C74.3964 25.9564 74.4511 26.025 74.4895 26.1028C74.5646 26.2848 74.695 26.4387 74.8623 26.5426C74.9051 26.5637 74.9419 26.5952 74.9693 26.6343C74.9966 26.6734 75.0137 26.7188 75.0188 26.7662C74.9106 26.9324 74.8111 27.1041 74.7206 27.2806C74.6594 27.4292 74.5564 27.5569 74.4241 27.6482C74.2918 27.7395 74.1358 27.7904 73.9751 27.7949C73.8633 27.7949 73.7515 27.7949 73.6396 27.7949C73.5949 27.8173 73.5539 27.8583 73.5092 27.8583C73.2371 27.8583 72.9612 27.8583 72.6854 27.8583C72.4095 27.8583 72.2791 27.7129 72.3126 27.5825C72.3462 27.452 72.6034 27.37 72.7674 27.4371C72.9819 27.5061 73.2127 27.5061 73.4272 27.4371C73.4764 27.4035 73.5289 27.3748 73.5837 27.3514C73.7069 27.3188 73.8136 27.2417 73.8831 27.135C73.9527 27.0282 73.9801 26.8995 73.9602 26.7737Z" fill="#D25046"/>
<path d="M75.399 9.09223C75.3004 9.21318 75.1766 9.31118 75.0363 9.37941C74.896 9.44765 74.7424 9.48446 74.5864 9.4873C74.2479 9.48071 73.9212 9.36135 73.6582 9.14813C73.5626 9.07715 73.494 8.97579 73.4635 8.86068C73.433 8.74556 73.4425 8.62352 73.4905 8.51452C73.5744 8.30179 73.7197 8.11884 73.908 7.989C74.0194 7.92341 74.1367 7.8685 74.2584 7.825C74.4298 7.907 74.5976 7.989 74.7653 8.06354C75.0295 8.22078 75.2479 8.44435 75.399 8.71206C75.4462 8.76415 75.4723 8.83189 75.4723 8.90214C75.4723 8.97239 75.4462 9.04014 75.399 9.09223Z" fill="#D25046"/>
<path d="M84.0842 8.74183C84.2471 8.67458 84.4262 8.65675 84.5992 8.69055C84.7722 8.72435 84.9314 8.80829 85.0571 8.93191C85.1726 9.04373 85.1838 9.18163 85.0571 9.27108C84.9382 9.34345 84.8135 9.40578 84.6843 9.45744C84.6161 9.5355 84.5318 9.59789 84.4372 9.64035C84.3427 9.68281 84.24 9.70432 84.1364 9.70343C83.9612 9.72952 83.7636 9.70343 83.7077 9.95687C83.6742 10.0724 83.5288 10.1544 83.443 10.255C83.4123 10.2958 83.3689 10.3252 83.3197 10.3386C83.2705 10.3521 83.2182 10.3489 83.1709 10.3296C83.0702 10.2834 82.973 10.2299 82.8802 10.1693C83.0032 9.81897 82.9398 9.4239 83.2529 9.18536C83.1635 9.07355 83.0032 9.01391 83.0517 8.84246C83.3972 8.92813 83.7617 8.89261 84.0842 8.74183Z" fill="#D25046"/>
<path d="M95.0842 38.9651C95.17 38.7816 95.2671 38.6036 95.3749 38.4321C95.483 38.2607 95.5389 38.257 95.7067 38.3501C95.8744 38.4433 96.154 38.6036 96.4 38.7228C96.3253 38.8663 96.2354 39.0013 96.1316 39.1254C96.0527 39.2203 95.9543 39.2971 95.843 39.3505C95.7317 39.4039 95.6102 39.4326 95.4867 39.4347C95.426 39.4418 95.3645 39.4339 95.3076 39.4117C95.2507 39.3894 95.2002 39.3535 95.1604 39.3071C95.1206 39.2607 95.0929 39.2053 95.0796 39.1456C95.0663 39.086 95.0679 39.024 95.0842 38.9651Z" fill="#D25046"/>
<path d="M89.3289 34.9249C89.485 34.9257 89.6386 34.964 89.7768 35.0367C89.915 35.1093 90.0337 35.2142 90.1228 35.3423C90.1549 35.3846 90.1752 35.4347 90.1814 35.4874C90.1877 35.5401 90.1798 35.5935 90.1585 35.6421C90.1372 35.6908 90.1034 35.7328 90.0604 35.764C90.0174 35.7952 89.9669 35.8143 89.9141 35.8194C89.8292 35.8361 89.7418 35.8361 89.6569 35.8194C89.3848 35.7486 89.1089 35.6703 88.8406 35.5846C88.7287 35.551 88.6355 35.4877 88.6244 35.3796C88.7374 35.3008 88.8423 35.2109 88.9375 35.1112C88.9838 35.0519 89.0432 35.0042 89.1112 34.9719C89.1791 34.9395 89.2536 34.9234 89.3289 34.9249Z" fill="#D25046"/>
<path d="M102.029 19.3716C102.147 19.3653 102.265 19.3933 102.368 19.4521C102.471 19.5109 102.555 19.5981 102.61 19.7034C102.703 19.8338 102.8 19.9643 102.882 20.1022C102.903 20.1513 102.938 20.1927 102.984 20.2202C103.029 20.2477 103.083 20.2599 103.136 20.255C103.195 20.2566 103.253 20.2723 103.305 20.3009C103.357 20.3294 103.402 20.37 103.435 20.4192C103.468 20.4685 103.489 20.5249 103.496 20.5838C103.503 20.6428 103.496 20.7025 103.475 20.7581C103.447 20.874 103.396 20.9828 103.324 21.0777C103.252 21.1727 103.161 21.2517 103.057 21.3098C102.946 21.2493 102.84 21.1795 102.741 21.101C102.517 20.8923 102.301 20.6724 102.081 20.46L102.029 20.4041C102.027 20.393 102.027 20.3816 102.029 20.3705C101.95 20.1357 101.865 19.9009 101.805 19.6624C101.742 19.4909 101.835 19.3903 102.029 19.3716Z" fill="#D25046"/>
<path d="M89.9961 21.8427C89.9239 21.9163 89.8466 21.9848 89.765 22.0477C89.6908 21.9598 89.6395 21.855 89.6154 21.7426C89.5914 21.6301 89.5954 21.5135 89.627 21.4029C89.627 21.2948 89.6755 21.1868 89.683 21.0749C89.7157 20.85 89.8115 20.6388 89.9593 20.466C90.107 20.2932 90.3007 20.1658 90.5179 20.0984C90.5768 20.0803 90.6395 20.0789 90.6991 20.0944C90.7586 20.1099 90.8127 20.1417 90.8553 20.1862C90.8978 20.2307 90.9272 20.2861 90.94 20.3463C90.9528 20.4065 90.9487 20.4691 90.928 20.5271C90.8572 20.7094 90.7619 20.8812 90.6447 21.0377C90.4397 21.3135 90.216 21.5781 89.9961 21.8427Z" fill="#D25046"/>
<path d="M93.2913 20.5047C93.3255 20.4394 93.3816 20.3883 93.4498 20.3604C93.518 20.3324 93.5938 20.3294 93.664 20.3519C93.7369 20.3674 93.803 20.4058 93.8526 20.4614C93.9022 20.517 93.9328 20.587 93.9399 20.6612C93.9635 20.7842 93.9772 20.9088 93.9809 21.034C93.9713 21.1183 93.979 21.2038 94.0033 21.2851C94.0277 21.3664 94.0682 21.442 94.1225 21.5073L94.2567 21.716C94.2045 21.8092 94.1635 21.8837 94.1113 21.9844L93.9771 21.9396C93.7758 21.8614 93.6379 21.7496 93.6938 21.4961C93.6938 21.4402 93.6416 21.3694 93.6379 21.3023C93.6193 20.9818 93.2913 20.8327 93.2913 20.5047Z" fill="#D25046"/>
<path d="M95.0916 20.2848C95.1573 20.2552 95.2198 20.219 95.278 20.1767C95.3771 20.1521 95.4816 20.1624 95.5739 20.2058C95.6663 20.2493 95.7408 20.3232 95.785 20.4152C95.7882 20.4491 95.7804 20.4831 95.7626 20.5122C95.735 20.5797 95.7014 20.6446 95.6619 20.706C95.597 20.8058 95.5116 20.8907 95.4114 20.955C95.3111 21.0192 95.1983 21.0614 95.0805 21.0787C95.0027 21.0739 94.9296 21.0396 94.8763 20.9828C94.8229 20.926 94.7933 20.851 94.7934 20.7731C94.8083 20.5718 94.8419 20.3631 95.0916 20.2848Z" fill="#D25046"/>
<path d="M94.0815 18.0001C94.1576 18.081 94.2251 18.1697 94.2828 18.2647C94.4356 18.4697 94.4356 18.5032 94.2828 18.7231C94.2418 18.7828 94.1933 18.835 94.1486 18.8909C93.9021 18.8255 93.6844 18.6799 93.5298 18.4772C93.4031 18.3094 93.4515 18.1231 93.6267 17.9516C93.8019 17.7802 93.9137 17.8696 94.0815 18.0001Z" fill="#D25046"/>
<path d="M92.993 28.2086C92.9241 28.2804 92.8333 28.3274 92.7348 28.3422C92.6364 28.3571 92.5358 28.3389 92.4488 28.2906C92.3295 28.2347 92.1841 28.2384 92.076 28.1937C91.7555 28.0782 91.543 28.0483 91.7294 27.5601V27.5266C91.8188 27.3886 91.912 27.2507 92.1021 27.2321C92.2922 27.2135 92.3742 27.2321 92.5084 27.2023C92.5816 27.1782 92.6613 27.1833 92.7308 27.2167C92.8003 27.25 92.8542 27.309 92.8812 27.3812C92.911 27.4614 92.9616 27.5323 93.0277 27.5866C93.0938 27.641 93.1732 27.6768 93.2577 27.6905C93.4444 27.6851 93.6303 27.6626 93.8131 27.6235C93.8839 27.8769 94.2865 27.8545 94.3349 28.2459L94.1895 28.3838C94.1187 28.3316 94.074 28.313 94.0628 28.2869C94.012 28.19 93.9334 28.1106 93.8371 28.0588C93.7408 28.007 93.6311 27.9852 93.5223 27.9962C93.2912 27.9626 93.157 28.108 92.993 28.2086ZM92.1729 27.3775L92.0537 27.411L92.1916 27.3812C92.0686 27.5005 91.9493 27.6011 91.8188 27.7278L92.2214 27.3886C92.319 27.3429 92.4273 27.3249 92.5345 27.3365C92.4126 27.3138 92.2867 27.3281 92.1729 27.3775Z" fill="#D25046"/>
<path d="M87.9198 20.8103C87.8184 20.7402 87.7403 20.6413 87.6957 20.5263C87.6512 20.4113 87.6423 20.2856 87.6701 20.1655C87.6701 20.0052 87.6701 19.8971 87.6701 19.7927C87.6701 19.6884 87.6999 19.5878 87.8155 19.5617C87.931 19.5356 88.0168 19.6288 88.0615 19.7368C88.0853 19.8065 88.1052 19.8774 88.1211 19.9493C88.1349 20.0785 88.1702 20.2044 88.2255 20.322C88.2577 20.3781 88.2768 20.4408 88.2813 20.5054C88.2858 20.5699 88.2757 20.6346 88.2516 20.6947C88.2143 20.8997 88.0727 20.9258 87.9198 20.8103Z" fill="#D25046"/>
<path d="M76.2452 28.1937C76.0923 28.2794 75.9842 28.2869 75.8724 28.1937C75.7287 28.054 75.6355 27.8704 75.6078 27.6719C75.5995 27.6246 75.6046 27.5759 75.6226 27.5314C75.6406 27.4868 75.6707 27.4482 75.7095 27.4199C75.7483 27.3916 75.7942 27.3747 75.8421 27.3711C75.89 27.3676 75.938 27.3775 75.9805 27.3998C76.1818 27.5153 76.3533 27.6607 76.5396 27.7725C76.5337 27.8629 76.5032 27.95 76.4512 28.0242C76.3993 28.0985 76.3281 28.1571 76.2452 28.1937Z" fill="#D25046"/>
<path d="M95.0283 43.5868C95.0283 43.4153 95.0282 43.3073 95.1774 43.2737C95.2451 43.2513 95.3183 43.2513 95.3861 43.2737C95.4339 43.305 95.4674 43.3539 95.4793 43.4097C95.4912 43.4656 95.4804 43.5239 95.4495 43.5719C95.4123 43.6442 95.3999 43.7267 95.414 43.8068C95.4282 43.8869 95.4681 43.9601 95.5277 44.0154C95.6144 44.1274 95.6813 44.2535 95.7253 44.3881C95.7495 44.4556 95.7495 44.5294 95.7253 44.5968C95.7108 44.6661 95.677 44.7297 95.6277 44.7804C95.5784 44.8311 95.5157 44.8668 95.4469 44.8832C95.3782 44.8996 95.3061 44.8961 95.2392 44.8731C95.1724 44.8501 95.1134 44.8086 95.0693 44.7534C94.9537 44.6565 94.8419 44.5298 94.9127 44.3807C94.9927 44.2666 95.0448 44.1353 95.0649 43.9975C95.085 43.8596 95.0724 43.7189 95.0283 43.5868Z" fill="#D25046"/>
<path d="M90.9615 32.5843C91.0845 32.5843 91.1516 32.6737 91.174 32.8005C91.174 32.8303 91.215 32.8601 91.2336 32.8899C91.4126 33.1434 91.4126 33.2626 91.2336 33.4751C91.1643 33.5455 91.0896 33.6103 91.01 33.6689C90.9697 33.799 90.8934 33.915 90.7898 34.0034C90.6862 34.0918 90.5596 34.149 90.4248 34.1683C90.3719 34.1828 90.316 34.1818 90.2636 34.1654C90.2113 34.1491 90.1647 34.1182 90.1294 34.0762C90.0942 34.0343 90.0716 33.9831 90.0645 33.9287C90.0574 33.8744 90.066 33.8191 90.0893 33.7695C90.1787 33.5422 90.298 33.326 90.4098 33.1061C90.4731 32.9856 90.5427 32.8687 90.6186 32.7557C90.6585 32.7025 90.7103 32.6593 90.7698 32.6295C90.8293 32.5998 90.895 32.5843 90.9615 32.5843Z" fill="#D25046"/>
<path d="M73.0283 30.8922C73.1215 30.8922 73.2333 31.086 73.2333 31.2202C73.2263 31.2908 73.202 31.3587 73.1625 31.4177C73.0805 31.5407 72.9724 31.6488 72.8978 31.7904C72.8669 31.8438 72.8213 31.8872 72.7665 31.9156C72.7117 31.944 72.6499 31.9562 72.5885 31.9507C72.5003 31.8118 72.4605 31.6477 72.4753 31.4839C72.4902 31.3201 72.5588 31.1657 72.6705 31.045C72.7118 30.9908 72.7666 30.9483 72.8293 30.9215C72.892 30.8947 72.9605 30.8846 73.0283 30.8922Z" fill="#D25046"/>
<path d="M92.4898 17.9069C92.6024 18.0027 92.7071 18.1074 92.8029 18.22C92.8594 18.2788 92.8997 18.3513 92.92 18.4303C92.9402 18.5093 92.9397 18.5922 92.9185 18.671C92.8365 18.9393 92.7358 19.2039 92.624 19.5208C92.2886 19.2463 92.0582 18.8645 91.9717 18.4399C91.9509 18.348 91.9562 18.2522 91.9872 18.1632C92.0182 18.0743 92.0735 17.9958 92.1469 17.9367C92.1888 17.8879 92.2482 17.8574 92.3123 17.8519C92.3764 17.8463 92.4401 17.866 92.4898 17.9069Z" fill="#D25046"/>
<path d="M92.6165 21.7719C92.3295 21.962 91.994 22.0216 91.7741 22.2713C91.7741 22.2899 91.7294 22.2937 91.707 22.3049C91.584 22.3682 91.5243 22.3048 91.4759 22.1968C91.4274 22.0887 91.3156 22.0738 91.4088 21.9508C91.4429 21.8865 91.4668 21.8174 91.4796 21.7458C91.4796 21.6638 91.5206 21.6004 91.6138 21.6004C91.769 21.584 91.9194 21.537 92.0563 21.4622C92.1932 21.3873 92.3139 21.2861 92.4115 21.1644C92.486 21.3805 92.5457 21.5706 92.6165 21.7719Z" fill="#D25046"/>
<path d="M88.0242 37.463C88.0242 37.5077 87.9944 37.5786 87.9683 37.586C87.9393 37.5916 87.9094 37.5912 87.8806 37.5848C87.8517 37.5783 87.8245 37.5661 87.8006 37.5487C87.7464 37.4886 87.7057 37.4176 87.6813 37.3405C87.6568 37.2633 87.6492 37.1818 87.6589 37.1015C87.6589 36.8816 87.6589 36.658 87.6589 36.4381C87.6589 36.2927 87.6589 36.1473 87.6589 35.9573C88.0317 36.1213 88.0838 36.1846 88.0018 36.4753C88.0018 36.5126 87.972 36.5424 87.9646 36.5797C87.9012 36.8294 87.8006 37.0791 87.9869 37.3251C88.0138 37.3659 88.0269 37.4142 88.0242 37.463Z" fill="#D25046"/>
<path d="M83.7487 14.2244C83.7723 14.2042 83.8008 14.1905 83.8314 14.185C83.862 14.1794 83.8935 14.182 83.9227 14.1927C83.952 14.2033 83.9778 14.2215 83.9977 14.2454C84.0175 14.2693 84.0307 14.2981 84.0357 14.3288C84.0555 14.4243 84.0437 14.5237 84.0022 14.612C83.9029 14.756 83.7688 14.8725 83.6124 14.9507C83.456 15.0289 83.2823 15.0663 83.1076 15.0593C83.216 14.714 83.4431 14.4183 83.7487 14.2244Z" fill="#D25046"/>
<path d="M87.6999 11.664C87.7498 11.7098 87.7971 11.7583 87.8416 11.8093C87.726 11.8093 87.6589 11.8093 87.5956 11.8354C87.5322 11.8615 87.4241 11.8652 87.3309 11.8839L87.4241 12.0218H87.2563C87.198 12.0443 87.1382 12.063 87.0774 12.0777C87.0472 12.0839 87.0158 12.0818 86.9866 12.0716C86.9574 12.0614 86.9315 12.0436 86.9116 12.0199C86.8918 11.9962 86.8787 11.9676 86.8738 11.9371C86.8688 11.9066 86.8722 11.8753 86.8836 11.8466C86.9456 11.7426 87.018 11.6452 87.0998 11.5559C87.1967 11.4217 87.4092 11.4031 87.4465 11.2018C87.4465 11.172 87.5844 11.131 87.6328 11.1496C87.6813 11.1683 87.6999 11.2801 87.6328 11.3397C87.521 11.4851 87.5769 11.5745 87.6999 11.664Z" fill="#D25046"/>
<path d="M75.5631 26.6842C75.544 26.6834 75.5255 26.6774 75.5096 26.6668C75.4938 26.6562 75.4811 26.6414 75.473 26.6241C75.465 26.6068 75.4618 26.5877 75.4639 26.5687C75.4659 26.5497 75.4732 26.5317 75.4848 26.5165C75.6488 26.2824 75.8518 26.0782 76.0849 25.9127C76.2526 25.8121 76.3682 25.9127 76.3645 26.0991C76.3509 26.1904 76.3192 26.2781 76.2715 26.3571C76.2237 26.4361 76.1607 26.5048 76.0861 26.5592C76.0116 26.6136 75.9269 26.6527 75.8371 26.6742C75.7473 26.6957 75.6542 26.6991 75.5631 26.6842Z" fill="#D25046"/>
<path d="M87.9646 28.3987C88.0466 28.3801 88.1323 28.3726 88.2963 28.3465C88.3485 28.4062 88.4044 28.4882 88.4715 28.559C88.5105 28.5903 88.5376 28.6339 88.5484 28.6827C88.5593 28.7315 88.5532 28.7825 88.5312 28.8273C88.4703 28.9729 88.3941 29.1116 88.3038 29.241C88.2769 29.2755 88.2434 29.3042 88.2053 29.3255C88.1672 29.3468 88.1252 29.3602 88.0818 29.3651C88.0384 29.3699 87.9944 29.3661 87.9526 29.3538C87.9107 29.3414 87.8717 29.3208 87.8378 29.2932C87.7569 29.2432 87.692 29.1709 87.651 29.0849C87.61 28.999 87.5947 28.9031 87.6067 28.8087C87.6216 28.7136 87.6632 28.6246 87.7265 28.5521C87.7898 28.4795 87.8723 28.4264 87.9646 28.3987Z" fill="#D25046"/>
<path d="M87.6366 31.6861C87.587 31.5458 87.5459 31.4027 87.5136 31.2575C87.464 31.1094 87.4622 30.9496 87.5083 30.8005C87.5544 30.6514 87.6462 30.5205 87.7708 30.4263C87.8059 30.4009 87.846 30.3832 87.8885 30.3745C87.931 30.3658 87.9748 30.3662 88.0171 30.3757C88.0594 30.3852 88.0992 30.4036 88.1339 30.4297C88.1685 30.4558 88.1972 30.4889 88.2181 30.527C88.3112 30.6984 88.3895 30.8997 88.4678 31.0599C88.5314 31.2213 88.5431 31.3985 88.5014 31.5668C88.4258 31.801 88.3083 32.0194 88.1547 32.2116C88.0894 32.3271 88.0453 32.4533 88.0242 32.5843C88.0451 32.7134 88.084 32.8388 88.1398 32.957C88.1435 33.0067 88.1435 33.0565 88.1398 33.1061C88.2442 33.4229 88.3411 33.7397 88.4566 34.0528C88.507 34.1784 88.507 34.3186 88.4566 34.4442C88.4193 34.5485 88.3783 34.6529 88.3373 34.7572C88.3347 34.8329 88.3057 34.9052 88.2553 34.9617C88.2049 35.0182 88.1364 35.0553 88.0615 35.0666C88.0103 35.0766 87.9629 35.1008 87.9246 35.1363C87.8864 35.1719 87.859 35.2175 87.8453 35.2679C87.767 35.4393 87.5993 35.4728 87.4949 35.3238C87.3905 35.1747 87.3495 35.0405 87.3943 34.9511C87.5098 34.7274 87.3943 34.5112 87.4427 34.2951C87.2899 34.105 87.398 33.8851 87.3756 33.6838C87.352 33.5167 87.3666 33.3463 87.4183 33.1856C87.4699 33.0249 87.5573 32.8779 87.6738 32.7558C87.7436 32.6844 87.7879 32.5922 87.8 32.4932C87.8122 32.3942 87.7914 32.2939 87.7409 32.2079C87.6864 32.0385 87.6514 31.8634 87.6366 31.6861Z" fill="#D25046"/>
<path d="M95.6098 41.507C95.4681 41.6151 95.3638 41.5965 95.278 41.4399C95.2426 41.3742 95.2163 41.304 95.1997 41.2312C95.1699 41.097 95.1513 40.9629 95.1252 40.8324C95.0675 40.8063 95.0211 40.7603 94.9944 40.7028C94.9678 40.6454 94.9626 40.5803 94.9798 40.5193C94.9825 40.4351 95.0097 40.3535 95.0581 40.2845C95.1116 40.2315 95.181 40.1974 95.2556 40.1873C95.3303 40.1772 95.4062 40.1917 95.4719 40.2286C95.5324 40.2437 95.5848 40.2816 95.6182 40.3343C95.6515 40.3871 95.6632 40.4507 95.6508 40.5119C95.6339 40.5977 95.6459 40.6867 95.685 40.765C95.7242 40.8432 95.7882 40.9063 95.867 40.9442C95.8837 40.9625 95.8963 40.9841 95.9043 41.0076C95.8648 41.2023 95.7611 41.3782 95.6098 41.507Z" fill="#D25046"/>
<path d="M95.2184 32.5806C95.2766 32.5597 95.3365 32.5435 95.3973 32.5321C95.5501 32.5321 95.7253 32.6588 95.7179 32.7781C95.7063 32.8831 95.6588 32.9809 95.5834 33.0549C95.508 33.129 95.4093 33.1747 95.3041 33.1844C95.1252 33.203 94.9761 33.0204 94.9313 32.8638C94.8866 32.7073 95.0357 32.6253 95.2184 32.5806Z" fill="#D25046"/>
<path d="M67.9029 32.3233C67.9029 32.4501 67.7985 32.4724 67.7315 32.5358C67.601 32.6551 67.4407 32.7594 67.4892 32.9719C67.3737 32.9953 67.2541 32.9888 67.1419 32.9529C67.0296 32.917 66.9285 32.853 66.848 32.7669C66.5647 32.6252 66.5312 32.3494 66.4753 32.0848C66.4734 32.0587 66.4734 32.0326 66.4753 32.0065C66.3964 31.6811 66.2447 31.3778 66.0317 31.1195C65.9285 30.979 65.8387 30.8293 65.7633 30.6722C65.6142 30.4188 65.6403 30.3293 65.8975 30.1132C66.0615 29.8672 66.2703 29.9753 66.4865 30.02C66.4865 30.1243 66.4865 30.2101 66.4865 30.2958C66.4865 30.6275 66.4865 30.6275 66.7809 30.7989H66.93L67.0829 30.7281C67.1313 30.6499 67.1835 30.6499 67.232 30.7281L67.3065 30.8027L67.3773 30.8809C67.4034 30.9331 67.4295 30.9816 67.4519 31.0338C67.4537 31.0561 67.4537 31.0785 67.4519 31.1008C67.634 31.3266 67.7822 31.5777 67.8917 31.8463C67.9924 31.9096 67.97 32.0028 67.9477 32.096C67.9253 32.1892 67.9216 32.2563 67.9029 32.3233Z" fill="#D25046"/>
<path d="M89.3661 39.1254L89.4407 39.2037L89.5152 39.2783L89.888 39.4497C89.5451 39.5913 89.5152 39.5876 89.2916 39.4273C89.1533 39.3789 89.0187 39.3204 88.889 39.2522C88.8342 39.2124 88.7887 39.1611 88.7559 39.1019C88.7231 39.0427 88.7036 38.977 88.699 38.9094C88.6944 38.8419 88.7047 38.7741 88.7291 38.711C88.7536 38.6478 88.7916 38.5908 88.8405 38.544C88.9337 38.8198 89.1909 38.9503 89.3661 39.1254Z" fill="#D25046"/>
<path d="M86.1642 37.7538C86.2109 37.7327 86.2639 37.7302 86.3124 37.7468C86.3608 37.7634 86.4012 37.7979 86.4251 37.8432C86.468 37.8943 86.495 37.9567 86.503 38.0229C86.5109 38.0891 86.4994 38.1562 86.4698 38.2159C86.3841 38.3762 86.2946 38.4843 86.0971 38.4247C86.0466 38.353 86.0131 38.2708 85.9989 38.1843C85.9847 38.0979 85.9902 38.0093 86.0151 37.9252C86.0273 37.8882 86.0468 37.854 86.0724 37.8245C86.098 37.7951 86.1292 37.7711 86.1642 37.7538Z" fill="#D25046"/>
<path d="M70.1805 28.0632C70.1142 28.0581 70.0499 28.0383 69.9923 28.0052C69.9347 27.9721 69.8852 27.9266 69.8473 27.872C69.8095 27.8174 69.7843 27.7551 69.7736 27.6895C69.7628 27.6239 69.7669 27.5568 69.7853 27.493C69.7949 27.4702 69.8098 27.45 69.8288 27.4342C69.8479 27.4184 69.8705 27.4075 69.8947 27.4024C69.9188 27.3972 69.9439 27.3981 69.9677 27.4047C69.9915 27.4114 70.0134 27.4238 70.0313 27.4408C70.1272 27.5364 70.2134 27.6413 70.2886 27.7539C70.3069 27.783 70.3189 27.8155 70.3241 27.8495C70.3292 27.8835 70.3273 27.9182 70.3184 27.9514C70.2885 28.0111 70.2065 28.0409 70.1805 28.0632Z" fill="#D25046"/>
<path d="M91.5393 38.3799C91.5688 38.357 91.6045 38.3432 91.6418 38.3404C91.6791 38.3376 91.7164 38.3459 91.7491 38.3642C91.7817 38.3825 91.8082 38.41 91.8253 38.4433C91.8423 38.4766 91.8492 38.5142 91.845 38.5514C91.8421 38.6596 91.8271 38.7671 91.8002 38.8719C91.7963 38.8938 91.7873 38.9145 91.7739 38.9322C91.7605 38.95 91.7432 38.9644 91.7232 38.9742C91.7032 38.984 91.6812 38.9889 91.659 38.9886C91.6368 38.9884 91.6149 38.9829 91.5952 38.9726C91.5365 38.9559 91.4767 38.9435 91.4163 38.9353C91.4163 38.8384 91.3939 38.7564 91.379 38.6707C91.3306 38.5253 91.4275 38.447 91.5393 38.3799Z" fill="#D25046"/>
<path d="M86.2909 40.7951C86.3583 40.8294 86.4137 40.8835 86.4496 40.9501C86.4856 41.0166 86.5004 41.0926 86.4922 41.1678C86.4735 41.3057 86.3729 41.343 86.2536 41.3616L86.1232 41.3877C86.0805 41.314 86.0532 41.2324 86.0429 41.1478C86.0327 41.0633 86.0397 40.9775 86.0635 40.8957C86.0656 40.8704 86.0745 40.8461 86.0893 40.8253C86.104 40.8046 86.1241 40.7882 86.1473 40.7779C86.1706 40.7676 86.1962 40.7638 86.2215 40.7668C86.2467 40.7698 86.2707 40.7796 86.2909 40.7951Z" fill="#D25046"/>
<path d="M90.1713 28.1416C90.2346 28.1043 90.3577 28.0745 90.4024 28.1081C90.4764 28.1732 90.5394 28.25 90.5888 28.3354C90.5888 28.5665 90.4769 28.6634 90.3241 28.6112C90.2657 28.5889 90.2105 28.5588 90.1601 28.5218C90.1299 28.4996 90.1056 28.4705 90.0892 28.4369C90.0728 28.4032 90.0648 28.3661 90.0659 28.3288C90.067 28.2914 90.0772 28.2548 90.0955 28.2222C90.1139 28.1896 90.1399 28.1619 90.1713 28.1416Z" fill="#D25046"/>
<path d="M102.912 47.9214C102.921 47.9894 102.921 48.0584 102.912 48.1264C102.909 48.1722 102.894 48.2164 102.869 48.2549C102.843 48.2934 102.809 48.3249 102.768 48.3465C102.728 48.3681 102.683 48.379 102.637 48.3783C102.591 48.3776 102.546 48.3653 102.506 48.3425C102.469 48.3297 102.436 48.3068 102.411 48.2763C102.387 48.2458 102.371 48.2091 102.367 48.1702C102.362 48.1313 102.368 48.0919 102.385 48.0565C102.402 48.0211 102.428 47.991 102.461 47.9698C102.523 47.9178 102.599 47.8854 102.679 47.8768C102.759 47.8682 102.841 47.8837 102.912 47.9214Z" fill="#D25046"/>
<path d="M65.2899 20.3555C65.2377 20.0648 65.2899 19.9269 65.4875 19.8114C65.504 19.7966 65.5239 19.7861 65.5454 19.7807C65.5669 19.7752 65.5894 19.7751 65.611 19.7802C65.6326 19.7853 65.6526 19.7956 65.6694 19.8101C65.6862 19.8246 65.6992 19.8429 65.7074 19.8635C65.7283 19.9005 65.7393 19.9422 65.7393 19.9847C65.7393 20.0271 65.7283 20.0689 65.7074 20.1058C65.6291 20.3145 65.4539 20.3145 65.2899 20.3555Z" fill="#D25046"/>
<path d="M90.3912 36.4717C90.3591 36.3386 90.3699 36.1988 90.4222 36.0723C90.4744 35.9457 90.5653 35.839 90.6819 35.7673C90.7407 35.8073 90.7812 35.8691 90.7945 35.939C90.8078 36.0088 90.7928 36.0811 90.7528 36.14C90.6558 36.2928 90.6596 36.5127 90.3912 36.4717Z" fill="#D25046"/>
<path d="M90.4508 37.0568C90.3997 37.0111 90.3621 36.952 90.3424 36.8862C90.3227 36.8205 90.3215 36.7505 90.339 36.6841C90.339 36.6282 90.4918 36.591 90.5776 36.5537C90.5776 36.5537 90.6223 36.5537 90.6819 36.5537C90.6954 36.705 90.6954 36.8571 90.6819 37.0084C90.6558 37.1128 90.5477 37.1277 90.4508 37.0568Z" fill="#D25046"/>
<path d="M90.3614 31.1307C90.4881 31.1791 90.4956 31.2947 90.4881 31.4139C90.4892 31.4325 90.4863 31.4511 90.4798 31.4685C90.4733 31.4859 90.4633 31.5017 90.4503 31.515C90.4373 31.5284 90.4217 31.5388 90.4045 31.5458C90.3873 31.5528 90.3688 31.5561 90.3502 31.5556C90.3005 31.5636 90.2496 31.5528 90.2075 31.5252C90.1654 31.4976 90.1352 31.4552 90.1228 31.4065C90.1228 31.3357 90.093 31.2648 90.0818 31.2089C90.1098 31.1629 90.1542 31.1291 90.2061 31.1146C90.2581 31.1001 90.3135 31.1058 90.3614 31.1307Z" fill="#D25046"/>
<path d="M93.5 39.4795C93.5046 39.4357 93.5257 39.3952 93.5588 39.3662C93.592 39.3372 93.6348 39.3218 93.6789 39.3229C93.7795 39.3229 93.8615 39.4161 93.8541 39.5652C93.8131 39.5913 93.7497 39.6584 93.6826 39.6658C93.6338 39.6649 93.5874 39.6448 93.5532 39.6099C93.5191 39.5751 93.5 39.5283 93.5 39.4795Z" fill="#D25046"/>
<path d="M73.8484 17.1428C73.744 17.1428 73.662 17.0384 73.6806 16.908C73.6806 16.8632 73.7365 16.8222 73.7962 16.7328C73.8689 16.8206 73.9326 16.9155 73.9863 17.016C73.9863 17.016 73.908 17.1316 73.8484 17.1428Z" fill="#D25046"/>
<path d="M102.584 50.2173C102.644 50.2173 102.696 50.2844 102.789 50.3477C102.692 50.3999 102.632 50.4521 102.569 50.4558C102.506 50.4595 102.48 50.3701 102.48 50.3216C102.48 50.2732 102.554 50.2098 102.584 50.2173Z" fill="#D25046"/>
<path d="M89.847 27.8061L89.6979 27.6533C89.4668 27.6533 89.4444 27.4222 89.3475 27.2806C89.3251 27.2508 89.3698 27.1315 89.4183 27.098C89.4385 27.0793 89.4624 27.0652 89.4885 27.0567C89.5146 27.0482 89.5423 27.0454 89.5695 27.0486C89.5968 27.0518 89.6231 27.0609 89.6465 27.0752C89.67 27.0895 89.69 27.1087 89.7053 27.1315C89.7389 27.1315 89.8022 27.1315 89.806 27.098C89.8432 26.8669 90.0184 26.7961 90.2011 26.7252C90.2245 26.7341 90.247 26.7454 90.2682 26.7588C90.3576 26.8296 90.4024 27.016 90.5738 26.8781C90.604 26.8923 90.6288 26.9158 90.6447 26.9451C90.6497 26.9618 90.6502 26.9796 90.6463 26.9966C90.6424 27.0135 90.6341 27.0292 90.6223 27.0421C90.4434 27.165 90.2495 27.2843 90.0818 27.4148C90.3316 27.6048 90.3316 27.6757 90.0818 27.8247C89.9961 27.9067 89.9364 27.9067 89.847 27.8061Z" fill="#D25046"/>
<path d="M90.2719 46.4828C90.314 46.1453 90.3265 45.8049 90.3092 45.4653C90.2948 45.3324 90.3119 45.198 90.3592 45.073C90.4065 44.9481 90.4826 44.836 90.5813 44.7459C90.6857 44.6192 90.7677 44.6267 90.8758 44.7459C90.9017 44.7952 90.9205 44.8479 90.9317 44.9025L91.0435 44.7571C91.1593 44.6076 91.2139 44.4198 91.1964 44.2316C91.0396 44.1967 90.8994 44.1094 90.7991 43.984C90.6987 43.8586 90.6443 43.7027 90.6447 43.5421C90.6698 43.4134 90.7275 43.2934 90.8124 43.1936C90.8972 43.0937 91.0064 43.0173 91.1293 42.9718L91.5244 42.8563C91.6614 42.8123 91.8083 42.809 91.9472 42.8467C92.0861 42.8844 92.2111 42.9615 92.3072 43.0687C92.496 43.2588 92.6533 43.4777 92.7731 43.7172C92.8806 43.8675 92.9695 44.0302 93.0378 44.2018C93.1007 44.5317 93.2499 44.839 93.4702 45.0925C93.5553 45.1932 93.5978 45.3231 93.5888 45.4546C93.5797 45.5861 93.5198 45.7089 93.4217 45.797C93.3145 45.9484 93.215 46.1052 93.1235 46.2666C93.1011 46.4157 93.0229 46.5797 93.0676 46.7027C93.1052 46.8403 93.115 46.984 93.0965 47.1254C93.0779 47.2668 93.0313 47.4031 92.9595 47.5264C92.9333 47.6006 92.9121 47.6766 92.8961 47.7537C92.9942 47.8305 93.0976 47.9002 93.2055 47.9624C93.275 47.9901 93.3375 48.0328 93.3886 48.0876C93.4396 48.1423 93.4779 48.2076 93.5007 48.2788C93.5235 48.3501 93.5303 48.4255 93.5205 48.4997C93.5107 48.5739 93.4846 48.645 93.4441 48.7079C93.3298 48.8691 93.2568 49.056 93.2316 49.252C93.2337 49.3095 93.2136 49.3656 93.1754 49.4086C93.1372 49.4517 93.0839 49.4783 93.0266 49.4831C92.777 49.5132 92.5355 49.5904 92.3146 49.7104C92.3482 49.7924 92.4153 49.8707 92.4041 49.9415C92.3871 50.1599 92.3381 50.3747 92.2587 50.5789C92.1655 50.7615 92.1282 50.7764 91.886 50.6758C91.7145 50.769 91.6548 50.6348 91.5878 50.523C91.4223 50.4483 91.2897 50.3157 91.215 50.1502C91.1852 50.1018 91.1516 50.0049 91.1255 50.0049C90.9317 50.0049 90.8534 49.8484 90.7304 49.7589C90.3241 49.4607 90.3577 49.1216 90.8199 48.8569C90.9009 48.9591 90.9674 49.072 91.0174 49.1924C91.0218 49.2277 91.036 49.2611 91.0584 49.2888C91.0808 49.3165 91.1105 49.3373 91.1442 49.3489C91.229 49.3635 91.3162 49.353 91.395 49.3185C91.4739 49.2841 91.5409 49.2273 91.5878 49.1551C91.6857 48.9456 91.7094 48.709 91.6548 48.4842C91.6446 48.3845 91.6096 48.289 91.5529 48.2063C91.4963 48.1236 91.4198 48.0564 91.3305 48.0109C91.2672 47.9848 91.2262 47.9102 91.174 47.8543L90.8497 47.5077H90.7751C90.667 47.5077 90.5552 47.5077 90.5515 47.3586H90.4769L90.4024 47.2804L90.3278 47.2058L90.257 47.1313V46.9785C90.2011 46.9561 90.2011 46.93 90.257 46.9039V46.8294C90.1974 46.8033 90.1974 46.7809 90.257 46.7548V46.6989C90.1713 46.6356 90.175 46.5573 90.2719 46.4828ZM92.2848 43.9781C92.4153 43.8812 92.4078 44.0378 92.4749 44.0452C92.501 44.0117 92.5345 43.9781 92.5495 43.9856C92.5644 43.993 92.4935 44.0191 92.4637 44.0378C92.4339 44.0564 92.4153 43.8812 92.2848 43.9781ZM91.4946 44.2465C91.4816 44.3129 91.4816 44.3813 91.4946 44.4478C91.4816 44.3813 91.4816 44.3129 91.4946 44.2465ZM92.87 48.7451C92.8365 48.7936 92.7843 48.8532 92.7582 48.842C92.788 48.842 92.8402 48.7861 92.8849 48.7526C92.9297 48.719 92.993 48.8495 93.0191 48.7265C92.993 48.8495 92.9297 48.7451 92.8775 48.7265L92.87 48.7451ZM91.1479 45.3907C91.0733 45.4876 91.1255 45.5845 91.2448 45.5994C91.4573 45.6218 91.5318 45.5584 91.6176 45.2714C91.5148 45.2602 91.411 45.2602 91.3082 45.2714C91.245 45.2924 91.1894 45.3312 91.1479 45.3833V45.3907Z" fill="#D25046"/>
<path d="M67.4001 33.102C67.4001 33.102 67.4001 33.1246 67.4001 33.1284C67.4001 33.1322 67.3775 33.1284 67.3661 33.1284L67.3888 33.0907L67.4001 33.102Z" fill="#D25046"/>
<path d="M96.4261 18.7455L96.4601 18.7116C96.4613 18.7204 96.4613 18.7293 96.4601 18.738L96.4261 18.7455Z" fill="#D25046"/>
<path d="M96.8701 18.3724L96.8361 18.4063C96.8349 18.3976 96.8349 18.3887 96.8361 18.3799L96.8701 18.3724Z" fill="#D25046"/>
<path d="M91.0063 44.7344L91.0365 44.7645C91.0365 44.7645 91.0365 44.7645 91.0139 44.7645C90.9912 44.7645 91.0063 44.7419 91.0063 44.7344Z" fill="#D25046"/>
<path d="M83.0181 8.8086L83.0521 8.84253H83.0257C83.0257 8.84253 83.0219 8.81614 83.0181 8.8086Z" fill="#D25046"/>
<path d="M87.2564 40.456C87.2785 40.3317 87.3415 40.2184 87.4353 40.1339C87.5292 40.0495 87.6486 39.9989 87.7745 39.9901C87.9086 39.9669 88.0466 39.9915 88.1644 40.0596C88.2823 40.1277 88.3725 40.235 88.4194 40.3628C88.4914 40.5076 88.5296 40.6669 88.5312 40.8287C88.5312 41.1231 88.5312 41.4213 88.5535 41.7157C88.5759 42.0102 88.5796 42.3344 88.5796 42.64C88.5816 42.7394 88.553 42.837 88.4976 42.9196C88.3871 43.0979 88.3361 43.3067 88.3523 43.5159C88.438 43.5756 88.4231 43.665 88.4082 43.7507C88.3789 43.8733 88.3589 43.9979 88.3485 44.1234C88.3485 44.5185 88.3485 44.9136 88.3485 45.3124C88.3485 45.6143 88.3187 45.6404 87.9758 45.7559C87.7745 45.4838 87.7633 45.4838 87.8155 45.1894C87.8597 45.0138 87.8552 44.8294 87.8027 44.6561C87.7502 44.4828 87.6515 44.327 87.5173 44.2054C87.45 44.1484 87.3966 44.0768 87.3611 43.9961C87.3256 43.9154 87.3089 43.8277 87.3123 43.7395C87.2265 43.6799 87.2377 43.5905 87.2564 43.5047C87.2769 43.3756 87.3332 43.2548 87.4188 43.156C87.5045 43.0572 87.616 42.9844 87.7409 42.9457C87.7894 42.573 87.8118 42.2002 87.8826 41.8536C87.9094 41.7342 87.8984 41.6093 87.851 41.4964C87.8035 41.3835 87.7221 41.2882 87.6179 41.2237C87.5397 41.1641 87.439 41.1343 87.357 41.0784C87.0737 40.8808 87.0588 40.7467 87.275 40.4373L87.2564 40.456Z" fill="#D25046"/>
</svg>
