<svg width="96" height="81" viewBox="0 0 96 81" fill="none" xmlns="http://www.w3.org/2000/svg">
<path d="M22.836 65.4271C35.046 65.4271 43.758 56.5831 43.758 41.2711C43.758 25.9591 35.046 17.1151 22.836 17.1151C10.626 17.1151 1.914 25.9591 1.914 41.2711C1.914 56.5831 10.626 65.4271 22.836 65.4271ZM22.836 52.9531C19.8 52.9531 17.556 50.1811 17.556 41.2711C17.556 32.3611 19.8 29.5891 22.836 29.5891C25.872 29.5891 28.116 32.3611 28.116 41.2711C28.116 50.1811 25.872 52.9531 22.836 52.9531ZM45.3827 18.1711V29.9191H53.3027V64.3711H68.8787V18.1711H45.3827Z" fill="#D25046"/>
<path d="M65.4957 9.4371C65.598 9.2299 65.6485 9.001 65.643 8.76999C65.6224 8.53554 65.6915 8.30202 65.8361 8.11638C65.9808 7.93074 66.1904 7.80675 66.4228 7.76933C66.5491 7.74275 66.6735 7.70802 66.7954 7.66536C67.0748 7.56148 67.3824 7.56148 67.6618 7.66536C67.7337 7.67905 67.798 7.71902 67.842 7.77748C67.8861 7.83594 67.9068 7.9087 67.9001 7.98159C67.9001 8.25883 67.9001 8.53174 67.9001 8.80898C67.9083 8.88826 67.8908 8.96806 67.8503 9.03668C67.8097 9.10529 67.7482 9.1591 67.6748 9.19019C67.4849 9.29344 67.3012 9.4077 67.1246 9.5324C66.9253 9.66236 66.9383 9.86596 66.9253 10.0739C66.9123 10.2818 67.1246 10.2558 67.1896 10.3728C67.3612 10.3828 67.5334 10.3682 67.7008 10.3295C68.0329 10.2269 68.3808 10.1858 68.7276 10.2082C68.8092 10.2009 68.8913 10.2137 68.9668 10.2454C69.0423 10.2771 69.1089 10.3268 69.1608 10.3901C69.2129 10.4603 69.2758 10.5217 69.3471 10.5721C69.4517 10.6382 69.535 10.7329 69.5873 10.8451C69.6395 10.9572 69.6584 11.0819 69.6417 11.2045C69.6341 11.4198 69.6619 11.635 69.724 11.8413C69.7416 11.9226 69.7762 11.9993 69.8255 12.0663C69.8748 12.1333 69.9377 12.1891 70.0102 12.23C70.0826 12.271 70.1629 12.2961 70.2458 12.3037C70.3286 12.3114 70.4122 12.3014 70.4909 12.2745C70.6421 12.2208 70.8072 12.2213 70.9581 12.2758C71.109 12.3303 71.2363 12.4355 71.3184 12.5734C71.366 12.6427 71.4397 12.699 71.4873 12.7726C71.7412 13.1762 72.1246 13.4817 72.5747 13.639C72.7654 13.6737 72.9603 13.691 73.1466 13.7387C73.3329 13.7863 73.5192 13.8513 73.7055 13.9119C73.9849 13.7713 74.2258 13.5646 74.4073 13.3098C74.406 13.2358 74.4296 13.1634 74.4744 13.1045C74.5192 13.0455 74.5826 13.0034 74.6543 12.9849C75.0645 12.812 75.5165 12.7638 75.954 12.8463C76.08 12.8991 76.2203 12.9068 76.3513 12.8681C76.4824 12.8294 76.596 12.7468 76.6732 12.634C76.7338 12.5777 76.7901 12.5171 76.8465 12.4608C76.8465 12.3221 76.8161 12.1835 76.8075 12.0276C76.7988 11.8716 76.6992 11.863 76.5995 11.8846C76.4784 11.915 76.3597 11.9541 76.2443 12.0016C75.9725 12.0608 75.691 12.0593 75.4199 11.9971C75.1488 11.935 74.8948 11.8137 74.6759 11.642L74.416 11.4601C74.3059 11.4054 74.2015 11.3401 74.1041 11.2652C74.0724 11.2311 74.0483 11.1907 74.0334 11.1466C74.0184 11.1026 74.013 11.0559 74.0174 11.0096C74.0399 10.9689 74.0716 10.9339 74.11 10.9076C74.1483 10.8813 74.1923 10.8643 74.2384 10.858C74.6716 10.819 75.0615 10.8016 75.4688 10.7757C75.6117 10.5894 75.733 10.3814 75.9973 10.3425C76.2214 10.0907 76.3714 9.78186 76.4306 9.4501C76.4481 9.34409 76.5 9.24679 76.5783 9.1732C76.6566 9.09961 76.7569 9.05382 76.8638 9.0429L76.9504 8.95626L77.0414 8.86962C77.0634 8.7935 77.0954 8.72065 77.1367 8.65303C77.297 8.42777 77.3014 8.43211 77.1367 8.17653C76.9331 7.99892 76.9331 7.99892 77.1367 7.74334L77.2277 7.48343C77.0717 7.00259 76.9201 6.52174 76.7555 6.00625C76.9245 6.13307 77.0865 6.269 77.2407 6.41345C77.3086 6.50139 77.3654 6.59743 77.4097 6.69936C77.557 6.82065 77.4703 6.98959 77.492 7.13254C77.5136 7.27549 77.492 7.30581 77.492 7.39245C77.492 7.47909 77.492 7.50508 77.5266 7.50941C77.5801 7.52946 77.6382 7.534 77.6941 7.52251C77.7501 7.51101 77.8017 7.48395 77.8429 7.44444C78.0249 7.24517 78.2285 7.05457 78.4321 6.84664C78.718 6.81631 78.6401 7.13254 78.77 7.22784C78.715 7.3772 78.6483 7.52203 78.5707 7.66103C78.4754 7.81265 78.3671 8.02058 78.2242 8.05956C78.0812 8.09855 77.9815 8.30215 77.8169 8.36279C77.8169 8.36279 77.8169 8.46243 77.8169 8.51874C77.8169 8.57506 77.9729 8.66603 77.9772 8.74833C77.9953 8.83748 78.0316 8.92195 78.0838 8.99648C78.1359 9.071 78.2029 9.13399 78.2805 9.18152L78.4754 9.32447C78.4449 9.43024 78.393 9.52862 78.323 9.61356C78.2529 9.69849 78.1662 9.76817 78.0682 9.81831L77.7129 10.3381H77.6263C77.6372 10.2176 77.6741 10.1008 77.7346 9.99591C77.6741 10.1008 77.6372 10.2176 77.6263 10.3381H77.7129C77.6967 10.4086 77.6765 10.478 77.6523 10.5461C77.5432 10.7321 77.4821 10.9424 77.4745 11.1579C77.467 11.3734 77.5132 11.5874 77.609 11.7806C77.609 11.7806 77.609 11.8413 77.609 11.8673C77.6481 12.2528 77.7074 12.6359 77.7866 13.0152C77.8565 13.2499 77.8473 13.501 77.7606 13.73C77.611 14.0749 77.5471 14.451 77.5743 14.826C77.5808 14.869 77.5808 14.9128 77.5743 14.9559C77.5702 14.9999 77.5564 15.0424 77.5341 15.0806C77.5118 15.1187 77.4815 15.1515 77.4451 15.1767C77.4088 15.2019 77.3674 15.2188 77.3239 15.2263C77.2804 15.2338 77.2357 15.2317 77.193 15.2202C76.9557 15.1555 76.7039 15.1677 76.4739 15.2548C76.3531 15.4767 76.1692 15.6576 75.9453 15.7746C75.7664 15.9339 75.5752 16.0787 75.3735 16.2078C75.2878 16.2752 75.1877 16.322 75.081 16.3446C74.9743 16.3671 74.8639 16.3648 74.7583 16.3378C74.5633 16.2555 74.4073 16.1082 74.1604 16.1515C74.0564 16.1515 73.9308 16.0519 73.8138 15.9912L73.5799 15.8526L73.1943 16.3551C73.1048 16.4482 73.0435 16.5647 73.0174 16.6912C72.9913 16.8177 73.0016 16.949 73.047 17.0699C73.2118 17.4398 73.2258 17.8594 73.086 18.2395C73.0253 18.3941 73.0132 18.5635 73.0511 18.7252C73.089 18.8869 73.1752 19.0333 73.2982 19.1448C73.3286 19.2012 73.3546 19.2618 73.3849 19.3181C73.4989 19.3724 73.6089 19.4347 73.7142 19.5044C73.8321 19.5815 73.9386 19.6748 74.0304 19.7816C74.1301 19.9072 74.0737 20.0329 73.9178 20.1152L73.6405 20.2581C73.7315 20.4531 73.8095 20.6307 73.8918 20.8039L73.9784 20.8949V20.9816C74.0088 21.0379 74.0348 21.0942 74.0651 21.1548C74.0954 21.2155 74.1214 21.2155 74.1517 21.2415L74.2384 21.3324L74.325 21.4191L74.4117 21.5057C74.4377 21.5664 74.468 21.6227 74.494 21.6833C74.5709 21.7267 74.635 21.7896 74.6799 21.8656C74.7248 21.9417 74.7488 22.0282 74.7496 22.1165C74.7496 22.2551 74.7496 22.3981 74.7496 22.5497C74.7496 22.58 74.7496 22.6147 74.7496 22.645C74.7496 22.6147 74.7496 22.58 74.7496 22.5497C74.8114 22.5631 74.8698 22.5892 74.9211 22.6263C74.9724 22.6634 75.0154 22.7107 75.0475 22.7652C75.0797 22.8197 75.1002 22.8802 75.1078 22.943C75.1155 23.0058 75.11 23.0696 75.0919 23.1302C75.0897 23.1706 75.0897 23.2111 75.0919 23.2515L75.3475 23.4334C75.4742 23.4204 75.602 23.4204 75.7287 23.4334C75.9272 23.4843 76.1358 23.4793 76.3316 23.4189C76.5274 23.3585 76.7026 23.2451 76.8378 23.0912C76.8728 22.9534 76.9426 22.8269 77.0404 22.7238C77.1383 22.6206 77.2609 22.5443 77.3967 22.502C77.6732 22.4437 77.9546 22.4118 78.2372 22.4067L78.3801 22.2898C78.3801 22.3288 78.3801 22.3678 78.4104 22.4067H78.6704C78.7007 22.0732 78.9173 22.4067 79.004 22.3244C79.0079 22.2942 79.0079 22.2637 79.004 22.2335C78.9469 21.9908 78.9207 21.7419 78.926 21.4927C78.9256 21.3612 78.9569 21.2315 79.0172 21.1146C79.0775 20.9977 79.1651 20.8971 79.2726 20.8213C79.4069 20.739 79.5239 20.6307 79.6495 20.5354L79.8098 20.6957H79.8488C79.8557 20.7153 79.8557 20.7367 79.8488 20.7563C79.6495 20.7563 79.8055 20.9859 79.6625 21.0379C79.5975 21.0639 79.5629 21.1548 79.5109 21.2198L80.1521 21.718L79.7188 22.554C79.5747 22.5405 79.4297 22.5405 79.2856 22.554C79.2423 22.554 79.2119 22.6537 79.1729 22.7056H79.2596L79.6062 22.7923L79.8705 22.71H79.9571C80.0186 22.6539 80.0915 22.6118 80.1707 22.5864C80.2499 22.561 80.3337 22.5529 80.4163 22.5627C80.7629 22.697 81.1008 22.8486 81.4691 22.9959L81.82 22.7966C81.9023 23.0609 81.9717 23.2904 82.0453 23.52C82.0453 23.546 82.08 23.5763 82.0756 23.6023C82.0633 23.7014 82.0401 23.7987 82.0063 23.8926C81.963 24.0009 81.8763 24.0269 81.7594 23.9749C81.6309 23.909 81.5263 23.8045 81.4604 23.676C81.3305 23.494 81.2092 23.4897 81.0272 23.637C80.9535 23.702 80.8799 23.7756 80.8106 23.8449C80.7182 24.0408 80.5796 24.2113 80.4068 24.3418C80.234 24.4723 80.0321 24.559 79.8185 24.5943C79.7185 24.5373 79.6217 24.4752 79.5282 24.4081C79.095 24.0918 79.095 24.0918 78.7137 24.4341C78.6661 24.694 78.4581 24.8153 78.2805 24.9539C78.2195 25.0361 78.1777 25.1309 78.1582 25.2313C78.1387 25.3318 78.142 25.4353 78.1678 25.5344C77.9638 25.6567 77.7526 25.7666 77.5353 25.8636C77.3144 25.9502 77.1021 25.7336 76.8595 25.8246C76.8595 25.8246 76.7598 25.7509 76.7468 25.7033C76.6992 25.53 76.6732 25.3524 76.6212 25.1055L75.98 24.7026C75.8673 24.7676 75.7764 24.8153 75.6941 24.8672C75.6066 24.9322 75.5029 24.9718 75.3944 24.9817C75.2858 24.9917 75.1767 24.9715 75.0789 24.9236C74.9295 24.8767 74.7755 24.8462 74.6196 24.8326C74.3077 25.1272 74.247 25.5863 73.9221 25.8592L74.1691 26.1322C74.4853 26.2058 74.5416 26.4657 74.6023 26.7083C74.7457 26.6832 74.8928 26.6887 75.034 26.7246C75.1751 26.7604 75.3071 26.8257 75.4211 26.9162C75.8067 27.0419 75.8543 27.3927 75.8803 27.709C75.9063 28.0252 75.6551 28.1421 75.4471 28.2938C75.1063 28.0464 74.8128 27.7397 74.5806 27.3884C74.5806 27.3884 74.5806 27.3581 74.5806 27.3451L74.4073 27.1675C74.2424 27.0765 74.0509 27.0459 73.8658 27.0808C73.6795 27.0808 73.5019 26.8946 73.3112 27.0419L73.4455 27.683V27.7826L73.6535 28.1421C73.6702 28.1654 73.6819 28.1918 73.688 28.2198C73.694 28.2478 73.6941 28.2768 73.6884 28.3048C73.6827 28.3329 73.6713 28.3595 73.6549 28.3829C73.6384 28.4064 73.6173 28.4261 73.5929 28.441L73.3979 28.571C73.4412 28.8526 73.4802 29.1038 73.5149 29.3507C73.6656 29.7843 73.6747 30.2545 73.5409 30.6936C73.5127 30.8629 73.5127 31.0356 73.5409 31.2048C73.6107 31.4923 73.5926 31.7941 73.4889 32.0712C73.4256 32.1766 73.3966 32.299 73.4059 32.4217C73.4152 32.5443 73.4624 32.661 73.5409 32.7556C73.5885 32.8249 73.6102 32.9115 73.6535 32.9852C73.7431 33.2023 73.8935 33.3888 74.0867 33.5223C74.1403 33.5404 74.1864 33.5757 74.2177 33.6227C74.2491 33.6698 74.264 33.7259 74.26 33.7823L74.3424 33.8732C74.3888 33.9077 74.4278 33.9512 74.4572 34.001C74.4865 34.0509 74.5056 34.1061 74.5133 34.1634C74.521 34.2208 74.5171 34.279 74.5019 34.3348C74.4866 34.3907 74.4604 34.4428 74.4247 34.4883C74.3424 34.6183 74.1691 34.7699 74.1907 34.8696C74.2124 34.9692 74.416 35.0948 74.5416 35.2031C74.5416 35.4024 74.3943 35.4587 74.2427 35.515C74.0044 35.6103 73.7661 35.7056 73.5235 35.7879C73.381 35.8234 73.2363 35.8494 73.0903 35.8659C72.9209 35.9312 72.7397 35.9603 72.5584 35.9514C72.3771 35.9424 72.1996 35.8956 72.0375 35.8139C71.9753 35.776 71.9013 35.7621 71.8296 35.7749C71.7502 35.799 71.6814 35.8494 71.6346 35.9179C71.5826 36.0002 71.6346 36.0825 71.7256 36.1258C71.8161 36.1545 71.8977 36.2057 71.9629 36.2747C72.0281 36.3436 72.0747 36.4281 72.0982 36.52C72.1661 36.7547 72.1925 36.9996 72.1762 37.2434C72.1583 37.3226 72.1631 37.4052 72.1899 37.4817C72.2167 37.5583 72.2645 37.6258 72.3278 37.6766C72.3772 37.7291 72.4221 37.7856 72.4621 37.8456C72.6158 37.9505 72.7749 38.0473 72.9387 38.1358C73.2929 38.3012 73.5987 38.5548 73.8268 38.8722C73.7531 39.0368 73.6665 39.2144 73.5972 39.3964C73.5304 39.5218 73.4948 39.6615 73.4932 39.8036C73.5146 39.9331 73.4893 40.066 73.4219 40.1786C73.3544 40.2913 73.2492 40.3763 73.125 40.4187C73.0166 40.4887 72.9003 40.5455 72.7784 40.5876C72.5834 40.6266 72.4924 40.7739 72.3841 40.8995C72.2152 41.0988 72.2152 41.1378 72.3841 41.3327C72.5348 41.468 72.6368 41.6492 72.6744 41.8482C72.7025 41.8657 72.7261 41.8896 72.7431 41.918C72.7601 41.9464 72.7701 41.9785 72.7723 42.0116C72.7744 42.0446 72.7686 42.0777 72.7553 42.1081C72.7421 42.1384 72.7217 42.1652 72.6961 42.1861C72.5906 42.2797 72.4557 42.3333 72.3148 42.3377C72.1724 42.3272 72.0371 42.271 71.9292 42.1774C71.7064 41.9948 71.4437 41.8672 71.1624 41.8049C70.9934 41.7616 70.7508 41.7572 70.6902 41.5493C70.5859 41.3007 70.4393 41.0721 70.2569 40.8735C70.1831 40.8072 70.0968 40.7562 70.0031 40.7235C69.9094 40.6908 69.8101 40.677 69.711 40.6829C69.3393 40.6641 68.9741 40.7864 68.6886 41.0251C68.5455 41.0748 68.4111 41.1464 68.29 41.2374C68.1731 41.3587 68.0994 41.5233 67.9391 41.5883C67.7745 41.4973 67.8698 41.389 67.8871 41.2807C67.8979 41.1655 67.8979 41.0494 67.8871 40.9342C67.8871 40.8172 67.8871 40.7003 67.8871 40.5833V40.4967L67.8048 40.4057C67.6878 40.3191 67.5709 40.2324 67.4582 40.1414H67.2286C66.6394 40.1934 66.4401 39.8036 66.3275 39.3877C66.2495 39.0801 66.1888 38.7682 66.1412 38.4563C66.1022 38.2268 66.0935 37.9972 66.0719 37.7676C66.065 37.7025 66.0745 37.6367 66.0995 37.5762C66.1245 37.5157 66.1641 37.4624 66.2148 37.421C66.3795 37.2781 66.5354 37.1265 66.7087 36.9878C67.0293 36.7453 67.051 36.5547 66.7694 36.2384C66.7033 36.1803 66.6424 36.1165 66.5874 36.0478C66.5311 35.9569 66.4444 35.8442 66.4531 35.7489C66.4603 35.691 66.4557 35.6322 66.4396 35.576C66.4235 35.5199 66.3962 35.4676 66.3594 35.4223C66.3226 35.377 66.277 35.3396 66.2253 35.3123C66.1737 35.2851 66.1171 35.2686 66.0589 35.2638C65.9837 35.2427 65.9141 35.2054 65.855 35.1545C65.7958 35.1036 65.7486 35.0403 65.7166 34.9692C65.6213 34.8262 65.565 34.6616 65.4783 34.51C65.3701 34.3203 65.3162 34.1045 65.3224 33.8862C65.3221 33.6129 65.296 33.3402 65.2444 33.0718C65.1383 32.6056 65.1383 32.1215 65.2444 31.6553C65.2876 31.4715 65.2876 31.2803 65.2444 31.0965C65.1966 30.9457 65.1966 30.7838 65.2444 30.633C65.3354 30.4077 65.409 30.1738 65.4827 29.9399C65.5391 29.6872 65.6114 29.4383 65.6993 29.1948C65.8899 28.7616 66.1325 28.3284 66.3361 27.9256C66.3015 27.5573 66.2668 27.1891 66.2235 26.7819C66.1169 26.8204 66.014 26.8682 65.9159 26.9249C65.6603 27.1328 65.4003 27.3581 65.1621 27.566C65.1192 27.6221 65.0584 27.6618 64.9897 27.6783C64.9211 27.6949 64.8489 27.6874 64.7851 27.657C64.7298 27.2505 64.8122 26.8373 65.0191 26.483C65.24 26.0845 65.6993 26.0499 66.0459 25.9112L66.2365 24.7849L65.6646 23.9705C65.5513 23.8213 65.4918 23.6381 65.4957 23.4507C65.5174 23.2216 65.5174 22.991 65.4957 22.762C65.4458 22.5074 65.4458 22.2455 65.4957 21.9909C65.6099 21.6915 65.6456 21.3679 65.5996 21.0509C65.5117 20.7688 65.5117 20.4666 65.5996 20.1845C65.7331 19.7982 65.7526 19.3817 65.656 18.9846C65.6334 18.8294 65.6452 18.6711 65.6906 18.521C65.7217 18.3742 65.7623 18.2295 65.8119 18.0879C65.8601 17.8141 65.8111 17.5322 65.6733 17.2908C65.4626 17.0098 65.3611 16.662 65.3873 16.3118C65.4097 16.111 65.392 15.9079 65.3354 15.714C65.2249 15.4148 65.2249 15.0861 65.3354 14.787C65.3822 14.6452 65.4198 14.5005 65.448 14.3538C65.4674 14.258 65.4674 14.1593 65.448 14.0635C65.3706 13.7219 65.4182 13.3638 65.5823 13.0542C65.6355 12.9604 65.6634 12.8545 65.6634 12.7467C65.6634 12.6388 65.6355 12.5329 65.5823 12.4391C65.4055 12.0296 65.363 11.5746 65.461 11.1395C65.5263 10.8525 65.5129 10.5532 65.422 10.2732C65.377 10.1361 65.3604 9.99128 65.373 9.84757C65.3857 9.70386 65.4274 9.56422 65.4957 9.4371ZM69.5854 27.3494C69.5854 27.4014 69.6547 27.449 69.6851 27.4837C69.8497 27.4837 70.0013 27.3191 69.9927 27.1935C69.9831 27.1627 69.9656 27.1349 69.9421 27.1129C69.9185 27.0909 69.8897 27.0754 69.8583 27.0678C69.8198 27.0578 69.7792 27.0581 69.7408 27.0689C69.7024 27.0797 69.6675 27.1004 69.6398 27.129C69.612 27.1577 69.5923 27.1932 69.5828 27.2319C69.5732 27.2706 69.5742 27.3112 69.5854 27.3494ZM71.8599 25.1575C71.8332 25.1265 71.8043 25.0975 71.7733 25.0708C71.8043 25.0975 71.8332 25.1265 71.8599 25.1575ZM67.7658 19.2575C67.889 19.2397 68.0143 19.2691 68.1167 19.3398C68.0143 19.2691 67.889 19.2397 67.7658 19.2575C67.5913 19.2441 67.4173 19.2899 67.2719 19.3874C67.4194 19.296 67.5932 19.2563 67.7658 19.2748V19.2575ZM72.7047 26.8036C72.7047 26.6303 72.7047 26.4614 72.7047 26.2924C72.7047 26.4614 72.7047 26.6303 72.7047 26.8036C72.7047 26.9509 72.6354 27.0548 72.4794 27.0505C72.6354 27.0505 72.709 26.9509 72.7177 26.7993C72.8977 26.5917 72.9935 26.3244 72.9863 26.0499C72.9925 26.1906 72.9707 26.3311 72.9224 26.4635C72.8741 26.5958 72.8001 26.7173 72.7047 26.8209V26.8036ZM70.1573 39.2577C70.0273 39.2014 69.8973 39.1451 69.7717 39.0801C69.8973 39.1451 70.0273 39.2014 70.1573 39.2577L70.2439 39.3444L70.1573 39.2577ZM69.2605 13.652C69.2605 13.704 69.2042 13.7473 69.1782 13.795C69.1863 13.8762 69.1744 13.9582 69.1434 14.0337C69.1124 14.1093 69.0634 14.176 69.0005 14.2282C69.0005 14.3928 69.0655 14.5011 69.2735 14.4404C69.8757 14.2671 70.0793 14.2065 70.0533 13.4224C70.0533 13.3661 70.0533 13.3098 70.0273 13.2318C69.9407 13.2318 69.8583 13.1928 69.7804 13.1885C69.3255 13.1755 69.3298 13.1798 69.2605 13.652ZM80.4986 24.1005L80.373 24.1265L80.4986 24.1005ZM80.0654 24.3907H79.9484H80.0654Z" fill="#D25046"/>
<path d="M93.4481 47.237C93.631 46.9223 93.7295 46.5657 93.7341 46.2017C93.7341 46.1757 93.7817 46.1367 93.8077 46.1064C93.8077 45.9808 93.8077 45.8508 93.9767 45.8422C94.1673 45.6516 94.3622 45.4609 94.5485 45.2617C94.7348 45.0624 94.9038 44.8285 95.0814 44.6379C95.259 44.4473 95.5796 44.4516 95.8439 44.4949C95.9652 44.4949 96.0345 44.6899 95.9825 44.8155C95.9459 44.8938 95.8927 44.9633 95.8266 45.0191C95.571 45.253 95.3067 45.4739 95.0511 45.7079C94.9598 45.7752 94.8922 45.8698 94.8579 45.978C94.8237 46.0861 94.8246 46.2024 94.8605 46.31C94.9128 46.4854 94.9334 46.6688 94.9211 46.8515C94.8563 47.1721 94.6858 47.4617 94.4367 47.6737C94.1877 47.8858 93.8746 48.0082 93.5478 48.0211C93.4824 48.0247 93.4173 48.0095 93.3603 47.9772C93.3033 47.9449 93.2568 47.897 93.2262 47.8391C93.1957 47.7811 93.1824 47.7157 93.1879 47.6504C93.1934 47.5852 93.2176 47.5229 93.2575 47.4709C93.3138 47.3874 93.3776 47.3091 93.4481 47.237Z" fill="#D25046"/>
<path d="M70.6295 2.35452C70.8617 2.62173 70.9921 2.96229 70.9978 3.3162C70.9749 3.45615 70.8988 3.58185 70.7855 3.66709C70.6772 3.75372 70.5775 3.63243 70.4866 3.56312C70.3688 3.45531 70.2302 3.37276 70.0793 3.32053C69.7216 3.20712 69.3932 3.01633 69.1175 2.76172C68.8706 2.59278 68.8532 2.47581 68.9356 2.16825C68.9519 2.06771 68.9997 1.97495 69.0721 1.90333C69.1445 1.8317 69.2378 1.78492 69.3385 1.76971C69.4207 1.74976 69.5017 1.72517 69.5811 1.69607L70.4476 1.37118C70.4793 1.39005 70.5061 1.41617 70.5258 1.44738C70.5455 1.4786 70.5575 1.51403 70.5609 1.55079C70.5643 1.58755 70.5589 1.62458 70.5452 1.65886C70.5316 1.69315 70.51 1.72371 70.4822 1.74805C70.4132 1.83025 70.3669 1.92907 70.3479 2.0347C70.3289 2.14034 70.3379 2.24909 70.3739 2.35018C70.4692 2.35018 70.5949 2.31553 70.6295 2.35452Z" fill="#D25046"/>
<path d="M66.9037 3.90528C66.9635 3.79256 67.041 3.69018 67.1333 3.60205C67.2048 3.52122 67.2526 3.42232 67.2717 3.31614C67.2908 3.20996 67.2804 3.10058 67.2416 2.99992L67.1896 2.79632C67.1458 2.69371 67.1096 2.58802 67.0813 2.48009C67.0666 2.44028 67.0611 2.39766 67.0652 2.35542C67.0693 2.31318 67.0829 2.27242 67.105 2.23617C67.1271 2.19993 67.1571 2.16914 67.1927 2.14612C67.2284 2.1231 67.2688 2.10843 67.3109 2.10322C67.4044 2.08512 67.5012 2.09571 67.5886 2.13359C67.6759 2.17147 67.7498 2.23488 67.8005 2.31549C67.8694 2.40937 67.9647 2.48054 68.0743 2.5199C68.1839 2.55926 68.3028 2.56501 68.4157 2.53641C68.4962 2.52635 68.5777 2.52635 68.6583 2.53641L68.1211 3.24251C68.2477 3.42058 68.3929 3.58466 68.5543 3.732C68.8056 3.91827 69.1002 4.0439 69.3688 4.21284C69.4358 4.248 69.4937 4.29807 69.5383 4.35919C69.5828 4.4203 69.6128 4.49083 69.6257 4.56533C69.6387 4.63983 69.6344 4.71632 69.6131 4.7889C69.5919 4.86147 69.5542 4.92819 69.5031 4.98392C69.3804 5.14458 69.215 5.26755 69.0258 5.33878C68.8366 5.41001 68.6312 5.42664 68.433 5.38678C68.3155 5.35744 68.202 5.3138 68.0951 5.25683C67.8185 5.0971 67.499 5.02745 67.1809 5.05756C67.0336 5.05756 66.8907 5.05756 66.7477 5.05756L66.4661 5.1572C65.9722 5.30881 65.7426 5.21784 65.448 4.72401L65.7946 4.42511C65.9702 4.25455 66.204 4.157 66.4488 4.1522C66.6437 4.15653 66.7954 4.12188 66.9037 3.90528Z" fill="#D25046"/>
<path d="M60.7907 25.4174C60.7984 25.2881 60.7882 25.1584 60.7604 25.0319C60.7188 24.8905 60.7188 24.7401 60.7604 24.5987C60.7646 24.5475 60.7827 24.4984 60.8127 24.4567C60.8428 24.415 60.8837 24.3824 60.931 24.3623C60.9783 24.3422 61.0302 24.3355 61.0811 24.3428C61.132 24.3501 61.1799 24.3712 61.2196 24.4037C61.2977 24.4675 61.3612 24.5473 61.4059 24.6377C61.4932 24.8492 61.6447 25.0281 61.8392 25.1488C61.8889 25.1733 61.9317 25.21 61.9635 25.2554C61.9953 25.3009 62.0151 25.3536 62.0211 25.4087C61.8953 25.6019 61.7796 25.8014 61.6745 26.0065C61.6034 26.1793 61.4837 26.3277 61.3299 26.4338C61.1761 26.5399 60.9948 26.5991 60.8081 26.6043C60.6781 26.6043 60.5481 26.6043 60.4181 26.6043C60.3662 26.6303 60.3185 26.678 60.2665 26.678C59.9502 26.678 59.6296 26.678 59.3091 26.678C58.9885 26.678 58.8368 26.509 58.8758 26.3574C58.9148 26.2058 59.2137 26.1105 59.4044 26.1885C59.6537 26.2687 59.9219 26.2687 60.1712 26.1885C60.2285 26.1494 60.2894 26.1161 60.3532 26.0888C60.4963 26.051 60.6203 25.9613 60.7011 25.8373C60.782 25.7133 60.8139 25.5636 60.7907 25.4174Z" fill="#D25046"/>
<path d="M62.463 4.86699C62.3484 5.00757 62.2046 5.12147 62.0414 5.20077C61.8783 5.28008 61.6999 5.32287 61.5185 5.32617C61.1251 5.3185 60.7455 5.17977 60.4398 4.93197C60.3287 4.84946 60.2488 4.73166 60.2134 4.59787C60.178 4.46408 60.1891 4.32223 60.2448 4.19555C60.3423 3.9483 60.5113 3.73567 60.7301 3.58475C60.8595 3.50853 60.9958 3.44471 61.1373 3.39415C61.3366 3.48945 61.5315 3.58475 61.7265 3.67139C62.0335 3.85414 62.2874 4.11398 62.463 4.42514C62.5178 4.48568 62.5481 4.56441 62.5481 4.64606C62.5481 4.72771 62.5178 4.80646 62.463 4.86699Z" fill="#D25046"/>
<path d="M72.5574 4.45973C72.7468 4.38158 72.955 4.36085 73.156 4.40013C73.3571 4.43942 73.5421 4.53697 73.6882 4.68066C73.8225 4.81061 73.8355 4.97089 73.6882 5.07486C73.55 5.15897 73.4051 5.23141 73.2549 5.29145C73.1756 5.38218 73.0777 5.4547 72.9678 5.50404C72.8578 5.55339 72.7385 5.5784 72.6181 5.57736C72.4144 5.60768 72.1848 5.57736 72.1198 5.87192C72.0808 6.00621 71.9119 6.10152 71.8122 6.21848C71.7765 6.26581 71.7261 6.29998 71.6689 6.31565C71.6117 6.33132 71.5509 6.32762 71.496 6.30511C71.3789 6.25148 71.2659 6.18922 71.1581 6.11885C71.301 5.71165 71.2274 5.25247 71.5913 4.97523C71.4873 4.84527 71.301 4.77596 71.3573 4.57669C71.759 4.67627 72.1826 4.63498 72.5574 4.45973Z" fill="#D25046"/>
<path d="M85.3422 39.5869C85.442 39.3737 85.5549 39.1668 85.6802 38.9675C85.8058 38.7682 85.8708 38.7639 86.0657 38.8722C86.2607 38.9805 86.5856 39.1667 86.8716 39.3054C86.7848 39.4721 86.6802 39.629 86.5596 39.7732C86.468 39.8835 86.3535 39.9728 86.2242 40.0349C86.0948 40.0969 85.9536 40.1303 85.8101 40.1327C85.7396 40.141 85.6681 40.1318 85.602 40.1059C85.5358 40.0801 85.4771 40.0383 85.4308 39.9844C85.3846 39.9305 85.3524 39.866 85.3369 39.7967C85.3215 39.7274 85.3233 39.6554 85.3422 39.5869Z" fill="#D25046"/>
<path d="M78.6531 34.8912C78.8345 34.8921 79.0131 34.9366 79.1737 35.0211C79.3343 35.1055 79.4723 35.2274 79.5759 35.3764C79.6132 35.4255 79.6367 35.4837 79.644 35.5449C79.6513 35.6062 79.6421 35.6683 79.6173 35.7248C79.5926 35.7813 79.5533 35.8302 79.5033 35.8664C79.4534 35.9026 79.3947 35.9249 79.3333 35.9308C79.2346 35.9502 79.133 35.9502 79.0343 35.9308C78.7181 35.8485 78.3975 35.7576 78.0855 35.6579C77.9556 35.6189 77.8473 35.5453 77.8343 35.4197C77.9657 35.3281 78.0876 35.2236 78.1982 35.1078C78.252 35.0388 78.3211 34.9834 78.4001 34.9458C78.479 34.9082 78.5656 34.8895 78.6531 34.8912Z" fill="#D25046"/>
<path d="M93.4134 16.8143C93.5512 16.807 93.6882 16.8394 93.808 16.9078C93.9278 16.9762 94.0255 17.0775 94.0893 17.1999C94.1976 17.3515 94.3102 17.5031 94.4055 17.6634C94.4293 17.7205 94.4707 17.7686 94.5237 17.8005C94.5767 17.8325 94.6385 17.8466 94.7001 17.841C94.7691 17.8428 94.8367 17.8611 94.8971 17.8943C94.9576 17.9275 95.0093 17.9747 95.0479 18.0319C95.0864 18.0891 95.1108 18.1547 95.1189 18.2232C95.127 18.2917 95.1186 18.3612 95.0944 18.4258C95.0622 18.5604 95.0025 18.6869 94.919 18.7972C94.8355 18.9076 94.73 18.9994 94.6092 19.0669C94.4798 18.9966 94.3566 18.9155 94.2409 18.8243C93.981 18.5817 93.7297 18.3261 93.4741 18.0792L93.4134 18.0142C93.4111 18.0014 93.4111 17.9882 93.4134 17.9753C93.3224 17.7024 93.2228 17.4294 93.1535 17.1522C93.0798 16.9529 93.1881 16.836 93.4134 16.8143Z" fill="#D25046"/>
<path d="M79.4285 19.6863C79.3446 19.7718 79.2549 19.8514 79.1599 19.9246C79.0738 19.8224 79.0141 19.7006 78.9861 19.5699C78.9582 19.4392 78.9628 19.3036 78.9996 19.1751C78.9996 19.0495 79.056 18.9239 79.0646 18.7939C79.1027 18.5324 79.214 18.2871 79.3858 18.0862C79.5575 17.8853 79.7826 17.7372 80.0351 17.659C80.1035 17.6379 80.1764 17.6363 80.2456 17.6543C80.3148 17.6723 80.3777 17.7093 80.4272 17.761C80.4766 17.8127 80.5107 17.8771 80.5256 17.9471C80.5406 18.017 80.5357 18.0898 80.5116 18.1572C80.4294 18.369 80.3187 18.5687 80.1824 18.7506C79.9441 19.0712 79.6842 19.3787 79.4285 19.6863Z" fill="#D25046"/>
<path d="M83.2584 18.1311C83.2982 18.0553 83.3634 17.9959 83.4427 17.9634C83.5219 17.9309 83.6101 17.9274 83.6916 17.9535C83.7764 17.9716 83.8531 18.0162 83.9108 18.0808C83.9685 18.1455 84.004 18.2268 84.0122 18.3131C84.0397 18.456 84.0556 18.6008 84.0599 18.7463C84.0488 18.8443 84.0577 18.9436 84.086 19.0381C84.1143 19.1327 84.1614 19.2205 84.2245 19.2964L84.3805 19.539C84.3198 19.6473 84.2722 19.7339 84.2115 19.8509L84.0555 19.7989C83.8216 19.7079 83.6613 19.578 83.7263 19.2834C83.7263 19.2184 83.6656 19.1361 83.6613 19.0582C83.6396 18.6856 83.2584 18.5123 83.2584 18.1311Z" fill="#D25046"/>
<path d="M85.3509 17.8756C85.4272 17.8413 85.4998 17.7992 85.5675 17.75C85.6826 17.7214 85.8041 17.7334 85.9114 17.7839C86.0188 17.8344 86.1054 17.9203 86.1567 18.0273C86.1605 18.0666 86.1514 18.1062 86.1307 18.1399C86.0987 18.2184 86.0595 18.2938 86.0137 18.3652C85.9383 18.4812 85.839 18.5798 85.7225 18.6545C85.606 18.7292 85.4749 18.7783 85.3379 18.7983C85.2475 18.7928 85.1626 18.753 85.1006 18.6869C85.0386 18.6209 85.0041 18.5337 85.0043 18.4431C85.0216 18.2092 85.0606 17.9666 85.3509 17.8756Z" fill="#D25046"/>
<path d="M84.1768 15.2202C84.2653 15.3143 84.3437 15.4173 84.4108 15.5277C84.5884 15.766 84.5884 15.805 84.4108 16.0606C84.3631 16.1299 84.3068 16.1905 84.2548 16.2555C83.9683 16.1795 83.7153 16.0103 83.5356 15.7747C83.3883 15.5797 83.4446 15.3631 83.6483 15.1639C83.8519 14.9646 83.9819 15.0686 84.1768 15.2202Z" fill="#D25046"/>
<path d="M82.9118 27.0851C82.8316 27.1686 82.7262 27.2232 82.6117 27.2404C82.4973 27.2576 82.3804 27.2365 82.2793 27.1804C82.1406 27.1154 81.9717 27.1198 81.846 27.0678C81.4734 26.9335 81.2265 26.8988 81.4431 26.3314V26.2924C81.5471 26.1321 81.6554 25.9718 81.8763 25.9501C82.0973 25.9285 82.1926 25.9501 82.3486 25.9155C82.4337 25.8874 82.5263 25.8934 82.6071 25.9322C82.6879 25.971 82.7505 26.0395 82.7818 26.1234C82.8165 26.2167 82.8753 26.299 82.9521 26.3622C83.029 26.4253 83.1212 26.467 83.2194 26.483C83.4365 26.4766 83.6525 26.4505 83.8649 26.405C83.9472 26.6996 84.4151 26.6736 84.4714 27.1284L84.3025 27.2887C84.2202 27.2281 84.1682 27.2064 84.1552 27.1761C84.0961 27.0635 84.0048 26.9711 83.8928 26.9109C83.7809 26.8507 83.6535 26.8254 83.527 26.8382C83.2584 26.7992 83.1024 26.9681 82.9118 27.0851ZM81.9587 26.1191L81.82 26.1581L81.9803 26.1234C81.8374 26.262 81.6987 26.379 81.5471 26.5263L82.015 26.1321C82.1285 26.0789 82.2543 26.058 82.3789 26.0714C82.2372 26.0451 82.0909 26.0617 81.9587 26.1191Z" fill="#D25046"/>
<path d="M77.0154 18.4864C76.8975 18.4049 76.8067 18.2899 76.755 18.1563C76.7032 18.0227 76.6928 17.8766 76.7252 17.7369C76.7252 17.5507 76.7252 17.425 76.7252 17.3038C76.7252 17.1825 76.7598 17.0655 76.8941 17.0352C77.0284 17.0049 77.1281 17.1132 77.1801 17.2388C77.2077 17.3197 77.2309 17.4022 77.2494 17.4857C77.2654 17.6358 77.3064 17.7822 77.3707 17.9189C77.4081 17.9841 77.4303 18.057 77.4355 18.132C77.4408 18.207 77.429 18.2823 77.401 18.3521C77.3577 18.5903 77.193 18.6206 77.0154 18.4864Z" fill="#D25046"/>
<path d="M63.4464 27.0678C63.2688 27.1674 63.1432 27.1761 63.0132 27.0678C62.8461 26.9054 62.7379 26.6921 62.7056 26.4613C62.696 26.4064 62.702 26.3498 62.7229 26.298C62.7438 26.2462 62.7787 26.2014 62.8238 26.1684C62.8689 26.1355 62.9223 26.1159 62.978 26.1118C63.0337 26.1076 63.0894 26.1192 63.1388 26.1451C63.3728 26.2794 63.5721 26.4483 63.7887 26.5783C63.7818 26.6834 63.7463 26.7846 63.686 26.8709C63.6256 26.9572 63.5428 27.0253 63.4464 27.0678Z" fill="#D25046"/>
<path d="M85.2772 44.9585C85.2772 44.7592 85.2772 44.6336 85.4505 44.5946C85.5293 44.5685 85.6144 44.5685 85.6932 44.5946C85.7487 44.6309 85.7877 44.6877 85.8015 44.7527C85.8153 44.8176 85.8028 44.8854 85.7668 44.9411C85.7237 45.0252 85.7092 45.1211 85.7256 45.2142C85.742 45.3072 85.7885 45.3924 85.8578 45.4566C85.9586 45.5868 86.0362 45.7333 86.0874 45.8898C86.1155 45.9682 86.1155 46.054 86.0874 46.1324C86.0706 46.2129 86.0313 46.2869 85.974 46.3458C85.9167 46.4047 85.8438 46.4461 85.7639 46.4652C85.6839 46.4843 85.6002 46.4802 85.5225 46.4535C85.4447 46.4268 85.3762 46.3785 85.3249 46.3143C85.1906 46.2017 85.0606 46.0544 85.1429 45.8812C85.2359 45.7486 85.2965 45.596 85.3199 45.4358C85.3432 45.2755 85.3286 45.1121 85.2772 44.9585Z" fill="#D25046"/>
<path d="M80.5506 32.1708C80.6936 32.1708 80.7716 32.2747 80.7976 32.422C80.7976 32.4567 80.8452 32.4913 80.8669 32.526C81.0749 32.8206 81.0749 32.9592 80.8669 33.2061C80.7864 33.2879 80.6994 33.3633 80.607 33.4313C80.5602 33.5826 80.4714 33.7174 80.351 33.8201C80.2306 33.9229 80.0835 33.9894 79.9268 34.0118C79.8653 34.0286 79.8003 34.0275 79.7395 34.0085C79.6787 33.9895 79.6246 33.9535 79.5835 33.9048C79.5425 33.856 79.5163 33.7965 79.5081 33.7334C79.4998 33.6702 79.5098 33.606 79.5369 33.5483C79.6409 33.2841 79.7795 33.0328 79.9095 32.7772C79.9829 32.6372 80.0639 32.5013 80.1521 32.37C80.1985 32.3082 80.2587 32.258 80.3278 32.2234C80.397 32.1888 80.4733 32.1708 80.5506 32.1708Z" fill="#D25046"/>
<path d="M59.7076 30.204C59.8159 30.204 59.9459 30.4293 59.9459 30.5852C59.9377 30.6674 59.9095 30.7462 59.8636 30.8148C59.7683 30.9578 59.6426 31.0834 59.556 31.248C59.52 31.3101 59.467 31.3606 59.4033 31.3936C59.3397 31.4265 59.2679 31.4407 59.1964 31.4343C59.0939 31.2729 59.0477 31.0822 59.0649 30.8918C59.0822 30.7014 59.1619 30.522 59.2917 30.3816C59.3398 30.3187 59.4034 30.2692 59.4763 30.2381C59.5492 30.207 59.6289 30.1952 59.7076 30.204Z" fill="#D25046"/>
<path d="M82.3269 15.1119C82.4578 15.2233 82.5795 15.3449 82.6908 15.4758C82.7565 15.5442 82.8033 15.6284 82.8269 15.7202C82.8504 15.812 82.8498 15.9084 82.8251 15.9999C82.7298 16.3118 82.6128 16.6194 82.4829 16.9876C82.0931 16.6686 81.8253 16.2249 81.7247 15.7314C81.7005 15.6246 81.7068 15.5132 81.7428 15.4098C81.7788 15.3064 81.843 15.2152 81.9283 15.1466C81.977 15.0898 82.046 15.0544 82.1205 15.0479C82.1951 15.0414 82.2691 15.0644 82.3269 15.1119Z" fill="#D25046"/>
<path d="M82.4742 19.604C82.1406 19.8249 81.7507 19.8942 81.4951 20.1844C81.4951 20.2061 81.4431 20.2104 81.4171 20.2234C81.2742 20.2971 81.2048 20.2234 81.1485 20.0978C81.0922 19.9722 80.9622 19.9548 81.0705 19.8119C81.1102 19.7372 81.1379 19.6569 81.1528 19.5736C81.1528 19.4783 81.2005 19.4047 81.3088 19.4047C81.4892 19.3856 81.6639 19.331 81.8231 19.244C81.9822 19.157 82.1225 19.0394 82.2359 18.8979C82.3226 19.1491 82.3919 19.37 82.4742 19.604Z" fill="#D25046"/>
<path d="M77.1367 37.8411C77.1367 37.8931 77.1021 37.9754 77.0717 37.9841C77.038 37.9906 77.0033 37.9901 76.9698 37.9826C76.9362 37.9752 76.9046 37.9609 76.8768 37.9407C76.8138 37.8709 76.7665 37.7883 76.7381 37.6987C76.7097 37.609 76.7009 37.5143 76.7122 37.4209C76.7122 37.1653 76.7122 36.9054 76.7122 36.6498C76.7122 36.4809 76.7122 36.312 76.7122 36.091C77.1454 36.2816 77.206 36.3553 77.1107 36.6932C77.1107 36.7365 77.0761 36.7711 77.0674 36.8145C76.9938 37.1047 76.8768 37.3949 77.0934 37.6808C77.1247 37.7282 77.1399 37.7844 77.1367 37.8411Z" fill="#D25046"/>
<path d="M72.1675 10.8319C72.1949 10.8083 72.2281 10.7925 72.2636 10.786C72.2992 10.7795 72.3358 10.7826 72.3698 10.795C72.4037 10.8073 72.4338 10.8285 72.4569 10.8563C72.4799 10.8841 72.4952 10.9175 72.5011 10.9532C72.5241 11.0642 72.5104 11.1797 72.4621 11.2824C72.3467 11.4497 72.1909 11.5851 72.0091 11.676C71.8273 11.7669 71.6254 11.8103 71.4223 11.8022C71.5483 11.4009 71.8123 11.0571 72.1675 10.8319Z" fill="#D25046"/>
<path d="M76.7598 7.85599C76.8178 7.9092 76.8728 7.9656 76.9244 8.02493C76.7901 8.02493 76.7122 8.02493 76.6385 8.05526C76.5649 8.08558 76.4392 8.08991 76.3309 8.11157L76.4392 8.27185H76.2443C76.1764 8.29805 76.107 8.31976 76.0363 8.33683C76.0011 8.34404 75.9646 8.3416 75.9307 8.32978C75.8968 8.31795 75.8667 8.29718 75.8436 8.26967C75.8205 8.24215 75.8053 8.2089 75.7996 8.17345C75.7938 8.13799 75.7978 8.10164 75.811 8.06825C75.8831 7.94738 75.9673 7.83417 76.0623 7.73037C76.1749 7.57442 76.4219 7.55276 76.4652 7.31884C76.4652 7.28418 76.6255 7.23653 76.6818 7.25819C76.7382 7.27985 76.7598 7.40981 76.6818 7.47912C76.5519 7.64806 76.6168 7.75203 76.7598 7.85599Z" fill="#D25046"/>
<path d="M62.6536 25.3134C62.6315 25.3124 62.61 25.3054 62.5915 25.2931C62.5731 25.2807 62.5584 25.2636 62.549 25.2435C62.5396 25.2234 62.5359 25.2011 62.5383 25.1791C62.5407 25.157 62.5491 25.1361 62.5626 25.1185C62.7533 24.8463 62.9892 24.609 63.2601 24.4167C63.4551 24.2997 63.5894 24.4167 63.5851 24.6333C63.5693 24.7394 63.5325 24.8413 63.477 24.9331C63.4214 25.0249 63.3482 25.1048 63.2615 25.1681C63.1749 25.2313 63.0765 25.2768 62.9722 25.3017C62.8678 25.3267 62.7595 25.3306 62.6536 25.3134Z" fill="#D25046"/>
<path d="M77.0674 27.3061C77.1627 27.2844 77.2624 27.2758 77.453 27.2454C77.5136 27.3148 77.5786 27.4101 77.6566 27.4924C77.7019 27.5287 77.7334 27.5794 77.746 27.6361C77.7586 27.6928 77.7515 27.7521 77.7259 27.8043C77.6552 27.9735 77.5666 28.1347 77.4617 28.2851C77.4304 28.3251 77.3915 28.3584 77.3472 28.3832C77.3029 28.408 77.2541 28.4236 77.2036 28.4293C77.1532 28.4349 77.1021 28.4304 77.0534 28.4161C77.0048 28.4018 76.9594 28.3778 76.9201 28.3457C76.826 28.2876 76.7506 28.2035 76.703 28.1037C76.6553 28.0038 76.6375 27.8923 76.6515 27.7826C76.6688 27.672 76.7171 27.5686 76.7907 27.4843C76.8643 27.4 76.9602 27.3382 77.0674 27.3061Z" fill="#D25046"/>
<path d="M76.6861 31.1268C76.6285 30.9638 76.5808 30.7974 76.5432 30.6287C76.4856 30.4566 76.4834 30.2708 76.5371 30.0975C76.5907 29.9242 76.6974 29.7721 76.8421 29.6627C76.8829 29.6331 76.9296 29.6126 76.9789 29.6024C77.0283 29.5923 77.0793 29.5927 77.1285 29.6038C77.1776 29.6149 77.2239 29.6363 77.2642 29.6666C77.3044 29.6969 77.3378 29.7354 77.362 29.7796C77.4703 29.9789 77.5613 30.2128 77.6523 30.3991C77.7261 30.5866 77.7398 30.7926 77.6913 30.9882C77.6035 31.2604 77.4669 31.5143 77.2883 31.7376C77.2125 31.8719 77.1612 32.0186 77.1367 32.1708C77.1609 32.3208 77.2062 32.4666 77.271 32.604C77.2753 32.6617 77.2753 32.7196 77.271 32.7773C77.3923 33.1455 77.505 33.5137 77.6393 33.8776C77.6978 34.0235 77.6978 34.1865 77.6393 34.3324C77.5959 34.4537 77.5483 34.575 77.5006 34.6963C77.4976 34.7842 77.4638 34.8683 77.4053 34.934C77.3467 34.9996 77.267 35.0428 77.18 35.0558C77.1205 35.0675 77.0654 35.0956 77.021 35.1369C76.9766 35.1783 76.9446 35.2312 76.9288 35.2898C76.8378 35.489 76.6428 35.528 76.5215 35.3547C76.4002 35.1815 76.3526 35.0255 76.4045 34.9216C76.5388 34.6616 76.4045 34.4104 76.4609 34.1591C76.2832 33.9382 76.4089 33.6826 76.3829 33.4487C76.3555 33.2544 76.3724 33.0565 76.4324 32.8696C76.4925 32.6828 76.594 32.512 76.7295 32.3701C76.8105 32.2872 76.8621 32.1799 76.8762 32.0649C76.8902 31.9498 76.8661 31.8333 76.8075 31.7333C76.7441 31.5364 76.7034 31.3329 76.6861 31.1268Z" fill="#D25046"/>
<path d="M85.9531 42.5413C85.7885 42.6669 85.6672 42.6452 85.5675 42.4633C85.5264 42.3869 85.4958 42.3053 85.4766 42.2207C85.4419 42.0648 85.4202 41.9088 85.3899 41.7572C85.3229 41.7268 85.2689 41.6734 85.2379 41.6066C85.2069 41.5398 85.2009 41.4642 85.2209 41.3933C85.224 41.2954 85.2556 41.2006 85.3119 41.1204C85.3741 41.0588 85.4547 41.0192 85.5415 41.0074C85.6283 40.9957 85.7165 41.0126 85.7928 41.0555C85.8632 41.073 85.9241 41.117 85.9629 41.1783C86.0016 41.2397 86.0152 41.3136 86.0008 41.3847C85.9811 41.4844 85.9951 41.5879 86.0406 41.6788C86.0861 41.7698 86.1604 41.8431 86.2521 41.8872C86.2714 41.9085 86.2862 41.9335 86.2954 41.9608C86.2495 42.1872 86.129 42.3916 85.9531 42.5413Z" fill="#D25046"/>
<path d="M85.4982 32.1664C85.5659 32.1421 85.6355 32.1233 85.7062 32.1101C85.8838 32.1101 86.0874 32.2574 86.0787 32.396C86.0653 32.518 86.0101 32.6317 85.9224 32.7177C85.8348 32.8038 85.7201 32.8569 85.5978 32.8682C85.3899 32.8898 85.2166 32.6776 85.1646 32.4956C85.1126 32.3137 85.2859 32.2184 85.4982 32.1664Z" fill="#D25046"/>
<path d="M53.7506 31.8675C53.7506 32.0148 53.6293 32.0408 53.5513 32.1144C53.3997 32.253 53.2134 32.3743 53.2697 32.6212C53.1355 32.6485 52.9965 32.6409 52.8661 32.5992C52.7356 32.5575 52.6181 32.483 52.5246 32.383C52.1953 32.2184 52.1563 31.8978 52.0913 31.5902C52.0892 31.56 52.0892 31.5296 52.0913 31.4993C51.9996 31.1211 51.8234 30.7685 51.5758 30.4683C51.4559 30.3051 51.3514 30.131 51.2638 29.9485C51.0905 29.6539 51.1209 29.5499 51.4198 29.2987C51.6104 29.0128 51.853 29.1384 52.1043 29.1904C52.1043 29.3117 52.1043 29.4113 52.1043 29.5109C52.1043 29.8965 52.1043 29.8965 52.4466 30.0957H52.6199L52.7975 30.0134C52.8538 29.9225 52.9145 29.9225 52.9708 30.0134L53.0574 30.1001L53.1397 30.1911C53.1701 30.2517 53.2004 30.308 53.2264 30.3687C53.2285 30.3946 53.2285 30.4207 53.2264 30.4466C53.438 30.709 53.6103 31.0009 53.7376 31.313C53.8546 31.3867 53.8286 31.4949 53.8026 31.6032C53.7766 31.7115 53.7723 31.7895 53.7506 31.8675Z" fill="#D25046"/>
<path d="M78.6964 39.7733L78.7831 39.8642L78.8697 39.9509L79.3029 40.1502C78.9044 40.3148 78.8697 40.3104 78.6098 40.1242C78.449 40.0679 78.2926 39.9998 78.1419 39.9206C78.0781 39.8744 78.0253 39.8148 77.9871 39.7459C77.949 39.6771 77.9264 39.6007 77.9211 39.5222C77.9157 39.4437 77.9276 39.365 77.9561 39.2916C77.9845 39.2182 78.0287 39.1519 78.0855 39.0975C78.1939 39.4181 78.4928 39.5697 78.6964 39.7733Z" fill="#D25046"/>
<path d="M74.9749 38.1791C75.0292 38.1546 75.0908 38.1517 75.1471 38.171C75.2035 38.1903 75.2503 38.2304 75.2782 38.2831C75.328 38.3424 75.3595 38.415 75.3687 38.4919C75.3779 38.5688 75.3645 38.6468 75.3301 38.7162C75.2305 38.9025 75.1265 39.0281 74.8969 38.9588C74.8383 38.8755 74.7993 38.78 74.7828 38.6795C74.7663 38.579 74.7727 38.476 74.8016 38.3784C74.8158 38.3353 74.8385 38.2955 74.8682 38.2613C74.898 38.2271 74.9342 38.1992 74.9749 38.1791Z" fill="#D25046"/>
<path d="M56.3977 26.9161C56.3207 26.9102 56.246 26.8871 56.179 26.8487C56.1121 26.8102 56.0545 26.7574 56.0105 26.6939C55.9665 26.6304 55.9372 26.558 55.9248 26.4818C55.9123 26.4056 55.917 26.3275 55.9385 26.2534C55.9495 26.2268 55.9669 26.2034 55.989 26.1851C56.0111 26.1667 56.0374 26.154 56.0655 26.148C56.0936 26.1421 56.1228 26.143 56.1505 26.1508C56.1781 26.1586 56.2035 26.173 56.2244 26.1927C56.3358 26.3038 56.4359 26.4257 56.5233 26.5566C56.5446 26.5904 56.5587 26.6283 56.5646 26.6678C56.5706 26.7073 56.5683 26.7476 56.558 26.7862C56.5233 26.8555 56.428 26.8901 56.3977 26.9161Z" fill="#D25046"/>
<path d="M81.2222 38.9068C81.2565 38.8801 81.2979 38.8641 81.3413 38.8608C81.3847 38.8576 81.428 38.8672 81.466 38.8884C81.5039 38.9097 81.5347 38.9417 81.5545 38.9804C81.5744 39.0191 81.5823 39.0628 81.5774 39.1061C81.5741 39.2318 81.5566 39.3568 81.5254 39.4786C81.5209 39.504 81.5104 39.528 81.4949 39.5487C81.4793 39.5693 81.4591 39.586 81.4359 39.5974C81.4127 39.6088 81.3872 39.6146 81.3613 39.6142C81.3355 39.6139 81.3101 39.6075 81.2871 39.5956C81.2189 39.5762 81.1494 39.5618 81.0792 39.5522C81.0792 39.4396 81.0532 39.3443 81.0359 39.2447C80.9796 39.0757 81.0922 38.9848 81.2222 38.9068Z" fill="#D25046"/>
<path d="M75.1222 41.7139C75.2005 41.7538 75.2649 41.8166 75.3067 41.894C75.3485 41.9714 75.3657 42.0597 75.3561 42.1471C75.3345 42.3073 75.2175 42.3507 75.0789 42.3723L74.9272 42.4026C74.8776 42.317 74.8459 42.2221 74.834 42.1238C74.822 42.0256 74.8302 41.9259 74.8579 41.8308C74.8604 41.8014 74.8707 41.7731 74.8878 41.749C74.905 41.7249 74.9283 41.7059 74.9553 41.694C74.9824 41.682 75.0121 41.6775 75.0415 41.681C75.0709 41.6845 75.0987 41.6959 75.1222 41.7139Z" fill="#D25046"/>
<path d="M79.6322 27.0073C79.7058 26.9639 79.8488 26.9293 79.9008 26.9683C79.9868 27.044 80.06 27.1333 80.1174 27.2325C80.1174 27.5011 79.9874 27.6137 79.8098 27.5531C79.7419 27.5271 79.6778 27.4921 79.6192 27.4491C79.5841 27.4234 79.5559 27.3895 79.5368 27.3504C79.5177 27.3114 79.5085 27.2682 79.5097 27.2248C79.511 27.1813 79.5228 27.1388 79.5441 27.1009C79.5655 27.063 79.5957 27.0309 79.6322 27.0073Z" fill="#D25046"/>
<path d="M94.4402 49.9964C94.4512 50.0754 94.4512 50.1556 94.4402 50.2347C94.4362 50.2879 94.4189 50.3393 94.3897 50.384C94.3605 50.4288 94.3205 50.4654 94.2734 50.4905C94.2262 50.5156 94.1735 50.5283 94.1201 50.5275C94.0667 50.5267 94.0143 50.5124 93.968 50.4859C93.925 50.471 93.887 50.4443 93.8584 50.4089C93.8299 50.3735 93.8119 50.3308 93.8064 50.2856C93.801 50.2404 93.8084 50.1946 93.8278 50.1534C93.8472 50.1123 93.8777 50.0774 93.916 50.0527C93.9878 49.9923 94.0761 49.9546 94.1695 49.9446C94.2629 49.9346 94.3571 49.9526 94.4402 49.9964Z" fill="#D25046"/>
<path d="M50.7136 17.9578C50.653 17.6199 50.7136 17.4597 50.9433 17.3254C50.9625 17.3082 50.9856 17.296 51.0106 17.2897C51.0356 17.2834 51.0618 17.2832 51.0869 17.2891C51.1119 17.2951 51.1352 17.307 51.1547 17.3239C51.1742 17.3407 51.1894 17.362 51.1989 17.386C51.2232 17.429 51.2359 17.4775 51.2359 17.5268C51.2359 17.5761 51.2232 17.6246 51.1989 17.6676C51.1079 17.9102 50.9043 17.9102 50.7136 17.9578Z" fill="#D25046"/>
<path d="M79.8878 36.6889C79.8505 36.5343 79.8631 36.3718 79.9238 36.2247C79.9845 36.0777 80.0902 35.9536 80.2257 35.8702C80.2941 35.9168 80.3411 35.9885 80.3566 36.0698C80.372 36.151 80.3545 36.235 80.308 36.3034C80.1954 36.481 80.1997 36.7366 79.8878 36.6889Z" fill="#D25046"/>
<path d="M79.9571 37.369C79.8976 37.3158 79.854 37.2472 79.8311 37.1708C79.8082 37.0943 79.8068 37.013 79.8271 36.9359C79.8271 36.8709 80.0048 36.8276 80.1044 36.7842C80.1044 36.7842 80.1564 36.7842 80.2257 36.7842C80.2414 36.9601 80.2414 37.1369 80.2257 37.3127C80.1954 37.434 80.0698 37.4514 79.9571 37.369Z" fill="#D25046"/>
<path d="M79.8531 30.4813C80.0004 30.5376 80.0091 30.6719 80.0004 30.8105C80.0016 30.8321 79.9984 30.8537 79.9908 30.8739C79.9832 30.8941 79.9715 30.9126 79.9565 30.928C79.9414 30.9435 79.9233 30.9557 79.9032 30.9638C79.8832 30.9719 79.8617 30.9758 79.8401 30.9751C79.7824 30.9845 79.7232 30.9719 79.6743 30.9398C79.6254 30.9078 79.5903 30.8585 79.5759 30.8018C79.5759 30.7195 79.5412 30.6372 79.5282 30.5723C79.5607 30.5187 79.6124 30.4795 79.6727 30.4626C79.733 30.4457 79.7975 30.4524 79.8531 30.4813Z" fill="#D25046"/>
<path d="M83.501 40.1848C83.5064 40.1339 83.5308 40.0869 83.5694 40.0531C83.6079 40.0194 83.6577 40.0015 83.7089 40.0028C83.8259 40.0028 83.9212 40.1111 83.9126 40.2844C83.8649 40.3147 83.7912 40.3927 83.7133 40.4014C83.6566 40.4002 83.6026 40.3769 83.5629 40.3364C83.5232 40.2959 83.501 40.2415 83.501 40.1848Z" fill="#D25046"/>
<path d="M60.6607 14.2238C60.5394 14.2238 60.4441 14.1025 60.4658 13.9508C60.4658 13.8989 60.5308 13.8512 60.6001 13.7472C60.6846 13.8493 60.7586 13.9596 60.821 14.0765C60.821 14.0765 60.7301 14.2108 60.6607 14.2238Z" fill="#D25046"/>
<path d="M94.059 52.6648C94.1283 52.6648 94.1889 52.7428 94.2972 52.8164C94.1846 52.8771 94.1153 52.9377 94.0416 52.9421C93.968 52.9464 93.9377 52.8424 93.9377 52.7861C93.9377 52.7298 94.0243 52.6562 94.059 52.6648Z" fill="#D25046"/>
<path d="M79.2553 26.6173L79.082 26.4397C78.8134 26.4397 78.7874 26.1711 78.6747 26.0065C78.6487 25.9719 78.7007 25.8332 78.7571 25.7943C78.7805 25.7726 78.8083 25.7562 78.8387 25.7463C78.869 25.7364 78.9011 25.7332 78.9328 25.7369C78.9645 25.7406 78.9951 25.7511 79.0223 25.7678C79.0495 25.7844 79.0729 25.8067 79.0906 25.8332C79.1296 25.8332 79.2033 25.8332 79.2076 25.7943C79.2509 25.5257 79.4546 25.4434 79.6668 25.3611C79.6941 25.3714 79.7202 25.3845 79.7448 25.4001C79.8488 25.4824 79.9008 25.699 80.1001 25.5387C80.1351 25.5552 80.164 25.5826 80.1824 25.6166C80.1882 25.6361 80.1888 25.6567 80.1843 25.6764C80.1797 25.6961 80.1701 25.7144 80.1564 25.7293C79.9485 25.8722 79.7232 26.0108 79.5282 26.1625C79.8185 26.3834 79.8185 26.4657 79.5282 26.639C79.4286 26.7343 79.3593 26.7343 79.2553 26.6173Z" fill="#D25046"/>
<path d="M79.7492 48.3244C79.798 47.9322 79.8125 47.5365 79.7925 47.1418C79.7757 46.9874 79.7957 46.8312 79.8506 46.686C79.9056 46.5407 79.994 46.4104 80.1087 46.3057C80.23 46.1585 80.3254 46.1671 80.451 46.3057C80.4811 46.363 80.503 46.4243 80.516 46.4877L80.646 46.3187C80.7805 46.145 80.844 45.9267 80.8236 45.708C80.6414 45.6675 80.4784 45.5659 80.3618 45.4202C80.2452 45.2744 80.1819 45.0932 80.1824 44.9066C80.2115 44.7571 80.2787 44.6176 80.3773 44.5015C80.4759 44.3854 80.6028 44.2967 80.7456 44.2438L81.2048 44.1095C81.3641 44.0584 81.5348 44.0546 81.6963 44.0984C81.8577 44.1422 82.003 44.2318 82.1146 44.3564C82.3341 44.5773 82.5169 44.8317 82.6562 45.1102C82.7811 45.2847 82.8844 45.4738 82.9638 45.6733C83.0369 46.0567 83.2103 46.414 83.4663 46.7086C83.5653 46.8256 83.6147 46.9765 83.6042 47.1294C83.5937 47.2822 83.524 47.425 83.41 47.5273C83.2854 47.7034 83.1698 47.8855 83.0634 48.0732C83.0374 48.2464 82.9464 48.437 82.9984 48.58C83.0422 48.7399 83.0536 48.9069 83.032 49.0713C83.0104 49.2357 82.9563 49.3941 82.8728 49.5373C82.8423 49.6236 82.8177 49.7119 82.7991 49.8016C82.9132 49.8908 83.0333 49.9718 83.1587 50.0442C83.2395 50.0763 83.3122 50.126 83.3715 50.1896C83.4308 50.2532 83.4754 50.3291 83.5019 50.4119C83.5284 50.4947 83.5362 50.5824 83.5248 50.6686C83.5134 50.7548 83.4831 50.8374 83.436 50.9105C83.3032 51.098 83.2184 51.3151 83.1891 51.543C83.1915 51.6098 83.1681 51.675 83.1237 51.725C83.0794 51.775 83.0174 51.806 82.9508 51.8116C82.6607 51.8466 82.38 51.9363 82.1233 52.0758C82.1623 52.1711 82.2403 52.2621 82.2273 52.3444C82.2075 52.5982 82.1506 52.8478 82.0583 53.0851C81.95 53.2974 81.9067 53.3147 81.6251 53.1978C81.4258 53.3061 81.3565 53.1501 81.2785 53.0202C81.0861 52.9333 80.9321 52.7793 80.8452 52.587C80.8106 52.5307 80.7716 52.418 80.7413 52.418C80.516 52.418 80.425 52.2361 80.282 52.1321C79.8098 51.7856 79.8488 51.3914 80.386 51.0838C80.4802 51.2025 80.5575 51.3337 80.6156 51.4737C80.6207 51.5148 80.6372 51.5536 80.6632 51.5858C80.6892 51.6179 80.7238 51.6421 80.7629 51.6556C80.8615 51.6726 80.9628 51.6603 81.0545 51.6203C81.1461 51.5802 81.224 51.5142 81.2785 51.4304C81.3923 51.1869 81.4198 50.9118 81.3565 50.6506C81.3446 50.5347 81.3039 50.4237 81.238 50.3276C81.1722 50.2315 81.0833 50.1534 80.9795 50.1005C80.9059 50.0701 80.8582 49.9835 80.7976 49.9185L80.4207 49.5157H80.334C80.2084 49.5157 80.0784 49.5157 80.0741 49.3424H79.9874L79.9008 49.2514L79.8141 49.1648L79.7318 49.0781V48.9005C79.6668 48.8746 79.6668 48.8442 79.7318 48.8139V48.7273C79.6625 48.6969 79.6625 48.671 79.7318 48.6406V48.5757C79.6322 48.502 79.6365 48.411 79.7492 48.3244ZM82.0886 45.4134C82.2403 45.3008 82.2316 45.4827 82.3096 45.4914C82.3399 45.4524 82.3789 45.4134 82.3962 45.422C82.4136 45.4307 82.3312 45.461 82.2966 45.4827C82.2619 45.5044 82.2403 45.3008 82.0886 45.4134ZM81.1702 45.7253C81.1551 45.8025 81.1551 45.882 81.1702 45.9592C81.1551 45.882 81.1551 45.8025 81.1702 45.7253ZM82.7688 50.9539C82.7298 51.0102 82.6692 51.0795 82.6388 51.0665C82.6735 51.0665 82.7342 51.0015 82.7861 50.9625C82.8381 50.9235 82.9118 51.0751 82.9421 50.9322C82.9118 51.0751 82.8381 50.9539 82.7775 50.9322L82.7688 50.9539ZM80.7673 47.0552C80.6806 47.1678 80.7413 47.2804 80.8799 47.2977C81.1268 47.3237 81.2135 47.2501 81.3131 46.9165C81.1936 46.9034 81.0731 46.9034 80.9536 46.9165C80.8802 46.9409 80.8154 46.986 80.7673 47.0465V47.0552Z" fill="#D25046"/>
<path d="M53.1657 32.7729C53.1657 32.7729 53.1657 32.7989 53.1657 32.8032C53.1657 32.8075 53.1397 32.8032 53.1267 32.8032L53.1527 32.7599L53.1657 32.7729Z" fill="#D25046"/>
<path d="M86.9019 16.0865L86.9409 16.0476C86.9423 16.0576 86.9423 16.0678 86.9409 16.0779L86.9019 16.0865Z" fill="#D25046"/>
<path d="M87.4174 15.6533L87.3784 15.6923C87.377 15.6823 87.377 15.6721 87.3784 15.662L87.4174 15.6533Z" fill="#D25046"/>
<path d="M80.6026 46.2927L80.6373 46.3274C80.6373 46.3274 80.6373 46.3274 80.6113 46.3274C80.5853 46.3274 80.6026 46.3014 80.6026 46.2927Z" fill="#D25046"/>
<path d="M71.3184 4.53774L71.3574 4.57672H71.327C71.327 4.57672 71.3227 4.5464 71.3184 4.53774Z" fill="#D25046"/>
<path d="M76.2443 41.3196C76.27 41.1752 76.3432 41.0435 76.4523 40.9454C76.5614 40.8473 76.7001 40.7884 76.8465 40.7781C77.0024 40.7512 77.1627 40.7798 77.2997 40.859C77.4367 40.9382 77.5415 41.0628 77.596 41.2113C77.6797 41.3797 77.7241 41.5648 77.7259 41.7528C77.7259 42.095 77.7259 42.4416 77.7519 42.7838C77.7779 43.126 77.7823 43.5029 77.7823 43.8581C77.7846 43.9736 77.7513 44.087 77.687 44.183C77.5584 44.3902 77.4993 44.633 77.518 44.8761C77.6176 44.9454 77.6003 45.0494 77.583 45.149C77.5489 45.2914 77.5258 45.4362 77.5137 45.5822C77.5137 46.0414 77.5137 46.5005 77.5137 46.9641C77.5137 47.3149 77.479 47.3453 77.0804 47.4796C76.8465 47.1633 76.8335 47.1633 76.8941 46.8211C76.9455 46.617 76.9403 46.4027 76.8793 46.2013C76.8182 45.9998 76.7036 45.8188 76.5475 45.6775C76.4694 45.6112 76.4073 45.528 76.366 45.4342C76.3247 45.3404 76.3053 45.2384 76.3093 45.136C76.2096 45.0667 76.2226 44.9627 76.2443 44.8631C76.2682 44.713 76.3336 44.5727 76.4331 44.4578C76.5327 44.343 76.6623 44.2583 76.8075 44.2133C76.8638 43.7801 76.8898 43.3469 76.9721 42.9441C77.0033 42.8052 76.9905 42.6601 76.9353 42.5289C76.8802 42.3977 76.7855 42.2869 76.6645 42.212C76.5735 42.1427 76.4566 42.108 76.3613 42.043C76.032 41.8135 76.0147 41.6575 76.2659 41.298L76.2443 41.3196Z" fill="#D25046"/>
</svg>
