<svg width="99" height="80" viewBox="0 0 99 80" fill="none" xmlns="http://www.w3.org/2000/svg">
<path d="M22.836 67.4272C35.046 67.4272 43.758 58.5832 43.758 43.2712C43.758 27.9592 35.046 19.1152 22.836 19.1152C10.626 19.1152 1.914 27.9592 1.914 43.2712C1.914 58.5832 10.626 67.4272 22.836 67.4272ZM22.836 54.9532C19.8 54.9532 17.556 52.1812 17.556 43.2712C17.556 34.3612 19.8 31.5892 22.836 31.5892C25.872 31.5892 28.116 34.3612 28.116 43.2712C28.116 52.1812 25.872 54.9532 22.836 54.9532ZM92.4253 46.3732H86.2873V39.3112H71.6353V46.3732H65.3653L82.7893 20.1712H66.8173L47.2153 48.5512V58.4512H71.1733V66.3712H86.2873V58.4512H92.4253V46.3732Z" fill="#D25046"/>
<path d="M67.9211 23.7496C67.9481 23.5202 68.0304 23.3007 68.1609 23.1099C68.3058 22.9245 68.3751 22.691 68.3549 22.4566C68.3346 22.2221 68.2264 22.0039 68.0519 21.846C67.9604 21.7549 67.875 21.658 67.796 21.5559C67.6182 21.3165 67.3603 21.1491 67.0693 21.084C67.0016 21.0563 66.9259 21.0548 66.8571 21.0798C66.7884 21.1049 66.7314 21.1546 66.6973 21.2194C66.5463 21.4519 66.3976 21.6808 66.2466 21.9133C66.1966 21.9753 66.1678 22.0518 66.1644 22.1314C66.1611 22.211 66.1833 22.2897 66.228 22.3557C66.331 22.5457 66.4228 22.7416 66.503 22.9424C66.5994 23.1599 66.4776 23.3236 66.3752 23.505C66.2729 23.6865 66.109 23.5491 65.9908 23.6118C65.8414 23.5267 65.705 23.4207 65.5857 23.297C65.3631 23.0302 65.0936 22.8062 64.7906 22.6361C64.7261 22.5856 64.6503 22.5516 64.5697 22.537C64.4891 22.5225 64.4062 22.5279 64.3282 22.5527C64.2463 22.5832 64.1601 22.6004 64.0728 22.6038C63.9491 22.6023 63.8276 22.6364 63.7228 22.702C63.6179 22.7676 63.5341 22.8619 63.4813 22.9738C63.3704 23.1586 63.2299 23.3238 63.0655 23.463C63.0065 23.5217 62.9357 23.5672 62.8578 23.5965C62.78 23.6258 62.6968 23.6384 62.6137 23.6332C62.5307 23.6281 62.4497 23.6054 62.376 23.5667C62.3024 23.528 62.2377 23.4742 62.1864 23.4087C62.0888 23.2813 61.95 23.1918 61.7938 23.1553C61.6376 23.1189 61.4735 23.1377 61.3296 23.2087C61.2519 23.2409 61.1595 23.248 61.0794 23.2838C60.6466 23.484 60.1587 23.5313 59.6955 23.4181C59.5168 23.3434 59.3439 23.2517 59.1617 23.1902C58.9795 23.1287 58.7878 23.0818 58.5986 23.0312C58.4408 22.761 58.3514 22.4565 58.3379 22.1439C58.3794 22.0826 58.399 22.009 58.3935 21.9352C58.388 21.8614 58.3578 21.7915 58.3078 21.7369C58.0579 21.3686 57.705 21.0819 57.2932 20.9128C57.1588 20.8885 57.0369 20.8185 56.9481 20.7147C56.8593 20.6109 56.809 20.4797 56.8057 20.3431C56.7855 20.2628 56.7713 20.1813 56.7547 20.1034C56.8302 19.9871 56.9311 19.8874 57.0233 19.7613C57.1155 19.6353 57.2038 19.6823 57.2756 19.7547C57.3606 19.8462 57.4389 19.9436 57.5098 20.0463C57.7055 20.244 57.9424 20.396 58.2036 20.4915C58.4649 20.5871 58.7439 20.6237 59.021 20.5989L59.3381 20.5879C59.4602 20.602 59.5833 20.6041 59.7058 20.5943C59.751 20.583 59.7932 20.5622 59.8297 20.5334C59.8662 20.5046 59.8962 20.4684 59.9177 20.4271C59.921 20.3807 59.9135 20.3342 59.8956 20.2912C59.8778 20.2483 59.8502 20.2101 59.815 20.1797C59.4729 19.911 59.1553 19.6841 58.8279 19.4405C58.8095 19.2064 58.821 18.966 58.6206 18.7893C58.5697 18.4562 58.6122 18.1155 58.7432 17.805C58.7863 17.7065 58.7958 17.5967 58.7702 17.4923C58.7446 17.3879 58.6854 17.2949 58.6017 17.2275L58.5762 17.1077L58.5471 16.9854C58.5701 16.9096 58.5829 16.8311 58.5851 16.7519C58.5734 16.4757 58.5674 16.4769 58.8446 16.3523C59.1121 16.3142 59.1121 16.3142 59.0806 15.989L59.1458 15.7214C59.5385 15.4031 59.9276 15.0824 60.3464 14.7398C60.1356 14.7541 59.9257 14.7798 59.7177 14.817C59.6128 14.8537 59.5129 14.9034 59.4202 14.9647C59.2306 14.9862 59.2113 15.1751 59.1153 15.2832C59.0193 15.3913 59.0209 15.4285 58.9737 15.5012C58.9265 15.5739 58.9124 15.5957 58.881 15.5804C58.8252 15.5681 58.774 15.5403 58.7333 15.5002C58.6927 15.46 58.6642 15.4093 58.6511 15.3537C58.607 15.0874 58.5401 14.8167 58.4825 14.5314C58.2592 14.3502 58.1524 14.6579 57.9915 14.6671C57.9564 14.8223 57.9334 14.9801 57.9227 15.1389C57.9201 15.318 57.8977 15.5513 57.9963 15.6619C58.095 15.7725 58.0677 15.9975 58.1727 16.138C58.1727 16.138 58.1185 16.2216 58.0878 16.2688C58.0571 16.316 57.8768 16.3074 57.8283 16.3741C57.7646 16.439 57.6881 16.49 57.6038 16.5241C57.5195 16.5582 57.429 16.5746 57.338 16.5722L57.0967 16.5859C57.0647 16.6912 57.0546 16.802 57.0671 16.9114C57.0796 17.0208 57.1144 17.1264 57.1693 17.2219L57.1841 17.8513L57.2568 17.8985C57.3133 17.7914 57.3459 17.6734 57.3523 17.5525C57.3459 17.6734 57.3133 17.7914 57.2568 17.8985L57.1841 17.8513C57.1593 17.9192 57.1385 17.9884 57.1217 18.0587C57.1119 18.2742 57.0486 18.4838 56.9376 18.6687C56.8265 18.8535 56.6712 19.0079 56.4856 19.1177C56.4856 19.1177 56.4526 19.1686 56.4385 19.1904C56.1957 19.4924 55.9373 19.7814 55.6643 20.0564C55.4779 20.2152 55.3487 20.4307 55.2968 20.67C55.2344 21.0408 55.0832 21.391 54.8561 21.6906C54.8272 21.7232 54.8033 21.7599 54.7853 21.7996C54.7649 21.8388 54.7532 21.8819 54.7511 21.926C54.7491 21.9702 54.7567 22.0142 54.7734 22.0551C54.7902 22.096 54.8156 22.1327 54.8481 22.1628C54.8805 22.1928 54.9191 22.2153 54.9612 22.2289C55.1954 22.3039 55.4 22.4512 55.5454 22.6496C55.5259 22.9014 55.5816 23.1534 55.7056 23.3735C55.7689 23.6044 55.8504 23.8301 55.9493 24.0482C55.9844 24.1514 56.0429 24.2452 56.1201 24.3222C56.1973 24.3992 56.2911 24.4574 56.3944 24.4923C56.6028 24.5294 56.8138 24.4908 56.9973 24.6617C57.0845 24.7183 57.2441 24.7032 57.3753 24.716L57.647 24.7272L57.6967 25.3586C57.721 25.4854 57.709 25.6166 57.6619 25.7368C57.6149 25.8571 57.5348 25.9616 57.4309 26.0383C57.0912 26.2588 56.851 26.6031 56.7612 26.998C56.7278 27.1607 56.6458 27.3094 56.5259 27.4243C56.406 27.5393 56.254 27.6151 56.0901 27.6416C56.034 27.6724 55.9791 27.7091 55.923 27.7398C55.7979 27.7232 55.6717 27.7155 55.5454 27.7167C55.4046 27.7171 55.2644 27.7374 55.1292 27.7769C54.9772 27.828 54.956 27.964 55.042 28.118L55.1967 28.3889C55.0142 28.5029 54.8521 28.6093 54.6887 28.7098L54.5665 28.7389L54.5193 28.8116C54.4632 28.8423 54.4107 28.8754 54.3522 28.9097C54.2938 28.9441 54.272 28.9299 54.2324 28.9352L54.1102 28.9643L53.9903 28.9898L53.8705 29.0152C53.8156 29.0519 53.7595 29.0826 53.7047 29.1193C53.6166 29.1138 53.5285 29.1317 53.4495 29.171C53.3704 29.2103 53.3031 29.2698 53.2544 29.3434C53.1789 29.4597 53.101 29.5796 53.0185 29.7067C53.0019 29.7322 52.9831 29.7612 52.9666 29.7867C52.9831 29.7612 53.0019 29.7322 53.0185 29.7067C52.9593 29.6843 52.8961 29.6744 52.8329 29.6776C52.7697 29.6808 52.7079 29.697 52.6512 29.7252C52.5946 29.7534 52.5444 29.793 52.5038 29.8415C52.4632 29.89 52.433 29.9464 52.4153 30.0072C52.3951 30.0422 52.373 30.0762 52.3492 30.1089L52.0357 30.1223C51.9365 30.0423 51.8294 29.9727 51.716 29.9146C51.5218 29.8493 51.3495 29.7314 51.2183 29.5741C51.087 29.4168 51.0018 29.2263 50.9722 29.0235C51.0179 28.8889 51.0283 28.7448 51.0024 28.6051C50.9765 28.4653 50.9152 28.3344 50.8244 28.2251C50.6243 28.0256 50.4056 27.8455 50.1714 27.6874L50.1152 27.5114C50.094 27.5441 50.0727 27.5768 50.0261 27.593L49.8081 27.4514C49.9643 27.1552 49.601 27.3169 49.5731 27.2007C49.5863 27.1733 49.6029 27.1476 49.6227 27.1244C49.8027 26.952 49.9602 26.7575 50.0915 26.5456C50.1635 26.4356 50.2079 26.3098 50.2209 26.1789C50.234 26.048 50.2153 25.9159 50.1665 25.7938C50.0987 25.6516 50.0596 25.4971 50.0061 25.3487L49.7844 25.3958L49.7517 25.3746C49.7352 25.3873 49.7235 25.4052 49.7187 25.4254C49.8858 25.534 49.63 25.6416 49.7215 25.7631C49.7619 25.8202 49.7414 25.9154 49.7496 25.9982L48.9406 26.0668L48.8486 27.0039C48.9768 27.0711 49.0984 27.15 49.2119 27.2399C49.2482 27.2635 49.2194 27.3636 49.2238 27.4284L49.1511 27.3812L48.8133 27.2651L48.6364 27.0521L48.5638 27.0049C48.5427 26.9245 48.5046 26.8494 48.452 26.785C48.3993 26.7205 48.3335 26.6681 48.2589 26.6313C47.895 26.5552 47.5291 26.4983 47.14 26.4212L46.9542 26.063C46.7413 26.2398 46.5581 26.3946 46.3713 26.547C46.3571 26.5688 46.3115 26.5754 46.301 26.5995C46.2574 26.6892 46.2239 26.7835 46.2011 26.8807C46.1784 26.9951 46.2369 27.0641 46.3634 27.0842C46.507 27.099 46.6516 27.0682 46.7769 26.9963C46.985 26.9145 47.089 26.977 47.1614 27.1996C47.1878 27.2942 47.2095 27.3961 47.2299 27.492C47.2007 27.7065 47.224 27.925 47.2979 28.1286C47.3717 28.3322 47.4938 28.5148 47.6538 28.6608C47.7686 28.6674 47.8837 28.668 47.9986 28.6627C48.5342 28.6334 48.5342 28.6334 48.6676 29.1281C48.566 29.372 48.6743 29.587 48.7478 29.8C48.7542 29.9021 48.7376 30.0044 48.6992 30.0993C48.6609 30.1941 48.6017 30.2792 48.5261 30.3482C48.6306 30.5619 48.7479 30.7691 48.8773 30.9688C49.0154 31.1618 49.3114 31.0958 49.4653 31.3042C49.4653 31.3042 49.589 31.2967 49.6259 31.2638C49.7602 31.1444 49.8787 31.0096 50.0568 30.8309L50.814 30.8422C50.8731 30.9581 50.9234 31.0476 50.9641 31.136C51.0021 31.2381 51.0675 31.3278 51.1531 31.3953C51.2387 31.4627 51.3412 31.5053 51.4494 31.5183C51.6002 31.5604 51.7459 31.6187 51.8841 31.6921C51.9853 32.1091 51.7861 32.5272 51.9099 32.933L51.5542 33.0274C51.2488 32.9169 51.0601 33.1042 50.8771 33.2747C50.7705 33.1755 50.644 33.1 50.5062 33.0532C50.3683 33.0064 50.222 32.9893 50.0771 33.0031C49.6853 32.8984 49.4542 33.1668 49.2602 33.4178C49.0662 33.6689 49.2132 33.9038 49.305 34.1442C49.7256 34.1224 50.1388 34.025 50.5248 33.8568C50.5248 33.8568 50.5413 33.8314 50.5484 33.8205L50.7905 33.7659C50.9784 33.7795 51.1556 33.8581 51.2918 33.9882C51.4481 34.0897 51.6985 34.0302 51.7782 34.2576L51.3163 34.7221L51.2621 34.8057L50.8918 34.9939C50.8652 35.0043 50.8409 35.0201 50.8206 35.0403C50.8004 35.0605 50.7845 35.0847 50.7739 35.1114C50.7634 35.138 50.7585 35.1665 50.7596 35.1951C50.7606 35.2237 50.7675 35.2518 50.7799 35.2776L50.8726 35.4928C50.683 35.7054 50.5134 35.8949 50.3499 36.0831C49.9873 36.3646 49.7236 36.754 49.5967 37.1951C49.5281 37.3524 49.434 37.4972 49.3183 37.6238C49.1032 37.8269 48.954 38.0899 48.89 38.3787C48.8857 38.5016 48.8433 38.6201 48.7687 38.7179C48.6942 38.8157 48.591 38.8878 48.4737 38.9245C48.3959 38.9566 48.3306 39.0175 48.2541 39.0557C48.0608 39.1889 47.833 39.2634 47.5982 39.2702C47.5435 39.2562 47.4856 39.2607 47.4337 39.2831C47.3818 39.3054 47.3388 39.3444 47.3113 39.3938L47.1928 39.4252C47.135 39.4289 47.0786 39.4441 47.0269 39.4699C46.9751 39.4957 46.929 39.5316 46.8913 39.5755C46.8537 39.6194 46.8252 39.6704 46.8076 39.7255C46.7899 39.7806 46.7835 39.8387 46.7887 39.8963C46.787 40.0501 46.8497 40.2717 46.7773 40.3434C46.7049 40.4152 46.4657 40.4096 46.3013 40.432C46.1928 40.5992 46.2857 40.7266 46.3822 40.8564C46.5301 41.0661 46.678 41.2758 46.8367 41.477C46.9369 41.5844 47.0441 41.685 47.1575 41.7784C47.264 41.9254 47.4001 42.0485 47.5571 42.1398C47.714 42.231 47.8883 42.2884 48.0688 42.3081C48.1416 42.3102 48.2112 42.3389 48.2644 42.3887C48.3179 42.4521 48.3481 42.5319 48.3501 42.6148C48.3488 42.7121 48.2604 42.7528 48.1605 42.7396C48.069 42.7144 47.9726 42.7129 47.8804 42.7352C47.7882 42.7575 47.7031 42.803 47.6333 42.8673C47.4485 43.0271 47.293 43.2181 47.1739 43.4315C47.1458 43.5076 47.0968 43.5743 47.0326 43.6239C46.9684 43.6736 46.8916 43.7042 46.8108 43.7122C46.7408 43.7294 46.6724 43.7523 46.6062 43.7808C46.4201 43.785 46.234 43.7797 46.0484 43.7646C45.6613 43.7104 45.2667 43.7565 44.9025 43.8985C44.8746 44.0767 44.8506 44.2729 44.8096 44.4632C44.7972 44.6048 44.7511 44.7413 44.675 44.8613C44.5865 44.9583 44.5354 45.0835 44.5306 45.2147C44.5258 45.3459 44.5677 45.4746 44.6488 45.5778C44.7015 45.6955 44.7682 45.8065 44.8475 45.9082C44.9898 46.0471 44.9859 46.2202 45.0083 46.3845C45.0415 46.6437 45.0202 46.6764 44.7723 46.7478C44.5722 46.7792 44.388 46.8756 44.2481 47.0221C44.215 47.0214 44.1822 47.0286 44.1525 47.0432C44.1227 47.0578 44.0969 47.0792 44.0771 47.1058C44.0573 47.1323 44.0442 47.1633 44.0388 47.1959C44.0333 47.2286 44.0358 47.2621 44.046 47.2936C44.0834 47.4296 44.1673 47.548 44.2831 47.6284C44.4083 47.6972 44.5523 47.7237 44.6938 47.704C44.9801 47.6723 45.2699 47.7083 45.5398 47.8092C45.7051 47.8649 45.9109 47.9934 46.0751 47.8521C46.2979 47.7004 46.5454 47.5885 46.8064 47.5213C46.9045 47.5059 47.0046 47.5101 47.101 47.5337C47.1975 47.5573 47.2882 47.5998 47.3681 47.6587C47.6901 47.8455 47.9298 48.1468 48.0392 48.5026C48.1321 48.6222 48.2059 48.7555 48.2578 48.8977C48.2899 49.0631 48.262 49.2413 48.361 49.3831C48.5487 49.3965 48.5277 49.2537 48.5722 49.1535C48.6259 49.0509 48.6891 48.9536 48.7609 48.8628C48.8246 48.7647 48.8883 48.6667 48.952 48.5686L48.9992 48.4959L49.1178 48.4644C49.2631 48.4555 49.4084 48.4465 49.5524 48.4316L49.7449 48.5566C50.2108 48.9211 50.5902 48.7027 50.9112 48.4153C51.1441 48.1998 51.3649 47.9713 51.5747 47.7357C51.7324 47.5643 51.8648 47.3765 52.008 47.1958C52.0491 47.1449 52.077 47.0846 52.089 47.0202C52.101 46.9559 52.0968 46.8896 52.0768 46.8273C52.0166 46.6177 51.9684 46.4056 51.8985 46.195C51.7618 45.8169 51.8474 45.6453 52.2558 45.5334C52.3429 45.5207 52.4287 45.5004 52.5122 45.4727C52.609 45.427 52.743 45.3798 52.7877 45.2951C52.8132 45.2426 52.849 45.1958 52.8931 45.1575C52.9372 45.1192 52.9886 45.0902 53.0441 45.0722C53.0997 45.0543 53.1583 45.0477 53.2165 45.053C53.2746 45.0583 53.3311 45.0753 53.3825 45.103C53.457 45.1262 53.5357 45.1329 53.613 45.1224C53.6904 45.1119 53.7644 45.0846 53.83 45.0423C53.9878 44.9743 54.1247 44.867 54.2799 44.787C54.474 44.6868 54.6368 44.5352 54.7505 44.3488C54.8996 44.1197 55.07 43.9052 55.2594 43.7082C55.6023 43.375 55.866 42.969 56.0309 42.5203C56.0948 42.3426 56.199 42.1822 56.3353 42.0516C56.4575 41.9512 56.5457 41.8154 56.5877 41.6629C56.6341 41.4244 56.6997 41.1881 56.7654 40.9518C56.8557 40.7092 56.9306 40.461 56.9895 40.2089C57.0656 39.7418 57.098 39.2464 57.1467 38.7976C57.3763 38.5077 57.6059 38.2178 57.864 37.8998C57.9324 37.9901 57.9927 38.0863 58.0441 38.1873C58.1452 38.5009 58.2406 38.8314 58.3272 39.1355C58.3325 39.2059 58.362 39.2723 58.4105 39.3236C58.459 39.3749 58.5237 39.4079 58.5937 39.4171C58.8615 39.1063 59.0175 38.7149 59.0369 38.3051C59.0686 37.8506 58.7024 37.5714 58.4872 37.2663L58.9407 36.2179L59.8639 35.8464C60.0402 35.7829 60.1899 35.6617 60.2887 35.5025C60.3953 35.2985 60.5209 35.1051 60.6639 34.9248C60.8444 34.7384 60.987 34.5188 61.0838 34.2781C61.1511 33.9649 61.2973 33.674 61.5086 33.4331C61.736 33.2445 61.9006 32.991 61.9804 32.7065C62.0789 32.3099 62.2894 31.9499 62.5867 31.6695C62.6902 31.5517 62.7664 31.4125 62.8101 31.2619C62.864 31.1218 62.9088 30.9784 62.9443 30.8325C63.053 30.5767 63.2477 30.367 63.4947 30.2396C63.8244 30.1186 64.099 29.8822 64.2677 29.5742C64.3583 29.3937 64.4838 29.2329 64.6369 29.1012C64.8924 28.9105 65.0715 28.6348 65.1418 28.3237C65.1797 28.1793 65.227 28.0374 65.2832 27.8991C65.3192 27.8082 65.3729 27.7254 65.4413 27.6557C65.6924 27.4113 65.8474 27.085 65.8784 26.736C65.8849 26.6284 65.9192 26.5243 65.9779 26.4339C66.0366 26.3435 66.1178 26.2698 66.2134 26.2201C66.5847 25.973 66.8681 25.6146 67.023 25.1963C67.1245 24.92 67.2988 24.6763 67.5275 24.4909C67.6399 24.4005 67.7327 24.2881 67.8004 24.1607C67.868 24.0333 67.9091 23.8934 67.9211 23.7496ZM54.7354 36.5447C54.7071 36.5883 54.623 36.5905 54.5787 36.6031C54.4406 36.5134 54.4031 36.2928 54.4788 36.1921C54.5036 36.1716 54.5333 36.1578 54.5651 36.1521C54.5968 36.1465 54.6295 36.1492 54.6598 36.1599C54.6977 36.1725 54.7315 36.1949 54.7579 36.2249C54.7842 36.2548 54.8022 36.2912 54.8098 36.3303C54.8175 36.3694 54.8147 36.4099 54.8016 36.4476C54.7885 36.4853 54.7657 36.5188 54.7354 36.5447ZM54.0217 33.4677C54.0609 33.4562 54.101 33.4477 54.1415 33.4422C54.101 33.4477 54.0609 33.4562 54.0217 33.4677ZM60.6686 30.7493C60.575 30.6673 60.4539 30.6237 60.3295 30.6272C60.4539 30.6237 60.575 30.6673 60.6686 30.7493C60.8223 30.8332 60.9432 30.9663 61.0121 31.1273C60.9382 30.9702 60.814 30.8423 60.6592 30.7638L60.6686 30.7493ZM52.4166 34.3881C52.511 34.2428 52.603 34.1011 52.695 33.9594C52.603 34.1011 52.511 34.2428 52.4166 34.3881C52.3364 34.5116 52.3379 34.6365 52.4711 34.7179C52.3403 34.6329 52.3327 34.5092 52.4081 34.3774C52.3702 34.1053 52.4354 33.8289 52.5909 33.6026C52.5091 33.7172 52.4508 33.847 52.4193 33.9843C52.3877 34.1215 52.3836 34.2637 52.4072 34.4026L52.4166 34.3881ZM47.77 46.2204C47.9097 46.244 48.0494 46.2676 48.1901 46.2815C48.0494 46.2676 47.9097 46.244 47.77 46.2204L47.6502 46.2459L47.77 46.2204ZM62.468 25.2341C62.4397 25.2777 62.4634 25.3447 62.4592 25.3988C62.4081 25.4625 62.3735 25.5378 62.3583 25.618C62.3432 25.6982 62.3479 25.7809 62.3723 25.8589C62.2826 25.9969 62.1691 26.0524 62.0277 25.8882C61.6171 25.4149 61.4793 25.2532 61.9282 24.6097C61.9588 24.5625 61.9895 24.5153 62.0538 24.4641C62.1264 24.5112 62.2167 24.5234 62.2845 24.5622C62.6731 24.7991 62.6671 24.8004 62.468 25.2341ZM47.3523 27.8762L47.4435 27.9664L47.3523 27.8762ZM47.5575 28.3556L47.6556 28.4193L47.5575 28.3556Z" fill="#D25046"/>
<path d="M23.8909 40.2273C23.9089 39.8638 24.0206 39.511 24.215 39.2033C24.2291 39.1815 24.2104 39.1228 24.2051 39.0833C24.2735 38.9779 24.3443 38.8689 24.2073 38.7696C24.1512 38.5059 24.0916 38.2399 24.0438 37.9713C23.9961 37.7028 23.9818 37.4145 23.9367 37.158C23.8915 36.9014 23.6203 36.7304 23.375 36.6228C23.2733 36.5567 23.109 36.6824 23.0842 36.8161C23.0722 36.9018 23.079 36.989 23.1041 37.0718C23.1911 37.4072 23.2924 37.7364 23.3794 38.0718C23.4192 38.1781 23.4244 38.2942 23.3943 38.4036C23.3641 38.5129 23.3 38.6099 23.2113 38.6806C23.0718 38.7992 22.9547 38.9418 22.8655 39.1017C22.7452 39.4059 22.7306 39.7417 22.8239 40.0552C22.9173 40.3687 23.1132 40.6418 23.3803 40.8306C23.4332 40.8693 23.496 40.8919 23.5614 40.8959C23.6268 40.8999 23.6919 40.885 23.7491 40.8531C23.8063 40.8212 23.8531 40.7735 23.884 40.7158C23.9149 40.658 23.9285 40.5926 23.9234 40.5273C23.9216 40.4265 23.9108 40.3261 23.8909 40.2273Z" fill="#D25046"/>
<path d="M67.4729 15.0136C67.1327 15.1112 66.8379 15.3258 66.6403 15.6195C66.5833 15.7494 66.5786 15.8962 66.6273 16.0294C66.6709 16.1611 66.8206 16.1136 66.9346 16.105C67.0921 16.0788 67.2533 16.085 67.4083 16.1234C67.7701 16.2231 68.1494 16.242 68.5192 16.1786C68.8184 16.1714 68.8966 16.0827 68.9951 15.7799C69.0362 15.6867 69.0466 15.5829 69.0249 15.4834C69.0032 15.3839 68.9504 15.2939 68.8742 15.2263C68.8162 15.1648 68.7616 15.1 68.7109 15.0324L68.1611 14.288C68.1242 14.2865 68.0875 14.2938 68.054 14.3093C68.0205 14.3247 67.9911 14.3479 67.9682 14.3769C67.9454 14.4059 67.9297 14.4398 67.9225 14.476C67.9153 14.5122 67.9168 14.5496 67.9268 14.5852C67.9399 14.6917 67.9249 14.7998 67.8833 14.8987C67.8417 14.9977 67.775 15.084 67.6897 15.1491C67.6097 15.0972 67.5232 14.9997 67.4729 15.0136Z" fill="#D25046"/>
<path d="M69.7531 18.3434C69.7643 18.2163 69.7551 18.0882 69.7257 17.964C69.7097 17.8573 69.7234 17.7483 69.7653 17.6488C69.8071 17.5494 69.8754 17.4633 69.9628 17.4001L70.1172 17.2576C70.2099 17.1954 70.2978 17.1265 70.3803 17.0514C70.4143 17.026 70.4421 16.9933 70.4617 16.9556C70.4813 16.9179 70.4921 16.8763 70.4933 16.8339C70.4945 16.7915 70.4861 16.7493 70.4687 16.7106C70.4514 16.6719 70.4255 16.6376 70.393 16.6103C70.3245 16.5442 70.2375 16.5003 70.1436 16.4845C70.0497 16.4687 69.9532 16.4817 69.8668 16.5217C69.7579 16.5629 69.6392 16.5706 69.5258 16.5439C69.4125 16.5173 69.3096 16.4573 69.2305 16.3719C69.1685 16.3196 69.1001 16.2752 69.0271 16.2397L69.093 17.1245C68.8899 17.2049 68.6787 17.2634 68.4631 17.2991C68.1509 17.3184 67.8354 17.2634 67.5181 17.2587C67.4428 17.2518 67.3669 17.2622 67.2963 17.2892C67.2256 17.3162 67.1621 17.359 67.1107 17.4144C67.0592 17.4698 67.0212 17.5363 66.9995 17.6088C66.9778 17.6812 66.973 17.7577 66.9855 17.8323C67.0009 18.0338 67.0727 18.227 67.1925 18.3898C67.3124 18.5526 67.4757 18.6784 67.6636 18.753C67.7781 18.7924 67.8971 18.8176 68.0178 18.828C68.3368 18.8447 68.6426 18.9603 68.893 19.1588C69.0165 19.239 69.1364 19.3169 69.2563 19.3947L69.4382 19.6317C69.7698 20.0278 70.012 20.0766 70.528 19.8229L70.4001 19.3834C70.3457 19.1447 70.2028 18.9356 70.0001 18.7982C69.8342 18.6957 69.7259 18.584 69.7531 18.3434Z" fill="#D25046"/>
<path d="M63.1635 39.7143C63.2275 39.6017 63.3067 39.4985 63.3989 39.4075C63.5108 39.3116 63.5928 39.1855 63.6348 39.0442C63.6592 38.999 63.6708 38.9479 63.6683 38.8966C63.6657 38.8453 63.6492 38.7956 63.6205 38.753C63.5917 38.7104 63.5519 38.6765 63.5052 38.6549C63.4586 38.6333 63.4069 38.6249 63.3559 38.6306C63.2556 38.6416 63.1589 38.6739 63.0722 38.7253C62.8838 38.8552 62.6593 38.9227 62.4305 38.9181C62.3754 38.9115 62.3196 38.9189 62.2681 38.9397C62.2167 38.9605 62.1714 38.9939 62.1363 39.0369C62.1366 39.2674 62.125 39.4978 62.1014 39.7271C62.067 39.9107 62.0866 40.1004 62.1578 40.2731C62.2289 40.4459 62.3487 40.5943 62.5025 40.7003C62.6115 40.7711 62.7205 40.8419 62.8295 40.9127C62.859 40.9628 62.873 41.0287 62.9166 41.057C63.1818 41.2293 63.4507 41.4039 63.7196 41.5785C63.9884 41.7531 64.2076 41.694 64.2575 41.5456C64.3074 41.3972 64.1086 41.1545 63.9062 41.1161C63.6535 41.0475 63.4285 40.9015 63.2631 40.6984C63.2364 40.6345 63.2034 40.5733 63.1648 40.5158C63.0654 40.406 63.0102 40.2633 63.0099 40.1153C63.0097 39.9672 63.0644 39.8243 63.1635 39.7143Z" fill="#D25046"/>
<path d="M72.9536 21.5685C72.9731 21.7488 73.0317 21.9227 73.1253 22.078C73.2189 22.2334 73.3453 22.3665 73.4956 22.468C73.8297 22.6759 74.2236 22.7663 74.615 22.7249C74.7531 22.7163 74.8842 22.6609 74.9868 22.568C75.0894 22.4751 75.1573 22.3501 75.1796 22.2135C75.2324 21.953 75.2066 21.6827 75.1053 21.437C75.0382 21.3025 74.9586 21.1748 74.8675 21.0553C74.6485 21.0267 74.4331 21.0004 74.2224 20.9669C73.8654 20.953 73.5109 21.0326 73.1942 21.1979C73.1153 21.2189 73.0469 21.2684 73.0025 21.3369C72.958 21.4053 72.9406 21.4879 72.9536 21.5685Z" fill="#D25046"/>
<path d="M64.7095 15.7291C64.5932 15.5605 64.4299 15.4297 64.2399 15.3531C64.0499 15.2766 63.8415 15.2576 63.6408 15.2986C63.4574 15.3344 63.3592 15.4618 63.4261 15.6292C63.4962 15.775 63.5782 15.9147 63.6715 16.0468C63.6886 16.1661 63.7312 16.2802 63.7965 16.3815C63.8619 16.4827 63.9483 16.5687 64.0499 16.6334C64.2042 16.7698 64.4132 16.8694 64.3073 17.1518C64.2669 17.2857 64.3567 17.4576 64.3765 17.61C64.3807 17.6692 64.4044 17.7253 64.4439 17.7696C64.4833 17.8139 64.5363 17.8439 64.5946 17.8549C64.722 17.8737 64.8507 17.883 64.9795 17.8827C65.0813 17.4634 65.3932 17.1184 65.239 16.6877C65.3969 16.6353 65.5909 16.6786 65.6522 16.4808C65.2612 16.3456 64.9284 16.0803 64.7095 15.7291Z" fill="#D25046"/>
<path d="M34.8556 38.2262C34.888 37.993 34.906 37.758 34.9095 37.5226C34.9127 37.2871 34.8605 37.248 34.6381 37.2327C34.4156 37.2173 34.0416 37.1966 33.7263 37.1571C33.7082 37.3442 33.7105 37.5327 33.7331 37.7194C33.7499 37.8618 33.7973 37.999 33.8719 38.1215C33.9466 38.244 34.0469 38.3489 34.1659 38.4291C34.2205 38.4745 34.2855 38.5057 34.3551 38.52C34.4246 38.5343 34.4966 38.5313 34.5648 38.5113C34.6329 38.4912 34.6951 38.4548 34.7458 38.405C34.7965 38.3553 34.8342 38.2939 34.8556 38.2262Z" fill="#D25046"/>
<path d="M43.0231 37.9312C42.8704 37.8331 42.6963 37.7732 42.5157 37.7566C42.335 37.7399 42.1529 37.767 41.9849 37.8355C41.9268 37.8564 41.8754 37.8924 41.836 37.9398C41.7965 37.9872 41.7704 38.0443 41.7603 38.1052C41.7503 38.166 41.7567 38.2285 41.7788 38.286C41.801 38.3436 41.8381 38.3942 41.8864 38.4327C41.9586 38.5027 42.0437 38.558 42.1371 38.5955C42.4471 38.6987 42.7656 38.797 43.0814 38.8833C43.2117 38.9214 43.3426 38.9187 43.4219 38.8204C43.3616 38.672 43.3163 38.518 43.2866 38.3606C43.279 38.2735 43.2513 38.1893 43.2055 38.1148C43.1598 38.0403 43.0973 37.9774 43.0231 37.9312Z" fill="#D25046"/>
<path d="M40.4894 14.7316C40.3778 14.6504 40.2453 14.603 40.1075 14.5951C39.9698 14.5871 39.8327 14.619 39.7126 14.6868C39.5392 14.755 39.3621 14.8208 39.1949 14.9033C39.1438 14.9383 39.0829 14.956 39.0211 14.954C38.9592 14.9519 38.8997 14.9301 38.8511 14.8918C38.7922 14.8558 38.7256 14.8343 38.6568 14.8292C38.588 14.8241 38.519 14.8355 38.4555 14.8625C38.392 14.8895 38.3358 14.9312 38.2917 14.9843C38.2476 15.0373 38.2168 15.1002 38.2019 15.1675C38.1556 15.2979 38.1368 15.4365 38.1467 15.5746C38.1567 15.7126 38.1951 15.8471 38.2597 15.9695C38.4065 15.981 38.554 15.9801 38.7007 15.9666C39.0508 15.9047 39.4007 15.8272 39.7496 15.7594L39.8358 15.7379C39.8448 15.7284 39.852 15.7173 39.8571 15.7052C40.082 15.5259 40.3142 15.3513 40.5233 15.1565C40.6936 15.0295 40.6665 14.8724 40.4894 14.7316Z" fill="#D25046"/>
<path d="M50.6539 24.757C50.6777 24.8744 50.7096 24.99 50.7494 25.1031C50.8773 25.0643 50.9937 24.9947 51.0883 24.9003C51.1829 24.8059 51.2529 24.6897 51.292 24.5619C51.3604 24.4565 51.3816 24.3205 51.4451 24.2068C51.5556 23.9667 51.5958 23.7003 51.5612 23.4383C51.5266 23.1763 51.4184 22.9295 51.2493 22.7264C51.2034 22.6715 51.1432 22.6304 51.0753 22.6078C51.0074 22.5852 50.9346 22.5819 50.865 22.5983C50.7953 22.6148 50.7316 22.6502 50.681 22.7008C50.6304 22.7514 50.5948 22.815 50.5783 22.8846C50.5319 23.1071 50.516 23.3349 50.5312 23.5617C50.5565 23.9603 50.607 24.3598 50.6539 24.757Z" fill="#D25046"/>
<path d="M48.2889 21.3668C48.2968 21.2816 48.2745 21.1962 48.2257 21.1258C48.1769 21.0554 48.1049 21.0044 48.0223 20.9819C47.9414 20.9509 47.8527 20.9465 47.7691 20.9693C47.6856 20.9921 47.6115 21.041 47.5576 21.1088C47.4567 21.2137 47.3645 21.3265 47.2817 21.4462C47.2375 21.5345 47.176 21.6129 47.1008 21.6768C47.0256 21.7406 46.9382 21.7887 46.844 21.8179L46.581 21.9364C46.5729 22.0603 46.5657 22.1589 46.5529 22.29L46.712 22.3314C46.9577 22.3825 47.163 22.3608 47.2689 22.0784C47.3043 22.0239 47.4 21.9879 47.4461 21.9248C47.6671 21.6242 48.0813 21.6865 48.2889 21.3668Z" fill="#D25046"/>
<path d="M46.6731 20.0128C46.6278 19.9425 46.5899 19.8676 46.5599 19.7895C46.4789 19.7028 46.3705 19.6467 46.253 19.6306C46.1355 19.6145 46.016 19.6394 45.9147 19.7011C45.8901 19.7321 45.8762 19.7702 45.8752 19.8097C45.8593 19.893 45.8511 19.9776 45.8506 20.0623C45.8507 20.2008 45.8802 20.3376 45.9373 20.4637C45.9943 20.5898 46.0776 20.7023 46.1815 20.7937C46.2603 20.8384 46.3532 20.8512 46.4412 20.8296C46.5292 20.808 46.6055 20.7536 46.6547 20.6775C46.7676 20.4719 46.867 20.2472 46.6731 20.0128Z" fill="#D25046"/>
<path d="M49.1041 18.4253C48.9786 18.456 48.8567 18.4997 48.7403 18.5558C48.4616 18.6589 48.4404 18.6916 48.4501 19.0026C48.4524 19.0867 48.4666 19.1683 48.4748 19.2511C48.7564 19.3434 49.0608 19.3393 49.3398 19.2395C49.5695 19.1562 49.6402 18.9439 49.578 18.6659C49.5158 18.3879 49.3501 18.4043 49.1041 18.4253Z" fill="#D25046"/>
<path d="M43.7029 29.065C43.7246 29.1787 43.7834 29.2819 43.8699 29.3587C43.9565 29.4354 44.066 29.4814 44.1815 29.4894C44.3331 29.5105 44.4725 29.6061 44.6061 29.6309C44.9918 29.7212 45.2177 29.8267 45.3451 29.2328L45.3664 29.2001C45.3665 29.009 45.3629 28.8156 45.1894 28.6771C45.0159 28.5386 44.9242 28.5049 44.8122 28.3909C44.7562 28.321 44.6752 28.2755 44.5863 28.2641C44.4975 28.2526 44.4076 28.276 44.3356 28.3293C44.2558 28.3886 44.1616 28.4257 44.0628 28.4368C43.9639 28.4479 43.8639 28.4326 43.7728 28.3925C43.5942 28.2689 43.4272 28.1294 43.2739 27.9755C43.0445 28.1777 42.6662 27.9011 42.3713 28.2519L42.4257 28.4783C42.5277 28.4723 42.5831 28.4825 42.6105 28.4641C42.7214 28.4018 42.8483 28.3742 42.975 28.3846C43.1017 28.3951 43.2223 28.4433 43.3214 28.5229C43.5679 28.6365 43.6067 28.8631 43.7029 29.065ZM45.0284 28.774L45.1234 28.8822L45.0078 28.7658C45.0522 28.9599 45.1048 29.1335 45.1518 29.3396L44.974 28.7542C44.9078 28.6478 44.8137 28.5617 44.7019 28.5051C44.835 28.5602 44.9487 28.6538 45.0284 28.774Z" fill="#D25046"/>
<path d="M53.3312 25.0649C53.4745 25.0608 53.6132 25.0138 53.7294 24.9299C53.8456 24.846 53.9339 24.7291 53.9828 24.5944C54.0843 24.4382 54.1527 24.3329 54.2187 24.2311C54.2848 24.1294 54.3194 24.0124 54.2233 23.9139C54.1272 23.8153 53.9846 23.8518 53.8726 23.9289C53.8053 23.9817 53.741 24.0382 53.68 24.0982C53.5848 24.2154 53.4707 24.3159 53.3423 24.3954C53.2754 24.4298 53.2172 24.4788 53.1719 24.5389C53.1266 24.5989 53.0955 24.6684 53.081 24.7422C52.9876 24.9656 53.1091 25.0807 53.3312 25.0649Z" fill="#D25046"/>
<path d="M60.0373 39.6521C60.132 39.8324 60.2327 39.9081 60.4007 39.888C60.6292 39.8429 60.8362 39.7228 60.9889 39.5469C61.027 39.5061 61.0528 39.4553 61.0634 39.4006C61.0741 39.3458 61.0692 39.2891 61.0493 39.2369C61.0294 39.1847 60.9953 39.1392 60.9509 39.1054C60.9064 39.0716 60.8534 39.051 60.7978 39.0458C60.5285 39.031 60.2693 39.0641 60.0169 39.0551C59.9654 39.147 59.9401 39.2512 59.9437 39.3564C59.9473 39.4617 59.9797 39.5639 60.0373 39.6521Z" fill="#D25046"/>
<path d="M31.9845 42.7666C32.0931 42.5994 32.1615 42.4941 32.0374 42.367C31.9855 42.3022 31.9142 42.2559 31.8339 42.2349C31.7675 42.2351 31.7039 42.2615 31.657 42.3085C31.61 42.3554 31.5836 42.419 31.5834 42.4854C31.5738 42.5794 31.5337 42.6677 31.4692 42.7368C31.4048 42.8059 31.3195 42.8521 31.2263 42.8682C31.0709 42.9225 30.926 43.0031 30.7978 43.1064C30.7315 43.1569 30.6848 43.2288 30.6657 43.3099C30.636 43.3865 30.6287 43.47 30.6446 43.5506C30.6606 43.6312 30.6991 43.7056 30.7558 43.7652C30.8124 43.8247 30.8849 43.8669 30.9646 43.8869C31.0443 43.9068 31.1281 43.9036 31.2061 43.8777C31.3801 43.8564 31.5693 43.8037 31.5946 43.6135C31.5888 43.4517 31.6211 43.2908 31.6888 43.1437C31.7565 42.9966 31.8578 42.8674 31.9845 42.7666Z" fill="#D25046"/>
<path d="M42.9133 34.6162C42.7934 34.5383 42.6713 34.583 42.5693 34.6924C42.5505 34.7214 42.4916 34.7246 42.4546 34.7418C42.1197 34.8756 42.0442 34.9919 42.0842 35.3122C42.1071 35.4247 42.139 35.5352 42.1795 35.6427C42.1364 35.795 42.1374 35.9564 42.1824 36.1082C42.2274 36.2599 42.3146 36.3958 42.4338 36.5C42.4762 36.5475 42.5313 36.582 42.5927 36.5992C42.654 36.6164 42.719 36.6157 42.7799 36.5971C42.8409 36.5786 42.8953 36.543 42.9366 36.4945C42.9779 36.446 43.0045 36.3867 43.0132 36.3236C43.0699 36.0454 43.0905 35.7591 43.1207 35.474C43.1354 35.3166 43.1415 35.1585 43.139 35.0004C43.1338 34.9232 43.1107 34.8483 43.0715 34.7816C43.0323 34.7149 42.9781 34.6583 42.9133 34.6162Z" fill="#D25046"/>
<path d="M61.4649 44.3187C61.374 44.2597 61.1423 44.3778 61.0574 44.5086C61.0195 44.5819 61.0003 44.6634 61.0014 44.746C61.0035 44.9178 61.0404 45.0916 61.0234 45.2768C61.0198 45.3484 61.0367 45.4196 61.0722 45.482C61.1076 45.5444 61.1602 45.5953 61.2236 45.6289C61.3974 45.5493 61.5401 45.4145 61.6293 45.2455C61.7186 45.0764 61.7494 44.8826 61.7169 44.6941C61.7109 44.6151 61.6845 44.539 61.6403 44.4732C61.5961 44.4074 61.5357 44.3542 61.4649 44.3187Z" fill="#D25046"/>
<path d="M50.7145 19.342C50.5441 19.3641 50.3758 19.3998 50.2111 19.4489C50.1188 19.4705 50.0336 19.5156 49.9639 19.5798C49.8941 19.644 49.8422 19.7252 49.813 19.8154C49.7231 20.1289 49.6537 20.4505 49.5621 20.8301C50.0628 20.7749 50.5291 20.5486 50.8822 20.1895C50.9606 20.1131 51.0161 20.0163 51.0422 19.91C51.0683 19.8036 51.064 19.6921 51.0299 19.5881C51.02 19.514 50.9814 19.4467 50.9224 19.4007C50.8635 19.3547 50.7888 19.3336 50.7145 19.342Z" fill="#D25046"/>
<path d="M48.1444 23.0291C48.3039 23.3961 48.5931 23.6666 48.6494 24.0492C48.6376 24.0673 48.6789 24.0993 48.6936 24.1244C48.7734 24.264 48.8716 24.24 48.9873 24.1653C49.1029 24.0906 49.2214 24.1469 49.2084 23.968C49.2158 23.8838 49.2363 23.8012 49.2691 23.7233C49.321 23.6434 49.3212 23.5557 49.2303 23.4967C49.0895 23.3825 48.9726 23.2415 48.8865 23.0818C48.8005 22.9222 48.7469 22.7471 48.7288 22.5667C48.5193 22.7302 48.3408 22.8777 48.1444 23.0291Z" fill="#D25046"/>
<path d="M42.6881 41.2311C42.6598 41.2747 42.6441 41.3626 42.6648 41.3864C42.6895 41.4102 42.7189 41.4287 42.7511 41.4407C42.7833 41.4527 42.8176 41.458 42.8519 41.4562C42.9427 41.4319 43.0273 41.3885 43.1 41.3287C43.1726 41.269 43.2317 41.1944 43.2731 41.1099C43.4123 40.8956 43.5538 40.6776 43.693 40.4632C43.785 40.3216 43.877 40.1799 43.9974 39.9946C43.5302 39.9185 43.4392 39.9472 43.3351 40.2825C43.3115 40.3188 43.3217 40.3668 43.3054 40.4078C43.2091 40.6913 43.1491 40.9985 42.8118 41.1203C42.7597 41.143 42.7164 41.1818 42.6881 41.2311Z" fill="#D25046"/>
<path d="M61.566 21.2856C61.5558 21.251 61.5366 21.2196 61.5103 21.1948C61.484 21.17 61.4516 21.1527 61.4164 21.1445C61.3812 21.1364 61.3445 21.1378 61.31 21.1485C61.2755 21.1593 61.2445 21.179 61.2201 21.2057C61.1404 21.2863 61.0889 21.3907 61.0735 21.503C61.0791 21.7062 61.1361 21.9046 61.239 22.0799C61.342 22.2551 61.4877 22.4015 61.6624 22.5053C61.7753 22.1001 61.7412 21.6681 61.566 21.2856Z" fill="#D25046"/>
<path d="M59.3353 16.2887C59.2577 16.3017 59.1809 16.3191 59.1052 16.3407C59.2179 16.4139 59.2833 16.4563 59.3285 16.5219C59.3738 16.5874 59.4768 16.6595 59.5558 16.7366L59.3777 16.8121L59.5412 16.9183C59.5838 16.9772 59.6302 17.0332 59.6802 17.086C59.7058 17.1112 59.7377 17.129 59.7726 17.1376C59.8075 17.1462 59.8441 17.1451 59.8784 17.1346C59.9127 17.1241 59.9436 17.1045 59.9677 17.0779C59.9919 17.0513 60.0083 17.0187 60.0154 16.9835C60.0208 16.8428 60.0119 16.702 59.9887 16.5632C59.9792 16.3711 59.7839 16.2184 59.875 15.9987C59.8938 15.9696 59.7853 15.8423 59.7263 15.8298C59.6673 15.8173 59.5783 15.9145 59.606 16.0151C59.623 16.2276 59.5118 16.2794 59.3353 16.2887Z" fill="#D25046"/>
<path d="M61.6578 38.6125C61.6769 38.6237 61.6987 38.6295 61.7209 38.6292C61.7431 38.629 61.7648 38.6226 61.7836 38.6108C61.8024 38.5991 61.8176 38.5824 61.8276 38.5626C61.8376 38.5428 61.842 38.5207 61.8403 38.4985C61.8286 38.1665 61.76 37.8389 61.6375 37.5301C61.5377 37.3258 61.3613 37.3508 61.247 37.5348C61.2025 37.6324 61.1778 37.7379 61.1744 37.8451C61.1709 37.9524 61.1889 38.0592 61.2271 38.1595C61.2653 38.2598 61.3231 38.3514 61.397 38.4292C61.4709 38.507 61.5596 38.5693 61.6578 38.6125Z" fill="#D25046"/>
<path d="M48.4841 32.4334C48.4159 32.3633 48.3371 32.3018 48.1937 32.1725C48.1051 32.1976 47.9987 32.2421 47.8885 32.2687C47.8307 32.2745 47.7766 32.2999 47.7352 32.3406C47.6937 32.3813 47.6674 32.4349 47.6605 32.4925C47.6276 32.673 47.6141 32.8564 47.6202 33.0397C47.6246 33.0903 47.6391 33.1395 47.6628 33.1843C47.6865 33.2292 47.7189 33.269 47.7581 33.3012C47.7973 33.3334 47.8426 33.3574 47.8912 33.3719C47.9399 33.3864 47.9909 33.391 48.0414 33.3855C48.152 33.388 48.261 33.3586 48.3553 33.3008C48.4497 33.243 48.5253 33.1592 48.5733 33.0595C48.619 32.9574 48.6349 32.8444 48.6191 32.7336C48.6033 32.6228 48.5565 32.5187 48.4841 32.4334Z" fill="#D25046"/>
<path d="M46.7229 35.8454C46.86 35.74 46.9907 35.6265 47.1141 35.5054C47.2561 35.3925 47.3591 35.2379 47.4085 35.0633C47.4579 34.8888 47.4513 34.7031 47.3895 34.5325C47.3714 34.4854 47.3435 34.4428 47.3076 34.4074C47.2717 34.372 47.2287 34.3447 47.1814 34.3272C47.1342 34.3097 47.0837 34.3024 47.0334 34.3059C46.9832 34.3094 46.9342 34.3235 46.8898 34.3474C46.6905 34.4555 46.4868 34.6022 46.309 34.7088C46.1449 34.8259 46.0213 34.9912 45.9554 35.1817C45.8809 35.4578 45.857 35.7451 45.8852 36.0296C45.8757 36.1836 45.8388 36.3345 45.7764 36.4755C45.6744 36.5881 45.5571 36.6858 45.4279 36.7657C45.3928 36.8117 45.3613 36.8603 45.3335 36.911C45.0312 37.1538 44.7362 37.4012 44.4254 37.6332C44.2968 37.7238 44.208 37.8604 44.1776 38.0147C44.1479 38.14 44.1218 38.2677 44.0957 38.3954C44.0504 38.4708 44.0329 38.5597 44.0463 38.6466C44.0596 38.7336 44.1029 38.8132 44.1688 38.8715C44.2124 38.9137 44.2433 38.9673 44.258 39.0262C44.2728 39.085 44.2707 39.1468 44.2521 39.2046C44.2199 39.4212 44.3622 39.5601 44.5583 39.4809C44.7544 39.4016 44.8793 39.2968 44.8923 39.1813C44.9212 38.8901 45.1707 38.7526 45.2603 38.5112C45.5296 38.4226 45.5634 38.1399 45.7126 37.9578C45.8415 37.8098 45.9351 37.6346 45.9865 37.4452C46.0379 37.2558 46.0457 37.0573 46.0094 36.8645C45.9866 36.7508 46.0018 36.6328 46.0526 36.5286C46.1035 36.4244 46.1872 36.3399 46.2909 36.2879C46.4512 36.1573 46.5962 36.0088 46.7229 35.8454Z" fill="#D25046"/>
<path d="M32.7342 40.3712C32.8038 40.5662 32.9174 40.6141 33.1 40.5158C33.1761 40.4742 33.2462 40.4224 33.3085 40.3619C33.4225 40.25 33.5256 40.131 33.6336 40.0204C33.7064 40.0314 33.7807 40.016 33.8431 39.9769C33.9054 39.9377 33.9517 39.8776 33.9735 39.8072C34.0242 39.7235 34.0493 39.6267 34.0458 39.5288C34.0272 39.4433 33.9812 39.3661 33.9148 39.309C33.8484 39.2519 33.7652 39.218 33.6779 39.2124C33.6093 39.1888 33.5342 39.1925 33.4683 39.2228C33.4024 39.2532 33.3508 39.3078 33.3242 39.3752C33.2863 39.4696 33.2182 39.5488 33.1306 39.6003C33.0429 39.6518 32.9406 39.6727 32.8397 39.6598C32.8119 39.6671 32.7859 39.6801 32.7633 39.698C32.6785 39.9128 32.6682 40.1499 32.7342 40.3712Z" fill="#D25046"/>
<path d="M38.7663 31.9179C38.7227 31.8607 38.6746 31.807 38.6225 31.7574C38.4736 31.6606 38.2226 31.6733 38.1543 31.7942C38.0992 31.9039 38.0836 32.0293 38.1102 32.1492C38.1368 32.2691 38.204 32.3761 38.3005 32.4522C38.4631 32.5836 38.724 32.5 38.8667 32.3757C39.0094 32.2514 38.916 32.0771 38.7663 31.9179Z" fill="#D25046"/>
<path d="M65.5548 48.9582C65.4746 49.0817 65.5622 49.1696 65.5875 49.2738C65.6392 49.4726 65.7293 49.6758 65.5476 49.8522C65.6453 49.9482 65.766 50.0175 65.8981 50.0536C66.0303 50.0896 66.1694 50.0913 66.3023 50.0583C66.6681 50.0995 66.8754 49.8519 67.0974 49.6294C67.1157 49.6051 67.1323 49.5796 67.147 49.5531C67.4299 49.2858 67.7697 49.0862 68.1409 48.9692C68.3303 48.8976 68.5127 48.8085 68.6856 48.7031C68.9914 48.5505 69.0226 48.4468 68.9087 48.0732C68.9045 47.7296 68.6326 47.7029 68.3936 47.6096C68.3275 47.7113 68.2733 47.7949 68.219 47.8784C68.009 48.2018 68.009 48.2018 67.6135 48.1825L67.4681 48.0881L67.364 47.9223C67.3663 47.8154 67.3154 47.7823 67.2186 47.828L67.0988 47.8534L66.9802 47.8849C66.9217 47.9192 66.8656 47.9499 66.8108 47.9866C66.7949 48.0072 66.7807 48.0291 66.7683 48.052C66.4479 48.1568 66.1445 48.3078 65.8677 48.5002C65.7295 48.4983 65.6923 48.6033 65.6552 48.7082C65.618 48.8132 65.5791 48.881 65.5548 48.9582Z" fill="#D25046"/>
<path d="M40.3278 42.002L40.2056 42.0311L40.0857 42.0566L39.6138 41.9878C39.8584 42.3429 39.8899 42.3582 40.2093 42.3435C40.3748 42.3839 40.543 42.412 40.7126 42.4276C40.7912 42.4236 40.868 42.4024 40.9375 42.3654C41.007 42.3285 41.0675 42.2767 41.1148 42.2138C41.162 42.1508 41.1949 42.0783 41.211 42.0013C41.2272 41.9242 41.2262 41.8446 41.2081 41.768C40.9427 41.9778 40.6094 41.9422 40.3278 42.002Z" fill="#D25046"/>
<path d="M44.3171 42.6919C44.285 42.6418 44.2349 42.6058 44.1771 42.5913C44.1193 42.5768 44.0582 42.5849 44.0062 42.614C43.932 42.6366 43.8661 42.6803 43.8165 42.7398C43.7668 42.7993 43.7356 42.872 43.7266 42.949C43.7087 43.1594 43.7275 43.3214 43.9578 43.3884C44.0524 43.3504 44.1371 43.2916 44.2057 43.2163C44.2743 43.141 44.325 43.0511 44.3539 42.9534C44.3654 42.9096 44.3681 42.8639 44.3618 42.819C44.3554 42.7741 44.3403 42.7309 44.3171 42.6919Z" fill="#D25046"/>
<path d="M66.0315 43.3639C66.0993 43.4009 66.1745 43.4222 66.2516 43.4264C66.3287 43.4307 66.4058 43.4177 66.4773 43.3884C66.5487 43.3591 66.6127 43.3143 66.6647 43.2572C66.7167 43.2001 66.7552 43.1321 66.7776 43.0582C66.7828 43.0299 66.781 43.0008 66.7724 42.9734C66.7639 42.9459 66.7488 42.921 66.7284 42.9007C66.7081 42.8803 66.6831 42.8653 66.6557 42.8567C66.6282 42.8482 66.5991 42.8464 66.5709 42.8516C66.4169 42.8841 66.2665 42.9318 66.122 42.994C66.0857 43.0107 66.0533 43.0348 66.0268 43.0647C66.0003 43.0946 65.9802 43.1296 65.9679 43.1676C65.9592 43.2446 66.0202 43.3256 66.0315 43.3639Z" fill="#D25046"/>
<path d="M38.6814 39.8997C38.6671 39.8586 38.6411 39.8227 38.6065 39.7963C38.5719 39.7699 38.5303 39.7544 38.4869 39.7516C38.4435 39.7487 38.4002 39.7588 38.3625 39.7805C38.3248 39.8021 38.2943 39.8345 38.2749 39.8734C38.2092 39.9806 38.1558 40.0949 38.1156 40.2141C38.1056 40.2379 38.1013 40.2638 38.1031 40.2896C38.1049 40.3153 38.1127 40.3403 38.126 40.3625C38.1392 40.3847 38.1575 40.4035 38.1794 40.4173C38.2012 40.4311 38.226 40.4395 38.2518 40.442C38.3195 40.4629 38.3856 40.4887 38.4498 40.5189C38.5111 40.4245 38.5848 40.3587 38.6536 40.2846C38.7928 40.1736 38.7479 40.0359 38.6814 39.8997Z" fill="#D25046"/>
<path d="M42.2684 45.5762C42.1809 45.5671 42.0928 45.5847 42.0156 45.6268C41.9384 45.669 41.8758 45.7336 41.8363 45.8121C41.7671 45.9583 41.8417 46.0584 41.9461 46.1521L42.0568 46.2601C42.1451 46.2152 42.2233 46.153 42.2868 46.077C42.3504 46.0011 42.3978 45.9131 42.4263 45.8183C42.4403 45.7922 42.4471 45.7629 42.4458 45.7334C42.4445 45.7038 42.4353 45.6752 42.4192 45.6504C42.403 45.6256 42.3805 45.6057 42.354 45.5926C42.3274 45.5796 42.2979 45.5739 42.2684 45.5762Z" fill="#D25046"/>
<path d="M46.4958 30.7859C46.4577 30.7095 46.3566 30.6025 46.2918 30.6069C46.1784 30.6236 46.0684 30.6586 45.9662 30.7105C45.8199 30.9358 45.8676 31.101 46.0496 31.1469C46.1207 31.1621 46.1935 31.1677 46.2661 31.1635C46.3095 31.161 46.3516 31.148 46.3889 31.1256C46.4262 31.1033 46.4575 31.0722 46.4801 31.035C46.5027 30.9979 46.5159 30.9558 46.5187 30.9124C46.5214 30.869 46.5136 30.8256 46.4958 30.7859Z" fill="#D25046"/>
<path d="M21.556 42.0012C21.5037 42.0615 21.4601 42.1288 21.4262 42.201C21.4005 42.2478 21.3871 42.3004 21.3872 42.3538C21.3873 42.4072 21.4009 42.4597 21.4268 42.5064C21.4527 42.5531 21.49 42.5925 21.5352 42.621C21.5804 42.6494 21.6321 42.6659 21.6854 42.6689C21.7296 42.6799 21.7759 42.6782 21.8192 42.664C21.8624 42.6498 21.9008 42.6238 21.93 42.5889C21.9591 42.5539 21.9779 42.5115 21.9841 42.4664C21.9902 42.4214 21.9836 42.3754 21.9649 42.3339C21.9376 42.2441 21.8841 42.1645 21.8112 42.1052C21.7384 42.0459 21.6495 42.0097 21.556 42.0012Z" fill="#D25046"/>
<path d="M75.6776 38.9466C75.9125 38.6962 75.949 38.5288 75.8295 38.2911C75.8227 38.2662 75.81 38.2434 75.7925 38.2245C75.7749 38.2056 75.7531 38.1912 75.7288 38.1825C75.7046 38.1738 75.6785 38.1711 75.653 38.1747C75.6275 38.1782 75.6032 38.1878 75.5821 38.2027C75.5384 38.2255 75.5012 38.2592 75.4744 38.3006C75.4475 38.342 75.4318 38.3896 75.4288 38.4389C75.373 38.6919 75.5437 38.8028 75.6776 38.9466Z" fill="#D25046"/>
<path d="M41.0084 38.7664C41.1239 38.657 41.2019 38.5139 41.2311 38.3575C41.2602 38.2011 41.2392 38.0395 41.1709 37.8958C41.0882 37.8976 41.0097 37.9321 40.9525 37.9919C40.8953 38.0516 40.8642 38.1316 40.8659 38.2142C40.8637 38.4245 40.7209 38.6365 41.0084 38.7664Z" fill="#D25046"/>
<path d="M40.5799 39.2991C40.6587 39.2868 40.7327 39.253 40.7936 39.2014C40.8544 39.1498 40.8998 39.0823 40.9248 39.0065C40.9602 38.952 40.8348 38.819 40.7749 38.7284C40.7749 38.7284 40.7313 38.7001 40.6731 38.6623C40.5642 38.8012 40.4679 38.9496 40.3853 39.1055C40.3447 39.2238 40.4406 39.3067 40.5799 39.2991Z" fill="#D25046"/>
<path d="M44.4184 33.5791C44.2642 33.5461 44.1838 33.654 44.1156 33.775C44.1028 33.7924 44.0938 33.8123 44.0891 33.8334C44.0845 33.8545 44.0842 33.8763 44.0885 33.8975C44.0927 33.9187 44.1012 33.9388 44.1136 33.9565C44.126 33.9742 44.1419 33.9891 44.1604 34.0004C44.2037 34.0397 44.2601 34.0614 44.3186 34.0611C44.3771 34.0608 44.4334 34.0387 44.4764 33.999C44.5212 33.93 44.5951 33.8798 44.6414 33.8324C44.6433 33.7698 44.6213 33.7088 44.5799 33.6617C44.5385 33.6147 44.4808 33.5852 44.4184 33.5791Z" fill="#D25046"/>
<path d="M36.0742 39.7304C36.0974 39.6847 36.1025 39.632 36.0885 39.5827C36.0746 39.5335 36.0425 39.4913 35.9989 39.4645C35.9008 39.4008 35.7618 39.4398 35.6747 39.5898C35.6982 39.6412 35.7175 39.7467 35.7782 39.7964C35.8263 39.8264 35.8843 39.8362 35.9397 39.8239C35.995 39.8115 36.0433 39.778 36.0742 39.7304Z" fill="#D25046"/>
<path d="M69.369 30.3973C69.4707 30.4634 69.6167 30.4136 69.6811 30.2746C69.7095 30.231 69.6809 30.1557 69.6794 30.0307C69.553 30.0703 69.4308 30.1225 69.3148 30.1865C69.3148 30.1865 69.3179 30.3487 69.369 30.3973Z" fill="#D25046"/>
<path d="M20.4224 44.4468C20.3642 44.409 20.2709 44.4414 20.14 44.4442C20.2014 44.5564 20.2265 44.645 20.2859 44.6887C20.3453 44.7325 20.4274 44.6618 20.4581 44.6146C20.4887 44.5674 20.4562 44.4584 20.4224 44.4468Z" fill="#D25046"/>
<path d="M47.0243 30.6642L47.2664 30.6096C47.4916 30.7559 47.6597 30.5448 47.8438 30.4681C47.8845 30.4532 47.9164 30.3086 47.8904 30.2452C47.8826 30.2143 47.8681 30.1854 47.8481 30.1606C47.828 30.1358 47.8028 30.1156 47.7742 30.1014C47.7456 30.0873 47.7143 30.0795 47.6824 30.0786C47.6505 30.0777 47.6188 30.0837 47.5894 30.0963C47.5567 30.075 47.4949 30.0349 47.5125 29.9999C47.6225 29.751 47.4965 29.5711 47.3633 29.3864C47.3348 29.3803 47.3058 29.377 47.2767 29.3767C47.1447 29.3891 46.9831 29.5424 46.9032 29.2994C46.8648 29.2942 46.8258 29.3014 46.7917 29.32C46.7763 29.3331 46.7645 29.35 46.7576 29.3691C46.7507 29.3881 46.7488 29.4086 46.7522 29.4286C46.8488 29.6618 46.9622 29.9007 47.0431 30.1341C46.6794 30.1612 46.6345 30.2303 46.7836 30.5337C46.8153 30.6679 46.8734 30.7056 47.0243 30.6642Z" fill="#D25046"/>
<path d="M34.7876 48.6003C34.9602 48.2447 35.1635 47.905 35.3953 47.5849C35.4935 47.4645 35.5618 47.3227 35.5949 47.1709C35.6279 47.0191 35.6247 46.8617 35.5854 46.7114C35.5639 46.5219 35.4793 46.4772 35.2984 46.525C35.2419 46.5567 35.1902 46.5961 35.1448 46.6422L35.1278 46.4298C35.1096 46.2108 35.1753 45.9931 35.3115 45.8208C35.4864 45.8861 35.6783 45.8896 35.8555 45.8309C36.0327 45.7722 36.1845 45.6547 36.2857 45.4979C36.3427 45.3566 36.3624 45.2031 36.3429 45.052C36.3234 44.901 36.2653 44.7574 36.1744 44.6353L35.8623 44.2725C35.7565 44.143 35.6155 44.0468 35.4562 43.9956C35.297 43.9444 35.1263 43.9404 34.9648 43.9841C34.6605 44.0498 34.3686 44.1637 34.1001 44.3213C33.9003 44.3997 33.7107 44.502 33.5355 44.6261C33.2653 44.9078 32.9253 45.113 32.5501 45.2206C32.4034 45.2649 32.2797 45.3645 32.2053 45.4985C32.1309 45.6324 32.1116 45.79 32.1514 45.938C32.16 46.1534 32.1578 46.3692 32.1448 46.5845C32.0723 46.744 32.0448 46.9534 31.9233 47.0449C31.7995 47.1552 31.699 47.2891 31.6276 47.4387C31.5561 47.5883 31.5152 47.7507 31.5073 47.9163C31.4858 48.0053 31.4584 48.0927 31.4251 48.178C31.2809 48.1907 31.136 48.1933 30.9914 48.1856C30.9061 48.1686 30.8181 48.1707 30.7338 48.1917C30.6494 48.2127 30.5707 48.2521 30.5034 48.3071C30.436 48.3622 30.3817 48.4314 30.3443 48.5099C30.3069 48.5884 30.2873 48.6742 30.287 48.7612C30.2963 48.9907 30.2492 49.2191 30.1497 49.4261C30.1112 49.4808 30.0953 49.5482 30.1053 49.6143C30.1153 49.6805 30.1503 49.7402 30.2032 49.7811C30.4274 49.9685 30.614 50.1966 30.7533 50.4534C30.6687 50.5121 30.5537 50.5459 30.5198 50.622C30.3981 50.8457 30.3099 51.086 30.2581 51.3353C30.2333 51.5723 30.2602 51.6104 30.5601 51.6657C30.6682 51.8651 30.8113 51.7721 30.9475 51.7055C31.1561 51.7375 31.3692 51.6922 31.5468 51.5782C31.6065 51.5498 31.7005 51.4766 31.726 51.4931C31.9149 51.6158 32.0903 51.5128 32.2668 51.5035C32.8516 51.47 33.0336 51.1182 32.7506 50.5677C32.6069 50.6159 32.4707 50.6839 32.3457 50.7696C32.3191 50.8013 32.2841 50.8249 32.2447 50.8377C32.2054 50.8504 32.1632 50.8519 32.123 50.8419C32.0311 50.8025 31.9528 50.737 31.8978 50.6535C31.8427 50.57 31.8134 50.4722 31.8133 50.3722C31.8505 50.106 31.9772 49.8604 32.1726 49.6758C32.2457 49.5851 32.3403 49.5141 32.4479 49.4694C32.5554 49.4247 32.6725 49.4076 32.7884 49.4197C32.8666 49.4344 32.9538 49.3877 33.0401 49.3662L33.5756 49.2336L33.6483 49.2808C33.7536 49.3492 33.8626 49.42 33.9606 49.2771L34.0333 49.3243L34.1555 49.2952L34.2754 49.2697L34.3916 49.2419L34.4883 49.0929C34.557 49.1065 34.5735 49.0811 34.5355 49.0202L34.5827 48.9476C34.6573 48.9599 34.6715 48.9381 34.6299 48.8749L34.6653 48.8204C34.7889 48.8129 34.8349 48.7343 34.7876 48.6003ZM34.411 44.8847C34.3451 44.7077 34.2533 44.865 34.1832 44.8298C34.179 44.7806 34.1675 44.7266 34.1483 44.7245C34.129 44.7223 34.1816 44.7925 34.1988 44.8296C34.2161 44.8666 34.3451 44.7077 34.411 44.8847ZM35.0114 45.6465C34.982 45.7195 34.9387 45.7861 34.884 45.8427C34.9387 45.7861 34.982 45.7195 35.0114 45.6465ZM30.823 49.1609C30.825 49.2294 30.8381 49.3205 30.8706 49.3261C30.8416 49.3073 30.8261 49.2197 30.8037 49.1587C30.7814 49.0977 30.637 49.1848 30.6894 49.0483C30.637 49.1848 30.7648 49.1231 30.8275 49.138L30.823 49.1609ZM34.625 46.9813C34.6363 47.123 34.5241 47.1844 34.3984 47.1234C34.1771 47.0107 34.1446 46.9018 34.2427 46.5677C34.35 46.6218 34.4512 46.6875 34.5443 46.7636C34.5926 46.824 34.6222 46.8971 34.6297 46.974L34.625 46.9813Z" fill="#D25046"/>
<path d="M65.5523 50.036C65.5523 50.036 65.5381 50.0578 65.5358 50.0615C65.5334 50.0651 65.5576 50.0756 65.5685 50.0827L65.5703 50.0322L65.5523 50.036Z" fill="#D25046"/>
<path d="M46.3467 17.6677L46.3353 17.6137C46.3286 17.6214 46.323 17.63 46.3188 17.6392L46.3467 17.6677Z" fill="#D25046"/>
<path d="M46.1504 17.0235L46.1619 17.0775C46.1685 17.0699 46.1741 17.0613 46.1783 17.0521L46.1504 17.0235Z" fill="#D25046"/>
<path d="M35.1783 46.4315L35.1304 46.4417C35.1304 46.4417 35.1304 46.4417 35.1522 46.4559C35.174 46.47 35.1736 46.4388 35.1783 46.4315Z" fill="#D25046"/>
<path d="M65.7062 16.4694L65.6522 16.4809L65.6777 16.4974C65.6777 16.4974 65.6978 16.4743 65.7062 16.4694Z" fill="#D25046"/>
<path d="M41.5421 44.6345C41.5992 44.4994 41.6095 44.349 41.5714 44.2073C41.5334 44.0656 41.4491 43.9407 41.3319 43.8524C41.2159 43.7449 41.0658 43.6816 40.9078 43.6733C40.7498 43.6651 40.594 43.7126 40.4674 43.8075C40.3055 43.9031 40.1674 44.0341 40.0635 44.1908C39.8771 44.4778 39.6884 44.7685 39.4802 45.0413C39.272 45.3142 39.0631 45.6279 38.8696 45.9258C38.8048 46.0214 38.7709 46.1346 38.7726 46.2502C38.7675 46.494 38.685 46.7298 38.5368 46.9235C38.4155 46.9273 38.3734 47.024 38.3337 47.117C38.2847 47.255 38.2253 47.389 38.1559 47.518C37.9058 47.9031 37.6557 48.2882 37.4033 48.6769C37.2122 48.9712 37.2247 49.0155 37.4859 49.3452C37.8543 49.2074 37.8652 49.2145 38.0007 48.8945C38.0688 48.6953 38.1898 48.5184 38.3508 48.3827C38.5117 48.247 38.7064 48.1577 38.9143 48.1241C39.0159 48.1111 39.1133 48.0752 39.199 48.019C39.2847 47.9628 39.3565 47.8878 39.409 47.7998C39.5303 47.7959 39.5761 47.7016 39.6122 47.6063C39.6738 47.4674 39.6954 47.3141 39.6745 47.1635C39.6536 47.013 39.5909 46.8714 39.4937 46.7546C39.6824 46.3606 39.8965 45.9832 40.0469 45.6005C40.0964 45.467 40.1862 45.3523 40.3039 45.2723C40.4216 45.1922 40.5613 45.1509 40.7036 45.154C40.8177 45.1454 40.9346 45.1801 41.05 45.1775C41.4511 45.1643 41.5506 45.0429 41.5357 44.6045L41.5421 44.6345Z" fill="#D25046"/>
</svg>
