<svg width="26" height="19" viewBox="0 0 26 19" fill="none" xmlns="http://www.w3.org/2000/svg">
<path fill-rule="evenodd" clip-rule="evenodd" d="M12.8092 9.2867C12.923 9.3692 13.077 9.3692 13.1908 9.2867L25.1888 0.588123C25.4438 0.403227 25.313 0 24.998 0H1.00197C0.686967 0 0.556175 0.403227 0.811204 0.588123L12.8092 9.2867ZM25.4842 2.97393C25.6991 2.81815 26 2.97166 26 3.23705V18.525C26 18.7045 25.8545 18.85 25.675 18.85H0.325C0.145507 18.85 0 18.7045 0 18.525V3.23705C0 2.97166 0.300897 2.81815 0.515765 2.97393L12.8092 11.8867C12.923 11.9692 13.077 11.9692 13.1908 11.8867L25.4842 2.97393Z" fill="#D04F45"/>
</svg>
