<?xml version="1.0" encoding="utf-8"?>
<!-- Generator: Adobe Illustrator 22.1.0, SVG Export Plug-In . SVG Version: 6.00 Build 0)  -->
<svg version="1.1" id="Layer_1" xmlns="http://www.w3.org/2000/svg" xmlns:xlink="http://www.w3.org/1999/xlink" x="0px" y="0px"
	 viewBox="0 0 235 81" style="enable-background:new 0 0 235 81;" xml:space="preserve">
<style type="text/css">
	.st0{fill:#D04F45;}
</style>
<path id="XMLID_238_" class="st0" d="M219.4,51.4l-0.1-0.9l0.4-0.6c0.1-0.1,0.1-0.3,0.1-0.4c0-0.2,0-0.4,0-0.5c0-0.2,0-0.4,0-0.6
	c-0.1-0.2-0.1-0.5-0.1-0.7c0.1-0.2,0.1-0.5,0-0.7c-0.1-0.3-0.1-0.6,0-0.9c0-0.1,0-0.2,0-0.4c0-0.1-0.1-0.2-0.1-0.3
	c0-0.2,0-0.4,0.1-0.6c0.2-0.2,0.2-0.5,0.2-0.8c0-0.2,0-0.3,0-0.5c0.1-0.2,0.1-0.5,0-0.7c0-0.1-0.1-0.2-0.1-0.3c0-0.1,0-0.2,0-0.2
	c0.1-0.3,0-0.5-0.1-0.8c0-0.1-0.1-0.2-0.1-0.2s0-0.2,0.1-0.2c0.1-0.3,0.2-0.7,0.1-1c-0.1-0.2,0-0.5,0-0.7c0-0.1,0-0.2,0-0.3
	c0-0.1,0-0.2-0.1-0.3c-0.1-0.2-0.1-0.3-0.1-0.5c0-0.2,0-0.4-0.1-0.5c-0.1-0.1-0.3-0.2-0.5-0.3c-0.1,0-0.2,0-0.3-0.1
	c-0.2-0.1-0.5-0.1-0.7,0c-0.1,0-0.1,0-0.1,0.1c0,0,0,0.1,0,0.2c0,0.2,0,0.4,0,0.6c0,0.1,0,0.1,0,0.2c0,0.1,0.1,0.1,0.1,0.1
	c0.1,0.1,0.3,0.2,0.4,0.3c0.2,0.1,0.1,0.3,0.2,0.4c0,0.2-0.2,0.1-0.2,0.2c-0.1,0-0.3,0-0.4,0c-0.3-0.1-0.5-0.1-0.8-0.1
	c-0.1,0-0.1,0-0.2,0c-0.1,0-0.1,0.1-0.2,0.1c0,0.1-0.1,0.1-0.1,0.1c-0.1,0.1-0.1,0.1-0.2,0.2c0,0.1-0.1,0.2,0,0.3
	c0,0.2,0,0.3-0.1,0.5c0,0.1,0,0.1-0.1,0.2c0,0.1-0.1,0.1-0.1,0.1c-0.1,0-0.1,0.1-0.2,0.1c-0.1,0-0.1,0-0.2,0c-0.1,0-0.2,0-0.4,0
	c-0.1,0-0.2,0.1-0.3,0.2c0,0.1-0.1,0.1-0.1,0.2c-0.2,0.3-0.5,0.6-0.8,0.7c-0.1,0-0.3,0-0.4,0.1s-0.3,0.1-0.4,0.1
	c-0.2-0.1-0.4-0.3-0.5-0.5c0-0.1,0-0.1-0.1-0.2c0,0-0.1-0.1-0.1-0.1c-0.3-0.1-0.7-0.2-1-0.1c-0.1,0-0.2,0-0.3,0
	c-0.1,0-0.2-0.1-0.2-0.2c0,0-0.1-0.1-0.1-0.1c0-0.1,0-0.2,0-0.3c0-0.1,0.1-0.1,0.2-0.1c0.1,0,0.2,0.1,0.3,0.1c0.2,0,0.4,0,0.6,0
	c0.2,0,0.4-0.1,0.6-0.3l0.2-0.1c0.1,0,0.2-0.1,0.2-0.2c0,0,0-0.1,0.1-0.1c0,0,0-0.1,0-0.1c0,0,0-0.1-0.1-0.1c0,0-0.1,0-0.1,0
	c-0.3,0-0.6,0-1-0.1c-0.1-0.1-0.2-0.3-0.4-0.3c-0.2-0.2-0.3-0.4-0.3-0.7c0-0.1-0.1-0.2-0.1-0.2c-0.1-0.1-0.1-0.1-0.2-0.1l-0.1-0.1
	l-0.1-0.1c0-0.1,0-0.1-0.1-0.2c-0.1-0.2-0.1-0.2,0-0.4c0.2-0.1,0.2-0.1,0-0.3l-0.1-0.2c0.1-0.4,0.2-0.7,0.4-1.1
	c-0.1,0.1-0.3,0.2-0.4,0.3c-0.1,0.1-0.1,0.1-0.1,0.2c-0.1,0.1,0,0.2-0.1,0.3c0,0.1,0,0.1,0,0.2c0,0.1,0,0.1,0,0.1c0,0-0.1,0-0.1,0
	c0,0-0.1,0-0.1-0.1c-0.1-0.2-0.3-0.3-0.5-0.5c-0.2,0-0.2,0.2-0.3,0.3c0,0.1,0.1,0.2,0.2,0.3c0.1,0.1,0.2,0.3,0.3,0.3
	c0.1,0,0.2,0.2,0.3,0.2c0,0,0,0.1,0,0.1c0,0-0.1,0.1-0.1,0.2c0,0.1,0,0.1-0.1,0.2c0,0.1-0.1,0.1-0.2,0.1l-0.2,0.1
	c0,0.1,0.1,0.2,0.1,0.2c0.1,0.1,0.1,0.1,0.2,0.2l0.3,0.4c0,0.1,0,0.1,0,0.2c0.1,0.1,0.1,0.3,0.1,0.5c0,0.2,0,0.3-0.1,0.5
	c0,0,0,0,0,0.1c0,0.3-0.1,0.6-0.1,0.9c-0.1,0.2,0,0.4,0,0.6c0.1,0.3,0.2,0.6,0.1,0.9c0,0,0,0.1,0,0.1c0,0,0,0.1,0,0.1
	c0,0,0,0.1,0.1,0.1c0,0,0.1,0,0.1,0c0,0,0.1,0,0.1,0c0.2-0.1,0.4,0,0.6,0c0.1,0.2,0.2,0.3,0.4,0.4c0.1,0.1,0.3,0.2,0.4,0.3
	c0.1,0.1,0.1,0.1,0.2,0.1s0.2,0,0.3,0c0.2-0.1,0.3-0.2,0.5-0.1c0.1,0,0.2-0.1,0.3-0.1l0.2-0.1l0.3,0.4c0.1,0.1,0.1,0.2,0.1,0.3
	c0,0.1,0,0.2,0,0.3c-0.1,0.3-0.1,0.6,0,0.9c0,0.1,0.1,0.3,0,0.4c0,0.1-0.1,0.2-0.2,0.3c0,0,0,0.1-0.1,0.1c-0.1,0-0.2,0.1-0.3,0.1
	c-0.1,0.1-0.2,0.1-0.2,0.2c-0.1,0.1,0,0.2,0.1,0.3l0.2,0.1c-0.1,0.2-0.1,0.3-0.2,0.4l-0.1,0.1v0.1c0,0,0,0.1-0.1,0.1
	c0,0,0,0-0.1,0.1l-0.1,0.1l-0.1,0.1l-0.1,0.1c0,0,0,0.1-0.1,0.1c-0.1,0-0.1,0.1-0.1,0.1c0,0.1-0.1,0.1-0.1,0.2c0,0.1,0,0.2,0,0.3
	c0,0-0.1,0-0.1,0.1c0,0-0.1,0.1-0.1,0.1c0,0,0,0.1,0,0.1c0,0,0,0.1,0,0.1c0,0,0,0.1,0,0.1l-0.2,0.1c-0.1,0-0.2,0-0.3,0
	c-0.2,0-0.3,0-0.5,0c-0.2,0-0.3-0.1-0.4-0.3c0-0.1-0.1-0.2-0.2-0.3c-0.1-0.1-0.2-0.1-0.3-0.2c-0.2,0-0.4-0.1-0.7-0.1l-0.1-0.1
	c0,0,0,0.1,0,0.1h-0.2c0-0.3-0.2,0-0.3-0.1c0,0,0,0,0-0.1c0-0.2,0.1-0.4,0.1-0.6c0-0.1,0-0.2-0.1-0.3c0-0.1-0.1-0.2-0.2-0.2
	c-0.1-0.1-0.2-0.1-0.3-0.2l-0.1,0.1h0c0,0,0,0,0,0c0.2,0,0,0.2,0.1,0.2c0.1,0,0.1,0.1,0.1,0.1l-0.5,0.4l0.3,0.6c0.1,0,0.2,0,0.3,0
	c0,0,0.1,0.1,0.1,0.1h-0.1l-0.3,0.1l-0.2-0.1h-0.1c0,0-0.1-0.1-0.2-0.1c-0.1,0-0.1,0-0.2,0c-0.3,0.1-0.5,0.2-0.8,0.3l-0.3-0.2
	c-0.1,0.2-0.1,0.4-0.2,0.6c0,0,0,0,0,0.1c0,0.1,0,0.2,0.1,0.2c0,0.1,0.1,0.1,0.2,0.1c0.1-0.1,0.2-0.1,0.2-0.2c0.1-0.1,0.2-0.1,0.3,0
	c0.1,0.1,0.1,0.1,0.2,0.2c0.1,0.2,0.2,0.3,0.3,0.4c0.1,0.1,0.3,0.2,0.5,0.2c0.1,0,0.2-0.1,0.2-0.1c0.3-0.2,0.3-0.2,0.6,0
	c0,0.2,0.2,0.3,0.3,0.4c0,0.1,0.1,0.1,0.1,0.2c0,0.1,0,0.2,0,0.2c0.2,0.1,0.3,0.2,0.5,0.3c0.2,0.1,0.3-0.1,0.5,0
	c0,0,0.1-0.1,0.1-0.1c0-0.1,0.1-0.3,0.1-0.5l0.5-0.3c0.1,0.1,0.2,0.1,0.2,0.1c0.1,0.1,0.1,0.1,0.2,0.1c0.1,0,0.2,0,0.2,0
	c0.1,0,0.2-0.1,0.4-0.1c0.2,0.2,0.3,0.6,0.5,0.8l-0.2,0.2c-0.2,0.1-0.3,0.3-0.3,0.4c-0.1,0-0.2,0-0.3,0c-0.1,0-0.2,0.1-0.3,0.1
	c-0.3,0.1-0.3,0.4-0.4,0.6c0,0.2,0.2,0.3,0.3,0.5c0.3-0.2,0.5-0.4,0.7-0.7c0,0,0,0,0,0l0.1-0.1c0.1-0.1,0.3-0.1,0.4-0.1
	c0.1,0,0.3-0.1,0.4,0l-0.1,0.5v0.1l-0.2,0.3c0,0,0,0,0,0.1c0,0,0,0,0,0.1c0,0,0,0,0,0.1s0,0,0,0l0.2,0.1c0,0.2-0.1,0.4-0.1,0.6
	c-0.1,0.3-0.1,0.7,0,1c0,0.1,0,0.3,0,0.4c-0.1,0.2,0,0.5,0,0.7c0,0.1,0.1,0.2,0.1,0.3c0,0.1,0,0.2-0.1,0.3c0,0.1-0.1,0.1-0.1,0.2
	c-0.1,0.2-0.2,0.3-0.3,0.4c0,0-0.1,0-0.1,0.1c0,0,0,0.1,0,0.1l-0.1,0.1c0,0-0.1,0.1-0.1,0.1c0,0,0,0.1,0,0.1c0,0,0,0.1,0,0.1
	c0,0,0,0.1,0.1,0.1c0.1,0.1,0.2,0.2,0.2,0.3c0,0.1-0.2,0.2-0.3,0.3c0,0.2,0.1,0.2,0.2,0.2c0.2,0.1,0.4,0.1,0.6,0.2
	c0.1,0,0.2,0,0.3,0.1c0.1,0.1,0.3,0.1,0.4,0.1c0.1,0,0.3,0,0.4-0.1c0,0,0.1,0,0.2,0c0.1,0,0.1,0.1,0.2,0.1c0,0.1,0,0.1-0.1,0.2
	c-0.1,0-0.1,0.1-0.2,0.1c-0.1,0.1-0.1,0.1-0.1,0.2c-0.1,0.2-0.1,0.4-0.1,0.6c0,0.1,0,0.1,0,0.2c0,0.1-0.1,0.1-0.1,0.2
	c0,0-0.1,0.1-0.1,0.1c-0.1,0.1-0.2,0.2-0.4,0.2c-0.3,0.1-0.5,0.3-0.7,0.6c0.1,0.1,0.1,0.3,0.2,0.4c0.1,0.1,0.1,0.2,0.1,0.3
	c0,0.1,0,0.2,0.1,0.3c0.1,0.1,0.1,0.2,0.2,0.2c0.1,0.1,0.2,0.1,0.3,0.1c0.2,0,0.2,0.1,0.3,0.2c0.1,0.2,0.1,0.2,0,0.3
	c-0.1,0.1-0.2,0.2-0.2,0.4c0,0,0,0-0.1,0.1c0,0,0,0,0,0.1s0,0.1,0,0.1c0,0,0,0,0,0.1c0.1,0.1,0.2,0.1,0.3,0.1c0.1,0,0.2-0.1,0.3-0.1
	c0.2-0.1,0.4-0.2,0.6-0.3c0.1,0,0.3,0,0.4-0.2c0.1-0.2,0.2-0.4,0.3-0.5c0.1-0.1,0.1-0.1,0.2-0.1c0.1,0,0.2,0,0.2,0
	c0.3,0,0.6,0.1,0.8,0.3c0.1,0,0.2,0.1,0.3,0.2c0.1,0.1,0.1,0.2,0.3,0.3c0.1-0.1,0.1-0.2,0-0.2c0-0.1,0-0.2,0-0.3c0-0.1,0-0.2,0-0.3
	v-0.1l0.1-0.1c0.1-0.1,0.2-0.1,0.3-0.2h0.2c0.5,0,0.6-0.3,0.7-0.6c0.1-0.2,0.1-0.5,0.1-0.7c0-0.2,0-0.4,0.1-0.5c0-0.1,0-0.1,0-0.1
	s0-0.1-0.1-0.1c-0.1-0.1-0.2-0.2-0.4-0.3c-0.2-0.2-0.3-0.3,0-0.6c0.1,0,0.1-0.1,0.1-0.1c0-0.1,0.1-0.2,0.1-0.2c0,0,0-0.1,0-0.1
	c0,0,0-0.1,0.1-0.1c0,0,0.1-0.1,0.1-0.1c0,0,0.1,0,0.1,0c0.1,0,0.1,0,0.2-0.1c0,0,0.1-0.1,0.1-0.1c0.1-0.1,0.1-0.2,0.2-0.4
	c0.1-0.1,0.1-0.3,0.1-0.5c0-0.2,0-0.4,0.1-0.6c0.1-0.4,0.1-0.7,0-1.1c0-0.1,0-0.3,0-0.4c0-0.1,0-0.2,0-0.4c-0.1-0.2-0.1-0.4-0.2-0.5
	c0-0.2-0.1-0.4-0.2-0.6c-0.1-0.3-0.3-0.7-0.5-1c0-0.3,0.1-0.6,0.1-0.9c0.1,0,0.2,0.1,0.2,0.1c0.2,0.2,0.4,0.3,0.6,0.5
	c0,0,0.1,0.1,0.1,0.1c0.1,0,0.1,0,0.2,0c0-0.3,0-0.6-0.2-0.9C220,51.6,219.7,51.5,219.4,51.4z M214.2,52.1
	C214.2,52.1,214.2,52.1,214.2,52.1C214.2,52.1,214.2,52.1,214.2,52.1L214.2,52.1c0,0.1,0,0.1,0.1,0.1
	C214.3,52.2,214.2,52.2,214.2,52.1z M216.7,52.5c0,0-0.1,0.1-0.1,0.1c-0.1,0-0.2-0.1-0.2-0.2c0,0,0,0,0-0.1c0,0,0,0,0.1,0
	c0,0,0.1,0,0.1,0c0,0,0.1,0,0.1,0C216.7,52.4,216.7,52.4,216.7,52.5C216.7,52.5,216.7,52.5,216.7,52.5z M216.9,42.5
	c-0.5-0.1-0.6-0.2-0.6-0.8c0,0,0-0.1,0-0.1c0.1,0,0.1,0,0.2,0c0.4,0,0.3,0,0.4,0.4c0,0,0,0.1,0.1,0.1c0,0.1,0,0.1,0,0.2
	c0,0.1,0.1,0.1,0.1,0.2C217.1,42.5,217.1,42.6,216.9,42.5z M218.1,46.3L218.1,46.3c0.1,0,0.3,0,0.4,0.1
	C218.4,46.3,218.2,46.3,218.1,46.3z M198.3,68.2c0,0,0,0.1,0.1,0.1c0,0.1,0,0.1,0,0.1c0,0-0.1,0.1-0.1,0.1c0,0-0.1,0-0.1,0
	c-0.3,0-0.5-0.1-0.7-0.3c-0.2-0.2-0.3-0.4-0.4-0.6c0-0.1,0-0.3,0-0.4c0-0.1,0-0.2,0-0.3c0-0.1-0.1-0.2-0.2-0.2
	c-0.2-0.2-0.4-0.4-0.6-0.5c-0.1,0-0.1-0.1-0.1-0.2c0-0.1,0-0.2,0.1-0.2c0.2,0,0.5,0,0.6,0.1c0.1,0.1,0.3,0.3,0.4,0.5
	c0.1,0.2,0.3,0.3,0.4,0.5c0.1,0,0.1,0.1,0.1,0.2c0,0,0.1,0.1,0.1,0.1c0,0.3,0.1,0.6,0.2,0.8C198.2,68.1,198.2,68.1,198.3,68.2z
	 M216.1,33.1c0-0.1,0-0.2,0-0.2s-0.1-0.2-0.1-0.2c0,0,0,0,0-0.1c0,0,0-0.1,0-0.1c0,0,0-0.1,0-0.1c0,0,0,0,0.1-0.1l0.7,0.3
	c0.1,0,0.1,0,0.2,0.1c0.1,0,0.2,0,0.2,0.1c0.1,0.1,0.1,0.1,0.1,0.2c0.1,0.2,0.1,0.3-0.1,0.5c-0.2,0.2-0.5,0.3-0.7,0.4
	c-0.1,0-0.2,0.1-0.3,0.2c-0.1,0.1-0.1,0.1-0.2,0.1c-0.1-0.1-0.1-0.2-0.2-0.3c0-0.3,0.1-0.5,0.3-0.7C215.9,33.1,216,33.1,216.1,33.1z
	 M219.1,34.5c0.2,0,0.4,0.1,0.5,0.2l0.3,0.2c-0.2,0.4-0.4,0.5-0.8,0.3l-0.2-0.1c-0.1,0-0.2,0-0.3,0c-0.2,0-0.5,0-0.7,0.2
	c-0.1,0-0.2,0.1-0.3,0.1c-0.2,0-0.3,0-0.5,0c-0.1-0.1-0.3-0.2-0.4-0.3c0,0-0.1-0.1-0.1-0.2c0-0.1,0-0.1,0-0.2c0-0.1,0-0.1,0.1-0.2
	c0,0,0.1-0.1,0.1-0.1c0.2-0.1,0.4-0.2,0.6-0.4c0.1-0.1,0.2-0.2,0.3-0.4l-0.4-0.5c0.1,0,0.1,0,0.2,0c0.1,0,0.2,0,0.3,0
	c0.1,0,0.2-0.1,0.2-0.2c0-0.1,0.1-0.1,0.2-0.1c0.1,0,0.1,0,0.2,0c0,0,0.1,0,0.1,0c0,0,0.1,0,0.1,0.1c0,0,0,0.1,0,0.1
	c0,0,0,0.1,0,0.1c0,0.1,0,0.2-0.1,0.2l0,0.2c0,0.1,0,0.2,0,0.2c0,0.1,0.1,0.2,0.1,0.2c0.1,0.1,0.1,0.1,0.2,0.2
	C218.8,34.5,219,34.5,219.1,34.5z M225,51.8c0,0.1-0.1,0.2-0.3,0.2c-0.2,0-0.5,0-0.7,0c0,0-0.1,0-0.1-0.1c-0.1,0-0.2,0-0.3,0
	c-0.1,0-0.3-0.1-0.4-0.1c-0.1-0.1-0.2-0.2-0.3-0.3c-0.1-0.2-0.2-0.3-0.3-0.5c0,0,0-0.1,0-0.1c0,0,0.1-0.1,0.1-0.1
	c0.2-0.1,0.3-0.2,0.3-0.4c0-0.1,0.1-0.1,0.1-0.2c0,0,0.1,0,0.1,0c0,0,0.1,0,0.1,0c0,0,0.1,0,0.1,0.1s0,0.1,0,0.1c0,0.1,0,0.2,0,0.3
	c0,0.1,0,0.2,0,0.3c0,0.1,0,0.2,0.1,0.3c0.1,0.1,0.2,0.2,0.3,0.2c0.1,0,0.1,0,0.1,0.1c0.2,0.1,0.4,0.1,0.6,0
	C224.7,51.6,225,51.7,225,51.8z M222.9,35.4c-0.1,0-0.3,0-0.4-0.1c-0.1-0.1-0.2-0.2-0.3-0.3c0,0-0.1-0.1-0.1-0.2
	c0-0.1,0-0.1,0.1-0.2c0.1-0.2,0.3-0.4,0.6-0.6c0.2-0.1,0.3-0.1,0.5-0.2c0.1,0,0.2,0.1,0.3,0.1c0.2,0.1,0.3,0.3,0.4,0.5
	c0,0.1,0.1,0.2,0,0.3c0,0.1-0.1,0.2-0.2,0.3C223.5,35.3,223.2,35.4,222.9,35.4z M215.5,36c-0.1,0.1-0.2,0.1-0.3,0.1c0,0-0.1,0-0.1,0
	c0,0-0.1,0-0.1-0.1c-0.1-0.1-0.2-0.2-0.2-0.3c0-0.2-0.2-0.2-0.4-0.2c-0.1,0-0.2,0-0.3-0.1c-0.1,0-0.2-0.1-0.2-0.2
	c-0.1,0-0.2-0.1-0.3-0.2c-0.1-0.1-0.1-0.2,0-0.3c0.1-0.1,0.3-0.2,0.4-0.2c0.2,0,0.3,0,0.5,0c0.3,0.1,0.6,0.2,0.9,0.1c0,0,0,0,0,0
	l0,0c0,0,0,0,0,0h0c0,0.2-0.1,0.2-0.2,0.3C215.4,35.4,215.3,35.7,215.5,36z M205.2,38c-0.1,0.2-0.2,0.3-0.4,0.4
	c-0.2,0.1-0.4,0.3-0.6,0.4c-0.2,0.1-0.4,0-0.6-0.1c0,0,0,0-0.1,0c-0.1-0.1-0.2-0.1-0.3-0.1c-0.1,0-0.2,0-0.3,0c0,0-0.1,0-0.1,0
	c0,0,0,0.1,0,0.1c0,0-0.1,0.1-0.1,0.1c-0.1,0.1-0.3,0.1-0.4,0.1l-0.5-0.1c-0.1,0-0.2,0.1-0.3,0.1c-0.3,0-0.5,0-0.8,0.1
	c-0.1,0-0.2,0.1-0.2,0.2c0,0.1-0.1,0.2-0.2,0.2c0,0-0.1,0-0.1,0c-0.3-0.1-0.5,0-0.8,0h-0.8c-0.1,0-0.2,0-0.3,0.1
	c-0.1,0.1-0.1,0.1-0.1,0.2c0,0.1,0,0.2,0,0.3c0.1,0.2,0.1,0.4,0,0.7c0,0,0,0.1,0,0.1c0.1,0,0.2-0.1,0.3-0.1c0.2,0,0.3,0,0.3,0.3
	c0,0.1,0,0.2-0.1,0.3c0,0,0,0.1-0.1,0.1c0,0-0.1,0.1-0.1,0.1c0,0-0.1,0-0.1,0c0,0-0.1,0-0.1,0c0,0,0,0-0.1,0
	c-0.1-0.1-0.2-0.1-0.3-0.1c-0.1,0-0.2,0-0.3,0.1c-0.1,0-0.1,0.1-0.2,0.1c-0.1,0.2-0.2,0.4-0.3,0.7l0.1,0.1c0,0,0.1,0,0.1-0.1
	c0.1-0.2,0.3-0.4,0.4-0.6c0,0,0.1-0.1,0.1-0.1c0,0,0.1,0,0.1,0c0.2,0,0.3,0.1,0.3,0.2c0,0.2-0.1,0.5-0.1,0.7c0,0.1-0.1,0.1-0.1,0.2
	c-0.2,0.2-0.4,0.4-0.5,0.6c-0.1,0.1-0.2,0.2-0.3,0.2c-0.1,0-0.1,0-0.2,0c-0.1,0-0.1-0.1-0.1-0.1c0-0.1-0.1-0.2-0.1-0.3
	c0-0.1,0-0.2,0-0.4v0c0,0,0,0,0,0l-0.3-0.1v-0.3c-0.1-0.1-0.3,0-0.4,0c0,0-0.1,0-0.1,0c-0.1,0.1-0.3,0.1-0.4,0.1
	c-0.1,0-0.3-0.1-0.4-0.1c0,0-0.1,0-0.1-0.1c-0.2-0.1-0.2-0.1-0.3,0.1c-0.1,0-0.2,0.1-0.3,0.1c-0.1,0.1-0.1,0.2-0.2,0.3
	c-0.1,0.1-0.1,0.1-0.2,0.2c0,0.2,0,0.4,0,0.6c0.1,0.3-0.1,0.4-0.3,0.5c-0.1,0-0.1,0-0.2,0c0.1,0.2,0.3,0.4,0.4,0.6l0.1,0.1
	c0.1,0.1,0.1,0.1,0.2,0.2c0.2,0.2,0.3,0.2,0.5,0.1c0.1,0,0.1-0.1,0.2-0.1c0-0.2,0.2-0.3,0.3-0.4c0.1-0.1,0.2-0.2,0.3-0.3
	c0.1-0.1,0.2-0.2,0.2-0.3c0,0,0,0,0.1,0c0.1,0,0.3,0,0.4,0.1c0.1,0.1,0.2,0.2,0.2,0.3c0.1,0.1,0.1,0.3,0.2,0.4
	c0.1,0.1,0.1,0.1,0.1,0.2c0,0.1,0,0.1,0,0.2c0,0.1-0.1,0.1-0.1,0.1c0,0-0.1,0.1-0.1,0.1c-0.3,0.2-0.3,0.5,0,0.8
	c0.1,0.1,0.3,0.2,0.4,0.3c0,0,0,0.1,0.1,0.1c0.1,0,0.2,0.1,0.3,0.2c0.1,0.1,0.1,0.2,0.1,0.3c0,0,0,0.1-0.1,0.1c0,0,0,0,0,0.1
	c0,0,0,0,0,0.1c0,0,0,0,0,0c0,0,0,0,0,0c0,0,0,0-0.1,0l-0.1,0.1l-0.1,0.1l-0.1,0.1h-0.2c0,0.1,0,0.1-0.1,0h-0.1c0,0.1,0,0.1-0.1,0
	h-0.1c-0.3,0-0.3,0-0.3,0.3c0,0.1-0.1,0.3-0.1,0.4c0.1,0.1,0.1,0.2,0.1,0.3c0,0.1,0,0.2-0.1,0.3c0,0.1,0,0.1,0,0.2
	c0,0.1,0,0.2,0.1,0.3h0.1c0,0,0,0.1,0,0.1c0,0-0.1,0.1-0.1,0.1v0.1h0.1l0.1,0v0c0-0.1,0.1-0.2,0.1-0.3l0.5-0.1c0.1,0,0-0.1,0-0.1
	c-0.1-0.1-0.1-0.3-0.1-0.5c0-0.1,0-0.2,0.2-0.2c0.1,0,0.2-0.1,0.3-0.1c0,0.2,0.1,0.5-0.1,0.7l-0.1,0.3h0.1c0.2,0,0.3,0.2,0.3,0.3
	c0,0.2-0.1,0.4,0,0.7c0,0.1,0,0.1-0.2,0.3c-0.1,0.1-0.2,0.1-0.2,0.2c-0.1,0-0.1,0.1-0.2,0.1c0,0.1-0.1,0.1-0.1,0.2l0,0
	c0.1,0.1,0.2,0.2,0.3,0.3c0,0,0.1,0.1,0.1,0.1h0.6h0.8c0.1,0,0.1,0,0.1,0.1c0.1,0,0.2,0,0.3,0c0.1,0,0.2,0.1,0.3,0.2
	c0.1,0.1,0.2,0.2,0.3,0.3c0.1-0.2,0.2-0.3,0.3-0.5c0-0.1,0.1-0.1,0.2-0.1c0,0,0,0.1,0.1,0.1l0.2-0.1c-0.1,0-0.2-0.1-0.3-0.1
	c-0.1,0-0.2,0-0.2-0.2c0-0.1-0.1-0.1-0.1-0.1c0,0-0.1,0-0.2,0c-0.1,0-0.2-0.1-0.3-0.1c-0.1,0-0.2,0-0.2-0.1c0-0.1,0-0.1,0.1-0.2v0
	l0.4-0.3c0-0.1,0-0.2-0.1-0.3c-0.1-0.1-0.1-0.2-0.1-0.3c0-0.1,0-0.2,0-0.3c0.1-0.3,0.2-0.6,0.4-0.8c0.1-0.1,0.2-0.2,0.3-0.4
	l-0.4-0.4l-0.1-0.1c-0.1-0.1-0.2-0.2-0.3-0.3c-0.3-0.2-0.3-0.4-0.1-0.8c0.1-0.2,0.2-0.3,0.3-0.5l0.5-0.5c0,0,0.1-0.1,0-0.1
	c-0.1-0.1-0.3-0.2-0.4-0.3c0,0-0.1,0-0.1,0.1c0,0,0,0.2-0.1,0.2c-0.1,0-0.2,0.2-0.3,0.1c-0.4,0.1-0.6-0.1-0.5-0.6c0,0,0-0.1,0-0.1
	c0.2-0.1,0.5-0.2,0.7-0.1c0,0,0,0,0.1,0c0,0,0,0,0.1,0c0,0,0,0,0.1,0c0,0,0,0,0.1,0c-0.3-0.2-0.2-0.3,0.1-0.5c0,0,0-0.1,0.1-0.1
	c0.1,0,0.1,0,0.2,0c0.1,0,0.1,0,0.2,0.1c0.1,0,0.1,0.1,0.1,0.1c0,0.1,0,0.1,0,0.2c0,0.1,0,0.2-0.1,0.3c0,0,0,0.1,0,0.1
	c0,0,0,0,0,0.1s0,0,0.1,0c0,0,0.1,0,0.1,0c0.1,0,0.3,0,0.4,0.1c0.1,0.1,0.2,0.1,0.3,0.2c0.1,0.1,0.2,0.2,0.3,0.2
	c0.1,0.1,0.2,0.2,0.2,0.2c0,0,0.1,0.1,0.1,0.1c0.2,0.1,0.2,0.1,0.4-0.1c0-0.2,0.1-0.5,0.2-0.7c0.2-0.3,0.3-0.6,0.4-0.9
	c-0.1,0-0.1,0-0.2,0c-0.1,0-0.2,0.1-0.4,0.1c-0.3,0-0.6,0-0.9-0.1c0,0-0.1-0.1-0.1-0.1c-0.1-0.2-0.1-0.3,0.1-0.4
	c0,0,0.1-0.1,0.1-0.1c0-0.1,0.1-0.1,0.2-0.1c0.1,0,0.1,0,0.2,0c0.3,0,0.5,0.1,0.8,0.2c0,0,0.1,0,0.1,0.1l0.3,0.3v-0.4l0.1-0.1
	l0.3,0.1l-0.1,0.2c0,0.1-0.1,0.2-0.1,0.3c-0.1,0.1-0.1,0.2-0.1,0.3c0,0.1,0,0.2,0,0.3c0,0.3,0.1,0.6,0.2,0.9
	c-0.1,0.1-0.1,0.2-0.2,0.2c-0.1,0-0.2,0.1-0.2,0.2c-0.1,0.1-0.1,0.2-0.1,0.3v0.1h0.1c0.1,0.2,0.2,0.4,0.1,0.7c0,0,0,0.1,0,0.1
	c0.2,0,0.2,0.1,0,0.2c0,0,0,0,0,0c0.1,0.1,0.1,0.1,0.2,0.2c0,0.1,0.1,0.2,0.1,0.3c0.1,0.2,0.2,0.3,0.2,0.5l0.2,0.4h0.1l0.1,0.1
	l0.1,0.1l0.1,0.1c0,0,0,0,0.1,0.1l0.1,0.1v0.1l0.1,0.1v0.1c0,0.1,0.1,0.2,0.1,0.3c-0.2,0.1-0.3,0.1-0.4,0h-0.1l-0.2-0.1
	c-0.2,0-0.4,0-0.4,0.2c-0.2,0-0.2,0.2-0.4,0.3c0.1,0.1,0.2,0.3,0.3,0.4c0.1,0.1,0.2,0.2,0.2,0.4c0,0,0.1,0.1,0.1,0.1
	c0.1,0,0.1,0.1,0.1,0.1c0,0.1,0.1,0.1,0.1,0.2c0,0.1,0,0.1,0,0.2c0,0.1,0,0.1-0.1,0.2c0.1,0,0.2-0.1,0.3-0.2
	c0.1-0.1,0.3-0.1,0.4-0.1s0.3,0,0.4,0.1c0,0,0,0.1,0.1,0.1c0,0.1,0,0.2-0.1,0.3c0,0.1-0.1,0.2-0.2,0.2c-0.1,0.1-0.2,0.2-0.3,0.2
	c-0.1,0.2-0.2,0.2-0.4,0.2c-0.2-0.1-0.4-0.2-0.6-0.3c0-0.2,0.1-0.3,0.2-0.4l-0.1-0.1l-0.2,0.1c-0.1,0.1-0.2,0.2-0.3,0.3
	c-0.1,0.1-0.1,0.3-0.1,0.4c0,0.2,0,0.4-0.1,0.6c-0.1,0.2-0.2,0.4-0.3,0.6c0,0-0.1,0-0.1,0c0,0.1,0,0.1-0.1,0.2c0,0-0.1,0.1-0.1,0.1
	c0,0.1,0,0.1,0,0.2c0,0.1,0,0.1,0,0.2s0.1,0.1,0.1,0.2c0,0,0.1,0.1,0.2,0.1c0.1,0.1,0.2,0.2,0.3,0.3c0-0.1,0.1-0.2,0.2-0.3
	c0.1-0.2,0.3-0.2,0.4,0c0,0,0,0.1,0.1,0.2c0.1,0.1,0.2,0.3,0.4,0.4c0.1,0,0.1,0.1,0.1,0.1c0.1,0,0.1,0.1,0.2,0.2c0,0.1,0,0.2,0,0.3
	c0,0.1-0.1,0.2-0.1,0.3c-0.1,0.2-0.1,0.4-0.2,0.6c-0.1,0.1-0.1,0.3,0,0.4c0,0.1,0.1,0.3,0.2,0.4c0.1,0.1,0.1,0.2,0,0.3l0.2,0.2
	c0,0,0,0,0.1,0.1l0.1,0.1c0.2,0.1,0.3,0.3,0.4,0.4c0,0.1,0.1,0.1,0.1,0.2c0,0.1,0,0.1-0.1,0.2c-0.1,0.2-0.2,0.4-0.4,0.4
	s-0.4,0.1-0.6,0c-0.1,0-0.1-0.1-0.2-0.1c0,0-0.1,0-0.2,0.1c-0.1,0-0.2,0-0.1-0.1c0-0.1,0-0.3,0-0.4c0-0.4,0-0.4-0.4-0.3
	c-0.1,0.1-0.2,0.1-0.4,0.2h-0.2c-0.1,0-0.1,0-0.1,0c-0.1-0.1-0.1-0.2-0.1-0.3c0,0,0-0.1,0.1-0.2c0.1-0.1,0.1-0.1,0.1-0.2
	c0-0.1,0-0.2,0-0.3c0-0.1-0.1-0.2-0.1-0.3c-0.1,0-0.1,0-0.2,0.1s0,0.1,0,0.2c0,0-0.1,0.1-0.1,0.1c0,0.1-0.1,0.1-0.2,0.1
	c-0.1-0.1-0.3-0.2-0.3-0.3h-0.1v0.1c-0.1,0-0.2,0.1-0.3-0.1c0,0-0.1,0-0.1-0.1c0,0,0-0.1,0-0.1c0,0,0-0.1-0.1-0.1
	c-0.1-0.2-0.1-0.3,0.1-0.3c0,0,0-0.1,0.1-0.1c0-0.2,0-0.3,0-0.5c0-0.2-0.1-0.3-0.2-0.5c0.2-0.2,0.3-0.4,0.3-0.6
	c-0.1-0.2-0.3-0.3-0.3-0.5c-0.1-0.1-0.1-0.2-0.2-0.2c0,0.1,0,0.2-0.1,0.4c0,0.2-0.1,0.3-0.2,0.4c-0.1,0.1-0.3,0.2-0.4,0.2
	c-0.2,0.1-0.4,0.2-0.5,0.3c-0.1,0.1-0.1,0.1-0.2,0.2c-0.1,0.1-0.2,0.1-0.2,0.1c-0.1,0-0.2,0-0.2-0.1c-0.1-0.1-0.2-0.1-0.4-0.1
	c-0.2,0-0.4-0.1-0.5-0.2c-0.1-0.1-0.2-0.3-0.3-0.5l-0.1-0.1h-0.2c-0.1,0.1-0.1,0.1-0.1,0.2c0,0.1,0,0.2,0.1,0.2c0,0,0,0.1,0.1,0.1
	c0,0,0,0.1,0,0.1c0,0,0,0.1-0.1,0.1c0,0-0.1,0.1-0.1,0.1c-0.3,0.2-0.5,0.3-0.8,0.4c-0.3,0.1-0.6,0.3-0.9,0.4c-0.1,0-0.1,0.1-0.1,0.2
	c0,0.2,0,0.4,0,0.6c0,0.1,0,0.1,0,0.1c0,0.1-0.1,0.1-0.2,0.2c-0.1,0-0.1,0.1-0.1,0.1c0,0.1,0,0.1,0,0.2c0,0.1,0.1,0.3,0.1,0.4
	l0.1,0.3c0.1,0,0.1,0,0.2,0c0.1,0,0.1-0.1,0.2-0.1c0-0.1,0-0.2,0-0.4c0-0.1,0-0.2,0-0.2c0-0.1,0.1-0.2,0.1-0.2l0.1-0.1l0.2-0.1
	c0.1,0,0.2,0,0.3-0.1c0.2-0.1,0.3,0,0.4,0.1c0.1,0.1,0.1,0.2,0.1,0.2c0.1,0.1,0.3,0.1,0.4,0c0.1-0.1,0.2-0.1,0.3-0.3
	c-0.2-0.1-0.4-0.2-0.6-0.2c-0.1,0-0.2-0.1-0.2-0.2c0,0,0,0,0-0.1c0,0,0-0.1,0-0.1c0,0,0-0.1,0-0.1c0,0,0,0,0.1-0.1
	c0,0,0.1,0,0.1-0.1c0.1-0.2,0.3-0.2,0.5-0.3l0.2,0.4c0.2,0,0.2,0.2,0.3,0.3c0,0.1,0.1,0.2,0.2,0.2c0.1,0.1,0.2,0.1,0.3,0.1
	c0.1,0,0.1,0,0.2,0.1c0.1,0.1,0.2,0.1,0.4,0.1c0.1,0,0.3,0,0.4-0.1c0.2,0,0.2,0,0.3,0.2l0,0h0.1c0.1,0,0.2,0.1,0.2,0.2
	c0,0.1,0.1,0.2,0.1,0.2c0.1,0.1,0,0.2,0.1,0.3c0,0.1,0,0.1,0.1,0.2c0,0.1,0,0.2,0.1,0.3c0,0.1,0.1,0.2,0,0.3c0,0.1-0.1,0.2-0.1,0.2
	h-0.1l-0.1,0.1c-0.1,0.1-0.2,0.1-0.3,0.2c0,0-0.1,0-0.2,0c-0.1,0-0.1,0-0.1-0.1l-0.2-0.1c-0.3-0.1-0.5,0-0.6,0.3
	c-0.1,0.2-0.1,0.4-0.2,0.6c0,0.1-0.1,0.3-0.1,0.4c0,0,0.1,0,0.1,0c0.1,0.1,0.1,0.1,0.2,0.1c0.1,0,0.2,0,0.2-0.1c0,0,0.1,0,0.1,0
	v-0.1c0.1-0.1,0.3-0.1,0.4-0.3c0,0,0.1,0,0.1,0c0.1,0,0.1,0.1,0.2,0.1c0.1,0.1,0.2,0.3,0.3,0.4c0,0,0,0.1,0,0.2h0.1
	c0.1,0,0.1,0,0.1,0.1h0.1c0,0.1,0.1,0.2,0.1,0.2c0,0,0.1,0,0.2,0c-0.2,0.1-0.3,0.2-0.5,0.3c-0.1,0-0.1,0.1-0.1,0.1
	c0,0.1,0,0.1-0.1,0.2c0,0.1,0,0.1,0.1,0.2c0,0,0.1,0.1,0.1,0.1c0,0,0.1,0.1,0.1,0.1c0.1,0,0.1,0,0.2,0c0,0,0.1,0,0.1,0
	c0,0,0,0,0.1,0c0,0,0,0,0-0.1c0,0,0,0,0-0.1c0-0.1,0-0.2,0-0.2c0.1-0.1,0.1-0.2,0.1-0.3c0-0.1,0-0.2,0-0.3l0.3-0.3
	c-0.1-0.1-0.1-0.1-0.1-0.2c0-0.1,0-0.3-0.1-0.4l0.4,0c0-0.2-0.1-0.5-0.1-0.7c-0.1-0.1-0.2-0.4-0.4-0.4c0-0.1,0.1-0.2,0.1-0.2
	c0.1,0,0.1,0.1,0.2,0.1c0.2-0.1,0.4-0.1,0.6-0.1c0.2,0,0.4-0.1,0.6-0.2c0.2,0,0.3-0.2,0.5-0.3c0.1-0.1,0.2-0.2,0.4-0.2
	c0.2,0.1,0.2,0.2,0.2,0.4l-0.1,0.1c-0.1,0.3-0.2,0.6-0.4,0.8c0,0.1-0.1,0.2-0.1,0.2c-0.2,0.1-0.1,0.3-0.2,0.4l0.3,0.4
	c0.1,0,0.2,0.1,0.3,0.2c0.1,0.1,0.1,0.2,0.1,0.4c0,0.1,0,0.1-0.1,0.1v0.2c0,0,0,0,0,0.1c0,0,0,0,0,0s0,0,0,0c0,0,0,0-0.1,0
	c0,0.2,0.1,0.4,0.1,0.6c0,0,0,0.1,0,0.1c0,0.1-0.1,0.2,0,0.3c0,0.1,0.1,0.2,0.1,0.3c0,0,0,0.1,0.1,0.1c0,0,0,0.1,0,0.1
	c0,0,0,0.1,0,0.1s-0.1,0.1-0.1,0.1c-0.1,0.2-0.2,0.4-0.3,0.6c0,0-0.1,0.1-0.1,0.1c0,0.3,0,0.6-0.1,0.8l0,0v0.1
	c-0.2,0.3,0,0.4,0.2,0.5c0.3,0.2,0.3,0.3,0.2,0.6c0,0.2-0.1,0.4-0.1,0.6c0.2,0.4,0.1,0.8-0.2,1c-0.2,0.1-0.3,0.2-0.4,0.4
	c-0.1,0.2-0.1,0.3-0.1,0.5c0,0,0,0.1,0,0.1c0.2,0.2,0.4,0.3,0.5,0.6c0.2,0.1,0.2,0.3,0.3,0.5c0,0.1,0,0.2,0,0.3
	c0,0.1-0.1,0.2-0.2,0.2c-0.2,0.2-0.3,0.5-0.3,0.8c0,0.3,0,0.6,0.1,0.9c0.1,0.3,0,0.6-0.1,0.9c0.1,0.3-0.1,0.5-0.2,0.7
	c0,0.2-0.1,0.3,0,0.5c0,0.2,0.1,0.3,0.2,0.5c0,0,0,0.1,0,0.1c0.1,0.1,0.1,0.2,0.1,0.3c0,0.2,0.1,0.5,0.2,0.7
	c0.1,0.2,0.1,0.2-0.1,0.4c0-0.1-0.1-0.2-0.2-0.2c-0.1-0.1-0.2-0.1-0.3-0.1h-0.6c0,0,0-0.1-0.1-0.1c-0.2-0.1-0.2-0.3-0.2-0.4
	c0-0.1-0.1-0.2,0-0.3c0-0.1,0.1-0.2,0.2-0.2l0,0c0.2-0.3,0.2-0.3-0.1-0.5c0-0.2,0.2-0.2,0.2-0.4c-0.1-0.2,0.1-0.3,0-0.5
	c0.1-0.1,0.1-0.1,0.2-0.2c-0.2-0.1-0.3-0.2-0.4-0.4c0-0.1,0-0.2,0-0.2c0-0.1,0-0.2,0.1-0.2c0.1-0.1,0.1-0.2,0.1-0.3
	c0-0.1,0-0.2-0.1-0.3c-0.1-0.1-0.1-0.2-0.2-0.3l0.3-0.2c0-0.1,0-0.3,0.1-0.4c0.1-0.1,0.2-0.2,0.3-0.3c0.3-0.2,0.3-0.3,0.2-0.6
	c-0.1-0.2-0.1-0.3-0.2-0.5c0-0.1-0.1-0.1-0.2-0.1c-0.1,0-0.2-0.1-0.3-0.1c0,0-0.1-0.1-0.1-0.1s0-0.1,0-0.2s0-0.1,0-0.2
	c0,0,0.1-0.1,0.1-0.1c0.2-0.1,0.4-0.2,0.6-0.3c0,0,0.1,0,0.1-0.1c0,0,0-0.1,0-0.1c0-0.1,0-0.3-0.1-0.4c-0.1-0.1-0.2-0.2-0.3-0.4
	c-0.1-0.2-0.2-0.3-0.4-0.4c-0.3-0.2-0.6-0.4-0.8-0.7c-0.1-0.1-0.2-0.3-0.4-0.3c-0.2-0.1-0.3-0.1-0.5-0.1c-0.1,0-0.1,0-0.2,0
	c0,0-0.1,0-0.1,0c0,0.1-0.1,0.2-0.2,0.3c-0.1,0.1-0.2,0.1-0.4,0.1c-0.3,0-0.6-0.2-0.9-0.4c-0.1-0.1-0.1-0.2-0.2-0.2
	c-0.1-0.3-0.2-0.6-0.2-0.9c0-0.3-0.1-0.5-0.2-0.7c-0.1-0.1-0.1-0.2-0.2-0.3c-0.1-0.2-0.1-0.2,0.1-0.3c0.1,0,0.1,0,0.2,0
	c0.1,0,0.1,0,0.2,0.1c0.3,0.1,0.5,0.2,0.7,0.4c0.2,0.2,0.3,0.4,0.5,0.6l0.3,0c0.1,0,0.2,0,0.3,0c0.1,0,0.2,0.1,0.2,0.2
	c0.2,0.2,0.3,0.3,0.5,0.5c0,0,0.1,0.1,0.2,0.1c0,0,0.1,0,0.1,0s0.1,0,0.1,0c0,0,0.1,0,0.1-0.1c0,0,0.1-0.1,0.1-0.1
	c0-0.1,0-0.1,0.1-0.2c0.2-0.4,0.1-0.5-0.3-0.7c0-0.1,0-0.3,0-0.4c0-0.1-0.1-0.2-0.2-0.3c-0.1-0.1-0.1-0.1-0.2-0.2
	c-0.3-0.1-0.6-0.2-0.9-0.4c-0.1,0-0.2-0.1-0.2-0.1c-0.1,0-0.2,0-0.2,0.1c-0.1,0.1-0.2,0.1-0.3,0.1c-0.1,0-0.2,0-0.3,0
	c-0.1,0-0.2-0.1-0.2-0.2c0-0.1-0.1-0.1-0.1-0.1s-0.1,0-0.2,0c-0.2,0-0.3,0-0.5,0c-0.1,0-0.2-0.1-0.3-0.1c-0.1-0.1-0.1-0.1-0.2-0.2
	c0,0-0.1,0-0.1,0c-0.1-0.1-0.2-0.1-0.3-0.1c-0.1,0-0.2,0-0.3,0.1c-0.2,0.1-0.3,0.1-0.5,0c-0.2,0-0.3,0-0.5,0.1
	c-0.2,0.1-0.3,0.2-0.4,0.4c-0.1,0.2-0.1,0.3-0.1,0.5c0,0.1,0,0.2,0.1,0.2c0.1,0.1,0.2,0.2,0.3,0.4c0.1,0.1,0.1,0.2,0.2,0.3
	c0.1,0.1,0.1,0.1,0.1,0.2c0,0.1,0,0.2-0.1,0.2c-0.1,0.1-0.2,0.3-0.2,0.5c0,0.2,0,0.3,0.1,0.5c0.1,0.3,0.2,0.6,0.1,0.9
	c0,0.1,0,0.2,0.1,0.3c0.1,0.1,0.1,0.3,0.1,0.4c0,0.1-0.1,0.3-0.1,0.4c-0.2,0.3-0.2,0.3,0,0.6c0.1,0.2,0.3,0.3,0.5,0.3
	c0.1,0,0.2,0.1,0.3,0.2c0.1,0.1,0.2,0.2,0.2,0.3c0,0.1,0,0.3,0,0.4c-0.1,0.2-0.1,0.4-0.1,0.6c0,0.1,0,0.3,0,0.4
	c0,0.1-0.1,0.2-0.2,0.3c-0.1,0.1-0.2,0.2-0.3,0.3l-0.1,0.1l-0.1,0.1c0,0.2,0,0.3-0.1,0.5c0,0.1,0,0.1,0,0.2c0.1,0.2,0.2,0.4,0.3,0.7
	c0,0,0.1,0.1,0.2,0.1l0.1-0.1l0.2-0.1c0,0,0,0,0,0c0,0,0,0,0,0c0,0,0,0,0,0c0,0,0,0,0,0c0,0,0,0,0,0c0,0,0,0,0,0.1c0,0,0,0,0,0.1
	s0,0,0,0l-0.3,0.2c-0.2,0.2-0.4,0-0.5-0.1l-0.2,0.1c-0.1,0.1-0.2,0.2-0.2,0.3c0,0.1,0,0.2,0,0.3c0,0.1,0,0.2,0,0.4
	c0,0.1-0.1,0.2-0.2,0.3c0,0,0,0.1,0,0.1c0,0-0.1,0.1-0.1,0.1c0.1,0.1,0,0.2-0.1,0.3c0,0,0,0,0.1,0c0,0,0,0,0,0.1c0,0,0,0,0,0.1
	c0,0,0,0.1,0,0.1c-0.1,0.2-0.1,0.5-0.3,0.7c0,0-0.1,0.1-0.1,0.1c0,0,0,0.1,0,0.1c0,0.1,0,0.2-0.1,0.2c0,0,0,0.1,0,0.1
	c0,0.1,0,0.2,0.1,0.2c-0.1,0-0.1,0-0.2-0.1c-0.1,0-0.1-0.1-0.2-0.1c-0.1,0-0.2,0.1-0.2,0.1c0,0.2,0,0.3,0,0.5c0,0.5-0.3,0.7-0.7,0.5
	c-0.2,0-0.2-0.3-0.3-0.4c0.1-0.1,0-0.3,0-0.4c0.1,0,0.2,0,0.2,0c0,0,0,0,0-0.1c0,0,0,0,0-0.1c0,0,0,0,0-0.1c0,0,0,0,0,0
	c-0.2-0.1-0.3,0-0.4,0.1l0,0c0-0.1,0-0.2,0-0.3c-0.2,0.1-0.1,0.1-0.3,0.1c-0.2,0-0.3-0.1-0.4-0.2c0-0.1-0.2-0.1-0.2-0.1
	c-0.2,0.1-0.3,0-0.4-0.1v0.1c0.1,0.1,0.2,0.1,0.2,0.3c0,0.2,0.1,0.4,0.2,0.5c0.1,0.2,0.1,0.3-0.1,0.6c0,0-0.1,0.1-0.1,0.1
	c0,0-0.1,0-0.1,0c-0.1,0-0.1,0-0.2,0c0,0-0.1,0-0.1-0.1s-0.1-0.1-0.1-0.1c-0.1-0.3-0.1-0.5-0.2-0.8c-0.2-0.2-0.3-0.3-0.5-0.5
	c0,0,0-0.1,0-0.2c-0.1,0-0.2,0-0.1-0.2c0.1-0.1,0.1-0.3,0.2-0.4l0.1-0.1l0.1-0.1c0,0,0,0,0,0c0.2-0.5-0.1-0.9-0.2-1.3
	c0-0.1-0.1-0.1-0.1-0.2l-0.2-0.2l-0.1-0.1l-0.2-0.3l-0.1-0.1l-0.1-0.1l-0.3,0.1c0,0-0.1,0-0.1,0.1c-0.1,0-0.2,0-0.2,0.1
	c-0.1,0-0.1,0.1-0.1,0.2c0,0.1-0.1,0.1-0.2,0.2c0,0.1,0,0.2,0.1,0.3c0,0.1,0,0.2-0.1,0.2l-0.2,0.3c-0.1,0.2-0.2,0.5-0.4,0.7
	c-0.2,0.2-0.4,0.3-0.7,0.4c-0.2,0-0.5,0-0.7-0.1c-0.1-0.1-0.2-0.1-0.1-0.3c0-0.1,0.1-0.1,0.1-0.2l0.2-0.3l-0.8-0.5
	c0,0-0.1-0.1-0.2-0.1c-0.2,0-0.3-0.1-0.5-0.2c-0.2,0-0.3-0.1-0.4-0.2c0,0,0-0.1-0.1-0.1c0,0,0-0.1,0-0.1c0.2-0.3,0.1-0.5,0-0.7h-0.8
	c0,0.1,0,0.2,0,0.3l-0.1,0.1l-0.1,0.1c-0.3,0.2-0.5,0.4-0.7,0.7c0,0,0,0,0,0c0,0,0,0-0.1,0c-0.3,0-0.3,0.2-0.4,0.4
	c0,0-0.1,0.1-0.1,0.1l-0.1,0.1l-0.1,0.1l-0.1,0.3l-0.1,0.1c0,0,0,0.1-0.1,0.1c0,0-0.1,0-0.1,0c-0.2,0.1-0.3,0.1-0.5,0.1
	c-0.2,0-0.3,0-0.5-0.1c-0.2-0.1-0.5-0.2-0.7-0.1c0-0.1,0-0.1,0-0.2c-0.1,0-0.1,0-0.2,0c-0.1,0-0.1,0-0.2,0.1
	c-0.2,0.1-0.3,0.2-0.5,0.2c-0.1,0-0.2,0.1-0.3,0c-0.1,0-0.2-0.1-0.3-0.2c-0.1-0.1-0.1-0.2-0.3-0.2l-0.1,0.3
	c-0.2,0.1-0.3,0.3-0.5,0.4c0,0-0.1,0-0.2,0c-0.2,0-0.4,0.1-0.5,0.1c-0.3,0.1-0.6,0.1-0.9-0.1h-0.1l-0.3,0.1c-0.1,0-0.2,0-0.2,0
	c-0.1,0-0.2-0.1-0.2-0.1c0-0.1-0.1-0.1-0.1-0.2c0,0-0.1-0.1-0.1-0.1c-0.1,0-0.1,0-0.2,0c-0.1,0-0.2,0-0.2,0c-0.1,0-0.1-0.1-0.2-0.1
	c-0.1,0-0.1-0.1-0.2-0.1c-0.1-0.1-0.2-0.1-0.3-0.1c-0.1,0-0.2,0-0.3,0.1c-0.1,0.1-0.3,0.1-0.4,0.2c-0.1,0.1-0.2,0.1-0.3,0.1
	c-0.1,0-0.2-0.1-0.3-0.1c-0.1-0.1-0.2-0.2-0.3-0.3c-0.2-0.1-0.4-0.2-0.6-0.3c-0.1-0.1-0.3-0.1-0.5-0.2c-0.2,0-0.3,0-0.5,0
	c-0.3,0.1-0.6,0.1-0.9,0.1c-0.2,0.3-0.2,0.4,0.1,0.6c0.2,0.1,0.3,0.3,0.2,0.5c-0.1,0-0.2,0.1-0.4,0.1c-0.1,0-0.2,0.1-0.1,0.2
	c0,0,0,0.1,0,0.1c0.2,0.5-0.1,0.8-0.5,0.9c0,0-0.1,0-0.1,0c-0.1,0.1-0.2,0.2-0.3,0.3c-0.1,0.1-0.1,0.3-0.1,0.4c0,0.2,0,0.4-0.1,0.6
	c0,0,0,0.1,0,0.1c0,0,0,0.1,0.1,0.1l0,0c0.1,0.1,0.1,0.1,0.2,0.2c0.1,0.1,0.1,0.1,0.2,0.2c0.1,0,0.2,0.1,0.3,0
	c0.3,0,0.3,0.2,0.4,0.3c0,0.1,0,0.1,0,0.2c0,0.1-0.1,0.2-0.1,0.2c-0.1,0.1-0.1,0.1-0.2,0.1c-0.1,0-0.1,0-0.2,0.1
	c-0.1,0-0.2,0.1-0.2,0.2c0,0.1,0,0.1,0.1,0.2c0,0,0.1,0.1,0.1,0.1c0.2,0,0.4,0,0.5,0c0.2,0,0.2-0.1,0.3-0.3c0.2,0.1,0.2,0.2,0.2,0.4
	l0,0c0,0.1,0,0.3-0.1,0.4c0,0-0.1,0.1-0.1,0.1l-0.2,0.1c-0.1,0.1-0.2,0.2-0.4,0.3c-0.1,0.1-0.3,0.1-0.4,0.1c-0.2,0-0.3,0-0.4-0.1
	c-0.1-0.1-0.3-0.2-0.3-0.3c-0.1-0.1-0.2-0.2-0.3-0.3h-0.3c0-0.2,0.1-0.3,0.2-0.4c0.1-0.3,0.2-0.5,0.2-0.8c0-0.1,0-0.2,0.1-0.3
	c0-0.1,0.1-0.2,0.2-0.3c-0.1,0-0.2,0-0.3-0.1c-0.1,0-0.2-0.1-0.3-0.2c-0.1,0-0.1-0.1-0.2-0.1c-0.1,0-0.2,0.1-0.3,0.1
	c-0.2,0.1-0.3,0.1-0.4-0.1c0,0-0.1-0.1-0.1-0.1c0,0,0,0,0-0.1c0,0,0,0,0-0.1c0,0,0,0,0-0.1c0,0,0,0,0.1-0.1c0,0,0,0,0.1,0
	c0.1-0.1,0-0.2-0.1-0.3c-0.1-0.1-0.2-0.1-0.3-0.2c-0.3-0.1-0.5-0.4-0.7-0.7l-0.4-0.4c-0.2-0.2-0.4-0.5-0.6-0.7c0,0-0.1,0-0.1-0.1
	c-0.1,0.2-0.2,0.4-0.3,0.6c0,0.1-0.1,0.2-0.2,0.2c-0.3,0.2-0.4,0.5-0.5,0.8c0,0,0,0,0,0.1c0,0,0.1,0.1,0.1,0.1
	c0,0.1,0.1,0.2,0.1,0.3c0.1,0.1,0.2,0.2,0.3,0.2c0.1,0.1,0.2,0.1,0.2,0.2c0.1,0.1,0.1,0.2,0.1,0.3c0,0.3,0,0.6,0.1,0.9
	c0,0.2,0,0.4-0.1,0.6c0,0.1,0,0.2,0,0.3c0,0.1,0,0.2,0,0.2c0,0.1-0.1,0.1-0.1,0.2c-0.1,0.1-0.1,0.1-0.2,0.1c-0.1,0-0.2,0-0.2,0
	c-0.2-0.1-0.5-0.1-0.7-0.2h-0.1l-0.2-0.1c-0.1,0-0.3-0.1-0.4-0.1c-0.1-0.1-0.2-0.1-0.3-0.1c-0.1,0-0.2,0-0.3,0.1
	c0,0.1-0.1,0.2-0.1,0.2c-0.1,0.1-0.1,0.1-0.2,0.2s-0.2,0.1-0.2,0.1c-0.1,0-0.2,0-0.3,0h0c-0.2,0-0.3-0.1-0.4-0.2
	c-0.1-0.1-0.2-0.2-0.2-0.4c0-0.1,0-0.2-0.1-0.2c0-0.1-0.1-0.2,0-0.2c0-0.1,0-0.2,0.1-0.2c0.1-0.1,0.1-0.3,0.1-0.5c0-0.3,0-0.6,0-0.9
	c0-0.1,0-0.2,0-0.3c0-0.1-0.1-0.2-0.1-0.2c-0.1-0.1-0.1-0.1-0.2-0.2c-0.1,0-0.3-0.1-0.3-0.1c-0.1,0-0.2-0.1-0.2,0
	c-0.1,0-0.2,0-0.3,0c-0.1,0-0.2-0.1-0.3-0.2c-0.1,0-0.2,0-0.3,0c-0.1,0-0.2-0.1-0.3-0.1s-0.2,0-0.3,0.1c-0.1,0-0.1-0.1-0.1-0.2
	c0-0.1,0-0.1,0-0.2c0-0.1,0-0.1,0-0.2c0-0.1-0.1-0.1-0.1-0.2c-0.1,0-0.1-0.1-0.2-0.1c-0.1,0-0.1,0-0.2,0c-0.3,0.1-0.5,0.3-0.6,0.5
	c-0.1,0.1-0.1,0.3-0.3,0.4c0,0,0,0.1-0.1,0.1c-0.1,0.1-0.2,0.1-0.3,0c-0.1-0.1-0.3-0.2-0.4-0.2c-0.1,0-0.2-0.1-0.2-0.1
	c0-0.1,0-0.3,0-0.4c0,0,0.1-0.1,0.1-0.1c0-0.1,0.1-0.1,0.1-0.2c0-0.1,0-0.1-0.1-0.2c-0.4-0.3-0.4-0.7-0.4-1.1c0-0.2,0-0.3,0-0.5
	c-0.1-0.2-0.1-0.4-0.2-0.5c0-0.1-0.1-0.1-0.1-0.2c-0.1-0.1-0.1-0.2-0.2-0.3c0-0.1-0.1-0.2,0-0.3v-0.2c0-0.1,0-0.1,0-0.2
	c0,0-0.1,0-0.1-0.1H0V12h172.4c0.1-0.1,0.2-0.1,0.3-0.2c0.1-0.1,0.1-0.1,0.2-0.1c0.1,0,0.2,0,0.3-0.1c0.1,0,0.2-0.1,0.3-0.2l0.1-0.1
	c0-0.2,0-0.4-0.1-0.5c0-0.2,0-0.3,0.2-0.4c0.2-0.1,0.4-0.1,0.5-0.2c0.1-0.1,0.2-0.2,0.3-0.3c0.1-0.1,0.2-0.1,0.4-0.1
	c0.1,0,0.3,0,0.4,0.1c0,0,0,0,0.1,0c0.1,0,0.2,0,0.3,0.1c0.1,0,0.1,0,0.2,0c0.1,0,0.1,0,0.2-0.1c0.2-0.1,0.3,0,0.5,0
	c0,0.1,0,0.2,0,0.3c0,0.1,0,0.2-0.2,0.1c-0.1,0-0.1,0.1-0.1,0.1l-0.2-0.1c-0.2,0.2-0.1,0.4-0.1,0.6c0,0,0.1,0.1,0.1,0.1
	c0,0,0,0.1,0,0.1c-0.1,0.2-0.1,0.3-0.3,0.4c0,0.1,0,0.3,0,0.4h3.4c0.2-0.3,0.3-0.5,0.5-0.8c0.1-0.1,0.2-0.2,0.3-0.3
	c0.1-0.1,0.3-0.1,0.4-0.1l0.3-0.2c0.1,0,0.2-0.1,0.2-0.1c0,0,0.1-0.1,0.1-0.1c0,0,0.1,0,0.1,0s0.1,0,0.1,0c0,0,0.1,0,0.1,0.1
	c0,0,0,0,0.1,0h0c0.1-0.1-0.1-0.2-0.1-0.3c-0.1-0.1-0.1-0.2-0.1-0.3c0-0.1,0-0.2,0.1-0.3c0-0.1,0.1-0.1,0.1-0.2c0-0.1,0-0.1,0-0.2
	c0,0,0-0.1,0-0.1c0,0,0-0.1,0-0.1c0,0,0-0.1,0-0.1c0,0,0-0.1-0.1-0.1c0-0.1-0.1-0.1-0.1-0.2c0-0.1,0-0.1,0-0.2h0.4l0.1-0.1
	c0.2-0.2,0.5-0.3,0.8-0.4c0.2-0.1,0.5-0.1,0.7-0.1c0,0,0.1,0,0.1,0.1l0.1,0.1l0.1,0.1l0.3,0.1l0.1,0.1l0.3,0.2l0.1,0.1
	c0.1,0,0.2,0,0.3,0.1c0.1,0,0.2-0.1,0.1-0.3c0,0,0-0.1-0.1-0.1c0-0.1,0.2-0.2,0.1-0.3c0-0.1-0.1-0.2-0.1-0.3
	c0.1-0.1,0.2-0.2,0.3-0.2c0.1,0,0.2,0,0.3,0l0,0c0.3-0.1,0.7-0.2,1,0.1c-0.2,0.2-0.5,0.2-0.7,0.3c0,0,0,0.1-0.1,0.1
	c-0.3,0.1-0.4,0.4-0.6,0.6c0,0,0,0.1,0,0.2c0,0-0.1,0.1-0.1,0.1c0,0.1,0,0.3,0,0.4c-0.1,0.1-0.1,0.2-0.2,0.3c0,0.1,0,0.2,0.1,0.3
	c0,0,0.1,0,0.1,0s0.1,0,0.1,0c0,0,0.1-0.1,0.1-0.1c0,0,0-0.1,0.1-0.1c0,0,0-0.1,0.1-0.1c0,0,0.1-0.1,0.1-0.1c0,0,0.1,0,0.1,0
	s0.1,0,0.1,0c0.1,0,0.2,0.1,0.2,0.3c0,0,0,0,0,0.1c0,0.5,0,0.5,0.3,0.8c0.2,0,0.4,0,0.6-0.1c0.1,0,0.1-0.1,0.2-0.1
	c0.1,0,0.2,0,0.2,0.1c0.2,0.1,0.4,0.2,0.6,0.4c0.1,0,0.1,0.1,0.1,0.2c0,0.1,0,0.1,0,0.2c-0.1,0.2,0,0.3,0,0.5
	c0.1,0.1,0.1,0.3,0.1,0.4h0v0.1c0,0.3,0.1,0.4,0.4,0.4h0.2c0.1,0,0.2,0,0.4,0c0.1,0,0.2,0.1,0.3,0.2c0.1,0.1,0.2,0.2,0.2,0.3
	c0,0.1,0.1,0.2,0.1,0.3c0.1,0.1,0.2,0.2,0.2,0.3c0.1,0.1,0.2,0.1,0.2,0.2c0.1,0,0.2,0.1,0.3,0.1c0.2,0,0.3,0.1,0.4,0.3
	c0.1,0.1,0.2,0.3,0.1,0.5v0.2c0,0.1,0,0.2,0.1,0.3c0.1,0.1,0.1,0.2,0.2,0.2c0.2,0.2,0.5,0.4,0.6,0.7c0.1,0.1,0.3,0.1,0.5,0.1
	c0.1-0.1,0.3-0.3,0.4-0.4c0.3-0.2,0.6-0.4,0.9-0.6l0.5-0.3c0-0.1,0-0.1,0-0.2c-0.1-0.3,0-0.4,0.3-0.6c0.1-0.1,0.1-0.2,0.2-0.3
	c0.2-0.2,0.2-0.2,0.4-0.1l0,0l0.1,0.1l0.1,0.1c0,0.1,0.1,0.1,0.1,0.1c0.1,0,0.1,0,0.2,0c0.1,0,0.2,0,0.2-0.1l0.2-0.1
	c0.1-0.1,0.2-0.3,0.4-0.3c0.2-0.1,0.3-0.1,0.4-0.2c0.1-0.1,0.3-0.2,0.4-0.2c0.2,0,0.3,0,0.5,0c0-0.1,0.1-0.3,0.2-0.4
	c0.1-0.1,0.2-0.2,0.4-0.2c0.1-0.1,0.2-0.1,0.3-0.1h1.3c0.1,0,0.1,0,0.2,0.1c0.1,0,0.2,0.1,0.2,0.1c0.1,0.2,0.3,0.3,0.6,0.3
	c0.2,0.1,0.5,0.1,0.7,0.1c0,0,0.1,0,0.1,0c0.3,0,0.6-0.1,0.9-0.1s0.5-0.1,0.8-0.2c0.1,0,0.2,0,0.2-0.1c0.1,0,0.2-0.1,0.3,0
	c0,0.1,0.2,0,0.2,0c0.2,0,0.3-0.1,0.5,0c0.2,0,0.3,0.1,0.4,0.2c0,0,0,0.1,0,0.1c0.1,0.1,0.2,0.1,0.2,0.1c0.1,0,0.2,0,0.2-0.1
	c0,0,0.1-0.1,0.1-0.1c0.3-0.2,0.6-0.4,1-0.6c0.3-0.2,0.6-0.3,0.9-0.4c0.2,0.2,0.4,0.1,0.6,0c0.3-0.2,0.6-0.2,1-0.1
	c0.1,0,0.1,0,0.2,0.1c0,0,0.1,0.1,0.1,0.1l0.1,0.1c0.1,0,0.2,0.1,0.3,0.1c0.2,0.1,0.4,0.2,0.6,0.2c0.2,0,0.4,0,0.6-0.1
	c0.1,0,0.2-0.1,0.3-0.1c0.1-0.1,0.1-0.2,0.2-0.2c0.3,0,0.7,0.1,0.9,0.3l0,0c0.1,0.1,0.2,0.1,0.2,0.3l0.2,0.1c0-0.1,0.1-0.1,0.1-0.2
	c0-0.1,0.1-0.1,0.1-0.1c0,0,0.1-0.1,0.1-0.1c0.1,0,0.2-0.1,0.3-0.2c0.1-0.1,0.1-0.2,0.1-0.3c-0.3,0-0.5-0.1-0.7,0.2
	c-0.1-0.1-0.1-0.2-0.1-0.3c0-0.1,0-0.2,0-0.3c0.1-0.1,0.1-0.3,0.1-0.4c0-0.2,0.1-0.3,0.1-0.5c0.1-0.1,0.2-0.2,0.4-0.3
	c0.2-0.1,0.4-0.2,0.4-0.5c0-0.1,0.1-0.1,0.2-0.2c0.1-0.1,0.2,0,0.3,0.1h0.1c0,0,0.1,0,0.1,0c0.3,0.1,0.3,0.1,0.5-0.2c0,0,0,0,0-0.1
	c0.1-0.1,0.2-0.3,0.3-0.3c0.1-0.1,0.3-0.1,0.5,0c0.2,0,0.3,0.1,0.4,0.3c0.1,0.1,0.2,0.3,0.2,0.5v0.2c0,0,0,0.1,0,0.1
	s0.1,0.1,0.1,0.1c0.2,0.1,0.4,0.2,0.5,0.4l0.1,0.1c0.1,0,0.2,0,0.4,0c0,0,0.1,0,0.1,0c0.1,0,0.1,0,0.1,0c0.2,0.1,0.3,0,0.3-0.2
	c0.1,0.1,0.3,0.2,0.4,0.2c0.3,0,0.4,0.1,0.3,0.5c0,0.1,0,0.3,0,0.4c0,0.1,0,0.2-0.1,0.2l-0.1,0.1c0,0.1-0.1,0.1-0.1,0.2
	c-0.1,0-0.1,0.1-0.2,0c0,0-0.1,0-0.1,0c0,0,0,0,0,0c0,0,0,0-0.1,0c0,0,0,0-0.1,0c0,0,0,0-0.1,0c-0.1,0.1-0.2,0.1-0.1,0.2
	c0,0.1,0,0.3-0.1,0.4c-0.1,0.2-0.1,0.3-0.1,0.5c0,0.2,0,0.2,0.1,0.3l0,0c0,0,0.1,0.1,0.1,0.1l0.1,0.1h0.5c0.1,0,0.1,0,0.2,0
	c0.1,0,0.1,0.1,0.1,0.1c0.1,0.1,0.1,0.2,0.2,0.3c0,0.1,0.1,0.2,0.1,0.3c0,0,0,0.1,0,0.1c-0.2,0.1-0.2,0.4-0.2,0.5
	c-0.1,0.1-0.1,0.2-0.3,0.3c-0.2,0.2-0.5,0.4-0.8,0.6c-0.1,0.1-0.1,0.2-0.1,0.3c0,0,0,0.1,0.1,0.1c0.1,0.1,0.2,0.3,0.2,0.5
	c0,0.2,0,0.3-0.1,0.5c0,0,0,0.1,0,0.1c0,0-0.1,0.1-0.1,0.1v0.1c0,0,0,0.1-0.1,0.1c0,0,0,0.1-0.1,0.1c0,0.1-0.1,0.2-0.1,0.2
	c-0.1,0-0.1,0.1-0.1,0.1c0,0.1,0,0.1,0,0.2v0.4c0,0,0,0,0.1,0.1c0,0,0,0.1,0,0.1c0,0,0,0.1,0,0.1c0,0,0,0-0.1,0.1
	c0,0.1,0,0.1-0.1,0.2v0.4v0.3l-0.1,0.1v0.1l-0.1,0.1c0,0,0,0.1,0,0.1c0,0-0.1,0.1-0.1,0.1c0.1,0.3,0.2,0.5,0.4,0.7
	c0,0,0.1,0.1,0.1,0.1c0,0.2,0,0.4,0,0.6c0,0.2,0,0.4,0.1,0.6v0c-0.1,0.1-0.1,0.1-0.2,0.2c-0.1,0.1-0.2,0.2-0.1,0.3
	c0,0.1,0.1,0.3,0.1,0.4c0,0.3,0,0.5-0.2,0.8c0,0.1,0,0.1,0.1,0.2c0,0.1,0.1,0.1,0.1,0.2c0,0-0.1,0.1-0.1,0.1
	c-0.1,0.1-0.2,0.1-0.2,0.3c0,0.1-0.1,0.1-0.1,0.2c-0.1,0.2-0.3,0.3-0.2,0.5c0,0.1-0.1,0.2-0.2,0.2c-0.1,0-0.2-0.1-0.3-0.1
	c-0.1,0-0.1,0.1-0.2,0.2c0,0.1-0.1,0.1,0,0.2c0,0.1,0.1,0.3,0.1,0.4l-0.3,0.3c0,0.2-0.1,0.4-0.3,0.6c-0.1,0.1-0.1,0.2-0.1,0.3
	c0,0.2,0,0.3-0.1,0.5c0.1,0,0.3,0.1,0.3,0.2c0.1,0.1,0.1,0.2,0.1,0.3c0,0.1,0.1,0.1,0.2,0.2l0,0c0.1,0.1,0.3,0.2,0.5,0.3
	c0.1,0.1,0.2,0.1,0.3,0.1c0.1,0.1,0.3,0.2,0.3,0.3c0.1,0.1,0.1,0.3,0.1,0.4c0,0.2,0,0.4,0,0.5c0,0.1,0,0.1,0,0.2
	c0,0.1-0.1,0.1-0.1,0.2c-0.1,0.1-0.1,0.1-0.1,0.2c0,0-0.1,0.1-0.1,0.1c-0.2,0-0.4,0.1-0.6,0.1c-0.1,0-0.2,0-0.3,0
	c-0.1,0-0.2,0.1-0.2,0.2c-0.1,0.1-0.3,0.3-0.4,0.4c-0.1,0.1-0.1,0.2-0.1,0.2c-0.2,0.1-0.3,0.2-0.5,0.3c0,0.1,0.1,0.1,0.1,0.2
	c0.1,0.1,0.1,0.2,0.1,0.3s-0.1,0.2-0.2,0.3c-0.1,0.1-0.3,0.2-0.4,0.3c-0.2,0.1-0.4,0.2-0.5,0.4c-0.1,0.1-0.1,0.2-0.1,0.3
	c0,0.1-0.1,0.1-0.1,0.2l-0.1,0.2c-0.1,0-0.1-0.1-0.1-0.1c-0.1-0.2-0.2-0.4-0.3-0.7s-0.2-0.4-0.5-0.2c-0.1,0.1-0.2,0.1-0.3,0.2
	c-0.1,0-0.2,0-0.3,0c-0.2,0-0.4-0.1-0.4-0.3c-0.2,0-0.4,0-0.6,0.2c-0.1,0.1-0.2,0.1-0.2,0.1c0,0-0.1,0.1-0.1,0.1
	c0.1,0.3,0.1,0.6,0.1,0.9c0,0.1,0,0.1,0.1,0.2c0.1,0,0.1,0.1,0.1,0.1c0,0.1,0,0.1,0,0.2l0.1,0.5c-0.2,0-0.3,0.1-0.5,0
	c0,0-0.1,0-0.2,0.1c0,0.1-0.1,0.2-0.1,0.3l-0.1,0.2l-0.1,0.1v0.1v0c0.1,0.2,0.2,0.3,0,0.5c0-0.1-0.1-0.1-0.1-0.2
	c-0.2,0.1-0.2,0.1-0.4,0.1c-0.2,0-0.4-0.2-0.6-0.2c-0.1,0.1-0.1,0.2,0,0.2c0.1,0.1,0.2,0.2,0.3,0.3c0.2,0.2,0.1,0.5-0.3,0.6
	c-0.3,0.1-0.7,0.2-1,0.1c-0.2,0-0.4,0-0.6,0.1c0-0.1-0.1-0.1-0.1-0.2c0-0.1,0-0.1-0.1-0.2c0,0-0.1-0.1-0.2-0.1c0,0,0-0.1-0.1-0.1
	c0,0,0-0.1-0.1-0.1c-0.2-0.2-0.5-0.3-0.8-0.4c-0.1,0-0.2,0-0.3,0c-0.1,0-0.2,0.1-0.3,0.2c-0.1,0.1-0.2,0.2-0.3,0.3
	c0.1,0.3,0.1,0.7,0.2,1C205.3,37.9,205.3,38,205.2,38z M203.7,62.4c-0.1,0-0.2-0.1-0.3-0.2c-0.1-0.1-0.2-0.2-0.2-0.4
	c0.2-0.1,0.5-0.3,0.6-0.3c0.2-0.1,0.2-0.1,0.3,0.1c0.1,0.2,0.2,0.3,0.3,0.5c0,0.1,0,0.1,0,0.2c0,0.1,0,0.1-0.1,0.1
	c0,0-0.1,0.1-0.1,0.1c-0.1,0-0.1,0-0.2,0C204,62.5,203.8,62.5,203.7,62.4z M210,58.6c0.1,0.1,0.2,0.2,0.3,0.2c0,0.1-0.1,0.2-0.2,0.2
	c-0.2,0.1-0.5,0.1-0.7,0.2c-0.1,0-0.2,0-0.2,0c0,0-0.1,0-0.1-0.1c0,0-0.1-0.1-0.1-0.1c0,0,0-0.1,0-0.1c0,0,0-0.1,0.1-0.1
	c0.1-0.1,0.2-0.2,0.3-0.3c0.1-0.1,0.3-0.1,0.4-0.1c0.1,0,0.1,0,0.2,0C209.9,58.5,209.9,58.5,210,58.6z M181.3,76.4l-0.1-0.1
	c0-0.2,0-0.3,0.1-0.5c0-0.2,0.1-0.3-0.1-0.4c0-0.1,0-0.2-0.2-0.2c-0.1,0-0.2,0.1-0.3,0.1c0,0.1,0.1,0.1,0.1,0.2c0,0.1,0,0.1-0.1,0.2
	c0,0-0.1,0.1-0.1,0.1c0,0-0.1,0-0.1,0c0,0-0.1,0-0.1,0c0,0-0.1-0.1-0.2-0.1s-0.1,0-0.1,0c-0.3,0-0.7,0-1,0H179l-0.1-0.1
	c-0.1,0-0.1-0.1-0.2-0.1c-0.1,0-0.1,0-0.2,0c0,0-0.1,0.1-0.1,0.2c-0.1,0.1-0.1,0.2-0.1,0.3c0,0.1,0,0.1,0.1,0.2
	c0.1,0.1,0.2,0.2,0.3,0.2c0.1,0,0.3,0.1,0.4-0.1l0.2-0.1c0.2,0,0.3-0.1,0.5-0.1c0.1,0,0.1,0,0.2,0c0.1,0,0.1,0.1,0.1,0.1
	c0.1,0.1,0.1,0.2,0.2,0.3c0.1,0.1,0.2,0.2,0.3,0.3c0.1,0.1,0.3,0.1,0.4,0.2c0.2,0,0.5-0.1,0.5-0.3C181.4,76.7,181.5,76.4,181.3,76.4
	z M180.6,75.9C180.6,75.9,180.6,75.9,180.6,75.9L180.6,75.9L180.6,75.9C180.7,75.9,180.6,75.9,180.6,75.9z M198.2,44.4
	c0.2,0,0.3,0.1,0.2,0.3c-0.1,0.2-0.1,0.4-0.2,0.6c0,0,0,0,0,0l0,0.1c-0.2,0.2-0.4,0.4-0.6,0.6c-0.1,0.1-0.2,0.1-0.3,0.2
	c-0.1-0.1-0.2-0.1-0.2-0.2c-0.1-0.1-0.1-0.2-0.1-0.3c0-0.1,0-0.1,0-0.2c0-0.1,0-0.1,0.1-0.1c0,0,0.1-0.1,0.1-0.1s0.1,0,0.2,0
	c0,0,0.1,0,0.1,0c0,0,0.1-0.1,0.1-0.1c0.1-0.1,0.2-0.2,0.2-0.4c0-0.1,0.1-0.2,0.2-0.2C197.9,44.4,198.1,44.4,198.2,44.4z
	 M209.3,45.9c0,0.1,0.1,0.2,0.1,0.3c0,0.1,0,0.2,0,0.3c0,0.1-0.1,0.2-0.1,0.3c-0.1-0.1-0.1-0.1-0.2-0.2c-0.2-0.2-0.4-0.5-0.6-0.7
	c-0.1-0.1-0.2-0.3-0.3-0.5c0-0.1,0-0.1,0-0.2c0-0.1,0-0.1,0.1-0.1c0,0,0.1-0.1,0.1-0.1s0.1,0,0.2,0c0.2,0.1,0.4,0.2,0.5,0.3
	C209.2,45.5,209.3,45.7,209.3,45.9z M178.1,7.5l-0.9-0.2c0,0,0,0,0,0c0.1-0.1,0.1-0.2,0.2-0.3c0.1-0.1,0-0.2,0.1-0.3
	c0-0.1,0.1-0.1,0.2-0.2c0.1,0,0.1,0,0.2,0c0.1,0,0.1,0.1,0.1,0.1c0.2,0.2,0.3,0.4,0.3,0.7L178.1,7.5z M174.9,7.5
	c-0.1-0.1-0.1-0.2,0-0.3s0.1-0.1,0.2-0.2c0.1-0.1,0.2-0.2,0.3-0.2c0.1,0,0.2,0,0.3,0.1C175.8,7,175.9,7,176,7c0.1,0,0.2,0,0.3-0.1
	c0.1-0.1,0.4,0,0.5,0.1c0,0,0.1,0.1,0.1,0.2c-0.2,0.1-0.5,0.2-0.8,0.2c-0.1,0-0.1,0-0.2,0.1c-0.3,0.1-0.6,0.2-0.9,0.1
	C175,7.6,174.9,7.6,174.9,7.5z M213,0.8l-0.6,0c0.2-0.1,0.3-0.3,0.3-0.5c0.1-0.3,0.2-0.4,0.5-0.2c0.1,0,0.1,0,0.2,0.1
	c0.1,0,0.1,0.1,0.2,0.2c0,0.1,0,0.1,0,0.2c0,0.1-0.1,0.1-0.1,0.2c-0.1,0-0.1,0.1-0.2,0.1C213.2,0.8,213.1,0.8,213,0.8z M205.7,46.1
	c0,0.1,0,0.1,0,0.2c0,0.2-0.1,0.3-0.3,0.4l-0.1,0c0-0.1-0.1-0.2-0.1-0.2l0.1-0.2c0-0.1,0.1-0.1,0.1-0.2c0-0.1,0-0.2,0-0.2
	c0-0.1,0-0.2,0-0.3c0-0.1,0-0.1,0.1-0.2c0-0.1,0.1-0.1,0.2-0.1c0.1,0,0.1,0,0.2,0c0.1,0,0.1,0.1,0.1,0.1
	C206,45.7,205.8,45.8,205.7,46.1z M216.7,9.4c-0.1-0.1-0.2-0.2-0.2-0.4c0-0.1,0-0.3,0.1-0.4c0.1-0.1,0.2-0.2,0.4-0.2
	c0.1,0,0.2,0,0.3,0c0.1,0,0.1,0,0.2,0.1c0.3,0.3,0.3,0.3,0.3,0.6c0,0.2,0,0.2-0.2,0.4h-0.4C217,9.5,216.8,9.5,216.7,9.4z
	 M187.3,76.5c0,0.2,0.1,0.5,0.1,0.7c0,0.1,0,0.1,0,0.2c0,0-0.1,0.1-0.1,0.1c-0.3,0.2-1.1,0.3-1.4-0.1l-0.1-0.1
	c-0.2-0.2-0.2-0.2-0.1-0.4c0.2-0.3,0.5-0.4,0.9-0.5c0.1,0,0.3-0.1,0.4-0.1S187.3,76.4,187.3,76.5z M204.7,45.6c0,0.1,0,0.1-0.1,0.2
	c0,0.1-0.1,0.1-0.2,0.1c-0.1,0-0.2-0.1-0.3-0.1c-0.1-0.1-0.2-0.1-0.2-0.2c0-0.1-0.1-0.1-0.1-0.2c0,0,0-0.1,0-0.1
	c0-0.1,0.1-0.1,0.2-0.2c0.1,0,0.2,0,0.3,0c0.1,0,0.1,0.1,0.2,0.1C204.6,45.3,204.7,45.4,204.7,45.6z M205.2,43.8
	c-0.1-0.2-0.1-0.2,0-0.4c0.1-0.1,0.1-0.2,0.2-0.2c0.2-0.1,0.3-0.2,0.4,0c0.2,0.2,0.2,0.3,0.1,0.5c-0.1,0.2-0.3,0.3-0.6,0.4
	C205.2,43.9,205.2,43.8,205.2,43.8z M205.8,52.1c0.2,0,0.3,0.1,0.5,0.2c0.1,0.1,0.1,0.1,0.2,0.1c0.1,0,0.2,0,0.3,0
	c0.1-0.1,0.2,0,0.3-0.1c0.3-0.1,0.5-0.1,0.3-0.6v0c-0.1-0.1-0.2-0.2-0.3-0.3s-0.2,0-0.4,0c-0.1,0-0.1,0-0.2,0
	c-0.1,0-0.1,0.1-0.1,0.1c0,0.1-0.1,0.1-0.1,0.2c-0.1,0-0.1,0.1-0.2,0.1c-0.2,0-0.3,0-0.5-0.1c-0.1,0.2-0.4,0.2-0.5,0.6l0.1,0.1
	c0.1,0,0.1-0.1,0.1-0.1c0-0.1,0.1-0.2,0.2-0.2C205.6,52.2,205.7,52.1,205.8,52.1z M207.1,51.6l0.1,0L207.1,51.6
	c0.1,0.1,0.2,0.2,0.3,0.3L207.1,51.6c-0.1,0-0.2,0-0.3,0C206.8,51.5,207,51.5,207.1,51.6z M210.6,45.6c0-0.1,0-0.1,0-0.2
	c0-0.1,0-0.1,0-0.2c0-0.1,0.1-0.2,0.1-0.3c0-0.1,0-0.1,0.1-0.2c0-0.1,0.1-0.2,0.2-0.2c0.1,0,0.1,0.1,0.1,0.2c0,0.1,0,0.2,0,0.3
	c0,0.1,0,0.2,0,0.3c0,0.1-0.1,0.2-0.2,0.3C210.8,45.8,210.6,45.7,210.6,45.6z M222,51.7c0,0,0,0.1,0,0.1c0,0.2-0.1,0.3-0.2,0.5
	c-0.1,0.1-0.2,0.1-0.3,0c-0.1,0-0.1-0.1-0.2-0.2c0-0.1-0.1-0.1-0.1-0.2c0.2-0.1,0.3-0.2,0.5-0.3c0,0,0.1,0,0.1,0c0,0,0.1,0,0.1,0
	C222,51.7,222,51.7,222,51.7z M188.4,6.8c0-0.1,0-0.1,0.1-0.2c0,0,0.1-0.1,0.2-0.1c0.1,0,0.1,0,0.2,0c0.1-0.1,0.2,0,0.3,0.1
	c0,0,0.1,0.1,0.1,0.2c0,0.1,0,0.1-0.1,0.2c-0.1,0.1-0.2,0.3-0.3,0.3c-0.1,0-0.1,0-0.2,0C188.6,7.2,188.4,6.9,188.4,6.8z M204.6,66.9
	c0.1,0.1,0,0.2-0.1,0.3c0,0-0.1,0.1-0.2,0.1c-0.1,0-0.1,0-0.2,0c-0.1,0-0.1,0-0.2-0.1c0,0-0.1-0.1-0.1-0.2c0-0.1,0-0.1,0-0.2
	c0-0.1,0.1-0.2,0.2-0.3c0.1,0,0.1-0.1,0.1-0.2c0-0.1,0-0.1,0-0.2c0,0,0-0.1,0-0.1c0-0.1,0-0.1,0.1-0.1c0.1,0,0.1,0,0.2,0
	c0.1,0,0.1,0.1,0.1,0.3c0,0.1-0.1,0.2,0,0.4C204.5,66.7,204.5,66.8,204.6,66.9z M208.3,56.3c0.1,0,0.1,0.1,0.1,0.1
	c0.1,0.1,0.1,0.2,0.2,0.3c0.1,0.2,0.2,0.4,0.3,0.6c0,0,0,0.1,0,0.1c0,0,0,0.1-0.1,0.1c0,0-0.1,0.1-0.1,0.1c0,0-0.1,0-0.1,0
	c-0.1,0-0.2-0.1-0.3-0.1c-0.1-0.1-0.2-0.2-0.2-0.3c-0.1-0.1-0.1-0.1-0.2-0.2c-0.2-0.2-0.2-0.3,0-0.5c0,0,0.1-0.1,0.1-0.1
	c0-0.1,0.1-0.2,0.2-0.2C208.2,56.3,208.3,56.3,208.3,56.3z M224.7,54.9c0.1,0.1,0.2,0.2,0.2,0.4c0,0.1,0,0.3-0.1,0.4
	c-0.1,0-0.1,0-0.2,0c0,0-0.1-0.1-0.1-0.1c-0.1-0.1-0.2-0.2-0.2-0.3c0-0.1-0.1-0.1-0.1-0.2c0-0.1,0.1-0.3,0.2-0.3c0.1,0,0.1,0,0.2,0
	C224.6,54.8,224.6,54.9,224.7,54.9z M207.2,43.5c-0.1,0.4-0.3,0.7-0.6,1c-0.1-0.3-0.2-0.5-0.3-0.8c0-0.1,0-0.1,0-0.2
	c0-0.1,0.1-0.1,0.1-0.2c0.1-0.1,0.2-0.2,0.3-0.3c0,0,0.1-0.1,0.2,0c0.1,0,0.1,0,0.1,0.1c0.1,0.1,0.1,0.1,0.1,0.2
	C207.3,43.3,207.3,43.4,207.2,43.5z M225.6,24.1c0,0.1-0.1,0.2-0.2,0.2c-0.2,0-0.4,0-0.6,0c-0.1,0-0.1-0.2,0-0.2
	c0.1-0.1,0.1-0.2,0.2-0.2c0.1-0.1,0.2-0.1,0.3-0.2C225.4,23.7,225.6,23.8,225.6,24.1z M207.4,47c-0.2-0.2-0.5-0.3-0.8-0.5
	c0.1-0.2,0.1-0.4,0.2-0.5c0.1,0.1,0.2,0.2,0.3,0.3c0.1,0.1,0.3,0.1,0.4,0.1c0.1,0,0.1,0.1,0.1,0.1c0,0.1,0,0.1,0.1,0.2
	c0.1,0.1,0,0.1-0.1,0.2C207.6,47,207.6,47.1,207.4,47C207.5,47,207.4,47,207.4,47z M210.8,60.6c0.2-0.2,0.1-0.4,0-0.7
	c0,0,0-0.1,0-0.1c-0.1-0.3,0-0.3,0.3-0.5c0,0.2,0,0.3,0,0.4c0,0.2,0,0.4,0,0.6c0,0.1,0,0.1,0,0.2c0,0.1-0.1,0.1-0.1,0.2
	c0,0,0,0-0.1,0s-0.1,0-0.1,0c0,0,0-0.1,0-0.1C210.8,60.7,210.8,60.6,210.8,60.6z M215.2,40.5c-0.2,0-0.3,0-0.5-0.1
	c-0.1-0.1-0.3-0.2-0.4-0.3c0-0.1,0-0.2,0-0.3c0,0,0-0.1,0-0.1s0,0,0.1,0c0,0,0.1,0,0.1,0c0,0,0.1,0,0.1,0
	C214.9,39.9,215.1,40.2,215.2,40.5z M211.3,37.7l0.1-0.1c-0.1,0-0.2,0-0.2,0c-0.1,0-0.1,0-0.2,0c0,0,0.1-0.1,0.1-0.1
	c0.1-0.1,0.2-0.2,0.1-0.3c-0.1-0.1,0-0.2,0-0.2c0,0,0.2,0,0.2,0c0,0.2,0.2,0.2,0.3,0.3c0.1,0.1,0.1,0.2,0.2,0.3c0,0,0,0.1,0,0.1
	c0,0,0,0.1,0,0.1c0,0,0,0-0.1,0s-0.1,0-0.1,0c-0.1,0-0.1,0-0.2-0.1H211.3z M222.1,50.8C222.1,50.8,222.1,50.8,222.1,50.8
	C222.2,50.9,222.1,50.9,222.1,50.8c0,0.1,0,0.1,0,0.1c0,0,0,0,0,0c-0.1,0-0.2,0-0.2,0c-0.1,0-0.2-0.1-0.2-0.1
	c-0.1,0-0.1-0.1-0.2-0.2c0-0.1-0.1-0.2-0.1-0.2c0-0.2,0.1-0.3,0.3-0.2C221.8,50.4,222,50.6,222.1,50.8z M211.1,52.6
	c0.1,0.1,0.1,0.1,0.1,0.2c0,0.1,0,0.2,0,0.2s-0.1,0.1-0.2,0.2c0,0-0.1,0-0.1,0.1c0,0-0.1,0-0.1,0c0,0-0.1,0-0.1,0c0,0-0.1,0-0.1-0.1
	c-0.1-0.1-0.1-0.2-0.2-0.4c0,0,0-0.1,0-0.1c0,0,0-0.1,0.1-0.1c0.1-0.1,0.1-0.1,0.2-0.2c0.1,0,0.2,0,0.3,0
	C210.9,52.5,211,52.6,211.1,52.6z M193.3,3.9c-0.1-0.3-0.1-0.4,0.1-0.6c0.3,0.1,0.3,0.1,0.3,0.3c0,0.1,0,0.3,0,0.4
	C193.5,4.1,193.4,4.1,193.3,3.9z M211.1,56c0,0.1-0.1,0.2-0.1,0.3s0.1,0.2,0.1,0.2c0.1,0.1,0.2,0.2,0.2,0.4c0,0.1,0.1,0.3,0,0.5
	c0,0.2,0.1,0.4-0.1,0.6c0,0.2-0.1,0.4,0,0.6c0,0.1,0,0.2-0.1,0.3c-0.1,0.1-0.2,0.1-0.3-0.1c0,0,0-0.1-0.1-0.1c0,0-0.1-0.1-0.1-0.1
	c-0.1,0-0.1,0-0.2-0.1c0-0.1-0.1-0.1-0.1-0.2c0-0.1-0.1-0.2-0.1-0.3c0-0.1,0-0.2,0-0.4c0.1-0.3,0.2-0.6,0.3-0.9c0,0,0-0.1,0-0.1
	c0.1-0.1,0.1-0.2,0.1-0.3c0-0.1-0.1-0.2-0.1-0.3c-0.1-0.2-0.2-0.4-0.3-0.6c0-0.2,0-0.3,0-0.5c0.1-0.1,0.1-0.3,0.2-0.5
	c0,0,0-0.1,0.1-0.1c0,0,0.1,0,0.1,0c0,0,0.1,0,0.1,0c0,0,0.1,0,0.1,0c0.1,0.1,0.2,0.2,0.2,0.3c0,0.1,0,0.3,0,0.4
	c0,0.1-0.1,0.3-0.1,0.4C211.1,55.6,211.1,55.8,211.1,56z M196.7,7.4c0.1,0,0.2,0,0.3,0.1l0.2-0.1c0.1,0,0.1,0.1,0.2,0.1
	c0.1,0,0.2,0.1,0.2,0.2l-0.1,0.1c-0.1,0-0.1,0.1-0.2,0.2c0,0.1,0.1,0.2,0.2,0.2c0-0.1,0-0.1,0-0.1c0.1,0,0.2,0,0.3,0.1l0.1,0.1
	l-0.1,0.1h-0.1l0,0c0,0,0,0,0,0h0c0,0,0,0,0,0c-0.1,0-0.2,0.1-0.3,0.1c0,0-0.1,0-0.1,0c0,0-0.1,0-0.1-0.1c0,0,0-0.1-0.1-0.2
	c-0.1,0.1-0.2,0.2-0.3,0.3c-0.1,0.1-0.1,0.3-0.2,0.4c0,0,0.1,0,0.1,0.1l0.1,0.1c0.2,0.1,0.4,0.1,0.6,0c0.1,0,0.1-0.1,0.2,0l0.4,0
	h0.1l0,0c0.1,0.1,0.2,0.1,0.3,0.1c0.1,0,0.2,0,0.3-0.1c0.2-0.1,0.4-0.2,0.4-0.4c0-0.1,0-0.1,0.1-0.1c0.2-0.2,0.4-0.3,0.6-0.3
	c0.2-0.1,0.4-0.1,0.4-0.3c0.2-0.1,0.4-0.2,0.6-0.1c0.1,0.1,0.2,0.1,0.3,0.1c0.1,0,0.2,0,0.3-0.1c0.3-0.2,0.5-0.4,0.7-0.6
	c0,0,0-0.1,0.1-0.1c0-0.1,0-0.2-0.1-0.1c-0.1,0-0.2,0-0.3,0c-0.1-0.1-0.2-0.3-0.4-0.3c-0.1,0.1-0.2,0.2-0.3,0.2
	c-0.1,0.1-0.2,0.1-0.3,0.1c-0.3,0-0.3,0.1-0.3,0.4c-0.4,0.1-0.5,0.1-0.7-0.2c-0.1-0.1-0.2-0.2-0.3-0.3c0-0.1-0.1-0.1-0.1-0.2
	c-0.1-0.2-0.2-0.1-0.4-0.1c-0.1,0-0.1,0.1-0.2,0.1c-0.1,0.1-0.1,0.1-0.1,0.2L199,6.8c0,0,0,0-0.1,0c0,0,0,0,0,0c0,0,0,0,0,0
	c0,0,0,0,0,0.1L198.7,7h-0.1c0,0,0,0,0,0c0,0,0,0,0,0c0,0,0,0,0,0c0,0,0,0,0,0c0,0,0,0,0,0.1c0,0,0,0,0,0.1s0,0,0,0c0,0,0,0,0.1,0
	h0.1c0,0,0,0.1,0,0.1s0,0.1-0.1,0.1c-0.1,0-0.3,0-0.4,0c-0.2-0.1-0.2,0-0.3,0l-0.1,0.1c0,0-0.1,0-0.1,0c-0.1-0.1-0.1-0.2-0.1-0.4
	c0,0,0-0.1,0-0.1c0,0,0-0.1-0.1-0.1c0,0-0.1-0.1-0.1-0.1c0,0-0.1,0-0.1,0c-0.3-0.1-0.3-0.1-0.5,0.1c-0.1,0.1-0.2,0.2-0.3,0.3
	c0,0.1,0.1,0.1,0.1,0.2C196.5,7.4,196.6,7.4,196.7,7.4z M197.4,8.6l0.3-0.1l0-0.1c0,0,0,0.1,0,0.1C197.6,8.5,197.5,8.6,197.4,8.6z
	 M204,64.3c-0.1-0.1-0.2-0.3-0.3-0.5c0,0,0,0,0-0.1c0.1,0,0.1-0.1,0.2-0.2c0-0.1,0-0.2,0-0.2c0-0.1,0-0.1,0-0.2c0,0,0.1-0.1,0.1-0.1
	c0.1,0,0.1,0,0.2,0c0.1,0,0.1,0,0.2,0.1c0,0.1,0.1,0.1,0.1,0.2c0,0.1,0,0.1,0,0.2c0,0.1-0.1,0.1-0.1,0.1c0,0.1,0,0.2-0.1,0.4
	c0,0.1,0,0.1-0.1,0.2C204.2,64.4,204.1,64.4,204,64.3z M193.9,6.5c0.3,0.3,0.3,0.4,0.2,0.6c-0.2,0.2-0.3,0.2-0.6-0.1
	C193.5,6.7,193.5,6.7,193.9,6.5z M204.2,56.8c-0.1,0-0.2,0-0.3-0.1c-0.1-0.1-0.1-0.2-0.1-0.2c0-0.1,0.2-0.2,0.3-0.2
	c0.1,0,0.1,0,0.2,0c0.2,0,0.3,0.1,0.3,0.3C204.5,56.7,204.4,56.9,204.2,56.8z M230.9,54.6c-0.1,0.1-0.1,0.3-0.2,0.4
	c-0.2,0.2-0.3,0.5-0.4,0.8c0,0,0,0,0,0.1c-0.1,0.2-0.1,0.5-0.3,0.6c-0.1,0.1-0.2,0.1-0.3,0.2c-0.1,0-0.2,0-0.3,0
	c0-0.2-0.1-0.3-0.2-0.4c-0.1-0.1-0.2-0.1-0.2-0.2c0-0.1,0-0.1,0-0.2c0-0.1,0-0.2,0.1-0.2c0.1-0.2,0.2-0.5,0.4-0.7c0,0,0,0,0-0.1
	c0,0,0-0.1,0.1-0.1l0.1-0.1l0.1-0.1c0-0.1,0.1-0.1,0.1,0l0.1,0.1h0.1c0.3-0.2,0.3-0.2,0.3-0.5c0-0.1,0-0.2,0-0.2
	c0.2,0,0.4-0.1,0.5,0.1C231,54.3,231,54.3,230.9,54.6z M235,28.3C235,28.3,235,28.3,235,28.3c0,0.1,0,0.1-0.1,0.2
	c-0.1,0.1-0.1,0.1-0.2,0.2c-0.1,0-0.1,0-0.2,0c-0.2-0.1-0.1-0.3-0.2-0.4c0-0.1,0.1-0.2,0.2-0.2c0.1,0.1,0.2,0.1,0.3,0.2
	C234.9,28.2,234.9,28.2,235,28.3C235,28.2,235,28.3,235,28.3z M206.5,7.3c-0.1-0.1,0-0.2,0.1-0.3c0.1,0,0.2-0.1,0.3-0.1
	c0.1-0.1,0.1-0.1,0.2-0.2c0.1,0,0.2,0.1,0.2,0.2l0.1,0.1c0,0.1,0.1,0.1,0.1,0.2c0,0.2-0.2,0.4-0.3,0.5c-0.1,0.1-0.3,0.1-0.4-0.1
	C206.6,7.4,206.5,7.4,206.5,7.3z M187.3,7.1c0,0-0.1-0.1-0.1-0.1c0-0.1,0-0.2,0.2-0.2c0.2,0,0.4,0,0.6,0.2l-0.3,0.2
	C187.5,7.3,187.4,7.3,187.3,7.1z M210.2,61.8c0,0.1,0,0.1,0,0.2c0,0.1,0,0.1-0.1,0.2c0,0.1-0.1,0.1-0.1,0.1
	c-0.1,0.1-0.2,0.1-0.4,0.2c-0.2,0.1-0.2,0.1-0.5,0l0.3-0.2l0.1-0.1l0.1-0.1c0.2-0.2,0.4-0.3,0.5-0.5
	C210.1,61.7,210.1,61.8,210.2,61.8z M187.1,79.6c0.1,0.1,0.2,0.3,0.2,0.4c-0.1,0.2-0.3,0.2-0.5,0.1c-0.2,0-0.3,0-0.5-0.1
	c0,0,0,0-0.1,0c0,0,0,0,0-0.1s0,0,0-0.1c0,0,0,0,0-0.1c0.1-0.1,0.2-0.1,0.2-0.2c-0.1-0.1,0-0.2,0.1-0.2c0,0,0.1-0.1,0.1-0.1
	C186.8,79.4,187,79.5,187.1,79.6z M212.6,61.1c0,0.1,0,0.2,0,0.2c0,0.1,0,0.2-0.1,0.2c-0.2,0.1-0.3,0-0.3-0.2c0-0.1,0-0.1,0-0.2
	c0-0.1,0-0.1,0.1-0.2c0,0,0.1-0.1,0.1-0.1s0.1,0,0.1,0C212.5,61,212.5,61,212.6,61.1C212.6,61.1,212.6,61.1,212.6,61.1z M175.7,75.8
	c0.1,0.1,0.1,0.1,0.1,0.2h-0.5c0,0-0.1,0-0.1,0c0,0-0.1,0-0.1,0s0,0-0.1-0.1c0,0,0-0.1,0-0.1c0,0,0-0.1,0-0.1c0,0,0,0,0-0.1
	c0,0,0,0,0.1,0c0,0,0,0,0.1,0c0.1,0,0.2,0,0.3,0C175.6,75.7,175.7,75.7,175.7,75.8z M192.3,7.1c-0.2,0-0.2-0.1-0.1-0.3l0.2-0.3
	c0.1,0,0.1,0.1,0.2,0.1c0,0.1,0.1,0.1,0.1,0.2C192.6,7.1,192.5,7.1,192.3,7.1z M227.3,51.7c0,0.1,0,0.1,0,0.2c0,0.1,0,0.1-0.1,0.2
	c0,0-0.1,0.1-0.1,0.1s-0.1,0-0.2,0.1c0,0-0.1,0-0.1-0.1c0,0,0-0.1,0-0.1s0-0.1,0-0.1c0.1-0.1,0.1-0.2,0.2-0.3c0,0,0,0,0.1,0
	C227.1,51.6,227.2,51.6,227.3,51.7C227.2,51.6,227.2,51.6,227.3,51.7C227.3,51.7,227.3,51.7,227.3,51.7z M207.4,61.5
	C207.5,61.5,207.5,61.5,207.4,61.5c0.1,0,0.2,0,0.2,0c0.1,0.1,0.2,0.1,0.1,0.3c0,0.1,0,0.2,0,0.2c-0.1,0-0.1,0-0.2,0c0,0,0,0-0.1,0
	c0,0,0,0-0.1,0c0,0,0,0,0,0c0,0,0,0,0-0.1c0-0.1,0-0.2,0-0.3C207.4,61.6,207.4,61.6,207.4,61.5C207.4,61.6,207.4,61.5,207.4,61.5z
	 M196.3,11.5c0,0,0.1,0,0.2,0c-0.1,0.2-0.1,0.5-0.3,0.5c-0.1,0-0.2,0.1-0.3,0C196,11.7,196.2,11.6,196.3,11.5z M228.7,23.8
	c0,0,0.1,0.1,0.1,0.2c0,0.1-0.1,0.3-0.3,0.3c-0.1,0-0.2-0.1-0.2-0.2c0-0.1,0-0.1,0.1-0.2c0.1-0.1,0.1-0.1,0.2-0.1
	C228.6,23.7,228.7,23.7,228.7,23.8z M195.8,9.6c0,0-0.1,0-0.1-0.1c0.1-0.2,0.3-0.4,0.5-0.4c0,0,0.1,0,0.1,0s0.1,0,0.1,0.1
	c0,0,0,0.2,0,0.2C196.2,9.4,196,9.5,195.8,9.6z M225.5,12.8c0.1,0.1,0.2,0.2,0.3,0.3l-0.6,0.1c0-0.1,0-0.2,0-0.3c0,0,0-0.1,0.1-0.1
	c0,0,0.1,0,0.1-0.1C225.4,12.8,225.4,12.8,225.5,12.8C225.5,12.8,225.5,12.8,225.5,12.8z M212.6,63.8c0,0.1,0,0.2,0,0.2
	c0,0.1,0,0.2-0.1,0.2l-0.1,0c-0.1,0-0.2-0.1-0.2-0.2c0-0.1,0-0.1,0-0.2c0-0.1,0.1-0.1,0.1-0.1c0,0,0,0,0.1,0s0,0,0.1,0
	C212.5,63.7,212.5,63.7,212.6,63.8C212.6,63.8,212.6,63.8,212.6,63.8z M209,52.4C209,52.5,209,52.5,209,52.4c0,0.1-0.1,0.2-0.1,0.2
	c0,0-0.1,0.1-0.1,0.1c-0.1,0-0.2,0-0.2-0.2c0-0.1,0.1-0.1,0.2-0.2c0,0,0.2,0,0.2,0C208.9,52.3,208.9,52.3,209,52.4
	C209,52.4,209,52.4,209,52.4z M177.6,76.8l-0.1,0.1c-0.1,0-0.1,0.1-0.2,0.1c-0.2,0-0.2-0.2-0.2-0.3c0-0.1,0-0.2,0.2-0.1
	C177.6,76.6,177.6,76.6,177.6,76.8z M197.8,70.3c0,0,0,0.1,0,0.1c0,0,0,0.1,0,0.1c0,0-0.1,0-0.1,0.1c0,0-0.1,0-0.1,0
	c0,0-0.1,0-0.1,0c0,0-0.1,0-0.1-0.1c0,0,0-0.1,0-0.1c0-0.1,0-0.1,0-0.2c0.1,0,0.1,0,0.2,0C197.6,70.1,197.7,70.1,197.8,70.3
	C197.8,70.2,197.8,70.2,197.8,70.3z M231.2,44.8c0.2,0.1,0.2,0.2,0.2,0.5c-0.1,0-0.3,0-0.4-0.2c0,0,0-0.1,0-0.1c0,0,0-0.1,0-0.1
	c0,0,0,0,0,0c0,0,0,0,0.1,0C231.1,44.7,231.1,44.7,231.2,44.8C231.1,44.7,231.1,44.7,231.2,44.8z M201.9,10.5c-0.2,0-0.3,0-0.3,0.3
	c0,0.1-0.1,0.1-0.1,0.2c-0.1,0.1,0,0.3,0,0.4c0,0.1,0.1,0.1,0.2,0.1c0.1,0,0.2,0,0.2,0.1c0.2,0.2,0.4,0.1,0.5-0.1
	c0-0.1-0.1-0.2-0.1-0.3c0-0.1,0-0.1,0-0.2c0-0.1,0.1-0.1,0.1-0.2c0.1-0.1,0.2,0,0.3,0c0,0,0.1,0.1,0.1,0.1c0,0.1,0,0.1,0,0.2
	c0,0.1,0,0.1,0.1,0.2c-0.1,0.2,0.1,0.3,0.2,0.4l0.1,0.1c0,0,0.1,0.1,0.1,0.1c0,0.2,0.2,0.3,0.4,0.3c0.1-0.1,0.1-0.2,0.2-0.3
	c0-0.1,0-0.2-0.1-0.3c0-0.1-0.1-0.2-0.1-0.3c0-0.1,0-0.2,0.1-0.3s0.1-0.2,0.2-0.2c0.1,0,0.2-0.1,0.3,0c0.1,0,0.1,0,0.2,0
	c0.1-0.1,0.2-0.1,0.3-0.2c0,0,0,0,0-0.1c0,0,0,0,0-0.1c0,0,0,0,0-0.1c0,0,0,0,0-0.1c-0.2,0-0.5,0-0.6,0.2c-0.1-0.1-0.2-0.2-0.3-0.3
	c-0.1-0.1-0.3-0.1-0.4-0.1c-0.2-0.1-0.5-0.1-0.6-0.4c0,0,0,0,0,0c0,0-0.1,0-0.1,0c0,0-0.1,0-0.1,0c0,0-0.1,0-0.1,0s0,0-0.1,0.1
	c0,0.1-0.1,0.2-0.1,0.3c-0.1,0.1-0.1,0.1-0.2,0.2L201.9,10.5C201.9,10.5,201.9,10.5,201.9,10.5z M203.1,11
	C203.1,11,203.1,11,203.1,11L203.1,11C203.1,11,203.1,11,203.1,11L203.1,11z M208.3,59.5c0-0.1,0-0.1,0-0.2c0-0.1,0-0.1,0.1-0.2
	c0.1,0.1,0.2,0.2,0.2,0.3s0.1,0.2,0,0.4C208.4,59.8,208.4,59.6,208.3,59.5z M184.9,0.7C184.9,0.7,184.9,0.7,184.9,0.7
	c0.3-0.3,0.3-0.3,0.4,0c0,0,0,0.1,0,0.1C185.1,1,185.1,1,184.9,0.7z M218.6,18.8C218.7,18.8,218.7,18.8,218.6,18.8
	c0.2,0.1,0.2,0.1,0.3,0.2l0.1,0.1c0.2,0,0.2,0.2,0.3,0.3c-0.1,0.1-0.3,0.2-0.5,0.3c-0.1,0-0.2,0.1-0.2,0s-0.2-0.1-0.2-0.1l-0.1-0.1
	c-0.1-0.1-0.2-0.1-0.1-0.2c0.1-0.1,0.2-0.3,0.3-0.4c0,0,0,0,0.1-0.1C218.5,18.8,218.5,18.8,218.6,18.8
	C218.6,18.8,218.6,18.8,218.6,18.8z M208.4,60.3c0-0.1,0-0.3,0-0.4c0.1,0,0.1,0,0.1,0c0.1,0,0.2,0.1,0.2,0.1c0,0.1,0,0.1,0,0.2
	c0,0.1-0.1,0.1-0.1,0.2C208.5,60.4,208.4,60.4,208.4,60.3z M208.8,55c0,0,0.1,0,0.1,0.1c0,0.1,0,0.1,0,0.2c0,0,0,0.1-0.1,0.1
	c0,0-0.1,0-0.1,0c0,0,0,0,0,0c0,0,0,0,0,0c0,0,0,0,0,0s0,0,0,0c0-0.1,0-0.2,0.1-0.3C208.7,55,208.8,55,208.8,55z M228.3,7.7
	c-0.1,0-0.1-0.1-0.1-0.2s0-0.1,0-0.2c0.3,0,0.4,0.1,0.4,0.3c0,0,0,0,0,0.1c0,0,0,0,0,0C228.4,7.7,228.4,7.7,228.3,7.7
	C228.4,7.7,228.4,7.7,228.3,7.7z M193.1,12.8h-0.3c0,0,0-0.1,0-0.1c0-0.1,0-0.1,0.1-0.2c0,0,0.1-0.1,0.1-0.1c0,0,0,0,0.1,0
	c0,0,0,0,0.1,0c0,0,0,0.1,0,0.1C193.1,12.7,193.1,12.8,193.1,12.8z M221.7,4.7c0.3-0.2,0.4-0.2,0.5,0.1C222,4.9,221.9,4.8,221.7,4.7
	z M204.2,7.2c-0.1,0-0.2-0.1-0.3-0.1c0-0.1,0.1-0.1,0.1-0.1c0.1,0,0.1,0,0.2-0.1l0.1-0.1c0.1-0.1,0.2-0.2,0.2-0.3c0,0,0,0,0.1-0.1
	c0,0,0.1,0,0.1,0c0,0,0.1,0,0.1,0c0,0,0,0,0.1,0.1c0.1,0.1,0.2,0.3,0,0.5L204.9,7L204.7,7C204.6,7.3,204.4,7.2,204.2,7.2z M179,78.8
	c-0.1,0.1-0.2,0-0.3,0l-0.2-0.1l0.3-0.2C178.9,78.6,179,78.6,179,78.8z M209.2,0.2c0,0,0.1-0.1,0.1-0.1c0.1,0,0.3-0.1,0.3,0.2
	c0,0-0.1,0.1-0.2,0.1c-0.1,0-0.1,0-0.2,0C209.3,0.4,209.2,0.3,209.2,0.2z M226.6,12.6c0,0.1,0.1,0.2,0,0.2c0,0.1-0.1,0.1-0.2,0.1
	c-0.1,0-0.1,0-0.2,0C226.2,12.8,226.4,12.7,226.6,12.6z M206.4,10.5c-0.1,0-0.2,0-0.3-0.1c0-0.1,0.1-0.1,0.1-0.2c0,0,0.1,0,0.1,0
	c0,0,0.1,0,0.1,0c0.1,0,0.1,0.1,0.1,0.2C206.5,10.5,206.5,10.5,206.4,10.5z M205.8,62.6c0,0-0.1,0-0.1,0.1c-0.1,0-0.1-0.1-0.2-0.1
	c0-0.1,0.1-0.2,0.2-0.2c0,0,0.1,0,0.1,0s0,0.1,0.1,0.1C205.9,62.6,205.8,62.6,205.8,62.6z M223.5,42.2c0-0.1,0.1-0.2,0.2-0.3
	c0.1,0.1,0.1,0.1,0.1,0.2c0,0.1-0.1,0.2-0.2,0.2C223.6,42.3,223.5,42.2,223.5,42.2z M197.8,72.3c0,0,0,0.1-0.1,0.1
	c-0.1,0-0.1-0.1-0.2-0.1C197.6,72.3,197.6,72.2,197.8,72.3C197.7,72.2,197.8,72.3,197.8,72.3z M208.9,52c-0.2-0.1-0.2-0.2,0-0.4
	c-0.2-0.1-0.3-0.2-0.5-0.3c0,0,0,0,0,0c0,0,0,0,0,0c0,0,0,0,0.1-0.1c0.2,0.1,0.2,0,0.3-0.1c0,0,0,0,0.1,0c0.2,0.1,0.3,0.1,0.4,0.3
	c0,0,0.1,0,0.1,0c0,0,0,0,0.1-0.1c0,0,0,0,0.1,0c0,0,0,0,0.1,0c0,0,0,0,0.1,0c0,0,0.1,0.1,0.1,0.2c-0.1,0.1-0.1,0.3-0.3,0.3
	l-0.1,0.1C209.1,52.1,209,52.1,208.9,52z M208.8,68.8c0-0.3,0-0.6,0-0.9c0-0.1,0-0.2,0-0.4c0-0.1-0.1-0.2-0.2-0.3
	c-0.1-0.1-0.2-0.1-0.3,0c0,0,0,0.1,0,0.1l-0.1-0.1c-0.1-0.1-0.2-0.3-0.1-0.5c0.1,0,0.3-0.1,0.4-0.2c0.1-0.1,0.1-0.3,0.1-0.4
	c0-0.1-0.1-0.2-0.2-0.3c-0.1-0.1-0.2-0.2-0.3-0.2l-0.4-0.1c-0.1,0-0.3,0-0.4,0c-0.1,0-0.2,0.1-0.3,0.2c-0.2,0.2-0.3,0.4-0.4,0.6
	c-0.1,0.1-0.2,0.3-0.2,0.4c-0.1,0.3-0.2,0.6-0.4,0.8c-0.1,0.1-0.1,0.2-0.1,0.3c0,0.1,0.1,0.2,0.2,0.3c0.1,0.1,0.2,0.3,0.3,0.4
	c0,0.1,0.1,0.3,0.1,0.4c0,0.1,0,0.3,0,0.4c0,0.1,0.1,0.3,0.1,0.4c0,0.1,0,0.1,0.1,0.2c-0.1,0.1-0.2,0.1-0.3,0.2
	c-0.1,0-0.1,0.1-0.2,0.1s-0.1,0.1-0.1,0.2c0,0.1,0,0.1,0,0.2c0,0.1,0,0.1,0.1,0.2c0.1,0.1,0.2,0.3,0.2,0.5c0,0.1,0,0.1,0.1,0.1
	c0,0,0.1,0.1,0.1,0.1c0.2,0,0.4,0.1,0.6,0.2c0,0.1-0.1,0.1-0.1,0.2c0,0.2,0.1,0.4,0.1,0.6c0.1,0.2,0.1,0.2,0.3,0.1
	c0.2,0.1,0.2,0,0.3-0.1c0.1-0.1,0.3-0.2,0.3-0.3c0,0,0.1-0.1,0.1-0.1c0.2,0,0.2-0.1,0.4-0.2c0.4-0.3,0.3-0.6-0.1-0.8
	c-0.1,0.1-0.1,0.2-0.2,0.3c0,0,0,0.1,0,0.1c0,0,0,0-0.1,0.1c-0.1,0-0.2,0-0.2,0c-0.1,0-0.1-0.1-0.2-0.1c-0.1-0.2-0.1-0.4-0.1-0.6
	c0-0.1,0-0.2,0.1-0.3c0.1-0.1,0.1-0.1,0.2-0.2c0.1,0,0.1-0.1,0.1-0.1l0.3-0.3h0.1c0.1,0,0.2,0,0.2-0.1h0.1l0.1-0.1l0.1-0.1l0.1-0.1
	v-0.1c0.1,0,0.1,0,0-0.1v-0.1c0.1,0,0.1,0,0-0.1V69C208.9,69,208.9,68.9,208.8,68.8z M206.4,70.9C206.4,70.9,206.4,70.9,206.4,70.9
	L206.4,70.9C206.4,70.9,206.5,70.9,206.4,70.9C206.5,70.9,206.4,70.9,206.4,70.9C206.4,70.9,206.4,70.9,206.4,70.9z M206.7,66.6
	C206.8,66.6,206.8,66.6,206.7,66.6C206.8,66.6,206.8,66.6,206.7,66.6C206.8,66.6,206.8,66.6,206.7,66.6z M206.8,66.6
	C206.8,66.6,206.8,66.6,206.8,66.6C206.8,66.6,206.8,66.6,206.8,66.6z M207.9,68c-0.2,0-0.3,0-0.3-0.3c0.1,0,0.2,0,0.3,0
	c0.1,0,0.1,0.1,0.1,0.1v0C208.1,67.9,208,68,207.9,68z M229.4,56.7L229.4,56.7C229.5,56.8,229.4,56.8,229.4,56.7
	C229.4,56.8,229.4,56.8,229.4,56.7L229.4,56.7z M197,9C197,9,197,8.9,197,9L197,9L197,9z M184.9,8.2C184.9,8.3,184.9,8.3,184.9,8.2
	C184.9,8.3,184.9,8.3,184.9,8.2C184.9,8.3,184.9,8.3,184.9,8.2C184.9,8.2,184.9,8.2,184.9,8.2z M197.8,8.1
	C197.8,8.1,197.8,8.1,197.8,8.1C197.8,8.1,197.8,8.1,197.8,8.1L197.8,8.1L197.8,8.1C197.8,8.2,197.8,8.2,197.8,8.1
	C197.8,8.2,197.8,8.1,197.8,8.1z M203.2,43.8C203.2,43.8,203.2,43.8,203.2,43.8L203.2,43.8L203.2,43.8z M202.8,43.5L202.8,43.5
	L202.8,43.5C202.8,43.5,202.8,43.5,202.8,43.5z M208.1,67.3C208.1,67.3,208.1,67.3,208.1,67.3L208.1,67.3
	C208.1,67.3,208.1,67.3,208.1,67.3z M211.5,63.4c0.2,0.3,0.2,0.4-0.1,0.6c-0.1,0.1-0.2,0.1-0.2,0.1c-0.1,0.1-0.2,0.1-0.2,0.2
	c0,0.1-0.1,0.2,0,0.3c0.1,0.3,0.1,0.6,0.1,1c0.1,0,0.2,0.1,0.3,0.2c0.1,0.1,0.1,0.2,0.1,0.3c0,0.1,0,0.2,0,0.2c0,0.1,0,0.2,0,0.2
	c0,0.1-0.1,0.1-0.1,0.2c-0.1,0.1-0.2,0.3-0.3,0.4c0,0.2-0.1,0.3,0,0.5c0,0.3,0,0.3-0.1,0.5c-0.3-0.1-0.3-0.1-0.3-0.4
	c0-0.4,0-0.7,0-1.1c0-0.1,0-0.2-0.1-0.3c0-0.1,0-0.2,0.1-0.2c0-0.2,0-0.4-0.1-0.5c0-0.1-0.1-0.2-0.1-0.3c0-0.3,0-0.6,0-0.8
	c0-0.3,0-0.5,0-0.8c0-0.1,0-0.3,0.1-0.4c0-0.1,0.1-0.2,0.2-0.3c0.1-0.1,0.2-0.1,0.4-0.1c0.1,0,0.2,0.1,0.3,0.1
	C211.4,63.2,211.5,63.3,211.5,63.4L211.5,63.4z"/>
</svg>
