<svg width="47" height="68" viewBox="0 0 47 68" fill="none" xmlns="http://www.w3.org/2000/svg">
<path d="M27.7696 53.7278C27.848 53.8866 27.8867 54.0621 27.8825 54.2391C27.8668 54.4188 27.9197 54.5977 28.0305 54.74C28.1414 54.8823 28.302 54.9773 28.4801 55.006C28.5769 55.0264 28.6723 55.053 28.7657 55.0857C28.9799 55.1653 29.2155 55.1653 29.4297 55.0857C29.4848 55.0752 29.5341 55.0445 29.5678 54.9997C29.6016 54.9549 29.6175 54.8992 29.6123 54.8433C29.6123 54.6308 29.6123 54.4217 29.6123 54.2092C29.6186 54.1485 29.6052 54.0873 29.5741 54.0347C29.5431 53.9821 29.4959 53.9409 29.4397 53.9171C29.2941 53.8379 29.1533 53.7504 29.018 53.6548C28.8653 53.5552 28.8752 53.3992 28.8653 53.2398C28.8553 53.0804 29.018 53.1004 29.0678 53.0107C29.1993 53.0031 29.3313 53.0142 29.4596 53.0439C29.7141 53.1225 29.9807 53.154 30.2465 53.1369C30.309 53.1425 30.372 53.1327 30.4298 53.1084C30.4877 53.0841 30.5387 53.046 30.5785 52.9974C30.6184 52.9437 30.6666 52.8966 30.7213 52.858C30.8014 52.8073 30.8653 52.7347 30.9053 52.6488C30.9454 52.5629 30.9599 52.4672 30.9471 52.3733C30.9412 52.2083 30.9626 52.0434 31.0102 51.8853C31.0236 51.823 31.0501 51.7642 31.0879 51.7128C31.1257 51.6615 31.1739 51.6187 31.2295 51.5873C31.285 51.556 31.3465 51.5367 31.41 51.5309C31.4735 51.525 31.5375 51.5326 31.5979 51.5533C31.7138 51.5944 31.8403 51.594 31.956 51.5523C32.0716 51.5105 32.1692 51.4299 32.232 51.3242C32.2686 51.2711 32.325 51.2279 32.3615 51.1715C32.5561 50.8622 32.8499 50.6281 33.1949 50.5075C33.341 50.481 33.4904 50.4677 33.6332 50.4312C33.776 50.3946 33.9187 50.3448 34.0615 50.2984C34.2757 50.4062 34.4603 50.5646 34.5994 50.7598C34.5983 50.8166 34.6164 50.872 34.6508 50.9172C34.6851 50.9624 34.7337 50.9947 34.7887 51.0088C35.103 51.1413 35.4495 51.1783 35.7847 51.1151C35.8813 51.0746 35.9889 51.0687 36.0893 51.0984C36.1897 51.128 36.2768 51.1913 36.3359 51.2777C36.3824 51.3209 36.4255 51.3674 36.4687 51.4105C36.4687 51.5168 36.4455 51.623 36.4388 51.7425C36.4322 51.862 36.3558 51.8687 36.2795 51.8521C36.1867 51.8288 36.0957 51.7988 36.0072 51.7624C35.7989 51.7171 35.5832 51.7182 35.3754 51.7659C35.1676 51.8135 34.9729 51.9064 34.8053 52.038L34.606 52.1774C34.5217 52.2194 34.4416 52.2694 34.367 52.3268C34.3427 52.3529 34.3242 52.3839 34.3128 52.4177C34.3013 52.4514 34.2972 52.4872 34.3006 52.5227C34.3178 52.5539 34.3421 52.5807 34.3715 52.6008C34.4009 52.621 34.4346 52.634 34.4699 52.6389C34.8019 52.6688 35.1008 52.6821 35.4129 52.702C35.5224 52.8447 35.6154 53.0041 35.8179 53.034C35.9897 53.2269 36.1046 53.4636 36.15 53.7179C36.1634 53.7991 36.2032 53.8737 36.2632 53.9301C36.3232 53.9865 36.4001 54.0216 36.482 54.0299L36.5484 54.0963L36.6181 54.1627C36.635 54.2211 36.6595 54.2769 36.6912 54.3287C36.814 54.5014 36.8173 54.498 36.6912 54.6939C36.5351 54.83 36.5351 54.83 36.6912 55.0259L36.7609 55.2251C36.6414 55.5936 36.5252 55.9621 36.399 56.3572C36.5285 56.26 36.6527 56.1558 36.7709 56.0451C36.8229 55.9777 36.8664 55.9041 36.9003 55.826C37.0132 55.733 36.9468 55.6036 36.9634 55.494C36.98 55.3845 36.9634 55.3612 36.9634 55.2948C36.9634 55.2284 36.9634 55.2085 36.99 55.2052C37.031 55.1898 37.0755 55.1863 37.1184 55.1952C37.1612 55.204 37.2008 55.2247 37.2324 55.255C37.3718 55.4077 37.5279 55.5538 37.6839 55.7131C37.9031 55.7364 37.8433 55.494 37.9429 55.421C37.9007 55.3065 37.8496 55.1955 37.7902 55.089C37.7171 54.9728 37.6341 54.8134 37.5246 54.7836C37.415 54.7537 37.3386 54.5976 37.2125 54.5512C37.2125 54.5512 37.2125 54.4748 37.2125 54.4316C37.2125 54.3885 37.332 54.3188 37.3353 54.2557C37.3492 54.1874 37.377 54.1226 37.417 54.0655C37.457 54.0084 37.5083 53.9601 37.5677 53.9237L37.7171 53.8141C37.6937 53.7331 37.654 53.6577 37.6003 53.5926C37.5466 53.5275 37.4801 53.4741 37.405 53.4357L37.1328 53.0373C37.1203 52.9833 37.1048 52.9301 37.0863 52.8779C37.0027 52.7354 36.9558 52.5742 36.9501 52.409C36.9443 52.2439 36.9797 52.0798 37.0531 51.9318C37.0531 51.9318 37.0531 51.8853 37.0531 51.8654C37.0831 51.5699 37.1285 51.2763 37.1892 50.9856C37.2428 50.8057 37.2358 50.6133 37.1693 50.4378C37.0546 50.1734 37.0056 49.8853 37.0265 49.5979C37.0315 49.5649 37.0315 49.5313 37.0265 49.4983C37.0233 49.4646 37.0128 49.432 36.9957 49.4027C36.9786 49.3735 36.9554 49.3484 36.9275 49.3291C36.8997 49.3098 36.868 49.2968 36.8346 49.2911C36.8012 49.2853 36.767 49.2869 36.7343 49.2958C36.5524 49.3453 36.3595 49.336 36.1832 49.2692C36.0906 49.0992 35.9496 48.9605 35.7781 48.8708C35.641 48.7488 35.4944 48.6378 35.3398 48.5388C35.2741 48.4872 35.1975 48.4513 35.1157 48.434C35.0339 48.4168 34.9493 48.4185 34.8683 48.4392C34.7189 48.5023 34.5994 48.6152 34.4101 48.582C34.3305 48.582 34.2342 48.6583 34.1445 48.7048L33.9652 48.8111L33.6697 48.4259C33.6011 48.3546 33.5541 48.2653 33.5342 48.1684C33.5142 48.0714 33.522 47.9708 33.5568 47.8782C33.6831 47.5947 33.6939 47.2731 33.5867 46.9818C33.5402 46.8633 33.5309 46.7335 33.56 46.6095C33.589 46.4856 33.6551 46.3734 33.7494 46.2879C33.7726 46.2448 33.7926 46.1983 33.8158 46.1551C33.9032 46.1135 33.9875 46.0658 34.0682 46.0124C34.1585 45.9533 34.2401 45.8818 34.3105 45.7999C34.3869 45.7036 34.3437 45.6073 34.2242 45.5443L34.0117 45.4347C34.0814 45.2853 34.1412 45.1492 34.2043 45.0164L34.2707 44.9467V44.8803C34.2939 44.8371 34.3139 44.794 34.3371 44.7475C34.3603 44.701 34.3803 44.701 34.4035 44.6811L34.4699 44.6114L34.5363 44.545L34.6027 44.4786C34.6226 44.4321 34.6459 44.3889 34.6658 44.3425C34.7247 44.3092 34.7739 44.261 34.8083 44.2027C34.8427 44.1445 34.8611 44.0781 34.8617 44.0105C34.8617 43.9042 34.8617 43.7947 34.8617 43.6785C34.9091 43.6682 34.9538 43.6482 34.9931 43.6198C35.0324 43.5914 35.0654 43.5551 35.09 43.5133C35.1147 43.4716 35.1304 43.4252 35.1362 43.377C35.1421 43.3289 35.1379 43.2801 35.124 43.2336C35.1223 43.2027 35.1223 43.1716 35.124 43.1407L35.3199 43.0012C35.417 43.0112 35.5149 43.0112 35.6121 43.0012C35.7642 42.9622 35.9241 42.966 36.0741 43.0123C36.2242 43.0586 36.3584 43.1456 36.4621 43.2635C36.4889 43.3691 36.5424 43.466 36.6174 43.5451C36.6924 43.6241 36.7864 43.6826 36.8904 43.715C37.1023 43.7597 37.318 43.7842 37.5345 43.788L37.6441 43.8777C37.6441 43.8478 37.6441 43.8179 37.6673 43.788H37.8666C37.8898 44.0437 38.0558 43.788 38.1222 43.8511C38.1252 43.8743 38.1252 43.8977 38.1222 43.9208C38.0785 44.1068 38.0584 44.2975 38.0624 44.4885C38.0621 44.5893 38.0861 44.6887 38.1323 44.7783C38.1786 44.8679 38.2457 44.945 38.3281 45.0031C38.431 45.0662 38.5206 45.1492 38.6169 45.2222L38.7398 45.0994H38.7697C38.775 45.0844 38.775 45.068 38.7697 45.0529C38.6169 45.0529 38.7365 44.877 38.6269 44.8371C38.5771 44.8172 38.5505 44.7475 38.5107 44.6977L39.0021 44.3159L38.6701 43.6752C38.5596 43.6856 38.4485 43.6856 38.338 43.6752C38.3048 43.6752 38.2816 43.5988 38.2517 43.559H38.3181L38.5837 43.4926L38.7863 43.5557H38.8527C38.8998 43.5986 38.9556 43.6309 39.0164 43.6504C39.0771 43.6698 39.1413 43.676 39.2046 43.6685C39.4702 43.5656 39.7292 43.4494 40.0114 43.3365L40.2804 43.4893C40.3435 43.2867 40.3966 43.1108 40.453 42.9348C40.453 42.9149 40.4796 42.8917 40.4763 42.8718C40.4669 42.7959 40.4491 42.7213 40.4232 42.6493C40.39 42.5663 40.3236 42.5464 40.2339 42.5862C40.1354 42.6367 40.0553 42.7168 40.0048 42.8153C39.9052 42.9548 39.8122 42.9581 39.6728 42.8452C39.6163 42.7954 39.5599 42.739 39.5068 42.6858C39.4359 42.5357 39.3298 42.4051 39.1973 42.305C39.0649 42.205 38.9102 42.1386 38.7464 42.1115C38.6698 42.1552 38.5956 42.2028 38.524 42.2543C38.1919 42.4966 38.1919 42.4966 37.8998 42.2343C37.8632 42.0351 37.7039 41.9422 37.5677 41.8359C37.521 41.773 37.489 41.7003 37.474 41.6233C37.4591 41.5463 37.4616 41.467 37.4814 41.3911C37.325 41.2973 37.1631 41.2131 36.9966 41.1388C36.8273 41.0724 36.6646 41.2384 36.4787 41.1686C36.4787 41.1686 36.4023 41.2251 36.3923 41.2616C36.3558 41.3944 36.3359 41.5305 36.2961 41.7197L35.8047 42.0285C35.7183 41.9787 35.6486 41.9422 35.5855 41.9023C35.5185 41.8526 35.439 41.8222 35.3558 41.8146C35.2727 41.807 35.189 41.8224 35.114 41.8592C34.9996 41.8951 34.8816 41.9184 34.7621 41.9289C34.523 41.7031 34.4765 41.3512 34.2275 41.1421L34.4168 40.9329C34.6592 40.8765 34.7023 40.6773 34.7488 40.4914C34.8587 40.5106 34.9715 40.5064 35.0796 40.4789C35.1878 40.4515 35.2889 40.4014 35.3763 40.332C35.6718 40.2358 35.7084 39.9668 35.7283 39.7245C35.7482 39.4821 35.5556 39.3925 35.3963 39.2763C35.1351 39.4659 34.9101 39.7009 34.7322 39.9702C34.7322 39.9702 34.7322 39.9934 34.7322 40.0034L34.5994 40.1395C34.473 40.2092 34.3262 40.2327 34.1844 40.2059C34.0416 40.2059 33.9055 40.3486 33.7594 40.2358L33.8623 39.7444V39.668L34.0217 39.3925C34.0345 39.3747 34.0435 39.3544 34.0481 39.333C34.0527 39.3115 34.0528 39.2893 34.0484 39.2678C34.0441 39.2463 34.0353 39.2259 34.0227 39.208C34.0101 39.19 33.9939 39.1748 33.9752 39.1634L33.8258 39.0638C33.859 38.848 33.8889 38.6555 33.9154 38.4662C34.031 38.134 34.0379 37.7736 33.9353 37.4371C33.9138 37.3074 33.9138 37.175 33.9353 37.0453C33.9889 36.825 33.975 36.5937 33.8955 36.3813C33.847 36.3006 33.8247 36.2067 33.8319 36.1127C33.839 36.0188 33.8752 35.9293 33.9353 35.8568C33.9719 35.8037 33.9885 35.7373 34.0217 35.6808C34.0903 35.5145 34.2056 35.3715 34.3537 35.2692C34.3947 35.2553 34.43 35.2283 34.4541 35.1922C34.4781 35.1562 34.4895 35.1132 34.4865 35.07L34.5496 35.0003C34.5852 34.9738 34.6151 34.9405 34.6376 34.9023C34.6601 34.8641 34.6747 34.8218 34.6806 34.7779C34.6865 34.7339 34.6835 34.6893 34.6718 34.6465C34.6602 34.6037 34.6401 34.5637 34.6127 34.5288C34.5496 34.4292 34.4168 34.313 34.4334 34.2367C34.45 34.1603 34.606 34.0641 34.7023 33.9811C34.7023 33.8283 34.5894 33.7852 34.4732 33.742C34.2906 33.669 34.108 33.596 33.9221 33.5329C33.8128 33.5057 33.7019 33.4857 33.59 33.4731C33.4602 33.423 33.3214 33.4007 33.1824 33.4076C33.0434 33.4144 32.9074 33.4503 32.7832 33.513C32.7355 33.542 32.6788 33.5526 32.6238 33.5428C32.563 33.5244 32.5103 33.4858 32.4744 33.4333C32.4346 33.3702 32.4744 33.3071 32.5441 33.2739C32.6135 33.2519 32.6761 33.2127 32.726 33.1598C32.776 33.107 32.8117 33.0423 32.8297 32.9718C32.8818 32.7919 32.902 32.6043 32.8895 32.4174C32.8758 32.3567 32.8794 32.2934 32.9 32.2347C32.9205 32.176 32.9571 32.1243 33.0057 32.0854C33.0435 32.0452 33.0779 32.0019 33.1086 31.9559C33.2264 31.8755 33.3483 31.8013 33.4738 31.7335C33.7453 31.6067 33.9797 31.4124 34.1545 31.1691C34.098 31.0429 34.0316 30.9068 33.9785 30.7674C33.9274 30.6712 33.9 30.5642 33.8988 30.4553C33.9152 30.3561 33.8958 30.2542 33.8442 30.1679C33.7925 30.0815 33.7118 30.0164 33.6166 29.9839C33.5336 29.9302 33.4444 29.8867 33.351 29.8544C33.2016 29.8245 33.1318 29.7117 33.0488 29.6154C32.9193 29.4627 32.9193 29.4328 33.0488 29.2834C33.1643 29.1797 33.2425 29.0409 33.2713 28.8883C33.2929 28.8749 33.3109 28.8566 33.324 28.8348C33.337 28.813 33.3447 28.7885 33.3463 28.7631C33.3479 28.7378 33.3435 28.7124 33.3333 28.6892C33.3231 28.6659 33.3076 28.6454 33.2879 28.6294C33.2071 28.5576 33.1037 28.5165 32.9957 28.5132C32.8865 28.5212 32.7829 28.5643 32.7002 28.636C32.5294 28.776 32.3281 28.8738 32.1125 28.9215C31.983 28.9547 31.7971 28.9581 31.7506 29.1174C31.6707 29.3079 31.5583 29.4831 31.4186 29.6353C31.362 29.6861 31.2959 29.7252 31.224 29.7503C31.1522 29.7754 31.0761 29.7859 31.0002 29.7814C30.7153 29.7958 30.4355 29.7021 30.2166 29.5191C30.107 29.4811 30.0039 29.4262 29.9112 29.3564C29.8215 29.2635 29.7651 29.1373 29.6422 29.0875C29.5161 29.1572 29.5891 29.2402 29.6024 29.3232C29.6107 29.4116 29.6107 29.5005 29.6024 29.5888C29.6024 29.6785 29.6024 29.7681 29.6024 29.8577V29.9241L29.5393 29.9939C29.4496 30.0603 29.36 30.1267 29.2737 30.1964H29.0977C28.6461 30.1565 28.4934 30.4553 28.4071 30.774C28.3473 31.0097 28.3008 31.2488 28.2643 31.4878C28.2344 31.6638 28.2278 31.8397 28.2112 32.0157C28.206 32.0656 28.2132 32.116 28.2324 32.1623C28.2515 32.2087 28.2819 32.2496 28.3208 32.2813C28.4469 32.3908 28.5665 32.507 28.6993 32.6133C28.945 32.7992 28.9616 32.9453 28.7457 33.1876C28.6951 33.2321 28.6484 33.281 28.6063 33.3337C28.5631 33.4034 28.4967 33.4897 28.5034 33.5628C28.5089 33.6072 28.5054 33.6522 28.493 33.6952C28.4807 33.7383 28.4598 33.7783 28.4316 33.8131C28.4033 33.8478 28.3684 33.8765 28.3288 33.8974C28.2892 33.9182 28.2458 33.9309 28.2012 33.9346C28.1436 33.9507 28.0903 33.9793 28.045 34.0183C27.9996 34.0573 27.9634 34.1058 27.9389 34.1603C27.8659 34.2699 27.8227 34.396 27.7563 34.5122C27.6734 34.6576 27.632 34.823 27.6368 34.9903C27.6366 35.1998 27.6166 35.4088 27.577 35.6145C27.4957 35.9718 27.4957 36.3428 27.577 36.7001C27.6101 36.8409 27.6101 36.9875 27.577 37.1283C27.5404 37.2439 27.5404 37.368 27.577 37.4836C27.6467 37.6562 27.7032 37.8355 27.7596 38.0147C27.8029 38.2084 27.8583 38.3991 27.9256 38.5858C28.0717 38.9178 28.2577 39.2497 28.4137 39.5585C28.3872 39.8407 28.3606 40.1229 28.3274 40.4349C28.2457 40.4055 28.1668 40.3688 28.0917 40.3254C27.8958 40.166 27.6965 39.9934 27.5139 39.834C27.4811 39.791 27.4345 39.7606 27.3819 39.7479C27.3293 39.7353 27.2739 39.741 27.2251 39.7643C27.1827 40.0758 27.2458 40.3926 27.4044 40.664C27.5737 40.9695 27.9256 40.996 28.1913 41.1022L28.3374 41.9654L29.2604 42.7211C29.1736 42.8355 29.1279 42.9759 29.1309 43.1195C29.1475 43.2951 29.1475 43.4718 29.1309 43.6474C29.0927 43.8425 29.0927 44.0432 29.1309 44.2383C29.2184 44.4678 29.2459 44.7157 29.2106 44.9587C29.1432 45.1749 29.1432 45.4065 29.2106 45.6227C29.3129 45.9188 29.3278 46.238 29.2537 46.5423C29.2365 46.6613 29.2455 46.7825 29.2803 46.8976C29.3042 47.0101 29.3352 47.121 29.3733 47.2296C29.4102 47.4393 28.0113 47.5239 27.9057 47.7088C27.7443 47.9242 27.6664 48.1908 27.6866 48.4591C27.7037 48.613 27.6901 48.7687 27.6467 48.9173C27.5621 49.1466 27.5621 49.3985 27.6467 49.6278C27.6826 49.7364 27.7115 49.8473 27.7331 49.9597C27.7479 50.0331 27.7479 50.1088 27.7331 50.1822C27.6737 50.444 27.7102 50.7185 27.836 50.9557C27.8767 51.0276 27.8981 51.1088 27.8981 51.1914C27.8981 51.274 27.8767 51.3553 27.836 51.4271C27.7005 51.741 27.6679 52.0896 27.743 52.4231C27.7931 52.6431 27.7828 52.8725 27.7131 53.0871C27.6787 53.1921 27.6659 53.3031 27.6756 53.4132C27.6853 53.5234 27.7173 53.6304 27.7696 53.7278ZM30.9039 40C30.9039 39.9602 30.9571 39.9237 30.9803 39.8971C31.1065 39.8971 31.2227 40.0233 31.216 40.1196C31.2087 40.1431 31.1953 40.1644 31.1773 40.1813C31.1592 40.1982 31.1371 40.2101 31.1131 40.2158C31.0835 40.2235 31.0524 40.2233 31.023 40.215C30.9936 40.2068 30.9669 40.1909 30.9456 40.1689C30.9243 40.147 30.9092 40.1198 30.9019 40.0901C30.8946 40.0604 30.8953 40.0294 30.9039 40ZM29.5094 46.2016C29.3756 46.2118 29.2423 46.1768 29.1309 46.102C29.2439 46.1721 29.3771 46.2025 29.5094 46.1883V46.2016ZM33.2945 40.4183C33.2945 40.3055 33.2414 40.2258 33.1219 40.2291C33.2414 40.2291 33.2978 40.3055 33.3045 40.4217C33.4424 40.5807 33.5158 40.7856 33.5103 40.996C33.515 40.8882 33.4984 40.7804 33.4614 40.679C33.4243 40.5776 33.3676 40.4845 33.2945 40.4051V40.4183ZM30.6549 50.4976C30.6549 50.4577 30.6117 50.4245 30.5918 50.388C30.5981 50.3258 30.5889 50.2629 30.5652 50.205C30.5415 50.1471 30.5038 50.096 30.4557 50.056C30.4557 49.9299 30.5055 49.8469 30.6649 49.8933C31.1264 50.0261 31.2824 50.0726 31.2625 50.6735C31.2625 50.7167 31.2625 50.7598 31.2426 50.8196C31.1762 50.8196 31.1131 50.8495 31.0533 50.8528C30.7047 50.8628 30.708 50.8594 30.6549 50.4976Z" fill="#D25046"/>
<path d="M31.704 59.1557C31.8819 58.9509 31.9819 58.6899 31.9862 58.4187C31.9687 58.3114 31.9104 58.2151 31.8235 58.1497C31.7405 58.0833 31.6642 58.1763 31.5944 58.2294C31.5042 58.312 31.398 58.3753 31.2823 58.4153C31.0082 58.5023 30.7565 58.6485 30.5452 58.8436C30.356 58.9731 30.3427 59.0627 30.4058 59.2984C30.4183 59.3755 30.4549 59.4466 30.5104 59.5015C30.5659 59.5564 30.6374 59.5922 30.7146 59.6039C30.7776 59.6192 30.8396 59.638 30.9005 59.6603L31.5646 59.9093C31.5889 59.8948 31.6094 59.8748 31.6245 59.8509C31.6396 59.827 31.6488 59.7998 31.6514 59.7716C31.654 59.7435 31.6499 59.7151 31.6394 59.6888C31.6289 59.6625 31.6124 59.6391 31.5911 59.6205C31.5382 59.5575 31.5027 59.4817 31.4882 59.4008C31.4736 59.3198 31.4805 59.2365 31.5081 59.159C31.5812 59.159 31.6775 59.1856 31.704 59.1557Z" fill="#D25046"/>
<path d="M28.8486 57.9673C28.8945 58.0537 28.9539 58.1322 29.0246 58.1997C29.0794 58.2617 29.1161 58.3374 29.1307 58.4188C29.1454 58.5002 29.1374 58.584 29.1076 58.6612L29.0678 58.8172C29.0342 58.8958 29.0064 58.9768 28.9848 59.0596C28.9735 59.0901 28.9693 59.1227 28.9724 59.1551C28.9756 59.1875 28.986 59.2187 29.0029 59.2465C29.0199 59.2743 29.0428 59.2979 29.0702 59.3155C29.0975 59.3332 29.1285 59.3444 29.1607 59.3484C29.2324 59.3623 29.3066 59.3541 29.3735 59.3251C29.4405 59.2961 29.4971 59.2475 29.5359 59.1857C29.5887 59.1138 29.6618 59.0592 29.7458 59.029C29.8298 58.9989 29.9209 58.9945 30.0074 59.0164C30.0691 59.0241 30.1316 59.0241 30.1933 59.0164L29.7816 58.4753C29.8787 58.3388 29.99 58.213 30.1137 58.1001C30.3062 57.9574 30.532 57.8611 30.7379 57.7316C30.7892 57.7047 30.8336 57.6663 30.8678 57.6194C30.9019 57.5726 30.9248 57.5186 30.9348 57.4615C30.9447 57.4044 30.9414 57.3457 30.9251 57.2901C30.9088 57.2345 30.88 57.1834 30.8408 57.1407C30.7468 57.0175 30.62 56.9233 30.475 56.8687C30.33 56.8141 30.1726 56.8014 30.0207 56.8319C29.9306 56.8544 29.8436 56.8878 29.7617 56.9315C29.5497 57.0539 29.3048 57.1073 29.0611 57.0842C28.9482 57.0842 28.8387 57.0842 28.7291 57.0842L28.5133 57.0079C28.1348 56.8917 27.9588 56.9614 27.733 57.3398L27.9986 57.5689C28.1332 57.6996 28.3124 57.7744 28.5 57.7781C28.6494 57.7748 28.7656 57.8013 28.8486 57.9673Z" fill="#D25046"/>
<path d="M24.1637 41.4807C24.1696 41.5798 24.1618 41.6793 24.1405 41.7762C24.1086 41.8846 24.1086 41.9998 24.1405 42.1082C24.1437 42.1475 24.1575 42.1851 24.1806 42.217C24.2036 42.249 24.235 42.274 24.2713 42.2894C24.3075 42.3047 24.3473 42.3099 24.3863 42.3043C24.4253 42.2987 24.462 42.2826 24.4924 42.2576C24.5523 42.2087 24.601 42.1476 24.6352 42.0783C24.7021 41.9162 24.8182 41.7791 24.9672 41.6866C25.0054 41.6678 25.0382 41.6397 25.0625 41.6049C25.0869 41.5701 25.1021 41.5296 25.1067 41.4874C25.0103 41.3394 24.9216 41.1864 24.8411 41.0292C24.7865 40.8968 24.6948 40.7831 24.5769 40.7018C24.4591 40.6205 24.3201 40.5751 24.177 40.5711C24.0774 40.5711 23.9778 40.5711 23.8782 40.5711C23.8383 40.5512 23.8018 40.5146 23.762 40.5146C23.5196 40.5146 23.2739 40.5146 23.0282 40.5146C22.7825 40.5146 22.6663 40.6441 22.6962 40.7603C22.726 40.8765 22.9551 40.9496 23.1012 40.8898C23.2923 40.8283 23.4978 40.8283 23.6889 40.8898C23.7328 40.9197 23.7795 40.9453 23.8284 40.9662C23.9381 40.9952 24.0331 41.0639 24.0951 41.1589C24.157 41.254 24.1815 41.3687 24.1637 41.4807Z" fill="#D25046"/>
<path d="M25.4453 57.2303C25.3575 57.1226 25.2472 57.0353 25.1222 56.9745C24.9972 56.9137 24.8604 56.8809 24.7215 56.8784C24.4199 56.8843 24.129 56.9906 23.8947 57.1805C23.8095 57.2438 23.7484 57.334 23.7212 57.4366C23.6941 57.5391 23.7026 57.6478 23.7453 57.7449C23.82 57.9344 23.9495 58.0974 24.1172 58.213C24.2164 58.2714 24.3209 58.3204 24.4293 58.3591C24.582 58.2861 24.7314 58.213 24.8808 58.1466C25.1161 58.0066 25.3107 57.8074 25.4453 57.569C25.4873 57.5226 25.5105 57.4622 25.5105 57.3996C25.5105 57.3371 25.4873 57.2767 25.4453 57.2303Z" fill="#D25046"/>
<path d="M33.1816 57.5425C33.3267 57.6024 33.4863 57.6182 33.6404 57.5881C33.7945 57.558 33.9363 57.4833 34.0482 57.3731C34.1511 57.2736 34.1611 57.1507 34.0482 57.071C33.9423 57.0066 33.8313 56.9511 33.7162 56.905C33.6554 56.8355 33.5803 56.7799 33.4961 56.7421C33.4118 56.7043 33.3204 56.6851 33.2281 56.6859C33.072 56.6627 32.8961 56.6859 32.8462 56.4602C32.8164 56.3573 32.6869 56.2842 32.6105 56.1946C32.5831 56.1583 32.5445 56.1321 32.5006 56.1201C32.4568 56.1081 32.4102 56.1109 32.3681 56.1282C32.2784 56.1693 32.1918 56.217 32.1091 56.2709C32.2187 56.583 32.1623 56.9349 32.4412 57.1474C32.3615 57.247 32.2187 57.3001 32.2619 57.4528C32.5697 57.3765 32.8943 57.4082 33.1816 57.5425Z" fill="#D25046"/>
<path d="M42.9798 30.6215C43.0563 30.7849 43.1428 30.9435 43.2388 31.0962C43.3351 31.2489 43.3849 31.2523 43.5343 31.1693C43.6837 31.0863 43.9327 30.9435 44.1519 30.8373C44.0854 30.7095 44.0052 30.5892 43.9128 30.4787C43.8425 30.3942 43.7548 30.3258 43.6557 30.2782C43.5566 30.2306 43.4483 30.2051 43.3384 30.2032C43.2843 30.1969 43.2295 30.2039 43.1789 30.2237C43.1282 30.2436 43.0831 30.2755 43.0477 30.3169C43.0123 30.3582 42.9876 30.4076 42.9757 30.4607C42.9639 30.5138 42.9653 30.569 42.9798 30.6215Z" fill="#D25046"/>
<path d="M37.8533 34.22C37.9924 34.2193 38.1292 34.1852 38.2523 34.1205C38.3754 34.0558 38.4811 33.9624 38.5605 33.8482C38.5891 33.8105 38.6071 33.7659 38.6127 33.719C38.6183 33.672 38.6113 33.6245 38.5923 33.5812C38.5734 33.5378 38.5432 33.5004 38.5049 33.4726C38.4666 33.4449 38.4216 33.4278 38.3746 33.4233C38.2989 33.4084 38.2211 33.4084 38.1455 33.4233C37.9031 33.4863 37.6574 33.556 37.4183 33.6324C37.3187 33.6623 37.2357 33.7187 37.2258 33.815C37.3265 33.8852 37.4199 33.9652 37.5047 34.054C37.5459 34.1069 37.5989 34.1494 37.6594 34.1782C37.7199 34.207 37.7863 34.2213 37.8533 34.22Z" fill="#D25046"/>
<path d="M38.4476 45.8728C38.3832 45.8072 38.3145 45.7462 38.2417 45.6902C38.1757 45.7685 38.1299 45.8618 38.1085 45.962C38.0871 46.0622 38.0906 46.1661 38.1189 46.2645C38.1189 46.3608 38.162 46.4571 38.1687 46.5567C38.1978 46.7571 38.2832 46.9451 38.4148 47.0991C38.5464 47.253 38.7189 47.3665 38.9124 47.4265C38.9648 47.4426 39.0207 47.4439 39.0737 47.4301C39.1268 47.4163 39.175 47.388 39.2129 47.3483C39.2508 47.3087 39.2769 47.2593 39.2884 47.2057C39.2998 47.1521 39.2961 47.0963 39.2776 47.0447C39.2146 46.8823 39.1297 46.7293 39.0253 46.5899C38.8427 46.3442 38.6435 46.1085 38.4476 45.8728Z" fill="#D25046"/>
<path d="M41.3828 47.0646C41.4132 47.1227 41.4632 47.1682 41.524 47.1931C41.5847 47.218 41.6523 47.2207 41.7148 47.2007C41.7797 47.1869 41.8386 47.1527 41.8827 47.1031C41.9269 47.0536 41.9542 46.9912 41.9605 46.9251C41.9815 46.8156 41.9937 46.7046 41.997 46.5932C41.9885 46.518 41.9953 46.4419 42.017 46.3695C42.0387 46.297 42.0748 46.2297 42.1232 46.1715L42.2427 45.9856C42.1962 45.9026 42.1597 45.8362 42.1132 45.7466L41.9937 45.7864C41.8144 45.8561 41.6915 45.9557 41.7413 46.1815C41.7413 46.2313 41.6949 46.2944 41.6915 46.3541C41.6749 46.6396 41.3828 46.7724 41.3828 47.0646Z" fill="#D25046"/>
<path d="M42.9864 47.2606C43.0449 47.2869 43.1006 47.3192 43.1525 47.3569C43.2407 47.3788 43.3338 47.3697 43.416 47.331C43.4983 47.2922 43.5647 47.2264 43.604 47.1444C43.6069 47.1142 43.5999 47.0839 43.5841 47.0581C43.5596 46.9979 43.5296 46.9401 43.4945 46.8855C43.4366 46.7965 43.3605 46.7209 43.2712 46.6637C43.1819 46.6064 43.0814 46.5689 42.9765 46.5535C42.9072 46.5577 42.8421 46.5882 42.7946 46.6388C42.7471 46.6894 42.7207 46.7563 42.7208 46.8257C42.7341 47.005 42.764 47.1909 42.9864 47.2606Z" fill="#D25046"/>
<path d="M42.0866 49.2957C42.1544 49.2235 42.2145 49.1445 42.2659 49.0599C42.402 48.8773 42.402 48.8475 42.2659 48.6516C42.2293 48.5985 42.1862 48.552 42.1463 48.5022C41.9268 48.5604 41.7329 48.6901 41.5952 48.8707C41.4823 49.0201 41.5254 49.1861 41.6815 49.3388C41.8375 49.4915 41.9372 49.4119 42.0866 49.2957Z" fill="#D25046"/>
<path d="M41.1171 40.2027C41.0557 40.1387 40.9748 40.0969 40.8872 40.0836C40.7995 40.0704 40.7099 40.0866 40.6323 40.1296C40.5261 40.1794 40.3966 40.1761 40.3003 40.2159C40.0148 40.3189 39.8255 40.3454 39.9915 40.7803V40.8102C40.0712 40.933 40.1542 41.0559 40.3236 41.0725C40.4929 41.0891 40.5659 41.0725 40.6855 41.099C40.7507 41.1205 40.8217 41.116 40.8836 41.0862C40.9455 41.0565 40.9935 41.004 41.0175 40.9397C41.0441 40.8682 41.0891 40.8051 41.148 40.7567C41.2069 40.7083 41.2776 40.6764 41.3528 40.6641C41.5192 40.669 41.6848 40.689 41.8476 40.7239C41.9107 40.4981 42.2692 40.5181 42.3124 40.1695L42.1829 40.0466C42.1198 40.0931 42.08 40.1097 42.07 40.1329C42.0248 40.2192 41.9548 40.29 41.869 40.3361C41.7832 40.3823 41.6855 40.4017 41.5886 40.3919C41.3827 40.4218 41.2632 40.2923 41.1171 40.2027ZM40.3866 40.943L40.2804 40.9131L40.4032 40.9397C40.2937 40.8334 40.1874 40.7438 40.0712 40.6309L40.4298 40.933C40.5168 40.9738 40.6132 40.9898 40.7087 40.9795C40.6001 40.9997 40.488 40.987 40.3866 40.943Z" fill="#D25046"/>
<path d="M36.5982 46.7926C36.5078 46.855 36.4383 46.9431 36.3986 47.0455C36.359 47.1479 36.351 47.2599 36.3758 47.3669C36.3758 47.5097 36.3758 47.6059 36.3758 47.6989C36.3758 47.7919 36.4023 47.8815 36.5053 47.9047C36.6082 47.928 36.6846 47.845 36.7244 47.7487C36.7456 47.6867 36.7633 47.6235 36.7775 47.5595C36.7898 47.4444 36.8212 47.3322 36.8705 47.2275C36.8992 47.1775 36.9162 47.1216 36.9202 47.0641C36.9242 47.0067 36.9152 46.949 36.8937 46.8955C36.8605 46.7129 36.7344 46.6897 36.5982 46.7926Z" fill="#D25046"/>
<path d="M26.1991 40.2158C26.063 40.1394 25.9667 40.1328 25.8671 40.2158C25.739 40.3402 25.6561 40.5038 25.6313 40.6806C25.624 40.7227 25.6285 40.7661 25.6446 40.8058C25.6606 40.8454 25.6874 40.8798 25.7219 40.9051C25.7565 40.9303 25.7974 40.9453 25.8401 40.9485C25.8828 40.9516 25.9255 40.9428 25.9634 40.9229C26.1427 40.82 26.2954 40.6905 26.4614 40.5909C26.4561 40.5104 26.4289 40.4329 26.3827 40.3667C26.3364 40.3006 26.2729 40.2484 26.1991 40.2158Z" fill="#D25046"/>
<path d="M42.9299 26.5046C42.9299 26.6574 42.9299 26.7536 43.0627 26.7835C43.123 26.8035 43.1882 26.8035 43.2486 26.7835C43.2912 26.7557 43.321 26.7121 43.3316 26.6624C43.3422 26.6126 43.3326 26.5607 43.3051 26.5179C43.272 26.4535 43.2609 26.38 43.2735 26.3087C43.2861 26.2373 43.3216 26.1721 43.3748 26.1229C43.452 26.0231 43.5115 25.9108 43.5508 25.7909C43.5723 25.7308 43.5723 25.6651 43.5508 25.605C43.5379 25.5433 43.5077 25.4866 43.4638 25.4414C43.4199 25.3963 43.3641 25.3645 43.3028 25.3499C43.2415 25.3353 43.1774 25.3384 43.1178 25.3589C43.0582 25.3793 43.0057 25.4163 42.9664 25.4655C42.8635 25.5518 42.7638 25.6647 42.8269 25.7975C42.8982 25.8991 42.9446 26.016 42.9625 26.1388C42.9804 26.2616 42.9692 26.3869 42.9299 26.5046Z" fill="#D25046"/>
<path d="M39.3075 36.305C39.417 36.305 39.4768 36.2253 39.4967 36.1125C39.4967 36.0859 39.5332 36.0593 39.5498 36.0328C39.7092 35.807 39.7092 35.7008 39.5498 35.5116C39.4881 35.4488 39.4215 35.3911 39.3506 35.3389C39.3148 35.223 39.2467 35.1197 39.1544 35.041C39.0622 34.9622 38.9494 34.9113 38.8293 34.8941C38.7822 34.8812 38.7324 34.8821 38.6858 34.8966C38.6392 34.9111 38.5977 34.9387 38.5663 34.9761C38.5348 35.0135 38.5148 35.059 38.5084 35.1075C38.5021 35.1559 38.5098 35.2051 38.5305 35.2493C38.6102 35.4518 38.7164 35.6444 38.8161 35.8402C38.8723 35.9475 38.9344 36.0517 39.002 36.1523C39.0376 36.1997 39.0837 36.2382 39.1367 36.2647C39.1897 36.2912 39.2482 36.305 39.3075 36.305Z" fill="#D25046"/>
<path d="M23.3336 37.8122C23.4166 37.8122 23.5163 37.6395 23.5163 37.52C23.51 37.4571 23.4883 37.3966 23.4532 37.3441C23.3801 37.2345 23.2838 37.1382 23.2174 37.0121C23.1898 36.9645 23.1493 36.9258 23.1004 36.9005C23.0516 36.8752 22.9966 36.8644 22.9418 36.8693C22.8633 36.993 22.8279 37.1392 22.8411 37.2851C22.8543 37.431 22.9154 37.5685 23.0149 37.676C23.0518 37.7243 23.1005 37.7622 23.1563 37.7861C23.2122 37.8099 23.2733 37.8189 23.3336 37.8122Z" fill="#D25046"/>
<path d="M40.6689 49.3787C40.7692 49.2933 40.8625 49.2001 40.9478 49.0998C40.9981 49.0474 41.0341 48.9829 41.0521 48.9125C41.0701 48.8421 41.0697 48.7683 41.0507 48.6981C40.9777 48.4591 40.8881 48.2234 40.7884 47.9412C40.4897 48.1856 40.2845 48.5257 40.2074 48.9039C40.1888 48.9858 40.1936 49.0711 40.2212 49.1504C40.2488 49.2296 40.2981 49.2995 40.3634 49.3521C40.4008 49.3956 40.4537 49.4227 40.5108 49.4277C40.5679 49.4327 40.6246 49.4151 40.6689 49.3787Z" fill="#D25046"/>
<path d="M40.7818 45.9359C40.5261 45.7666 40.2273 45.7135 40.0314 45.4911C40.0314 45.4745 39.9916 45.4712 39.9717 45.4612C39.8621 45.4048 39.809 45.4612 39.7658 45.5575C39.7226 45.6537 39.623 45.667 39.706 45.7766C39.7364 45.8338 39.7577 45.8954 39.7691 45.9592C39.7691 46.0322 39.8056 46.0887 39.8887 46.0887C40.0269 46.1033 40.1608 46.1451 40.2828 46.2118C40.4047 46.2785 40.5123 46.3686 40.5992 46.4771C40.6656 46.2845 40.7187 46.1152 40.7818 45.9359Z" fill="#D25046"/>
<path d="M36.691 31.9592C36.691 31.9194 36.6645 31.8563 36.6412 31.8497C36.6154 31.8447 36.5888 31.8451 36.5631 31.8508C36.5374 31.8565 36.5131 31.8674 36.4918 31.8829C36.4436 31.9364 36.4073 31.9997 36.3856 32.0684C36.3638 32.1371 36.357 32.2097 36.3657 32.2812C36.3657 32.4771 36.3657 32.6763 36.3657 32.8722C36.3657 33.0017 36.3657 33.1311 36.3657 33.3005C36.6977 33.1544 36.7442 33.0979 36.6711 32.839C36.6711 32.8058 36.6446 32.7792 36.6379 32.746C36.5815 32.5236 36.4918 32.3012 36.6578 32.0821C36.6818 32.0457 36.6935 32.0027 36.691 31.9592Z" fill="#D25046"/>
<path d="M32.8829 52.6587C32.9039 52.6767 32.9293 52.6889 32.9566 52.6938C32.9838 52.6988 33.0119 52.6964 33.0379 52.687C33.0639 52.6775 33.087 52.6613 33.1047 52.64C33.1223 52.6187 33.134 52.5931 33.1385 52.5657C33.1561 52.4806 33.1457 52.3921 33.1087 52.3134C33.0203 52.1852 32.9008 52.0814 32.7615 52.0117C32.6222 51.9421 32.4675 51.9088 32.3118 51.915C32.4083 52.2226 32.6106 52.486 32.8829 52.6587Z" fill="#D25046"/>
<path d="M36.4022 54.9395C36.4466 54.8987 36.4888 54.8555 36.5284 54.81C36.4254 54.81 36.3657 54.81 36.3092 54.7868C36.2528 54.7635 36.1565 54.7602 36.0735 54.7436L36.1565 54.6208H36.0071C35.9551 54.6007 35.9019 54.5841 35.8477 54.571C35.8208 54.5655 35.7928 54.5673 35.7668 54.5764C35.7408 54.5854 35.7177 54.6014 35.7 54.6225C35.6824 54.6435 35.6707 54.669 35.6663 54.6962C35.6619 54.7234 35.6649 54.7512 35.6751 54.7768C35.7303 54.8694 35.7948 54.9562 35.8676 55.0358C35.954 55.1553 36.1432 55.1719 36.1764 55.3512C36.1764 55.3777 36.2993 55.4142 36.3424 55.3976C36.3856 55.381 36.4022 55.2814 36.3424 55.2283C36.2428 55.0988 36.2926 55.0192 36.4022 54.9395Z" fill="#D25046"/>
<path d="M25.5914 41.5606C25.5745 41.5613 25.558 41.5667 25.5439 41.5761C25.5297 41.5856 25.5185 41.5987 25.5113 41.6141C25.5041 41.6295 25.5013 41.6466 25.5031 41.6635C25.5049 41.6804 25.5114 41.6965 25.5217 41.71C25.6678 41.9185 25.8486 42.1004 26.0563 42.2478C26.2057 42.3374 26.3086 42.2478 26.3053 42.0818C26.2932 42.0005 26.265 41.9223 26.2224 41.852C26.1799 41.7816 26.1238 41.7204 26.0574 41.6719C25.9909 41.6234 25.9156 41.5886 25.8356 41.5695C25.7556 41.5504 25.6726 41.5473 25.5914 41.5606Z" fill="#D25046"/>
<path d="M36.638 40.0333C36.711 40.0499 36.7874 40.0565 36.9335 40.0797C36.98 40.0266 37.0298 39.9536 37.0895 39.8905C37.1242 39.8626 37.1484 39.8238 37.1581 39.7803C37.1677 39.7369 37.1623 39.6914 37.1427 39.6515C37.0885 39.5218 37.0206 39.3982 36.9401 39.283C36.9162 39.2523 36.8864 39.2267 36.8524 39.2078C36.8184 39.1888 36.781 39.1768 36.7424 39.1725C36.7037 39.1681 36.6646 39.1716 36.6273 39.1826C36.59 39.1936 36.5552 39.2119 36.5251 39.2365C36.453 39.2811 36.3952 39.3455 36.3587 39.422C36.3222 39.4985 36.3085 39.584 36.3192 39.6681C36.3325 39.7528 36.3695 39.832 36.4259 39.8967C36.4823 39.9613 36.5558 40.0086 36.638 40.0333Z" fill="#D25046"/>
<path d="M36.3458 37.105C36.3016 37.2299 36.2651 37.3574 36.2362 37.4868C36.1921 37.6186 36.1905 37.761 36.2316 37.8938C36.2727 38.0267 36.3544 38.1432 36.4653 38.2271C36.4966 38.2498 36.5324 38.2655 36.5702 38.2733C36.608 38.281 36.6471 38.2807 36.6848 38.2722C36.7225 38.2637 36.7579 38.2473 36.7888 38.2241C36.8196 38.2009 36.8452 38.1713 36.8638 38.1375C36.9468 37.9848 37.0165 37.8055 37.0862 37.6627C37.1429 37.519 37.1533 37.3612 37.1161 37.2112C37.0488 37.0027 36.9442 36.808 36.8073 36.6369C36.7492 36.534 36.7098 36.4216 36.6911 36.3049C36.7097 36.1899 36.7443 36.0782 36.794 35.9729C36.7974 35.9287 36.7974 35.8843 36.794 35.8401C36.887 35.5579 36.9733 35.2757 37.0763 34.9968C37.1211 34.885 37.1211 34.7601 37.0763 34.6483C37.0431 34.5553 37.0065 34.4623 36.97 34.3694C36.9677 34.302 36.9418 34.2376 36.8969 34.1872C36.8521 34.1369 36.791 34.1039 36.7243 34.0938C36.6787 34.0849 36.6365 34.0634 36.6024 34.0317C36.5684 34 36.5439 33.9594 36.5317 33.9146C36.462 33.7618 36.3126 33.732 36.2196 33.8648C36.1267 33.9976 36.0901 34.1171 36.13 34.1967C36.2329 34.3959 36.13 34.5885 36.1731 34.781C36.037 34.9504 36.1333 35.1462 36.1134 35.3255C36.0924 35.4744 36.1054 35.6261 36.1514 35.7693C36.1974 35.9125 36.2752 36.0434 36.379 36.1522C36.4411 36.2157 36.4806 36.2979 36.4914 36.3861C36.5022 36.4743 36.4837 36.5636 36.4388 36.6402C36.3902 36.7911 36.359 36.947 36.3458 37.105Z" fill="#D25046"/>
<path d="M43.4479 28.357C43.3217 28.2607 43.2288 28.2773 43.1524 28.4167C43.1209 28.4753 43.0974 28.5378 43.0827 28.6027C43.0561 28.7222 43.0395 28.8417 43.0163 28.9579C42.9649 28.9812 42.9236 29.0221 42.8998 29.0733C42.876 29.1245 42.8714 29.1825 42.8868 29.2368C42.8891 29.3118 42.9134 29.3845 42.9565 29.4459C43.0042 29.4931 43.0659 29.5235 43.1324 29.5325C43.1989 29.5415 43.2666 29.5286 43.3251 29.4957C43.379 29.4823 43.4257 29.4485 43.4554 29.4015C43.4851 29.3545 43.4955 29.2979 43.4844 29.2434C43.4694 29.1669 43.4801 29.0877 43.5149 29.018C43.5498 28.9483 43.6068 28.8921 43.677 28.8583C43.6919 28.842 43.7032 28.8228 43.7102 28.8018C43.6751 28.6284 43.5827 28.4717 43.4479 28.357Z" fill="#D25046"/>
<path d="M43.0993 36.3083C43.1512 36.3269 43.2045 36.3413 43.2587 36.3514C43.3948 36.3514 43.5509 36.2386 43.5442 36.1323C43.5339 36.0388 43.4916 35.9517 43.4244 35.8857C43.3573 35.8198 43.2694 35.7791 43.1757 35.7705C43.0163 35.7539 42.8835 35.9165 42.8437 36.056C42.8038 36.1954 42.9366 36.2684 43.0993 36.3083Z" fill="#D25046"/>
<path d="M18.7684 36.5375C18.7684 36.4246 18.6754 36.4047 18.6156 36.3482C18.4994 36.242 18.3567 36.149 18.3998 35.9598C18.297 35.9389 18.1905 35.9447 18.0905 35.9767C17.9905 36.0087 17.9004 36.0657 17.8287 36.1424C17.5764 36.2685 17.5465 36.5142 17.4967 36.7499C17.4951 36.7731 17.4951 36.7964 17.4967 36.8197C17.4265 37.1095 17.2914 37.3797 17.1016 37.6098C17.0097 37.7349 16.9297 37.8682 16.8625 38.0082C16.7297 38.2339 16.753 38.3136 16.9821 38.5062C17.1282 38.7253 17.3141 38.629 17.5067 38.5892C17.5067 38.4962 17.5067 38.4198 17.5067 38.3435C17.5067 38.048 17.5067 38.048 17.769 37.8953H17.9018L18.0379 37.9584C18.0811 38.0281 18.1276 38.0281 18.1707 37.9584L18.2371 37.892L18.3002 37.8223C18.3235 37.7758 18.3467 37.7326 18.3666 37.6861C18.3683 37.6663 18.3683 37.6463 18.3666 37.6264C18.5288 37.4253 18.6608 37.2016 18.7584 36.9624C18.8481 36.906 18.8281 36.823 18.8082 36.74C18.7883 36.657 18.785 36.5972 18.7684 36.5375Z" fill="#D25046"/>
<path d="M37.8865 30.4785L37.9529 30.4088L38.0193 30.3424L38.3513 30.1897C38.0458 30.0635 38.0193 30.0669 37.8201 30.2096C37.6969 30.2528 37.577 30.3049 37.4615 30.3657C37.4126 30.401 37.3721 30.4467 37.3429 30.4995C37.3136 30.5522 37.2964 30.6108 37.2922 30.6709C37.2881 30.7311 37.2973 30.7915 37.3191 30.8477C37.3408 30.904 37.3747 30.9547 37.4183 30.9964C37.5013 30.7508 37.7304 30.6346 37.8865 30.4785Z" fill="#D25046"/>
<path d="M35.0343 31.7003C35.0759 31.7191 35.1231 31.7213 35.1663 31.7065C35.2095 31.6917 35.2454 31.661 35.2668 31.6206C35.305 31.5751 35.3291 31.5195 35.3361 31.4605C35.3432 31.4016 35.3329 31.3418 35.3066 31.2886C35.2302 31.1459 35.1505 31.0496 34.9746 31.1027C34.9296 31.1665 34.8997 31.2397 34.8871 31.3168C34.8744 31.3938 34.8794 31.4727 34.9015 31.5476C34.9124 31.5805 34.9298 31.611 34.9526 31.6372C34.9754 31.6635 35.0032 31.6849 35.0343 31.7003Z" fill="#D25046"/>
<path d="M20.797 40.332C20.738 40.3366 20.6808 40.3543 20.6295 40.3837C20.5781 40.4132 20.534 40.4537 20.5003 40.5024C20.4666 40.551 20.4442 40.6065 20.4346 40.6649C20.4251 40.7233 20.4286 40.7831 20.4451 40.84C20.4536 40.8603 20.4669 40.8783 20.4838 40.8923C20.5008 40.9064 20.5209 40.9161 20.5425 40.9207C20.564 40.9253 20.5864 40.9245 20.6076 40.9186C20.6288 40.9126 20.6482 40.9016 20.6642 40.8865C20.7496 40.8013 20.8264 40.7079 20.8933 40.6076C20.9096 40.5817 20.9204 40.5527 20.925 40.5224C20.9295 40.4921 20.9278 40.4612 20.9199 40.4316C20.8933 40.3785 20.8203 40.352 20.797 40.332Z" fill="#D25046"/>
<path d="M39.822 31.1425C39.8483 31.163 39.8801 31.1753 39.9133 31.1778C39.9466 31.1803 39.9798 31.1729 40.0089 31.1566C40.0379 31.1403 40.0616 31.1158 40.0768 31.0861C40.0919 31.0564 40.098 31.0229 40.0943 30.9898C40.0917 30.8935 40.0784 30.7977 40.0544 30.7043C40.051 30.6848 40.0429 30.6664 40.031 30.6506C40.0191 30.6348 40.0036 30.622 39.9858 30.6133C39.9681 30.6045 39.9485 30.6001 39.9287 30.6004C39.9089 30.6006 39.8894 30.6055 39.8718 30.6147C39.8195 30.6295 39.7663 30.6406 39.7124 30.6479C39.7124 30.7342 39.6925 30.8072 39.6792 30.8836C39.6361 31.0131 39.7224 31.0828 39.822 31.1425Z" fill="#D25046"/>
<path d="M35.1472 28.9912C35.2073 28.9606 35.2566 28.9125 35.2886 28.8532C35.3206 28.7939 35.3339 28.7262 35.3265 28.6593C35.3099 28.5364 35.2203 28.5032 35.114 28.4866L34.9978 28.4634C34.9598 28.529 34.9354 28.6017 34.9263 28.677C34.9172 28.7524 34.9234 28.8288 34.9447 28.9016C34.9465 28.9242 34.9545 28.9458 34.9676 28.9643C34.9808 28.9828 34.9986 28.9973 35.0193 29.0065C35.0401 29.0157 35.0629 29.0191 35.0854 29.0164C35.1079 29.0137 35.1292 29.005 35.1472 28.9912Z" fill="#D25046"/>
<path d="M38.6035 40.2621C38.66 40.2953 38.7695 40.3219 38.8094 40.292C38.8753 40.2339 38.9314 40.1655 38.9754 40.0895C38.9754 39.8837 38.8758 39.7973 38.7396 39.8438C38.6876 39.8637 38.6385 39.8905 38.5936 39.9235C38.5667 39.9432 38.545 39.9692 38.5304 39.9991C38.5158 40.0291 38.5087 40.0621 38.5097 40.0954C38.5107 40.1287 38.5197 40.1613 38.536 40.1903C38.5524 40.2194 38.5755 40.244 38.6035 40.2621Z" fill="#D25046"/>
<path d="M16.4408 47.1975C16.3944 47.4565 16.4408 47.5793 16.6168 47.6822C16.6316 47.6954 16.6493 47.7047 16.6684 47.7096C16.6876 47.7144 16.7076 47.7146 16.7269 47.71C16.7461 47.7054 16.7639 47.6963 16.7789 47.6834C16.7938 47.6704 16.8054 47.6541 16.8127 47.6357C16.8313 47.6028 16.8411 47.5657 16.8411 47.5278C16.8411 47.49 16.8313 47.4529 16.8127 47.4199C16.743 47.234 16.5869 47.234 16.4408 47.1975Z" fill="#D25046"/>
<path d="M38.7995 32.8423C38.771 32.9609 38.7806 33.0854 38.8271 33.1981C38.8737 33.3108 38.9547 33.4059 39.0585 33.4698C39.1109 33.4341 39.147 33.3791 39.1588 33.3169C39.1706 33.2546 39.1573 33.1902 39.1216 33.1378C39.0353 33.0017 39.0386 32.8058 38.7995 32.8423Z" fill="#D25046"/>
<path d="M38.8526 32.3211C38.807 32.3619 38.7736 32.4145 38.756 32.473C38.7384 32.5316 38.7374 32.5939 38.753 32.6531C38.753 32.7029 38.8891 32.7361 38.9655 32.7693C38.9655 32.7693 39.0053 32.7693 39.0584 32.7693C39.0704 32.6345 39.0704 32.499 39.0584 32.3642C39.0352 32.2713 38.9389 32.258 38.8526 32.3211Z" fill="#D25046"/>
<path d="M38.7729 37.5998C38.8858 37.5566 38.8924 37.4537 38.8858 37.3475C38.8867 37.3309 38.8842 37.3144 38.8784 37.2989C38.8726 37.2834 38.8636 37.2693 38.8521 37.2574C38.8405 37.2455 38.8266 37.2362 38.8113 37.23C38.7959 37.2238 38.7795 37.2208 38.7629 37.2213C38.7187 37.2141 38.6733 37.2238 38.6358 37.2484C38.5984 37.2729 38.5714 37.3107 38.5604 37.3541C38.5604 37.4172 38.5338 37.4803 38.5239 37.5301C38.5488 37.5711 38.5884 37.6011 38.6346 37.6141C38.6808 37.627 38.7303 37.6219 38.7729 37.5998Z" fill="#D25046"/>
<path d="M41.5686 30.1631C41.5728 30.2021 41.5915 30.2381 41.621 30.264C41.6506 30.2898 41.6888 30.3036 41.728 30.3025C41.8177 30.3025 41.8907 30.2195 41.8841 30.0867C41.8475 30.0635 41.7911 30.0037 41.7313 29.9971C41.6879 29.9979 41.6465 30.0158 41.6161 30.0468C41.5857 30.0779 41.5686 30.1196 41.5686 30.1631Z" fill="#D25046"/>
<path d="M24.0641 50.0593C23.9712 50.0593 23.8981 50.1523 23.9147 50.2685C23.9147 50.3083 23.9645 50.3448 24.0176 50.4245C24.0824 50.3463 24.1391 50.2618 24.187 50.1722C24.187 50.1722 24.1173 50.0693 24.0641 50.0593Z" fill="#D25046"/>
<path d="M38.3147 40.5609L38.1819 40.697C37.976 40.697 37.9561 40.9029 37.8698 41.029C37.8499 41.0556 37.8897 41.1618 37.9329 41.1917C37.9508 41.2083 37.9722 41.2209 37.9954 41.2284C38.0187 41.236 38.0433 41.2385 38.0676 41.2356C38.0919 41.2328 38.1153 41.2247 38.1361 41.212C38.157 41.1992 38.1749 41.1821 38.1885 41.1618C38.2184 41.1618 38.2749 41.1618 38.2782 41.1917C38.3114 41.3975 38.4674 41.4606 38.6301 41.5237C38.651 41.5158 38.671 41.5058 38.6899 41.4938C38.7696 41.4307 38.8094 41.2647 38.9622 41.3876C38.989 41.3749 39.0111 41.3539 39.0252 41.3278C39.0297 41.3129 39.0302 41.2972 39.0267 41.282C39.0232 41.2669 39.0158 41.2529 39.0053 41.2415C38.8459 41.1319 38.6733 41.0257 38.5239 40.9095C38.7463 40.7402 38.7463 40.6771 38.5239 40.5443C38.4475 40.4713 38.3944 40.4713 38.3147 40.5609Z" fill="#D25046"/>
<path d="M38.6932 23.9251C38.7307 24.2257 38.7418 24.5289 38.7264 24.8314C38.7136 24.9498 38.7288 25.0694 38.7709 25.1808C38.8131 25.2921 38.8808 25.3919 38.9688 25.4722C39.0617 25.585 39.1348 25.5784 39.2311 25.4722C39.2541 25.4283 39.2709 25.3813 39.2809 25.3327L39.3805 25.4622C39.4836 25.5953 39.5322 25.7627 39.5166 25.9303C39.377 25.9613 39.2521 26.0392 39.1627 26.1509C39.0734 26.2626 39.0248 26.4014 39.0252 26.5445C39.0476 26.6591 39.099 26.766 39.1746 26.8549C39.2502 26.9439 39.3474 27.0119 39.4569 27.0524L39.8088 27.1553C39.9309 27.1945 40.0617 27.1974 40.1854 27.1638C40.3092 27.1303 40.4205 27.0616 40.5061 26.9661C40.6742 26.7968 40.8143 26.6018 40.9211 26.3885C41.0168 26.2546 41.096 26.1097 41.1568 25.9569C41.2129 25.663 41.3458 25.3892 41.542 25.1634C41.6178 25.0737 41.6557 24.9581 41.6476 24.8409C41.6396 24.7238 41.5862 24.6144 41.4988 24.5359C41.4034 24.401 41.3147 24.2614 41.2332 24.1176C41.2133 23.9848 41.1436 23.8388 41.1834 23.7292C41.2169 23.6067 41.2257 23.4786 41.2091 23.3527C41.1926 23.2267 41.1511 23.1053 41.0871 22.9955C41.0637 22.9294 41.0449 22.8617 41.0307 22.793C41.118 22.7246 41.2101 22.6625 41.3062 22.6071C41.3682 22.5824 41.4239 22.5444 41.4693 22.4956C41.5148 22.4469 41.5489 22.3887 41.5692 22.3252C41.5895 22.2618 41.5955 22.1946 41.5868 22.1285C41.5781 22.0624 41.5548 21.9991 41.5187 21.9431C41.4169 21.7995 41.352 21.633 41.3295 21.4584C41.3314 21.4072 41.3134 21.3572 41.2794 21.3189C41.2454 21.2806 41.1979 21.2568 41.1469 21.2526C40.9246 21.2257 40.7094 21.157 40.5127 21.0501C40.5426 20.977 40.6024 20.9073 40.5924 20.8442C40.5773 20.6497 40.5336 20.4584 40.4629 20.2765C40.3799 20.1138 40.3467 20.1006 40.1309 20.1902C39.9781 20.1072 39.925 20.2267 39.8652 20.3263C39.7178 20.3929 39.5998 20.5109 39.5332 20.6583C39.5067 20.7015 39.4768 20.7878 39.4535 20.7878C39.2809 20.7878 39.2112 20.9272 39.1016 21.0069C38.7397 21.2725 38.7696 21.5746 39.1813 21.8103C39.2534 21.7193 39.3127 21.6188 39.3572 21.5115C39.3611 21.48 39.3737 21.4503 39.3937 21.4256C39.4137 21.401 39.4401 21.3824 39.4701 21.3721C39.5457 21.3591 39.6234 21.3685 39.6936 21.3992C39.7638 21.4298 39.8235 21.4805 39.8652 21.5447C39.9525 21.7313 39.9736 21.9421 39.925 22.1423C39.9159 22.2311 39.8847 22.3162 39.8342 22.3899C39.7838 22.4635 39.7157 22.5234 39.6361 22.5639C39.5797 22.5872 39.5432 22.6536 39.4967 22.7034L39.2078 23.0121H39.1414C39.0451 23.0121 38.9455 23.0121 38.9422 23.1449H38.8758L38.8094 23.2146L38.743 23.281L38.6799 23.3474V23.4835C38.6301 23.5035 38.6301 23.5267 38.6799 23.5499V23.6163C38.6268 23.6396 38.6268 23.6595 38.6799 23.6827V23.7325C38.6035 23.789 38.6069 23.8587 38.6932 23.9251ZM40.4861 26.1561C40.6024 26.2424 40.5957 26.1029 40.6555 26.0963C40.6787 26.1262 40.7086 26.1561 40.7219 26.1494C40.7352 26.1428 40.6721 26.1195 40.6455 26.1029C40.619 26.0863 40.6024 26.2424 40.4861 26.1561ZM39.7822 25.917C39.7707 25.8578 39.7707 25.797 39.7822 25.7378C39.7707 25.797 39.7707 25.8578 39.7822 25.917ZM41.0074 21.9099C40.9775 21.8667 40.9311 21.8136 40.9078 21.8236C40.9344 21.8236 40.9809 21.8734 41.0207 21.9033C41.0605 21.9331 41.117 21.817 41.1402 21.9265C41.117 21.817 41.0605 21.9099 41.0141 21.9265L41.0074 21.9099ZM39.4735 24.8978C39.4071 24.8115 39.4535 24.7252 39.5598 24.7119C39.749 24.692 39.8154 24.7484 39.8918 25.0041C39.8002 25.0141 39.7078 25.0141 39.6162 25.0041C39.56 24.9854 39.5104 24.9508 39.4735 24.9045V24.8978Z" fill="#D25046"/>
<path d="M18.3205 35.8439C18.3205 35.8439 18.3205 35.8237 18.3205 35.8203C18.3205 35.817 18.3003 35.8203 18.2902 35.8203L18.3104 35.854L18.3205 35.8439Z" fill="#D25046"/>
<path d="M44.175 48.6316L44.2055 48.6621C44.2066 48.6543 44.2066 48.6463 44.2055 48.6384L44.175 48.6316Z" fill="#D25046"/>
<path d="M44.5709 48.9644L44.5403 48.9338C44.5392 48.9417 44.5392 48.9497 44.5403 48.9576L44.5709 48.9644Z" fill="#D25046"/>
<path d="M39.3474 25.4827L39.3746 25.4556C39.3746 25.4556 39.3746 25.4556 39.3542 25.4556C39.3338 25.4556 39.3474 25.4759 39.3474 25.4827Z" fill="#D25046"/>
<path d="M32.2321 57.4834L32.2627 57.4529H32.2389C32.2389 57.4529 32.2355 57.4766 32.2321 57.4834Z" fill="#D25046"/>
<path d="M36.0072 29.2934C36.0269 29.4041 36.083 29.505 36.1666 29.5802C36.2502 29.6554 36.3565 29.7005 36.4687 29.7084C36.5881 29.729 36.7111 29.7071 36.816 29.6464C36.921 29.5858 37.0013 29.4902 37.0431 29.3764C37.1072 29.2474 37.1413 29.1055 37.1427 28.9614C37.1427 28.6991 37.1427 28.4336 37.1626 28.1713C37.1825 27.909 37.1859 27.6202 37.1859 27.3479C37.1876 27.2594 37.1621 27.1725 37.1128 27.099C37.0143 26.9401 36.969 26.7541 36.9833 26.5678C37.0597 26.5147 37.0464 26.435 37.0331 26.3586C37.007 26.2495 36.9893 26.1385 36.98 26.0266C36.98 25.6747 36.98 25.3228 36.98 24.9676C36.98 24.6987 36.9534 24.6754 36.648 24.5725C36.4687 24.8149 36.4587 24.8149 36.5052 25.0771C36.5445 25.2336 36.5406 25.3978 36.4938 25.5522C36.447 25.7065 36.3592 25.8453 36.2396 25.9536C36.1797 26.0044 36.1321 26.0681 36.1004 26.14C36.0688 26.2119 36.0539 26.2901 36.057 26.3686C35.9806 26.4217 35.9906 26.5014 36.0072 26.5777C36.0255 26.6927 36.0756 26.8003 36.1519 26.8883C36.2282 26.9763 36.3275 27.0412 36.4388 27.0757C36.482 27.4077 36.5019 27.7397 36.565 28.0484C36.5889 28.1549 36.579 28.2661 36.5368 28.3667C36.4945 28.4672 36.422 28.5521 36.3292 28.6095C36.2595 28.6626 36.1698 28.6892 36.0968 28.739C35.8445 28.9149 35.8312 29.0345 36.0238 29.31L36.0072 29.2934Z" fill="#D25046"/>
<path d="M34.1606 13.501H7.13587C6.1965 13.501 5.43498 14.2666 5.43498 15.2111V25.9785C5.43498 26.923 6.1965 27.6887 7.13587 27.6887H34.1606C35.0999 27.6887 35.8614 26.923 35.8614 25.9785V15.2111C35.8614 14.2666 35.0999 13.501 34.1606 13.501Z" fill="#D25046"/>
<path opacity="0.3" d="M33.4362 15.7178H7.86038V25.4718H33.4362V15.7178Z" fill="black"/>
<path opacity="0.1" d="M13.8132 24.3453C15.7615 24.3453 17.3409 22.7573 17.3409 20.7984C17.3409 18.8395 15.7615 17.2515 13.8132 17.2515C11.8649 17.2515 10.2855 18.8395 10.2855 20.7984C10.2855 22.7573 11.8649 24.3453 13.8132 24.3453Z" fill="black"/>
<path opacity="0.1" d="M27.4834 24.3453C29.4317 24.3453 31.0111 22.7573 31.0111 20.7984C31.0111 18.8395 29.4317 17.2515 27.4834 17.2515C25.5351 17.2515 23.9557 18.8395 23.9557 20.7984C23.9557 22.7573 25.5351 24.3453 27.4834 24.3453Z" fill="black"/>
<path d="M23.2937 27.6882H18.0024V30.7926H23.2937V27.6882Z" fill="#D25046"/>
<path d="M30.1843 29.8008H9.80991V53.9482H30.1843V29.8008Z" fill="#D25046"/>
<path d="M32.1134 52.7375H9.18324V54.9544H32.1134V52.7375Z" fill="#D25046"/>
<path d="M12.9313 57.1738V59.8341V63.8244V66.0412V67.3712H16.9V66.0412V63.8244V59.8341V57.1738V54.0703H12.9313V57.1738Z" fill="#D25046"/>
<path d="M24.8374 54.0703V57.1738V59.8341V63.8244V66.0412V67.3712H28.8061V66.0412V63.8244V59.8341V57.1738V54.0703H24.8374Z" fill="#D25046"/>
<path d="M9.81215 33.574V37.6747C8.72285 37.866 7.70788 38.358 6.88053 39.0956C6.11329 39.81 5.51667 40.6897 5.13531 41.6686C4.62511 42.9114 4.3771 44.2916 4.27587 45.5964C4.15104 47.3563 4.23293 49.1249 4.51984 50.8656H0.110254C-0.077026 48.4147 -0.0172961 46.3119 0.225653 44.5063C0.497962 42.4707 1.00209 40.8137 1.64085 39.4661C2.91838 36.7719 4.73546 35.3104 6.33185 34.5165C8.22789 33.574 9.81215 33.574 9.81215 33.574Z" fill="#D25046"/>
<path d="M31.5748 33.574V37.6747C32.6641 37.866 33.6791 38.358 34.5064 39.0956C35.2737 39.81 35.8703 40.6897 36.2516 41.6686C36.7618 42.9114 37.0098 44.2916 37.1111 45.5964C37.2359 47.3563 37.154 49.1249 36.8671 50.8656H41.2767C41.464 48.4147 41.4042 46.3119 41.1613 44.5063C40.889 42.4707 40.3848 40.8137 39.7461 39.4661C38.4686 36.7719 36.6515 35.3104 35.0551 34.5165C33.1591 33.574 31.5748 33.574 31.5748 33.574Z" fill="#D25046"/>
<path opacity="0.1" d="M23.2937 27.6882H18.0024V28.0557H23.2937V27.6882Z" fill="black"/>
<path d="M12.8861 0.371094H11.3677V13.5009H12.8861V0.371094Z" fill="#D25046"/>
<path d="M30.2976 0.371094H28.7791V13.5009H30.2976V0.371094Z" fill="#D25046"/>
<path opacity="0.3" d="M30.1843 32.0647H12.0737V51.6845H30.1843V32.0647Z" fill="black"/>
<path opacity="0.3" d="M22.6382 40.3652H19.6198V43.3837H22.6382V40.3652Z" fill="black"/>
</svg>
