<svg width="65" height="72" viewBox="0 0 65 72" fill="none" xmlns="http://www.w3.org/2000/svg">
<path d="M39.5966 27.2969H0V62.1419H39.5966V53.4306V44.7194V27.2969Z" fill="#D25046"/>
<path d="M21.7046 32.0623H10.7463C10.7288 32.0623 10.7115 32.0589 10.6953 32.0522C10.6791 32.0456 10.6644 32.0358 10.6521 32.0234C10.6397 32.011 10.6299 31.9964 10.6232 31.9802C10.6165 31.964 10.613 31.9467 10.613 31.9292C10.613 31.9117 10.6165 31.8944 10.6232 31.8782C10.6299 31.8621 10.6397 31.8474 10.6521 31.835C10.6644 31.8227 10.6791 31.8129 10.6953 31.8062C10.7115 31.7995 10.7288 31.7961 10.7463 31.7961H21.7046C21.7399 31.7962 21.7736 31.8103 21.7985 31.8352C21.8234 31.8602 21.8374 31.894 21.8374 31.9292C21.8374 31.9645 21.8234 31.9983 21.7985 32.0232C21.7736 32.0481 21.7399 32.0622 21.7046 32.0623Z" fill="#F2F2F2"/>
<path d="M33.7002 33.5259H16.4648C16.4295 33.5259 16.3957 33.5119 16.3708 33.4869C16.3458 33.462 16.3318 33.4281 16.3318 33.3928C16.3318 33.3575 16.3458 33.3237 16.3708 33.2987C16.3957 33.2738 16.4295 33.2598 16.4648 33.2598H33.7002C33.7177 33.2598 33.735 33.2632 33.7511 33.2699C33.7673 33.2766 33.7819 33.2864 33.7943 33.2987C33.8066 33.3111 33.8164 33.3258 33.8231 33.3419C33.8298 33.3581 33.8332 33.3754 33.8332 33.3928C33.8332 33.4103 33.8298 33.4276 33.8231 33.4437C33.8164 33.4599 33.8066 33.4746 33.7943 33.4869C33.7819 33.4993 33.7673 33.5091 33.7511 33.5158C33.735 33.5225 33.7177 33.5259 33.7002 33.5259Z" fill="#F2F2F2"/>
<path d="M21.7579 34.9895H10.7995C10.7642 34.9895 10.7304 34.9755 10.7055 34.9505C10.6805 34.9256 10.6665 34.8917 10.6665 34.8565C10.6665 34.8212 10.6805 34.7873 10.7055 34.7624C10.7304 34.7374 10.7642 34.7234 10.7995 34.7234H21.7579C21.7931 34.7234 21.827 34.7374 21.8519 34.7624C21.8768 34.7873 21.8908 34.8212 21.8908 34.8565C21.8908 34.8917 21.8768 34.9256 21.8519 34.9505C21.827 34.9755 21.7931 34.9895 21.7579 34.9895Z" fill="#F2F2F2"/>
<path d="M33.7003 35.0161H22.7419C22.7066 35.0161 22.6728 35.0021 22.6479 34.9772C22.6229 34.9522 22.6089 34.9184 22.6089 34.8831C22.6089 34.8478 22.6229 34.8139 22.6479 34.789C22.6728 34.764 22.7066 34.75 22.7419 34.75H33.7003C33.7355 34.75 33.7694 34.764 33.7943 34.789C33.8192 34.8139 33.8333 34.8478 33.8333 34.8831C33.8333 34.9184 33.8192 34.9522 33.7943 34.9772C33.7694 35.0021 33.7355 35.0161 33.7003 35.0161Z" fill="#F2F2F2"/>
<path d="M21.7843 36.4534H10.826C10.7907 36.4534 10.7569 36.4394 10.7319 36.4144C10.707 36.3895 10.693 36.3556 10.693 36.3203C10.693 36.285 10.707 36.2512 10.7319 36.2262C10.7569 36.2013 10.7907 36.1873 10.826 36.1873H21.7843C21.8196 36.1873 21.8534 36.2013 21.8784 36.2262C21.9033 36.2512 21.9173 36.285 21.9173 36.3203C21.9173 36.3556 21.9033 36.3895 21.8784 36.4144C21.8534 36.4394 21.8196 36.4534 21.7843 36.4534Z" fill="#F2F2F2"/>
<path d="M21.8109 37.917H10.8525C10.8173 37.917 10.7835 37.903 10.7585 37.878C10.7336 37.8531 10.7196 37.8192 10.7196 37.7839C10.7196 37.7487 10.7336 37.7148 10.7585 37.6899C10.7835 37.6649 10.8173 37.6509 10.8525 37.6509H21.8109C21.8462 37.6509 21.88 37.6649 21.9049 37.6899C21.9299 37.7148 21.9439 37.7487 21.9439 37.7839C21.9439 37.8192 21.9299 37.8531 21.9049 37.878C21.88 37.903 21.8462 37.917 21.8109 37.917Z" fill="#F2F2F2"/>
<path d="M26.7849 32.0889H23.6463C23.6111 32.0889 23.5772 32.0749 23.5523 32.0499C23.5273 32.025 23.5133 31.9911 23.5133 31.9558C23.5133 31.9205 23.5273 31.8867 23.5523 31.8617C23.5772 31.8368 23.6111 31.8228 23.6463 31.8228H26.7849C26.8202 31.8228 26.854 31.8368 26.8789 31.8617C26.9039 31.8867 26.9179 31.9205 26.9179 31.9558C26.9179 31.9911 26.9039 32.025 26.8789 32.0499C26.854 32.0749 26.8202 32.0889 26.7849 32.0889Z" fill="#F2F2F2"/>
<path d="M26.7849 36.4534H23.6463C23.6111 36.4534 23.5772 36.4394 23.5523 36.4144C23.5273 36.3895 23.5133 36.3556 23.5133 36.3203C23.5133 36.285 23.5273 36.2512 23.5523 36.2262C23.5772 36.2013 23.6111 36.1873 23.6463 36.1873H26.7849C26.8202 36.1873 26.854 36.2013 26.8789 36.2262C26.9039 36.2512 26.9179 36.285 26.9179 36.3203C26.9179 36.3556 26.9039 36.3895 26.8789 36.4144C26.854 36.4394 26.8202 36.4534 26.7849 36.4534Z" fill="#F2F2F2"/>
<path d="M26.7848 37.8904H23.6462C23.6288 37.8904 23.6114 37.887 23.5953 37.8804C23.5791 37.8737 23.5644 37.8639 23.552 37.8515C23.5397 37.8392 23.5298 37.8245 23.5231 37.8083C23.5164 37.7922 23.513 37.7748 23.513 37.7573C23.513 37.7398 23.5164 37.7225 23.5231 37.7063C23.5298 37.6902 23.5397 37.6755 23.552 37.6631C23.5644 37.6508 23.5791 37.641 23.5953 37.6343C23.6114 37.6276 23.6288 37.6242 23.6462 37.6243H26.7848C26.8023 37.6242 26.8196 37.6276 26.8358 37.6343C26.852 37.641 26.8666 37.6508 26.879 37.6631C26.8914 37.6755 26.9012 37.6902 26.9079 37.7063C26.9146 37.7225 26.9181 37.7398 26.9181 37.7573C26.9181 37.7748 26.9146 37.7922 26.9079 37.8083C26.9012 37.8245 26.8914 37.8392 26.879 37.8515C26.8666 37.8639 26.852 37.8737 26.8358 37.8804C26.8196 37.887 26.8023 37.8904 26.7848 37.8904Z" fill="#F2F2F2"/>
<path d="M32.0512 37.8904H28.9127C28.8775 37.8903 28.8437 37.8763 28.8188 37.8513C28.794 37.8264 28.78 37.7926 28.78 37.7573C28.78 37.7221 28.794 37.6883 28.8188 37.6633C28.8437 37.6384 28.8775 37.6243 28.9127 37.6243H32.0512C32.0687 37.6242 32.086 37.6276 32.1022 37.6343C32.1184 37.641 32.1331 37.6508 32.1454 37.6631C32.1578 37.6755 32.1676 37.6902 32.1743 37.7063C32.181 37.7225 32.1845 37.7398 32.1845 37.7573C32.1845 37.7748 32.181 37.7922 32.1743 37.8083C32.1676 37.8245 32.1578 37.8392 32.1454 37.8515C32.1331 37.8639 32.1184 37.8737 32.1022 37.8804C32.086 37.887 32.0687 37.8904 32.0512 37.8904Z" fill="#F2F2F2"/>
<path d="M13.8582 33.5259H10.7197C10.6844 33.5259 10.6506 33.5119 10.6256 33.4869C10.6007 33.462 10.5867 33.4281 10.5867 33.3928C10.5867 33.3575 10.6007 33.3237 10.6256 33.2987C10.6506 33.2738 10.6844 33.2598 10.7197 33.2598H13.8582C13.8935 33.2598 13.9273 33.2738 13.9523 33.2987C13.9772 33.3237 13.9912 33.3575 13.9912 33.3928C13.9912 33.4281 13.9772 33.462 13.9523 33.4869C13.9273 33.5119 13.8935 33.5259 13.8582 33.5259Z" fill="#F2F2F2"/>
<path d="M21.718 53.6184H10.7596C10.7244 53.6184 10.6906 53.6044 10.6656 53.5795C10.6407 53.5545 10.6267 53.5206 10.6267 53.4854C10.6267 53.4501 10.6407 53.4162 10.6656 53.3913C10.6906 53.3663 10.7244 53.3523 10.7596 53.3523H21.718C21.7533 53.3523 21.7871 53.3663 21.812 53.3913C21.837 53.4162 21.851 53.4501 21.851 53.4854C21.851 53.5206 21.837 53.5545 21.812 53.5795C21.7871 53.6044 21.7533 53.6184 21.718 53.6184Z" fill="#F2F2F2"/>
<path d="M21.6647 56.5459H10.7064C10.6711 56.5459 10.6373 56.5319 10.6123 56.5069C10.5874 56.482 10.5734 56.4481 10.5734 56.4128C10.5734 56.3776 10.5874 56.3437 10.6123 56.3188C10.6373 56.2938 10.6711 56.2798 10.7064 56.2798H21.6647C21.7 56.2798 21.7338 56.2938 21.7588 56.3188C21.7837 56.3437 21.7977 56.3776 21.7977 56.4128C21.7977 56.4481 21.7837 56.482 21.7588 56.5069C21.7338 56.5319 21.7 56.5459 21.6647 56.5459Z" fill="#F2F2F2"/>
<path d="M21.6912 58.0095H10.7329C10.7154 58.0096 10.6981 58.0062 10.6819 57.9995C10.6657 57.9928 10.651 57.983 10.6387 57.9707C10.6263 57.9583 10.6165 57.9436 10.6098 57.9275C10.6031 57.9113 10.5996 57.894 10.5996 57.8765C10.5996 57.859 10.6031 57.8416 10.6098 57.8255C10.6165 57.8093 10.6263 57.7946 10.6387 57.7823C10.651 57.7699 10.6657 57.7601 10.6819 57.7535C10.6981 57.7468 10.7154 57.7434 10.7329 57.7434H21.6912C21.7087 57.7434 21.7261 57.7468 21.7422 57.7535C21.7584 57.7601 21.7731 57.7699 21.7855 57.7823C21.7978 57.7946 21.8077 57.8093 21.8144 57.8255C21.8211 57.8416 21.8245 57.859 21.8245 57.8765C21.8245 57.894 21.8211 57.9113 21.8144 57.9275C21.8077 57.9436 21.7978 57.9583 21.7855 57.9707C21.7731 57.983 21.7584 57.9928 21.7422 57.9995C21.7261 58.0062 21.7087 58.0096 21.6912 58.0095Z" fill="#F2F2F2"/>
<path d="M26.3726 56.5725H23.234C23.1988 56.5725 23.1649 56.5585 23.14 56.5335C23.1151 56.5086 23.1011 56.4748 23.1011 56.4395C23.1011 56.4042 23.1151 56.3703 23.14 56.3454C23.1649 56.3204 23.1988 56.3064 23.234 56.3064H26.3726C26.4079 56.3064 26.4417 56.3204 26.4666 56.3454C26.4916 56.3703 26.5056 56.4042 26.5056 56.4395C26.5056 56.4748 26.4916 56.5086 26.4666 56.5335C26.4417 56.5585 26.4079 56.5725 26.3726 56.5725Z" fill="#F2F2F2"/>
<path d="M26.3726 58.0095H23.234C23.1988 58.0095 23.1649 57.9955 23.14 57.9706C23.1151 57.9456 23.1011 57.9118 23.1011 57.8765C23.1011 57.8412 23.1151 57.8073 23.14 57.7824C23.1649 57.7574 23.1988 57.7434 23.234 57.7434H26.3726C26.4079 57.7434 26.4417 57.7574 26.4666 57.7824C26.4916 57.8073 26.5056 57.8412 26.5056 57.8765C26.5056 57.9118 26.4916 57.9456 26.4666 57.9706C26.4417 57.9955 26.4079 58.0095 26.3726 58.0095Z" fill="#F2F2F2"/>
<path d="M31.639 56.5725H28.5005C28.4652 56.5725 28.4314 56.5585 28.4064 56.5335C28.3815 56.5086 28.3675 56.4748 28.3675 56.4395C28.3675 56.4042 28.3815 56.3703 28.4064 56.3454C28.4314 56.3204 28.4652 56.3064 28.5005 56.3064H31.639C31.6743 56.3064 31.7081 56.3204 31.733 56.3454C31.758 56.3703 31.772 56.4042 31.772 56.4395C31.772 56.4748 31.758 56.5086 31.733 56.5335C31.7081 56.5585 31.6743 56.5725 31.639 56.5725Z" fill="#F2F2F2"/>
<path d="M33.7137 55.0823H16.4782C16.4429 55.0823 16.4091 55.0683 16.3842 55.0433C16.3592 55.0184 16.3452 54.9845 16.3452 54.9492C16.3452 54.9139 16.3592 54.8801 16.3842 54.8551C16.4091 54.8302 16.4429 54.8162 16.4782 54.8162H33.7137C33.7489 54.8162 33.7828 54.8302 33.8077 54.8551C33.8326 54.8801 33.8467 54.9139 33.8467 54.9492C33.8467 54.9845 33.8326 55.0184 33.8077 55.0433C33.7828 55.0683 33.7489 55.0823 33.7137 55.0823Z" fill="#F2F2F2"/>
<path d="M13.8715 55.0823H10.733C10.6977 55.0823 10.6639 55.0683 10.6389 55.0433C10.614 55.0184 10.6 54.9845 10.6 54.9492C10.6 54.9139 10.614 54.8801 10.6389 54.8551C10.6639 54.8302 10.6977 54.8162 10.733 54.8162H13.8715C13.9068 54.8162 13.9406 54.8302 13.9656 54.8551C13.9905 54.8801 14.0045 54.9139 14.0045 54.9492C14.0045 54.9845 13.9905 55.0184 13.9656 55.0433C13.9406 55.0683 13.9068 55.0823 13.8715 55.0823Z" fill="#F2F2F2"/>
<path d="M33.7136 59.4998H16.4781C16.4606 59.4998 16.4433 59.4964 16.4271 59.4897C16.411 59.4831 16.3963 59.4733 16.3839 59.4609C16.3715 59.4485 16.3617 59.4339 16.355 59.4177C16.3483 59.4015 16.3449 59.3842 16.3449 59.3667C16.3449 59.3492 16.3483 59.3319 16.355 59.3157C16.3617 59.2996 16.3715 59.2849 16.3839 59.2725C16.3963 59.2602 16.411 59.2504 16.4271 59.2437C16.4433 59.237 16.4606 59.2336 16.4781 59.2336H33.7136C33.7489 59.2336 33.7827 59.2477 33.8076 59.2726C33.8326 59.2976 33.8466 59.3314 33.8466 59.3667C33.8466 59.402 33.8326 59.4358 33.8076 59.4608C33.7827 59.4858 33.7489 59.4998 33.7136 59.4998Z" fill="#F2F2F2"/>
<path d="M13.8714 59.4998H10.7329C10.7154 59.4998 10.6981 59.4964 10.6819 59.4897C10.6657 59.4831 10.651 59.4733 10.6387 59.4609C10.6263 59.4485 10.6165 59.4339 10.6098 59.4177C10.6031 59.4015 10.5996 59.3842 10.5996 59.3667C10.5996 59.3492 10.6031 59.3319 10.6098 59.3157C10.6165 59.2996 10.6263 59.2849 10.6387 59.2725C10.651 59.2602 10.6657 59.2504 10.6819 59.2437C10.6981 59.237 10.7154 59.2336 10.7329 59.2336H13.8714C13.8889 59.2336 13.9062 59.237 13.9224 59.2437C13.9386 59.2504 13.9533 59.2602 13.9657 59.2725C13.978 59.2849 13.9879 59.2996 13.9946 59.3157C14.0013 59.3319 14.0047 59.3492 14.0047 59.3667C14.0047 59.3842 14.0013 59.4015 13.9946 59.4177C13.9879 59.4339 13.978 59.4485 13.9657 59.4609C13.9533 59.4733 13.9386 59.4831 13.9224 59.4897C13.9062 59.4964 13.8889 59.4998 13.8714 59.4998Z" fill="#F2F2F2"/>
<path d="M19.0714 41.4299L14.8157 45.6347L19.0714 49.8395L20.0289 48.8815L16.8106 45.6613L20.0554 42.4146L19.0714 41.4299Z" fill="black"/>
<path d="M25.3486 41.4299L29.6043 45.6347L25.3486 49.8395L24.3911 48.8815L27.6094 45.6613L24.3645 42.4146L25.3486 41.4299Z" fill="black"/>
<path d="M1.18142 28.7152C1.47502 28.7152 1.71304 28.4771 1.71304 28.1833C1.71304 27.8895 1.47502 27.6514 1.18142 27.6514C0.887816 27.6514 0.649803 27.8895 0.649803 28.1833C0.649803 28.4771 0.887816 28.7152 1.18142 28.7152Z" fill="black"/>
<path d="M2.59908 28.7152C2.89269 28.7152 3.1307 28.4771 3.1307 28.1833C3.1307 27.8895 2.89269 27.6514 2.59908 27.6514C2.30547 27.6514 2.06746 27.8895 2.06746 28.1833C2.06746 28.4771 2.30547 28.7152 2.59908 28.7152Z" fill="black"/>
<path d="M4.01674 28.7152C4.31034 28.7152 4.54836 28.4771 4.54836 28.1833C4.54836 27.8895 4.31034 27.6514 4.01674 27.6514C3.72313 27.6514 3.48512 27.8895 3.48512 28.1833C3.48512 28.4771 3.72313 28.7152 4.01674 28.7152Z" fill="black"/>
<path d="M36.7061 62.4046C36.8239 62.6432 36.8821 62.9068 36.8758 63.1728C36.8521 63.4428 36.9316 63.7117 37.0982 63.9255C37.2648 64.1393 37.5062 64.2821 37.7738 64.3252C37.9193 64.3558 38.0626 64.3958 38.2029 64.4449C38.5247 64.5645 38.8789 64.5645 39.2007 64.4449C39.2835 64.4292 39.3575 64.3831 39.4082 64.3158C39.459 64.2485 39.4828 64.1647 39.4751 64.0808C39.4751 63.7615 39.4751 63.4472 39.4751 63.1279C39.4845 63.0366 39.4644 62.9447 39.4177 62.8657C39.371 62.7867 39.3002 62.7247 39.2157 62.6889C38.997 62.57 38.7854 62.4384 38.5821 62.2948C38.3526 62.1452 38.3675 61.9107 38.3526 61.6713C38.3376 61.4318 38.5821 61.4617 38.6569 61.327C38.8545 61.3155 39.0528 61.3323 39.2456 61.3769C39.628 61.4951 40.0287 61.5424 40.4281 61.5166C40.522 61.525 40.6166 61.5103 40.7035 61.4737C40.7905 61.4372 40.8672 61.38 40.927 61.3071C40.9869 61.2263 41.0593 61.1556 41.1415 61.0976C41.2619 61.0214 41.3579 60.9123 41.418 60.7832C41.4782 60.6541 41.5 60.5104 41.4808 60.3692C41.472 60.1212 41.504 59.8735 41.5756 59.6359C41.5958 59.5423 41.6356 59.4539 41.6924 59.3768C41.7492 59.2996 41.8217 59.2353 41.9051 59.1882C41.9885 59.1411 42.081 59.1122 42.1764 59.1033C42.2718 59.0945 42.368 59.106 42.4586 59.137C42.6328 59.1988 42.823 59.1983 42.9967 59.1355C43.1705 59.0727 43.3171 58.9516 43.4116 58.7928C43.4665 58.713 43.5513 58.6482 43.6062 58.5634C43.8986 58.0986 44.3401 57.7468 44.8584 57.5656C45.078 57.5257 45.3025 57.5058 45.517 57.4509C45.7315 57.396 45.9461 57.3212 46.1606 57.2513C46.4824 57.4133 46.7599 57.6514 46.9689 57.9448C46.9673 58.03 46.9945 58.1133 47.0461 58.1812C47.0977 58.2491 47.1707 58.2976 47.2532 58.3189C47.7256 58.518 48.2462 58.5735 48.75 58.4785C48.8951 58.4178 49.0567 58.4089 49.2076 58.4534C49.3585 58.498 49.4894 58.5932 49.5782 58.723C49.6481 58.7878 49.7129 58.8577 49.7778 58.9225C49.7778 59.0822 49.7428 59.2418 49.7329 59.4214C49.7229 59.601 49.6081 59.611 49.4934 59.586C49.354 59.551 49.2172 59.506 49.0843 59.4513C48.7713 59.3831 48.4471 59.3849 48.1349 59.4565C47.8227 59.528 47.5302 59.6677 47.2782 59.8654L46.9788 60.0749C46.8521 60.1379 46.7318 60.2131 46.6196 60.2994C46.5831 60.3386 46.5554 60.3851 46.5382 60.4359C46.521 60.4866 46.5147 60.5404 46.5198 60.5937C46.5457 60.6406 46.5822 60.6808 46.6264 60.7111C46.6706 60.7414 46.7212 60.761 46.7743 60.7683C47.2732 60.8132 47.7222 60.8332 48.1912 60.8631C48.3559 61.0776 48.4955 61.3171 48.7999 61.362C49.058 61.6518 49.2307 62.0076 49.2988 62.3896C49.319 62.5117 49.3787 62.6237 49.4689 62.7085C49.5591 62.7932 49.6746 62.846 49.7977 62.8585L49.8975 62.9583L50.0023 63.0581C50.0276 63.1458 50.0645 63.2296 50.112 63.3075C50.2966 63.5669 50.3016 63.5619 50.112 63.8563C49.8776 64.0608 49.8776 64.0608 50.112 64.3551L50.2168 64.6544C50.0372 65.2082 49.8626 65.7619 49.673 66.3556C49.8676 66.2095 50.0542 66.053 50.2318 65.8866C50.31 65.7854 50.3754 65.6748 50.4264 65.5574C50.596 65.4177 50.4962 65.2231 50.5212 65.0585C50.5461 64.8939 50.5212 64.859 50.5212 64.7592C50.5212 64.6594 50.5212 64.6295 50.5611 64.6245C50.6227 64.6014 50.6895 64.5962 50.754 64.6094C50.8184 64.6227 50.8778 64.6538 50.9253 64.6993C51.1348 64.9288 51.3693 65.1483 51.6038 65.3878C51.9331 65.4227 51.8433 65.0585 51.993 64.9488C51.9295 64.7768 51.8528 64.61 51.7635 64.4499C51.6537 64.2753 51.529 64.0359 51.3643 63.991C51.1997 63.9461 51.0849 63.7116 50.8953 63.6418C50.8953 63.6418 50.8953 63.527 50.8953 63.4622C50.8953 63.3973 51.075 63.2926 51.0799 63.1978C51.1008 63.0951 51.1426 62.9978 51.2027 62.912C51.2627 62.8262 51.3398 62.7536 51.4292 62.6989L51.6537 62.5343C51.6185 62.4125 51.5588 62.2992 51.4781 62.2014C51.3974 62.1036 51.2976 62.0233 51.1847 61.9656L50.7756 61.367C50.7569 61.2859 50.7336 61.2059 50.7058 61.1275C50.5801 60.9133 50.5098 60.6711 50.501 60.4229C50.4923 60.1747 50.5455 59.9283 50.6559 59.7057C50.6559 59.7057 50.6559 59.6359 50.6559 59.606C50.7009 59.162 50.7692 58.7208 50.8604 58.284C50.9409 58.0137 50.9304 57.7246 50.8305 57.4609C50.6582 57.0636 50.5846 56.6306 50.6159 56.1988C50.6235 56.1492 50.6235 56.0987 50.6159 56.0491C50.6112 55.9984 50.5954 55.9494 50.5697 55.9055C50.544 55.8616 50.509 55.8238 50.4672 55.7948C50.4254 55.7659 50.3777 55.7464 50.3276 55.7377C50.2774 55.7291 50.226 55.7315 50.1769 55.7448C49.9035 55.8192 49.6136 55.8053 49.3487 55.7049C49.2097 55.4494 48.9978 55.241 48.74 55.1063C48.534 54.9229 48.3138 54.7561 48.0814 54.6074C47.9828 54.5298 47.8675 54.4759 47.7447 54.4499C47.6218 54.424 47.4946 54.4266 47.373 54.4577C47.1485 54.5525 46.9689 54.7221 46.6845 54.6722C46.5647 54.6722 46.4201 54.787 46.2853 54.8568L46.0159 55.0165L45.5719 54.4378C45.4688 54.3305 45.3982 54.1964 45.3682 54.0507C45.3382 53.9051 45.35 53.7539 45.4023 53.6147C45.5921 53.1887 45.6082 52.7054 45.4472 52.2677C45.3773 52.0897 45.3633 51.8946 45.407 51.7084C45.4507 51.5221 45.5499 51.3536 45.6916 51.2251C45.7266 51.1603 45.7565 51.0904 45.7914 51.0256C45.9227 50.963 46.0494 50.8914 46.1706 50.8111C46.3064 50.7223 46.429 50.6148 46.5348 50.4918C46.6496 50.3471 46.5847 50.2024 46.4051 50.1077L46.0858 49.943C46.1906 49.7186 46.2804 49.514 46.3751 49.3145L46.4749 49.2097V49.1099C46.5099 49.0451 46.5398 48.9802 46.5747 48.9104C46.6096 48.8406 46.6396 48.8406 46.6745 48.8106L46.7743 48.7059L46.8741 48.6061L46.9739 48.5063C47.0038 48.4365 47.0387 48.3716 47.0686 48.3018C47.1572 48.2518 47.2311 48.1794 47.2827 48.0918C47.3344 48.0043 47.3621 47.9046 47.363 47.8029C47.363 47.6433 47.363 47.4787 47.363 47.3041C47.4342 47.2886 47.5014 47.2585 47.5605 47.2158C47.6195 47.1731 47.6691 47.1187 47.7061 47.0559C47.7431 46.9932 47.7668 46.9234 47.7755 46.8511C47.7843 46.7788 47.7781 46.7054 47.7572 46.6356C47.7547 46.5891 47.7547 46.5424 47.7572 46.4959L48.0515 46.2864C48.1975 46.3014 48.3446 46.3014 48.4906 46.2864C48.7191 46.2277 48.9594 46.2335 49.1849 46.303C49.4103 46.3726 49.6121 46.5033 49.7678 46.6805C49.8081 46.8391 49.8885 46.9848 50.0012 47.1036C50.1138 47.2224 50.2551 47.3103 50.4114 47.3589C50.7298 47.4261 51.0539 47.4629 51.3793 47.4687L51.5439 47.6034C51.5439 47.5585 51.5439 47.5136 51.5789 47.4687H51.8782C51.9131 47.8528 52.1626 47.4687 52.2624 47.5635C52.2669 47.5983 52.2669 47.6335 52.2624 47.6682C52.1967 47.9477 52.1665 48.2343 52.1726 48.5213C52.1721 48.6728 52.2081 48.8221 52.2776 48.9567C52.3471 49.0913 52.448 49.2072 52.5717 49.2945C52.7264 49.3893 52.8611 49.514 53.0058 49.6238L53.1904 49.4392H53.2353C53.2433 49.4166 53.2433 49.3919 53.2353 49.3694C53.0058 49.3694 53.1854 49.105 53.0207 49.0451C52.9459 49.0152 52.906 48.9104 52.8461 48.8356L53.5845 48.2619L53.0856 47.2991C52.9197 47.3147 52.7526 47.3147 52.5867 47.2991C52.5368 47.2991 52.5019 47.1843 52.457 47.1245H52.5567L52.9559 47.0247L53.2602 47.1195H53.36C53.4308 47.184 53.5147 47.2325 53.606 47.2618C53.6972 47.2911 53.7937 47.3004 53.8888 47.2891C54.288 47.1345 54.6771 46.9599 55.1012 46.7902L55.5053 47.0197C55.6001 46.7154 55.68 46.451 55.7648 46.1866C55.7648 46.1567 55.8047 46.1218 55.7997 46.0918C55.7855 45.9778 55.7588 45.8657 55.7199 45.7576C55.67 45.6329 55.5702 45.603 55.4355 45.6628C55.2875 45.7386 55.1671 45.8591 55.0912 46.007C54.9416 46.2166 54.8019 46.2215 54.5923 46.0519C54.5075 45.9771 54.4227 45.8923 54.3429 45.8125C54.2364 45.5869 54.0769 45.3906 53.8779 45.2403C53.6789 45.09 53.4464 44.9902 53.2003 44.9494C53.0853 45.0151 52.9737 45.0867 52.8661 45.164C52.3671 45.5281 52.3672 45.5281 51.9281 45.134C51.8732 44.8347 51.6337 44.695 51.4292 44.5354C51.359 44.4408 51.3109 44.3316 51.2884 44.2159C51.266 44.1002 51.2697 43.981 51.2995 43.8669C51.0645 43.726 50.8212 43.5994 50.571 43.4878C50.3166 43.388 50.0721 43.6374 49.7927 43.5327C49.7927 43.5327 49.678 43.6175 49.663 43.6724C49.6081 43.8719 49.5782 44.0764 49.5183 44.3608L48.7799 44.8247C48.6502 44.7499 48.5454 44.695 48.4506 44.6352C48.3499 44.5604 48.2305 44.5148 48.1055 44.5033C47.9806 44.4919 47.8549 44.5151 47.7422 44.5703C47.5702 44.6242 47.3929 44.6594 47.2133 44.6751C46.8541 44.3358 46.7843 43.8071 46.4101 43.4928L46.6945 43.1785C47.0587 43.0937 47.1235 42.7944 47.1934 42.515C47.3585 42.5439 47.528 42.5375 47.6905 42.4963C47.853 42.455 48.005 42.3798 48.1363 42.2756C48.5804 42.1309 48.6352 41.7268 48.6652 41.3626C48.6951 40.9985 48.4057 40.8638 48.1663 40.6892C47.7738 40.974 47.4358 41.3272 47.1684 41.7318C47.1684 41.7318 47.1684 41.7667 47.1684 41.7817L46.9689 41.9862C46.7789 42.091 46.5584 42.1262 46.3452 42.086C46.1307 42.086 45.9261 42.3005 45.7066 42.1309L45.8613 41.3926V41.2778L46.1007 40.8638C46.12 40.837 46.1335 40.8065 46.1404 40.7743C46.1473 40.7421 46.1475 40.7087 46.141 40.6764C46.1344 40.6441 46.1213 40.6135 46.1023 40.5865C46.0834 40.5595 46.0591 40.5367 46.0309 40.5196L45.8064 40.3699C45.8563 40.0456 45.9012 39.7563 45.9411 39.472C46.1147 38.9727 46.1252 38.4311 45.971 37.9255C45.9386 37.7306 45.9386 37.5317 45.971 37.3368C46.0514 37.0058 46.0306 36.6582 45.9112 36.3391C45.8382 36.2177 45.8048 36.0767 45.8156 35.9355C45.8263 35.7943 45.8806 35.6599 45.971 35.5509C46.0259 35.4711 46.0509 35.3713 46.1007 35.2865C46.2039 35.0365 46.3772 34.8217 46.5997 34.6679C46.6613 34.6471 46.7144 34.6065 46.7505 34.5523C46.7866 34.4981 46.8038 34.4335 46.7992 34.3686L46.894 34.2639C46.9475 34.2241 46.9925 34.1741 47.0263 34.1167C47.0601 34.0593 47.082 33.9957 47.0909 33.9297C47.0997 33.8636 47.0952 33.7965 47.0777 33.7322C47.0602 33.668 47.03 33.6079 46.9888 33.5555C46.894 33.4058 46.6945 33.2312 46.7194 33.1165C46.7443 33.0017 46.9788 32.8571 47.1235 32.7323C47.1235 32.5029 46.9539 32.438 46.7793 32.3732C46.5049 32.2634 46.2305 32.1537 45.9511 32.0589C45.7869 32.018 45.6202 31.988 45.4522 31.9691C45.2571 31.8939 45.0484 31.8603 44.8396 31.8706C44.6308 31.8809 44.4265 31.9349 44.2398 32.029C44.1681 32.0726 44.0829 32.0886 44.0003 32.0739C43.9089 32.0462 43.8297 31.9881 43.7758 31.9092C43.7159 31.8144 43.7758 31.7197 43.8806 31.6698C43.9847 31.6368 44.0788 31.5778 44.1539 31.4983C44.2289 31.4189 44.2825 31.3217 44.3096 31.2158C44.3879 30.9455 44.4183 30.6635 44.3994 30.3827C44.3789 30.2916 44.3844 30.1965 44.4152 30.1083C44.4461 30.0201 44.5011 29.9423 44.5741 29.8839C44.6309 29.8234 44.6827 29.7583 44.7287 29.6893C44.9058 29.5685 45.0889 29.4569 45.2775 29.3551C45.6855 29.1646 46.0376 28.8726 46.3003 28.507C46.2155 28.3174 46.1157 28.1129 46.0359 27.9034C45.959 27.7589 45.918 27.5981 45.9161 27.4344C45.9408 27.2853 45.9117 27.1322 45.834 27.0025C45.7563 26.8728 45.6352 26.7748 45.4921 26.7261C45.3673 26.6454 45.2333 26.5801 45.0929 26.5315C44.8684 26.4866 44.7636 26.317 44.6389 26.1723C44.4443 25.9429 44.4443 25.898 44.6389 25.6735C44.8125 25.5176 44.93 25.309 44.9732 25.0798C45.0056 25.0597 45.0327 25.0321 45.0523 24.9994C45.072 24.9667 45.0835 24.9298 45.0859 24.8917C45.0883 24.8536 45.0816 24.8155 45.0664 24.7806C45.0511 24.7456 45.0277 24.7148 44.9981 24.6907C44.8767 24.5829 44.7214 24.5211 44.5591 24.5161C44.3951 24.5282 44.2393 24.5929 44.1151 24.7007C43.8584 24.911 43.5559 25.0579 43.232 25.1297C43.0374 25.1796 42.758 25.1846 42.6882 25.424C42.568 25.7103 42.3992 25.9736 42.1892 26.2023C42.1042 26.2786 42.0049 26.3374 41.8969 26.3751C41.789 26.4127 41.6747 26.4286 41.5606 26.4218C41.1325 26.4434 40.712 26.3027 40.3832 26.0277C40.2184 25.9705 40.0635 25.888 39.9241 25.7832C39.7894 25.6435 39.7046 25.454 39.52 25.3791C39.3304 25.4839 39.4402 25.6086 39.4602 25.7333C39.4726 25.8661 39.4726 25.9997 39.4602 26.1324C39.4602 26.2671 39.4602 26.4018 39.4602 26.5365V26.6363L39.3654 26.741C39.2307 26.8408 39.0959 26.9406 38.9662 27.0453H38.7018C38.0233 26.9855 37.7938 27.4344 37.6641 27.9134C37.5742 28.2675 37.5044 28.6267 37.4495 28.9859C37.4046 29.2503 37.3946 29.5147 37.3697 29.7791C37.3618 29.8541 37.3728 29.9298 37.4015 29.9995C37.4303 30.0691 37.4759 30.1306 37.5343 30.1782C37.7239 30.3428 37.9035 30.5174 38.1031 30.677C38.4723 30.9564 38.4972 31.1759 38.1729 31.5401C38.0968 31.607 38.0267 31.6804 37.9634 31.7596C37.8985 31.8643 37.7988 31.994 37.8087 32.1038C37.817 32.1705 37.8118 32.2382 37.7932 32.3029C37.7747 32.3675 37.7433 32.4277 37.7009 32.4799C37.6584 32.5321 37.6059 32.5752 37.5464 32.6066C37.487 32.6379 37.4217 32.657 37.3547 32.6625C37.2682 32.6867 37.188 32.7297 37.1199 32.7883C37.0518 32.8469 36.9974 32.9198 36.9606 33.0017C36.8508 33.1664 36.786 33.3559 36.6862 33.5305C36.5616 33.749 36.4995 33.9975 36.5066 34.2489C36.5063 34.5636 36.4762 34.8777 36.4168 35.1867C36.2946 35.7236 36.2946 36.2811 36.4168 36.818C36.4665 37.0296 36.4665 37.2499 36.4168 37.4615C36.3617 37.6352 36.3617 37.8217 36.4168 37.9953C36.5215 38.2547 36.6063 38.5241 36.6912 38.7935C36.7561 39.0845 36.8394 39.3711 36.9406 39.6515C37.1601 40.1504 37.4395 40.6493 37.674 41.1132C37.6341 41.5372 37.5942 41.9613 37.5443 42.4302C37.4216 42.3859 37.3031 42.3308 37.1901 42.2656C36.8957 42.0261 36.5964 41.7667 36.322 41.5273C36.2726 41.4626 36.2026 41.417 36.1235 41.3979C36.0445 41.3788 35.9613 41.3875 35.8879 41.4225C35.8242 41.8906 35.9191 42.3665 36.1573 42.7744C36.4118 43.2334 36.9406 43.2733 37.3398 43.4329L37.5593 44.7299L38.9463 45.8655C38.8158 46.0374 38.7473 46.2484 38.7517 46.4641C38.7767 46.7279 38.7767 46.9935 38.7517 47.2573C38.6943 47.5505 38.6943 47.8521 38.7517 48.1453C38.8832 48.49 38.9244 48.8627 38.8714 49.2278C38.7701 49.5527 38.7701 49.9007 38.8714 50.2255C39.0251 50.6704 39.0476 51.1501 38.9363 51.6074C38.9103 51.7861 38.9239 51.9683 38.9762 52.1412C39.0121 52.3103 39.0587 52.4769 39.1159 52.64C39.1714 52.9553 37.0694 53.0823 36.9107 53.3602C36.6681 53.6838 36.5511 54.0844 36.5814 54.4877C36.6071 54.7188 36.5868 54.9528 36.5215 55.1761C36.3944 55.5206 36.3944 55.8992 36.5215 56.2437C36.5755 56.407 36.6188 56.5736 36.6513 56.7425C36.6736 56.8528 36.6736 56.9665 36.6513 57.0767C36.5621 57.4702 36.6169 57.8826 36.8059 58.2391C36.8671 58.3471 36.8993 58.4691 36.8993 58.5933C36.8993 58.7174 36.8671 58.8395 36.8059 58.9475C36.6023 59.419 36.5534 59.943 36.6662 60.4441C36.7415 60.7746 36.7259 61.1193 36.6213 61.4418C36.5695 61.5996 36.5504 61.7664 36.5649 61.9319C36.5795 62.0974 36.6276 62.2582 36.7061 62.4046ZM41.4159 41.7767C41.4159 41.7168 41.4957 41.662 41.5307 41.622C41.7203 41.622 41.8949 41.8116 41.8849 41.9563C41.8738 41.9917 41.8538 42.0237 41.8267 42.049C41.7996 42.0744 41.7663 42.0923 41.7302 42.101C41.6858 42.1125 41.6391 42.1121 41.5948 42.0997C41.5506 42.0873 41.5105 42.0634 41.4785 42.0305C41.4465 41.9975 41.4239 41.9566 41.4129 41.912C41.4019 41.8675 41.4029 41.8207 41.4159 41.7767ZM39.3205 51.0954C39.1194 51.1108 38.9191 51.0581 38.7517 50.9458C38.9216 51.0511 39.1217 51.0967 39.3205 51.0755V51.0954ZM45.0081 42.4053C45.0081 42.2356 44.9283 42.1159 44.7487 42.1209C44.9283 42.1209 45.0131 42.2356 45.0231 42.4102C45.2303 42.6492 45.3406 42.9571 45.3324 43.2733C45.3395 43.1112 45.3145 42.9493 45.2588 42.797C45.2032 42.6446 45.118 42.5047 45.0081 42.3853V42.4053ZM41.0417 57.5507C41.0417 57.4908 40.9769 57.4409 40.9469 57.386C40.9563 57.2925 40.9426 57.1981 40.9069 57.1111C40.8712 57.0241 40.8147 56.9472 40.7424 56.8872C40.7424 56.6976 40.8172 56.5729 41.0567 56.6427C41.7502 56.8423 41.9847 56.9121 41.9547 57.8151C41.9547 57.8799 41.9547 57.9448 41.9248 58.0346C41.825 58.0346 41.7302 58.0795 41.6404 58.0844C41.1166 58.0994 41.1216 58.0944 41.0417 57.5507Z" fill="#D25046"/>
<path d="M42.6182 70.5608C42.8855 70.2531 43.0357 69.8609 43.0423 69.4533C43.0159 69.2922 42.9283 69.1474 42.7978 69.0493C42.6731 68.9495 42.5583 69.0892 42.4535 69.169C42.3179 69.2931 42.1583 69.3882 41.9846 69.4484C41.5726 69.579 41.1944 69.7987 40.877 70.0919C40.5926 70.2864 40.5726 70.4211 40.6674 70.7753C40.6862 70.8911 40.7412 70.9979 40.8246 71.0804C40.908 71.1629 41.0154 71.2168 41.1314 71.2343C41.2261 71.2573 41.3194 71.2856 41.4108 71.3191L42.4086 71.6932C42.4452 71.6715 42.476 71.6414 42.4987 71.6055C42.5214 71.5695 42.5353 71.5287 42.5392 71.4864C42.5431 71.4441 42.5369 71.4014 42.5211 71.3619C42.5054 71.3225 42.4805 71.2873 42.4486 71.2592C42.3691 71.1646 42.3157 71.0508 42.2939 70.9291C42.272 70.8075 42.2823 70.6822 42.3238 70.5658C42.4336 70.5658 42.5783 70.6057 42.6182 70.5608Z" fill="#D25046"/>
<path d="M38.3275 68.7749C38.3964 68.9047 38.4857 69.0226 38.5919 69.1241C38.6742 69.2172 38.7294 69.3311 38.7514 69.4534C38.7734 69.5757 38.7614 69.7016 38.7167 69.8175L38.6568 70.052C38.6063 70.1702 38.5647 70.2919 38.5321 70.4162C38.5152 70.462 38.5088 70.5111 38.5136 70.5598C38.5183 70.6084 38.534 70.6553 38.5594 70.6971C38.5848 70.7388 38.6193 70.7743 38.6604 70.8008C38.7015 70.8273 38.748 70.8442 38.7965 70.8502C38.9042 70.871 39.0156 70.8588 39.1162 70.8152C39.2168 70.7716 39.3019 70.6986 39.3603 70.6057C39.4396 70.4976 39.5494 70.4157 39.6756 70.3703C39.8019 70.325 39.9387 70.3184 40.0687 70.3513C40.1615 70.3629 40.2554 70.3629 40.3481 70.3513L39.7295 69.5382C39.8753 69.3331 40.0426 69.1441 40.2284 68.9745C40.5178 68.76 40.857 68.6153 41.1664 68.4207C41.2435 68.3802 41.3103 68.3226 41.3616 68.2522C41.4129 68.1818 41.4473 68.1006 41.4623 68.0148C41.4772 67.929 41.4722 67.8409 41.4478 67.7573C41.4233 67.6738 41.3799 67.5969 41.321 67.5328C41.1797 67.3477 40.9893 67.2061 40.7714 67.1241C40.5535 67.0421 40.3169 67.0229 40.0887 67.0688C39.9533 67.1026 39.8227 67.1529 39.6995 67.2185C39.381 67.4024 39.013 67.4826 38.6468 67.448C38.4772 67.448 38.3125 67.448 38.1479 67.448L37.8236 67.3332C37.2548 67.1586 36.9904 67.2634 36.6512 67.8321L37.0503 68.1763C37.2525 68.3727 37.5218 68.485 37.8037 68.4906C38.0282 68.4856 38.2028 68.5255 38.3275 68.7749Z" fill="#D25046"/>
<path d="M31.2877 44.0015C31.2966 44.1504 31.2848 44.2998 31.2528 44.4455C31.2049 44.6083 31.2049 44.7815 31.2528 44.9443C31.2576 45.0033 31.2785 45.0599 31.3131 45.1079C31.3477 45.1558 31.3948 45.1934 31.4493 45.2166C31.5038 45.2397 31.5636 45.2475 31.6222 45.239C31.6807 45.2306 31.7359 45.2063 31.7817 45.1688C31.8716 45.0954 31.9448 45.0035 31.9962 44.8994C32.0967 44.6558 32.2712 44.4499 32.4951 44.3108C32.5524 44.2826 32.6017 44.2404 32.6383 44.188C32.675 44.1357 32.6978 44.075 32.7047 44.0115C32.5598 43.7891 32.4266 43.5593 32.3055 43.323C32.2236 43.1241 32.0857 42.9532 31.9086 42.831C31.7315 42.7088 31.5228 42.6406 31.3077 42.6346C31.158 42.6346 31.0084 42.6346 30.8587 42.6346C30.7988 42.6047 30.7439 42.5498 30.6841 42.5498C30.3198 42.5498 29.9506 42.5498 29.5814 42.5498C29.2122 42.5498 29.0376 42.7444 29.0825 42.919C29.1274 43.0936 29.4717 43.2033 29.6912 43.1135C29.9783 43.0212 30.2872 43.0212 30.5743 43.1135C30.6402 43.1585 30.7104 43.1969 30.7838 43.2283C30.9487 43.2719 31.0915 43.3751 31.1846 43.5179C31.2777 43.6608 31.3144 43.8331 31.2877 44.0015Z" fill="#D25046"/>
<path d="M33.2135 67.6675C33.0815 67.5056 32.9159 67.3744 32.728 67.2831C32.5402 67.1918 32.3347 67.1425 32.1259 67.1387C31.6728 67.1475 31.2356 67.3073 30.8836 67.5926C30.7556 67.6877 30.6637 67.8233 30.6229 67.9774C30.5821 68.1315 30.5948 68.2948 30.659 68.4407C30.7713 68.7254 30.9659 68.9703 31.2178 69.1441C31.3669 69.2319 31.5239 69.3054 31.6868 69.3636C31.9163 69.2538 32.1408 69.1441 32.3653 69.0443C32.7189 68.8339 33.0113 68.5346 33.2135 68.1763C33.2766 68.1066 33.3116 68.0159 33.3116 67.9219C33.3116 67.8279 33.2766 67.7372 33.2135 67.6675Z" fill="#D25046"/>
<path d="M44.8384 68.1363C45.0565 68.2263 45.2962 68.2502 45.5278 68.2049C45.7593 68.1597 45.9724 68.0474 46.1406 67.8819C46.2952 67.7322 46.3102 67.5477 46.1406 67.4279C45.9815 67.3311 45.8146 67.2476 45.6417 67.1785C45.5504 67.074 45.4375 66.9905 45.311 66.9337C45.1844 66.8769 45.047 66.848 44.9082 66.8492C44.6738 66.8143 44.4093 66.8493 44.3345 66.51C44.2896 66.3554 44.095 66.2456 43.9803 66.1109C43.9391 66.0564 43.881 66.0171 43.8152 65.999C43.7493 65.981 43.6793 65.9852 43.6161 66.0112C43.4812 66.0729 43.3511 66.1446 43.2269 66.2257C43.3915 66.6946 43.3067 67.2234 43.7258 67.5427C43.6061 67.6923 43.3915 67.7721 43.4564 68.0016C43.9189 67.8869 44.4068 67.9345 44.8384 68.1363Z" fill="#D25046"/>
<path d="M59.5612 27.6839C59.6762 27.9295 59.8061 28.1678 59.9504 28.3973C60.0951 28.6268 60.1699 28.6318 60.3944 28.5071C60.6189 28.3824 60.9931 28.1678 61.3224 28.0082C61.2225 27.8162 61.1021 27.6355 60.9632 27.4694C60.8576 27.3424 60.7258 27.2396 60.5769 27.1681C60.4279 27.0967 60.2653 27.0582 60.1001 27.0554C60.0188 27.0459 59.9365 27.0565 59.8603 27.0863C59.7842 27.1161 59.7165 27.1641 59.6633 27.2262C59.61 27.2883 59.5729 27.3625 59.5551 27.4423C59.5373 27.5222 59.5394 27.6051 59.5612 27.6839Z" fill="#D25046"/>
<path d="M51.8581 33.0914C52.0671 33.0904 52.2727 33.0391 52.4577 32.9419C52.6427 32.8446 52.8015 32.7043 52.9208 32.5327C52.9638 32.4761 52.9908 32.4091 52.9992 32.3386C53.0076 32.268 52.997 32.1965 52.9686 32.1314C52.9401 32.0664 52.8947 32.0101 52.8372 31.9684C52.7797 31.9266 52.7121 31.901 52.6414 31.8942C52.5277 31.8719 52.4108 31.8719 52.2971 31.8942C51.9329 31.989 51.5637 32.0937 51.2045 32.2085C51.0548 32.2534 50.9301 32.3382 50.9151 32.4828C51.0665 32.5883 51.2069 32.7086 51.3342 32.842C51.3962 32.9214 51.4758 32.9853 51.5667 33.0286C51.6576 33.0719 51.7574 33.0934 51.8581 33.0914Z" fill="#D25046"/>
<path d="M52.7513 50.6015C52.6546 50.503 52.5513 50.4114 52.442 50.3271C52.3427 50.4448 52.274 50.5851 52.2418 50.7356C52.2096 50.8861 52.2149 51.0422 52.2574 51.1902C52.2574 51.3348 52.3222 51.4795 52.3322 51.6292C52.376 51.9303 52.5043 52.2129 52.702 52.4442C52.8998 52.6755 53.1591 52.8461 53.4498 52.9362C53.5285 52.9604 53.6125 52.9623 53.6922 52.9415C53.7719 52.9208 53.8443 52.8783 53.9013 52.8188C53.9583 52.7592 53.9975 52.685 54.0147 52.6044C54.0319 52.5239 54.0263 52.4401 53.9986 52.3625C53.9039 52.1185 53.7763 51.8885 53.6194 51.6791C53.345 51.3099 53.0456 50.9557 52.7513 50.6015Z" fill="#D25046"/>
<path d="M57.1615 52.3923C57.2073 52.4797 57.2825 52.5481 57.3737 52.5855C57.465 52.6229 57.5665 52.6269 57.6605 52.5969C57.758 52.5761 57.8465 52.5248 57.9129 52.4503C57.9792 52.3758 58.0202 52.2821 58.0297 52.1828C58.0613 52.0183 58.0796 51.8515 58.0845 51.684C58.0718 51.571 58.082 51.4567 58.1146 51.3478C58.1472 51.2389 58.2014 51.1378 58.2741 51.0504L58.4537 50.771C58.3839 50.6463 58.329 50.5466 58.2592 50.4119L58.0795 50.4717C57.8101 50.5765 57.6255 50.7262 57.7004 51.0654C57.7004 51.1402 57.6305 51.235 57.6255 51.3248C57.6006 51.7538 57.1615 51.9533 57.1615 52.3923Z" fill="#D25046"/>
<path d="M59.5715 52.6866C59.6594 52.7262 59.743 52.7746 59.821 52.8313C59.9536 52.8642 60.0935 52.8505 60.2171 52.7923C60.3407 52.7341 60.4404 52.6351 60.4995 52.512C60.5039 52.4667 60.4934 52.4211 60.4696 52.3823C60.4327 52.2919 60.3876 52.2051 60.3349 52.1229C60.248 51.9892 60.1337 51.8756 59.9995 51.7896C59.8653 51.7036 59.7143 51.6472 59.5566 51.624C59.4525 51.6304 59.3547 51.6763 59.2833 51.7523C59.2119 51.8283 59.1722 51.9288 59.1724 52.0331C59.1924 52.3025 59.2373 52.5818 59.5715 52.6866Z" fill="#D25046"/>
<path d="M58.2194 55.7448C58.3213 55.6364 58.4116 55.5177 58.4888 55.3906C58.6934 55.1162 58.6934 55.0713 58.4888 54.777C58.4339 54.6972 58.3691 54.6273 58.3092 54.5525C57.9793 54.64 57.6879 54.8348 57.481 55.1062C57.3114 55.3307 57.3762 55.5801 57.6107 55.8096C57.8452 56.0391 57.9949 55.9194 58.2194 55.7448Z" fill="#D25046"/>
<path d="M56.7625 42.0809C56.6703 41.9848 56.5488 41.9219 56.417 41.9021C56.2852 41.8822 56.1506 41.9065 56.0341 41.9712C55.8745 42.046 55.6799 42.041 55.5352 42.1009C55.1061 42.2555 54.8217 42.2954 55.0712 42.9489V42.9938C55.1909 43.1784 55.3157 43.363 55.5701 43.3879C55.8246 43.4129 55.9343 43.3879 56.1139 43.4278C56.2119 43.4601 56.3186 43.4532 56.4116 43.4086C56.5047 43.364 56.5768 43.285 56.6129 43.1884C56.6528 43.081 56.7205 42.9861 56.809 42.9134C56.8975 42.8407 57.0037 42.7927 57.1168 42.7743C57.3668 42.7816 57.6156 42.8117 57.8602 42.8641C57.9549 42.5249 58.4938 42.5548 58.5586 42.031L58.3641 41.8464C58.2693 41.9163 58.2094 41.9412 58.1944 41.9761C58.1265 42.1058 58.0212 42.2121 57.8923 42.2815C57.7634 42.3508 57.6166 42.38 57.471 42.3653C57.1617 42.4101 56.9821 42.2156 56.7625 42.0809ZM55.6649 43.1934L55.5053 43.1485L55.6899 43.1884C55.5252 43.0287 55.3656 42.894 55.1909 42.7244L55.7298 43.1784C55.8604 43.2396 56.0054 43.2637 56.1489 43.2482C55.9857 43.2785 55.8172 43.2594 55.6649 43.1934Z" fill="#D25046"/>
<path d="M49.9722 51.9833C49.8364 52.0771 49.7319 52.2095 49.6723 52.3634C49.6127 52.5173 49.6007 52.6856 49.6379 52.8464C49.6379 53.0609 49.6379 53.2055 49.6379 53.3452C49.6379 53.4849 49.6779 53.6196 49.8325 53.6545C49.9872 53.6894 50.1019 53.5647 50.1618 53.42C50.1937 53.3268 50.2203 53.2319 50.2416 53.1357C50.2601 52.9628 50.3073 52.7942 50.3813 52.6368C50.4244 52.5617 50.45 52.4778 50.456 52.3914C50.4621 52.305 50.4485 52.2184 50.4163 52.138C50.3664 51.8636 50.1768 51.8287 49.9722 51.9833Z" fill="#D25046"/>
<path d="M34.3462 42.1008C34.1417 41.9861 33.997 41.9761 33.8473 42.1008C33.6549 42.2878 33.5302 42.5335 33.4931 42.7992C33.482 42.8626 33.4889 42.9277 33.5129 42.9873C33.537 43.0469 33.5773 43.0986 33.6292 43.1365C33.6811 43.1744 33.7426 43.197 33.8067 43.2018C33.8709 43.2065 33.935 43.1932 33.992 43.1634C34.2614 43.0087 34.4909 42.8142 34.7404 42.6645C34.7324 42.5435 34.6915 42.427 34.622 42.3276C34.5526 42.2282 34.4572 42.1498 34.3462 42.1008Z" fill="#D25046"/>
<path d="M59.4865 21.4978C59.4865 21.7273 59.4865 21.872 59.6861 21.9169C59.7768 21.9469 59.8747 21.9469 59.9655 21.9169C60.0294 21.875 60.0743 21.8096 60.0902 21.7348C60.1061 21.66 60.0917 21.582 60.0503 21.5178C60.0006 21.421 59.9839 21.3105 60.0028 21.2034C60.0218 21.0962 60.0752 20.9981 60.155 20.9241C60.2711 20.7742 60.3605 20.6055 60.4195 20.4253C60.4518 20.335 60.4518 20.2362 60.4195 20.1459C60.4001 20.0533 60.3548 19.968 60.2888 19.9002C60.2229 19.8323 60.139 19.7846 60.0469 19.7626C59.9548 19.7407 59.8584 19.7454 59.7689 19.7761C59.6794 19.8069 59.6005 19.8625 59.5414 19.9364C59.3867 20.0661 59.237 20.2357 59.3318 20.4353C59.4389 20.5879 59.5087 20.7636 59.5356 20.9482C59.5624 21.1327 59.5456 21.321 59.4865 21.4978Z" fill="#D25046"/>
<path d="M54.0435 36.2243C54.2082 36.2243 54.298 36.1046 54.3279 35.935C54.3279 35.8951 54.3828 35.8552 54.4077 35.8153C54.6472 35.476 54.6472 35.3164 54.4077 35.032C54.315 34.9378 54.2149 34.851 54.1084 34.7726C54.0545 34.5985 53.9523 34.4432 53.8136 34.3249C53.675 34.2066 53.5055 34.13 53.3251 34.1042C53.2543 34.0848 53.1795 34.0862 53.1094 34.108C53.0394 34.1298 52.977 34.1713 52.9298 34.2274C52.8826 34.2836 52.8524 34.3521 52.8429 34.4248C52.8334 34.4976 52.8449 34.5715 52.8761 34.6379C52.9958 34.9423 53.1555 35.2316 53.3051 35.5259C53.3897 35.6872 53.483 35.8437 53.5845 35.9948C53.638 36.0661 53.7073 36.1239 53.7869 36.1638C53.8666 36.2036 53.9545 36.2243 54.0435 36.2243Z" fill="#D25046"/>
<path d="M30.0404 38.489C30.1651 38.489 30.3148 38.2296 30.3148 38.05C30.3054 37.9555 30.2728 37.8647 30.22 37.7857C30.1102 37.621 29.9655 37.4764 29.8657 37.2868C29.8243 37.2153 29.7633 37.1572 29.69 37.1192C29.6166 37.0812 29.5339 37.0649 29.4516 37.0723C29.3336 37.2581 29.2804 37.4778 29.3002 37.6971C29.3201 37.9163 29.4119 38.1229 29.5614 38.2845C29.6168 38.357 29.69 38.414 29.774 38.4498C29.8579 38.4857 29.9497 38.4992 30.0404 38.489Z" fill="#D25046"/>
<path d="M56.089 55.8693C56.2397 55.7411 56.3798 55.6009 56.5081 55.4503C56.5837 55.3715 56.6377 55.2745 56.6647 55.1688C56.6918 55.063 56.6912 54.952 56.6627 54.8466C56.553 54.4875 56.4183 54.1333 56.2686 53.7092C55.8197 54.0766 55.5113 54.5876 55.3955 55.1559C55.3676 55.2789 55.3748 55.4072 55.4163 55.5262C55.4577 55.6453 55.5318 55.7503 55.63 55.8294C55.6861 55.8947 55.7655 55.9355 55.8513 55.943C55.9371 55.9504 56.0225 55.924 56.089 55.8693Z" fill="#D25046"/>
<path d="M56.2586 50.6964C55.8744 50.4419 55.4254 50.3621 55.1311 50.0279C55.1311 50.0029 55.0712 49.998 55.0413 49.983C54.8766 49.8982 54.7968 49.983 54.7319 50.1277C54.6671 50.2723 54.5174 50.2923 54.6421 50.4569C54.6878 50.5429 54.7198 50.6355 54.7369 50.7313C54.7369 50.841 54.7918 50.9258 54.9165 50.9258C55.1242 50.9478 55.3255 51.0107 55.5088 51.1109C55.692 51.2111 55.8536 51.3465 55.9842 51.5095C56.084 51.2202 56.1638 50.9657 56.2586 50.6964Z" fill="#D25046"/>
<path d="M50.1119 29.6942C50.1119 29.6344 50.0719 29.5396 50.037 29.5296C49.9982 29.5222 49.9582 29.5227 49.9196 29.5313C49.881 29.5399 49.8445 29.5563 49.8125 29.5795C49.74 29.66 49.6855 29.755 49.6528 29.8583C49.6201 29.9615 49.6099 30.0706 49.6229 30.1781C49.6229 30.4725 49.6229 30.7718 49.6229 31.0661C49.6229 31.2607 49.6229 31.4552 49.6229 31.7096C50.1218 31.4901 50.1917 31.4053 50.0819 31.0162C50.0819 30.9663 50.042 30.9264 50.032 30.8765C49.9472 30.5423 49.8125 30.2081 50.062 29.8788C50.098 29.8243 50.1155 29.7595 50.1119 29.6942Z" fill="#D25046"/>
<path d="M44.3895 60.7982C44.421 60.8254 44.4592 60.8436 44.5002 60.851C44.5411 60.8585 44.5833 60.855 44.6224 60.8407C44.6615 60.8265 44.6961 60.8022 44.7227 60.7701C44.7493 60.7381 44.7669 60.6996 44.7736 60.6586C44.8001 60.5307 44.7843 60.3976 44.7287 60.2794C44.5959 60.0867 44.4164 59.9308 44.207 59.8261C43.9977 59.7214 43.7652 59.6714 43.5313 59.6808C43.6764 60.1429 43.9804 60.5388 44.3895 60.7982Z" fill="#D25046"/>
<path d="M49.6779 64.2254C49.7446 64.1641 49.8079 64.0992 49.8674 64.0308C49.7128 64.0308 49.623 64.0308 49.5382 63.9959C49.4534 63.961 49.3087 63.956 49.1839 63.9311L49.3087 63.7465H49.0842C49.0061 63.7163 48.9261 63.6913 48.8447 63.6717C48.8041 63.6634 48.7621 63.6662 48.7231 63.6798C48.684 63.6934 48.6494 63.7173 48.6228 63.749C48.5962 63.7807 48.5787 63.819 48.5721 63.8598C48.5655 63.9006 48.57 63.9425 48.5852 63.981C48.6682 64.1202 48.7652 64.2505 48.8746 64.3701C49.0043 64.5496 49.2887 64.5746 49.3386 64.844C49.3386 64.8839 49.5232 64.9388 49.5881 64.9138C49.6529 64.8889 49.6779 64.7392 49.5881 64.6594C49.4384 64.4648 49.5132 64.3451 49.6779 64.2254Z" fill="#D25046"/>
<path d="M33.4332 44.1212C33.4077 44.1224 33.383 44.1305 33.3617 44.1447C33.3405 44.1588 33.3235 44.1786 33.3127 44.2017C33.3019 44.2249 33.2977 44.2505 33.3005 44.2759C33.3032 44.3013 33.3129 44.3255 33.3284 44.3457C33.5479 44.6591 33.8196 44.9325 34.1317 45.1539C34.3562 45.2886 34.5109 45.1539 34.5059 44.9045C34.4877 44.7823 34.4453 44.6649 34.3814 44.5592C34.3174 44.4534 34.2331 44.3615 34.1333 44.2886C34.0335 44.2158 33.9202 44.1634 33.8 44.1347C33.6799 44.106 33.5552 44.1014 33.4332 44.1212Z" fill="#D25046"/>
<path d="M50.0321 41.8265C50.1419 41.8514 50.2566 41.8614 50.4761 41.8963C50.546 41.8165 50.6208 41.7067 50.7106 41.612C50.7628 41.5701 50.7991 41.5117 50.8136 41.4464C50.8281 41.3811 50.8199 41.3128 50.7905 41.2528C50.709 41.0579 50.607 40.8722 50.4861 40.699C50.4501 40.653 50.4053 40.6146 50.3543 40.5861C50.3033 40.5575 50.2471 40.5395 50.189 40.533C50.1309 40.5265 50.0721 40.5317 50.016 40.5482C49.96 40.5647 49.9078 40.5922 49.8625 40.6292C49.7541 40.6962 49.6673 40.793 49.6124 40.908C49.5576 41.023 49.537 41.1513 49.5531 41.2777C49.5731 41.405 49.6287 41.5241 49.7134 41.6212C49.7982 41.7183 49.9087 41.7895 50.0321 41.8265Z" fill="#D25046"/>
<path d="M49.5929 37.4266C49.5265 37.6144 49.4716 37.8059 49.4283 38.0003C49.3619 38.1984 49.3595 38.4124 49.4212 38.612C49.483 38.8116 49.6059 38.9867 49.7725 39.1128C49.8195 39.1468 49.8732 39.1705 49.9301 39.1821C49.9869 39.1938 50.0456 39.1933 50.1023 39.1805C50.1589 39.1678 50.2122 39.1432 50.2585 39.1082C50.3049 39.0733 50.3433 39.029 50.3712 38.9781C50.4959 38.7486 50.6007 38.4792 50.7055 38.2647C50.7906 38.0487 50.8063 37.8116 50.7504 37.5863C50.6493 37.2729 50.4921 36.9804 50.2864 36.7232C50.1991 36.5686 50.1399 36.3997 50.1118 36.2244C50.1397 36.0516 50.1917 35.8837 50.2664 35.7255C50.2714 35.6591 50.2714 35.5924 50.2664 35.526C50.4061 35.1019 50.5359 34.6779 50.6905 34.2588C50.758 34.0908 50.758 33.9031 50.6905 33.735C50.6406 33.5954 50.5857 33.4557 50.5309 33.316C50.5273 33.2148 50.4885 33.1179 50.4211 33.0423C50.3536 32.9667 50.2619 32.917 50.1617 32.9019C50.0931 32.8885 50.0296 32.8562 49.9785 32.8086C49.9273 32.761 49.8906 32.7 49.8723 32.6326C49.7675 32.4031 49.543 32.3582 49.4033 32.5577C49.2636 32.7573 49.2087 32.9369 49.2686 33.0566C49.4233 33.3559 49.2686 33.6453 49.3335 33.9346C49.1289 34.189 49.2736 34.4833 49.2437 34.7527C49.2121 34.9765 49.2316 35.2045 49.3007 35.4196C49.3698 35.6347 49.4868 35.8314 49.6428 35.9949C49.7361 36.0904 49.7955 36.2139 49.8117 36.3464C49.8279 36.4789 49.8001 36.613 49.7326 36.7282C49.6596 36.9549 49.6128 37.1893 49.5929 37.4266Z" fill="#D25046"/>
<path d="M60.2648 24.2814C60.0752 24.1367 59.9355 24.1616 59.8208 24.3712C59.7734 24.4591 59.7382 24.5531 59.716 24.6505C59.6761 24.8301 59.6512 25.0097 59.6162 25.1843C59.539 25.2193 59.4769 25.2808 59.4412 25.3577C59.4055 25.4346 59.3986 25.5218 59.4217 25.6033C59.4252 25.7161 59.4616 25.8253 59.5264 25.9176C59.5981 25.9886 59.6909 26.0342 59.7908 26.0477C59.8907 26.0612 59.9923 26.0418 60.0802 25.9924C60.1613 25.9723 60.2315 25.9216 60.2761 25.8509C60.3207 25.7803 60.3363 25.6952 60.3197 25.6133C60.2971 25.4984 60.3132 25.3793 60.3655 25.2746C60.4179 25.1698 60.5036 25.0854 60.6091 25.0346C60.6314 25.0101 60.6484 24.9812 60.659 24.9498C60.6062 24.6892 60.4674 24.4538 60.2648 24.2814Z" fill="#D25046"/>
<path d="M59.7412 36.2294C59.8192 36.2573 59.8993 36.279 59.9807 36.2942C60.1853 36.2942 60.4197 36.1246 60.4098 35.965C60.3943 35.8244 60.3307 35.6935 60.2298 35.5944C60.1288 35.4953 59.9968 35.4341 59.856 35.4212C59.6165 35.3963 59.4169 35.6407 59.357 35.8502C59.2972 36.0597 59.4967 36.1695 59.7412 36.2294Z" fill="#D25046"/>
<path d="M23.1805 36.5735C23.1805 36.4039 23.0408 36.3739 22.951 36.2891C22.7763 36.1295 22.5618 35.9898 22.6267 35.7055C22.4721 35.6741 22.3121 35.6828 22.1618 35.7309C22.0116 35.7789 21.8762 35.8646 21.7685 35.9798C21.3893 36.1694 21.3444 36.5386 21.2696 36.8928C21.2671 36.9276 21.2671 36.9626 21.2696 36.9975C21.164 37.4331 20.961 37.839 20.6759 38.1848C20.5378 38.3728 20.4176 38.5732 20.3167 38.7834C20.1171 39.1227 20.152 39.2424 20.4963 39.5317C20.7158 39.861 20.9952 39.7163 21.2846 39.6565C21.2846 39.5168 21.2846 39.402 21.2846 39.2873C21.2846 38.8433 21.2846 38.8433 21.6787 38.6138H21.8783L22.0828 38.7086C22.1477 38.8134 22.2175 38.8134 22.2824 38.7086L22.3822 38.6088L22.477 38.5041C22.5119 38.4342 22.5468 38.3694 22.5768 38.2996C22.5792 38.2697 22.5792 38.2396 22.5768 38.2098C22.8205 37.9076 23.0188 37.5715 23.1655 37.212C23.3002 37.1272 23.2703 37.0025 23.2403 36.8778C23.2104 36.7531 23.2054 36.6633 23.1805 36.5735Z" fill="#D25046"/>
<path d="M51.908 27.4693L52.0077 27.3645L52.1075 27.2648L52.6065 27.0353C52.1474 26.8457 52.1075 26.8507 51.8082 27.0652C51.6231 27.13 51.443 27.2084 51.2694 27.2997C51.1959 27.3528 51.1351 27.4215 51.0912 27.5008C51.0472 27.58 51.0212 27.668 51.0151 27.7584C51.0089 27.8488 51.0226 27.9395 51.0554 28.024C51.0881 28.1086 51.139 28.1848 51.2045 28.2475C51.3292 27.8784 51.6735 27.7038 51.908 27.4693Z" fill="#D25046"/>
<path d="M47.6223 29.3052C47.6848 29.3335 47.7557 29.3368 47.8206 29.3146C47.8855 29.2923 47.9395 29.2461 47.9715 29.1855C48.0289 29.1171 48.0652 29.0336 48.0758 28.945C48.0864 28.8564 48.071 28.7666 48.0314 28.6866C47.9167 28.4721 47.7969 28.3274 47.5325 28.4073C47.465 28.5032 47.4201 28.6132 47.401 28.7289C47.382 28.8447 47.3895 28.9632 47.4227 29.0757C47.4391 29.1253 47.4652 29.1711 47.4995 29.2105C47.5337 29.2499 47.5755 29.2821 47.6223 29.3052Z" fill="#D25046"/>
<path d="M26.2287 42.2754C26.1401 42.2823 26.054 42.3088 25.9769 42.3531C25.8998 42.3973 25.8335 42.4582 25.7828 42.5313C25.7322 42.6044 25.6985 42.6879 25.6841 42.7756C25.6698 42.8634 25.6752 42.9532 25.6999 43.0386C25.7126 43.0692 25.7326 43.0962 25.7581 43.1173C25.7836 43.1384 25.8138 43.1531 25.8462 43.1599C25.8786 43.1668 25.9121 43.1657 25.944 43.1567C25.9759 43.1478 26.0051 43.1312 26.0292 43.1085C26.1575 42.9805 26.2728 42.8402 26.3734 42.6894C26.3979 42.6505 26.4141 42.6069 26.421 42.5614C26.4278 42.5159 26.4252 42.4695 26.4133 42.4251C26.3734 42.3452 26.2637 42.3053 26.2287 42.2754Z" fill="#D25046"/>
<path d="M54.8165 28.4671C54.8561 28.4978 54.9038 28.5162 54.9537 28.52C55.0037 28.5238 55.0536 28.5127 55.0973 28.4882C55.141 28.4637 55.1765 28.4268 55.1993 28.3823C55.2221 28.3377 55.2313 28.2874 55.2256 28.2376C55.2218 28.0928 55.2017 27.9489 55.1658 27.8086C55.1605 27.7793 55.1485 27.7516 55.1306 27.7279C55.1127 27.7041 55.0894 27.6849 55.0627 27.6717C55.036 27.6586 55.0065 27.652 54.9768 27.6524C54.947 27.6527 54.9178 27.6601 54.8914 27.6739C54.8128 27.6961 54.7328 27.7128 54.6519 27.7238C54.6519 27.8535 54.622 27.9632 54.602 28.078C54.5371 28.2725 54.6669 28.3773 54.8165 28.4671Z" fill="#D25046"/>
<path d="M47.7919 25.2344C47.8822 25.1884 47.9563 25.116 48.0044 25.0269C48.0525 24.9378 48.0724 24.8362 48.0613 24.7355C48.0364 24.5509 47.9017 24.501 47.742 24.4761L47.5674 24.4412C47.5103 24.5398 47.4737 24.649 47.46 24.7622C47.4463 24.8754 47.4557 24.9902 47.4876 25.0997C47.4904 25.1336 47.5023 25.1661 47.5221 25.1939C47.5418 25.2216 47.5687 25.2435 47.5998 25.2573C47.6309 25.2711 47.6652 25.2762 47.699 25.2722C47.7328 25.2681 47.7649 25.2551 47.7919 25.2344Z" fill="#D25046"/>
<path d="M52.9857 42.1707C53.0705 42.2206 53.2351 42.2605 53.295 42.2156C53.3941 42.1283 53.4783 42.0256 53.5444 41.9113C53.5444 41.602 53.3948 41.4723 53.1902 41.5421C53.112 41.5721 53.0382 41.6123 52.9707 41.6618C52.9303 41.6915 52.8978 41.7305 52.8758 41.7755C52.8539 41.8205 52.8432 41.8702 52.8446 41.9202C52.8461 41.9702 52.8597 42.0192 52.8843 42.0628C52.9088 42.1065 52.9436 42.1435 52.9857 42.1707Z" fill="#D25046"/>
<path d="M19.683 52.5918C19.6131 52.9809 19.683 53.1655 19.9474 53.3201C19.9696 53.3399 19.9962 53.354 20.025 53.3612C20.0537 53.3685 20.0839 53.3687 20.1128 53.3619C20.1416 53.355 20.1685 53.3413 20.1909 53.3219C20.2134 53.3024 20.2308 53.2779 20.2417 53.2503C20.2697 53.2008 20.2844 53.145 20.2844 53.0882C20.2844 53.0313 20.2697 52.9755 20.2417 52.926C20.137 52.6467 19.9025 52.6467 19.683 52.5918Z" fill="#D25046"/>
<path d="M53.2803 31.0211C53.2373 31.1992 53.2518 31.3863 53.3217 31.5557C53.3916 31.7251 53.5133 31.868 53.6694 31.9639C53.7481 31.9103 53.8023 31.8277 53.8201 31.7341C53.8379 31.6406 53.8178 31.5438 53.7642 31.4651C53.6345 31.2606 53.6395 30.9662 53.2803 31.0211Z" fill="#D25046"/>
<path d="M53.3598 30.2378C53.2913 30.2991 53.2411 30.3781 53.2147 30.4662C53.1883 30.5542 53.1867 30.6478 53.2101 30.7367C53.2101 30.8115 53.4147 30.8614 53.5294 30.9113C53.5294 30.9113 53.5893 30.9113 53.6691 30.9113C53.6872 30.7088 53.6872 30.5051 53.6691 30.3027C53.6342 30.163 53.4895 30.143 53.3598 30.2378Z" fill="#D25046"/>
<path d="M53.24 38.1698C53.4097 38.105 53.4197 37.9504 53.4097 37.7907C53.4111 37.7659 53.4073 37.741 53.3986 37.7177C53.3899 37.6944 53.3764 37.6732 53.359 37.6554C53.3417 37.6376 53.3208 37.6235 53.2978 37.6142C53.2747 37.6049 53.2499 37.6004 53.2251 37.6011C53.1586 37.5903 53.0905 37.6048 53.0341 37.6418C52.9778 37.6787 52.9373 37.7354 52.9207 37.8007C52.9207 37.8955 52.8808 37.9903 52.8659 38.0651C52.9033 38.1268 52.9628 38.1719 53.0323 38.1913C53.1017 38.2108 53.176 38.2031 53.24 38.1698Z" fill="#D25046"/>
<path d="M57.4411 26.9953C57.4473 27.0539 57.4754 27.108 57.5198 27.1469C57.5642 27.1857 57.6216 27.2064 57.6805 27.2048C57.8152 27.2048 57.925 27.0801 57.915 26.8805C57.8601 26.8456 57.7753 26.7558 57.6855 26.7458C57.6202 26.7472 57.5581 26.774 57.5123 26.8206C57.4666 26.8673 57.441 26.93 57.4411 26.9953Z" fill="#D25046"/>
<path d="M31.1381 56.8921C30.9984 56.8921 30.8887 57.0318 30.9136 57.2064C30.9136 57.2662 30.9884 57.3211 31.0683 57.4408C31.1656 57.3233 31.2508 57.1963 31.3227 57.0617C31.3227 57.0617 31.2179 56.9071 31.1381 56.8921Z" fill="#D25046"/>
<path d="M52.5514 42.6195L52.3519 42.824C52.0425 42.824 52.0126 43.1333 51.8829 43.3229C51.853 43.3628 51.9128 43.5225 51.9777 43.5673C52.0047 43.5923 52.0367 43.6112 52.0717 43.6226C52.1066 43.634 52.1436 43.6376 52.1801 43.6334C52.2166 43.6291 52.2518 43.617 52.2831 43.5978C52.3145 43.5787 52.3414 43.553 52.3619 43.5225C52.4068 43.5225 52.4916 43.5225 52.4966 43.5673C52.5465 43.8766 52.7809 43.9714 53.0254 44.0662C53.0568 44.0543 53.0869 44.0393 53.1152 44.0213C53.235 43.9265 53.2948 43.6771 53.5243 43.8617C53.5647 43.8426 53.5979 43.8111 53.6191 43.7719C53.6258 43.7495 53.6266 43.7258 53.6213 43.7031C53.6161 43.6803 53.605 43.6594 53.5892 43.6422C53.3497 43.4776 53.0903 43.3179 52.8658 43.1433C53.2 42.8889 53.2 42.7941 52.8658 42.5946C52.751 42.4848 52.6712 42.4848 52.5514 42.6195Z" fill="#D25046"/>
<path d="M53.1204 17.6219C53.1767 18.0735 53.1934 18.5292 53.1703 18.9838C53.1511 19.1616 53.174 19.3414 53.2373 19.5087C53.3006 19.676 53.4024 19.826 53.5346 19.9466C53.6742 20.1162 53.784 20.1062 53.9287 19.9466C53.9634 19.8806 53.9886 19.81 54.0035 19.737L54.1532 19.9316C54.3081 20.1316 54.3812 20.3831 54.3578 20.635C54.1479 20.6816 53.9603 20.7985 53.826 20.9664C53.6917 21.1342 53.6188 21.3429 53.6194 21.5579C53.6529 21.73 53.7302 21.8907 53.8438 22.0243C53.9574 22.158 54.1035 22.2602 54.268 22.3211L54.7968 22.4758C54.9803 22.5346 55.1768 22.539 55.3627 22.4885C55.5487 22.4381 55.716 22.3349 55.8445 22.1914C56.0972 21.9371 56.3078 21.6441 56.4682 21.3234C56.612 21.1224 56.731 20.9046 56.8224 20.6749C56.9066 20.2333 57.1063 19.8219 57.4012 19.4826C57.5151 19.3479 57.572 19.1741 57.5599 18.998C57.5478 18.822 57.4676 18.6576 57.3363 18.5398C57.1928 18.337 57.0596 18.1273 56.9372 17.9112C56.9072 17.7117 56.8025 17.4922 56.8623 17.3275C56.9127 17.1434 56.9258 16.951 56.901 16.7617C56.8761 16.5724 56.8138 16.39 56.7176 16.2251C56.6825 16.1257 56.6542 16.024 56.6328 15.9208C56.7641 15.818 56.9025 15.7247 57.0469 15.6414C57.14 15.6043 57.2237 15.5471 57.292 15.4739C57.3603 15.4007 57.4116 15.3133 57.4421 15.2179C57.4726 15.1225 57.4816 15.0216 57.4685 14.9223C57.4554 14.823 57.4205 14.7279 57.3662 14.6437C57.2133 14.4278 57.1156 14.1777 57.0818 13.9153C57.0847 13.8384 57.0577 13.7633 57.0066 13.7057C56.9555 13.6481 56.8842 13.6124 56.8074 13.606C56.4734 13.5657 56.1501 13.4624 55.8545 13.3017C55.8994 13.192 55.9892 13.0872 55.9743 12.9924C55.9515 12.7001 55.886 12.4127 55.7797 12.1394C55.6549 11.895 55.6051 11.875 55.2808 12.0097C55.0513 11.885 54.9714 12.0646 54.8816 12.2142C54.6601 12.3142 54.4827 12.4916 54.3827 12.7131C54.3428 12.7779 54.2979 12.9076 54.263 12.9076C54.0035 12.9076 53.8988 13.1172 53.7341 13.2369C53.1903 13.636 53.2352 14.0899 53.8539 14.4441C53.9623 14.3074 54.0513 14.1563 54.1183 13.9952C54.1241 13.9478 54.1431 13.9031 54.1731 13.8661C54.2031 13.829 54.2428 13.8012 54.2879 13.7856C54.4014 13.7661 54.5181 13.7802 54.6237 13.8263C54.7292 13.8724 54.8189 13.9485 54.8816 14.045C55.0128 14.3255 55.0444 14.6422 54.9714 14.943C54.9578 15.0764 54.9109 15.2043 54.835 15.315C54.7592 15.4257 54.6569 15.5156 54.5374 15.5765C54.4526 15.6115 54.3977 15.7112 54.3278 15.7861L53.8938 16.25H53.794C53.6493 16.25 53.4996 16.25 53.4946 16.4495H53.3949L53.2951 16.5543L53.1953 16.6541L53.1005 16.7539V16.9584C53.0257 16.9883 53.0257 17.0232 53.1005 17.0582V17.1579C53.0207 17.1928 53.0207 17.2228 53.1005 17.2577V17.3325C52.9857 17.4173 52.9907 17.5221 53.1204 17.6219ZM55.8146 20.9742C55.9892 21.1039 55.9792 20.8944 56.069 20.8844C56.104 20.9293 56.1489 20.9742 56.1688 20.9642C56.1888 20.9543 56.094 20.9193 56.0541 20.8944C56.0142 20.8694 55.9892 21.1039 55.8146 20.9742ZM54.7569 20.615C54.7395 20.5261 54.7395 20.4346 54.7569 20.3456C54.7395 20.4346 54.7395 20.5261 54.7569 20.615ZM56.5979 14.5938C56.553 14.5289 56.4831 14.4491 56.4482 14.4641C56.4881 14.4641 56.558 14.5389 56.6179 14.5838C56.6777 14.6287 56.7625 14.4541 56.7975 14.6187C56.7625 14.4541 56.6777 14.5938 56.6079 14.6187L56.5979 14.5938ZM54.2929 19.0835C54.1931 18.9538 54.263 18.8241 54.4226 18.8042C54.707 18.7742 54.8068 18.859 54.9215 19.2432C54.7839 19.2582 54.6451 19.2582 54.5074 19.2432C54.4229 19.2151 54.3484 19.1631 54.2929 19.0935V19.0835Z" fill="#D25046"/>
<path d="M22.506 35.5301C22.506 35.5301 22.506 35.5007 22.506 35.4958C22.506 35.4909 22.4766 35.4958 22.4619 35.4958L22.4913 35.5448L22.506 35.5301Z" fill="#D25046"/>
<path d="M61.3573 54.7468L61.3995 54.789C61.401 54.7781 61.401 54.7671 61.3995 54.7562L61.3573 54.7468Z" fill="#D25046"/>
<path d="M61.9485 55.2431L61.9064 55.2009C61.9048 55.2118 61.9048 55.2228 61.9064 55.2337L61.9485 55.2431Z" fill="#D25046"/>
<path d="M54.1029 19.9589L54.1404 19.9214C54.1404 19.9214 54.1404 19.9214 54.1123 19.9214C54.0842 19.9214 54.1029 19.9495 54.1029 19.9589Z" fill="#D25046"/>
<path d="M43.4115 68.0439L43.4537 68.0017H43.4209C43.4209 68.0017 43.4162 68.0345 43.4115 68.0439Z" fill="#D25046"/>
<path d="M49.0842 25.6883C49.1138 25.8546 49.1981 26.0063 49.3237 26.1193C49.4493 26.2322 49.6091 26.3 49.7777 26.3119C49.9572 26.3428 50.1419 26.3099 50.2996 26.2187C50.4573 26.1276 50.578 25.984 50.6408 25.813C50.7372 25.6191 50.7884 25.4059 50.7905 25.1894C50.7905 24.7953 50.7905 24.3962 50.8204 24.0021C50.8503 23.608 50.8553 23.174 50.8553 22.765C50.858 22.6319 50.8197 22.5013 50.7456 22.3908C50.5976 22.1522 50.5294 21.8726 50.551 21.5926C50.6657 21.5128 50.6458 21.3931 50.6258 21.2784C50.5866 21.1143 50.5599 20.9476 50.546 20.7795C50.546 20.2507 50.546 19.7219 50.546 19.1881C50.546 18.7841 50.5061 18.7491 50.0471 18.5945C49.7777 18.9587 49.7627 18.9587 49.8325 19.3528C49.8917 19.5878 49.8858 19.8346 49.8155 20.0665C49.7451 20.2985 49.6131 20.507 49.4334 20.6697C49.3434 20.7461 49.2719 20.8419 49.2243 20.9499C49.1768 21.0579 49.1545 21.1754 49.159 21.2933C49.0442 21.3731 49.0592 21.4929 49.0842 21.6076C49.1117 21.7804 49.187 21.9421 49.3016 22.0743C49.4163 22.2065 49.5656 22.3041 49.7328 22.3559C49.7976 22.8548 49.8275 23.3536 49.9223 23.8176C49.9583 23.9775 49.9435 24.1446 49.88 24.2957C49.8165 24.4468 49.7075 24.5744 49.5681 24.6606C49.4633 24.7404 49.3286 24.7804 49.2189 24.8552C48.8397 25.1196 48.8197 25.2992 49.1091 25.7132L49.0842 25.6883Z" fill="#D25046"/>
</svg>
