<svg width="73" height="68" viewBox="0 0 73 68" fill="none" xmlns="http://www.w3.org/2000/svg">
<path d="M50.2319 25.6333H0.805664V56.3874H50.2319V25.6333Z" fill="#D25046"/>
<path d="M5.6535 52.4817H7.7483V52.8736H5.6535V52.4817ZM6.70139 51.4341C6.73872 51.4338 6.77557 51.4256 6.80946 51.41C6.84336 51.3944 6.87351 51.3717 6.89791 51.3434C6.9223 51.3152 6.94037 51.282 6.9509 51.2462C6.96143 51.2104 6.96417 51.1728 6.95895 51.1358C6.95373 51.0989 6.94067 51.0635 6.92063 51.032C6.9006 51.0005 6.87406 50.9737 6.84279 50.9533C6.81153 50.9329 6.77626 50.9194 6.73937 50.9138C6.70247 50.9081 6.66478 50.9105 6.62885 50.9206L6.08285 50.5217L6.0505 50.5511L6.45045 51.096C6.44331 51.1208 6.43968 51.1466 6.43967 51.1724C6.43954 51.2068 6.44622 51.2409 6.45933 51.2727C6.47243 51.3045 6.49171 51.3334 6.51604 51.3577C6.54036 51.3821 6.56927 51.4013 6.60108 51.4144C6.63289 51.4275 6.66699 51.4342 6.70139 51.4341Z" fill="black"/>
<path d="M6.70142 49.4702C6.3824 49.4702 6.06981 49.5598 5.79927 49.7288C5.52872 49.8978 5.31111 50.1394 5.17122 50.426C5.03134 50.7127 4.97482 51.0328 5.0081 51.35C5.04138 51.6672 5.16312 51.9686 5.35945 52.22H5.84076L5.87409 52.1867L6.05445 52.0064L5.86428 51.8192L5.68392 51.9985C5.52144 51.8004 5.42117 51.5587 5.39572 51.3037H5.65059V51.0411H5.39572C5.42117 50.7862 5.52144 50.5444 5.68392 50.3463L5.86428 50.5256L6.05151 50.3385L5.87212 50.1582C6.07034 49.9958 6.31213 49.8955 6.56712 49.87V50.1248H6.82885V49.87C7.08409 49.8958 7.32613 49.9959 7.52483 50.1582L7.34446 50.3385L7.53267 50.5256L7.71303 50.3463C7.87511 50.5447 7.97532 50.7863 8.00123 51.0411H7.74538V51.3037H8.00123C7.97532 51.5586 7.87511 51.8002 7.71303 51.9985L7.53267 51.8192L7.34446 52.0064L7.52581 52.1867L7.55816 52.22H8.03946C8.23574 51.9687 8.35747 51.6673 8.39079 51.3502C8.4241 51.0331 8.36767 50.7131 8.22791 50.4265C8.08814 50.1399 7.87068 49.8983 7.60027 49.7292C7.32987 49.5602 7.01741 49.4704 6.69848 49.4702H6.70142Z" fill="black"/>
<path d="M6.7004 42.3322C6.57852 42.327 6.45902 42.2967 6.34947 42.243C6.33953 42.2383 6.32853 42.2364 6.31759 42.2373C6.30664 42.2382 6.29613 42.242 6.2871 42.2482C6.27806 42.2545 6.27083 42.263 6.26613 42.2729C6.26142 42.2828 6.2594 42.2938 6.26027 42.3047L6.28869 42.7222C6.28924 42.728 6.29133 42.7335 6.29472 42.7381C6.29812 42.7428 6.30271 42.7465 6.30802 42.7488C6.31332 42.7511 6.31915 42.7519 6.32489 42.7512C6.33063 42.7505 6.33607 42.7483 6.34065 42.7447L6.45926 42.6546C6.46283 42.652 6.46687 42.6502 6.47116 42.6493C6.47545 42.6483 6.47988 42.6483 6.48419 42.6491C6.4885 42.6499 6.4926 42.6516 6.49623 42.6541C6.49987 42.6565 6.50296 42.6597 6.50533 42.6634L6.67295 42.926C6.67591 42.9305 6.67991 42.9341 6.68462 42.9367C6.68932 42.9392 6.69457 42.9405 6.69991 42.9405C6.70525 42.9405 6.71051 42.9392 6.71521 42.9367C6.71991 42.9341 6.72392 42.9305 6.72687 42.926L6.89547 42.6634C6.89822 42.6599 6.90165 42.6571 6.90555 42.655C6.90945 42.6529 6.91374 42.6516 6.91815 42.6513C6.92256 42.6509 6.927 42.6514 6.93119 42.6528C6.93538 42.6543 6.93924 42.6565 6.94253 42.6595L7.06114 42.7496C7.06572 42.7532 7.07116 42.7554 7.0769 42.7561C7.08264 42.7568 7.08846 42.756 7.09377 42.7537C7.09907 42.7514 7.10366 42.7477 7.10706 42.743C7.11046 42.7384 7.11254 42.7329 7.11309 42.7271L7.14152 42.3096C7.1421 42.2988 7.13989 42.288 7.1351 42.2782C7.13031 42.2684 7.1231 42.2601 7.11416 42.2539C7.10522 42.2477 7.09484 42.2439 7.08401 42.2428C7.07319 42.2418 7.06227 42.2435 7.05231 42.2479C6.94269 42.3014 6.82324 42.3317 6.70138 42.3371L6.7004 42.3322Z" fill="black"/>
<path d="M7.86013 41.2806L7.46802 40.8788C7.46802 39.5862 6.70539 39.0168 6.70539 39.0168C6.70539 39.0168 5.93491 39.5901 5.93491 40.8788L5.5428 41.2806C5.53547 41.2881 5.52997 41.2973 5.52674 41.3073C5.52351 41.3173 5.52263 41.328 5.52418 41.3384L5.67514 42.2527C5.67627 42.2635 5.68021 42.2738 5.68655 42.2827C5.69289 42.2915 5.70143 42.2986 5.71132 42.3031C5.7212 42.3077 5.7321 42.3096 5.74295 42.3086C5.75379 42.3077 5.76421 42.3039 5.77316 42.2978L6.32309 41.9254C6.42871 42.0228 6.56485 42.0806 6.70833 42.089C6.84973 42.0817 6.98373 42.0236 7.08573 41.9254L7.63467 42.2978C7.64363 42.3039 7.65404 42.3077 7.66488 42.3086C7.67573 42.3096 7.68663 42.3077 7.69652 42.3031C7.70641 42.2986 7.71494 42.2915 7.72128 42.2827C7.72763 42.2738 7.73156 42.2635 7.73269 42.2527L7.88463 41.3374C7.88507 41.3267 7.88309 41.316 7.87885 41.3062C7.87461 41.2963 7.86821 41.2876 7.86013 41.2806ZM6.70441 40.4535C6.65197 40.4558 6.60003 40.4424 6.55528 40.415C6.51054 40.3875 6.47504 40.3473 6.45337 40.2995C6.4317 40.2517 6.42485 40.1986 6.43369 40.1468C6.44254 40.0951 6.46669 40.0472 6.50302 40.0093C6.53934 39.9715 6.58619 39.9453 6.63751 39.9343C6.68883 39.9233 6.74228 39.9279 6.79095 39.9476C6.83963 39.9672 6.88131 40.001 6.91061 40.0445C6.93991 40.088 6.9555 40.1393 6.95535 40.1918C6.95667 40.2598 6.93099 40.3254 6.88395 40.3745C6.83692 40.4235 6.77235 40.4519 6.70441 40.4535Z" fill="black"/>
<path d="M8.00706 32.3236H7.96589C7.91197 32.3236 7.86786 32.3168 7.86198 32.2629C7.74239 31.1516 7.0415 31.13 7.0415 30.8684C7.0415 30.6067 7.74337 30.5852 7.86198 29.4739C7.86786 29.42 7.91197 29.4131 7.96589 29.4131H8.00706C8.03695 29.4135 8.06585 29.4024 8.08789 29.3822C8.10992 29.362 8.12343 29.3342 8.12567 29.3044C8.12633 29.2889 8.12386 29.2734 8.1184 29.2588C8.11294 29.2443 8.10461 29.231 8.09391 29.2198C8.08321 29.2085 8.07035 29.1995 8.0561 29.1934C8.04185 29.1872 8.02651 29.184 8.01098 29.1838H5.39467C5.36494 29.1838 5.33628 29.1949 5.31446 29.2151C5.29264 29.2353 5.27927 29.263 5.27704 29.2926C5.27624 29.3082 5.27861 29.3237 5.28402 29.3383C5.28942 29.3529 5.29774 29.3662 5.30847 29.3775C5.31921 29.3888 5.33212 29.3978 5.34643 29.4039C5.36075 29.41 5.37616 29.4132 5.39173 29.4131H5.43682C5.48975 29.4131 5.53485 29.42 5.54073 29.4739C5.66032 30.5852 6.3612 30.6067 6.3612 30.8684C6.3612 31.13 5.65934 31.1516 5.54073 32.2629C5.53485 32.3168 5.48975 32.3236 5.43682 32.3236H5.39467C5.36494 32.3236 5.33628 32.3347 5.31446 32.3549C5.29264 32.3751 5.27927 32.4028 5.27704 32.4324C5.27624 32.448 5.27861 32.4635 5.28402 32.4781C5.28942 32.4927 5.29774 32.506 5.30847 32.5173C5.31921 32.5286 5.33212 32.5376 5.34643 32.5437C5.36075 32.5498 5.37616 32.553 5.39173 32.553H8.01098C8.02655 32.553 8.04196 32.5498 8.05627 32.5437C8.07058 32.5376 8.0835 32.5286 8.09423 32.5173C8.10496 32.506 8.11328 32.4927 8.11869 32.4781C8.12409 32.4635 8.12647 32.448 8.12567 32.4324C8.1232 32.4027 8.10963 32.375 8.08764 32.3548C8.06566 32.3347 8.03689 32.3235 8.00706 32.3236ZM5.94263 32.0444C6.17789 31.3907 6.59352 31.4701 6.59352 31.2124V30.7577C6.59352 30.5989 6.29258 30.4882 6.10339 30.2304C6.09727 30.2209 6.09383 30.2098 6.09341 30.1985C6.09299 30.1871 6.09562 30.1759 6.10102 30.1659C6.10642 30.1559 6.11439 30.1475 6.12412 30.1416C6.13385 30.1358 6.14497 30.1326 6.15633 30.1324H7.24441C7.25594 30.1322 7.26732 30.1351 7.27732 30.1409C7.28732 30.1466 7.29559 30.1549 7.30122 30.165C7.30685 30.1751 7.30965 30.1865 7.30932 30.198C7.30898 30.2095 7.30552 30.2207 7.29931 30.2304C7.11404 30.4892 6.80918 30.5999 6.80918 30.7586V31.2133C6.80918 31.4691 7.20913 31.3995 7.46203 32.0453C7.48556 32.1032 7.46792 32.1757 7.40616 32.1757H5.99949C5.93577 32.1737 5.92106 32.1032 5.94263 32.0444Z" fill="black"/>
<path opacity="0.2" d="M43.7119 30.8676C43.7125 31.1567 43.5981 31.4341 43.3941 31.639C43.1901 31.8439 42.913 31.9594 42.6239 31.9602H14.6131C14.4669 31.9646 14.3212 31.9396 14.1849 31.8867C14.0485 31.8338 13.9241 31.754 13.8192 31.6522C13.7142 31.5503 13.6307 31.4284 13.5737 31.2937C13.5167 31.159 13.4874 31.0143 13.4874 30.868C13.4874 30.7218 13.5167 30.577 13.5737 30.4424C13.6307 30.3077 13.7142 30.1858 13.8192 30.0839C13.9241 29.9821 14.0485 29.9023 14.1849 29.8494C14.3212 29.7965 14.4669 29.7715 14.6131 29.7759H42.6239C42.9128 29.7769 43.1895 29.8924 43.3935 30.097C43.5974 30.3016 43.7119 30.5787 43.7119 30.8676Z" fill="black"/>
<path opacity="0.2" d="M43.7119 40.9779C43.7123 41.1211 43.6844 41.263 43.63 41.3955C43.5755 41.528 43.4954 41.6485 43.3944 41.75C43.2934 41.8516 43.1733 41.9322 43.0411 41.9874C42.9089 42.0426 42.7671 42.0712 42.6238 42.0715H14.6131C14.329 42.063 14.0594 41.9442 13.8614 41.7403C13.6635 41.5365 13.5528 41.2635 13.5528 40.9794C13.5528 40.6953 13.6635 40.4223 13.8614 40.2184C14.0594 40.0145 14.329 39.8957 14.6131 39.8872H42.6238C42.9125 39.8885 43.1889 40.0039 43.3928 40.2083C43.5967 40.4126 43.7114 40.6893 43.7119 40.9779Z" fill="black"/>
<path opacity="0.2" d="M43.7119 51.1723C43.7119 51.461 43.5974 51.738 43.3934 51.9425C43.1895 52.1469 42.9127 52.2622 42.6239 52.263H14.6131C14.4669 52.2673 14.3212 52.2423 14.1849 52.1894C14.0485 52.1365 13.9241 52.0568 13.8192 51.9549C13.7142 51.853 13.6307 51.7312 13.5737 51.5965C13.5167 51.4618 13.4874 51.317 13.4874 51.1708C13.4874 51.0245 13.5167 50.8798 13.5737 50.7451C13.6307 50.6104 13.7142 50.4885 13.8192 50.3867C13.9241 50.2848 14.0485 50.2051 14.1849 50.1522C14.3212 50.0992 14.4669 50.0742 14.6131 50.0786H42.6239C42.9131 50.0797 43.1902 50.1954 43.3942 50.4004C43.5982 50.6055 43.7125 50.8831 43.7119 51.1723Z" fill="black"/>
<path d="M38.0902 29.7759V31.9602H14.6131C14.4669 31.9646 14.3212 31.9396 14.1849 31.8867C14.0485 31.8338 13.9241 31.754 13.8192 31.6522C13.7142 31.5503 13.6307 31.4284 13.5737 31.2937C13.5167 31.159 13.4874 31.0143 13.4874 30.868C13.4874 30.7218 13.5167 30.577 13.5737 30.4424C13.6307 30.3077 13.7142 30.1858 13.8192 30.0839C13.9241 29.9821 14.0485 29.9023 14.1849 29.8494C14.3212 29.7965 14.4669 29.7715 14.6131 29.7759H38.0902Z" fill="black"/>
<path d="M42.2562 39.8853V42.0716H14.613C14.329 42.063 14.0594 41.9442 13.8614 41.7404C13.6635 41.5365 13.5528 41.2635 13.5528 40.9794C13.5528 40.6953 13.6635 40.4223 13.8614 40.2184C14.0594 40.0145 14.329 39.8957 14.613 39.8872L42.2562 39.8853Z" fill="black"/>
<path d="M32.0126 50.0806V52.263H14.6131C14.4669 52.2673 14.3212 52.2423 14.1849 52.1894C14.0485 52.1365 13.9241 52.0568 13.8192 51.9549C13.7142 51.853 13.6307 51.7312 13.5737 51.5965C13.5167 51.4618 13.4874 51.317 13.4874 51.1708C13.4874 51.0245 13.5167 50.8798 13.5737 50.7451C13.6307 50.6104 13.7142 50.4885 13.8192 50.3867C13.9241 50.2848 14.0485 50.2051 14.1849 50.1522C14.3212 50.0992 14.4669 50.0742 14.6131 50.0786L32.0126 50.0806Z" fill="black"/>
<path d="M46.3652 58.6452C46.4759 58.8693 46.5306 59.117 46.5246 59.3669C46.5024 59.6205 46.577 59.8731 46.7336 60.074C46.8901 60.2748 47.1168 60.4089 47.3682 60.4494C47.5048 60.4782 47.6395 60.5157 47.7713 60.5619C48.0736 60.6743 48.4063 60.6743 48.7086 60.5619C48.7864 60.5471 48.8559 60.5038 48.9036 60.4406C48.9512 60.3773 48.9736 60.2986 48.9664 60.2198C48.9664 59.9199 48.9664 59.6246 48.9664 59.3247C48.9752 59.2389 48.9563 59.1526 48.9125 59.0784C48.8686 59.0041 48.8021 58.9459 48.7227 58.9123C48.5172 58.8006 48.3185 58.677 48.1275 58.5421C47.9119 58.4015 47.9259 58.1812 47.9119 57.9563C47.8978 57.7314 48.1275 57.7595 48.1978 57.6329C48.3834 57.6221 48.5696 57.6379 48.7508 57.6798C49.11 57.7908 49.4864 57.8352 49.8616 57.811C49.9498 57.8189 50.0387 57.8051 50.1204 57.7708C50.202 57.7365 50.2741 57.6827 50.3303 57.6142C50.3866 57.5383 50.4546 57.4719 50.5318 57.4174C50.6449 57.3459 50.7351 57.2433 50.7916 57.122C50.8481 57.0007 50.8685 56.8658 50.8505 56.7332C50.8423 56.5002 50.8723 56.2675 50.9396 56.0443C50.9585 55.9563 50.9959 55.8733 51.0493 55.8008C51.1026 55.7284 51.1707 55.668 51.2491 55.6237C51.3275 55.5795 51.4143 55.5523 51.504 55.544C51.5936 55.5357 51.684 55.5465 51.7691 55.5757C51.9327 55.6337 52.1114 55.6332 52.2746 55.5742C52.4379 55.5152 52.5756 55.4015 52.6643 55.2523C52.7159 55.1773 52.7956 55.1164 52.8471 55.0367C53.1218 54.6001 53.5365 54.2697 54.0235 54.0995C54.2297 54.062 54.4406 54.0432 54.6422 53.9917C54.8437 53.9401 55.0452 53.8698 55.2468 53.8042C55.5491 53.9564 55.8097 54.18 56.006 54.4556C56.0045 54.5357 56.0301 54.614 56.0786 54.6777C56.127 54.7415 56.1956 54.7871 56.2732 54.8071C56.717 54.9941 57.206 55.0463 57.6792 54.9571C57.8155 54.9 57.9674 54.8916 58.1091 54.9335C58.2508 54.9753 58.3738 55.0647 58.4572 55.1867C58.5229 55.2476 58.5838 55.3132 58.6447 55.3741C58.6447 55.5241 58.6119 55.6741 58.6025 55.8428C58.5932 56.0115 58.4854 56.0209 58.3776 55.9974C58.2466 55.9645 58.1181 55.9222 57.9932 55.8709C57.6992 55.8068 57.3947 55.8085 57.1014 55.8757C56.8081 55.9429 56.5333 56.0741 56.2966 56.2599L56.0154 56.4567C55.8963 56.5159 55.7833 56.5865 55.678 56.6676C55.6437 56.7044 55.6176 56.7481 55.6014 56.7958C55.5853 56.8434 55.5794 56.894 55.5842 56.9441C55.6085 56.9881 55.6428 57.0259 55.6843 57.0543C55.7258 57.0828 55.7734 57.1012 55.8232 57.1081C56.2919 57.1502 56.7137 57.169 57.1543 57.1971C57.309 57.3986 57.4402 57.6236 57.7261 57.6657C57.9685 57.9381 58.1308 58.2722 58.1948 58.6311C58.2137 58.7458 58.2699 58.8511 58.3546 58.9307C58.4393 59.0103 58.5478 59.0598 58.6635 59.0716L58.7572 59.1654L58.8556 59.2591C58.8794 59.3414 58.9141 59.4202 58.9587 59.4934C59.1321 59.7371 59.1368 59.7324 58.9587 60.0089C58.7385 60.201 58.7385 60.201 58.9587 60.4775L59.0572 60.7587C58.8884 61.2789 58.7244 61.7991 58.5463 62.3567C58.7291 62.2195 58.9044 62.0725 59.0712 61.9162C59.1447 61.8211 59.2061 61.7172 59.254 61.6069C59.4134 61.4757 59.3196 61.2929 59.3431 61.1383C59.3665 60.9836 59.3431 60.9508 59.3431 60.8571C59.3431 60.7634 59.3431 60.7353 59.3805 60.7306C59.4384 60.7089 59.5012 60.704 59.5618 60.7164C59.6223 60.7289 59.6781 60.7581 59.7227 60.8009C59.9195 61.0164 60.1398 61.2226 60.3601 61.4476C60.6694 61.4804 60.5851 61.1383 60.7257 61.0352C60.6661 60.8736 60.594 60.7169 60.5101 60.5666C60.407 60.4025 60.2898 60.1776 60.1351 60.1354C59.9805 60.0932 59.8727 59.873 59.6946 59.8074C59.6946 59.8074 59.6946 59.6996 59.6946 59.6387C59.6946 59.5778 59.8633 59.4793 59.868 59.3903C59.8876 59.2939 59.9268 59.2025 59.9833 59.1219C60.0397 59.0412 60.1121 58.9731 60.1961 58.9217L60.407 58.767C60.3739 58.6526 60.3178 58.5462 60.242 58.4543C60.1662 58.3624 60.0724 58.287 59.9664 58.2328L59.5821 57.6704C59.5646 57.5942 59.5426 57.5191 59.5165 57.4455C59.3984 57.2442 59.3323 57.0168 59.3242 56.7836C59.316 56.5505 59.366 56.3189 59.4696 56.1099C59.4696 56.1099 59.4696 56.0443 59.4696 56.0162C59.5119 55.5991 59.5761 55.1846 59.6618 54.7743C59.7373 54.5204 59.7275 54.2488 59.6336 54.0011C59.4718 53.6279 59.4026 53.2211 59.4321 52.8154C59.4392 52.7688 59.4392 52.7214 59.4321 52.6748C59.4276 52.6273 59.4128 52.5812 59.3887 52.54C59.3645 52.4987 59.3317 52.4632 59.2924 52.436C59.2531 52.4088 59.2083 52.3904 59.1612 52.3823C59.1141 52.3742 59.0658 52.3765 59.0197 52.389C58.7629 52.4589 58.4905 52.4458 58.2416 52.3515C58.111 52.1115 57.912 51.9157 57.6699 51.7891C57.4763 51.6169 57.2694 51.4602 57.0512 51.3205C56.9585 51.2476 56.8502 51.197 56.7348 51.1726C56.6194 51.1482 56.4999 51.1507 56.3857 51.1799C56.1748 51.2689 56.006 51.4283 55.7389 51.3814C55.6264 51.3814 55.4905 51.4892 55.3639 51.5548L55.1108 51.7048L54.6937 51.1612C54.5969 51.0604 54.5306 50.9344 54.5024 50.7975C54.4742 50.6607 54.4853 50.5187 54.5344 50.3879C54.7127 49.9877 54.7278 49.5338 54.5765 49.1226C54.511 48.9553 54.4978 48.7721 54.5388 48.5971C54.5798 48.4222 54.6731 48.2639 54.8062 48.1432C54.839 48.0823 54.8671 48.0167 54.8999 47.9557C55.0232 47.897 55.1423 47.8297 55.2561 47.7542C55.3837 47.6708 55.4989 47.5699 55.5983 47.4543C55.7061 47.3184 55.6451 47.1825 55.4764 47.0935L55.1765 46.9388C55.2749 46.7279 55.3592 46.5358 55.4483 46.3483L55.542 46.2499V46.1562C55.5748 46.0953 55.603 46.0343 55.6358 45.9687C55.6686 45.9031 55.6967 45.9031 55.7295 45.875L55.8232 45.7766L55.917 45.6829L56.0107 45.5891C56.0388 45.5235 56.0716 45.4626 56.0998 45.397C56.183 45.3501 56.2523 45.282 56.3009 45.1998C56.3494 45.1175 56.3754 45.0239 56.3763 44.9284C56.3763 44.7784 56.3763 44.6238 56.3763 44.4598C56.4432 44.4452 56.5063 44.417 56.5618 44.3769C56.6173 44.3368 56.6638 44.2856 56.6986 44.2266C56.7334 44.1677 56.7556 44.1022 56.7638 44.0342C56.7721 43.9663 56.7662 43.8974 56.7465 43.8318C56.7442 43.7881 56.7442 43.7443 56.7465 43.7006L57.0231 43.5037C57.1602 43.5178 57.2984 43.5178 57.4355 43.5037C57.6502 43.4486 57.8759 43.454 58.0877 43.5194C58.2995 43.5847 58.4891 43.7075 58.6353 43.874C58.6732 44.023 58.7487 44.1598 58.8546 44.2714C58.9604 44.383 59.0931 44.4656 59.2399 44.5113C59.5391 44.5744 59.8435 44.6089 60.1492 44.6144L60.3039 44.7409C60.3039 44.6988 60.3039 44.6566 60.3367 44.6144H60.6179C60.6507 44.9752 60.885 44.6144 60.9788 44.7034C60.983 44.7361 60.983 44.7692 60.9788 44.8019C60.917 45.0644 60.8887 45.3336 60.8944 45.6032C60.8939 45.7455 60.9278 45.8858 60.9931 46.0122C61.0583 46.1387 61.1531 46.2475 61.2693 46.3296C61.4146 46.4186 61.5412 46.5358 61.6771 46.6389L61.8505 46.4655H61.8927C61.9002 46.4443 61.9002 46.4211 61.8927 46.3999C61.6771 46.3999 61.8458 46.1515 61.6912 46.0953C61.6209 46.0672 61.5834 45.9687 61.5271 45.8984L62.2208 45.3595L61.7521 44.4551C61.5962 44.4697 61.4393 44.4697 61.2834 44.4551C61.2365 44.4551 61.2037 44.3473 61.1615 44.291H61.2553L61.6302 44.1973L61.9161 44.2864H62.0099C62.0764 44.347 62.1552 44.3926 62.2409 44.42C62.3267 44.4475 62.4173 44.4563 62.5067 44.4457C62.8816 44.3004 63.2472 44.1364 63.6456 43.9771L64.0252 44.1926C64.1143 43.9068 64.1892 43.6584 64.2689 43.41C64.2689 43.3819 64.3064 43.3491 64.3017 43.321C64.2884 43.2139 64.2633 43.1086 64.2267 43.007C64.1799 42.8898 64.0861 42.8617 63.9596 42.918C63.8206 42.9892 63.7074 43.1023 63.6362 43.2413C63.4956 43.4381 63.3644 43.4428 63.1675 43.2835C63.0878 43.2132 63.0082 43.1335 62.9332 43.0585C62.8332 42.8467 62.6833 42.6622 62.4964 42.521C62.3094 42.3798 62.091 42.2861 61.8599 42.2478C61.7518 42.3095 61.647 42.3768 61.5459 42.4493C61.0772 42.7914 61.0772 42.7914 60.6647 42.4212C60.6132 42.14 60.3882 42.0088 60.1961 41.8589C60.1301 41.7699 60.0849 41.6674 60.0638 41.5587C60.0427 41.45 60.0463 41.338 60.0742 41.2309C59.8535 41.0986 59.625 40.9796 59.3899 40.8747C59.1509 40.781 58.9212 41.0153 58.6588 40.9169C58.6588 40.9169 58.551 40.9966 58.5369 41.0481C58.4854 41.2356 58.4572 41.4277 58.401 41.6948L57.7073 42.1307C57.5855 42.0604 57.4871 42.0088 57.398 41.9526C57.3034 41.8823 57.1912 41.8395 57.0738 41.8287C56.9564 41.818 56.8383 41.8397 56.7325 41.8917C56.5709 41.9423 56.4044 41.9753 56.2357 41.9901C55.8982 41.6714 55.8326 41.1747 55.4811 40.8794L55.7483 40.5842C56.0904 40.5045 56.1513 40.2233 56.2169 39.9609C56.3721 39.9881 56.5313 39.9821 56.6839 39.9433C56.8366 39.9045 56.9794 39.8339 57.1028 39.736C57.5199 39.6001 57.5714 39.2205 57.5996 38.8784C57.6277 38.5363 57.3558 38.4097 57.1309 38.2457C56.7622 38.5133 56.4447 38.8451 56.1935 39.2252C56.1935 39.2252 56.1935 39.258 56.1935 39.272L56.006 39.4642C55.8276 39.5625 55.6204 39.5957 55.4202 39.5579C55.2186 39.5579 55.0265 39.7594 54.8203 39.6001L54.9656 38.9065V38.7987L55.1905 38.4097C55.2086 38.3846 55.2213 38.356 55.2278 38.3257C55.2343 38.2954 55.2345 38.2641 55.2283 38.2337C55.2221 38.2034 55.2098 38.1746 55.192 38.1493C55.1742 38.1239 55.1514 38.1025 55.1249 38.0864L54.914 37.9458C54.9609 37.6412 55.003 37.3694 55.0405 37.1023C55.2036 36.6332 55.2135 36.1245 55.0687 35.6495C55.0382 35.4664 55.0382 35.2796 55.0687 35.0965C55.1442 34.7855 55.1246 34.459 55.0124 34.1593C54.9439 34.0452 54.9125 33.9127 54.9226 33.7801C54.9327 33.6475 54.9837 33.5212 55.0687 33.4188C55.1202 33.3438 55.1437 33.2501 55.1905 33.1705C55.2874 32.9356 55.4502 32.7338 55.6592 32.5894C55.7171 32.5698 55.767 32.5316 55.8009 32.4807C55.8348 32.4299 55.8509 32.3692 55.8467 32.3082L55.9357 32.2098C55.986 32.1724 56.0282 32.1254 56.06 32.0715C56.0917 32.0176 56.1124 31.9578 56.1207 31.8958C56.129 31.8338 56.1247 31.7707 56.1083 31.7104C56.0918 31.65 56.0634 31.5935 56.0248 31.5443C55.9357 31.4037 55.7483 31.2397 55.7717 31.1319C55.7951 31.0241 56.0154 30.8882 56.1513 30.7711C56.1513 30.5555 55.992 30.4946 55.8279 30.4337C55.5702 30.3306 55.3124 30.2275 55.0499 30.1384C54.8957 30.1001 54.7391 30.0719 54.5812 30.0541C54.398 29.9834 54.202 29.9519 54.0058 29.9616C53.8097 29.9712 53.6177 30.0219 53.4423 30.1103C53.375 30.1513 53.295 30.1663 53.2174 30.1525C53.1315 30.1265 53.0571 30.0719 53.0065 29.9978C52.9502 29.9088 53.0065 29.8198 53.1049 29.7729C53.2028 29.7419 53.2911 29.6864 53.3616 29.6118C53.4321 29.5372 53.4825 29.4459 53.5079 29.3464C53.5815 29.0925 53.61 28.8276 53.5923 28.5638C53.573 28.4782 53.5782 28.3889 53.6072 28.306C53.6362 28.2231 53.6879 28.1501 53.7564 28.0952C53.8098 28.0384 53.8584 27.9773 53.9016 27.9124C54.0679 27.7989 54.24 27.6941 54.4172 27.5984C54.8004 27.4195 55.1312 27.1452 55.378 26.8018C55.2983 26.6237 55.2046 26.4316 55.1296 26.2347C55.0574 26.099 55.0188 25.9479 55.0171 25.7942C55.0402 25.6541 55.0129 25.5103 54.9399 25.3885C54.867 25.2666 54.7532 25.1746 54.6187 25.1288C54.5016 25.053 54.3757 24.9916 54.2438 24.946C54.0329 24.9038 53.9345 24.7445 53.8173 24.6086C53.6345 24.393 53.6345 24.3508 53.8173 24.14C53.9803 23.9936 54.0907 23.7976 54.1313 23.5823C54.1617 23.5634 54.1872 23.5375 54.2057 23.5068C54.2241 23.476 54.2349 23.4413 54.2372 23.4056C54.2395 23.3698 54.2332 23.334 54.2188 23.3012C54.2045 23.2683 54.1825 23.2394 54.1547 23.2168C54.0407 23.1155 53.8947 23.0574 53.7423 23.0527C53.5882 23.0641 53.4419 23.1249 53.3252 23.2261C53.0841 23.4237 52.7999 23.5617 52.4956 23.6291C52.3128 23.676 52.0503 23.6807 51.9847 23.9056C51.8719 24.1746 51.7133 24.4219 51.516 24.6367C51.4362 24.7085 51.3428 24.7636 51.2415 24.799C51.1401 24.8344 51.0327 24.8493 50.9255 24.8429C50.5233 24.8632 50.1283 24.731 49.8194 24.4727C49.6646 24.419 49.5192 24.3415 49.3882 24.2431C49.2617 24.1118 49.182 23.9338 49.0086 23.8635C48.8305 23.9619 48.9336 24.079 48.9523 24.1962C48.964 24.3209 48.964 24.4464 48.9523 24.5711C48.9523 24.6976 48.9523 24.8242 48.9523 24.9507V25.0444L48.8633 25.1428C48.7368 25.2365 48.6102 25.3303 48.4884 25.4287H48.2399C47.6025 25.3725 47.3869 25.7942 47.2651 26.2441C47.1807 26.5768 47.1151 26.9142 47.0636 27.2517C47.0214 27.5 47.012 27.7484 46.9886 27.9968C46.9812 28.0672 46.9915 28.1383 47.0185 28.2038C47.0455 28.2692 47.0884 28.3269 47.1432 28.3717C47.3213 28.5263 47.4901 28.6904 47.6775 28.8403C48.0244 29.1027 48.0478 29.3089 47.7431 29.651C47.6716 29.7139 47.6058 29.7829 47.5463 29.8572C47.4854 29.9557 47.3916 30.0775 47.401 30.1806C47.4088 30.2433 47.4038 30.3069 47.3864 30.3676C47.369 30.4283 47.3395 30.4849 47.2997 30.5339C47.2598 30.583 47.2105 30.6234 47.1546 30.6529C47.0987 30.6824 47.0375 30.7003 46.9745 30.7055C46.8932 30.7282 46.8179 30.7686 46.7539 30.8236C46.69 30.8787 46.6389 30.9471 46.6042 31.0241C46.5011 31.1788 46.4402 31.3569 46.3465 31.5209C46.2294 31.7261 46.1711 31.9596 46.1777 32.1957C46.1775 32.4914 46.1492 32.7864 46.0934 33.0767C45.9786 33.5811 45.9786 34.1048 46.0934 34.6091C46.1401 34.808 46.1401 35.0149 46.0934 35.2137C46.0416 35.3768 46.0416 35.552 46.0934 35.7151C46.1918 35.9588 46.2715 36.2119 46.3512 36.4649C46.4122 36.7383 46.4905 37.0075 46.5855 37.271C46.7917 37.7396 47.0542 38.2082 47.2745 38.6441C47.237 39.0424 47.1995 39.4407 47.1526 39.8812C47.0373 39.8396 46.926 39.7879 46.8198 39.7266C46.5433 39.5016 46.2621 39.258 46.0043 39.033C45.958 38.9723 45.8922 38.9294 45.8179 38.9115C45.7437 38.8936 45.6655 38.9017 45.5966 38.9346C45.5367 39.3743 45.6258 39.8214 45.8497 40.2046C46.0887 40.6357 46.5855 40.6732 46.9604 40.8232L47.1667 42.0416L48.4696 43.1084C48.3471 43.2699 48.2826 43.468 48.2868 43.6707C48.3103 43.9185 48.3103 44.168 48.2868 44.4158C48.2329 44.6913 48.2329 44.9746 48.2868 45.25C48.4104 45.5739 48.4491 45.9239 48.3993 46.2669C48.3042 46.5721 48.3042 46.899 48.3993 47.2042C48.5437 47.6221 48.5648 48.0727 48.4602 48.5023C48.4358 48.6702 48.4486 48.8413 48.4977 49.0037C48.5314 49.1626 48.5752 49.3191 48.629 49.4724C48.6811 49.7685 46.7064 49.8878 46.5574 50.1489C46.3295 50.4529 46.2196 50.8292 46.248 51.208C46.2722 51.4252 46.2531 51.645 46.1918 51.8547C46.0723 52.1784 46.0723 52.534 46.1918 52.8576C46.2425 53.011 46.2832 53.1676 46.3137 53.3262C46.3346 53.4298 46.3346 53.5366 46.3137 53.6402C46.2299 54.0098 46.2814 54.3973 46.459 54.7321C46.5165 54.8336 46.5467 54.9482 46.5467 55.0648C46.5467 55.1815 46.5165 55.2961 46.459 55.3976C46.2677 55.8405 46.2217 56.3327 46.3277 56.8035C46.3984 57.114 46.3838 57.4378 46.2855 57.7407C46.2369 57.889 46.2189 58.0457 46.2326 58.2011C46.2463 58.3566 46.2914 58.5077 46.3652 58.6452ZM50.7896 39.2673C50.7896 39.2111 50.8646 39.1595 50.8974 39.1221C51.0755 39.1221 51.2395 39.3001 51.2301 39.436C51.2198 39.4693 51.2009 39.4993 51.1754 39.5232C51.15 39.547 51.1188 39.5638 51.0849 39.5719C51.0431 39.5828 50.9992 39.5824 50.9577 39.5708C50.9161 39.5592 50.8784 39.5367 50.8484 39.5057C50.8184 39.4748 50.7971 39.4364 50.7868 39.3945C50.7764 39.3526 50.7774 39.3087 50.7896 39.2673ZM48.8211 48.0213C48.6323 48.0358 48.4441 47.9862 48.2868 47.8807C48.4464 47.9797 48.6344 48.0226 48.8211 48.0026V48.0213ZM54.1641 39.8578C54.1641 39.6985 54.0891 39.586 53.9204 39.5907C54.0891 39.5907 54.1688 39.6985 54.1782 39.8625C54.3728 40.087 54.4765 40.3762 54.4687 40.6732C54.4754 40.521 54.4519 40.3689 54.3996 40.2258C54.3473 40.0826 54.2673 39.9512 54.1641 39.8391V39.8578ZM50.4381 54.0854C50.4381 54.0292 50.3771 53.9823 50.349 53.9308C50.3579 53.8429 50.3449 53.7542 50.3114 53.6725C50.2779 53.5908 50.2248 53.5185 50.1569 53.4621C50.1569 53.2841 50.2272 53.1669 50.4521 53.2325C51.1036 53.42 51.3239 53.4856 51.2958 54.3338C51.2958 54.3947 51.2958 54.4556 51.2676 54.54C51.1739 54.54 51.0849 54.5822 51.0005 54.5868C50.5084 54.6009 50.5131 54.5962 50.4381 54.0854Z" fill="#D25046"/>
<path d="M51.9191 66.3072C52.1703 66.0181 52.3113 65.6497 52.3175 65.2668C52.2927 65.1154 52.2104 64.9795 52.0878 64.8873C51.9707 64.7935 51.8629 64.9247 51.7644 64.9997C51.637 65.1164 51.4871 65.2057 51.3239 65.2622C50.9369 65.3849 50.5816 65.5913 50.2834 65.8667C50.0163 66.0495 49.9975 66.176 50.0866 66.5087C50.1042 66.6175 50.1559 66.7178 50.2342 66.7953C50.3126 66.8728 50.4135 66.9234 50.5224 66.9399C50.6114 66.9615 50.699 66.9881 50.7849 67.0195L51.7223 67.371C51.7566 67.3506 51.7856 67.3223 51.8069 67.2886C51.8282 67.2548 51.8412 67.2165 51.8449 67.1767C51.8485 67.1369 51.8427 67.0969 51.8279 67.0598C51.8131 67.0227 51.7898 66.9896 51.7598 66.9633C51.6851 66.8744 51.635 66.7675 51.6144 66.6532C51.5939 66.5389 51.6036 66.4213 51.6426 66.3119C51.7457 66.3119 51.8816 66.3494 51.9191 66.3072Z" fill="#D25046"/>
<path d="M47.8883 64.6295C47.953 64.7515 48.0369 64.8622 48.1367 64.9576C48.2141 65.045 48.2659 65.152 48.2865 65.2669C48.3072 65.3817 48.2959 65.5001 48.2539 65.609L48.1977 65.8292C48.1503 65.9402 48.1111 66.0546 48.0805 66.1713C48.0646 66.2144 48.0587 66.2605 48.0631 66.3062C48.0676 66.3519 48.0823 66.396 48.1062 66.4352C48.13 66.4744 48.1625 66.5077 48.2011 66.5326C48.2396 66.5575 48.2833 66.5734 48.3289 66.579C48.43 66.5986 48.5347 66.5872 48.6293 66.5462C48.7238 66.5052 48.8037 66.4366 48.8585 66.3494C48.933 66.2478 49.0362 66.1708 49.1548 66.1283C49.2733 66.0857 49.4019 66.0795 49.5241 66.1104C49.6112 66.1213 49.6994 66.1213 49.7865 66.1104L49.2053 65.3465C49.3423 65.1539 49.4995 64.9764 49.674 64.817C49.9459 64.6155 50.2646 64.4796 50.5552 64.2968C50.6276 64.2588 50.6903 64.2046 50.7385 64.1385C50.7867 64.0724 50.8191 63.9961 50.8331 63.9155C50.8472 63.8349 50.8425 63.7521 50.8195 63.6736C50.7965 63.5951 50.7558 63.5229 50.7004 63.4626C50.5677 63.2888 50.3888 63.1558 50.1841 63.0787C49.9794 63.0017 49.7572 62.9837 49.5428 63.0268C49.4156 63.0586 49.2929 63.1058 49.1772 63.1674C48.878 63.3402 48.5323 63.4155 48.1883 63.383C48.0289 63.383 47.8743 63.383 47.7196 63.383L47.415 63.2752C46.8807 63.1112 46.6323 63.2096 46.3136 63.7438L46.6885 64.0672C46.8785 64.2517 47.1314 64.3572 47.3962 64.3624C47.6071 64.3577 47.7712 64.3952 47.8883 64.6295Z" fill="#D25046"/>
<path d="M43.0842 63.5893C42.9602 63.4372 42.8046 63.314 42.6282 63.2282C42.4517 63.1424 42.2587 63.0961 42.0625 63.0925C41.6368 63.1008 41.2261 63.2509 40.8955 63.519C40.7752 63.6082 40.6889 63.7357 40.6506 63.8804C40.6123 64.0252 40.6242 64.1786 40.6846 64.3157C40.79 64.5831 40.9728 64.8132 41.2095 64.9764C41.3495 65.0589 41.497 65.1279 41.65 65.1826C41.8656 65.0795 42.0765 64.9764 42.2874 64.8827C42.6196 64.685 42.8943 64.4039 43.0842 64.0673C43.1435 64.0018 43.1763 63.9166 43.1763 63.8283C43.1763 63.74 43.1435 63.6548 43.0842 63.5893Z" fill="#D25046"/>
<path d="M54.0046 64.0298C54.2095 64.1144 54.4347 64.1368 54.6522 64.0943C54.8697 64.0518 55.0699 63.9462 55.2279 63.7908C55.3732 63.6502 55.3872 63.4768 55.2279 63.3644C55.0784 63.2734 54.9217 63.195 54.7592 63.13C54.6734 63.0319 54.5675 62.9534 54.4486 62.9001C54.3296 62.8467 54.2006 62.8196 54.0702 62.8207C53.85 62.7879 53.6016 62.8207 53.5313 62.5021C53.4891 62.3568 53.3063 62.2537 53.1985 62.1272C53.1598 62.076 53.1053 62.039 53.0434 62.022C52.9815 62.0051 52.9157 62.0091 52.8564 62.0334C52.7297 62.0915 52.6075 62.1588 52.4908 62.235C52.6454 62.6755 52.5658 63.1722 52.9595 63.4721C52.847 63.6127 52.6454 63.6877 52.7064 63.9033C53.1409 63.7956 53.5991 63.8402 54.0046 64.0298Z" fill="#D25046"/>
<path d="M67.8353 26.0287C67.9433 26.2594 68.0654 26.4832 68.2009 26.6988C68.3368 26.9144 68.4071 26.9191 68.618 26.8019C68.829 26.6848 69.1805 26.4833 69.4898 26.3333C69.3959 26.1529 69.2828 25.9832 69.1523 25.8272C69.0532 25.7078 68.9294 25.6113 68.7894 25.5441C68.6495 25.477 68.4967 25.4409 68.3415 25.4382C68.2652 25.4293 68.1879 25.4393 68.1163 25.4673C68.0448 25.4952 67.9812 25.5404 67.9312 25.5987C67.8812 25.657 67.8463 25.7268 67.8296 25.8017C67.8129 25.8767 67.8148 25.9547 67.8353 26.0287Z" fill="#D25046"/>
<path d="M60.5989 31.1087C60.7952 31.1077 60.9884 31.0595 61.1622 30.9682C61.3359 30.8768 61.4851 30.745 61.5972 30.5838C61.6376 30.5307 61.663 30.4677 61.6709 30.4015C61.6788 30.3352 61.6688 30.268 61.6421 30.2069C61.6153 30.1457 61.5727 30.0928 61.5187 30.0537C61.4647 30.0145 61.4012 29.9904 61.3347 29.984C61.228 29.963 61.1181 29.963 61.0114 29.984C60.6692 30.073 60.3224 30.1714 59.9849 30.2792C59.8443 30.3214 59.7272 30.4011 59.7131 30.537C59.8553 30.636 59.9872 30.7491 60.1068 30.8744C60.165 30.949 60.2398 31.009 60.3252 31.0496C60.4106 31.0903 60.5043 31.1105 60.5989 31.1087Z" fill="#D25046"/>
<path d="M61.438 47.5576C61.3472 47.465 61.2501 47.3789 61.1474 47.2998C61.0542 47.4103 60.9896 47.5421 60.9594 47.6835C60.9292 47.8249 60.9342 47.9715 60.974 48.1105C60.974 48.2464 61.035 48.3823 61.0443 48.5229C61.0855 48.8058 61.206 49.0713 61.3918 49.2886C61.5776 49.5059 61.8211 49.6661 62.0942 49.7507C62.1682 49.7735 62.247 49.7753 62.3219 49.7558C62.3968 49.7363 62.4648 49.6963 62.5183 49.6404C62.5718 49.5845 62.6087 49.5148 62.6249 49.4391C62.641 49.3634 62.6358 49.2847 62.6097 49.2118C62.5208 48.9826 62.401 48.7666 62.2535 48.5698C61.9958 48.223 61.7145 47.8903 61.438 47.5576Z" fill="#D25046"/>
<path d="M65.581 49.2399C65.624 49.3219 65.6946 49.3862 65.7803 49.4213C65.8661 49.4564 65.9614 49.4602 66.0497 49.432C66.1413 49.4125 66.2244 49.3642 66.2868 49.2943C66.3492 49.2243 66.3876 49.1363 66.3965 49.043C66.4262 48.8885 66.4435 48.7317 66.4481 48.5744C66.4361 48.4683 66.4457 48.3609 66.4763 48.2586C66.5069 48.1564 66.5579 48.0613 66.6262 47.9792L66.7949 47.7168C66.7293 47.5997 66.6777 47.5059 66.6121 47.3794L66.4434 47.4356C66.1903 47.534 66.0169 47.6746 66.0872 47.9933C66.0872 48.0636 66.0216 48.1526 66.0169 48.237C65.9934 48.64 65.581 48.8275 65.581 49.2399Z" fill="#D25046"/>
<path d="M67.845 49.5162C67.9275 49.5534 68.0061 49.5989 68.0793 49.6522C68.2039 49.6831 68.3353 49.6702 68.4514 49.6155C68.5675 49.5609 68.6612 49.4679 68.7167 49.3522C68.7209 49.3096 68.711 49.2669 68.6886 49.2304C68.654 49.1455 68.6116 49.0639 68.5621 48.9867C68.4805 48.8612 68.373 48.7544 68.247 48.6736C68.1209 48.5928 67.9791 48.5398 67.8309 48.5181C67.7331 48.524 67.6413 48.5671 67.5742 48.6386C67.5071 48.71 67.4699 48.8044 67.47 48.9023C67.4888 49.1554 67.531 49.4178 67.845 49.5162Z" fill="#D25046"/>
<path d="M66.5747 52.3891C66.6705 52.2873 66.7553 52.1758 66.8278 52.0563C67.02 51.7986 67.02 51.7564 66.8278 51.4799C66.7763 51.4049 66.7153 51.3393 66.6591 51.269C66.3492 51.3512 66.0754 51.5342 65.8811 51.7892C65.7217 52.0001 65.7827 52.2344 66.0029 52.45C66.2232 52.6656 66.3638 52.5531 66.5747 52.3891Z" fill="#D25046"/>
<path d="M65.2061 39.5533C65.1194 39.463 65.0053 39.4039 64.8815 39.3853C64.7577 39.3666 64.6313 39.3894 64.5218 39.4502C64.3718 39.5205 64.1891 39.5158 64.0531 39.572C63.6501 39.7173 63.3829 39.7548 63.6173 40.3687V40.4109C63.7298 40.5843 63.8469 40.7576 64.086 40.7811C64.325 40.8045 64.4281 40.7811 64.5968 40.8186C64.6889 40.8489 64.7891 40.8424 64.8765 40.8005C64.9639 40.7586 65.0316 40.6844 65.0655 40.5936C65.103 40.4928 65.1666 40.4036 65.2497 40.3353C65.3329 40.267 65.4326 40.2219 65.5389 40.2047C65.7737 40.2115 66.0075 40.2398 66.2372 40.289C66.3263 39.9703 66.8324 39.9985 66.8934 39.5064L66.7106 39.333C66.6215 39.3986 66.5653 39.422 66.5512 39.4549C66.4874 39.5766 66.3885 39.6765 66.2674 39.7417C66.1463 39.8068 66.0085 39.8342 65.8716 39.8204C65.5811 39.8626 65.4123 39.6798 65.2061 39.5533ZM64.175 40.5983L64.025 40.5561L64.1984 40.5936C64.0438 40.4437 63.8938 40.3171 63.7298 40.1578L64.2359 40.5842C64.3587 40.6417 64.4949 40.6644 64.6296 40.6499C64.4763 40.6783 64.318 40.6604 64.175 40.5983Z" fill="#D25046"/>
<path d="M58.8274 48.8557C58.6998 48.9438 58.6016 49.0682 58.5456 49.2128C58.4896 49.3573 58.4784 49.5154 58.5133 49.6664C58.5133 49.868 58.5133 50.0039 58.5133 50.1351C58.5133 50.2663 58.5508 50.3928 58.6961 50.4256C58.8414 50.4584 58.9492 50.3413 59.0055 50.2054C59.0354 50.1178 59.0604 50.0286 59.0804 49.9382C59.0978 49.7758 59.1421 49.6174 59.2117 49.4696C59.2522 49.399 59.2762 49.3202 59.2818 49.2391C59.2875 49.1579 59.2748 49.0765 59.2445 49.001C59.1976 48.7432 59.0195 48.7104 58.8274 48.8557Z" fill="#D25046"/>
<path d="M67.7652 20.2175C67.7652 20.4331 67.7652 20.569 67.9526 20.6112C68.0378 20.6394 68.1299 20.6394 68.2151 20.6112C68.2752 20.5719 68.3173 20.5104 68.3323 20.4402C68.3472 20.3699 68.3337 20.2966 68.2948 20.2363C68.2481 20.1453 68.2324 20.0416 68.2502 19.9409C68.268 19.8402 68.3182 19.7481 68.3932 19.6786C68.5022 19.5378 68.5862 19.3793 68.6416 19.21C68.672 19.1251 68.672 19.0324 68.6416 18.9476C68.6234 18.8605 68.5809 18.7805 68.5189 18.7167C68.4569 18.653 68.3781 18.6081 68.2916 18.5875C68.2051 18.5669 68.1145 18.5713 68.0305 18.6002C67.9464 18.6291 67.8722 18.6813 67.8167 18.7507C67.6714 18.8726 67.5308 19.0319 67.6199 19.2194C67.7205 19.3628 67.786 19.5278 67.8113 19.7012C67.8365 19.8745 67.8207 20.0514 67.7652 20.2175Z" fill="#D25046"/>
<path d="M62.6521 34.0516C62.8067 34.0516 62.8911 33.9391 62.9192 33.7798C62.9192 33.7423 62.9708 33.7048 62.9942 33.6673C63.2192 33.3486 63.2192 33.1987 62.9942 32.9315C62.9071 32.843 62.8131 32.7615 62.713 32.6878C62.6624 32.5243 62.5664 32.3784 62.4361 32.2672C62.3058 32.1561 62.1467 32.0842 61.9772 32.0599C61.9107 32.0417 61.8404 32.043 61.7746 32.0635C61.7088 32.084 61.6502 32.1229 61.6059 32.1757C61.5615 32.2284 61.5332 32.2928 61.5242 32.3611C61.5153 32.4295 61.5261 32.4989 61.5554 32.5613C61.6678 32.8472 61.8178 33.119 61.9584 33.3955C62.0379 33.5469 62.1255 33.694 62.2209 33.836C62.2711 33.9029 62.3362 33.9572 62.411 33.9947C62.4859 34.0321 62.5684 34.0516 62.6521 34.0516Z" fill="#D25046"/>
<path d="M40.1033 36.1792C40.2204 36.1792 40.3611 35.9355 40.3611 35.7668C40.3522 35.678 40.3216 35.5927 40.272 35.5184C40.1689 35.3638 40.033 35.2279 39.9392 35.0498C39.9003 34.9827 39.843 34.9281 39.7741 34.8924C39.7052 34.8567 39.6275 34.8414 39.5502 34.8483C39.4394 35.0229 39.3893 35.2293 39.408 35.4352C39.4266 35.6412 39.5129 35.8352 39.6533 35.9871C39.7054 36.0552 39.7742 36.1087 39.853 36.1424C39.9319 36.176 40.0181 36.1887 40.1033 36.1792Z" fill="#D25046"/>
<path d="M64.5735 52.5062C64.7151 52.3858 64.8467 52.2541 64.9672 52.1126C65.0382 52.0386 65.0889 51.9475 65.1144 51.8481C65.1398 51.7488 65.1392 51.6446 65.1125 51.5455C65.0094 51.2081 64.8828 50.8754 64.7422 50.4771C64.3205 50.8221 64.0308 51.3022 63.922 51.8361C63.8958 51.9516 63.9026 52.0721 63.9416 52.1839C63.9805 52.2958 64.0501 52.3945 64.1423 52.4687C64.195 52.5301 64.2696 52.5684 64.3503 52.5754C64.4309 52.5824 64.511 52.5576 64.5735 52.5062Z" fill="#D25046"/>
<path d="M64.7328 47.6464C64.3719 47.4074 63.9501 47.3325 63.6736 47.0185C63.6736 46.995 63.6174 46.9904 63.5892 46.9763C63.4346 46.8966 63.3596 46.9763 63.2987 47.1122C63.2377 47.2481 63.0971 47.2669 63.2143 47.4215C63.2572 47.5023 63.2872 47.5892 63.3034 47.6792C63.3034 47.7823 63.3549 47.862 63.4721 47.862C63.6672 47.8827 63.8563 47.9417 64.0284 48.0358C64.2006 48.13 64.3524 48.2572 64.4751 48.4103C64.5688 48.1385 64.6438 47.8995 64.7328 47.6464Z" fill="#D25046"/>
<path d="M58.9585 27.9171C58.9585 27.8609 58.921 27.7718 58.8882 27.7625C58.8517 27.7554 58.8142 27.756 58.7779 27.764C58.7416 27.7721 58.7074 27.7875 58.6773 27.8093C58.6092 27.8849 58.558 27.9742 58.5273 28.0712C58.4966 28.1682 58.487 28.2707 58.4992 28.3717C58.4992 28.6482 58.4992 28.9293 58.4992 29.2058C58.4992 29.3886 58.4992 29.5714 58.4992 29.8104C58.9679 29.6042 59.0335 29.5245 58.9304 29.159C58.9304 29.1121 58.8929 29.0746 58.8835 29.0278C58.8039 28.7138 58.6773 28.3998 58.9117 28.0905C58.9455 28.0392 58.9619 27.9784 58.9585 27.9171Z" fill="#D25046"/>
<path d="M53.583 57.1362C53.6127 57.1617 53.6486 57.1788 53.687 57.1858C53.7255 57.1928 53.7651 57.1895 53.8018 57.1761C53.8386 57.1628 53.8711 57.1399 53.8961 57.1098C53.921 57.0797 53.9375 57.0436 53.9439 57.005C53.9688 56.8848 53.954 56.7599 53.9017 56.6488C53.7769 56.4678 53.6083 56.3213 53.4117 56.223C53.215 56.1247 52.9966 56.0777 52.7769 56.0865C52.9132 56.5206 53.1987 56.8925 53.583 57.1362Z" fill="#D25046"/>
<path d="M58.5508 60.3559C58.6136 60.2983 58.673 60.2373 58.7289 60.1731C58.5836 60.1731 58.4993 60.1731 58.4196 60.1403C58.3399 60.1075 58.204 60.1028 58.0868 60.0794L58.204 59.906H57.9931C57.9197 59.8776 57.8446 59.8541 57.7681 59.8357C57.7301 59.8279 57.6906 59.8305 57.6539 59.8433C57.6172 59.8561 57.5847 59.8786 57.5597 59.9083C57.5347 59.9381 57.5183 59.9741 57.512 60.0124C57.5058 60.0508 57.5101 60.0901 57.5244 60.1262C57.6024 60.257 57.6935 60.3795 57.7963 60.4918C57.9181 60.6605 58.1853 60.6839 58.2321 60.937C58.2321 60.9745 58.4055 61.026 58.4665 61.0026C58.5274 60.9791 58.5508 60.8385 58.4665 60.7636C58.3259 60.5808 58.3962 60.4683 58.5508 60.3559Z" fill="#D25046"/>
<path d="M58.8838 39.3141C58.9869 39.3375 59.0947 39.3469 59.3009 39.3797C59.3665 39.3047 59.4368 39.2016 59.5212 39.1126C59.5702 39.0732 59.6043 39.0184 59.6179 38.957C59.6315 38.8957 59.6239 38.8315 59.5962 38.7752C59.5197 38.5921 59.4238 38.4177 59.3103 38.255C59.2765 38.2117 59.2344 38.1756 59.1864 38.1488C59.1385 38.1221 59.0857 38.1051 59.0311 38.099C58.9766 38.0929 58.9213 38.0977 58.8687 38.1132C58.816 38.1288 58.767 38.1546 58.7244 38.1894C58.6226 38.2523 58.541 38.3432 58.4895 38.4512C58.438 38.5593 58.4187 38.6799 58.4338 38.7986C58.4526 38.9182 58.5048 39.03 58.5844 39.1213C58.664 39.2125 58.7678 39.2793 58.8838 39.3141Z" fill="#D25046"/>
<path d="M58.471 35.181C58.4087 35.3574 58.3571 35.5374 58.3164 35.7199C58.2541 35.9061 58.2517 36.107 58.3098 36.2945C58.3678 36.482 58.4832 36.6466 58.6398 36.765C58.6839 36.797 58.7344 36.8192 58.7878 36.8302C58.8412 36.8411 58.8963 36.8406 58.9495 36.8287C59.0027 36.8167 59.0528 36.7935 59.0963 36.7607C59.1399 36.728 59.176 36.6863 59.2022 36.6385C59.3194 36.4229 59.4178 36.1698 59.5162 35.9683C59.5961 35.7654 59.6109 35.5427 59.5584 35.331C59.4634 35.0366 59.3157 34.7619 59.1225 34.5203C59.0405 34.375 58.9849 34.2163 58.9585 34.0516C58.9847 33.8894 59.0336 33.7316 59.1038 33.583C59.1084 33.5206 59.1084 33.4579 59.1038 33.3955C59.235 32.9972 59.3568 32.5989 59.5021 32.2052C59.5655 32.0473 59.5655 31.8711 59.5021 31.7132C59.4553 31.5819 59.4037 31.4507 59.3522 31.3195C59.3488 31.2244 59.3124 31.1334 59.249 31.0624C59.1857 30.9914 59.0995 30.9447 59.0053 30.9305C58.9409 30.918 58.8813 30.8876 58.8333 30.8428C58.7852 30.7981 58.7507 30.7408 58.7335 30.6775C58.6351 30.4619 58.4242 30.4197 58.2929 30.6072C58.1617 30.7946 58.1101 30.9633 58.1664 31.0758C58.3117 31.357 58.1664 31.6288 58.2273 31.9006C58.0352 32.1396 58.1711 32.4161 58.143 32.6692C58.1133 32.8793 58.1316 33.0935 58.1966 33.2956C58.2615 33.4977 58.3714 33.6825 58.5179 33.8361C58.6056 33.9257 58.6613 34.0418 58.6766 34.1662C58.6918 34.2907 58.6657 34.4168 58.6023 34.5249C58.5337 34.7379 58.4897 34.9581 58.471 35.181Z" fill="#D25046"/>
<path d="M68.4963 22.8325C68.3182 22.6966 68.187 22.72 68.0792 22.9168C68.0347 22.9995 68.0016 23.0877 67.9808 23.1792C67.9433 23.348 67.9198 23.5167 67.887 23.6807C67.8145 23.7136 67.7561 23.7714 67.7226 23.8436C67.6891 23.9158 67.6825 23.9977 67.7042 24.0743C67.7076 24.1802 67.7418 24.2828 67.8027 24.3696C67.87 24.4362 67.9571 24.4791 68.051 24.4918C68.1449 24.5045 68.2403 24.4863 68.3229 24.4399C68.3991 24.4209 68.465 24.3733 68.5069 24.3069C68.5488 24.2406 68.5635 24.1606 68.5479 24.0837C68.5266 23.9758 68.5417 23.8639 68.5909 23.7655C68.6401 23.6671 68.7206 23.5878 68.8197 23.5401C68.8407 23.5171 68.8566 23.4899 68.8666 23.4604C68.817 23.2155 68.6866 22.9944 68.4963 22.8325Z" fill="#D25046"/>
<path d="M68.0044 34.0562C68.0777 34.0825 68.1529 34.1029 68.2294 34.1172C68.4215 34.1172 68.6418 33.9578 68.6324 33.8079C68.6179 33.6758 68.5581 33.5529 68.4634 33.4598C68.3686 33.3667 68.2445 33.3092 68.1122 33.2971C67.8872 33.2736 67.6998 33.5033 67.6435 33.7001C67.5873 33.8969 67.7748 34 68.0044 34.0562Z" fill="#D25046"/>
<path d="M33.6593 34.3796C33.6593 34.2203 33.5281 34.1922 33.4437 34.1125C33.2797 33.9626 33.0781 33.8313 33.1391 33.5642C32.9939 33.5347 32.8435 33.5429 32.7024 33.5881C32.5613 33.6332 32.4341 33.7137 32.3329 33.822C31.9767 34 31.9346 34.3468 31.8643 34.6796C31.8619 34.7123 31.8619 34.7452 31.8643 34.778C31.7651 35.1871 31.5744 35.5685 31.3065 35.8933C31.1768 36.0699 31.0639 36.2581 30.9691 36.4557C30.7816 36.7743 30.8144 36.8868 31.1378 37.1586C31.344 37.4679 31.6065 37.332 31.8783 37.2758C31.8783 37.1446 31.8783 37.0368 31.8783 36.929C31.8783 36.5119 31.8783 36.5119 32.2486 36.2963H32.4361L32.6282 36.3854C32.6891 36.4838 32.7548 36.4838 32.8157 36.3854L32.9094 36.2916L32.9985 36.1932C33.0313 36.1276 33.0641 36.0667 33.0922 36.0011C33.0945 35.973 33.0945 35.9448 33.0922 35.9167C33.3212 35.6329 33.5075 35.3171 33.6453 34.9795C33.7718 34.8998 33.7437 34.7827 33.7156 34.6655C33.6874 34.5483 33.6827 34.464 33.6593 34.3796Z" fill="#D25046"/>
<path d="M60.6459 25.8273L60.7396 25.7289L60.8334 25.6351L61.3021 25.4196C60.8709 25.2415 60.8334 25.2462 60.5522 25.4477C60.3783 25.5086 60.2091 25.5822 60.046 25.6679C59.977 25.7179 59.9199 25.7824 59.8786 25.8568C59.8373 25.9313 59.8129 26.0139 59.8071 26.0989C59.8013 26.1838 59.8142 26.269 59.845 26.3484C59.8757 26.4278 59.9235 26.4995 59.9851 26.5583C60.1022 26.2116 60.4256 26.0475 60.6459 25.8273Z" fill="#D25046"/>
<path d="M56.6198 27.5517C56.6786 27.5782 56.7452 27.5814 56.8062 27.5605C56.8671 27.5396 56.9178 27.4962 56.9479 27.4392C57.0018 27.375 57.0359 27.2965 57.0459 27.2133C57.0559 27.13 57.0414 27.0457 57.0042 26.9706C56.8964 26.7691 56.7839 26.6332 56.5355 26.7082C56.4721 26.7983 56.4299 26.9016 56.412 27.0103C56.3941 27.1191 56.4011 27.2304 56.4324 27.3361C56.4478 27.3827 56.4723 27.4257 56.5045 27.4627C56.5367 27.4997 56.5759 27.53 56.6198 27.5517Z" fill="#D25046"/>
<path d="M63.3781 26.7644C63.4153 26.7933 63.4601 26.8106 63.507 26.8141C63.554 26.8176 63.6009 26.8072 63.6419 26.7842C63.6829 26.7612 63.7163 26.7266 63.7377 26.6847C63.7592 26.6428 63.7678 26.5956 63.7625 26.5488C63.7589 26.4128 63.74 26.2776 63.7062 26.1458C63.7013 26.1183 63.69 26.0923 63.6732 26.07C63.6563 26.0476 63.6345 26.0296 63.6094 26.0172C63.5843 26.0049 63.5566 25.9987 63.5287 25.999C63.5007 25.9994 63.4732 26.0063 63.4484 26.0193C63.3747 26.0401 63.2995 26.0558 63.2235 26.0661C63.2235 26.188 63.1954 26.2911 63.1766 26.3988C63.1157 26.5816 63.2375 26.68 63.3781 26.7644Z" fill="#D25046"/>
<path d="M56.7792 23.7278C56.8639 23.6846 56.9336 23.6166 56.9788 23.5329C57.024 23.4492 57.0426 23.3537 57.0323 23.2592C57.0088 23.0858 56.8823 23.0389 56.7323 23.0155L56.5683 22.9827C56.5146 23.0753 56.4803 23.178 56.4674 23.2843C56.4545 23.3906 56.4633 23.4984 56.4933 23.6013C56.4959 23.6331 56.5071 23.6637 56.5257 23.6898C56.5442 23.7158 56.5694 23.7364 56.5987 23.7493C56.6279 23.7623 56.6601 23.7671 56.6919 23.7633C56.7236 23.7595 56.7538 23.7473 56.7792 23.7278Z" fill="#D25046"/>
<path d="M61.6582 39.6376C61.7378 39.6844 61.8925 39.7219 61.9488 39.6798C62.0419 39.5978 62.121 39.5013 62.1831 39.3939C62.1831 39.1033 62.0425 38.9815 61.8503 39.0471C61.7769 39.0752 61.7075 39.1131 61.6441 39.1596C61.6062 39.1874 61.5756 39.2241 61.555 39.2663C61.5344 39.3086 61.5243 39.3553 61.5257 39.4023C61.5271 39.4493 61.5399 39.4953 61.5629 39.5363C61.586 39.5772 61.6187 39.612 61.6582 39.6376Z" fill="#D25046"/>
<path d="M30.3736 49.4272C30.308 49.7928 30.3736 49.9662 30.622 50.1114C30.6429 50.13 30.6679 50.1432 30.6949 50.1501C30.722 50.1569 30.7503 50.1571 30.7774 50.1507C30.8045 50.1442 30.8297 50.1313 30.8508 50.1131C30.8719 50.0948 30.8883 50.0718 30.8986 50.0458C30.9249 49.9994 30.9387 49.9469 30.9387 49.8935C30.9387 49.8402 30.9249 49.7877 30.8986 49.7412C30.8001 49.4788 30.5799 49.4788 30.3736 49.4272Z" fill="#D25046"/>
<path d="M61.935 29.1638C61.8946 29.3311 61.9083 29.5069 61.9739 29.666C62.0396 29.8251 62.1539 29.9593 62.3006 30.0495C62.3745 29.9991 62.4254 29.9215 62.4421 29.8336C62.4588 29.7457 62.4399 29.6548 62.3896 29.5808C62.2678 29.3887 62.2724 29.1122 61.935 29.1638Z" fill="#D25046"/>
<path d="M62.0098 28.4279C61.9454 28.4855 61.8982 28.5597 61.8734 28.6424C61.8486 28.7251 61.8471 28.813 61.8692 28.8965C61.8692 28.9668 62.0613 29.0137 62.1691 29.0605C62.1691 29.0605 62.2253 29.0605 62.3003 29.0605C62.3173 28.8703 62.3173 28.679 62.3003 28.4888C62.2675 28.3576 62.1316 28.3388 62.0098 28.4279Z" fill="#D25046"/>
<path d="M61.8972 35.8793C62.0566 35.8184 62.0659 35.6731 62.0566 35.5232C62.0579 35.4998 62.0543 35.4765 62.0461 35.4546C62.0379 35.4327 62.0253 35.4128 62.009 35.396C61.9927 35.3793 61.9731 35.3661 61.9514 35.3573C61.9297 35.3486 61.9065 35.3444 61.8831 35.3451C61.8207 35.3349 61.7567 35.3485 61.7037 35.3832C61.6508 35.4179 61.6128 35.4712 61.5972 35.5325C61.5972 35.6216 61.5597 35.7106 61.5457 35.7809C61.5809 35.8388 61.6367 35.8812 61.702 35.8995C61.7673 35.9178 61.8371 35.9106 61.8972 35.8793Z" fill="#D25046"/>
<path d="M65.8437 25.382C65.8495 25.4371 65.876 25.488 65.9176 25.5244C65.9593 25.5609 66.0132 25.5803 66.0686 25.5788C66.1952 25.5788 66.2983 25.4617 66.2889 25.2742C66.2374 25.2414 66.1577 25.1571 66.0733 25.1477C66.012 25.1489 65.9536 25.1742 65.9106 25.218C65.8677 25.2618 65.8436 25.3207 65.8437 25.382Z" fill="#D25046"/>
<path d="M41.1346 53.467C41.0033 53.467 40.9002 53.5983 40.9237 53.7623C40.9237 53.8185 40.994 53.8701 41.0689 53.9825C41.1603 53.8721 41.2404 53.7528 41.308 53.6264C41.308 53.6264 41.2096 53.4811 41.1346 53.467Z" fill="#D25046"/>
<path d="M61.2503 40.0592L61.0628 40.2514C60.7722 40.2514 60.7441 40.5419 60.6222 40.72C60.5941 40.7575 60.6503 40.9075 60.7113 40.9496C60.7366 40.9731 60.7667 40.9908 60.7996 41.0015C60.8324 41.0122 60.8671 41.0157 60.9014 41.0117C60.9357 41.0077 60.9688 40.9963 60.9982 40.9783C61.0277 40.9603 61.0529 40.9361 61.0722 40.9075C61.1143 40.9075 61.194 40.9075 61.1987 40.9496C61.2456 41.2402 61.4659 41.3292 61.6955 41.4183C61.725 41.4071 61.7532 41.3929 61.7799 41.3761C61.8924 41.287 61.9486 41.0527 62.1642 41.2261C62.2021 41.2082 62.2333 41.1787 62.2532 41.1418C62.2595 41.1208 62.2602 41.0985 62.2553 41.0771C62.2504 41.0558 62.24 41.0361 62.2251 41.0199C62.0002 40.8653 61.7564 40.7153 61.5455 40.5513C61.8596 40.3123 61.8596 40.2233 61.5455 40.0358C61.4377 39.9327 61.3627 39.9327 61.2503 40.0592Z" fill="#D25046"/>
<path d="M61.7849 16.5766C61.8378 17.0008 61.8534 17.4289 61.8317 17.8559C61.8136 18.023 61.8352 18.1919 61.8946 18.3491C61.9541 18.5062 62.0497 18.6471 62.1739 18.7604C62.3051 18.9197 62.4082 18.9103 62.5441 18.7604C62.5767 18.6984 62.6004 18.6321 62.6144 18.5635L62.755 18.7463C62.9006 18.9342 62.9693 19.1704 62.9472 19.4071C62.7501 19.4509 62.5738 19.5607 62.4477 19.7184C62.3215 19.8761 62.253 20.0721 62.2535 20.274C62.2851 20.4358 62.3577 20.5867 62.4644 20.7122C62.5711 20.8378 62.7083 20.9338 62.8628 20.991L63.3596 21.1363C63.532 21.1915 63.7166 21.1957 63.8913 21.1483C64.0659 21.1009 64.2231 21.004 64.3439 20.8692C64.5813 20.6303 64.779 20.355 64.9297 20.0538C65.0649 19.8649 65.1766 19.6603 65.2625 19.4446C65.3416 19.0298 65.5292 18.6433 65.8062 18.3245C65.9132 18.198 65.9667 18.0347 65.9553 17.8693C65.9439 17.704 65.8686 17.5496 65.7452 17.4388C65.6105 17.2484 65.4853 17.0513 65.3703 16.8484C65.3422 16.6609 65.2437 16.4547 65.3 16.3001C65.3473 16.1271 65.3596 15.9464 65.3363 15.7685C65.313 15.5907 65.2544 15.4193 65.1641 15.2644C65.1311 15.171 65.1045 15.0755 65.0844 14.9785C65.2077 14.882 65.3377 14.7943 65.4734 14.7161C65.5608 14.6813 65.6394 14.6276 65.7036 14.5588C65.7678 14.49 65.8159 14.4078 65.8446 14.3182C65.8733 14.2287 65.8818 14.1338 65.8694 14.0406C65.8571 13.9473 65.8243 13.8579 65.7734 13.7788C65.6297 13.5761 65.5379 13.3411 65.5062 13.0946C65.5089 13.0223 65.4836 12.9518 65.4356 12.8977C65.3875 12.8436 65.3205 12.8101 65.2484 12.8041C64.9347 12.7662 64.6309 12.6692 64.3532 12.5182C64.3954 12.4151 64.4798 12.3167 64.4657 12.2277C64.4444 11.953 64.3828 11.683 64.2829 11.4263C64.1658 11.1967 64.1189 11.1779 63.8143 11.3045C63.5987 11.1873 63.5237 11.356 63.4393 11.4966C63.2312 11.5905 63.0646 11.7572 62.9706 11.9652C62.9331 12.0262 62.891 12.148 62.8582 12.148C62.6144 12.148 62.516 12.3448 62.3613 12.4573C61.8505 12.8322 61.8927 13.2587 62.4738 13.5914C62.5757 13.4629 62.6593 13.321 62.7222 13.1696C62.7277 13.1252 62.7455 13.0832 62.7737 13.0484C62.8019 13.0136 62.8393 12.9874 62.8816 12.9728C62.9882 12.9544 63.0979 12.9677 63.197 13.011C63.2961 13.0543 63.3804 13.1258 63.4393 13.2165C63.5625 13.4799 63.5923 13.7774 63.5237 14.06C63.5108 14.1854 63.4668 14.3055 63.3956 14.4095C63.3243 14.5134 63.2282 14.5979 63.1159 14.6552C63.0362 14.688 62.9847 14.7817 62.9191 14.852L62.5113 15.2878H62.4176C62.2817 15.2878 62.1411 15.2878 62.1364 15.4753H62.0426L61.9489 15.5737L61.8552 15.6674L61.7661 15.7611V15.9533C61.6958 15.9814 61.6958 16.0142 61.7661 16.047V16.1407C61.6911 16.1735 61.6911 16.2016 61.7661 16.2345V16.3047C61.6583 16.3844 61.663 16.4828 61.7849 16.5766ZM64.3158 19.7257C64.4798 19.8476 64.4704 19.6508 64.5548 19.6414C64.5876 19.6836 64.6298 19.7257 64.6485 19.7164C64.6673 19.707 64.5782 19.6742 64.5407 19.6508C64.5032 19.6273 64.4798 19.8476 64.3158 19.7257ZM63.3221 19.3883C63.3058 19.3048 63.3058 19.2188 63.3221 19.1353C63.3058 19.2188 63.3058 19.3048 63.3221 19.3883ZM65.0516 13.732C65.0094 13.671 64.9438 13.5961 64.911 13.6101C64.9485 13.6101 65.0141 13.6804 65.0703 13.7226C65.1266 13.7648 65.2063 13.6008 65.2391 13.7554C65.2063 13.6008 65.1266 13.732 65.061 13.7554L65.0516 13.732ZM62.8863 17.9496C62.7925 17.8278 62.8582 17.706 63.0081 17.6872C63.2753 17.6591 63.369 17.7388 63.4768 18.0996C63.3475 18.1138 63.2171 18.1138 63.0878 18.0996C63.0084 18.0733 62.9384 18.0244 62.8863 17.959V17.9496Z" fill="#D25046"/>
<path d="M33.0253 33.3992C33.0253 33.3992 33.0253 33.3718 33.0253 33.3673C33.0253 33.3627 32.998 33.3673 32.9843 33.3673L33.0116 33.4128L33.0253 33.3992Z" fill="#D25046"/>
<path d="M69.5226 51.4517L69.5618 51.4909C69.5633 51.4808 69.5633 51.4705 69.5618 51.4604L69.5226 51.4517Z" fill="#D25046"/>
<path d="M70.0776 51.9174L70.0384 51.8782C70.037 51.8883 70.037 51.8986 70.0384 51.9087L70.0776 51.9174Z" fill="#D25046"/>
<path d="M62.7077 18.7717L62.7425 18.7368C62.7425 18.7368 62.7425 18.7368 62.7164 18.7368C62.6902 18.7368 62.7077 18.763 62.7077 18.7717Z" fill="#D25046"/>
<path d="M52.6643 63.9425L52.7035 63.9033H52.673C52.673 63.9033 52.6686 63.9338 52.6643 63.9425Z" fill="#D25046"/>
<path d="M57.9932 24.1542C58.021 24.3104 58.1002 24.4529 58.2182 24.559C58.3362 24.6651 58.4863 24.7288 58.6446 24.7399C58.8133 24.7691 58.9868 24.7381 59.1349 24.6525C59.2831 24.5668 59.3965 24.432 59.4554 24.2713C59.546 24.0892 59.5941 23.8889 59.5961 23.6855C59.5961 23.3153 59.5961 22.9404 59.6242 22.5702C59.6523 22.2 59.657 21.7923 59.657 21.408C59.6595 21.283 59.6235 21.1603 59.5539 21.0565C59.4148 20.8323 59.3508 20.5697 59.3711 20.3067C59.4789 20.2317 59.4601 20.1192 59.4414 20.0115C59.4046 19.8574 59.3795 19.7007 59.3664 19.5428C59.3664 19.0461 59.3664 18.5493 59.3664 18.0479C59.3664 17.6683 59.3289 17.6355 58.8977 17.4902C58.6446 17.8323 58.6306 17.8323 58.6962 18.2026C58.7517 18.4234 58.7462 18.6552 58.6801 18.8731C58.6141 19.091 58.49 19.2869 58.3212 19.4397C58.2367 19.5114 58.1695 19.6014 58.1248 19.7029C58.0802 19.8044 58.0592 19.9147 58.0635 20.0255C57.9557 20.1005 57.9697 20.213 57.9932 20.3208C58.019 20.4831 58.0898 20.635 58.1975 20.7592C58.3051 20.8834 58.4454 20.975 58.6024 21.0237C58.6634 21.4923 58.6915 21.961 58.7805 22.3968C58.8143 22.547 58.8004 22.704 58.7408 22.846C58.6811 22.9879 58.5787 23.1077 58.4478 23.1888C58.3494 23.2638 58.2228 23.3012 58.1197 23.3715C57.7635 23.6199 57.7448 23.7886 58.0166 24.1776L57.9932 24.1542Z" fill="#D25046"/>
</svg>
