<svg width="30" height="29" viewBox="0 0 30 29" fill="none" xmlns="http://www.w3.org/2000/svg">
<path d="M11.1434 8.50977C13.4086 8.50977 15.245 6.67343 15.245 4.4082C15.245 2.14297 13.4086 0.306641 11.1434 0.306641C8.87817 0.306641 7.04184 2.14297 7.04184 4.4082C7.04184 6.67343 8.87817 8.50977 11.1434 8.50977Z" fill="#D25046"/>
<path d="M16.754 27.5547C15.9473 26.7481 15.3139 25.8083 14.8711 24.7615C14.4123 23.6768 14.1797 22.5256 14.1797 21.3399C14.1797 20.1541 14.4123 19.0029 14.8711 17.9182C15.3139 16.8715 15.9473 15.9317 16.754 15.1251C17.5606 14.3185 18.5003 13.685 19.5471 13.2422C19.9282 13.081 20.3176 12.9484 20.7137 12.8433C20.3226 10.9518 17.759 9.2998 15.0125 9.2998H7.27424C4.27887 9.2998 1.76579 12.5267 1.44797 15.5052L0.00674299 27.0749C-0.0671437 27.7674 0.47561 28.3711 1.172 28.3711H17.694C17.3636 28.1227 17.0497 27.8505 16.754 27.5547Z" fill="#D25046"/>
<path d="M22.9688 14.3086C19.0855 14.3086 15.9375 17.4566 15.9375 21.3398C15.9375 25.2231 19.0855 28.3711 22.9688 28.3711C26.852 28.3711 30 25.2231 30 21.3398C30 17.4566 26.852 14.3086 22.9688 14.3086ZM26.4784 19.8777L22.3112 24.0449C22.1395 24.2166 21.9146 24.3024 21.6897 24.3024C21.4648 24.3024 21.2398 24.2166 21.0683 24.0449L19.4591 22.4358C19.1159 22.0926 19.1159 21.5361 19.4591 21.1928C19.8023 20.8496 20.3588 20.8496 20.7021 21.1928L21.6897 22.1805L25.2355 18.6347C25.5787 18.2915 26.1352 18.2915 26.4785 18.6347C26.8217 18.9779 26.8217 19.5345 26.4784 19.8777Z" fill="#D25046"/>
</svg>
