<svg width="30" height="31" viewBox="0 0 30 31" fill="none" xmlns="http://www.w3.org/2000/svg">
<g clip-path="url(#clip0)">
<path d="M25.7238 23.9446C25.7206 23.9463 25.7171 23.948 25.7133 23.9498L21.5808 25.9021C21.6253 26.1309 21.6446 26.3637 21.6384 26.5967C21.632 26.8377 21.4347 27.0297 21.1937 27.0297C21.1895 27.0297 21.1853 27.0297 21.1811 27.0297L15.1329 26.8633C14.887 26.8566 14.6932 26.6519 14.6999 26.406C14.7066 26.16 14.9116 25.9662 15.1573 25.9729L20.7168 26.126C20.5324 25.0486 19.6138 24.2506 18.5212 24.2188L14.842 24.1177C14.1154 24.0968 13.4029 23.9128 12.7572 23.5791L12.3828 23.3854C10.5442 22.4274 8.32878 22.5521 6.60943 23.7105L6.46211 29.0629L7.09436 28.7243C7.72262 28.3864 8.45771 28.3059 9.14436 28.4999L15.3883 30.2526C16.5917 30.499 17.8422 30.3594 18.9616 29.8531L27.6121 24.2576C27.1184 23.7523 26.354 23.6253 25.7238 23.9446Z" fill="#D25046"/>
<path d="M2.39888 29.9923L2.61824 22.0291L5.76281 22.1158L5.54345 30.079L2.39888 29.9923Z" fill="#D25046"/>
<g clip-path="url(#clip1)">
<rect x="6.3158" y="-0.418457" width="20.5263" height="20.5263" fill="#D25046"/>
<path d="M14.7749 10.446H18.383V11.6488H14.7749V10.446Z" fill="#D04F45"/>
<path d="M22.9685 11.6487H19.5857V12.2501C19.5857 12.5824 19.3167 12.8515 18.9844 12.8515H14.1735C13.8412 12.8515 13.5722 12.5824 13.5722 12.2501V11.6487H10.1894C9.41184 11.6487 8.7242 11.1531 8.47802 10.4155L6.3158 3.92773V17.061C6.3158 18.0557 7.12512 18.865 8.11987 18.865H25.038C26.0328 18.865 26.8421 18.0557 26.8421 17.061V3.9282L24.6797 10.4155C24.4337 11.1531 23.7461 11.6487 22.9685 11.6487Z" fill="#D04F45"/>
<path d="M18.9844 0.824463H14.1735C13.1788 0.824463 12.3695 1.63379 12.3695 2.62853V3.22989H7.35048L9.61857 10.0351C9.70078 10.2811 9.93036 10.4462 10.1894 10.4462H13.5722V9.84482C13.5722 9.5125 13.8412 9.24346 14.1735 9.24346H18.9844C19.3167 9.24346 19.5857 9.5125 19.5857 9.84482V10.4462H22.9685C23.2276 10.4462 23.4571 10.2811 23.5394 10.0351L25.8076 3.22989H20.7885V2.62853C20.7885 1.63379 19.9791 0.824463 18.9844 0.824463ZM13.5722 3.22989V2.62853C13.5722 2.29669 13.8417 2.02718 14.1735 2.02718H18.9844C19.3162 2.02718 19.5857 2.29669 19.5857 2.62853V3.22989H13.5722Z" fill="#D04F45"/>
</g>
</g>
<defs>
<clipPath id="clip0">
<rect y="0.371094" width="30" height="30" fill="white"/>
</clipPath>
<clipPath id="clip1">
<rect x="6.3158" y="-0.418457" width="20.5263" height="20.5263" fill="white"/>
</clipPath>
</defs>
</svg>
