<svg width="28" height="31" viewBox="0 0 28 31" fill="none" xmlns="http://www.w3.org/2000/svg">
<path d="M14.0003 3.2555C14.3188 3.2555 14.5767 2.99763 14.5767 2.67849V0.948103C14.5767 0.629599 14.3188 0.371094 14.0003 0.371094C13.6818 0.371094 13.4233 0.629599 13.4233 0.948103V2.67849C13.4233 2.99763 13.6818 3.2555 14.0003 3.2555Z" fill="#D25046"/>
<path d="M7.87089 4.47587C7.97812 4.66098 8.17152 4.76438 8.3713 4.76438C8.46896 4.76438 8.56853 4.73949 8.65917 4.68715C8.93555 4.52758 9.03001 4.17524 8.87044 3.89887L8.00493 2.40017C7.84536 2.1238 7.49302 2.02933 7.21665 2.1889C6.94091 2.34847 6.84644 2.70081 7.00537 2.97718L7.87089 4.47587Z" fill="#D25046"/>
<path d="M4.53839 7.80828L3.0397 6.9434C2.76333 6.78383 2.41099 6.87893 2.25142 7.15467C2.09249 7.43041 2.18695 7.78338 2.46269 7.94295L3.96138 8.80783C4.05202 8.86017 4.15159 8.88506 4.24925 8.88506C4.44903 8.88506 4.64243 8.78166 4.74967 8.59656C4.9086 8.32082 4.81413 7.96785 4.53839 7.80828Z" fill="#D25046"/>
<path d="M3.318 13.9378C3.318 13.6193 3.0595 13.3608 2.74099 13.3608H1.0106C0.692099 13.3608 0.433594 13.6193 0.433594 13.9378C0.433594 14.2564 0.692099 14.5149 1.0106 14.5149H2.74099C3.0595 14.5149 3.318 14.2564 3.318 13.9378Z" fill="#D25046"/>
<path d="M3.96139 19.0677L2.46206 19.9319C2.18632 20.0915 2.09121 20.4445 2.25015 20.7196C2.35674 20.9053 2.55142 21.0081 2.75056 21.0081C2.84822 21.0081 2.94779 20.9832 3.03843 20.9309L4.53712 20.0666C4.8135 19.907 4.90796 19.5541 4.74903 19.279C4.5901 19.002 4.23776 18.9081 3.96139 19.0677Z" fill="#D25046"/>
<path d="M25.5386 19.9332L24.0399 19.0677C23.7629 18.9082 23.4112 19.002 23.2516 19.2784C23.0921 19.5547 23.1859 19.9071 23.4623 20.0666L24.961 20.9315C25.0529 20.9845 25.1512 21.0088 25.2488 21.0088C25.4486 21.0088 25.642 20.9053 25.7492 20.7209C25.9075 20.4458 25.8143 20.0915 25.5386 19.9332Z" fill="#D25046"/>
<path d="M26.9901 13.3615L25.2609 13.3608C24.9418 13.3608 24.6839 13.6193 24.6839 13.9372C24.6839 14.2564 24.9418 14.5142 25.2597 14.5142L26.9901 14.5149C27.3079 14.5149 27.5664 14.2564 27.5664 13.9385C27.5664 13.62 27.3092 13.3615 26.9901 13.3615Z" fill="#D25046"/>
<path d="M23.7508 8.88441C23.849 8.88441 23.9486 8.85952 24.0386 8.80718L25.5379 7.94294C25.8143 7.78401 25.9088 7.43104 25.7499 7.1553C25.5903 6.87892 25.2367 6.78446 24.9616 6.94403L23.4629 7.80827C23.1859 7.96784 23.092 8.32081 23.251 8.59591C23.3582 8.78101 23.5522 8.88441 23.7508 8.88441Z" fill="#D25046"/>
<path d="M19.3415 4.6859C19.4321 4.73888 19.5311 4.76377 19.6294 4.76377C19.8285 4.76377 20.0219 4.66037 20.1291 4.47527L20.9934 2.97721C21.1529 2.70147 21.0591 2.3485 20.7827 2.18957C20.5064 2.02936 20.154 2.12383 19.9945 2.40084L19.1302 3.89889C18.9713 4.174 19.0664 4.52697 19.3415 4.6859Z" fill="#D25046"/>
<path fill-rule="evenodd" clip-rule="evenodd" d="M4.8754 13.8102C4.8754 8.94649 8.96871 4.98785 14.0003 4.98657C19.0319 4.98657 23.1259 8.94457 23.1265 13.8096C23.1265 16.9689 21.8441 18.8484 20.9078 20.2205L20.9065 20.2224C20.3206 21.0803 19.9925 21.5877 19.9925 22.0977C19.9925 23.2421 19.3785 24.3202 18.2883 25.1296C18.2609 25.8087 18.1613 27.4631 18.1613 27.4631C18.1479 27.9201 17.9098 28.8954 16.2739 29.4399C16.0843 29.7207 15.8328 29.9697 15.5284 30.1733C15.3375 30.3035 15.1135 30.3711 14.8837 30.3711H13.1169C12.8871 30.3711 12.6625 30.3016 12.4723 30.1733C12.1684 29.9703 11.9176 29.7207 11.7267 29.4399C10.1055 28.9012 9.85784 27.9367 9.83997 27.4663V27.4644C9.83997 27.4644 9.73976 25.8074 9.71232 25.1289C8.62213 24.3202 8.00873 23.2415 8.00873 22.0971C8.00873 21.5871 7.68002 21.0803 7.09982 20.2288L7.0987 20.2272C6.15542 18.8435 4.8754 16.9659 4.8754 13.8102ZM13.2267 17.4223C13.2963 17.9329 13.5433 18.074 14.0003 18.074C14.4567 18.074 14.7044 17.9329 14.7746 17.4223L15.3197 13.3072C15.3541 13.0264 15.3886 12.7449 15.3886 12.4813V10.4414C15.3886 9.54456 14.8786 9.08691 13.9997 9.08691C13.1201 9.08691 12.6101 9.54393 12.6101 10.4414V12.4813C12.6101 12.7449 12.6452 13.0264 12.6803 13.3072L13.2267 17.4223ZM14.0003 19.2152C13.2082 19.2152 12.5578 19.8663 12.5578 20.6577C12.5578 21.4492 13.2088 22.0996 14.0003 22.0996C14.7918 22.0996 15.4422 21.4492 15.4422 20.6577C15.4428 19.8663 14.7918 19.2152 14.0003 19.2152Z" fill="#D25046"/>
</svg>
