<svg width="30" height="31" viewBox="0 0 30 31" fill="none" xmlns="http://www.w3.org/2000/svg">
<g clip-path="url(#clip0)">
<path d="M7.28641 19.1208C7.28641 13.6071 11.7727 9.12087 17.2864 9.12087C19.65 9.12087 21.8225 9.94965 23.5364 11.327V6.00347C23.5364 4.10744 21.9951 2.56616 20.0989 2.56616H4.16924C2.27298 2.56616 0.731705 4.10744 0.731705 6.00347V21.9333C0.731705 23.8296 2.27298 25.3706 4.16924 25.3706H9.49281C8.11519 23.657 7.28641 21.4845 7.28641 19.1208Z" fill="#D25046"/>
<path fill-rule="evenodd" clip-rule="evenodd" d="M23.3927 23.4599L28.1701 28.2373C28.6587 28.7262 28.6587 29.5161 28.1701 30.005C27.9263 30.2485 27.6063 30.3712 27.2864 30.3712C26.9664 30.3712 26.6462 30.2485 26.4026 30.005L21.625 25.2273C20.3989 26.1012 18.9039 26.6212 17.2864 26.6212C13.1501 26.6212 9.78647 23.2574 9.78647 19.1213C9.78647 14.985 13.1501 11.6213 17.2864 11.6213C21.4227 11.6213 24.7863 14.985 24.7863 19.1213C24.7863 20.7388 24.2663 22.2336 23.3927 23.4599ZM15.4797 20.6881L12 17.1886L13.4898 15.757L15.4797 17.8249L20.0015 13.3711L21.5122 14.7927L15.4797 20.6881Z" fill="#D25046"/>
</g>
<defs>
<clipPath id="clip0">
<rect y="0.371094" width="30" height="30" fill="white"/>
</clipPath>
</defs>
</svg>
