<svg width="30" height="31" viewBox="0 0 30 31" fill="none" xmlns="http://www.w3.org/2000/svg">
<g clip-path="url(#clip0)">
<path d="M6.55903 8.65695C6.55903 6.80856 8.06284 5.30481 9.91118 5.30481C11.7595 5.30481 13.2633 6.80856 13.2633 8.65695V11.3583C14.1946 11.0736 14.874 10.2063 14.874 9.18307V2.64535C14.874 1.39133 13.8537 0.371094 12.5997 0.371094H7.22267C5.96864 0.371094 4.94841 1.39133 4.94841 2.64535V9.18307C4.94841 10.2063 5.62775 11.0736 6.55903 11.3583V8.65695Z" fill="#D25046"/>
<path d="M23.7446 0.371094H18.3675C17.1135 0.371094 16.0933 1.39133 16.0933 2.64535V9.18307C16.0933 10.4371 17.1135 11.4573 18.3675 11.4573H23.7446C24.9987 11.4573 26.0189 10.4371 26.0189 9.18307V2.64535C26.0189 1.39133 24.9987 0.371094 23.7446 0.371094Z" fill="#D25046"/>
<path d="M19.5794 14.5008C18.6894 14.5008 17.968 15.2222 17.968 16.1122V15.2913C17.968 14.4013 17.2466 13.6799 16.3566 13.6799C15.4667 13.6799 14.7453 14.4013 14.7453 15.2913V14.601C14.7453 13.7546 14.0927 13.0612 13.2634 12.9953C13.2206 12.9919 13.1776 12.9896 13.134 12.9896C12.4843 12.9896 11.9248 13.3743 11.6699 13.9281C11.5756 14.1329 11.5226 14.3607 11.5226 14.601V8.65704C11.5226 7.76712 10.8012 7.04565 9.91125 7.04565C9.02133 7.04565 8.29986 7.76712 8.29986 8.65704V22.4904L8.23014 22.4817L7.23732 18.2326C7.03482 17.366 6.16816 16.8276 5.30162 17.0301C4.39148 17.0301 3.81626 17.7552 4.02333 18.6415L5.17435 23.5677C5.77629 27.422 8.89207 30.3712 8.89207 30.3712H18.6819C20.3176 27.8832 21.1895 24.9708 21.1899 21.9933L21.1907 16.1121C21.1907 15.2222 20.4693 14.5008 19.5794 14.5008Z" fill="#D25046"/>
</g>
<defs>
<clipPath id="clip0">
<rect y="0.371094" width="30" height="30" fill="white"/>
</clipPath>
</defs>
</svg>
