<svg width="30" height="31" viewBox="0 0 30 31" fill="none" xmlns="http://www.w3.org/2000/svg">
<path d="M7.24998 7.99611C6.24996 6.99609 1.99998 6.74613 0.624961 6.62109C0.499981 6.62109 0.374941 6.62109 0.249961 6.74607C0.12498 6.87111 0 7.12113 0 7.24611V18.4961C0 18.8711 0.25002 19.1211 0.62502 19.1211H4.37502C4.62504 19.1211 4.875 18.9962 5.00004 18.7461C5.00004 18.3711 7.25004 11.7461 7.50006 8.49615C7.5 8.37112 7.5 8.12115 7.24998 7.99611Z" fill="#D25046"/>
<path d="M20.625 10.9961C19.375 10.6211 18.25 10.1211 17.25 9.7461C15 8.74608 14 9.24612 12 11.2461C11.125 12.1211 10.5 13.3711 10.625 13.8711C10.625 13.9961 10.625 13.9961 10.875 14.1211C11.5 14.3711 12.375 14.4961 13.25 13.1211C13.375 12.9961 13.5 12.8711 13.75 12.8711C14.125 12.8711 14.25 12.7461 14.625 12.6211C14.875 12.4961 15.1249 12.371 15.4999 12.2461C15.6249 12.2461 15.6249 12.2461 15.75 12.2461C15.8749 12.2461 16.125 12.371 16.2499 12.371C16.875 12.9961 18 13.8711 19.125 14.8711C20.875 16.2461 22.625 17.7461 23.5 18.8711H23.625C22.75 16.3711 21.25 12.1211 20.625 10.9961Z" fill="#D25046"/>
<path d="M29.375 7.87109C24.5 7.87109 21.75 9.12107 21.625 9.12107C21.5 9.24605 21.3749 9.37109 21.25 9.49607C21.25 9.62105 21.25 9.87107 21.375 9.99606C22.125 11.246 24.625 18.1211 25 19.871C25.1249 20.1211 25.375 20.371 25.625 20.371H29.375C29.75 20.371 30 20.121 30 19.746V8.496C30 8.12111 29.75 7.87109 29.375 7.87109Z" fill="#D25046"/>
<path d="M22.625 20.1211C22.125 18.9961 20 17.3711 18.125 15.8711C17.125 14.9961 16.125 14.2461 15.375 13.6211C15.25 13.746 15 13.746 15 13.8711C14.625 13.9961 14.5 14.1211 14 14.1211C13 15.3711 11.75 15.8711 10.375 15.3711C9.74999 15.2461 9.37499 14.7461 9.25001 14.2461C8.99999 12.9961 10.125 11.2461 11 10.3711H8.50001C8.00003 12.8711 7.12499 16.1211 6.50003 17.8711C7.00001 18.3711 7.50005 18.9961 7.87505 19.2461C10.25 21.2461 13.0001 23.2461 13.5001 23.6211C13.8751 23.8712 14.6251 24.1211 15.0001 24.1211C15.125 24.1211 15.2501 24.1211 15.3751 24.1211L13.375 22.1211C13.125 21.8711 13.125 21.4961 13.375 21.2461C13.625 20.9961 14 20.9961 14.25 21.2461L16.75 23.7461C17 23.9961 17.25 23.8711 17.5 23.8711C17.875 23.7461 18 23.4961 18.125 23.1211L15.25 20.2461C15 19.9961 15 19.6211 15.25 19.3711C15.5 19.1211 15.875 19.1211 16.125 19.3711L19.25 22.4961C19.375 22.6211 19.875 22.6211 20.25 22.4961C20.375 22.3711 20.625 22.2461 20.75 21.9961L17.25 18.4961C17 18.246 17 17.871 17.25 17.6211C17.5 17.3711 17.875 17.3711 18.125 17.6211L21.75 21.2461C22 21.3711 22.25 21.2461 22.5 21.1211C22.625 20.9961 22.875 20.6211 22.625 20.1211Z" fill="#D25046"/>
</svg>
