<?xml version="1.0" encoding="utf-8"?>
<!-- Generator: Adobe Illustrator 22.1.0, SVG Export Plug-In . SVG Version: 6.00 Build 0)  -->
<svg version="1.1" id="Layer_1" xmlns="http://www.w3.org/2000/svg" xmlns:xlink="http://www.w3.org/1999/xlink" x="0px" y="0px"
	 viewBox="0 0 126.5 155" enable-background="new 0 0 126.5 155" xml:space="preserve">
<path id="XMLID_100_" d="M68.1,75.3l-18.4-5.9v26.3l18.4,5.9V75.3z"/>
<path id="XMLID_99_" d="M86,66.7l-16-5.1l-16,5.1l16,5.1L86,66.7z"/>
<path id="XMLID_95_" d="M114.5,142.3c1.2-1.2,1.8-2.8,1.7-4.5c0,0,0,0,0-0.1V34.4c0-5.1-4.1-9.2-9.2-9.2H33.1
	c-5.1,0-9.2,4.1-9.2,9.2V135c0,5.1,4.1,9.2,9.2,9.2h76.8C111.7,144.2,113.3,143.5,114.5,142.3z M73.6,137.8h-7
	c-1.1,0-1.9-0.9-1.9-1.9c0-1.1,0.9-1.9,1.9-1.9h7c1.1,0,1.9,0.9,1.9,1.9C75.5,136.9,74.6,137.8,73.6,137.8z M108.7,126.1
	c0,1.1-0.9,1.9-1.9,1.9H33.1c-1.1,0-1.9-0.9-1.9-1.9V34.1c0-1.1,0.9-1.9,1.9-1.9h73.7c1.1,0,1.9,0.9,1.9,1.9V126.1z"/>
<path id="XMLID_94_" d="M72,101.6l18.4-5.9V69.4L72,75.3V101.6z"/>
<path id="XMLID_91_" d="M35,123.9h70.1V36H35V123.9z M45.9,66.7c0-0.8,0.5-1.6,1.3-1.9l22.3-7.2c0.4-0.1,0.8-0.1,1.2,0l22.3,7.2
	c0.8,0.3,1.3,1,1.3,1.9v30.4c0,0.8-0.5,1.6-1.3,1.9l-22.3,7.2c-0.2,0.1-0.4,0.1-0.6,0.1c-0.2,0-0.4,0-0.6-0.1L47.2,99
	c-0.8-0.3-1.3-1-1.3-1.9V66.7z"/>
<g id="XMLID_89_">
	<path id="XMLID_90_" fill="none" stroke="#3FB6B6" stroke-width="0.9988" d="M60.6,94l-17.4-5.6V63l17.4,5.6V94z"/>
</g>
<g id="XMLID_87_">
	<path id="XMLID_88_" fill="none" stroke="#3FB6B6" stroke-width="0.9988" d="M48.7,59.7l14.3-4.6l14.3,4.6l-14.3,4.6L48.7,59.7z"/>
</g>
<g id="XMLID_82_">
	<path id="XMLID_83_" fill="none" stroke="#3FB6B6" stroke-width="0.9988" d="M107.1,134.9L107.1,134.9c-1.1,1.1-2.6,1.8-4.2,1.8
		H26.1c0,0,0,0,0,0c-4.8,0-8.7-3.9-8.7-8.7V27.4c0-4.8,3.9-8.7,8.7-8.7H100c4.8,0,8.7,3.9,8.7,8.7c0,0,0,0,0,0v103.3c0,0,0,0,0,0
		c0,0,0,0,0,0.1v0v0C108.8,132.4,108.2,133.8,107.1,134.9z M59.6,131.3h7c1.4,0,2.4-1.1,2.4-2.4c0-1.4-1.1-2.4-2.4-2.4h-7
		c-1.3,0-2.4,1.1-2.4,2.4C57.1,130.2,58.2,131.3,59.6,131.3z M99.8,121.6c1.4,0,2.4-1.1,2.4-2.4V27.1c0-1.4-1.1-2.4-2.4-2.4H26.1
		c-1.4,0-2.4,1.1-2.4,2.4v92.1c0,1.4,1.1,2.4,2.4,2.4H99.8z"/>
</g>
<g id="XMLID_80_">
	<path id="XMLID_81_" fill="none" stroke="#3FB6B6" stroke-width="0.9988" d="M82.9,88.3L65.5,94V68.7L82.9,63V88.3z"/>
</g>
<g id="XMLID_75_">
	<path id="XMLID_76_" fill="none" stroke="#3FB6B6" stroke-width="0.9988" d="M40,57.4L40,57.4l22.3-7.2c0,0,0,0,0,0
		c0.5-0.2,1-0.2,1.5,0L40,57.4z M40,57.4c-1,0.3-1.7,1.3-1.7,2.3v30.4c0,1.1,0.7,2,1.7,2.3l0,0l22.3,7.2c0.2,0.1,0.5,0.1,0.7,0.1
		c0.3,0,0.5,0,0.7-0.1l0,0l22.3-7.2l0,0c1-0.3,1.7-1.3,1.7-2.3V59.7c0-1.1-0.7-2-1.7-2.3l0,0l-22.3-7.2L40,57.4z M97.6,29.5v86.9
		H28.5V29.5H97.6z"/>
</g>
<radialGradient id="XMLID_102_" cx="-429.0902" cy="597.036" r="1" gradientTransform="matrix(7.654043e-16 12.5 12.5 -7.654043e-16 -7442.9502 5384.4985)" gradientUnits="userSpaceOnUse">
	<stop  offset="0" style="stop-color:#3FB6B6"/>
	<stop  offset="1" style="stop-color:#1D1D1D;stop-opacity:0"/>
</radialGradient>
<path id="XMLID_74_" fill="url(#XMLID_102_)" d="M32.5,20.9c0,2.5-0.7,4.9-2.1,6.9c-1.4,2.1-3.3,3.7-5.6,4.6
	c-2.3,0.9-4.8,1.2-7.2,0.7c-2.4-0.5-4.7-1.7-6.4-3.4c-1.7-1.7-2.9-4-3.4-6.4c-0.5-2.4-0.2-4.9,0.7-7.2c0.9-2.3,2.5-4.2,4.6-5.6
	c2.1-1.4,4.5-2.1,6.9-2.1c3.3,0,6.5,1.3,8.8,3.7C31.2,14.4,32.5,17.5,32.5,20.9z"/>
<radialGradient id="XMLID_103_" cx="-429.0902" cy="597.036" r="1" gradientTransform="matrix(7.654043e-16 12.5 12.5 -7.654043e-16 -7400.9502 5413.4985)" gradientUnits="userSpaceOnUse">
	<stop  offset="0" style="stop-color:#3FB6B6"/>
	<stop  offset="1" style="stop-color:#1D1D1D;stop-opacity:0"/>
</radialGradient>
<path id="XMLID_73_" fill="url(#XMLID_103_)" d="M74.5,49.9c0,2.5-0.7,4.9-2.1,6.9c-1.4,2.1-3.3,3.7-5.6,4.6
	c-2.3,0.9-4.8,1.2-7.2,0.7c-2.4-0.5-4.7-1.7-6.4-3.4c-1.7-1.7-2.9-4-3.4-6.4c-0.5-2.4-0.2-4.9,0.7-7.2c0.9-2.3,2.5-4.2,4.6-5.6
	c2.1-1.4,4.5-2.1,6.9-2.1c3.3,0,6.5,1.3,8.8,3.7C73.2,43.4,74.5,46.5,74.5,49.9z"/>
<radialGradient id="XMLID_104_" cx="-429.0902" cy="597.036" r="1" gradientTransform="matrix(7.654043e-16 12.5 12.5 -7.654043e-16 -7376.9502 5420.4985)" gradientUnits="userSpaceOnUse">
	<stop  offset="0" style="stop-color:#3FB6B6"/>
	<stop  offset="1" style="stop-color:#1D1D1D;stop-opacity:0"/>
</radialGradient>
<path id="XMLID_72_" fill="url(#XMLID_104_)" d="M98.5,56.9c0,2.5-0.7,4.9-2.1,6.9c-1.4,2.1-3.3,3.7-5.6,4.6
	c-2.3,0.9-4.8,1.2-7.2,0.7c-2.4-0.5-4.7-1.7-6.4-3.4c-1.7-1.7-2.9-4-3.4-6.4c-0.5-2.4-0.2-4.9,0.7-7.2c0.9-2.3,2.5-4.2,4.6-5.6
	c2.1-1.4,4.5-2.1,6.9-2.1c3.3,0,6.5,1.3,8.8,3.7C97.2,50.4,98.5,53.5,98.5,56.9z"/>
<radialGradient id="XMLID_105_" cx="-429.0902" cy="597.036" r="1" gradientTransform="matrix(7.654043e-16 12.5 12.5 -7.654043e-16 -7399.9502 5463.4985)" gradientUnits="userSpaceOnUse">
	<stop  offset="0" style="stop-color:#3FB6B6"/>
	<stop  offset="1" style="stop-color:#1D1D1D;stop-opacity:0"/>
</radialGradient>
<path id="XMLID_71_" fill="url(#XMLID_105_)" d="M75.5,99.9c0,2.5-0.7,4.9-2.1,6.9c-1.4,2.1-3.3,3.7-5.6,4.6s-4.8,1.2-7.2,0.7
	c-2.4-0.5-4.7-1.7-6.4-3.4c-1.7-1.7-2.9-4-3.4-6.4c-0.5-2.4-0.2-4.9,0.7-7.2c0.9-2.3,2.5-4.2,4.6-5.6c2.1-1.4,4.5-2.1,6.9-2.1
	c3.3,0,6.5,1.3,8.8,3.7C74.2,93.4,75.5,96.5,75.5,99.9z"/>
<radialGradient id="XMLID_106_" cx="-429.0902" cy="597.036" r="1" gradientTransform="matrix(7.654043e-16 12.5 12.5 -7.654043e-16 -7375.9502 5455.4985)" gradientUnits="userSpaceOnUse">
	<stop  offset="0" style="stop-color:#3FB6B6"/>
	<stop  offset="1" style="stop-color:#1D1D1D;stop-opacity:0"/>
</radialGradient>
<path id="XMLID_70_" fill="url(#XMLID_106_)" d="M99.5,91.9c0,2.5-0.7,4.9-2.1,6.9c-1.4,2.1-3.3,3.7-5.6,4.6s-4.8,1.2-7.2,0.7
	c-2.4-0.5-4.7-1.7-6.4-3.4c-1.7-1.7-2.9-4-3.4-6.4c-0.5-2.4-0.2-4.9,0.7-7.2c0.9-2.3,2.5-4.2,4.6-5.6c2.1-1.4,4.5-2.1,6.9-2.1
	c3.3,0,6.5,1.3,8.8,3.7C98.2,85.4,99.5,88.5,99.5,91.9z"/>
<radialGradient id="XMLID_107_" cx="-429.0902" cy="597.036" r="1" gradientTransform="matrix(7.654043e-16 12.5 12.5 -7.654043e-16 -7423.9502 5455.4985)" gradientUnits="userSpaceOnUse">
	<stop  offset="0" style="stop-color:#3FB6B6"/>
	<stop  offset="1" style="stop-color:#1D1D1D;stop-opacity:0"/>
</radialGradient>
<path id="XMLID_69_" fill="url(#XMLID_107_)" d="M51.5,91.9c0,2.5-0.7,4.9-2.1,6.9c-1.4,2.1-3.3,3.7-5.6,4.6
	c-2.3,0.9-4.8,1.2-7.2,0.7c-2.4-0.5-4.7-1.7-6.4-3.4c-1.7-1.7-2.9-4-3.4-6.4c-0.5-2.4-0.2-4.9,0.7-7.2c0.9-2.3,2.5-4.2,4.6-5.6
	c2.1-1.4,4.5-2.1,6.9-2.1c3.3,0,6.5,1.3,8.8,3.7C50.2,85.4,51.5,88.5,51.5,91.9z"/>
<radialGradient id="XMLID_108_" cx="-429.0902" cy="597.036" r="1" gradientTransform="matrix(7.654043e-16 12.5 12.5 -7.654043e-16 -7423.9502 5422.4985)" gradientUnits="userSpaceOnUse">
	<stop  offset="0" style="stop-color:#3FB6B6"/>
	<stop  offset="1" style="stop-color:#1D1D1D;stop-opacity:0"/>
</radialGradient>
<path id="XMLID_68_" fill="url(#XMLID_108_)" d="M51.5,58.9c0,2.5-0.7,4.9-2.1,6.9c-1.4,2.1-3.3,3.7-5.6,4.6
	c-2.3,0.9-4.8,1.2-7.2,0.7c-2.4-0.5-4.7-1.7-6.4-3.4c-1.7-1.7-2.9-4-3.4-6.4c-0.5-2.4-0.2-4.9,0.7-7.2c0.9-2.3,2.5-4.2,4.6-5.6
	c2.1-1.4,4.5-2.1,6.9-2.1c3.3,0,6.5,1.3,8.8,3.7C50.2,52.4,51.5,55.5,51.5,58.9z"/>
<radialGradient id="XMLID_109_" cx="-429.0902" cy="597.036" r="1" gradientTransform="matrix(7.654043e-16 12.5 12.5 -7.654043e-16 -7433.9502 5393.4985)" gradientUnits="userSpaceOnUse">
	<stop  offset="0" style="stop-color:#3FB6B6"/>
	<stop  offset="1" style="stop-color:#1D1D1D;stop-opacity:0"/>
</radialGradient>
<path id="XMLID_67_" fill="url(#XMLID_109_)" d="M41.5,29.9c0,2.5-0.7,4.9-2.1,6.9c-1.4,2.1-3.3,3.7-5.6,4.6
	c-2.3,0.9-4.8,1.2-7.2,0.7c-2.4-0.5-4.7-1.7-6.4-3.4c-1.7-1.7-2.9-4-3.4-6.4c-0.5-2.4-0.2-4.9,0.7-7.2c0.9-2.3,2.5-4.2,4.6-5.6
	c2.1-1.4,4.5-2.1,6.9-2.1c3.3,0,6.5,1.3,8.8,3.7C40.2,23.4,41.5,26.5,41.5,29.9z"/>
<radialGradient id="XMLID_110_" cx="-429.0902" cy="597.036" r="1" gradientTransform="matrix(7.654043e-16 12.5 12.5 -7.654043e-16 -7404.9502 5490.4985)" gradientUnits="userSpaceOnUse">
	<stop  offset="0" style="stop-color:#3FB6B6"/>
	<stop  offset="1" style="stop-color:#1D1D1D;stop-opacity:0"/>
</radialGradient>
<path id="XMLID_66_" fill="url(#XMLID_110_)" d="M70.5,126.9c0,2.5-0.7,4.9-2.1,6.9c-1.4,2.1-3.3,3.7-5.6,4.6s-4.8,1.2-7.2,0.7
	c-2.4-0.5-4.7-1.7-6.4-3.4c-1.7-1.7-2.9-4-3.4-6.4c-0.5-2.4-0.2-4.9,0.7-7.2c0.9-2.3,2.5-4.2,4.6-5.6c2.1-1.4,4.5-2.1,6.9-2.1
	c3.3,0,6.5,1.3,8.8,3.7C69.2,120.4,70.5,123.5,70.5,126.9z"/>
</svg>
