<?xml version="1.0" encoding="utf-8"?>
<!-- Generator: Adobe Illustrator 22.1.0, SVG Export Plug-In . SVG Version: 6.00 Build 0)  -->
<svg version="1.1" id="Layer_1" xmlns="http://www.w3.org/2000/svg" xmlns:xlink="http://www.w3.org/1999/xlink" x="0px" y="0px"
	 viewBox="0 0 136 161" enable-background="new 0 0 136 161" xml:space="preserve">
<g id="XMLID_28_">
	<defs>
		<rect id="XMLID_39_" x="11.5" y="24.4" width="120" height="120"/>
	</defs>
	<clipPath id="XMLID_41_">
		<use xlink:href="#XMLID_39_"  overflow="visible"/>
	</clipPath>
	<g id="XMLID_29_" clip-path="url(#XMLID_41_)">
		<path id="XMLID_38_" d="M25.5,35.1c0-3.9-3.1-7-7-7c-3.9,0-7,3.1-7,7v73.1c0,0.7,0.1,1.3,0.3,2c1.3-6.4,7-11.2,13.7-11.3V35.1z"/>
		<path id="XMLID_37_" d="M82,74.5c-2.4,0-4.3,1.9-4.3,4.3c0,2.4,1.9,4.3,4.3,4.3c2.4,0,4.3-1.9,4.3-4.3
			C86.4,76.5,84.4,74.5,82,74.5z"/>
		<path id="XMLID_34_" d="M117.7,37.6H32.6V103c0,1.1-0.6,2.2-1.5,2.9c-0.9,0.7-2.1,0.8-3.2,0.4c-0.8-0.3-1.5-0.4-2.3-0.4
			c-3.9,0-7,3.2-7,7c0,3.4,2.4,6.2,5.6,6.9H119c6.6,0.7,11.8,5.9,12.5,12.5v-81C131.5,43.7,125.3,37.6,117.7,37.6z M112.8,82.1
			c0,1.5-0.9,2.8-2.2,3.3l-6.4,2.5l2.8,6.3c0.6,1.3,0.3,2.9-0.7,3.9l-4.8,4.8c-1,1-2.6,1.3-3.9,0.7l-6.3-2.8l-2.5,6.4
			c-0.5,1.4-1.8,2.2-3.3,2.2h-6.8c-1.5,0-2.8-0.9-3.3-2.2l-2.5-6.4l-6.3,2.8c-1.3,0.6-2.9,0.3-3.9-0.7L57.9,98c-1-1-1.3-2.6-0.7-3.9
			l2.8-6.3l-6.4-2.5c-1.4-0.5-2.2-1.8-2.2-3.3v-6.8c0-1.5,0.9-2.8,2.2-3.3l6.4-2.5l-2.8-6.3c-0.6-1.3-0.3-2.9,0.7-3.9l4.8-4.8
			c1-1,2.6-1.3,3.9-0.7l6.3,2.8l2.5-6.4c0.5-1.4,1.8-2.2,3.3-2.2h6.8c1.5,0,2.8,0.9,3.3,2.2l2.5,6.4l6.3-2.8
			c1.3-0.6,2.9-0.3,3.9,0.7l4.8,4.8c1,1,1.3,2.6,0.7,3.9l-2.8,6.3l6.4,2.5c1.4,0.5,2.2,1.8,2.2,3.3V82.1z"/>
		<path id="XMLID_31_" d="M97.4,73.2c-0.2-0.5-0.4-0.9-0.6-1.4c-0.4-0.9-0.5-2,0-2.9l2.7-6.2l-1.4-1.4L91.8,64c-0.9,0.4-2,0.4-2.9,0
			c-0.4-0.2-0.8-0.4-1.3-0.5c-1-0.3-1.7-1.1-2.1-2L83,55h-2l-2.5,6.4c-0.4,0.9-1.1,1.7-2.1,2c-0.4,0.2-0.8,0.3-1.3,0.5
			c-0.9,0.4-2,0.4-2.9,0L66,61.3l-1.4,1.4l2.7,6.2c0.4,0.9,0.4,2,0,2.9c-0.2,0.4-0.4,0.9-0.6,1.4c-0.3,0.9-1.1,1.7-2,2.1l-6.3,2.5v2
			l6.2,2.4c1,0.4,1.7,1.1,2,2.1c0.2,0.5,0.4,1,0.6,1.5c0.4,0.9,0.4,2,0,2.9l-2.7,6.1l1.4,1.4l6-2.7c0.9-0.4,2-0.4,2.9,0.1
			c0.5,0.2,1,0.5,1.6,0.7c1,0.3,1.7,1.1,2.1,2l2.4,6.1h2l2.4-6.1c0.4-1,1.1-1.7,2.1-2c0.5-0.2,1.1-0.4,1.6-0.7
			c0.9-0.4,2-0.5,2.9-0.1l6,2.6l1.4-1.4l-2.7-6.1c-0.4-0.9-0.4-2,0-2.9c0.2-0.5,0.4-1,0.6-1.5c0.3-1,1.1-1.7,2-2.1l6.2-2.4v-2
			l-6.3-2.5C98.5,74.9,97.7,74.1,97.4,73.2z M82,90.2c-6.3,0-11.4-5.1-11.4-11.4c0-6.3,5.1-11.4,11.4-11.4c6.3,0,11.4,5.1,11.4,11.4
			C93.4,85.1,88.3,90.2,82,90.2z"/>
		<path id="XMLID_30_" d="M117.5,126.8h-1.7v13.8c2,0.5,4.1,0.1,5.8-1.1c1.9-1.3,3-3.4,3-5.7C124.5,129.9,121.4,126.8,117.5,126.8z"
			/>
	</g>
</g>
<g id="XMLID_26_">
	<path id="XMLID_27_" fill="none" stroke="#3FB6B6" stroke-width="1" d="M11.5,21.6c3.6,0,6.5,2.9,6.5,6.5v63.3
		c-5.9,0.2-10.9,4-13,9.2V28.1C5,24.5,7.9,21.6,11.5,21.6z"/>
</g>
<g id="XMLID_24_">
	<path id="XMLID_25_" fill="none" stroke="#3FB6B6" stroke-width="1" d="M71.2,71.8c0-2.1,1.7-3.8,3.8-3.8c2.1,0,3.8,1.7,3.8,3.8
		c0,2.1-1.7,3.8-3.8,3.8C72.9,75.7,71.2,73.9,71.2,71.8z"/>
</g>
<g id="XMLID_20_">
	<path id="XMLID_21_" fill="none" stroke="#3FB6B6" stroke-width="1" d="M24.4,99.3L24.4,99.3c1.1-0.8,1.7-2,1.7-3.3V31.1h84.6
		c7.3,0,13.3,5.9,13.3,13.3v77c-2-4.9-6.5-8.4-12-9l0,0h0H17.2c-2.9-0.6-5.1-3.3-5.1-6.4c0-3.6,2.9-6.5,6.5-6.5
		c0.7,0,1.5,0.1,2.2,0.4C22,100.2,23.3,100,24.4,99.3z M103.7,64.6l-5.9-2.3l2.5-5.8c0.7-1.5,0.3-3.3-0.8-4.5l-4.8-4.8l-0.4,0.4
		l0.4-0.4c-1.2-1.2-2.9-1.5-4.5-0.8l0.2,0.4l-0.2-0.4l-5.8,2.5l-2.3-5.9c-0.6-1.5-2.1-2.6-3.7-2.6h-6.8c-1.7,0-3.1,1-3.7,2.6
		l-2.3,5.9l-5.8-2.5c-1.5-0.7-3.3-0.3-4.5,0.8c0,0,0,0,0,0L50.6,52l0,0c-1.2,1.2-1.5,2.9-0.8,4.5v0l2.5,5.8l-5.9,2.3c0,0,0,0,0,0
		c-1.5,0.6-2.6,2.1-2.6,3.7v6.8c0,1.7,1,3.1,2.6,3.7c0,0,0,0,0,0l5.9,2.3l-2.5,5.8c-0.7,1.5-0.3,3.3,0.8,4.5l0,0l4.8,4.8
		c1.2,1.2,2.9,1.5,4.5,0.8l-0.2-0.5l0.2,0.5l5.8-2.5l2.3,5.9c0,0,0,0,0,0c0.6,1.5,2.1,2.6,3.7,2.6h6.8c1.7,0,3.1-1,3.7-2.6l2.3-5.9
		l5.8,2.5c1.5,0.7,3.3,0.3,4.5-0.8l0,0l4.8-4.8c1.2-1.2,1.5-2.9,0.8-4.5l-0.5,0.2l0.5-0.2l-2.5-5.8l5.9-2.3c0,0,0,0,0,0
		c1.5-0.6,2.6-2.1,2.6-3.7v-6.8C106.2,66.7,105.2,65.2,103.7,64.6C103.7,64.6,103.7,64.6,103.7,64.6z"/>
</g>
<g id="XMLID_11_">
	<path id="XMLID_12_" fill="none" stroke="#3FB6B6" stroke-width="1" d="M89.9,66.4L89.9,66.4c-0.2-0.4-0.4-0.9-0.6-1.3l0,0
		c-0.5-1.1-0.5-2.3,0-3.3v0l2.6-5.9L91,54.9l-6,2.6c0,0,0,0,0,0c-1.1,0.5-2.3,0.5-3.3,0l0,0c-0.4-0.2-0.8-0.4-1.2-0.5l0,0
		c-1.1-0.4-2-1.2-2.4-2.3l-2.4-6.1h-1.3L72,54.6c-0.4,1.1-1.3,1.9-2.4,2.3c-0.4,0.1-0.8,0.3-1.2,0.5l0,0c-1,0.5-2.2,0.5-3.3,0
		l-6-2.6l-0.9,0.9l2.6,5.9v0c0.5,1.1,0.5,2.3-0.1,3.3l0,0c-0.2,0.4-0.4,0.9-0.6,1.3l0,0c-0.4,1.1-1.2,1.9-2.3,2.4l-6,2.3v1.3
		l5.9,2.3l0,0c1.1,0.4,1.9,1.3,2.3,2.4l0,0c0.2,0.5,0.4,1,0.6,1.5l0,0c0.5,1,0.5,2.3,0,3.3c0,0,0,0,0,0l-2.5,5.8l0.9,0.9l5.7-2.5
		c1.1-0.5,2.3-0.5,3.4,0.1c0.5,0.2,1,0.5,1.5,0.6c1.1,0.4,2,1.2,2.4,2.3l2.3,5.8h1.3l2.3-5.8l0,0c0.4-1.1,1.3-1.9,2.4-2.3
		c0.5-0.2,1.1-0.4,1.5-0.6l0,0c1.1-0.5,2.3-0.5,3.4-0.1v0l5.7,2.5l0.9-0.9l-2.5-5.8l0,0c-0.5-1.1-0.5-2.3,0-3.3l0.5,0.2l-0.5-0.2
		c0.2-0.5,0.4-1,0.6-1.5c0.4-1.1,1.2-2,2.3-2.4L89.9,66.4z M89.9,66.4c0.4,1.1,1.2,1.9,2.3,2.4l6,2.3v1.3l-5.9,2.3L89.9,66.4z
		 M63.2,71.8c0,6.5,5.3,11.9,11.9,11.9c6.5,0,11.9-5.3,11.9-11.9S81.6,60,75,60C68.5,60,63.2,65.3,63.2,71.8z"/>
</g>
<g id="XMLID_9_">
	<path id="XMLID_10_" fill="none" stroke="#3FB6B6" stroke-width="1" d="M114.3,132.1L114.3,132.1c-1.5,1.1-3.3,1.4-5,1.1v-12.9h1.2
		c3.6,0,6.5,2.9,6.5,6.5C117,129,116,130.9,114.3,132.1z"/>
</g>
<radialGradient id="XMLID_42_" cx="-403.72" cy="598.04" r="1" gradientTransform="matrix(7.654043e-16 12.5 12.5 -7.654043e-16 -7448.5 5076.3711)" gradientUnits="userSpaceOnUse">
	<stop  offset="0" style="stop-color:#3FB6B6"/>
	<stop  offset="1" style="stop-color:#1D1D1D;stop-opacity:0"/>
</radialGradient>
<path id="XMLID_8_" fill="url(#XMLID_42_)" d="M39.5,29.9c0,2.5-0.7,4.9-2.1,6.9c-1.4,2.1-3.3,3.7-5.6,4.6c-2.3,0.9-4.8,1.2-7.2,0.7
	c-2.4-0.5-4.7-1.7-6.4-3.4c-1.7-1.7-2.9-4-3.4-6.4c-0.5-2.4-0.2-4.9,0.7-7.2c0.9-2.3,2.5-4.2,4.6-5.6c2.1-1.4,4.5-2.1,6.9-2.1
	c3.3,0,6.5,1.3,8.8,3.7C38.2,23.4,39.5,26.5,39.5,29.9z"/>
<radialGradient id="XMLID_43_" cx="-403.72" cy="598.04" r="1" gradientTransform="matrix(7.654043e-16 12.5 12.5 -7.654043e-16 -7458.5 5137.3711)" gradientUnits="userSpaceOnUse">
	<stop  offset="0" style="stop-color:#3FB6B6"/>
	<stop  offset="1" style="stop-color:#1D1D1D;stop-opacity:0"/>
</radialGradient>
<path id="XMLID_7_" fill="url(#XMLID_43_)" d="M29.5,90.9c0,2.5-0.7,4.9-2.1,6.9c-1.4,2.1-3.3,3.7-5.6,4.6c-2.3,0.9-4.8,1.2-7.2,0.7
	c-2.4-0.5-4.7-1.7-6.4-3.4c-1.7-1.7-2.9-4-3.4-6.4c-0.5-2.4-0.2-4.9,0.7-7.2c0.9-2.3,2.5-4.2,4.6-5.6c2.1-1.4,4.5-2.1,6.9-2.1
	c3.3,0,6.5,1.3,8.8,3.7C28.2,84.4,29.5,87.5,29.5,90.9z"/>
<radialGradient id="XMLID_44_" cx="-403.72" cy="598.04" r="1" gradientTransform="matrix(7.654043e-16 12.5 12.5 -7.654043e-16 -7416.5 5101.3711)" gradientUnits="userSpaceOnUse">
	<stop  offset="0" style="stop-color:#3FB6B6"/>
	<stop  offset="1" style="stop-color:#1D1D1D;stop-opacity:0"/>
</radialGradient>
<path id="XMLID_4_" fill="url(#XMLID_44_)" d="M71.5,54.9c0,2.5-0.7,4.9-2.1,6.9c-1.4,2.1-3.3,3.7-5.6,4.6c-2.3,0.9-4.8,1.2-7.2,0.7
	c-2.4-0.5-4.7-1.7-6.4-3.4c-1.7-1.7-2.9-4-3.4-6.4c-0.5-2.4-0.2-4.9,0.7-7.2c0.9-2.3,2.5-4.2,4.6-5.6c2.1-1.4,4.5-2.1,6.9-2.1
	c3.3,0,6.5,1.3,8.8,3.7C70.2,48.4,71.5,51.5,71.5,54.9z"/>
<radialGradient id="XMLID_45_" cx="-403.72" cy="598.04" r="1" gradientTransform="matrix(7.654043e-16 12.5 12.5 -7.654043e-16 -7376.5 5118.3711)" gradientUnits="userSpaceOnUse">
	<stop  offset="0" style="stop-color:#3FB6B6"/>
	<stop  offset="1" style="stop-color:#1D1D1D;stop-opacity:0"/>
</radialGradient>
<path id="XMLID_3_" fill="url(#XMLID_45_)" d="M111.5,71.9c0,2.5-0.7,4.9-2.1,6.9s-3.3,3.7-5.6,4.6c-2.3,0.9-4.8,1.2-7.2,0.7
	c-2.4-0.5-4.7-1.7-6.4-3.4c-1.8-1.7-2.9-4-3.4-6.4c-0.5-2.4-0.2-4.9,0.7-7.2c0.9-2.3,2.5-4.2,4.6-5.6c2.1-1.4,4.5-2.1,6.9-2.1
	c3.3,0,6.5,1.3,8.8,3.7C110.2,65.4,111.5,68.5,111.5,71.9z"/>
<radialGradient id="XMLID_46_" cx="-403.72" cy="598.04" r="1" gradientTransform="matrix(7.654043e-16 12.5 12.5 -7.654043e-16 -7354.5 5082.3711)" gradientUnits="userSpaceOnUse">
	<stop  offset="0" style="stop-color:#3FB6B6"/>
	<stop  offset="1" style="stop-color:#1D1D1D;stop-opacity:0"/>
</radialGradient>
<path id="XMLID_2_" fill="url(#XMLID_46_)" d="M133.5,35.9c0,2.5-0.7,4.9-2.1,6.9c-1.4,2.1-3.3,3.7-5.6,4.6
	c-2.3,0.9-4.8,1.2-7.2,0.7c-2.4-0.5-4.7-1.7-6.4-3.4c-1.8-1.7-2.9-4-3.4-6.4c-0.5-2.4-0.2-4.9,0.7-7.2c0.9-2.3,2.5-4.2,4.6-5.6
	c2.1-1.4,4.5-2.1,6.9-2.1c3.3,0,6.5,1.3,8.8,3.7C132.2,29.4,133.5,32.5,133.5,35.9z"/>
<radialGradient id="XMLID_47_" cx="-403.72" cy="598.04" r="1" gradientTransform="matrix(7.654043e-16 12.5 12.5 -7.654043e-16 -7401.5 5115.3711)" gradientUnits="userSpaceOnUse">
	<stop  offset="0" style="stop-color:#3FB6B6"/>
	<stop  offset="1" style="stop-color:#1D1D1D;stop-opacity:0"/>
</radialGradient>
<path id="XMLID_1_" fill="url(#XMLID_47_)" d="M86.5,68.9c0,2.5-0.7,4.9-2.1,6.9c-1.4,2.1-3.3,3.7-5.6,4.6c-2.3,0.9-4.8,1.2-7.2,0.7
	c-2.4-0.5-4.7-1.7-6.4-3.4c-1.7-1.7-2.9-4-3.4-6.4c-0.5-2.4-0.2-4.9,0.7-7.2c0.9-2.3,2.5-4.2,4.6-5.6c2.1-1.4,4.5-2.1,6.9-2.1
	c3.3,0,6.5,1.3,8.8,3.7C85.2,62.4,86.5,65.5,86.5,68.9z"/>
</svg>
