<?xml version="1.0" encoding="utf-8"?>
<!-- Generator: Adobe Illustrator 22.1.0, SVG Export Plug-In . SVG Version: 6.00 Build 0)  -->
<svg version="1.1" id="Layer_1" xmlns="http://www.w3.org/2000/svg" xmlns:xlink="http://www.w3.org/1999/xlink" x="0px" y="0px"
	 viewBox="0 0 136 161" style="enable-background:new 0 0 136 161;" xml:space="preserve">
<style type="text/css">
	.st0{clip-path:url(#XMLID_43_);}
	.st1{fill:url(#XMLID_44_);}
	.st2{fill:url(#XMLID_45_);}
	.st3{fill:url(#XMLID_46_);}
	.st4{fill:url(#XMLID_47_);}
	.st5{fill:url(#XMLID_48_);}
	.st6{fill:url(#XMLID_49_);}
	.st7{fill:url(#XMLID_50_);}
	.st8{fill:none;stroke:#3FB6B6;}
	.st9{fill:url(#XMLID_51_);}
</style>
<g id="XMLID_16_">
	<defs>
		<rect id="XMLID_20_" x="15" y="27.4" width="120" height="120"/>
	</defs>
	<clipPath id="XMLID_43_">
		<use xlink:href="#XMLID_20_"  style="overflow:visible;"/>
	</clipPath>
	<g id="XMLID_17_" class="st0">
		<path id="XMLID_19_" d="M123,132.9V63.4l-36-36H39c-6.6,0-11.9,5.4-11.9,12l-0.1,96c0,6.6,5.3,12,11.9,12H111
			c2.7,0,5.1-0.9,7.1-2.4l-26.6-26.6c-4.7,3.2-10.4,5-16.5,5c-16.6,0-30-13.4-30-30c0-16.6,13.4-30,30-30s30,13.4,30,30
			c0,6.1-1.9,11.8-5,16.5L123,132.9z"/>
		<path id="XMLID_18_" d="M57,93.4c0,9.9,8.1,18,18,18s18-8.1,18-18c0-9.9-8.1-18-18-18S57,83.4,57,93.4z"/>
	</g>
</g>
<radialGradient id="XMLID_44_" cx="-397.48" cy="615.48" r="1" gradientTransform="matrix(7.654043e-16 12.5 12.5 -7.654043e-16 -7578 5024.3711)" gradientUnits="userSpaceOnUse">
	<stop  offset="0" style="stop-color:#3FB6B6"/>
	<stop  offset="1" style="stop-color:#1D1D1D;stop-opacity:0"/>
</radialGradient>
<path id="XMLID_15_" class="st1" d="M128,55.9c0,2.5-0.7,4.9-2.1,6.9c-1.4,2.1-3.3,3.7-5.6,4.6c-2.3,0.9-4.8,1.2-7.2,0.7
	c-2.4-0.5-4.7-1.7-6.4-3.4c-1.8-1.7-2.9-4-3.4-6.4c-0.5-2.4-0.2-4.9,0.7-7.2c0.9-2.3,2.5-4.2,4.6-5.6c2.1-1.4,4.5-2.1,6.9-2.1
	c3.3,0,6.5,1.3,8.8,3.7C126.7,49.4,128,52.5,128,55.9z"/>
<radialGradient id="XMLID_45_" cx="-397.48" cy="615.48" r="1" gradientTransform="matrix(7.654043e-16 12.5 12.5 -7.654043e-16 -7578 5092.3711)" gradientUnits="userSpaceOnUse">
	<stop  offset="0" style="stop-color:#3FB6B6"/>
	<stop  offset="1" style="stop-color:#1D1D1D;stop-opacity:0"/>
</radialGradient>
<path id="XMLID_14_" class="st2" d="M128,123.9c0,2.5-0.7,4.9-2.1,6.9s-3.3,3.7-5.6,4.6c-2.3,0.9-4.8,1.2-7.2,0.7
	c-2.4-0.5-4.7-1.7-6.4-3.4c-1.8-1.7-2.9-4-3.4-6.4c-0.5-2.4-0.2-4.9,0.7-7.2c0.9-2.3,2.5-4.2,4.6-5.6c2.1-1.4,4.5-2.1,6.9-2.1
	c3.3,0,6.5,1.3,8.8,3.7C126.7,117.4,128,120.5,128,123.9z"/>
<radialGradient id="XMLID_46_" cx="-397.48" cy="615.48" r="1" gradientTransform="matrix(7.654043e-16 12.5 12.5 -7.654043e-16 -7608 5080.3711)" gradientUnits="userSpaceOnUse">
	<stop  offset="0" style="stop-color:#3FB6B6"/>
	<stop  offset="1" style="stop-color:#1D1D1D;stop-opacity:0"/>
</radialGradient>
<path id="XMLID_13_" class="st3" d="M98,111.9c0,2.5-0.7,4.9-2.1,6.9c-1.4,2.1-3.3,3.7-5.6,4.6s-4.8,1.2-7.2,0.7
	c-2.4-0.5-4.7-1.7-6.4-3.4c-1.7-1.7-2.9-4-3.4-6.4c-0.5-2.4-0.2-4.9,0.7-7.2c0.9-2.3,2.5-4.2,4.6-5.6c2.1-1.4,4.5-2.1,6.9-2.1
	c3.3,0,6.5,1.3,8.8,3.7C96.7,105.4,98,108.5,98,111.9z"/>
<radialGradient id="XMLID_47_" cx="-397.48" cy="615.48" r="1" gradientTransform="matrix(7.654043e-16 12.5 12.5 -7.654043e-16 -7638 5027.3711)" gradientUnits="userSpaceOnUse">
	<stop  offset="0" style="stop-color:#3FB6B6"/>
	<stop  offset="1" style="stop-color:#1D1D1D;stop-opacity:0"/>
</radialGradient>
<path id="XMLID_12_" class="st4" d="M68,58.9c0,2.5-0.7,4.9-2.1,6.9c-1.4,2.1-3.3,3.7-5.6,4.6c-2.3,0.9-4.8,1.2-7.2,0.7
	c-2.4-0.5-4.7-1.7-6.4-3.4c-1.7-1.7-2.9-4-3.4-6.4c-0.5-2.4-0.2-4.9,0.7-7.2c0.9-2.3,2.5-4.2,4.6-5.6c2.1-1.4,4.5-2.1,6.9-2.1
	c3.3,0,6.5,1.3,8.8,3.7C66.7,52.4,68,55.5,68,58.9z"/>
<radialGradient id="XMLID_48_" cx="-397.48" cy="615.48" r="1" gradientTransform="matrix(7.654043e-16 12.5 12.5 -7.654043e-16 -7638 5043.3711)" gradientUnits="userSpaceOnUse">
	<stop  offset="0" style="stop-color:#3FB6B6"/>
	<stop  offset="1" style="stop-color:#1D1D1D;stop-opacity:0"/>
</radialGradient>
<path id="XMLID_11_" class="st5" d="M68,74.9c0,2.5-0.7,4.9-2.1,6.9c-1.4,2.1-3.3,3.7-5.6,4.6c-2.3,0.9-4.8,1.2-7.2,0.7
	c-2.4-0.5-4.7-1.7-6.4-3.4c-1.7-1.7-2.9-4-3.4-6.4c-0.5-2.4-0.2-4.9,0.7-7.2c0.9-2.3,2.5-4.2,4.6-5.6c2.1-1.4,4.5-2.1,6.9-2.1
	c3.3,0,6.5,1.3,8.8,3.7C66.7,68.4,68,71.5,68,74.9z"/>
<radialGradient id="XMLID_49_" cx="-397.48" cy="615.48" r="1" gradientTransform="matrix(7.654043e-16 12.5 12.5 -7.654043e-16 -7600 5070.3711)" gradientUnits="userSpaceOnUse">
	<stop  offset="0" style="stop-color:#3FB6B6"/>
	<stop  offset="1" style="stop-color:#1D1D1D;stop-opacity:0"/>
</radialGradient>
<path id="XMLID_10_" class="st6" d="M106,101.9c0,2.5-0.7,4.9-2.1,6.9s-3.3,3.7-5.6,4.6c-2.3,0.9-4.8,1.2-7.2,0.7
	c-2.4-0.5-4.7-1.7-6.4-3.4c-1.7-1.7-2.9-4-3.4-6.4c-0.5-2.4-0.2-4.9,0.7-7.2c0.9-2.3,2.5-4.2,4.6-5.6c2.1-1.4,4.5-2.1,6.9-2.1
	c3.3,0,6.5,1.3,8.8,3.7C104.7,95.4,106,98.5,106,101.9z"/>
<radialGradient id="XMLID_50_" cx="-397.48" cy="615.48" r="1" gradientTransform="matrix(7.654043e-16 12.5 12.5 -7.654043e-16 -7583 5105.3711)" gradientUnits="userSpaceOnUse">
	<stop  offset="0" style="stop-color:#3FB6B6"/>
	<stop  offset="1" style="stop-color:#1D1D1D;stop-opacity:0"/>
</radialGradient>
<path id="XMLID_9_" class="st7" d="M123,136.9c0,2.5-0.7,4.9-2.1,6.9s-3.3,3.7-5.6,4.6c-2.3,0.9-4.8,1.2-7.2,0.7
	c-2.4-0.5-4.7-1.7-6.4-3.4c-1.7-1.7-2.9-4-3.4-6.4c-0.5-2.4-0.2-4.9,0.7-7.2c0.9-2.3,2.5-4.2,4.6-5.6c2.1-1.4,4.5-2.1,6.9-2.1
	c3.3,0,6.5,1.3,8.8,3.7C121.7,130.4,123,133.5,123,136.9z"/>
<g id="XMLID_2_">
	<path id="XMLID_4_" class="st8" d="M20.5,128.4c0,6.4,5.1,11.5,11.4,11.5H104c2.3,0,4.5-0.7,6.3-2L84.4,112
		c-4.7,3.1-10.4,4.9-16.4,4.9c-16.8,0-30.5-13.7-30.5-30.5c0-16.8,13.7-30.5,30.5-30.5c16.8,0,30.5,13.7,30.5,30.5
		c0,6.1-1.8,11.7-4.8,16.5l21.8,21.8V56.6L79.8,20.9H32c-6.4,0-11.4,5.1-11.4,11.5v0L20.5,128.4L20.5,128.4"/>
	<path id="XMLID_3_" class="st8" d="M68,103.9c-9.7,0-17.5-7.8-17.5-17.5c0-9.7,7.8-17.5,17.5-17.5s17.5,7.8,17.5,17.5
		C85.5,96,77.7,103.9,68,103.9z"/>
</g>
<radialGradient id="XMLID_51_" cx="-397.48" cy="615.48" r="1" gradientTransform="matrix(7.654043e-16 12.5 12.5 -7.654043e-16 -7614 4989.3711)" gradientUnits="userSpaceOnUse">
	<stop  offset="0" style="stop-color:#3FB6B6"/>
	<stop  offset="1" style="stop-color:#1D1D1D;stop-opacity:0"/>
</radialGradient>
<path id="XMLID_1_" class="st9" d="M92,20.9c0,2.5-0.7,4.9-2.1,6.9c-1.4,2.1-3.3,3.7-5.6,4.6c-2.3,0.9-4.8,1.2-7.2,0.7
	c-2.4-0.5-4.7-1.7-6.4-3.4c-1.7-1.7-2.9-4-3.4-6.4c-0.5-2.4-0.2-4.9,0.7-7.2c0.9-2.3,2.5-4.2,4.6-5.6c2.1-1.4,4.5-2.1,6.9-2.1
	c3.3,0,6.5,1.3,8.8,3.7C90.7,14.4,92,17.5,92,20.9z"/>
</svg>
