<?xml version="1.0" encoding="utf-8"?>
<!-- Generator: Adobe Illustrator 22.1.0, SVG Export Plug-In . SVG Version: 6.00 Build 0)  -->
<svg version="1.1" id="Layer_1" xmlns="http://www.w3.org/2000/svg" xmlns:xlink="http://www.w3.org/1999/xlink" x="0px" y="0px"
	 viewBox="0 0 136 161" enable-background="new 0 0 136 161" xml:space="preserve">
<path id="XMLID_16_" d="M114.5,41.4H89.4c-2.5-7-9.1-12-16.9-12s-14.4,5-16.9,12H30.5c-6.6,0-12,5.4-12,12v84c0,6.6,5.4,12,12,12h84
	c6.6,0,12-5.4,12-12v-84C126.5,46.7,121.1,41.4,114.5,41.4z M72.5,41.4c3.3,0,6,2.7,6,6c0,3.3-2.7,6-6,6c-3.3,0-6-2.7-6-6
	C66.5,44,69.2,41.4,72.5,41.4z M60.5,125.4l-24-24l8.5-8.5l15.5,15.5L100,68.9l8.5,8.5L60.5,125.4z"/>
<g id="XMLID_11_">
	<path id="XMLID_12_" fill="none" stroke="#3FB6B6" d="M81.9,34.5l0.1,0.3h0.4h25.1c6.4,0,11.5,5.1,11.5,11.5v84
		c0,6.4-5.1,11.5-11.5,11.5h-84c-6.4,0-11.5-5.1-11.5-11.5v-84c0-6.4,5.1-11.5,11.5-11.5h25.1H49l0.1-0.3
		c2.4-6.8,8.8-11.7,16.4-11.7C73.1,22.9,79.5,27.8,81.9,34.5z M53.1,118.7l0.4,0.4l0.4-0.4l48-48l0.4-0.4l-0.4-0.4l-8.5-8.5L93,61.2
		l-0.4,0.4l-39.2,39.2L38.3,85.5L38,85.2l-0.4,0.4L29.1,94l-0.4,0.4l0.4,0.4L53.1,118.7z M72,40.4c0-3.6-2.9-6.5-6.5-6.5
		c-3.6,0-6.5,2.9-6.5,6.5s2.9,6.5,6.5,6.5C69.1,46.9,72,44,72,40.4z"/>
</g>
<radialGradient id="XMLID_21_" cx="-403.64" cy="598.6" r="1" gradientTransform="matrix(7.654043e-16 12.5 12.5 -7.654043e-16 -7380.5 5115.3711)" gradientUnits="userSpaceOnUse">
	<stop  offset="0" style="stop-color:#3FB6B6"/>
	<stop  offset="1" style="stop-color:#1D1D1D;stop-opacity:0"/>
</radialGradient>
<path id="XMLID_10_" fill="url(#XMLID_21_)" d="M114.5,69.9c0,2.5-0.7,4.9-2.1,6.9s-3.3,3.7-5.6,4.6c-2.3,0.9-4.8,1.2-7.2,0.7
	c-2.4-0.5-4.7-1.7-6.4-3.4c-1.7-1.7-2.9-4-3.4-6.4c-0.5-2.4-0.2-4.9,0.7-7.2c0.9-2.3,2.5-4.2,4.6-5.6c2.1-1.4,4.5-2.1,6.9-2.1
	c3.3,0,6.5,1.3,8.8,3.7C113.2,63.4,114.5,66.5,114.5,69.9z"/>
<radialGradient id="XMLID_22_" cx="-403.64" cy="598.6" r="1" gradientTransform="matrix(7.654043e-16 12.5 12.5 -7.654043e-16 -7389.5 5107.3711)" gradientUnits="userSpaceOnUse">
	<stop  offset="0" style="stop-color:#3FB6B6"/>
	<stop  offset="1" style="stop-color:#1D1D1D;stop-opacity:0"/>
</radialGradient>
<path id="XMLID_9_" fill="url(#XMLID_22_)" d="M105.5,61.9c0,2.5-0.7,4.9-2.1,6.9s-3.3,3.7-5.6,4.6c-2.3,0.9-4.8,1.2-7.2,0.7
	c-2.4-0.5-4.7-1.7-6.4-3.4c-1.7-1.7-2.9-4-3.4-6.4c-0.5-2.4-0.2-4.9,0.7-7.2c0.9-2.3,2.5-4.2,4.6-5.6c2.1-1.4,4.5-2.1,6.9-2.1
	c3.3,0,6.5,1.3,8.8,3.7C104.2,55.4,105.5,58.5,105.5,61.9z"/>
<radialGradient id="XMLID_23_" cx="-403.64" cy="598.6" r="1" gradientTransform="matrix(7.654043e-16 12.5 12.5 -7.654043e-16 -7429.5 5146.3711)" gradientUnits="userSpaceOnUse">
	<stop  offset="0" style="stop-color:#3FB6B6"/>
	<stop  offset="1" style="stop-color:#1D1D1D;stop-opacity:0"/>
</radialGradient>
<path id="XMLID_8_" fill="url(#XMLID_23_)" d="M65.5,100.9c0,2.5-0.7,4.9-2.1,6.9c-1.4,2.1-3.3,3.7-5.6,4.6s-4.8,1.2-7.2,0.7
	c-2.4-0.5-4.7-1.7-6.4-3.4c-1.7-1.7-2.9-4-3.4-6.4c-0.5-2.4-0.2-4.9,0.7-7.2c0.9-2.3,2.5-4.2,4.6-5.6c2.1-1.4,4.5-2.1,6.9-2.1
	c3.3,0,6.5,1.3,8.8,3.7C64.2,94.4,65.5,97.5,65.5,100.9z"/>
<radialGradient id="XMLID_24_" cx="-403.64" cy="598.6" r="1" gradientTransform="matrix(7.654043e-16 12.5 12.5 -7.654043e-16 -7444.5 5130.3711)" gradientUnits="userSpaceOnUse">
	<stop  offset="0" style="stop-color:#3FB6B6"/>
	<stop  offset="1" style="stop-color:#1D1D1D;stop-opacity:0"/>
</radialGradient>
<path id="XMLID_7_" fill="url(#XMLID_24_)" d="M50.5,84.9c0,2.5-0.7,4.9-2.1,6.9c-1.4,2.1-3.3,3.7-5.6,4.6c-2.3,0.9-4.8,1.2-7.2,0.7
	c-2.4-0.5-4.7-1.7-6.4-3.4c-1.7-1.7-2.9-4-3.4-6.4c-0.5-2.4-0.2-4.9,0.7-7.2c0.9-2.3,2.5-4.2,4.6-5.6c2.1-1.4,4.5-2.1,6.9-2.1
	c3.3,0,6.5,1.3,8.8,3.7C49.2,78.4,50.5,81.5,50.5,84.9z"/>
<radialGradient id="XMLID_25_" cx="-403.64" cy="598.6" r="1" gradientTransform="matrix(7.654043e-16 12.5 12.5 -7.654043e-16 -7419.5 5079.3711)" gradientUnits="userSpaceOnUse">
	<stop  offset="0" style="stop-color:#3FB6B6"/>
	<stop  offset="1" style="stop-color:#1D1D1D;stop-opacity:0"/>
</radialGradient>
<path id="XMLID_4_" fill="url(#XMLID_25_)" d="M75.5,33.9c0,2.5-0.7,4.9-2.1,6.9c-1.4,2.1-3.3,3.7-5.6,4.6c-2.3,0.9-4.8,1.2-7.2,0.7
	c-2.4-0.5-4.7-1.7-6.4-3.4c-1.7-1.7-2.9-4-3.4-6.4c-0.5-2.4-0.2-4.9,0.7-7.2c0.9-2.3,2.5-4.2,4.6-5.6c2.1-1.4,4.5-2.1,6.9-2.1
	c3.3,0,6.5,1.3,8.8,3.7C74.2,27.4,75.5,30.5,75.5,33.9z"/>
<radialGradient id="XMLID_26_" cx="-403.64" cy="598.6" r="1" gradientTransform="matrix(7.654043e-16 12.5 12.5 -7.654043e-16 -7426.5 5070.3711)" gradientUnits="userSpaceOnUse">
	<stop  offset="0" style="stop-color:#3FB6B6"/>
	<stop  offset="1" style="stop-color:#1D1D1D;stop-opacity:0"/>
</radialGradient>
<path id="XMLID_3_" fill="url(#XMLID_26_)" d="M68.5,24.9c0,2.5-0.7,4.9-2.1,6.9c-1.4,2.1-3.3,3.7-5.6,4.6c-2.3,0.9-4.8,1.2-7.2,0.7
	c-2.4-0.5-4.7-1.7-6.4-3.4c-1.7-1.7-2.9-4-3.4-6.4c-0.5-2.4-0.2-4.9,0.7-7.2c0.9-2.3,2.5-4.2,4.6-5.6c2.1-1.4,4.5-2.1,6.9-2.1
	c3.3,0,6.5,1.3,8.8,3.7C67.2,18.4,68.5,21.5,68.5,24.9z"/>
<radialGradient id="XMLID_27_" cx="-403.64" cy="598.6" r="1" gradientTransform="matrix(7.654043e-16 12.5 12.5 -7.654043e-16 -7429.5 5164.3711)" gradientUnits="userSpaceOnUse">
	<stop  offset="0" style="stop-color:#3FB6B6"/>
	<stop  offset="1" style="stop-color:#1D1D1D;stop-opacity:0"/>
</radialGradient>
<path id="XMLID_2_" fill="url(#XMLID_27_)" d="M65.5,118.9c0,2.5-0.7,4.9-2.1,6.9c-1.4,2.1-3.3,3.7-5.6,4.6s-4.8,1.2-7.2,0.7
	c-2.4-0.5-4.7-1.7-6.4-3.4c-1.7-1.7-2.9-4-3.4-6.4c-0.5-2.4-0.2-4.9,0.7-7.2c0.9-2.3,2.5-4.2,4.6-5.6c2.1-1.4,4.5-2.1,6.9-2.1
	c3.3,0,6.5,1.3,8.8,3.7C64.2,112.4,65.5,115.5,65.5,118.9z"/>
<radialGradient id="XMLID_28_" cx="-403.64" cy="598.6" r="1" gradientTransform="matrix(7.654043e-16 12.5 12.5 -7.654043e-16 -7454.5 5140.3711)" gradientUnits="userSpaceOnUse">
	<stop  offset="0" style="stop-color:#3FB6B6"/>
	<stop  offset="1" style="stop-color:#1D1D1D;stop-opacity:0"/>
</radialGradient>
<path id="XMLID_1_" fill="url(#XMLID_28_)" d="M40.5,94.9c0,2.5-0.7,4.9-2.1,6.9c-1.4,2.1-3.3,3.7-5.6,4.6c-2.3,0.9-4.8,1.2-7.2,0.7
	c-2.4-0.5-4.7-1.7-6.4-3.4c-1.7-1.7-2.9-4-3.4-6.4c-0.5-2.4-0.2-4.9,0.7-7.2c0.9-2.3,2.5-4.2,4.6-5.6c2.1-1.4,4.5-2.1,6.9-2.1
	c3.3,0,6.5,1.3,8.8,3.7C39.2,88.4,40.5,91.5,40.5,94.9z"/>
</svg>
