<?xml version="1.0" encoding="utf-8"?>
<!-- Generator: Adobe Illustrator 22.1.0, SVG Export Plug-In . SVG Version: 6.00 Build 0)  -->
<svg version="1.1" id="Layer_1" xmlns="http://www.w3.org/2000/svg" xmlns:xlink="http://www.w3.org/1999/xlink" x="0px" y="0px"
	 viewBox="0 0 169.5 161" enable-background="new 0 0 169.5 161" xml:space="preserve">
<path id="XMLID_65_" d="M71.8,29.4L22.6,45.3l49.2,15.9L121,45.3L71.8,29.4z"/>
<path id="XMLID_64_" d="M124.8,80.1c0.6,0,1.2,0,1.9,0V48.7L73.4,65.8v72.9l14.6-4.7c-1.8-4.6-2.7-9.5-2.7-14.4
	C85.2,97.9,103,80.1,124.8,80.1z"/>
<path id="XMLID_63_" d="M16.9,121.6l51.6,16.6V65.3L16.9,48.7V121.6z"/>
<path id="XMLID_60_" d="M124.8,85.1c-19.1,0-34.6,15.5-34.6,34.6c0,19.1,15.5,34.6,34.6,34.6c19.1,0,34.6-15.5,34.6-34.6
	C159.3,100.6,143.9,85.1,124.8,85.1z M142.4,110.8L120.7,132c-0.5,0.4-1.1,0.7-1.7,0.7c0,0-0.1,0-0.1,0c-0.7,0-1.3-0.3-1.8-0.8
	L107,120.7c-0.9-1-0.8-2.6,0.2-3.5c1-0.9,2.6-0.8,3.5,0.2l8.4,9.3l19.9-19.4c1-1,2.5-0.9,3.5,0C143.4,108.3,143.4,109.9,142.4,110.8
	L142.4,110.8z"/>
<radialGradient id="XMLID_67_" cx="-393.2502" cy="599.56" r="1" gradientTransform="matrix(7.654043e-16 12.5 12.5 -7.654043e-16 -7374.9502 4957.4985)" gradientUnits="userSpaceOnUse">
	<stop  offset="0" style="stop-color:#3FB6B6"/>
	<stop  offset="1" style="stop-color:#1D1D1D;stop-opacity:0"/>
</radialGradient>
<path id="XMLID_59_" fill="url(#XMLID_67_)" d="M132,41.9c0,2.5-0.7,4.9-2.1,6.9c-1.4,2.1-3.3,3.7-5.6,4.6c-2.3,0.9-4.8,1.2-7.2,0.7
	c-2.4-0.5-4.7-1.7-6.4-3.4c-1.8-1.7-2.9-4-3.4-6.4c-0.5-2.4-0.2-4.9,0.7-7.2c0.9-2.3,2.5-4.2,4.6-5.6c2.1-1.4,4.5-2.1,6.9-2.1
	c3.3,0,6.5,1.3,8.8,3.7C130.7,35.4,132,38.5,132,41.9z"/>
<radialGradient id="XMLID_68_" cx="-393.2502" cy="599.56" r="1" gradientTransform="matrix(7.654043e-16 12.5 12.5 -7.654043e-16 -7345.9502 5013.4985)" gradientUnits="userSpaceOnUse">
	<stop  offset="0" style="stop-color:#3FB6B6"/>
	<stop  offset="1" style="stop-color:#1D1D1D;stop-opacity:0"/>
</radialGradient>
<path id="XMLID_58_" fill="url(#XMLID_68_)" d="M161,97.9c0,2.5-0.7,4.9-2.1,6.9c-1.4,2.1-3.3,3.7-5.6,4.6s-4.8,1.2-7.2,0.7
	c-2.4-0.5-4.7-1.7-6.4-3.4c-1.8-1.7-2.9-4-3.4-6.4c-0.5-2.4-0.2-4.9,0.7-7.2c0.9-2.3,2.5-4.2,4.6-5.6c2.1-1.4,4.5-2.1,6.9-2.1
	c3.3,0,6.5,1.3,8.8,3.7C159.7,91.4,161,94.5,161,97.9z"/>
<radialGradient id="XMLID_69_" cx="-393.2502" cy="599.56" r="1" gradientTransform="matrix(7.654043e-16 12.5 12.5 -7.654043e-16 -7394.9502 5025.4985)" gradientUnits="userSpaceOnUse">
	<stop  offset="0" style="stop-color:#3FB6B6"/>
	<stop  offset="1" style="stop-color:#1D1D1D;stop-opacity:0"/>
</radialGradient>
<path id="XMLID_57_" fill="url(#XMLID_69_)" d="M112,109.9c0,2.5-0.7,4.9-2.1,6.9s-3.3,3.7-5.6,4.6c-2.3,0.9-4.8,1.2-7.2,0.7
	c-2.4-0.5-4.7-1.7-6.4-3.4c-1.7-1.7-2.9-4-3.4-6.4c-0.5-2.4-0.2-4.9,0.7-7.2c0.9-2.3,2.5-4.2,4.6-5.6c2.1-1.4,4.5-2.1,6.9-2.1
	c3.3,0,6.5,1.3,8.8,3.7C110.7,103.4,112,106.5,112,109.9z"/>
<g id="XMLID_55_">
	<path id="XMLID_56_" fill="none" stroke="#3FB6B6" stroke-width="0.9994" d="M112.3,38.3L64.8,53.6L17.2,38.3L64.8,23L112.3,38.3z"
		/>
</g>
<g id="XMLID_49_">
	<path id="XMLID_50_" fill="none" stroke="#3FB6B6" stroke-width="0.9994" d="M77.7,112.7c0-22.1,18-40,40.1-40c0.5,0,0.9,0,1.4,0
		V42.4L66.9,59.2v71.9l13.4-4.3 M77.7,112.7L77.7,112.7l0.5,0L77.7,112.7L77.7,112.7z M77.7,112.7c0,4.8,0.8,9.6,2.5,14.1
		 M80.3,126.8c0.1,0.2,0.1,0.3,0.2,0.5l0.3-0.6L80.3,126.8z"/>
</g>
<g id="XMLID_47_">
	<path id="XMLID_48_" fill="none" stroke="#3FB6B6" stroke-width="0.9994" d="M10.4,42.4l50.6,16.3v71.9l-50.6-16.3V42.4z"/>
</g>
<g id="XMLID_43_">
	<path id="XMLID_44_" fill="none" stroke="#3FB6B6" stroke-width="0.9994" d="M135.8,104.2l0.2-0.1v0c1-1.2,1-2.9-0.1-4
		c-1.1-1.2-3-1.2-4.2-0.1l0,0l-19.5,19l-8.1-8.9h0c-1.1-1.2-3-1.3-4.2-0.2c-1.2,1.1-1.3,3-0.2,4.2h0l10.2,11.2l0,0
		c0.5,0.6,1.3,0.9,2.1,1h0h0l0,0l0,0l0,0l0,0l0,0l0,0h0l0,0l0,0l0,0l0,0l0,0l0,0h0l0,0l0,0l0,0l0,0l0,0l0,0h0l0,0l0,0l0,0l0,0l0,0
		l0,0h0l0,0l0,0l0,0l0,0l0,0l0,0h0l0,0l0,0l0,0l0,0l0,0l0,0h0l0,0l0,0l0,0l0,0l0,0l0,0h0l0,0l0,0l0,0l0,0l0,0l0,0h0l0,0l0,0l0,0l0,0
		l0,0l0,0h0l0,0l0,0l0,0l0,0l0,0h0l0,0l0,0l0,0l0,0l0,0l0,0h0l0,0l0,0l0,0l0,0l0,0l0,0h0l0,0l0,0l0,0l0,0l0,0l0,0h0l0,0l0,0l0,0l0,0
		l0,0l0,0h0l0,0l0,0l0,0l0,0l0,0l0,0h0l0,0l0,0l0,0l0,0l0,0l0,0h0l0,0l0,0l0,0l0,0l0,0h0l0,0l0,0l0,0l0,0l0,0l0,0h0l0,0l0,0l0,0l0,0
		l0,0l0,0h0l0,0l0,0l0,0l0,0l0,0l0,0h0l0,0l0,0l0,0l0,0l0,0h0l0,0l0,0l0,0l0,0l0,0l0,0h0l0,0l0,0l0,0l0,0l0,0l0,0h0l0,0l0,0l0,0l0,0
		l0,0l0,0h0l0,0l0,0l0,0l0,0l0,0l0,0h0l0,0l0,0l0,0l0,0l0,0h0l0,0l0,0l0,0l0,0l0,0l0,0h0l0,0l0,0l0,0l0,0l0,0l0,0h0l0,0l0,0l0,0l0,0
		l0,0h0l0,0l0,0l0,0l0,0l0,0l0,0h0l0,0l0,0l0,0l0,0l0,0l0,0h0l0,0l0,0l0,0l0,0l0,0l0,0h0l0,0l0,0l0,0l0,0l0,0h0l0,0l0,0l0,0l0,0l0,0
		l0,0h0l0,0l0,0l0,0l0,0l0,0l0,0h0l0,0l0,0l0,0l0,0l0,0l0,0h0l0,0l0,0l0,0l0,0l0,0h0l0,0l0,0l0,0l0,0l0,0l0,0h0l0,0l0,0l0,0l0,0l0,0
		l0,0h0l0,0l0,0l0,0l0,0l0,0h0l0,0l0,0l0,0l0,0l0,0l0,0h0l0,0l0,0l0,0l0,0l0,0l0,0h0l0,0l0,0l0,0l0,0l0,0l0,0h0l0,0l0,0l0,0l0,0l0,0
		h0l0,0l0,0l0,0l0,0l0,0l0,0h0l0,0l0,0l0,0l0,0l0,0l0,0h0l0,0l0,0l0,0l0,0l0,0h0l0,0l0,0l0,0l0,0l0,0l0,0h0l0,0l0,0l0,0l0,0l0,0l0,0
		h0l0,0l0,0l0,0l0,0l0,0l0,0h0l0,0l0,0l0,0l0,0l0,0h0l0,0l0,0l0,0l0,0l0,0l0,0h0l0,0l0,0l0,0l0,0l0,0l0,0h0l0,0l0,0l0,0l0,0l0,0l0,0
		h0l0,0l0,0l0,0l0,0l0,0h0l0,0l0,0l0,0l0,0l0,0l0,0h0l0,0l0,0l0,0l0,0l0,0l0,0h0l0,0l0,0l0,0l0,0l0,0l0,0h0l0,0l0,0l0,0l0,0l0,0l0,0
		h0l0,0l0,0l0,0l0,0l0,0h0l0,0l0,0l0,0l0,0l0,0l0,0h0l0,0l0,0l0,0l0,0l0,0l0,0h0l0,0l0,0l0,0l0,0l0,0l0,0h0l0,0l0,0l0,0l0,0l0,0l0,0
		h0l0,0l0,0l0,0l0,0l0,0l0,0h0l0,0l0,0l0,0l0,0l0,0l0,0h0l0,0l0,0l0,0l0,0l0,0h0l0,0l0,0l0,0l0,0l0,0l0,0h0l0,0l0,0l0,0l0,0l0,0l0,0
		h0l0,0l0,0l0,0l0,0l0,0l0,0h0l0,0l0,0l0,0l0,0l0,0l0,0h0l0,0l0,0l0,0l0,0l0,0l0,0h0l0,0l0,0l0,0l0,0l0,0l0,0h0l0,0l0,0l0,0l0,0l0,0
		l0,0h0l0,0l0,0l0,0l0,0l0,0l0,0h0l0,0c0.8,0,1.5-0.3,2.1-0.8h0L135.8,104.2z M83.6,112.7c0-18.8,15.3-34.1,34.1-34.1
		c18.8,0,34.1,15.3,34.1,34.1c0,18.8-15.3,34.1-34.1,34.1C98.9,146.8,83.6,131.5,83.6,112.7z"/>
</g>
<radialGradient id="XMLID_70_" cx="-393.2502" cy="599.56" r="1" gradientTransform="matrix(7.654043e-16 12.5 12.5 -7.654043e-16 -7429.9502 4938.4985)" gradientUnits="userSpaceOnUse">
	<stop  offset="0" style="stop-color:#3FB6B6"/>
	<stop  offset="1" style="stop-color:#1D1D1D;stop-opacity:0"/>
</radialGradient>
<path id="XMLID_42_" fill="url(#XMLID_70_)" d="M77,22.9c0,2.5-0.7,4.9-2.1,6.9c-1.4,2.1-3.3,3.7-5.6,4.6c-2.3,0.9-4.8,1.2-7.2,0.7
	c-2.4-0.5-4.7-1.7-6.4-3.4c-1.7-1.7-2.9-4-3.4-6.4c-0.5-2.4-0.2-4.9,0.7-7.2c0.9-2.3,2.5-4.2,4.6-5.6c2.1-1.4,4.5-2.1,6.9-2.1
	c3.3,0,6.5,1.3,8.8,3.7C75.7,16.4,77,19.5,77,22.9z"/>
<radialGradient id="XMLID_71_" cx="-393.2502" cy="599.56" r="1" gradientTransform="matrix(7.654043e-16 12.5 12.5 -7.654043e-16 -7434.9502 5046.4985)" gradientUnits="userSpaceOnUse">
	<stop  offset="0" style="stop-color:#3FB6B6"/>
	<stop  offset="1" style="stop-color:#1D1D1D;stop-opacity:0"/>
</radialGradient>
<path id="XMLID_41_" fill="url(#XMLID_71_)" d="M72,130.9c0,2.5-0.7,4.9-2.1,6.9c-1.4,2.1-3.3,3.7-5.6,4.6s-4.8,1.2-7.2,0.7
	c-2.4-0.5-4.7-1.7-6.4-3.4c-1.7-1.7-2.9-4-3.4-6.4c-0.5-2.4-0.2-4.9,0.7-7.2c0.9-2.3,2.5-4.2,4.6-5.6c2.1-1.4,4.5-2.1,6.9-2.1
	c3.3,0,6.5,1.3,8.8,3.7C70.7,124.4,72,127.5,72,130.9z"/>
<radialGradient id="XMLID_72_" cx="-393.2502" cy="599.56" r="1" gradientTransform="matrix(7.654043e-16 12.5 12.5 -7.654043e-16 -7483.9502 4958.4985)" gradientUnits="userSpaceOnUse">
	<stop  offset="0" style="stop-color:#3FB6B6"/>
	<stop  offset="1" style="stop-color:#1D1D1D;stop-opacity:0"/>
</radialGradient>
<path id="XMLID_40_" fill="url(#XMLID_72_)" d="M23,42.9c0,2.5-0.7,4.9-2.1,6.9c-1.4,2.1-3.3,3.7-5.6,4.6c-2.3,0.9-4.8,1.2-7.2,0.7
	c-2.4-0.5-4.7-1.7-6.4-3.4c-1.7-1.7-2.9-4-3.4-6.4c-0.5-2.4-0.2-4.9,0.7-7.2c0.9-2.3,2.5-4.2,4.6-5.6c2.1-1.4,4.5-2.1,6.9-2.1
	c3.3,0,6.5,1.3,8.8,3.7C21.7,36.4,23,39.5,23,42.9z"/>
</svg>
